G04 EAGLE Gerber RS-274X export*
G75*
%MOMM*%
%FSLAX34Y34*%
%LPD*%
%IN*%
%IPPOS*%
%AMOC8*
5,1,8,0,0,1.08239X$1,22.5*%
G01*
%ADD10C,0.254000*%


D10*
X0Y25000D02*
X95Y22821D01*
X380Y20659D01*
X852Y18530D01*
X1508Y16450D01*
X2342Y14435D01*
X3349Y12500D01*
X4521Y10661D01*
X5849Y8930D01*
X7322Y7322D01*
X8930Y5849D01*
X10661Y4521D01*
X12500Y3349D01*
X14435Y2342D01*
X16450Y1508D01*
X18530Y852D01*
X20659Y380D01*
X22821Y95D01*
X25000Y0D01*
X1325000Y0D01*
X1327179Y95D01*
X1329341Y380D01*
X1331470Y852D01*
X1333551Y1508D01*
X1335565Y2342D01*
X1337500Y3349D01*
X1339339Y4521D01*
X1341070Y5849D01*
X1342678Y7322D01*
X1344151Y8930D01*
X1345479Y10661D01*
X1346651Y12500D01*
X1347658Y14435D01*
X1348492Y16450D01*
X1349148Y18530D01*
X1349620Y20659D01*
X1349905Y22821D01*
X1350000Y25000D01*
X1350000Y735000D01*
X1349905Y737179D01*
X1349620Y739341D01*
X1349148Y741470D01*
X1348492Y743551D01*
X1347658Y745565D01*
X1346651Y747500D01*
X1345479Y749339D01*
X1344151Y751070D01*
X1342678Y752678D01*
X1341070Y754151D01*
X1339339Y755479D01*
X1337500Y756651D01*
X1335565Y757658D01*
X1333551Y758492D01*
X1331470Y759148D01*
X1329341Y759620D01*
X1327179Y759905D01*
X1325000Y760000D01*
X1300000Y760000D01*
X1297821Y759905D01*
X1295659Y759620D01*
X1293530Y759148D01*
X1291450Y758492D01*
X1289435Y757658D01*
X1287500Y756651D01*
X1285661Y755479D01*
X1283930Y754151D01*
X1282322Y752678D01*
X1280849Y751070D01*
X1279521Y749339D01*
X1278349Y747500D01*
X1277342Y745565D01*
X1276508Y743551D01*
X1275852Y741470D01*
X1275380Y739341D01*
X1275095Y737179D01*
X1275000Y735000D01*
X1275000Y705000D01*
X1274905Y702821D01*
X1274620Y700659D01*
X1274148Y698530D01*
X1273492Y696450D01*
X1272658Y694435D01*
X1271651Y692500D01*
X1270479Y690661D01*
X1269151Y688930D01*
X1267678Y687322D01*
X1266070Y685849D01*
X1264339Y684521D01*
X1262500Y683349D01*
X1260565Y682342D01*
X1258551Y681508D01*
X1256470Y680852D01*
X1254341Y680380D01*
X1252179Y680095D01*
X1250000Y680000D01*
X100000Y680000D01*
X97821Y680095D01*
X95659Y680380D01*
X93530Y680852D01*
X91450Y681508D01*
X89435Y682342D01*
X87500Y683349D01*
X85661Y684521D01*
X83930Y685849D01*
X82322Y687322D01*
X80849Y688930D01*
X79521Y690661D01*
X78349Y692500D01*
X77342Y694435D01*
X76508Y696450D01*
X75852Y698530D01*
X75380Y700659D01*
X75095Y702821D01*
X75000Y705000D01*
X75000Y735000D01*
X74905Y737179D01*
X74620Y739341D01*
X74148Y741470D01*
X73492Y743551D01*
X72658Y745565D01*
X71651Y747500D01*
X70479Y749339D01*
X69151Y751070D01*
X67678Y752678D01*
X66070Y754151D01*
X64339Y755479D01*
X62500Y756651D01*
X60565Y757658D01*
X58551Y758492D01*
X56470Y759148D01*
X54341Y759620D01*
X52179Y759905D01*
X50000Y760000D01*
X25000Y760000D01*
X22821Y759905D01*
X20659Y759620D01*
X18530Y759148D01*
X16450Y758492D01*
X14435Y757658D01*
X12500Y756651D01*
X10661Y755479D01*
X8930Y754151D01*
X7322Y752678D01*
X5849Y751070D01*
X4521Y749339D01*
X3349Y747500D01*
X2342Y745565D01*
X1508Y743551D01*
X852Y741470D01*
X380Y739341D01*
X95Y737179D01*
X0Y735000D01*
X0Y25000D01*
X1170000Y61964D02*
X1169924Y60896D01*
X1169771Y59835D01*
X1169543Y58788D01*
X1169241Y57760D01*
X1168867Y56756D01*
X1168422Y55781D01*
X1167908Y54841D01*
X1167329Y53940D01*
X1166687Y53082D01*
X1165985Y52272D01*
X1165228Y51515D01*
X1164418Y50813D01*
X1163560Y50171D01*
X1162659Y49592D01*
X1161719Y49078D01*
X1160744Y48633D01*
X1159740Y48259D01*
X1158712Y47957D01*
X1157665Y47729D01*
X1156604Y47576D01*
X1155536Y47500D01*
X1154464Y47500D01*
X1153396Y47576D01*
X1152335Y47729D01*
X1151288Y47957D01*
X1150260Y48259D01*
X1149256Y48633D01*
X1148281Y49078D01*
X1147341Y49592D01*
X1146440Y50171D01*
X1145582Y50813D01*
X1144772Y51515D01*
X1144015Y52272D01*
X1143313Y53082D01*
X1142671Y53940D01*
X1142092Y54841D01*
X1141578Y55781D01*
X1141133Y56756D01*
X1140759Y57760D01*
X1140457Y58788D01*
X1140229Y59835D01*
X1140076Y60896D01*
X1140000Y61964D01*
X1140000Y63036D01*
X1140076Y64104D01*
X1140229Y65165D01*
X1140457Y66212D01*
X1140759Y67240D01*
X1141133Y68244D01*
X1141578Y69219D01*
X1142092Y70159D01*
X1142671Y71060D01*
X1143313Y71918D01*
X1144015Y72728D01*
X1144772Y73485D01*
X1145582Y74187D01*
X1146440Y74829D01*
X1147341Y75408D01*
X1148281Y75922D01*
X1149256Y76367D01*
X1150260Y76741D01*
X1151288Y77043D01*
X1152335Y77271D01*
X1153396Y77424D01*
X1154464Y77500D01*
X1155536Y77500D01*
X1156604Y77424D01*
X1157665Y77271D01*
X1158712Y77043D01*
X1159740Y76741D01*
X1160744Y76367D01*
X1161719Y75922D01*
X1162659Y75408D01*
X1163560Y74829D01*
X1164418Y74187D01*
X1165228Y73485D01*
X1165985Y72728D01*
X1166687Y71918D01*
X1167329Y71060D01*
X1167908Y70159D01*
X1168422Y69219D01*
X1168867Y68244D01*
X1169241Y67240D01*
X1169543Y66212D01*
X1169771Y65165D01*
X1169924Y64104D01*
X1170000Y63036D01*
X1170000Y61964D01*
X820000Y244464D02*
X819924Y243396D01*
X819771Y242335D01*
X819543Y241288D01*
X819241Y240260D01*
X818867Y239256D01*
X818422Y238281D01*
X817908Y237341D01*
X817329Y236440D01*
X816687Y235582D01*
X815985Y234772D01*
X815228Y234015D01*
X814418Y233313D01*
X813560Y232671D01*
X812659Y232092D01*
X811719Y231578D01*
X810744Y231133D01*
X809740Y230759D01*
X808712Y230457D01*
X807665Y230229D01*
X806604Y230076D01*
X805536Y230000D01*
X804464Y230000D01*
X803396Y230076D01*
X802335Y230229D01*
X801288Y230457D01*
X800260Y230759D01*
X799256Y231133D01*
X798281Y231578D01*
X797341Y232092D01*
X796440Y232671D01*
X795582Y233313D01*
X794772Y234015D01*
X794015Y234772D01*
X793313Y235582D01*
X792671Y236440D01*
X792092Y237341D01*
X791578Y238281D01*
X791133Y239256D01*
X790759Y240260D01*
X790457Y241288D01*
X790229Y242335D01*
X790076Y243396D01*
X790000Y244464D01*
X790000Y245536D01*
X790076Y246604D01*
X790229Y247665D01*
X790457Y248712D01*
X790759Y249740D01*
X791133Y250744D01*
X791578Y251719D01*
X792092Y252659D01*
X792671Y253560D01*
X793313Y254418D01*
X794015Y255228D01*
X794772Y255985D01*
X795582Y256687D01*
X796440Y257329D01*
X797341Y257908D01*
X798281Y258422D01*
X799256Y258867D01*
X800260Y259241D01*
X801288Y259543D01*
X802335Y259771D01*
X803396Y259924D01*
X804464Y260000D01*
X805536Y260000D01*
X806604Y259924D01*
X807665Y259771D01*
X808712Y259543D01*
X809740Y259241D01*
X810744Y258867D01*
X811719Y258422D01*
X812659Y257908D01*
X813560Y257329D01*
X814418Y256687D01*
X815228Y255985D01*
X815985Y255228D01*
X816687Y254418D01*
X817329Y253560D01*
X817908Y252659D01*
X818422Y251719D01*
X818867Y250744D01*
X819241Y249740D01*
X819543Y248712D01*
X819771Y247665D01*
X819924Y246604D01*
X820000Y245536D01*
X820000Y244464D01*
X52600Y724464D02*
X52524Y723396D01*
X52371Y722335D01*
X52143Y721288D01*
X51841Y720260D01*
X51467Y719256D01*
X51022Y718281D01*
X50508Y717341D01*
X49929Y716440D01*
X49287Y715582D01*
X48585Y714772D01*
X47828Y714015D01*
X47018Y713313D01*
X46160Y712671D01*
X45259Y712092D01*
X44319Y711578D01*
X43344Y711133D01*
X42340Y710759D01*
X41312Y710457D01*
X40265Y710229D01*
X39204Y710076D01*
X38136Y710000D01*
X37064Y710000D01*
X35996Y710076D01*
X34935Y710229D01*
X33888Y710457D01*
X32860Y710759D01*
X31856Y711133D01*
X30881Y711578D01*
X29941Y712092D01*
X29040Y712671D01*
X28182Y713313D01*
X27372Y714015D01*
X26615Y714772D01*
X25913Y715582D01*
X25271Y716440D01*
X24692Y717341D01*
X24178Y718281D01*
X23733Y719256D01*
X23359Y720260D01*
X23057Y721288D01*
X22829Y722335D01*
X22676Y723396D01*
X22600Y724464D01*
X22600Y725536D01*
X22676Y726604D01*
X22829Y727665D01*
X23057Y728712D01*
X23359Y729740D01*
X23733Y730744D01*
X24178Y731719D01*
X24692Y732659D01*
X25271Y733560D01*
X25913Y734418D01*
X26615Y735228D01*
X27372Y735985D01*
X28182Y736687D01*
X29040Y737329D01*
X29941Y737908D01*
X30881Y738422D01*
X31856Y738867D01*
X32860Y739241D01*
X33888Y739543D01*
X34935Y739771D01*
X35996Y739924D01*
X37064Y740000D01*
X38136Y740000D01*
X39204Y739924D01*
X40265Y739771D01*
X41312Y739543D01*
X42340Y739241D01*
X43344Y738867D01*
X44319Y738422D01*
X45259Y737908D01*
X46160Y737329D01*
X47018Y736687D01*
X47828Y735985D01*
X48585Y735228D01*
X49287Y734418D01*
X49929Y733560D01*
X50508Y732659D01*
X51022Y731719D01*
X51467Y730744D01*
X51841Y729740D01*
X52143Y728712D01*
X52371Y727665D01*
X52524Y726604D01*
X52600Y725536D01*
X52600Y724464D01*
X52600Y214464D02*
X52524Y213396D01*
X52371Y212335D01*
X52143Y211288D01*
X51841Y210260D01*
X51467Y209256D01*
X51022Y208281D01*
X50508Y207341D01*
X49929Y206440D01*
X49287Y205582D01*
X48585Y204772D01*
X47828Y204015D01*
X47018Y203313D01*
X46160Y202671D01*
X45259Y202092D01*
X44319Y201578D01*
X43344Y201133D01*
X42340Y200759D01*
X41312Y200457D01*
X40265Y200229D01*
X39204Y200076D01*
X38136Y200000D01*
X37064Y200000D01*
X35996Y200076D01*
X34935Y200229D01*
X33888Y200457D01*
X32860Y200759D01*
X31856Y201133D01*
X30881Y201578D01*
X29941Y202092D01*
X29040Y202671D01*
X28182Y203313D01*
X27372Y204015D01*
X26615Y204772D01*
X25913Y205582D01*
X25271Y206440D01*
X24692Y207341D01*
X24178Y208281D01*
X23733Y209256D01*
X23359Y210260D01*
X23057Y211288D01*
X22829Y212335D01*
X22676Y213396D01*
X22600Y214464D01*
X22600Y215536D01*
X22676Y216604D01*
X22829Y217665D01*
X23057Y218712D01*
X23359Y219740D01*
X23733Y220744D01*
X24178Y221719D01*
X24692Y222659D01*
X25271Y223560D01*
X25913Y224418D01*
X26615Y225228D01*
X27372Y225985D01*
X28182Y226687D01*
X29040Y227329D01*
X29941Y227908D01*
X30881Y228422D01*
X31856Y228867D01*
X32860Y229241D01*
X33888Y229543D01*
X34935Y229771D01*
X35996Y229924D01*
X37064Y230000D01*
X38136Y230000D01*
X39204Y229924D01*
X40265Y229771D01*
X41312Y229543D01*
X42340Y229241D01*
X43344Y228867D01*
X44319Y228422D01*
X45259Y227908D01*
X46160Y227329D01*
X47018Y226687D01*
X47828Y225985D01*
X48585Y225228D01*
X49287Y224418D01*
X49929Y223560D01*
X50508Y222659D01*
X51022Y221719D01*
X51467Y220744D01*
X51841Y219740D01*
X52143Y218712D01*
X52371Y217665D01*
X52524Y216604D01*
X52600Y215536D01*
X52600Y214464D01*
X1327600Y724464D02*
X1327524Y723396D01*
X1327371Y722335D01*
X1327143Y721288D01*
X1326841Y720260D01*
X1326467Y719256D01*
X1326022Y718281D01*
X1325508Y717341D01*
X1324929Y716440D01*
X1324287Y715582D01*
X1323585Y714772D01*
X1322828Y714015D01*
X1322018Y713313D01*
X1321160Y712671D01*
X1320259Y712092D01*
X1319319Y711578D01*
X1318344Y711133D01*
X1317340Y710759D01*
X1316312Y710457D01*
X1315265Y710229D01*
X1314204Y710076D01*
X1313136Y710000D01*
X1312064Y710000D01*
X1310996Y710076D01*
X1309935Y710229D01*
X1308888Y710457D01*
X1307860Y710759D01*
X1306856Y711133D01*
X1305881Y711578D01*
X1304941Y712092D01*
X1304040Y712671D01*
X1303182Y713313D01*
X1302372Y714015D01*
X1301615Y714772D01*
X1300913Y715582D01*
X1300271Y716440D01*
X1299692Y717341D01*
X1299178Y718281D01*
X1298733Y719256D01*
X1298359Y720260D01*
X1298057Y721288D01*
X1297829Y722335D01*
X1297676Y723396D01*
X1297600Y724464D01*
X1297600Y725536D01*
X1297676Y726604D01*
X1297829Y727665D01*
X1298057Y728712D01*
X1298359Y729740D01*
X1298733Y730744D01*
X1299178Y731719D01*
X1299692Y732659D01*
X1300271Y733560D01*
X1300913Y734418D01*
X1301615Y735228D01*
X1302372Y735985D01*
X1303182Y736687D01*
X1304040Y737329D01*
X1304941Y737908D01*
X1305881Y738422D01*
X1306856Y738867D01*
X1307860Y739241D01*
X1308888Y739543D01*
X1309935Y739771D01*
X1310996Y739924D01*
X1312064Y740000D01*
X1313136Y740000D01*
X1314204Y739924D01*
X1315265Y739771D01*
X1316312Y739543D01*
X1317340Y739241D01*
X1318344Y738867D01*
X1319319Y738422D01*
X1320259Y737908D01*
X1321160Y737329D01*
X1322018Y736687D01*
X1322828Y735985D01*
X1323585Y735228D01*
X1324287Y734418D01*
X1324929Y733560D01*
X1325508Y732659D01*
X1326022Y731719D01*
X1326467Y730744D01*
X1326841Y729740D01*
X1327143Y728712D01*
X1327371Y727665D01*
X1327524Y726604D01*
X1327600Y725536D01*
X1327600Y724464D01*
X1327600Y214464D02*
X1327524Y213396D01*
X1327371Y212335D01*
X1327143Y211288D01*
X1326841Y210260D01*
X1326467Y209256D01*
X1326022Y208281D01*
X1325508Y207341D01*
X1324929Y206440D01*
X1324287Y205582D01*
X1323585Y204772D01*
X1322828Y204015D01*
X1322018Y203313D01*
X1321160Y202671D01*
X1320259Y202092D01*
X1319319Y201578D01*
X1318344Y201133D01*
X1317340Y200759D01*
X1316312Y200457D01*
X1315265Y200229D01*
X1314204Y200076D01*
X1313136Y200000D01*
X1312064Y200000D01*
X1310996Y200076D01*
X1309935Y200229D01*
X1308888Y200457D01*
X1307860Y200759D01*
X1306856Y201133D01*
X1305881Y201578D01*
X1304941Y202092D01*
X1304040Y202671D01*
X1303182Y203313D01*
X1302372Y204015D01*
X1301615Y204772D01*
X1300913Y205582D01*
X1300271Y206440D01*
X1299692Y207341D01*
X1299178Y208281D01*
X1298733Y209256D01*
X1298359Y210260D01*
X1298057Y211288D01*
X1297829Y212335D01*
X1297676Y213396D01*
X1297600Y214464D01*
X1297600Y215536D01*
X1297676Y216604D01*
X1297829Y217665D01*
X1298057Y218712D01*
X1298359Y219740D01*
X1298733Y220744D01*
X1299178Y221719D01*
X1299692Y222659D01*
X1300271Y223560D01*
X1300913Y224418D01*
X1301615Y225228D01*
X1302372Y225985D01*
X1303182Y226687D01*
X1304040Y227329D01*
X1304941Y227908D01*
X1305881Y228422D01*
X1306856Y228867D01*
X1307860Y229241D01*
X1308888Y229543D01*
X1309935Y229771D01*
X1310996Y229924D01*
X1312064Y230000D01*
X1313136Y230000D01*
X1314204Y229924D01*
X1315265Y229771D01*
X1316312Y229543D01*
X1317340Y229241D01*
X1318344Y228867D01*
X1319319Y228422D01*
X1320259Y227908D01*
X1321160Y227329D01*
X1322018Y226687D01*
X1322828Y225985D01*
X1323585Y225228D01*
X1324287Y224418D01*
X1324929Y223560D01*
X1325508Y222659D01*
X1326022Y221719D01*
X1326467Y220744D01*
X1326841Y219740D01*
X1327143Y218712D01*
X1327371Y217665D01*
X1327524Y216604D01*
X1327600Y215536D01*
X1327600Y214464D01*
M02*
