G04 EAGLE Gerber RS-274X export*
G75*
%MOMM*%
%FSLAX34Y34*%
%LPD*%
%INSilkscreen Bottom*%
%IPPOS*%
%AMOC8*
5,1,8,0,0,1.08239X$1,22.5*%
G01*
%ADD10C,0.152400*%


D10*
X1190207Y167714D02*
X1190209Y167596D01*
X1190215Y167478D01*
X1190224Y167360D01*
X1190238Y167243D01*
X1190255Y167126D01*
X1190276Y167009D01*
X1190301Y166894D01*
X1190330Y166779D01*
X1190363Y166665D01*
X1190399Y166553D01*
X1190439Y166442D01*
X1190482Y166332D01*
X1190529Y166223D01*
X1190579Y166116D01*
X1190634Y166011D01*
X1190691Y165908D01*
X1190752Y165807D01*
X1190816Y165707D01*
X1190883Y165610D01*
X1190953Y165515D01*
X1191027Y165423D01*
X1191103Y165332D01*
X1191183Y165245D01*
X1191265Y165160D01*
X1191350Y165078D01*
X1191437Y164998D01*
X1191528Y164922D01*
X1191620Y164848D01*
X1191715Y164778D01*
X1191812Y164711D01*
X1191912Y164647D01*
X1192013Y164586D01*
X1192116Y164529D01*
X1192221Y164474D01*
X1192328Y164424D01*
X1192437Y164377D01*
X1192547Y164334D01*
X1192658Y164294D01*
X1192770Y164258D01*
X1192884Y164225D01*
X1192999Y164196D01*
X1193114Y164171D01*
X1193231Y164150D01*
X1193348Y164133D01*
X1193465Y164119D01*
X1193583Y164110D01*
X1193701Y164104D01*
X1193819Y164102D01*
X1194002Y164104D01*
X1194184Y164111D01*
X1194366Y164122D01*
X1194548Y164137D01*
X1194730Y164157D01*
X1194911Y164181D01*
X1195091Y164209D01*
X1195271Y164241D01*
X1195450Y164278D01*
X1195627Y164319D01*
X1195804Y164365D01*
X1195980Y164414D01*
X1196155Y164468D01*
X1196328Y164526D01*
X1196499Y164588D01*
X1196670Y164654D01*
X1196838Y164725D01*
X1197005Y164799D01*
X1197170Y164877D01*
X1197333Y164959D01*
X1197494Y165045D01*
X1197653Y165135D01*
X1197810Y165229D01*
X1197964Y165326D01*
X1198116Y165427D01*
X1198266Y165532D01*
X1198413Y165640D01*
X1198557Y165751D01*
X1198699Y165866D01*
X1198838Y165985D01*
X1198974Y166107D01*
X1199107Y166232D01*
X1199237Y166360D01*
X1198786Y176746D02*
X1198784Y176864D01*
X1198778Y176982D01*
X1198769Y177100D01*
X1198755Y177217D01*
X1198738Y177334D01*
X1198717Y177451D01*
X1198692Y177566D01*
X1198663Y177681D01*
X1198630Y177795D01*
X1198594Y177907D01*
X1198554Y178018D01*
X1198511Y178128D01*
X1198464Y178237D01*
X1198414Y178344D01*
X1198359Y178449D01*
X1198302Y178552D01*
X1198241Y178653D01*
X1198177Y178753D01*
X1198110Y178850D01*
X1198040Y178945D01*
X1197966Y179037D01*
X1197890Y179128D01*
X1197810Y179215D01*
X1197728Y179300D01*
X1197643Y179382D01*
X1197556Y179462D01*
X1197465Y179538D01*
X1197373Y179612D01*
X1197278Y179682D01*
X1197181Y179749D01*
X1197081Y179813D01*
X1196980Y179874D01*
X1196877Y179931D01*
X1196772Y179986D01*
X1196665Y180036D01*
X1196556Y180083D01*
X1196446Y180126D01*
X1196335Y180166D01*
X1196223Y180202D01*
X1196109Y180235D01*
X1195994Y180264D01*
X1195879Y180289D01*
X1195762Y180310D01*
X1195645Y180327D01*
X1195528Y180341D01*
X1195410Y180350D01*
X1195292Y180356D01*
X1195174Y180358D01*
X1195013Y180356D01*
X1194851Y180350D01*
X1194690Y180341D01*
X1194529Y180327D01*
X1194369Y180310D01*
X1194209Y180289D01*
X1194049Y180264D01*
X1193890Y180235D01*
X1193732Y180203D01*
X1193575Y180167D01*
X1193419Y180127D01*
X1193263Y180083D01*
X1193109Y180035D01*
X1192956Y179984D01*
X1192804Y179930D01*
X1192653Y179871D01*
X1192504Y179810D01*
X1192357Y179744D01*
X1192211Y179675D01*
X1192066Y179603D01*
X1191924Y179527D01*
X1191783Y179448D01*
X1191644Y179366D01*
X1191508Y179280D01*
X1191373Y179191D01*
X1191240Y179099D01*
X1191110Y179003D01*
X1196981Y173585D02*
X1197082Y173647D01*
X1197182Y173712D01*
X1197279Y173781D01*
X1197374Y173853D01*
X1197467Y173927D01*
X1197557Y174005D01*
X1197645Y174086D01*
X1197730Y174169D01*
X1197812Y174255D01*
X1197891Y174344D01*
X1197968Y174435D01*
X1198041Y174529D01*
X1198112Y174625D01*
X1198179Y174723D01*
X1198243Y174823D01*
X1198304Y174926D01*
X1198361Y175030D01*
X1198415Y175136D01*
X1198465Y175244D01*
X1198512Y175353D01*
X1198556Y175464D01*
X1198596Y175576D01*
X1198632Y175690D01*
X1198664Y175804D01*
X1198693Y175920D01*
X1198718Y176036D01*
X1198739Y176153D01*
X1198756Y176271D01*
X1198770Y176389D01*
X1198779Y176508D01*
X1198785Y176627D01*
X1198787Y176746D01*
X1192013Y170875D02*
X1191912Y170813D01*
X1191812Y170748D01*
X1191715Y170679D01*
X1191620Y170607D01*
X1191527Y170533D01*
X1191437Y170455D01*
X1191349Y170374D01*
X1191264Y170291D01*
X1191182Y170205D01*
X1191103Y170116D01*
X1191026Y170025D01*
X1190953Y169931D01*
X1190882Y169835D01*
X1190815Y169737D01*
X1190751Y169637D01*
X1190690Y169534D01*
X1190633Y169430D01*
X1190579Y169324D01*
X1190529Y169216D01*
X1190482Y169107D01*
X1190438Y168996D01*
X1190398Y168884D01*
X1190362Y168770D01*
X1190330Y168656D01*
X1190301Y168540D01*
X1190276Y168424D01*
X1190255Y168307D01*
X1190238Y168189D01*
X1190224Y168071D01*
X1190215Y167952D01*
X1190209Y167833D01*
X1190207Y167714D01*
X1192013Y170875D02*
X1196980Y173585D01*
X1181540Y164102D02*
X1177927Y164102D01*
X1181540Y164102D02*
X1181641Y164104D01*
X1181742Y164110D01*
X1181843Y164119D01*
X1181944Y164132D01*
X1182044Y164149D01*
X1182143Y164170D01*
X1182241Y164194D01*
X1182338Y164222D01*
X1182435Y164254D01*
X1182530Y164289D01*
X1182623Y164328D01*
X1182715Y164370D01*
X1182806Y164416D01*
X1182895Y164465D01*
X1182981Y164517D01*
X1183066Y164573D01*
X1183149Y164631D01*
X1183229Y164693D01*
X1183307Y164758D01*
X1183383Y164825D01*
X1183456Y164895D01*
X1183526Y164968D01*
X1183593Y165044D01*
X1183658Y165122D01*
X1183720Y165202D01*
X1183778Y165285D01*
X1183834Y165370D01*
X1183886Y165456D01*
X1183935Y165545D01*
X1183981Y165636D01*
X1184023Y165728D01*
X1184062Y165821D01*
X1184097Y165916D01*
X1184129Y166013D01*
X1184157Y166110D01*
X1184181Y166208D01*
X1184202Y166307D01*
X1184219Y166407D01*
X1184232Y166508D01*
X1184241Y166609D01*
X1184247Y166710D01*
X1184249Y166811D01*
X1184249Y172230D01*
X1184247Y172331D01*
X1184241Y172432D01*
X1184232Y172533D01*
X1184219Y172634D01*
X1184202Y172734D01*
X1184181Y172833D01*
X1184157Y172931D01*
X1184129Y173028D01*
X1184097Y173125D01*
X1184062Y173220D01*
X1184023Y173313D01*
X1183981Y173405D01*
X1183935Y173496D01*
X1183886Y173585D01*
X1183834Y173671D01*
X1183778Y173756D01*
X1183720Y173839D01*
X1183658Y173919D01*
X1183593Y173997D01*
X1183526Y174073D01*
X1183456Y174146D01*
X1183383Y174216D01*
X1183307Y174283D01*
X1183229Y174348D01*
X1183149Y174410D01*
X1183066Y174468D01*
X1182981Y174524D01*
X1182895Y174576D01*
X1182806Y174625D01*
X1182715Y174671D01*
X1182623Y174713D01*
X1182530Y174752D01*
X1182435Y174787D01*
X1182338Y174819D01*
X1182241Y174847D01*
X1182143Y174871D01*
X1182044Y174892D01*
X1181944Y174909D01*
X1181843Y174922D01*
X1181742Y174931D01*
X1181641Y174937D01*
X1181540Y174939D01*
X1177927Y174939D01*
X1171677Y174939D02*
X1171677Y164102D01*
X1171677Y174939D02*
X1166258Y174939D01*
X1166258Y173133D01*
X1161376Y174939D02*
X1161376Y164102D01*
X1161827Y179455D02*
X1161827Y180358D01*
X1160924Y180358D01*
X1160924Y179455D01*
X1161827Y179455D01*
X1154494Y180358D02*
X1154494Y164102D01*
X1149979Y164102D01*
X1149875Y164104D01*
X1149772Y164110D01*
X1149668Y164120D01*
X1149565Y164134D01*
X1149463Y164152D01*
X1149362Y164173D01*
X1149261Y164199D01*
X1149162Y164228D01*
X1149063Y164261D01*
X1148966Y164298D01*
X1148871Y164339D01*
X1148777Y164383D01*
X1148685Y164431D01*
X1148595Y164482D01*
X1148506Y164537D01*
X1148420Y164595D01*
X1148337Y164657D01*
X1148255Y164721D01*
X1148177Y164789D01*
X1148101Y164859D01*
X1148027Y164932D01*
X1147957Y165009D01*
X1147889Y165087D01*
X1147825Y165169D01*
X1147763Y165252D01*
X1147705Y165338D01*
X1147650Y165427D01*
X1147599Y165517D01*
X1147551Y165609D01*
X1147507Y165703D01*
X1147466Y165798D01*
X1147429Y165895D01*
X1147396Y165994D01*
X1147367Y166093D01*
X1147341Y166194D01*
X1147320Y166295D01*
X1147302Y166397D01*
X1147288Y166500D01*
X1147278Y166604D01*
X1147272Y166707D01*
X1147270Y166811D01*
X1147269Y166811D02*
X1147269Y172230D01*
X1147270Y172230D02*
X1147272Y172331D01*
X1147278Y172432D01*
X1147287Y172533D01*
X1147300Y172634D01*
X1147317Y172734D01*
X1147338Y172833D01*
X1147362Y172931D01*
X1147390Y173028D01*
X1147422Y173125D01*
X1147457Y173220D01*
X1147496Y173313D01*
X1147538Y173405D01*
X1147584Y173496D01*
X1147633Y173585D01*
X1147685Y173671D01*
X1147741Y173756D01*
X1147799Y173839D01*
X1147861Y173919D01*
X1147926Y173997D01*
X1147993Y174073D01*
X1148063Y174146D01*
X1148136Y174216D01*
X1148212Y174283D01*
X1148290Y174348D01*
X1148370Y174410D01*
X1148453Y174468D01*
X1148538Y174524D01*
X1148625Y174576D01*
X1148713Y174625D01*
X1148804Y174671D01*
X1148896Y174713D01*
X1148989Y174752D01*
X1149084Y174787D01*
X1149181Y174819D01*
X1149278Y174847D01*
X1149376Y174871D01*
X1149475Y174892D01*
X1149575Y174909D01*
X1149676Y174922D01*
X1149777Y174931D01*
X1149878Y174937D01*
X1149979Y174939D01*
X1154494Y174939D01*
X1137933Y170424D02*
X1133869Y170424D01*
X1137933Y170424D02*
X1138045Y170422D01*
X1138156Y170416D01*
X1138267Y170406D01*
X1138378Y170393D01*
X1138488Y170375D01*
X1138597Y170353D01*
X1138706Y170328D01*
X1138814Y170299D01*
X1138920Y170266D01*
X1139026Y170229D01*
X1139130Y170189D01*
X1139232Y170145D01*
X1139333Y170097D01*
X1139432Y170046D01*
X1139530Y169991D01*
X1139625Y169933D01*
X1139718Y169872D01*
X1139809Y169807D01*
X1139898Y169739D01*
X1139984Y169668D01*
X1140067Y169595D01*
X1140148Y169518D01*
X1140227Y169438D01*
X1140302Y169356D01*
X1140374Y169271D01*
X1140444Y169184D01*
X1140510Y169094D01*
X1140573Y169002D01*
X1140633Y168907D01*
X1140689Y168811D01*
X1140742Y168713D01*
X1140791Y168613D01*
X1140837Y168511D01*
X1140879Y168408D01*
X1140918Y168303D01*
X1140953Y168197D01*
X1140984Y168090D01*
X1141011Y167982D01*
X1141035Y167873D01*
X1141054Y167763D01*
X1141070Y167653D01*
X1141082Y167542D01*
X1141090Y167430D01*
X1141094Y167319D01*
X1141094Y167207D01*
X1141090Y167096D01*
X1141082Y166984D01*
X1141070Y166873D01*
X1141054Y166763D01*
X1141035Y166653D01*
X1141011Y166544D01*
X1140984Y166436D01*
X1140953Y166329D01*
X1140918Y166223D01*
X1140879Y166118D01*
X1140837Y166015D01*
X1140791Y165913D01*
X1140742Y165813D01*
X1140689Y165715D01*
X1140633Y165619D01*
X1140573Y165524D01*
X1140510Y165432D01*
X1140444Y165342D01*
X1140374Y165255D01*
X1140302Y165170D01*
X1140227Y165088D01*
X1140148Y165008D01*
X1140067Y164931D01*
X1139984Y164858D01*
X1139898Y164787D01*
X1139809Y164719D01*
X1139718Y164654D01*
X1139625Y164593D01*
X1139530Y164535D01*
X1139432Y164480D01*
X1139333Y164429D01*
X1139232Y164381D01*
X1139130Y164337D01*
X1139026Y164297D01*
X1138920Y164260D01*
X1138814Y164227D01*
X1138706Y164198D01*
X1138597Y164173D01*
X1138488Y164151D01*
X1138378Y164133D01*
X1138267Y164120D01*
X1138156Y164110D01*
X1138045Y164104D01*
X1137933Y164102D01*
X1133869Y164102D01*
X1133869Y172230D01*
X1133871Y172331D01*
X1133877Y172432D01*
X1133886Y172533D01*
X1133899Y172634D01*
X1133916Y172734D01*
X1133937Y172833D01*
X1133961Y172931D01*
X1133989Y173028D01*
X1134021Y173125D01*
X1134056Y173220D01*
X1134095Y173313D01*
X1134137Y173405D01*
X1134183Y173496D01*
X1134232Y173585D01*
X1134284Y173671D01*
X1134340Y173756D01*
X1134398Y173839D01*
X1134460Y173919D01*
X1134525Y173997D01*
X1134592Y174073D01*
X1134662Y174146D01*
X1134735Y174216D01*
X1134811Y174283D01*
X1134889Y174348D01*
X1134969Y174410D01*
X1135052Y174468D01*
X1135137Y174524D01*
X1135224Y174576D01*
X1135312Y174625D01*
X1135403Y174671D01*
X1135495Y174713D01*
X1135588Y174752D01*
X1135683Y174787D01*
X1135780Y174819D01*
X1135877Y174847D01*
X1135975Y174871D01*
X1136074Y174892D01*
X1136174Y174909D01*
X1136275Y174922D01*
X1136376Y174931D01*
X1136477Y174937D01*
X1136578Y174939D01*
X1140191Y174939D01*
X1117864Y180358D02*
X1117864Y164102D01*
X1117864Y180358D02*
X1113349Y180358D01*
X1113216Y180356D01*
X1113084Y180350D01*
X1112952Y180340D01*
X1112820Y180327D01*
X1112688Y180309D01*
X1112558Y180288D01*
X1112427Y180263D01*
X1112298Y180234D01*
X1112170Y180201D01*
X1112042Y180165D01*
X1111916Y180125D01*
X1111791Y180081D01*
X1111667Y180033D01*
X1111545Y179982D01*
X1111424Y179927D01*
X1111305Y179869D01*
X1111187Y179807D01*
X1111072Y179742D01*
X1110958Y179673D01*
X1110847Y179602D01*
X1110738Y179526D01*
X1110631Y179448D01*
X1110526Y179367D01*
X1110424Y179282D01*
X1110324Y179195D01*
X1110227Y179105D01*
X1110132Y179012D01*
X1110041Y178916D01*
X1109952Y178818D01*
X1109866Y178717D01*
X1109783Y178613D01*
X1109703Y178507D01*
X1109627Y178399D01*
X1109553Y178289D01*
X1109483Y178176D01*
X1109416Y178062D01*
X1109353Y177945D01*
X1109293Y177827D01*
X1109236Y177707D01*
X1109183Y177585D01*
X1109134Y177462D01*
X1109088Y177338D01*
X1109046Y177212D01*
X1109008Y177085D01*
X1108973Y176957D01*
X1108942Y176828D01*
X1108915Y176699D01*
X1108892Y176568D01*
X1108872Y176437D01*
X1108857Y176305D01*
X1108845Y176173D01*
X1108837Y176041D01*
X1108833Y175908D01*
X1108833Y175776D01*
X1108837Y175643D01*
X1108845Y175511D01*
X1108857Y175379D01*
X1108872Y175247D01*
X1108892Y175116D01*
X1108915Y174985D01*
X1108942Y174856D01*
X1108973Y174727D01*
X1109008Y174599D01*
X1109046Y174472D01*
X1109088Y174346D01*
X1109134Y174222D01*
X1109183Y174099D01*
X1109236Y173977D01*
X1109293Y173857D01*
X1109353Y173739D01*
X1109416Y173622D01*
X1109483Y173508D01*
X1109553Y173395D01*
X1109627Y173285D01*
X1109703Y173177D01*
X1109783Y173071D01*
X1109866Y172967D01*
X1109952Y172866D01*
X1110041Y172768D01*
X1110132Y172672D01*
X1110227Y172579D01*
X1110324Y172489D01*
X1110424Y172402D01*
X1110526Y172317D01*
X1110631Y172236D01*
X1110738Y172158D01*
X1110847Y172082D01*
X1110958Y172011D01*
X1111072Y171942D01*
X1111187Y171877D01*
X1111305Y171815D01*
X1111424Y171757D01*
X1111545Y171702D01*
X1111667Y171651D01*
X1111791Y171603D01*
X1111916Y171559D01*
X1112042Y171519D01*
X1112170Y171483D01*
X1112298Y171450D01*
X1112427Y171421D01*
X1112558Y171396D01*
X1112688Y171375D01*
X1112820Y171357D01*
X1112952Y171344D01*
X1113084Y171334D01*
X1113216Y171328D01*
X1113349Y171326D01*
X1113349Y171327D02*
X1117864Y171327D01*
X1112445Y171327D02*
X1108833Y164102D01*
X1102463Y167714D02*
X1102463Y171327D01*
X1102461Y171446D01*
X1102455Y171566D01*
X1102445Y171685D01*
X1102431Y171803D01*
X1102414Y171922D01*
X1102392Y172039D01*
X1102367Y172156D01*
X1102337Y172271D01*
X1102304Y172386D01*
X1102267Y172500D01*
X1102227Y172612D01*
X1102182Y172723D01*
X1102134Y172832D01*
X1102083Y172940D01*
X1102028Y173046D01*
X1101969Y173150D01*
X1101907Y173252D01*
X1101842Y173352D01*
X1101773Y173450D01*
X1101701Y173546D01*
X1101626Y173639D01*
X1101549Y173729D01*
X1101468Y173817D01*
X1101384Y173902D01*
X1101297Y173984D01*
X1101208Y174064D01*
X1101116Y174140D01*
X1101022Y174214D01*
X1100925Y174284D01*
X1100827Y174351D01*
X1100726Y174415D01*
X1100622Y174475D01*
X1100517Y174532D01*
X1100410Y174585D01*
X1100302Y174635D01*
X1100192Y174681D01*
X1100080Y174723D01*
X1099967Y174762D01*
X1099853Y174797D01*
X1099738Y174828D01*
X1099621Y174856D01*
X1099504Y174879D01*
X1099387Y174899D01*
X1099268Y174915D01*
X1099149Y174927D01*
X1099030Y174935D01*
X1098911Y174939D01*
X1098791Y174939D01*
X1098672Y174935D01*
X1098553Y174927D01*
X1098434Y174915D01*
X1098315Y174899D01*
X1098198Y174879D01*
X1098081Y174856D01*
X1097964Y174828D01*
X1097849Y174797D01*
X1097735Y174762D01*
X1097622Y174723D01*
X1097510Y174681D01*
X1097400Y174635D01*
X1097292Y174585D01*
X1097185Y174532D01*
X1097080Y174475D01*
X1096976Y174415D01*
X1096875Y174351D01*
X1096777Y174284D01*
X1096680Y174214D01*
X1096586Y174140D01*
X1096494Y174064D01*
X1096405Y173984D01*
X1096318Y173902D01*
X1096234Y173817D01*
X1096153Y173729D01*
X1096076Y173639D01*
X1096001Y173546D01*
X1095929Y173450D01*
X1095860Y173352D01*
X1095795Y173252D01*
X1095733Y173150D01*
X1095674Y173046D01*
X1095619Y172940D01*
X1095568Y172832D01*
X1095520Y172723D01*
X1095475Y172612D01*
X1095435Y172500D01*
X1095398Y172386D01*
X1095365Y172271D01*
X1095335Y172156D01*
X1095310Y172039D01*
X1095288Y171922D01*
X1095271Y171803D01*
X1095257Y171685D01*
X1095247Y171566D01*
X1095241Y171446D01*
X1095239Y171327D01*
X1095239Y167714D01*
X1095241Y167595D01*
X1095247Y167475D01*
X1095257Y167356D01*
X1095271Y167238D01*
X1095288Y167119D01*
X1095310Y167002D01*
X1095335Y166885D01*
X1095365Y166770D01*
X1095398Y166655D01*
X1095435Y166541D01*
X1095475Y166429D01*
X1095520Y166318D01*
X1095568Y166209D01*
X1095619Y166101D01*
X1095674Y165995D01*
X1095733Y165891D01*
X1095795Y165789D01*
X1095860Y165689D01*
X1095929Y165591D01*
X1096001Y165495D01*
X1096076Y165402D01*
X1096153Y165312D01*
X1096234Y165224D01*
X1096318Y165139D01*
X1096405Y165057D01*
X1096494Y164977D01*
X1096586Y164901D01*
X1096680Y164827D01*
X1096777Y164757D01*
X1096875Y164690D01*
X1096976Y164626D01*
X1097080Y164566D01*
X1097185Y164509D01*
X1097292Y164456D01*
X1097400Y164406D01*
X1097510Y164360D01*
X1097622Y164318D01*
X1097735Y164279D01*
X1097849Y164244D01*
X1097964Y164213D01*
X1098081Y164185D01*
X1098198Y164162D01*
X1098315Y164142D01*
X1098434Y164126D01*
X1098553Y164114D01*
X1098672Y164106D01*
X1098791Y164102D01*
X1098911Y164102D01*
X1099030Y164106D01*
X1099149Y164114D01*
X1099268Y164126D01*
X1099387Y164142D01*
X1099504Y164162D01*
X1099621Y164185D01*
X1099738Y164213D01*
X1099853Y164244D01*
X1099967Y164279D01*
X1100080Y164318D01*
X1100192Y164360D01*
X1100302Y164406D01*
X1100410Y164456D01*
X1100517Y164509D01*
X1100622Y164566D01*
X1100726Y164626D01*
X1100827Y164690D01*
X1100925Y164757D01*
X1101022Y164827D01*
X1101116Y164901D01*
X1101208Y164977D01*
X1101297Y165057D01*
X1101384Y165139D01*
X1101468Y165224D01*
X1101549Y165312D01*
X1101626Y165402D01*
X1101701Y165495D01*
X1101773Y165591D01*
X1101842Y165689D01*
X1101907Y165789D01*
X1101969Y165891D01*
X1102028Y165995D01*
X1102083Y166101D01*
X1102134Y166209D01*
X1102182Y166318D01*
X1102227Y166429D01*
X1102267Y166541D01*
X1102304Y166655D01*
X1102337Y166770D01*
X1102367Y166885D01*
X1102392Y167002D01*
X1102414Y167119D01*
X1102431Y167238D01*
X1102445Y167356D01*
X1102455Y167475D01*
X1102461Y167595D01*
X1102463Y167714D01*
X1088322Y164102D02*
X1088322Y180358D01*
X1088322Y164102D02*
X1083807Y164102D01*
X1083703Y164104D01*
X1083600Y164110D01*
X1083496Y164120D01*
X1083393Y164134D01*
X1083291Y164152D01*
X1083190Y164173D01*
X1083089Y164199D01*
X1082990Y164228D01*
X1082891Y164261D01*
X1082794Y164298D01*
X1082699Y164339D01*
X1082605Y164383D01*
X1082513Y164431D01*
X1082423Y164482D01*
X1082334Y164537D01*
X1082248Y164595D01*
X1082165Y164657D01*
X1082083Y164721D01*
X1082005Y164789D01*
X1081929Y164859D01*
X1081855Y164932D01*
X1081785Y165009D01*
X1081717Y165087D01*
X1081653Y165169D01*
X1081591Y165252D01*
X1081533Y165338D01*
X1081478Y165427D01*
X1081427Y165517D01*
X1081379Y165609D01*
X1081335Y165703D01*
X1081294Y165798D01*
X1081257Y165895D01*
X1081224Y165994D01*
X1081195Y166093D01*
X1081169Y166194D01*
X1081148Y166295D01*
X1081130Y166397D01*
X1081116Y166500D01*
X1081106Y166604D01*
X1081100Y166707D01*
X1081098Y166811D01*
X1081097Y166811D02*
X1081097Y172230D01*
X1081099Y172331D01*
X1081105Y172432D01*
X1081114Y172533D01*
X1081127Y172634D01*
X1081144Y172734D01*
X1081165Y172833D01*
X1081189Y172931D01*
X1081217Y173028D01*
X1081249Y173125D01*
X1081284Y173220D01*
X1081323Y173313D01*
X1081365Y173405D01*
X1081411Y173496D01*
X1081460Y173585D01*
X1081512Y173671D01*
X1081568Y173756D01*
X1081626Y173839D01*
X1081688Y173919D01*
X1081753Y173997D01*
X1081820Y174073D01*
X1081890Y174146D01*
X1081963Y174216D01*
X1082039Y174283D01*
X1082117Y174348D01*
X1082197Y174410D01*
X1082280Y174468D01*
X1082365Y174524D01*
X1082452Y174576D01*
X1082540Y174625D01*
X1082631Y174671D01*
X1082723Y174713D01*
X1082816Y174752D01*
X1082911Y174787D01*
X1083008Y174819D01*
X1083105Y174847D01*
X1083203Y174871D01*
X1083302Y174892D01*
X1083402Y174909D01*
X1083503Y174922D01*
X1083604Y174931D01*
X1083705Y174937D01*
X1083806Y174939D01*
X1083807Y174939D02*
X1088322Y174939D01*
X1074848Y171327D02*
X1074848Y167714D01*
X1074848Y171327D02*
X1074846Y171446D01*
X1074840Y171566D01*
X1074830Y171685D01*
X1074816Y171803D01*
X1074799Y171922D01*
X1074777Y172039D01*
X1074752Y172156D01*
X1074722Y172271D01*
X1074689Y172386D01*
X1074652Y172500D01*
X1074612Y172612D01*
X1074567Y172723D01*
X1074519Y172832D01*
X1074468Y172940D01*
X1074413Y173046D01*
X1074354Y173150D01*
X1074292Y173252D01*
X1074227Y173352D01*
X1074158Y173450D01*
X1074086Y173546D01*
X1074011Y173639D01*
X1073934Y173729D01*
X1073853Y173817D01*
X1073769Y173902D01*
X1073682Y173984D01*
X1073593Y174064D01*
X1073501Y174140D01*
X1073407Y174214D01*
X1073310Y174284D01*
X1073212Y174351D01*
X1073111Y174415D01*
X1073007Y174475D01*
X1072902Y174532D01*
X1072795Y174585D01*
X1072687Y174635D01*
X1072577Y174681D01*
X1072465Y174723D01*
X1072352Y174762D01*
X1072238Y174797D01*
X1072123Y174828D01*
X1072006Y174856D01*
X1071889Y174879D01*
X1071772Y174899D01*
X1071653Y174915D01*
X1071534Y174927D01*
X1071415Y174935D01*
X1071296Y174939D01*
X1071176Y174939D01*
X1071057Y174935D01*
X1070938Y174927D01*
X1070819Y174915D01*
X1070700Y174899D01*
X1070583Y174879D01*
X1070466Y174856D01*
X1070349Y174828D01*
X1070234Y174797D01*
X1070120Y174762D01*
X1070007Y174723D01*
X1069895Y174681D01*
X1069785Y174635D01*
X1069677Y174585D01*
X1069570Y174532D01*
X1069465Y174475D01*
X1069361Y174415D01*
X1069260Y174351D01*
X1069162Y174284D01*
X1069065Y174214D01*
X1068971Y174140D01*
X1068879Y174064D01*
X1068790Y173984D01*
X1068703Y173902D01*
X1068619Y173817D01*
X1068538Y173729D01*
X1068461Y173639D01*
X1068386Y173546D01*
X1068314Y173450D01*
X1068245Y173352D01*
X1068180Y173252D01*
X1068118Y173150D01*
X1068059Y173046D01*
X1068004Y172940D01*
X1067953Y172832D01*
X1067905Y172723D01*
X1067860Y172612D01*
X1067820Y172500D01*
X1067783Y172386D01*
X1067750Y172271D01*
X1067720Y172156D01*
X1067695Y172039D01*
X1067673Y171922D01*
X1067656Y171803D01*
X1067642Y171685D01*
X1067632Y171566D01*
X1067626Y171446D01*
X1067624Y171327D01*
X1067623Y171327D02*
X1067623Y167714D01*
X1067624Y167714D02*
X1067626Y167595D01*
X1067632Y167475D01*
X1067642Y167356D01*
X1067656Y167238D01*
X1067673Y167119D01*
X1067695Y167002D01*
X1067720Y166885D01*
X1067750Y166770D01*
X1067783Y166655D01*
X1067820Y166541D01*
X1067860Y166429D01*
X1067905Y166318D01*
X1067953Y166209D01*
X1068004Y166101D01*
X1068059Y165995D01*
X1068118Y165891D01*
X1068180Y165789D01*
X1068245Y165689D01*
X1068314Y165591D01*
X1068386Y165495D01*
X1068461Y165402D01*
X1068538Y165312D01*
X1068619Y165224D01*
X1068703Y165139D01*
X1068790Y165057D01*
X1068879Y164977D01*
X1068971Y164901D01*
X1069065Y164827D01*
X1069162Y164757D01*
X1069260Y164690D01*
X1069361Y164626D01*
X1069465Y164566D01*
X1069570Y164509D01*
X1069677Y164456D01*
X1069785Y164406D01*
X1069895Y164360D01*
X1070007Y164318D01*
X1070120Y164279D01*
X1070234Y164244D01*
X1070349Y164213D01*
X1070466Y164185D01*
X1070583Y164162D01*
X1070700Y164142D01*
X1070819Y164126D01*
X1070938Y164114D01*
X1071057Y164106D01*
X1071176Y164102D01*
X1071296Y164102D01*
X1071415Y164106D01*
X1071534Y164114D01*
X1071653Y164126D01*
X1071772Y164142D01*
X1071889Y164162D01*
X1072006Y164185D01*
X1072123Y164213D01*
X1072238Y164244D01*
X1072352Y164279D01*
X1072465Y164318D01*
X1072577Y164360D01*
X1072687Y164406D01*
X1072795Y164456D01*
X1072902Y164509D01*
X1073007Y164566D01*
X1073111Y164626D01*
X1073212Y164690D01*
X1073310Y164757D01*
X1073407Y164827D01*
X1073501Y164901D01*
X1073593Y164977D01*
X1073682Y165057D01*
X1073769Y165139D01*
X1073853Y165224D01*
X1073934Y165312D01*
X1074011Y165402D01*
X1074086Y165495D01*
X1074158Y165591D01*
X1074227Y165689D01*
X1074292Y165789D01*
X1074354Y165891D01*
X1074413Y165995D01*
X1074468Y166101D01*
X1074519Y166209D01*
X1074567Y166318D01*
X1074612Y166429D01*
X1074652Y166541D01*
X1074689Y166655D01*
X1074722Y166770D01*
X1074752Y166885D01*
X1074777Y167002D01*
X1074799Y167119D01*
X1074816Y167238D01*
X1074830Y167356D01*
X1074840Y167475D01*
X1074846Y167595D01*
X1074848Y167714D01*
X1062598Y174939D02*
X1057180Y174939D01*
X1060792Y180358D02*
X1060792Y166811D01*
X1060790Y166710D01*
X1060784Y166609D01*
X1060775Y166508D01*
X1060762Y166407D01*
X1060745Y166307D01*
X1060724Y166208D01*
X1060700Y166110D01*
X1060672Y166013D01*
X1060640Y165916D01*
X1060605Y165821D01*
X1060566Y165728D01*
X1060524Y165636D01*
X1060478Y165545D01*
X1060429Y165456D01*
X1060377Y165370D01*
X1060321Y165285D01*
X1060263Y165202D01*
X1060201Y165122D01*
X1060136Y165044D01*
X1060069Y164968D01*
X1059999Y164895D01*
X1059926Y164825D01*
X1059850Y164758D01*
X1059772Y164693D01*
X1059692Y164631D01*
X1059609Y164573D01*
X1059524Y164517D01*
X1059438Y164465D01*
X1059349Y164416D01*
X1059258Y164370D01*
X1059166Y164328D01*
X1059073Y164289D01*
X1058978Y164254D01*
X1058881Y164222D01*
X1058784Y164194D01*
X1058686Y164170D01*
X1058587Y164149D01*
X1058487Y164132D01*
X1058386Y164119D01*
X1058285Y164110D01*
X1058184Y164104D01*
X1058083Y164102D01*
X1057180Y164102D01*
X1042194Y164102D02*
X1042194Y180358D01*
X1037678Y180358D01*
X1037545Y180356D01*
X1037413Y180350D01*
X1037281Y180340D01*
X1037149Y180327D01*
X1037017Y180309D01*
X1036887Y180288D01*
X1036756Y180263D01*
X1036627Y180234D01*
X1036499Y180201D01*
X1036371Y180165D01*
X1036245Y180125D01*
X1036120Y180081D01*
X1035996Y180033D01*
X1035874Y179982D01*
X1035753Y179927D01*
X1035634Y179869D01*
X1035516Y179807D01*
X1035401Y179742D01*
X1035287Y179673D01*
X1035176Y179602D01*
X1035067Y179526D01*
X1034960Y179448D01*
X1034855Y179367D01*
X1034753Y179282D01*
X1034653Y179195D01*
X1034556Y179105D01*
X1034461Y179012D01*
X1034370Y178916D01*
X1034281Y178818D01*
X1034195Y178717D01*
X1034112Y178613D01*
X1034032Y178507D01*
X1033956Y178399D01*
X1033882Y178289D01*
X1033812Y178176D01*
X1033745Y178062D01*
X1033682Y177945D01*
X1033622Y177827D01*
X1033565Y177707D01*
X1033512Y177585D01*
X1033463Y177462D01*
X1033417Y177338D01*
X1033375Y177212D01*
X1033337Y177085D01*
X1033302Y176957D01*
X1033271Y176828D01*
X1033244Y176699D01*
X1033221Y176568D01*
X1033201Y176437D01*
X1033186Y176305D01*
X1033174Y176173D01*
X1033166Y176041D01*
X1033162Y175908D01*
X1033162Y175776D01*
X1033166Y175643D01*
X1033174Y175511D01*
X1033186Y175379D01*
X1033201Y175247D01*
X1033221Y175116D01*
X1033244Y174985D01*
X1033271Y174856D01*
X1033302Y174727D01*
X1033337Y174599D01*
X1033375Y174472D01*
X1033417Y174346D01*
X1033463Y174222D01*
X1033512Y174099D01*
X1033565Y173977D01*
X1033622Y173857D01*
X1033682Y173739D01*
X1033745Y173622D01*
X1033812Y173508D01*
X1033882Y173395D01*
X1033956Y173285D01*
X1034032Y173177D01*
X1034112Y173071D01*
X1034195Y172967D01*
X1034281Y172866D01*
X1034370Y172768D01*
X1034461Y172672D01*
X1034556Y172579D01*
X1034653Y172489D01*
X1034753Y172402D01*
X1034855Y172317D01*
X1034960Y172236D01*
X1035067Y172158D01*
X1035176Y172082D01*
X1035287Y172011D01*
X1035401Y171942D01*
X1035516Y171877D01*
X1035634Y171815D01*
X1035753Y171757D01*
X1035874Y171702D01*
X1035996Y171651D01*
X1036120Y171603D01*
X1036245Y171559D01*
X1036371Y171519D01*
X1036499Y171483D01*
X1036627Y171450D01*
X1036756Y171421D01*
X1036887Y171396D01*
X1037017Y171375D01*
X1037149Y171357D01*
X1037281Y171344D01*
X1037413Y171334D01*
X1037545Y171328D01*
X1037678Y171326D01*
X1037678Y171327D02*
X1042194Y171327D01*
X1026828Y174939D02*
X1026828Y164102D01*
X1026828Y174939D02*
X1021409Y174939D01*
X1021409Y173133D01*
X1016527Y174939D02*
X1016527Y164102D01*
X1016978Y179455D02*
X1016978Y180358D01*
X1016075Y180358D01*
X1016075Y179455D01*
X1016978Y179455D01*
X1009718Y174939D02*
X1009718Y164102D01*
X1009718Y174939D02*
X1005203Y174939D01*
X1005099Y174937D01*
X1004996Y174931D01*
X1004892Y174921D01*
X1004789Y174907D01*
X1004687Y174889D01*
X1004586Y174868D01*
X1004485Y174842D01*
X1004386Y174813D01*
X1004287Y174780D01*
X1004190Y174743D01*
X1004095Y174702D01*
X1004001Y174658D01*
X1003909Y174610D01*
X1003819Y174559D01*
X1003730Y174504D01*
X1003644Y174446D01*
X1003561Y174384D01*
X1003479Y174320D01*
X1003401Y174252D01*
X1003325Y174182D01*
X1003251Y174109D01*
X1003181Y174032D01*
X1003113Y173954D01*
X1003049Y173872D01*
X1002987Y173789D01*
X1002929Y173703D01*
X1002874Y173614D01*
X1002823Y173524D01*
X1002775Y173432D01*
X1002731Y173338D01*
X1002690Y173243D01*
X1002653Y173146D01*
X1002620Y173047D01*
X1002591Y172948D01*
X1002565Y172847D01*
X1002544Y172746D01*
X1002526Y172644D01*
X1002512Y172541D01*
X1002502Y172437D01*
X1002496Y172334D01*
X1002494Y172230D01*
X1002493Y172230D02*
X1002493Y164102D01*
X996947Y174939D02*
X991529Y174939D01*
X995141Y180358D02*
X995141Y166811D01*
X995139Y166710D01*
X995133Y166609D01*
X995124Y166508D01*
X995111Y166407D01*
X995094Y166307D01*
X995073Y166208D01*
X995049Y166110D01*
X995021Y166013D01*
X994989Y165916D01*
X994954Y165821D01*
X994915Y165728D01*
X994873Y165636D01*
X994827Y165545D01*
X994778Y165456D01*
X994726Y165370D01*
X994670Y165285D01*
X994612Y165202D01*
X994550Y165122D01*
X994485Y165044D01*
X994418Y164968D01*
X994348Y164895D01*
X994275Y164825D01*
X994199Y164758D01*
X994121Y164693D01*
X994041Y164631D01*
X993958Y164573D01*
X993873Y164517D01*
X993787Y164465D01*
X993698Y164416D01*
X993607Y164370D01*
X993515Y164328D01*
X993422Y164289D01*
X993327Y164254D01*
X993230Y164222D01*
X993133Y164194D01*
X993035Y164170D01*
X992936Y164149D01*
X992836Y164132D01*
X992735Y164119D01*
X992634Y164110D01*
X992533Y164104D01*
X992432Y164102D01*
X991529Y164102D01*
X985229Y164102D02*
X985229Y180358D01*
X985229Y174939D02*
X980714Y174939D01*
X980610Y174937D01*
X980507Y174931D01*
X980403Y174921D01*
X980300Y174907D01*
X980198Y174889D01*
X980097Y174868D01*
X979996Y174842D01*
X979897Y174813D01*
X979798Y174780D01*
X979701Y174743D01*
X979606Y174702D01*
X979512Y174658D01*
X979420Y174610D01*
X979330Y174559D01*
X979241Y174504D01*
X979155Y174446D01*
X979072Y174384D01*
X978990Y174320D01*
X978912Y174252D01*
X978836Y174182D01*
X978762Y174109D01*
X978692Y174032D01*
X978624Y173954D01*
X978560Y173872D01*
X978498Y173789D01*
X978440Y173703D01*
X978385Y173614D01*
X978334Y173524D01*
X978286Y173432D01*
X978242Y173338D01*
X978201Y173243D01*
X978164Y173146D01*
X978131Y173047D01*
X978102Y172948D01*
X978076Y172847D01*
X978055Y172746D01*
X978037Y172644D01*
X978023Y172541D01*
X978013Y172437D01*
X978007Y172334D01*
X978005Y172230D01*
X978004Y172230D02*
X978004Y164102D01*
X968452Y164102D02*
X963936Y164102D01*
X968452Y164102D02*
X968553Y164104D01*
X968654Y164110D01*
X968755Y164119D01*
X968856Y164132D01*
X968956Y164149D01*
X969055Y164170D01*
X969153Y164194D01*
X969250Y164222D01*
X969347Y164254D01*
X969442Y164289D01*
X969535Y164328D01*
X969627Y164370D01*
X969718Y164416D01*
X969807Y164465D01*
X969893Y164517D01*
X969978Y164573D01*
X970061Y164631D01*
X970141Y164693D01*
X970219Y164758D01*
X970295Y164825D01*
X970368Y164895D01*
X970438Y164968D01*
X970505Y165044D01*
X970570Y165122D01*
X970632Y165202D01*
X970690Y165285D01*
X970746Y165370D01*
X970798Y165456D01*
X970847Y165545D01*
X970893Y165636D01*
X970935Y165728D01*
X970974Y165821D01*
X971009Y165916D01*
X971041Y166013D01*
X971069Y166110D01*
X971093Y166208D01*
X971114Y166307D01*
X971131Y166407D01*
X971144Y166508D01*
X971153Y166609D01*
X971159Y166710D01*
X971161Y166811D01*
X971161Y171327D01*
X971159Y171446D01*
X971153Y171566D01*
X971143Y171685D01*
X971129Y171803D01*
X971112Y171922D01*
X971090Y172039D01*
X971065Y172156D01*
X971035Y172271D01*
X971002Y172386D01*
X970965Y172500D01*
X970925Y172612D01*
X970880Y172723D01*
X970832Y172832D01*
X970781Y172940D01*
X970726Y173046D01*
X970667Y173150D01*
X970605Y173252D01*
X970540Y173352D01*
X970471Y173450D01*
X970399Y173546D01*
X970324Y173639D01*
X970247Y173729D01*
X970166Y173817D01*
X970082Y173902D01*
X969995Y173984D01*
X969906Y174064D01*
X969814Y174140D01*
X969720Y174214D01*
X969623Y174284D01*
X969525Y174351D01*
X969424Y174415D01*
X969320Y174475D01*
X969215Y174532D01*
X969108Y174585D01*
X969000Y174635D01*
X968890Y174681D01*
X968778Y174723D01*
X968665Y174762D01*
X968551Y174797D01*
X968436Y174828D01*
X968319Y174856D01*
X968202Y174879D01*
X968085Y174899D01*
X967966Y174915D01*
X967847Y174927D01*
X967728Y174935D01*
X967609Y174939D01*
X967489Y174939D01*
X967370Y174935D01*
X967251Y174927D01*
X967132Y174915D01*
X967013Y174899D01*
X966896Y174879D01*
X966779Y174856D01*
X966662Y174828D01*
X966547Y174797D01*
X966433Y174762D01*
X966320Y174723D01*
X966208Y174681D01*
X966098Y174635D01*
X965990Y174585D01*
X965883Y174532D01*
X965778Y174475D01*
X965674Y174415D01*
X965573Y174351D01*
X965475Y174284D01*
X965378Y174214D01*
X965284Y174140D01*
X965192Y174064D01*
X965103Y173984D01*
X965016Y173902D01*
X964932Y173817D01*
X964851Y173729D01*
X964774Y173639D01*
X964699Y173546D01*
X964627Y173450D01*
X964558Y173352D01*
X964493Y173252D01*
X964431Y173150D01*
X964372Y173046D01*
X964317Y172940D01*
X964266Y172832D01*
X964218Y172723D01*
X964173Y172612D01*
X964133Y172500D01*
X964096Y172386D01*
X964063Y172271D01*
X964033Y172156D01*
X964008Y172039D01*
X963986Y171922D01*
X963969Y171803D01*
X963955Y171685D01*
X963945Y171566D01*
X963939Y171446D01*
X963937Y171327D01*
X963936Y171327D02*
X963936Y169521D01*
X971161Y169521D01*
X954527Y170424D02*
X950463Y170424D01*
X954527Y170424D02*
X954639Y170422D01*
X954750Y170416D01*
X954861Y170406D01*
X954972Y170393D01*
X955082Y170375D01*
X955191Y170353D01*
X955300Y170328D01*
X955408Y170299D01*
X955514Y170266D01*
X955620Y170229D01*
X955724Y170189D01*
X955826Y170145D01*
X955927Y170097D01*
X956026Y170046D01*
X956124Y169991D01*
X956219Y169933D01*
X956312Y169872D01*
X956403Y169807D01*
X956492Y169739D01*
X956578Y169668D01*
X956661Y169595D01*
X956742Y169518D01*
X956821Y169438D01*
X956896Y169356D01*
X956968Y169271D01*
X957038Y169184D01*
X957104Y169094D01*
X957167Y169002D01*
X957227Y168907D01*
X957283Y168811D01*
X957336Y168713D01*
X957385Y168613D01*
X957431Y168511D01*
X957473Y168408D01*
X957512Y168303D01*
X957547Y168197D01*
X957578Y168090D01*
X957605Y167982D01*
X957629Y167873D01*
X957648Y167763D01*
X957664Y167653D01*
X957676Y167542D01*
X957684Y167430D01*
X957688Y167319D01*
X957688Y167207D01*
X957684Y167096D01*
X957676Y166984D01*
X957664Y166873D01*
X957648Y166763D01*
X957629Y166653D01*
X957605Y166544D01*
X957578Y166436D01*
X957547Y166329D01*
X957512Y166223D01*
X957473Y166118D01*
X957431Y166015D01*
X957385Y165913D01*
X957336Y165813D01*
X957283Y165715D01*
X957227Y165619D01*
X957167Y165524D01*
X957104Y165432D01*
X957038Y165342D01*
X956968Y165255D01*
X956896Y165170D01*
X956821Y165088D01*
X956742Y165008D01*
X956661Y164931D01*
X956578Y164858D01*
X956492Y164787D01*
X956403Y164719D01*
X956312Y164654D01*
X956219Y164593D01*
X956124Y164535D01*
X956026Y164480D01*
X955927Y164429D01*
X955826Y164381D01*
X955724Y164337D01*
X955620Y164297D01*
X955514Y164260D01*
X955408Y164227D01*
X955300Y164198D01*
X955191Y164173D01*
X955082Y164151D01*
X954972Y164133D01*
X954861Y164120D01*
X954750Y164110D01*
X954639Y164104D01*
X954527Y164102D01*
X950463Y164102D01*
X950463Y172230D01*
X950465Y172331D01*
X950471Y172432D01*
X950480Y172533D01*
X950493Y172634D01*
X950510Y172734D01*
X950531Y172833D01*
X950555Y172931D01*
X950583Y173028D01*
X950615Y173125D01*
X950650Y173220D01*
X950689Y173313D01*
X950731Y173405D01*
X950777Y173496D01*
X950826Y173585D01*
X950878Y173671D01*
X950934Y173756D01*
X950992Y173839D01*
X951054Y173919D01*
X951119Y173997D01*
X951186Y174073D01*
X951256Y174146D01*
X951329Y174216D01*
X951405Y174283D01*
X951483Y174348D01*
X951563Y174410D01*
X951646Y174468D01*
X951731Y174524D01*
X951818Y174576D01*
X951906Y174625D01*
X951997Y174671D01*
X952089Y174713D01*
X952182Y174752D01*
X952277Y174787D01*
X952374Y174819D01*
X952471Y174847D01*
X952569Y174871D01*
X952668Y174892D01*
X952768Y174909D01*
X952869Y174922D01*
X952970Y174931D01*
X953071Y174937D01*
X953172Y174939D01*
X956784Y174939D01*
X936395Y180358D02*
X936395Y164102D01*
X940910Y164102D01*
X941011Y164104D01*
X941112Y164110D01*
X941213Y164119D01*
X941314Y164132D01*
X941414Y164149D01*
X941513Y164170D01*
X941611Y164194D01*
X941708Y164222D01*
X941805Y164254D01*
X941900Y164289D01*
X941993Y164328D01*
X942085Y164370D01*
X942176Y164416D01*
X942265Y164465D01*
X942351Y164517D01*
X942436Y164573D01*
X942519Y164631D01*
X942599Y164693D01*
X942677Y164758D01*
X942753Y164825D01*
X942826Y164895D01*
X942896Y164968D01*
X942963Y165044D01*
X943028Y165122D01*
X943090Y165202D01*
X943148Y165285D01*
X943204Y165370D01*
X943256Y165456D01*
X943305Y165545D01*
X943351Y165636D01*
X943393Y165728D01*
X943432Y165821D01*
X943467Y165916D01*
X943499Y166013D01*
X943527Y166110D01*
X943551Y166208D01*
X943572Y166307D01*
X943589Y166407D01*
X943602Y166508D01*
X943611Y166609D01*
X943617Y166710D01*
X943619Y166811D01*
X943619Y172230D01*
X943617Y172331D01*
X943611Y172432D01*
X943602Y172533D01*
X943589Y172634D01*
X943572Y172734D01*
X943551Y172833D01*
X943527Y172931D01*
X943499Y173028D01*
X943467Y173125D01*
X943432Y173220D01*
X943393Y173313D01*
X943351Y173405D01*
X943305Y173496D01*
X943256Y173585D01*
X943204Y173671D01*
X943148Y173756D01*
X943090Y173839D01*
X943028Y173919D01*
X942963Y173997D01*
X942896Y174073D01*
X942826Y174146D01*
X942753Y174216D01*
X942677Y174283D01*
X942599Y174348D01*
X942519Y174410D01*
X942436Y174468D01*
X942351Y174524D01*
X942265Y174576D01*
X942176Y174625D01*
X942085Y174671D01*
X941993Y174713D01*
X941900Y174752D01*
X941805Y174787D01*
X941708Y174819D01*
X941611Y174847D01*
X941513Y174871D01*
X941414Y174892D01*
X941314Y174909D01*
X941213Y174922D01*
X941112Y174931D01*
X941011Y174937D01*
X940910Y174939D01*
X936395Y174939D01*
X917429Y164102D02*
X913817Y164102D01*
X917429Y164102D02*
X917547Y164104D01*
X917665Y164110D01*
X917783Y164119D01*
X917900Y164133D01*
X918017Y164150D01*
X918134Y164171D01*
X918249Y164196D01*
X918364Y164225D01*
X918478Y164258D01*
X918590Y164294D01*
X918701Y164334D01*
X918811Y164377D01*
X918920Y164424D01*
X919027Y164474D01*
X919132Y164529D01*
X919235Y164586D01*
X919336Y164647D01*
X919436Y164711D01*
X919533Y164778D01*
X919628Y164848D01*
X919720Y164922D01*
X919811Y164998D01*
X919898Y165078D01*
X919983Y165160D01*
X920065Y165245D01*
X920145Y165332D01*
X920221Y165423D01*
X920295Y165515D01*
X920365Y165610D01*
X920432Y165707D01*
X920496Y165807D01*
X920557Y165908D01*
X920614Y166011D01*
X920669Y166116D01*
X920719Y166223D01*
X920766Y166332D01*
X920809Y166442D01*
X920849Y166553D01*
X920885Y166665D01*
X920918Y166779D01*
X920947Y166894D01*
X920972Y167009D01*
X920993Y167126D01*
X921010Y167243D01*
X921024Y167360D01*
X921033Y167478D01*
X921039Y167596D01*
X921041Y167714D01*
X921042Y167714D02*
X921042Y176746D01*
X921041Y176746D02*
X921039Y176864D01*
X921033Y176982D01*
X921024Y177100D01*
X921010Y177217D01*
X920993Y177334D01*
X920972Y177451D01*
X920947Y177566D01*
X920918Y177681D01*
X920885Y177795D01*
X920849Y177907D01*
X920809Y178018D01*
X920766Y178128D01*
X920719Y178237D01*
X920669Y178344D01*
X920614Y178449D01*
X920557Y178552D01*
X920496Y178653D01*
X920432Y178753D01*
X920365Y178850D01*
X920295Y178945D01*
X920221Y179037D01*
X920145Y179128D01*
X920065Y179215D01*
X919983Y179300D01*
X919898Y179382D01*
X919811Y179462D01*
X919720Y179538D01*
X919628Y179612D01*
X919533Y179682D01*
X919436Y179749D01*
X919336Y179813D01*
X919235Y179874D01*
X919132Y179931D01*
X919027Y179986D01*
X918920Y180036D01*
X918811Y180083D01*
X918701Y180126D01*
X918590Y180166D01*
X918478Y180202D01*
X918364Y180235D01*
X918249Y180264D01*
X918134Y180289D01*
X918017Y180310D01*
X917900Y180327D01*
X917783Y180341D01*
X917665Y180350D01*
X917547Y180356D01*
X917429Y180358D01*
X913817Y180358D01*
X908115Y171327D02*
X908115Y167714D01*
X908115Y171327D02*
X908113Y171446D01*
X908107Y171566D01*
X908097Y171685D01*
X908083Y171803D01*
X908066Y171922D01*
X908044Y172039D01*
X908019Y172156D01*
X907989Y172271D01*
X907956Y172386D01*
X907919Y172500D01*
X907879Y172612D01*
X907834Y172723D01*
X907786Y172832D01*
X907735Y172940D01*
X907680Y173046D01*
X907621Y173150D01*
X907559Y173252D01*
X907494Y173352D01*
X907425Y173450D01*
X907353Y173546D01*
X907278Y173639D01*
X907201Y173729D01*
X907120Y173817D01*
X907036Y173902D01*
X906949Y173984D01*
X906860Y174064D01*
X906768Y174140D01*
X906674Y174214D01*
X906577Y174284D01*
X906479Y174351D01*
X906378Y174415D01*
X906274Y174475D01*
X906169Y174532D01*
X906062Y174585D01*
X905954Y174635D01*
X905844Y174681D01*
X905732Y174723D01*
X905619Y174762D01*
X905505Y174797D01*
X905390Y174828D01*
X905273Y174856D01*
X905156Y174879D01*
X905039Y174899D01*
X904920Y174915D01*
X904801Y174927D01*
X904682Y174935D01*
X904563Y174939D01*
X904443Y174939D01*
X904324Y174935D01*
X904205Y174927D01*
X904086Y174915D01*
X903967Y174899D01*
X903850Y174879D01*
X903733Y174856D01*
X903616Y174828D01*
X903501Y174797D01*
X903387Y174762D01*
X903274Y174723D01*
X903162Y174681D01*
X903052Y174635D01*
X902944Y174585D01*
X902837Y174532D01*
X902732Y174475D01*
X902628Y174415D01*
X902527Y174351D01*
X902429Y174284D01*
X902332Y174214D01*
X902238Y174140D01*
X902146Y174064D01*
X902057Y173984D01*
X901970Y173902D01*
X901886Y173817D01*
X901805Y173729D01*
X901728Y173639D01*
X901653Y173546D01*
X901581Y173450D01*
X901512Y173352D01*
X901447Y173252D01*
X901385Y173150D01*
X901326Y173046D01*
X901271Y172940D01*
X901220Y172832D01*
X901172Y172723D01*
X901127Y172612D01*
X901087Y172500D01*
X901050Y172386D01*
X901017Y172271D01*
X900987Y172156D01*
X900962Y172039D01*
X900940Y171922D01*
X900923Y171803D01*
X900909Y171685D01*
X900899Y171566D01*
X900893Y171446D01*
X900891Y171327D01*
X900891Y167714D01*
X900893Y167595D01*
X900899Y167475D01*
X900909Y167356D01*
X900923Y167238D01*
X900940Y167119D01*
X900962Y167002D01*
X900987Y166885D01*
X901017Y166770D01*
X901050Y166655D01*
X901087Y166541D01*
X901127Y166429D01*
X901172Y166318D01*
X901220Y166209D01*
X901271Y166101D01*
X901326Y165995D01*
X901385Y165891D01*
X901447Y165789D01*
X901512Y165689D01*
X901581Y165591D01*
X901653Y165495D01*
X901728Y165402D01*
X901805Y165312D01*
X901886Y165224D01*
X901970Y165139D01*
X902057Y165057D01*
X902146Y164977D01*
X902238Y164901D01*
X902332Y164827D01*
X902429Y164757D01*
X902527Y164690D01*
X902628Y164626D01*
X902732Y164566D01*
X902837Y164509D01*
X902944Y164456D01*
X903052Y164406D01*
X903162Y164360D01*
X903274Y164318D01*
X903387Y164279D01*
X903501Y164244D01*
X903616Y164213D01*
X903733Y164185D01*
X903850Y164162D01*
X903967Y164142D01*
X904086Y164126D01*
X904205Y164114D01*
X904324Y164106D01*
X904443Y164102D01*
X904563Y164102D01*
X904682Y164106D01*
X904801Y164114D01*
X904920Y164126D01*
X905039Y164142D01*
X905156Y164162D01*
X905273Y164185D01*
X905390Y164213D01*
X905505Y164244D01*
X905619Y164279D01*
X905732Y164318D01*
X905844Y164360D01*
X905954Y164406D01*
X906062Y164456D01*
X906169Y164509D01*
X906274Y164566D01*
X906378Y164626D01*
X906479Y164690D01*
X906577Y164757D01*
X906674Y164827D01*
X906768Y164901D01*
X906860Y164977D01*
X906949Y165057D01*
X907036Y165139D01*
X907120Y165224D01*
X907201Y165312D01*
X907278Y165402D01*
X907353Y165495D01*
X907425Y165591D01*
X907494Y165689D01*
X907559Y165789D01*
X907621Y165891D01*
X907680Y165995D01*
X907735Y166101D01*
X907786Y166209D01*
X907834Y166318D01*
X907879Y166429D01*
X907919Y166541D01*
X907956Y166655D01*
X907989Y166770D01*
X908019Y166885D01*
X908044Y167002D01*
X908066Y167119D01*
X908083Y167238D01*
X908097Y167356D01*
X908107Y167475D01*
X908113Y167595D01*
X908115Y167714D01*
X894047Y164102D02*
X894047Y174939D01*
X889532Y174939D01*
X889428Y174937D01*
X889325Y174931D01*
X889221Y174921D01*
X889118Y174907D01*
X889016Y174889D01*
X888915Y174868D01*
X888814Y174842D01*
X888715Y174813D01*
X888616Y174780D01*
X888519Y174743D01*
X888424Y174702D01*
X888330Y174658D01*
X888238Y174610D01*
X888148Y174559D01*
X888059Y174504D01*
X887973Y174446D01*
X887890Y174384D01*
X887808Y174320D01*
X887730Y174252D01*
X887654Y174182D01*
X887580Y174109D01*
X887510Y174032D01*
X887442Y173954D01*
X887378Y173872D01*
X887316Y173789D01*
X887258Y173703D01*
X887203Y173614D01*
X887152Y173524D01*
X887104Y173432D01*
X887060Y173338D01*
X887019Y173243D01*
X886982Y173146D01*
X886949Y173047D01*
X886920Y172948D01*
X886894Y172847D01*
X886873Y172746D01*
X886855Y172644D01*
X886841Y172541D01*
X886831Y172437D01*
X886825Y172334D01*
X886823Y172230D01*
X886822Y172230D02*
X886822Y164102D01*
X881276Y174939D02*
X875858Y174939D01*
X879470Y180358D02*
X879470Y166811D01*
X879468Y166710D01*
X879462Y166609D01*
X879453Y166508D01*
X879440Y166407D01*
X879423Y166307D01*
X879402Y166208D01*
X879378Y166110D01*
X879350Y166013D01*
X879318Y165916D01*
X879283Y165821D01*
X879244Y165728D01*
X879202Y165636D01*
X879156Y165545D01*
X879107Y165456D01*
X879055Y165370D01*
X878999Y165285D01*
X878941Y165202D01*
X878879Y165122D01*
X878814Y165044D01*
X878747Y164968D01*
X878677Y164895D01*
X878604Y164825D01*
X878528Y164758D01*
X878450Y164693D01*
X878370Y164631D01*
X878287Y164573D01*
X878202Y164517D01*
X878116Y164465D01*
X878027Y164416D01*
X877936Y164370D01*
X877844Y164328D01*
X877751Y164289D01*
X877656Y164254D01*
X877559Y164222D01*
X877462Y164194D01*
X877364Y164170D01*
X877265Y164149D01*
X877165Y164132D01*
X877064Y164119D01*
X876963Y164110D01*
X876862Y164104D01*
X876761Y164102D01*
X875858Y164102D01*
X869474Y164102D02*
X869474Y174939D01*
X864055Y174939D01*
X864055Y173133D01*
X859138Y171327D02*
X859138Y167714D01*
X859137Y171327D02*
X859135Y171446D01*
X859129Y171566D01*
X859119Y171685D01*
X859105Y171803D01*
X859088Y171922D01*
X859066Y172039D01*
X859041Y172156D01*
X859011Y172271D01*
X858978Y172386D01*
X858941Y172500D01*
X858901Y172612D01*
X858856Y172723D01*
X858808Y172832D01*
X858757Y172940D01*
X858702Y173046D01*
X858643Y173150D01*
X858581Y173252D01*
X858516Y173352D01*
X858447Y173450D01*
X858375Y173546D01*
X858300Y173639D01*
X858223Y173729D01*
X858142Y173817D01*
X858058Y173902D01*
X857971Y173984D01*
X857882Y174064D01*
X857790Y174140D01*
X857696Y174214D01*
X857599Y174284D01*
X857501Y174351D01*
X857400Y174415D01*
X857296Y174475D01*
X857191Y174532D01*
X857084Y174585D01*
X856976Y174635D01*
X856866Y174681D01*
X856754Y174723D01*
X856641Y174762D01*
X856527Y174797D01*
X856412Y174828D01*
X856295Y174856D01*
X856178Y174879D01*
X856061Y174899D01*
X855942Y174915D01*
X855823Y174927D01*
X855704Y174935D01*
X855585Y174939D01*
X855465Y174939D01*
X855346Y174935D01*
X855227Y174927D01*
X855108Y174915D01*
X854989Y174899D01*
X854872Y174879D01*
X854755Y174856D01*
X854638Y174828D01*
X854523Y174797D01*
X854409Y174762D01*
X854296Y174723D01*
X854184Y174681D01*
X854074Y174635D01*
X853966Y174585D01*
X853859Y174532D01*
X853754Y174475D01*
X853650Y174415D01*
X853549Y174351D01*
X853451Y174284D01*
X853354Y174214D01*
X853260Y174140D01*
X853168Y174064D01*
X853079Y173984D01*
X852992Y173902D01*
X852908Y173817D01*
X852827Y173729D01*
X852750Y173639D01*
X852675Y173546D01*
X852603Y173450D01*
X852534Y173352D01*
X852469Y173252D01*
X852407Y173150D01*
X852348Y173046D01*
X852293Y172940D01*
X852242Y172832D01*
X852194Y172723D01*
X852149Y172612D01*
X852109Y172500D01*
X852072Y172386D01*
X852039Y172271D01*
X852009Y172156D01*
X851984Y172039D01*
X851962Y171922D01*
X851945Y171803D01*
X851931Y171685D01*
X851921Y171566D01*
X851915Y171446D01*
X851913Y171327D01*
X851913Y167714D01*
X851915Y167595D01*
X851921Y167475D01*
X851931Y167356D01*
X851945Y167238D01*
X851962Y167119D01*
X851984Y167002D01*
X852009Y166885D01*
X852039Y166770D01*
X852072Y166655D01*
X852109Y166541D01*
X852149Y166429D01*
X852194Y166318D01*
X852242Y166209D01*
X852293Y166101D01*
X852348Y165995D01*
X852407Y165891D01*
X852469Y165789D01*
X852534Y165689D01*
X852603Y165591D01*
X852675Y165495D01*
X852750Y165402D01*
X852827Y165312D01*
X852908Y165224D01*
X852992Y165139D01*
X853079Y165057D01*
X853168Y164977D01*
X853260Y164901D01*
X853354Y164827D01*
X853451Y164757D01*
X853549Y164690D01*
X853650Y164626D01*
X853754Y164566D01*
X853859Y164509D01*
X853966Y164456D01*
X854074Y164406D01*
X854184Y164360D01*
X854296Y164318D01*
X854409Y164279D01*
X854523Y164244D01*
X854638Y164213D01*
X854755Y164185D01*
X854872Y164162D01*
X854989Y164142D01*
X855108Y164126D01*
X855227Y164114D01*
X855346Y164106D01*
X855465Y164102D01*
X855585Y164102D01*
X855704Y164106D01*
X855823Y164114D01*
X855942Y164126D01*
X856061Y164142D01*
X856178Y164162D01*
X856295Y164185D01*
X856412Y164213D01*
X856527Y164244D01*
X856641Y164279D01*
X856754Y164318D01*
X856866Y164360D01*
X856976Y164406D01*
X857084Y164456D01*
X857191Y164509D01*
X857296Y164566D01*
X857400Y164626D01*
X857501Y164690D01*
X857599Y164757D01*
X857696Y164827D01*
X857790Y164901D01*
X857882Y164977D01*
X857971Y165057D01*
X858058Y165139D01*
X858142Y165224D01*
X858223Y165312D01*
X858300Y165402D01*
X858375Y165495D01*
X858447Y165591D01*
X858516Y165689D01*
X858581Y165789D01*
X858643Y165891D01*
X858702Y165995D01*
X858757Y166101D01*
X858808Y166209D01*
X858856Y166318D01*
X858901Y166429D01*
X858941Y166541D01*
X858978Y166655D01*
X859011Y166770D01*
X859041Y166885D01*
X859066Y167002D01*
X859088Y167119D01*
X859105Y167238D01*
X859119Y167356D01*
X859129Y167475D01*
X859135Y167595D01*
X859137Y167714D01*
X845354Y166811D02*
X845354Y180358D01*
X845353Y166811D02*
X845351Y166710D01*
X845345Y166609D01*
X845336Y166508D01*
X845323Y166407D01*
X845306Y166307D01*
X845285Y166208D01*
X845261Y166110D01*
X845233Y166013D01*
X845201Y165916D01*
X845166Y165821D01*
X845127Y165728D01*
X845085Y165636D01*
X845039Y165545D01*
X844990Y165456D01*
X844938Y165370D01*
X844882Y165285D01*
X844824Y165202D01*
X844762Y165122D01*
X844697Y165044D01*
X844630Y164968D01*
X844560Y164895D01*
X844487Y164825D01*
X844411Y164758D01*
X844333Y164693D01*
X844253Y164631D01*
X844170Y164573D01*
X844085Y164517D01*
X843999Y164465D01*
X843910Y164416D01*
X843819Y164370D01*
X843727Y164328D01*
X843634Y164289D01*
X843539Y164254D01*
X843442Y164222D01*
X843345Y164194D01*
X843247Y164170D01*
X843148Y164149D01*
X843048Y164132D01*
X842947Y164119D01*
X842846Y164110D01*
X842745Y164104D01*
X842644Y164102D01*
X828046Y173133D02*
X823531Y173133D01*
X823531Y173134D02*
X823398Y173132D01*
X823266Y173126D01*
X823134Y173116D01*
X823002Y173103D01*
X822870Y173085D01*
X822740Y173064D01*
X822609Y173039D01*
X822480Y173010D01*
X822352Y172977D01*
X822224Y172941D01*
X822098Y172901D01*
X821973Y172857D01*
X821849Y172809D01*
X821727Y172758D01*
X821606Y172703D01*
X821487Y172645D01*
X821369Y172583D01*
X821254Y172518D01*
X821140Y172449D01*
X821029Y172378D01*
X820920Y172302D01*
X820813Y172224D01*
X820708Y172143D01*
X820606Y172058D01*
X820506Y171971D01*
X820409Y171881D01*
X820314Y171788D01*
X820223Y171692D01*
X820134Y171594D01*
X820048Y171493D01*
X819965Y171389D01*
X819885Y171283D01*
X819809Y171175D01*
X819735Y171065D01*
X819665Y170952D01*
X819598Y170838D01*
X819535Y170721D01*
X819475Y170603D01*
X819418Y170483D01*
X819365Y170361D01*
X819316Y170238D01*
X819270Y170114D01*
X819228Y169988D01*
X819190Y169861D01*
X819155Y169733D01*
X819124Y169604D01*
X819097Y169475D01*
X819074Y169344D01*
X819054Y169213D01*
X819039Y169081D01*
X819027Y168949D01*
X819019Y168817D01*
X819015Y168684D01*
X819015Y168552D01*
X819019Y168419D01*
X819027Y168287D01*
X819039Y168155D01*
X819054Y168023D01*
X819074Y167892D01*
X819097Y167761D01*
X819124Y167632D01*
X819155Y167503D01*
X819190Y167375D01*
X819228Y167248D01*
X819270Y167122D01*
X819316Y166998D01*
X819365Y166875D01*
X819418Y166753D01*
X819475Y166633D01*
X819535Y166515D01*
X819598Y166398D01*
X819665Y166284D01*
X819735Y166171D01*
X819809Y166061D01*
X819885Y165953D01*
X819965Y165847D01*
X820048Y165743D01*
X820134Y165642D01*
X820223Y165544D01*
X820314Y165448D01*
X820409Y165355D01*
X820506Y165265D01*
X820606Y165178D01*
X820708Y165093D01*
X820813Y165012D01*
X820920Y164934D01*
X821029Y164858D01*
X821140Y164787D01*
X821254Y164718D01*
X821369Y164653D01*
X821487Y164591D01*
X821606Y164533D01*
X821727Y164478D01*
X821849Y164427D01*
X821973Y164379D01*
X822098Y164335D01*
X822224Y164295D01*
X822352Y164259D01*
X822480Y164226D01*
X822609Y164197D01*
X822740Y164172D01*
X822870Y164151D01*
X823002Y164133D01*
X823134Y164120D01*
X823266Y164110D01*
X823398Y164104D01*
X823531Y164102D01*
X828046Y164102D01*
X828046Y180358D01*
X823531Y180358D01*
X823412Y180356D01*
X823292Y180350D01*
X823173Y180340D01*
X823055Y180326D01*
X822936Y180309D01*
X822819Y180287D01*
X822702Y180262D01*
X822587Y180232D01*
X822472Y180199D01*
X822358Y180162D01*
X822246Y180122D01*
X822135Y180077D01*
X822026Y180029D01*
X821918Y179978D01*
X821812Y179923D01*
X821708Y179864D01*
X821606Y179802D01*
X821506Y179737D01*
X821408Y179668D01*
X821312Y179596D01*
X821219Y179521D01*
X821129Y179444D01*
X821041Y179363D01*
X820956Y179279D01*
X820874Y179192D01*
X820794Y179103D01*
X820718Y179011D01*
X820644Y178917D01*
X820574Y178820D01*
X820507Y178722D01*
X820443Y178621D01*
X820383Y178517D01*
X820326Y178412D01*
X820273Y178305D01*
X820223Y178197D01*
X820177Y178087D01*
X820135Y177975D01*
X820096Y177862D01*
X820061Y177748D01*
X820030Y177633D01*
X820002Y177516D01*
X819979Y177399D01*
X819959Y177282D01*
X819943Y177163D01*
X819931Y177044D01*
X819923Y176925D01*
X819919Y176806D01*
X819919Y176686D01*
X819923Y176567D01*
X819931Y176448D01*
X819943Y176329D01*
X819959Y176210D01*
X819979Y176093D01*
X820002Y175976D01*
X820030Y175859D01*
X820061Y175744D01*
X820096Y175630D01*
X820135Y175517D01*
X820177Y175405D01*
X820223Y175295D01*
X820273Y175187D01*
X820326Y175080D01*
X820383Y174975D01*
X820443Y174871D01*
X820507Y174770D01*
X820574Y174672D01*
X820644Y174575D01*
X820718Y174481D01*
X820794Y174389D01*
X820874Y174300D01*
X820956Y174213D01*
X821041Y174129D01*
X821129Y174048D01*
X821219Y173971D01*
X821312Y173896D01*
X821408Y173824D01*
X821506Y173755D01*
X821606Y173690D01*
X821708Y173628D01*
X821812Y173569D01*
X821918Y173514D01*
X822026Y173463D01*
X822135Y173415D01*
X822246Y173370D01*
X822358Y173330D01*
X822472Y173293D01*
X822587Y173260D01*
X822702Y173230D01*
X822819Y173205D01*
X822936Y173183D01*
X823055Y173166D01*
X823173Y173152D01*
X823292Y173142D01*
X823412Y173136D01*
X823531Y173134D01*
X813286Y171327D02*
X813286Y167714D01*
X813286Y171327D02*
X813284Y171446D01*
X813278Y171566D01*
X813268Y171685D01*
X813254Y171803D01*
X813237Y171922D01*
X813215Y172039D01*
X813190Y172156D01*
X813160Y172271D01*
X813127Y172386D01*
X813090Y172500D01*
X813050Y172612D01*
X813005Y172723D01*
X812957Y172832D01*
X812906Y172940D01*
X812851Y173046D01*
X812792Y173150D01*
X812730Y173252D01*
X812665Y173352D01*
X812596Y173450D01*
X812524Y173546D01*
X812449Y173639D01*
X812372Y173729D01*
X812291Y173817D01*
X812207Y173902D01*
X812120Y173984D01*
X812031Y174064D01*
X811939Y174140D01*
X811845Y174214D01*
X811748Y174284D01*
X811650Y174351D01*
X811549Y174415D01*
X811445Y174475D01*
X811340Y174532D01*
X811233Y174585D01*
X811125Y174635D01*
X811015Y174681D01*
X810903Y174723D01*
X810790Y174762D01*
X810676Y174797D01*
X810561Y174828D01*
X810444Y174856D01*
X810327Y174879D01*
X810210Y174899D01*
X810091Y174915D01*
X809972Y174927D01*
X809853Y174935D01*
X809734Y174939D01*
X809614Y174939D01*
X809495Y174935D01*
X809376Y174927D01*
X809257Y174915D01*
X809138Y174899D01*
X809021Y174879D01*
X808904Y174856D01*
X808787Y174828D01*
X808672Y174797D01*
X808558Y174762D01*
X808445Y174723D01*
X808333Y174681D01*
X808223Y174635D01*
X808115Y174585D01*
X808008Y174532D01*
X807903Y174475D01*
X807799Y174415D01*
X807698Y174351D01*
X807600Y174284D01*
X807503Y174214D01*
X807409Y174140D01*
X807317Y174064D01*
X807228Y173984D01*
X807141Y173902D01*
X807057Y173817D01*
X806976Y173729D01*
X806899Y173639D01*
X806824Y173546D01*
X806752Y173450D01*
X806683Y173352D01*
X806618Y173252D01*
X806556Y173150D01*
X806497Y173046D01*
X806442Y172940D01*
X806391Y172832D01*
X806343Y172723D01*
X806298Y172612D01*
X806258Y172500D01*
X806221Y172386D01*
X806188Y172271D01*
X806158Y172156D01*
X806133Y172039D01*
X806111Y171922D01*
X806094Y171803D01*
X806080Y171685D01*
X806070Y171566D01*
X806064Y171446D01*
X806062Y171327D01*
X806061Y171327D02*
X806061Y167714D01*
X806062Y167714D02*
X806064Y167595D01*
X806070Y167475D01*
X806080Y167356D01*
X806094Y167238D01*
X806111Y167119D01*
X806133Y167002D01*
X806158Y166885D01*
X806188Y166770D01*
X806221Y166655D01*
X806258Y166541D01*
X806298Y166429D01*
X806343Y166318D01*
X806391Y166209D01*
X806442Y166101D01*
X806497Y165995D01*
X806556Y165891D01*
X806618Y165789D01*
X806683Y165689D01*
X806752Y165591D01*
X806824Y165495D01*
X806899Y165402D01*
X806976Y165312D01*
X807057Y165224D01*
X807141Y165139D01*
X807228Y165057D01*
X807317Y164977D01*
X807409Y164901D01*
X807503Y164827D01*
X807600Y164757D01*
X807698Y164690D01*
X807799Y164626D01*
X807903Y164566D01*
X808008Y164509D01*
X808115Y164456D01*
X808223Y164406D01*
X808333Y164360D01*
X808445Y164318D01*
X808558Y164279D01*
X808672Y164244D01*
X808787Y164213D01*
X808904Y164185D01*
X809021Y164162D01*
X809138Y164142D01*
X809257Y164126D01*
X809376Y164114D01*
X809495Y164106D01*
X809614Y164102D01*
X809734Y164102D01*
X809853Y164106D01*
X809972Y164114D01*
X810091Y164126D01*
X810210Y164142D01*
X810327Y164162D01*
X810444Y164185D01*
X810561Y164213D01*
X810676Y164244D01*
X810790Y164279D01*
X810903Y164318D01*
X811015Y164360D01*
X811125Y164406D01*
X811233Y164456D01*
X811340Y164509D01*
X811445Y164566D01*
X811549Y164626D01*
X811650Y164690D01*
X811748Y164757D01*
X811845Y164827D01*
X811939Y164901D01*
X812031Y164977D01*
X812120Y165057D01*
X812207Y165139D01*
X812291Y165224D01*
X812372Y165312D01*
X812449Y165402D01*
X812524Y165495D01*
X812596Y165591D01*
X812665Y165689D01*
X812730Y165789D01*
X812792Y165891D01*
X812851Y165995D01*
X812906Y166101D01*
X812957Y166209D01*
X813005Y166318D01*
X813050Y166429D01*
X813090Y166541D01*
X813127Y166655D01*
X813160Y166770D01*
X813190Y166885D01*
X813215Y167002D01*
X813237Y167119D01*
X813254Y167238D01*
X813268Y167356D01*
X813278Y167475D01*
X813284Y167595D01*
X813286Y167714D01*
X796651Y170424D02*
X792587Y170424D01*
X796651Y170424D02*
X796763Y170422D01*
X796874Y170416D01*
X796985Y170406D01*
X797096Y170393D01*
X797206Y170375D01*
X797315Y170353D01*
X797424Y170328D01*
X797532Y170299D01*
X797638Y170266D01*
X797744Y170229D01*
X797848Y170189D01*
X797950Y170145D01*
X798051Y170097D01*
X798150Y170046D01*
X798248Y169991D01*
X798343Y169933D01*
X798436Y169872D01*
X798527Y169807D01*
X798616Y169739D01*
X798702Y169668D01*
X798785Y169595D01*
X798866Y169518D01*
X798945Y169438D01*
X799020Y169356D01*
X799092Y169271D01*
X799162Y169184D01*
X799228Y169094D01*
X799291Y169002D01*
X799351Y168907D01*
X799407Y168811D01*
X799460Y168713D01*
X799509Y168613D01*
X799555Y168511D01*
X799597Y168408D01*
X799636Y168303D01*
X799671Y168197D01*
X799702Y168090D01*
X799729Y167982D01*
X799753Y167873D01*
X799772Y167763D01*
X799788Y167653D01*
X799800Y167542D01*
X799808Y167430D01*
X799812Y167319D01*
X799812Y167207D01*
X799808Y167096D01*
X799800Y166984D01*
X799788Y166873D01*
X799772Y166763D01*
X799753Y166653D01*
X799729Y166544D01*
X799702Y166436D01*
X799671Y166329D01*
X799636Y166223D01*
X799597Y166118D01*
X799555Y166015D01*
X799509Y165913D01*
X799460Y165813D01*
X799407Y165715D01*
X799351Y165619D01*
X799291Y165524D01*
X799228Y165432D01*
X799162Y165342D01*
X799092Y165255D01*
X799020Y165170D01*
X798945Y165088D01*
X798866Y165008D01*
X798785Y164931D01*
X798702Y164858D01*
X798616Y164787D01*
X798527Y164719D01*
X798436Y164654D01*
X798343Y164593D01*
X798248Y164535D01*
X798150Y164480D01*
X798051Y164429D01*
X797950Y164381D01*
X797848Y164337D01*
X797744Y164297D01*
X797638Y164260D01*
X797532Y164227D01*
X797424Y164198D01*
X797315Y164173D01*
X797206Y164151D01*
X797096Y164133D01*
X796985Y164120D01*
X796874Y164110D01*
X796763Y164104D01*
X796651Y164102D01*
X792587Y164102D01*
X792587Y172230D01*
X792588Y172230D02*
X792590Y172331D01*
X792596Y172432D01*
X792605Y172533D01*
X792618Y172634D01*
X792635Y172734D01*
X792656Y172833D01*
X792680Y172931D01*
X792708Y173028D01*
X792740Y173125D01*
X792775Y173220D01*
X792814Y173313D01*
X792856Y173405D01*
X792902Y173496D01*
X792951Y173585D01*
X793003Y173671D01*
X793059Y173756D01*
X793117Y173839D01*
X793179Y173919D01*
X793244Y173997D01*
X793311Y174073D01*
X793381Y174146D01*
X793454Y174216D01*
X793530Y174283D01*
X793608Y174348D01*
X793688Y174410D01*
X793771Y174468D01*
X793856Y174524D01*
X793943Y174576D01*
X794031Y174625D01*
X794122Y174671D01*
X794214Y174713D01*
X794307Y174752D01*
X794402Y174787D01*
X794499Y174819D01*
X794596Y174847D01*
X794694Y174871D01*
X794793Y174892D01*
X794893Y174909D01*
X794994Y174922D01*
X795095Y174931D01*
X795196Y174937D01*
X795297Y174939D01*
X798909Y174939D01*
X785065Y174939D02*
X785065Y164102D01*
X785065Y174939D02*
X779646Y174939D01*
X779646Y173133D01*
X767577Y180358D02*
X767577Y164102D01*
X772093Y164102D01*
X772194Y164104D01*
X772295Y164110D01*
X772396Y164119D01*
X772497Y164132D01*
X772597Y164149D01*
X772696Y164170D01*
X772794Y164194D01*
X772891Y164222D01*
X772988Y164254D01*
X773083Y164289D01*
X773176Y164328D01*
X773268Y164370D01*
X773359Y164416D01*
X773448Y164465D01*
X773534Y164517D01*
X773619Y164573D01*
X773702Y164631D01*
X773782Y164693D01*
X773860Y164758D01*
X773936Y164825D01*
X774009Y164895D01*
X774079Y164968D01*
X774146Y165044D01*
X774211Y165122D01*
X774273Y165202D01*
X774331Y165285D01*
X774387Y165370D01*
X774439Y165456D01*
X774488Y165545D01*
X774534Y165636D01*
X774576Y165728D01*
X774615Y165821D01*
X774650Y165916D01*
X774682Y166013D01*
X774710Y166110D01*
X774734Y166208D01*
X774755Y166307D01*
X774772Y166407D01*
X774785Y166508D01*
X774794Y166609D01*
X774800Y166710D01*
X774802Y166811D01*
X774802Y172230D01*
X774800Y172331D01*
X774794Y172432D01*
X774785Y172533D01*
X774772Y172634D01*
X774755Y172734D01*
X774734Y172833D01*
X774710Y172931D01*
X774682Y173028D01*
X774650Y173125D01*
X774615Y173220D01*
X774576Y173313D01*
X774534Y173405D01*
X774488Y173496D01*
X774439Y173585D01*
X774387Y173671D01*
X774331Y173756D01*
X774273Y173839D01*
X774211Y173919D01*
X774146Y173997D01*
X774079Y174073D01*
X774009Y174146D01*
X773936Y174216D01*
X773860Y174283D01*
X773782Y174348D01*
X773702Y174410D01*
X773619Y174468D01*
X773534Y174524D01*
X773448Y174576D01*
X773359Y174625D01*
X773268Y174671D01*
X773176Y174713D01*
X773083Y174752D01*
X772988Y174787D01*
X772891Y174819D01*
X772794Y174847D01*
X772696Y174871D01*
X772597Y174892D01*
X772497Y174909D01*
X772396Y174922D01*
X772295Y174931D01*
X772194Y174937D01*
X772093Y174939D01*
X767577Y174939D01*
X1199238Y153688D02*
X1199238Y137432D01*
X1199238Y153688D02*
X1194722Y153688D01*
X1194589Y153686D01*
X1194457Y153680D01*
X1194325Y153670D01*
X1194193Y153657D01*
X1194061Y153639D01*
X1193931Y153618D01*
X1193800Y153593D01*
X1193671Y153564D01*
X1193543Y153531D01*
X1193415Y153495D01*
X1193289Y153455D01*
X1193164Y153411D01*
X1193040Y153363D01*
X1192918Y153312D01*
X1192797Y153257D01*
X1192678Y153199D01*
X1192560Y153137D01*
X1192445Y153072D01*
X1192331Y153003D01*
X1192220Y152932D01*
X1192111Y152856D01*
X1192004Y152778D01*
X1191899Y152697D01*
X1191797Y152612D01*
X1191697Y152525D01*
X1191600Y152435D01*
X1191505Y152342D01*
X1191414Y152246D01*
X1191325Y152148D01*
X1191239Y152047D01*
X1191156Y151943D01*
X1191076Y151837D01*
X1191000Y151729D01*
X1190926Y151619D01*
X1190856Y151506D01*
X1190789Y151392D01*
X1190726Y151275D01*
X1190666Y151157D01*
X1190609Y151037D01*
X1190556Y150915D01*
X1190507Y150792D01*
X1190461Y150668D01*
X1190419Y150542D01*
X1190381Y150415D01*
X1190346Y150287D01*
X1190315Y150158D01*
X1190288Y150029D01*
X1190265Y149898D01*
X1190245Y149767D01*
X1190230Y149635D01*
X1190218Y149503D01*
X1190210Y149371D01*
X1190206Y149238D01*
X1190206Y149106D01*
X1190210Y148973D01*
X1190218Y148841D01*
X1190230Y148709D01*
X1190245Y148577D01*
X1190265Y148446D01*
X1190288Y148315D01*
X1190315Y148186D01*
X1190346Y148057D01*
X1190381Y147929D01*
X1190419Y147802D01*
X1190461Y147676D01*
X1190507Y147552D01*
X1190556Y147429D01*
X1190609Y147307D01*
X1190666Y147187D01*
X1190726Y147069D01*
X1190789Y146952D01*
X1190856Y146838D01*
X1190926Y146725D01*
X1191000Y146615D01*
X1191076Y146507D01*
X1191156Y146401D01*
X1191239Y146297D01*
X1191325Y146196D01*
X1191414Y146098D01*
X1191505Y146002D01*
X1191600Y145909D01*
X1191697Y145819D01*
X1191797Y145732D01*
X1191899Y145647D01*
X1192004Y145566D01*
X1192111Y145488D01*
X1192220Y145412D01*
X1192331Y145341D01*
X1192445Y145272D01*
X1192560Y145207D01*
X1192678Y145145D01*
X1192797Y145087D01*
X1192918Y145032D01*
X1193040Y144981D01*
X1193164Y144933D01*
X1193289Y144889D01*
X1193415Y144849D01*
X1193543Y144813D01*
X1193671Y144780D01*
X1193800Y144751D01*
X1193931Y144726D01*
X1194061Y144705D01*
X1194193Y144687D01*
X1194325Y144674D01*
X1194457Y144664D01*
X1194589Y144658D01*
X1194722Y144656D01*
X1194722Y144657D02*
X1199238Y144657D01*
X1180766Y137432D02*
X1177153Y137432D01*
X1180766Y137432D02*
X1180884Y137434D01*
X1181002Y137440D01*
X1181120Y137449D01*
X1181237Y137463D01*
X1181354Y137480D01*
X1181471Y137501D01*
X1181586Y137526D01*
X1181701Y137555D01*
X1181815Y137588D01*
X1181927Y137624D01*
X1182038Y137664D01*
X1182148Y137707D01*
X1182257Y137754D01*
X1182364Y137804D01*
X1182469Y137859D01*
X1182572Y137916D01*
X1182673Y137977D01*
X1182773Y138041D01*
X1182870Y138108D01*
X1182965Y138178D01*
X1183057Y138252D01*
X1183148Y138328D01*
X1183235Y138408D01*
X1183320Y138490D01*
X1183402Y138575D01*
X1183482Y138662D01*
X1183558Y138753D01*
X1183632Y138845D01*
X1183702Y138940D01*
X1183769Y139037D01*
X1183833Y139137D01*
X1183894Y139238D01*
X1183951Y139341D01*
X1184006Y139446D01*
X1184056Y139553D01*
X1184103Y139662D01*
X1184146Y139772D01*
X1184186Y139883D01*
X1184222Y139995D01*
X1184255Y140109D01*
X1184284Y140224D01*
X1184309Y140339D01*
X1184330Y140456D01*
X1184347Y140573D01*
X1184361Y140690D01*
X1184370Y140808D01*
X1184376Y140926D01*
X1184378Y141044D01*
X1184378Y150076D01*
X1184376Y150194D01*
X1184370Y150312D01*
X1184361Y150430D01*
X1184347Y150547D01*
X1184330Y150664D01*
X1184309Y150781D01*
X1184284Y150896D01*
X1184255Y151011D01*
X1184222Y151125D01*
X1184186Y151237D01*
X1184146Y151348D01*
X1184103Y151458D01*
X1184056Y151567D01*
X1184006Y151674D01*
X1183951Y151779D01*
X1183894Y151882D01*
X1183833Y151983D01*
X1183769Y152083D01*
X1183702Y152180D01*
X1183632Y152275D01*
X1183558Y152367D01*
X1183482Y152458D01*
X1183402Y152545D01*
X1183320Y152630D01*
X1183235Y152712D01*
X1183148Y152792D01*
X1183057Y152868D01*
X1182965Y152942D01*
X1182870Y153012D01*
X1182773Y153079D01*
X1182673Y153143D01*
X1182572Y153204D01*
X1182469Y153261D01*
X1182364Y153316D01*
X1182257Y153366D01*
X1182148Y153413D01*
X1182038Y153456D01*
X1181927Y153496D01*
X1181815Y153532D01*
X1181701Y153565D01*
X1181586Y153594D01*
X1181471Y153619D01*
X1181354Y153640D01*
X1181237Y153657D01*
X1181120Y153671D01*
X1181002Y153680D01*
X1180884Y153686D01*
X1180766Y153688D01*
X1177153Y153688D01*
X1170581Y146463D02*
X1166065Y146463D01*
X1166065Y146464D02*
X1165932Y146462D01*
X1165800Y146456D01*
X1165668Y146446D01*
X1165536Y146433D01*
X1165404Y146415D01*
X1165274Y146394D01*
X1165143Y146369D01*
X1165014Y146340D01*
X1164886Y146307D01*
X1164758Y146271D01*
X1164632Y146231D01*
X1164507Y146187D01*
X1164383Y146139D01*
X1164261Y146088D01*
X1164140Y146033D01*
X1164021Y145975D01*
X1163903Y145913D01*
X1163788Y145848D01*
X1163674Y145779D01*
X1163563Y145708D01*
X1163454Y145632D01*
X1163347Y145554D01*
X1163242Y145473D01*
X1163140Y145388D01*
X1163040Y145301D01*
X1162943Y145211D01*
X1162848Y145118D01*
X1162757Y145022D01*
X1162668Y144924D01*
X1162582Y144823D01*
X1162499Y144719D01*
X1162419Y144613D01*
X1162343Y144505D01*
X1162269Y144395D01*
X1162199Y144282D01*
X1162132Y144168D01*
X1162069Y144051D01*
X1162009Y143933D01*
X1161952Y143813D01*
X1161899Y143691D01*
X1161850Y143568D01*
X1161804Y143444D01*
X1161762Y143318D01*
X1161724Y143191D01*
X1161689Y143063D01*
X1161658Y142934D01*
X1161631Y142805D01*
X1161608Y142674D01*
X1161588Y142543D01*
X1161573Y142411D01*
X1161561Y142279D01*
X1161553Y142147D01*
X1161549Y142014D01*
X1161549Y141882D01*
X1161553Y141749D01*
X1161561Y141617D01*
X1161573Y141485D01*
X1161588Y141353D01*
X1161608Y141222D01*
X1161631Y141091D01*
X1161658Y140962D01*
X1161689Y140833D01*
X1161724Y140705D01*
X1161762Y140578D01*
X1161804Y140452D01*
X1161850Y140328D01*
X1161899Y140205D01*
X1161952Y140083D01*
X1162009Y139963D01*
X1162069Y139845D01*
X1162132Y139728D01*
X1162199Y139614D01*
X1162269Y139501D01*
X1162343Y139391D01*
X1162419Y139283D01*
X1162499Y139177D01*
X1162582Y139073D01*
X1162668Y138972D01*
X1162757Y138874D01*
X1162848Y138778D01*
X1162943Y138685D01*
X1163040Y138595D01*
X1163140Y138508D01*
X1163242Y138423D01*
X1163347Y138342D01*
X1163454Y138264D01*
X1163563Y138188D01*
X1163674Y138117D01*
X1163788Y138048D01*
X1163903Y137983D01*
X1164021Y137921D01*
X1164140Y137863D01*
X1164261Y137808D01*
X1164383Y137757D01*
X1164507Y137709D01*
X1164632Y137665D01*
X1164758Y137625D01*
X1164886Y137589D01*
X1165014Y137556D01*
X1165143Y137527D01*
X1165274Y137502D01*
X1165404Y137481D01*
X1165536Y137463D01*
X1165668Y137450D01*
X1165800Y137440D01*
X1165932Y137434D01*
X1166065Y137432D01*
X1170581Y137432D01*
X1170581Y153688D01*
X1166065Y153688D01*
X1165946Y153686D01*
X1165826Y153680D01*
X1165707Y153670D01*
X1165589Y153656D01*
X1165470Y153639D01*
X1165353Y153617D01*
X1165236Y153592D01*
X1165121Y153562D01*
X1165006Y153529D01*
X1164892Y153492D01*
X1164780Y153452D01*
X1164669Y153407D01*
X1164560Y153359D01*
X1164452Y153308D01*
X1164346Y153253D01*
X1164242Y153194D01*
X1164140Y153132D01*
X1164040Y153067D01*
X1163942Y152998D01*
X1163846Y152926D01*
X1163753Y152851D01*
X1163663Y152774D01*
X1163575Y152693D01*
X1163490Y152609D01*
X1163408Y152522D01*
X1163328Y152433D01*
X1163252Y152341D01*
X1163178Y152247D01*
X1163108Y152150D01*
X1163041Y152052D01*
X1162977Y151951D01*
X1162917Y151847D01*
X1162860Y151742D01*
X1162807Y151635D01*
X1162757Y151527D01*
X1162711Y151417D01*
X1162669Y151305D01*
X1162630Y151192D01*
X1162595Y151078D01*
X1162564Y150963D01*
X1162536Y150846D01*
X1162513Y150729D01*
X1162493Y150612D01*
X1162477Y150493D01*
X1162465Y150374D01*
X1162457Y150255D01*
X1162453Y150136D01*
X1162453Y150016D01*
X1162457Y149897D01*
X1162465Y149778D01*
X1162477Y149659D01*
X1162493Y149540D01*
X1162513Y149423D01*
X1162536Y149306D01*
X1162564Y149189D01*
X1162595Y149074D01*
X1162630Y148960D01*
X1162669Y148847D01*
X1162711Y148735D01*
X1162757Y148625D01*
X1162807Y148517D01*
X1162860Y148410D01*
X1162917Y148305D01*
X1162977Y148201D01*
X1163041Y148100D01*
X1163108Y148002D01*
X1163178Y147905D01*
X1163252Y147811D01*
X1163328Y147719D01*
X1163408Y147630D01*
X1163490Y147543D01*
X1163575Y147459D01*
X1163663Y147378D01*
X1163753Y147301D01*
X1163846Y147226D01*
X1163942Y147154D01*
X1164040Y147085D01*
X1164140Y147020D01*
X1164242Y146958D01*
X1164346Y146899D01*
X1164452Y146844D01*
X1164560Y146793D01*
X1164669Y146745D01*
X1164780Y146700D01*
X1164892Y146660D01*
X1165006Y146623D01*
X1165121Y146590D01*
X1165236Y146560D01*
X1165353Y146535D01*
X1165470Y146513D01*
X1165589Y146496D01*
X1165707Y146482D01*
X1165826Y146472D01*
X1165946Y146466D01*
X1166065Y146464D01*
X1146890Y153688D02*
X1146890Y137432D01*
X1142374Y137432D01*
X1142270Y137434D01*
X1142167Y137440D01*
X1142063Y137450D01*
X1141960Y137464D01*
X1141858Y137482D01*
X1141757Y137503D01*
X1141656Y137529D01*
X1141557Y137558D01*
X1141458Y137591D01*
X1141361Y137628D01*
X1141266Y137669D01*
X1141172Y137713D01*
X1141080Y137761D01*
X1140990Y137812D01*
X1140901Y137867D01*
X1140815Y137925D01*
X1140732Y137987D01*
X1140650Y138051D01*
X1140572Y138119D01*
X1140496Y138189D01*
X1140422Y138262D01*
X1140352Y138339D01*
X1140284Y138417D01*
X1140220Y138499D01*
X1140158Y138582D01*
X1140100Y138668D01*
X1140045Y138757D01*
X1139994Y138847D01*
X1139946Y138939D01*
X1139902Y139033D01*
X1139861Y139128D01*
X1139824Y139225D01*
X1139791Y139324D01*
X1139762Y139423D01*
X1139736Y139524D01*
X1139715Y139625D01*
X1139697Y139727D01*
X1139683Y139830D01*
X1139673Y139934D01*
X1139667Y140037D01*
X1139665Y140141D01*
X1139665Y145560D01*
X1139667Y145661D01*
X1139673Y145762D01*
X1139682Y145863D01*
X1139695Y145964D01*
X1139712Y146064D01*
X1139733Y146163D01*
X1139757Y146261D01*
X1139785Y146358D01*
X1139817Y146455D01*
X1139852Y146550D01*
X1139891Y146643D01*
X1139933Y146735D01*
X1139979Y146826D01*
X1140028Y146915D01*
X1140080Y147001D01*
X1140136Y147086D01*
X1140194Y147169D01*
X1140256Y147249D01*
X1140321Y147327D01*
X1140388Y147403D01*
X1140458Y147476D01*
X1140531Y147546D01*
X1140607Y147613D01*
X1140685Y147678D01*
X1140765Y147740D01*
X1140848Y147798D01*
X1140933Y147854D01*
X1141020Y147906D01*
X1141108Y147955D01*
X1141199Y148001D01*
X1141291Y148043D01*
X1141384Y148082D01*
X1141479Y148117D01*
X1141576Y148149D01*
X1141673Y148177D01*
X1141771Y148201D01*
X1141870Y148222D01*
X1141970Y148239D01*
X1142071Y148252D01*
X1142172Y148261D01*
X1142273Y148267D01*
X1142374Y148269D01*
X1146890Y148269D01*
X1133937Y132013D02*
X1132131Y132013D01*
X1126712Y148269D01*
X1133937Y148269D02*
X1130324Y137432D01*
X1111823Y137432D02*
X1111823Y153688D01*
X1107307Y153688D01*
X1107174Y153686D01*
X1107042Y153680D01*
X1106910Y153670D01*
X1106778Y153657D01*
X1106646Y153639D01*
X1106516Y153618D01*
X1106385Y153593D01*
X1106256Y153564D01*
X1106128Y153531D01*
X1106000Y153495D01*
X1105874Y153455D01*
X1105749Y153411D01*
X1105625Y153363D01*
X1105503Y153312D01*
X1105382Y153257D01*
X1105263Y153199D01*
X1105145Y153137D01*
X1105030Y153072D01*
X1104916Y153003D01*
X1104805Y152932D01*
X1104696Y152856D01*
X1104589Y152778D01*
X1104484Y152697D01*
X1104382Y152612D01*
X1104282Y152525D01*
X1104185Y152435D01*
X1104090Y152342D01*
X1103999Y152246D01*
X1103910Y152148D01*
X1103824Y152047D01*
X1103741Y151943D01*
X1103661Y151837D01*
X1103585Y151729D01*
X1103511Y151619D01*
X1103441Y151506D01*
X1103374Y151392D01*
X1103311Y151275D01*
X1103251Y151157D01*
X1103194Y151037D01*
X1103141Y150915D01*
X1103092Y150792D01*
X1103046Y150668D01*
X1103004Y150542D01*
X1102966Y150415D01*
X1102931Y150287D01*
X1102900Y150158D01*
X1102873Y150029D01*
X1102850Y149898D01*
X1102830Y149767D01*
X1102815Y149635D01*
X1102803Y149503D01*
X1102795Y149371D01*
X1102791Y149238D01*
X1102791Y149106D01*
X1102795Y148973D01*
X1102803Y148841D01*
X1102815Y148709D01*
X1102830Y148577D01*
X1102850Y148446D01*
X1102873Y148315D01*
X1102900Y148186D01*
X1102931Y148057D01*
X1102966Y147929D01*
X1103004Y147802D01*
X1103046Y147676D01*
X1103092Y147552D01*
X1103141Y147429D01*
X1103194Y147307D01*
X1103251Y147187D01*
X1103311Y147069D01*
X1103374Y146952D01*
X1103441Y146838D01*
X1103511Y146725D01*
X1103585Y146615D01*
X1103661Y146507D01*
X1103741Y146401D01*
X1103824Y146297D01*
X1103910Y146196D01*
X1103999Y146098D01*
X1104090Y146002D01*
X1104185Y145909D01*
X1104282Y145819D01*
X1104382Y145732D01*
X1104484Y145647D01*
X1104589Y145566D01*
X1104696Y145488D01*
X1104805Y145412D01*
X1104916Y145341D01*
X1105030Y145272D01*
X1105145Y145207D01*
X1105263Y145145D01*
X1105382Y145087D01*
X1105503Y145032D01*
X1105625Y144981D01*
X1105749Y144933D01*
X1105874Y144889D01*
X1106000Y144849D01*
X1106128Y144813D01*
X1106256Y144780D01*
X1106385Y144751D01*
X1106516Y144726D01*
X1106646Y144705D01*
X1106778Y144687D01*
X1106910Y144674D01*
X1107042Y144664D01*
X1107174Y144658D01*
X1107307Y144656D01*
X1107307Y144657D02*
X1111823Y144657D01*
X1106404Y144657D02*
X1102792Y137432D01*
X1096422Y141044D02*
X1096422Y144657D01*
X1096420Y144776D01*
X1096414Y144896D01*
X1096404Y145015D01*
X1096390Y145133D01*
X1096373Y145252D01*
X1096351Y145369D01*
X1096326Y145486D01*
X1096296Y145601D01*
X1096263Y145716D01*
X1096226Y145830D01*
X1096186Y145942D01*
X1096141Y146053D01*
X1096093Y146162D01*
X1096042Y146270D01*
X1095987Y146376D01*
X1095928Y146480D01*
X1095866Y146582D01*
X1095801Y146682D01*
X1095732Y146780D01*
X1095660Y146876D01*
X1095585Y146969D01*
X1095508Y147059D01*
X1095427Y147147D01*
X1095343Y147232D01*
X1095256Y147314D01*
X1095167Y147394D01*
X1095075Y147470D01*
X1094981Y147544D01*
X1094884Y147614D01*
X1094786Y147681D01*
X1094685Y147745D01*
X1094581Y147805D01*
X1094476Y147862D01*
X1094369Y147915D01*
X1094261Y147965D01*
X1094151Y148011D01*
X1094039Y148053D01*
X1093926Y148092D01*
X1093812Y148127D01*
X1093697Y148158D01*
X1093580Y148186D01*
X1093463Y148209D01*
X1093346Y148229D01*
X1093227Y148245D01*
X1093108Y148257D01*
X1092989Y148265D01*
X1092870Y148269D01*
X1092750Y148269D01*
X1092631Y148265D01*
X1092512Y148257D01*
X1092393Y148245D01*
X1092274Y148229D01*
X1092157Y148209D01*
X1092040Y148186D01*
X1091923Y148158D01*
X1091808Y148127D01*
X1091694Y148092D01*
X1091581Y148053D01*
X1091469Y148011D01*
X1091359Y147965D01*
X1091251Y147915D01*
X1091144Y147862D01*
X1091039Y147805D01*
X1090935Y147745D01*
X1090834Y147681D01*
X1090736Y147614D01*
X1090639Y147544D01*
X1090545Y147470D01*
X1090453Y147394D01*
X1090364Y147314D01*
X1090277Y147232D01*
X1090193Y147147D01*
X1090112Y147059D01*
X1090035Y146969D01*
X1089960Y146876D01*
X1089888Y146780D01*
X1089819Y146682D01*
X1089754Y146582D01*
X1089692Y146480D01*
X1089633Y146376D01*
X1089578Y146270D01*
X1089527Y146162D01*
X1089479Y146053D01*
X1089434Y145942D01*
X1089394Y145830D01*
X1089357Y145716D01*
X1089324Y145601D01*
X1089294Y145486D01*
X1089269Y145369D01*
X1089247Y145252D01*
X1089230Y145133D01*
X1089216Y145015D01*
X1089206Y144896D01*
X1089200Y144776D01*
X1089198Y144657D01*
X1089197Y144657D02*
X1089197Y141044D01*
X1089198Y141044D02*
X1089200Y140925D01*
X1089206Y140805D01*
X1089216Y140686D01*
X1089230Y140568D01*
X1089247Y140449D01*
X1089269Y140332D01*
X1089294Y140215D01*
X1089324Y140100D01*
X1089357Y139985D01*
X1089394Y139871D01*
X1089434Y139759D01*
X1089479Y139648D01*
X1089527Y139539D01*
X1089578Y139431D01*
X1089633Y139325D01*
X1089692Y139221D01*
X1089754Y139119D01*
X1089819Y139019D01*
X1089888Y138921D01*
X1089960Y138825D01*
X1090035Y138732D01*
X1090112Y138642D01*
X1090193Y138554D01*
X1090277Y138469D01*
X1090364Y138387D01*
X1090453Y138307D01*
X1090545Y138231D01*
X1090639Y138157D01*
X1090736Y138087D01*
X1090834Y138020D01*
X1090935Y137956D01*
X1091039Y137896D01*
X1091144Y137839D01*
X1091251Y137786D01*
X1091359Y137736D01*
X1091469Y137690D01*
X1091581Y137648D01*
X1091694Y137609D01*
X1091808Y137574D01*
X1091923Y137543D01*
X1092040Y137515D01*
X1092157Y137492D01*
X1092274Y137472D01*
X1092393Y137456D01*
X1092512Y137444D01*
X1092631Y137436D01*
X1092750Y137432D01*
X1092870Y137432D01*
X1092989Y137436D01*
X1093108Y137444D01*
X1093227Y137456D01*
X1093346Y137472D01*
X1093463Y137492D01*
X1093580Y137515D01*
X1093697Y137543D01*
X1093812Y137574D01*
X1093926Y137609D01*
X1094039Y137648D01*
X1094151Y137690D01*
X1094261Y137736D01*
X1094369Y137786D01*
X1094476Y137839D01*
X1094581Y137896D01*
X1094685Y137956D01*
X1094786Y138020D01*
X1094884Y138087D01*
X1094981Y138157D01*
X1095075Y138231D01*
X1095167Y138307D01*
X1095256Y138387D01*
X1095343Y138469D01*
X1095427Y138554D01*
X1095508Y138642D01*
X1095585Y138732D01*
X1095660Y138825D01*
X1095732Y138921D01*
X1095801Y139019D01*
X1095866Y139119D01*
X1095928Y139221D01*
X1095987Y139325D01*
X1096042Y139431D01*
X1096093Y139539D01*
X1096141Y139648D01*
X1096186Y139759D01*
X1096226Y139871D01*
X1096263Y139985D01*
X1096296Y140100D01*
X1096326Y140215D01*
X1096351Y140332D01*
X1096373Y140449D01*
X1096390Y140568D01*
X1096404Y140686D01*
X1096414Y140805D01*
X1096420Y140925D01*
X1096422Y141044D01*
X1082281Y137432D02*
X1082281Y153688D01*
X1082281Y137432D02*
X1077765Y137432D01*
X1077661Y137434D01*
X1077558Y137440D01*
X1077454Y137450D01*
X1077351Y137464D01*
X1077249Y137482D01*
X1077148Y137503D01*
X1077047Y137529D01*
X1076948Y137558D01*
X1076849Y137591D01*
X1076752Y137628D01*
X1076657Y137669D01*
X1076563Y137713D01*
X1076471Y137761D01*
X1076381Y137812D01*
X1076292Y137867D01*
X1076206Y137925D01*
X1076123Y137987D01*
X1076041Y138051D01*
X1075963Y138119D01*
X1075887Y138189D01*
X1075813Y138262D01*
X1075743Y138339D01*
X1075675Y138417D01*
X1075611Y138499D01*
X1075549Y138582D01*
X1075491Y138668D01*
X1075436Y138757D01*
X1075385Y138847D01*
X1075337Y138939D01*
X1075293Y139033D01*
X1075252Y139128D01*
X1075215Y139225D01*
X1075182Y139324D01*
X1075153Y139423D01*
X1075127Y139524D01*
X1075106Y139625D01*
X1075088Y139727D01*
X1075074Y139830D01*
X1075064Y139934D01*
X1075058Y140037D01*
X1075056Y140141D01*
X1075056Y145560D01*
X1075058Y145661D01*
X1075064Y145762D01*
X1075073Y145863D01*
X1075086Y145964D01*
X1075103Y146064D01*
X1075124Y146163D01*
X1075148Y146261D01*
X1075176Y146358D01*
X1075208Y146455D01*
X1075243Y146550D01*
X1075282Y146643D01*
X1075324Y146735D01*
X1075370Y146826D01*
X1075419Y146915D01*
X1075471Y147001D01*
X1075527Y147086D01*
X1075585Y147169D01*
X1075647Y147249D01*
X1075712Y147327D01*
X1075779Y147403D01*
X1075849Y147476D01*
X1075922Y147546D01*
X1075998Y147613D01*
X1076076Y147678D01*
X1076156Y147740D01*
X1076239Y147798D01*
X1076324Y147854D01*
X1076411Y147906D01*
X1076499Y147955D01*
X1076590Y148001D01*
X1076682Y148043D01*
X1076775Y148082D01*
X1076870Y148117D01*
X1076967Y148149D01*
X1077064Y148177D01*
X1077162Y148201D01*
X1077261Y148222D01*
X1077361Y148239D01*
X1077462Y148252D01*
X1077563Y148261D01*
X1077664Y148267D01*
X1077765Y148269D01*
X1082281Y148269D01*
X1068842Y148269D02*
X1068842Y137432D01*
X1069293Y152785D02*
X1069293Y153688D01*
X1068390Y153688D01*
X1068390Y152785D01*
X1069293Y152785D01*
X1062033Y148269D02*
X1062033Y137432D01*
X1062033Y148269D02*
X1057518Y148269D01*
X1057414Y148267D01*
X1057311Y148261D01*
X1057207Y148251D01*
X1057104Y148237D01*
X1057002Y148219D01*
X1056901Y148198D01*
X1056800Y148172D01*
X1056701Y148143D01*
X1056602Y148110D01*
X1056505Y148073D01*
X1056410Y148032D01*
X1056316Y147988D01*
X1056224Y147940D01*
X1056134Y147889D01*
X1056045Y147834D01*
X1055959Y147776D01*
X1055876Y147714D01*
X1055794Y147650D01*
X1055716Y147582D01*
X1055640Y147512D01*
X1055566Y147439D01*
X1055496Y147362D01*
X1055428Y147284D01*
X1055364Y147202D01*
X1055302Y147119D01*
X1055244Y147033D01*
X1055189Y146944D01*
X1055138Y146854D01*
X1055090Y146762D01*
X1055046Y146668D01*
X1055005Y146573D01*
X1054968Y146476D01*
X1054935Y146377D01*
X1054906Y146278D01*
X1054880Y146177D01*
X1054859Y146076D01*
X1054841Y145974D01*
X1054827Y145871D01*
X1054817Y145767D01*
X1054811Y145664D01*
X1054809Y145560D01*
X1054808Y145560D02*
X1054808Y137432D01*
X1038758Y146463D02*
X1034242Y146463D01*
X1034242Y146464D02*
X1034109Y146462D01*
X1033977Y146456D01*
X1033845Y146446D01*
X1033713Y146433D01*
X1033581Y146415D01*
X1033451Y146394D01*
X1033320Y146369D01*
X1033191Y146340D01*
X1033063Y146307D01*
X1032935Y146271D01*
X1032809Y146231D01*
X1032684Y146187D01*
X1032560Y146139D01*
X1032438Y146088D01*
X1032317Y146033D01*
X1032198Y145975D01*
X1032080Y145913D01*
X1031965Y145848D01*
X1031851Y145779D01*
X1031740Y145708D01*
X1031631Y145632D01*
X1031524Y145554D01*
X1031419Y145473D01*
X1031317Y145388D01*
X1031217Y145301D01*
X1031120Y145211D01*
X1031025Y145118D01*
X1030934Y145022D01*
X1030845Y144924D01*
X1030759Y144823D01*
X1030676Y144719D01*
X1030596Y144613D01*
X1030520Y144505D01*
X1030446Y144395D01*
X1030376Y144282D01*
X1030309Y144168D01*
X1030246Y144051D01*
X1030186Y143933D01*
X1030129Y143813D01*
X1030076Y143691D01*
X1030027Y143568D01*
X1029981Y143444D01*
X1029939Y143318D01*
X1029901Y143191D01*
X1029866Y143063D01*
X1029835Y142934D01*
X1029808Y142805D01*
X1029785Y142674D01*
X1029765Y142543D01*
X1029750Y142411D01*
X1029738Y142279D01*
X1029730Y142147D01*
X1029726Y142014D01*
X1029726Y141882D01*
X1029730Y141749D01*
X1029738Y141617D01*
X1029750Y141485D01*
X1029765Y141353D01*
X1029785Y141222D01*
X1029808Y141091D01*
X1029835Y140962D01*
X1029866Y140833D01*
X1029901Y140705D01*
X1029939Y140578D01*
X1029981Y140452D01*
X1030027Y140328D01*
X1030076Y140205D01*
X1030129Y140083D01*
X1030186Y139963D01*
X1030246Y139845D01*
X1030309Y139728D01*
X1030376Y139614D01*
X1030446Y139501D01*
X1030520Y139391D01*
X1030596Y139283D01*
X1030676Y139177D01*
X1030759Y139073D01*
X1030845Y138972D01*
X1030934Y138874D01*
X1031025Y138778D01*
X1031120Y138685D01*
X1031217Y138595D01*
X1031317Y138508D01*
X1031419Y138423D01*
X1031524Y138342D01*
X1031631Y138264D01*
X1031740Y138188D01*
X1031851Y138117D01*
X1031965Y138048D01*
X1032080Y137983D01*
X1032198Y137921D01*
X1032317Y137863D01*
X1032438Y137808D01*
X1032560Y137757D01*
X1032684Y137709D01*
X1032809Y137665D01*
X1032935Y137625D01*
X1033063Y137589D01*
X1033191Y137556D01*
X1033320Y137527D01*
X1033451Y137502D01*
X1033581Y137481D01*
X1033713Y137463D01*
X1033845Y137450D01*
X1033977Y137440D01*
X1034109Y137434D01*
X1034242Y137432D01*
X1038758Y137432D01*
X1038758Y153688D01*
X1034242Y153688D01*
X1034123Y153686D01*
X1034003Y153680D01*
X1033884Y153670D01*
X1033766Y153656D01*
X1033647Y153639D01*
X1033530Y153617D01*
X1033413Y153592D01*
X1033298Y153562D01*
X1033183Y153529D01*
X1033069Y153492D01*
X1032957Y153452D01*
X1032846Y153407D01*
X1032737Y153359D01*
X1032629Y153308D01*
X1032523Y153253D01*
X1032419Y153194D01*
X1032317Y153132D01*
X1032217Y153067D01*
X1032119Y152998D01*
X1032023Y152926D01*
X1031930Y152851D01*
X1031840Y152774D01*
X1031752Y152693D01*
X1031667Y152609D01*
X1031585Y152522D01*
X1031505Y152433D01*
X1031429Y152341D01*
X1031355Y152247D01*
X1031285Y152150D01*
X1031218Y152052D01*
X1031154Y151951D01*
X1031094Y151847D01*
X1031037Y151742D01*
X1030984Y151635D01*
X1030934Y151527D01*
X1030888Y151417D01*
X1030846Y151305D01*
X1030807Y151192D01*
X1030772Y151078D01*
X1030741Y150963D01*
X1030713Y150846D01*
X1030690Y150729D01*
X1030670Y150612D01*
X1030654Y150493D01*
X1030642Y150374D01*
X1030634Y150255D01*
X1030630Y150136D01*
X1030630Y150016D01*
X1030634Y149897D01*
X1030642Y149778D01*
X1030654Y149659D01*
X1030670Y149540D01*
X1030690Y149423D01*
X1030713Y149306D01*
X1030741Y149189D01*
X1030772Y149074D01*
X1030807Y148960D01*
X1030846Y148847D01*
X1030888Y148735D01*
X1030934Y148625D01*
X1030984Y148517D01*
X1031037Y148410D01*
X1031094Y148305D01*
X1031154Y148201D01*
X1031218Y148100D01*
X1031285Y148002D01*
X1031355Y147905D01*
X1031429Y147811D01*
X1031505Y147719D01*
X1031585Y147630D01*
X1031667Y147543D01*
X1031752Y147459D01*
X1031840Y147378D01*
X1031930Y147301D01*
X1032023Y147226D01*
X1032119Y147154D01*
X1032217Y147085D01*
X1032317Y147020D01*
X1032419Y146958D01*
X1032523Y146899D01*
X1032629Y146844D01*
X1032737Y146793D01*
X1032846Y146745D01*
X1032957Y146700D01*
X1033069Y146660D01*
X1033183Y146623D01*
X1033298Y146590D01*
X1033413Y146560D01*
X1033530Y146535D01*
X1033647Y146513D01*
X1033766Y146496D01*
X1033884Y146482D01*
X1034003Y146472D01*
X1034123Y146466D01*
X1034242Y146464D01*
X1020910Y143754D02*
X1016846Y143754D01*
X1020910Y143754D02*
X1021022Y143752D01*
X1021133Y143746D01*
X1021244Y143736D01*
X1021355Y143723D01*
X1021465Y143705D01*
X1021574Y143683D01*
X1021683Y143658D01*
X1021791Y143629D01*
X1021897Y143596D01*
X1022003Y143559D01*
X1022107Y143519D01*
X1022209Y143475D01*
X1022310Y143427D01*
X1022409Y143376D01*
X1022507Y143321D01*
X1022602Y143263D01*
X1022695Y143202D01*
X1022786Y143137D01*
X1022875Y143069D01*
X1022961Y142998D01*
X1023044Y142925D01*
X1023125Y142848D01*
X1023204Y142768D01*
X1023279Y142686D01*
X1023351Y142601D01*
X1023421Y142514D01*
X1023487Y142424D01*
X1023550Y142332D01*
X1023610Y142237D01*
X1023666Y142141D01*
X1023719Y142043D01*
X1023768Y141943D01*
X1023814Y141841D01*
X1023856Y141738D01*
X1023895Y141633D01*
X1023930Y141527D01*
X1023961Y141420D01*
X1023988Y141312D01*
X1024012Y141203D01*
X1024031Y141093D01*
X1024047Y140983D01*
X1024059Y140872D01*
X1024067Y140760D01*
X1024071Y140649D01*
X1024071Y140537D01*
X1024067Y140426D01*
X1024059Y140314D01*
X1024047Y140203D01*
X1024031Y140093D01*
X1024012Y139983D01*
X1023988Y139874D01*
X1023961Y139766D01*
X1023930Y139659D01*
X1023895Y139553D01*
X1023856Y139448D01*
X1023814Y139345D01*
X1023768Y139243D01*
X1023719Y139143D01*
X1023666Y139045D01*
X1023610Y138949D01*
X1023550Y138854D01*
X1023487Y138762D01*
X1023421Y138672D01*
X1023351Y138585D01*
X1023279Y138500D01*
X1023204Y138418D01*
X1023125Y138338D01*
X1023044Y138261D01*
X1022961Y138188D01*
X1022875Y138117D01*
X1022786Y138049D01*
X1022695Y137984D01*
X1022602Y137923D01*
X1022507Y137865D01*
X1022409Y137810D01*
X1022310Y137759D01*
X1022209Y137711D01*
X1022107Y137667D01*
X1022003Y137627D01*
X1021897Y137590D01*
X1021791Y137557D01*
X1021683Y137528D01*
X1021574Y137503D01*
X1021465Y137481D01*
X1021355Y137463D01*
X1021244Y137450D01*
X1021133Y137440D01*
X1021022Y137434D01*
X1020910Y137432D01*
X1016846Y137432D01*
X1016846Y145560D01*
X1016848Y145661D01*
X1016854Y145762D01*
X1016863Y145863D01*
X1016876Y145964D01*
X1016893Y146064D01*
X1016914Y146163D01*
X1016938Y146261D01*
X1016966Y146358D01*
X1016998Y146455D01*
X1017033Y146550D01*
X1017072Y146643D01*
X1017114Y146735D01*
X1017160Y146826D01*
X1017209Y146915D01*
X1017261Y147001D01*
X1017317Y147086D01*
X1017375Y147169D01*
X1017437Y147249D01*
X1017502Y147327D01*
X1017569Y147403D01*
X1017639Y147476D01*
X1017712Y147546D01*
X1017788Y147613D01*
X1017866Y147678D01*
X1017946Y147740D01*
X1018029Y147798D01*
X1018114Y147854D01*
X1018201Y147906D01*
X1018289Y147955D01*
X1018380Y148001D01*
X1018472Y148043D01*
X1018565Y148082D01*
X1018660Y148117D01*
X1018757Y148149D01*
X1018854Y148177D01*
X1018952Y148201D01*
X1019051Y148222D01*
X1019151Y148239D01*
X1019252Y148252D01*
X1019353Y148261D01*
X1019454Y148267D01*
X1019555Y148269D01*
X1023168Y148269D01*
X1009323Y148269D02*
X1009323Y137432D01*
X1009323Y148269D02*
X1003905Y148269D01*
X1003905Y146463D01*
X995900Y143754D02*
X991836Y143754D01*
X995900Y143754D02*
X996012Y143752D01*
X996123Y143746D01*
X996234Y143736D01*
X996345Y143723D01*
X996455Y143705D01*
X996564Y143683D01*
X996673Y143658D01*
X996781Y143629D01*
X996887Y143596D01*
X996993Y143559D01*
X997097Y143519D01*
X997199Y143475D01*
X997300Y143427D01*
X997399Y143376D01*
X997497Y143321D01*
X997592Y143263D01*
X997685Y143202D01*
X997776Y143137D01*
X997865Y143069D01*
X997951Y142998D01*
X998034Y142925D01*
X998115Y142848D01*
X998194Y142768D01*
X998269Y142686D01*
X998341Y142601D01*
X998411Y142514D01*
X998477Y142424D01*
X998540Y142332D01*
X998600Y142237D01*
X998656Y142141D01*
X998709Y142043D01*
X998758Y141943D01*
X998804Y141841D01*
X998846Y141738D01*
X998885Y141633D01*
X998920Y141527D01*
X998951Y141420D01*
X998978Y141312D01*
X999002Y141203D01*
X999021Y141093D01*
X999037Y140983D01*
X999049Y140872D01*
X999057Y140760D01*
X999061Y140649D01*
X999061Y140537D01*
X999057Y140426D01*
X999049Y140314D01*
X999037Y140203D01*
X999021Y140093D01*
X999002Y139983D01*
X998978Y139874D01*
X998951Y139766D01*
X998920Y139659D01*
X998885Y139553D01*
X998846Y139448D01*
X998804Y139345D01*
X998758Y139243D01*
X998709Y139143D01*
X998656Y139045D01*
X998600Y138949D01*
X998540Y138854D01*
X998477Y138762D01*
X998411Y138672D01*
X998341Y138585D01*
X998269Y138500D01*
X998194Y138418D01*
X998115Y138338D01*
X998034Y138261D01*
X997951Y138188D01*
X997865Y138117D01*
X997776Y138049D01*
X997685Y137984D01*
X997592Y137923D01*
X997497Y137865D01*
X997399Y137810D01*
X997300Y137759D01*
X997199Y137711D01*
X997097Y137667D01*
X996993Y137627D01*
X996887Y137590D01*
X996781Y137557D01*
X996673Y137528D01*
X996564Y137503D01*
X996455Y137481D01*
X996345Y137463D01*
X996234Y137450D01*
X996123Y137440D01*
X996012Y137434D01*
X995900Y137432D01*
X991836Y137432D01*
X991836Y145560D01*
X991838Y145661D01*
X991844Y145762D01*
X991853Y145863D01*
X991866Y145964D01*
X991883Y146064D01*
X991904Y146163D01*
X991928Y146261D01*
X991956Y146358D01*
X991988Y146455D01*
X992023Y146550D01*
X992062Y146643D01*
X992104Y146735D01*
X992150Y146826D01*
X992199Y146915D01*
X992251Y147001D01*
X992307Y147086D01*
X992365Y147169D01*
X992427Y147249D01*
X992492Y147327D01*
X992559Y147403D01*
X992629Y147476D01*
X992702Y147546D01*
X992778Y147613D01*
X992856Y147678D01*
X992936Y147740D01*
X993019Y147798D01*
X993104Y147854D01*
X993191Y147906D01*
X993279Y147955D01*
X993370Y148001D01*
X993462Y148043D01*
X993555Y148082D01*
X993650Y148117D01*
X993747Y148149D01*
X993844Y148177D01*
X993942Y148201D01*
X994041Y148222D01*
X994141Y148239D01*
X994242Y148252D01*
X994343Y148261D01*
X994444Y148267D01*
X994545Y148269D01*
X998158Y148269D01*
X984398Y148269D02*
X984398Y137432D01*
X984398Y148269D02*
X979883Y148269D01*
X979779Y148267D01*
X979676Y148261D01*
X979572Y148251D01*
X979469Y148237D01*
X979367Y148219D01*
X979266Y148198D01*
X979165Y148172D01*
X979066Y148143D01*
X978967Y148110D01*
X978870Y148073D01*
X978775Y148032D01*
X978681Y147988D01*
X978589Y147940D01*
X978499Y147889D01*
X978410Y147834D01*
X978324Y147776D01*
X978241Y147714D01*
X978159Y147650D01*
X978081Y147582D01*
X978005Y147512D01*
X977931Y147439D01*
X977861Y147362D01*
X977793Y147284D01*
X977729Y147202D01*
X977667Y147119D01*
X977609Y147033D01*
X977554Y146944D01*
X977503Y146854D01*
X977455Y146762D01*
X977411Y146668D01*
X977370Y146573D01*
X977333Y146476D01*
X977300Y146377D01*
X977271Y146278D01*
X977245Y146177D01*
X977224Y146076D01*
X977206Y145974D01*
X977192Y145871D01*
X977182Y145767D01*
X977176Y145664D01*
X977174Y145560D01*
X977173Y145560D02*
X977173Y137432D01*
X1199238Y127018D02*
X1199238Y110762D01*
X1199238Y127018D02*
X1194722Y127018D01*
X1194589Y127016D01*
X1194457Y127010D01*
X1194325Y127000D01*
X1194193Y126987D01*
X1194061Y126969D01*
X1193931Y126948D01*
X1193800Y126923D01*
X1193671Y126894D01*
X1193543Y126861D01*
X1193415Y126825D01*
X1193289Y126785D01*
X1193164Y126741D01*
X1193040Y126693D01*
X1192918Y126642D01*
X1192797Y126587D01*
X1192678Y126529D01*
X1192560Y126467D01*
X1192445Y126402D01*
X1192331Y126333D01*
X1192220Y126262D01*
X1192111Y126186D01*
X1192004Y126108D01*
X1191899Y126027D01*
X1191797Y125942D01*
X1191697Y125855D01*
X1191600Y125765D01*
X1191505Y125672D01*
X1191414Y125576D01*
X1191325Y125478D01*
X1191239Y125377D01*
X1191156Y125273D01*
X1191076Y125167D01*
X1191000Y125059D01*
X1190926Y124949D01*
X1190856Y124836D01*
X1190789Y124722D01*
X1190726Y124605D01*
X1190666Y124487D01*
X1190609Y124367D01*
X1190556Y124245D01*
X1190507Y124122D01*
X1190461Y123998D01*
X1190419Y123872D01*
X1190381Y123745D01*
X1190346Y123617D01*
X1190315Y123488D01*
X1190288Y123359D01*
X1190265Y123228D01*
X1190245Y123097D01*
X1190230Y122965D01*
X1190218Y122833D01*
X1190210Y122701D01*
X1190206Y122568D01*
X1190206Y122436D01*
X1190210Y122303D01*
X1190218Y122171D01*
X1190230Y122039D01*
X1190245Y121907D01*
X1190265Y121776D01*
X1190288Y121645D01*
X1190315Y121516D01*
X1190346Y121387D01*
X1190381Y121259D01*
X1190419Y121132D01*
X1190461Y121006D01*
X1190507Y120882D01*
X1190556Y120759D01*
X1190609Y120637D01*
X1190666Y120517D01*
X1190726Y120399D01*
X1190789Y120282D01*
X1190856Y120168D01*
X1190926Y120055D01*
X1191000Y119945D01*
X1191076Y119837D01*
X1191156Y119731D01*
X1191239Y119627D01*
X1191325Y119526D01*
X1191414Y119428D01*
X1191505Y119332D01*
X1191600Y119239D01*
X1191697Y119149D01*
X1191797Y119062D01*
X1191899Y118977D01*
X1192004Y118896D01*
X1192111Y118818D01*
X1192220Y118742D01*
X1192331Y118671D01*
X1192445Y118602D01*
X1192560Y118537D01*
X1192678Y118475D01*
X1192797Y118417D01*
X1192918Y118362D01*
X1193040Y118311D01*
X1193164Y118263D01*
X1193289Y118219D01*
X1193415Y118179D01*
X1193543Y118143D01*
X1193671Y118110D01*
X1193800Y118081D01*
X1193931Y118056D01*
X1194061Y118035D01*
X1194193Y118017D01*
X1194325Y118004D01*
X1194457Y117994D01*
X1194589Y117988D01*
X1194722Y117986D01*
X1194722Y117987D02*
X1199238Y117987D01*
X1193819Y117987D02*
X1190207Y110762D01*
X1181128Y110762D02*
X1176612Y110762D01*
X1181128Y110762D02*
X1181229Y110764D01*
X1181330Y110770D01*
X1181431Y110779D01*
X1181532Y110792D01*
X1181632Y110809D01*
X1181731Y110830D01*
X1181829Y110854D01*
X1181926Y110882D01*
X1182023Y110914D01*
X1182118Y110949D01*
X1182211Y110988D01*
X1182303Y111030D01*
X1182394Y111076D01*
X1182483Y111125D01*
X1182569Y111177D01*
X1182654Y111233D01*
X1182737Y111291D01*
X1182817Y111353D01*
X1182895Y111418D01*
X1182971Y111485D01*
X1183044Y111555D01*
X1183114Y111628D01*
X1183181Y111704D01*
X1183246Y111782D01*
X1183308Y111862D01*
X1183366Y111945D01*
X1183422Y112030D01*
X1183474Y112116D01*
X1183523Y112205D01*
X1183569Y112296D01*
X1183611Y112388D01*
X1183650Y112481D01*
X1183685Y112576D01*
X1183717Y112673D01*
X1183745Y112770D01*
X1183769Y112868D01*
X1183790Y112967D01*
X1183807Y113067D01*
X1183820Y113168D01*
X1183829Y113269D01*
X1183835Y113370D01*
X1183837Y113471D01*
X1183837Y117987D01*
X1183835Y118106D01*
X1183829Y118226D01*
X1183819Y118345D01*
X1183805Y118463D01*
X1183788Y118582D01*
X1183766Y118699D01*
X1183741Y118816D01*
X1183711Y118931D01*
X1183678Y119046D01*
X1183641Y119160D01*
X1183601Y119272D01*
X1183556Y119383D01*
X1183508Y119492D01*
X1183457Y119600D01*
X1183402Y119706D01*
X1183343Y119810D01*
X1183281Y119912D01*
X1183216Y120012D01*
X1183147Y120110D01*
X1183075Y120206D01*
X1183000Y120299D01*
X1182923Y120389D01*
X1182842Y120477D01*
X1182758Y120562D01*
X1182671Y120644D01*
X1182582Y120724D01*
X1182490Y120800D01*
X1182396Y120874D01*
X1182299Y120944D01*
X1182201Y121011D01*
X1182100Y121075D01*
X1181996Y121135D01*
X1181891Y121192D01*
X1181784Y121245D01*
X1181676Y121295D01*
X1181566Y121341D01*
X1181454Y121383D01*
X1181341Y121422D01*
X1181227Y121457D01*
X1181112Y121488D01*
X1180995Y121516D01*
X1180878Y121539D01*
X1180761Y121559D01*
X1180642Y121575D01*
X1180523Y121587D01*
X1180404Y121595D01*
X1180285Y121599D01*
X1180165Y121599D01*
X1180046Y121595D01*
X1179927Y121587D01*
X1179808Y121575D01*
X1179689Y121559D01*
X1179572Y121539D01*
X1179455Y121516D01*
X1179338Y121488D01*
X1179223Y121457D01*
X1179109Y121422D01*
X1178996Y121383D01*
X1178884Y121341D01*
X1178774Y121295D01*
X1178666Y121245D01*
X1178559Y121192D01*
X1178454Y121135D01*
X1178350Y121075D01*
X1178249Y121011D01*
X1178151Y120944D01*
X1178054Y120874D01*
X1177960Y120800D01*
X1177868Y120724D01*
X1177779Y120644D01*
X1177692Y120562D01*
X1177608Y120477D01*
X1177527Y120389D01*
X1177450Y120299D01*
X1177375Y120206D01*
X1177303Y120110D01*
X1177234Y120012D01*
X1177169Y119912D01*
X1177107Y119810D01*
X1177048Y119706D01*
X1176993Y119600D01*
X1176942Y119492D01*
X1176894Y119383D01*
X1176849Y119272D01*
X1176809Y119160D01*
X1176772Y119046D01*
X1176739Y118931D01*
X1176709Y118816D01*
X1176684Y118699D01*
X1176662Y118582D01*
X1176645Y118463D01*
X1176631Y118345D01*
X1176621Y118226D01*
X1176615Y118106D01*
X1176613Y117987D01*
X1176612Y117987D02*
X1176612Y116181D01*
X1183837Y116181D01*
X1170811Y121599D02*
X1167199Y110762D01*
X1163586Y121599D01*
X1157820Y121599D02*
X1157820Y110762D01*
X1158272Y126115D02*
X1158272Y127018D01*
X1157369Y127018D01*
X1157369Y126115D01*
X1158272Y126115D01*
X1150178Y117084D02*
X1145663Y115278D01*
X1150179Y117084D02*
X1150267Y117121D01*
X1150353Y117162D01*
X1150438Y117206D01*
X1150521Y117254D01*
X1150601Y117305D01*
X1150680Y117359D01*
X1150756Y117417D01*
X1150830Y117477D01*
X1150902Y117541D01*
X1150970Y117607D01*
X1151036Y117677D01*
X1151099Y117748D01*
X1151160Y117823D01*
X1151217Y117899D01*
X1151270Y117978D01*
X1151321Y118059D01*
X1151368Y118142D01*
X1151412Y118227D01*
X1151452Y118314D01*
X1151489Y118402D01*
X1151522Y118492D01*
X1151552Y118583D01*
X1151577Y118675D01*
X1151599Y118768D01*
X1151617Y118862D01*
X1151632Y118956D01*
X1151642Y119051D01*
X1151648Y119147D01*
X1151651Y119242D01*
X1151650Y119338D01*
X1151644Y119433D01*
X1151635Y119529D01*
X1151622Y119623D01*
X1151606Y119717D01*
X1151585Y119811D01*
X1151560Y119903D01*
X1151532Y119994D01*
X1151500Y120084D01*
X1151465Y120173D01*
X1151426Y120260D01*
X1151383Y120346D01*
X1151337Y120430D01*
X1151287Y120511D01*
X1151235Y120591D01*
X1151179Y120669D01*
X1151119Y120744D01*
X1151057Y120816D01*
X1150992Y120886D01*
X1150924Y120954D01*
X1150854Y121018D01*
X1150781Y121080D01*
X1150705Y121138D01*
X1150627Y121194D01*
X1150547Y121246D01*
X1150465Y121295D01*
X1150381Y121340D01*
X1150295Y121382D01*
X1150208Y121421D01*
X1150119Y121456D01*
X1150028Y121487D01*
X1149937Y121514D01*
X1149844Y121538D01*
X1149751Y121558D01*
X1149657Y121574D01*
X1149562Y121586D01*
X1149467Y121595D01*
X1149371Y121599D01*
X1149276Y121600D01*
X1149029Y121593D01*
X1148783Y121581D01*
X1148537Y121563D01*
X1148291Y121538D01*
X1148047Y121508D01*
X1147803Y121472D01*
X1147560Y121431D01*
X1147318Y121383D01*
X1147077Y121329D01*
X1146838Y121270D01*
X1146600Y121205D01*
X1146364Y121134D01*
X1146129Y121058D01*
X1145896Y120976D01*
X1145666Y120888D01*
X1145438Y120795D01*
X1145211Y120697D01*
X1145662Y115277D02*
X1145574Y115240D01*
X1145488Y115199D01*
X1145403Y115155D01*
X1145320Y115107D01*
X1145240Y115056D01*
X1145161Y115002D01*
X1145085Y114944D01*
X1145011Y114884D01*
X1144939Y114820D01*
X1144871Y114754D01*
X1144805Y114684D01*
X1144742Y114613D01*
X1144681Y114538D01*
X1144624Y114462D01*
X1144571Y114383D01*
X1144520Y114302D01*
X1144473Y114219D01*
X1144429Y114134D01*
X1144389Y114047D01*
X1144352Y113959D01*
X1144319Y113869D01*
X1144289Y113778D01*
X1144264Y113686D01*
X1144242Y113593D01*
X1144224Y113499D01*
X1144209Y113405D01*
X1144199Y113310D01*
X1144193Y113214D01*
X1144190Y113119D01*
X1144191Y113023D01*
X1144197Y112928D01*
X1144206Y112832D01*
X1144219Y112738D01*
X1144235Y112644D01*
X1144256Y112550D01*
X1144281Y112458D01*
X1144309Y112367D01*
X1144341Y112277D01*
X1144376Y112188D01*
X1144415Y112101D01*
X1144458Y112015D01*
X1144504Y111931D01*
X1144554Y111850D01*
X1144606Y111770D01*
X1144662Y111692D01*
X1144722Y111617D01*
X1144784Y111545D01*
X1144849Y111475D01*
X1144917Y111407D01*
X1144987Y111343D01*
X1145060Y111281D01*
X1145136Y111223D01*
X1145214Y111167D01*
X1145294Y111115D01*
X1145376Y111066D01*
X1145460Y111021D01*
X1145546Y110979D01*
X1145633Y110940D01*
X1145722Y110905D01*
X1145813Y110874D01*
X1145904Y110847D01*
X1145997Y110823D01*
X1146090Y110803D01*
X1146184Y110787D01*
X1146279Y110775D01*
X1146374Y110766D01*
X1146470Y110762D01*
X1146565Y110761D01*
X1146566Y110762D02*
X1146928Y110771D01*
X1147290Y110789D01*
X1147651Y110816D01*
X1148011Y110851D01*
X1148371Y110894D01*
X1148730Y110946D01*
X1149087Y111007D01*
X1149442Y111076D01*
X1149796Y111153D01*
X1150148Y111239D01*
X1150498Y111333D01*
X1150846Y111436D01*
X1151191Y111546D01*
X1151533Y111665D01*
X1138021Y110762D02*
X1138021Y121599D01*
X1138472Y126115D02*
X1138472Y127018D01*
X1137569Y127018D01*
X1137569Y126115D01*
X1138472Y126115D01*
X1131733Y117987D02*
X1131733Y114374D01*
X1131733Y117987D02*
X1131731Y118106D01*
X1131725Y118226D01*
X1131715Y118345D01*
X1131701Y118463D01*
X1131684Y118582D01*
X1131662Y118699D01*
X1131637Y118816D01*
X1131607Y118931D01*
X1131574Y119046D01*
X1131537Y119160D01*
X1131497Y119272D01*
X1131452Y119383D01*
X1131404Y119492D01*
X1131353Y119600D01*
X1131298Y119706D01*
X1131239Y119810D01*
X1131177Y119912D01*
X1131112Y120012D01*
X1131043Y120110D01*
X1130971Y120206D01*
X1130896Y120299D01*
X1130819Y120389D01*
X1130738Y120477D01*
X1130654Y120562D01*
X1130567Y120644D01*
X1130478Y120724D01*
X1130386Y120800D01*
X1130292Y120874D01*
X1130195Y120944D01*
X1130097Y121011D01*
X1129996Y121075D01*
X1129892Y121135D01*
X1129787Y121192D01*
X1129680Y121245D01*
X1129572Y121295D01*
X1129462Y121341D01*
X1129350Y121383D01*
X1129237Y121422D01*
X1129123Y121457D01*
X1129008Y121488D01*
X1128891Y121516D01*
X1128774Y121539D01*
X1128657Y121559D01*
X1128538Y121575D01*
X1128419Y121587D01*
X1128300Y121595D01*
X1128181Y121599D01*
X1128061Y121599D01*
X1127942Y121595D01*
X1127823Y121587D01*
X1127704Y121575D01*
X1127585Y121559D01*
X1127468Y121539D01*
X1127351Y121516D01*
X1127234Y121488D01*
X1127119Y121457D01*
X1127005Y121422D01*
X1126892Y121383D01*
X1126780Y121341D01*
X1126670Y121295D01*
X1126562Y121245D01*
X1126455Y121192D01*
X1126350Y121135D01*
X1126246Y121075D01*
X1126145Y121011D01*
X1126047Y120944D01*
X1125950Y120874D01*
X1125856Y120800D01*
X1125764Y120724D01*
X1125675Y120644D01*
X1125588Y120562D01*
X1125504Y120477D01*
X1125423Y120389D01*
X1125346Y120299D01*
X1125271Y120206D01*
X1125199Y120110D01*
X1125130Y120012D01*
X1125065Y119912D01*
X1125003Y119810D01*
X1124944Y119706D01*
X1124889Y119600D01*
X1124838Y119492D01*
X1124790Y119383D01*
X1124745Y119272D01*
X1124705Y119160D01*
X1124668Y119046D01*
X1124635Y118931D01*
X1124605Y118816D01*
X1124580Y118699D01*
X1124558Y118582D01*
X1124541Y118463D01*
X1124527Y118345D01*
X1124517Y118226D01*
X1124511Y118106D01*
X1124509Y117987D01*
X1124508Y117987D02*
X1124508Y114374D01*
X1124509Y114374D02*
X1124511Y114255D01*
X1124517Y114135D01*
X1124527Y114016D01*
X1124541Y113898D01*
X1124558Y113779D01*
X1124580Y113662D01*
X1124605Y113545D01*
X1124635Y113430D01*
X1124668Y113315D01*
X1124705Y113201D01*
X1124745Y113089D01*
X1124790Y112978D01*
X1124838Y112869D01*
X1124889Y112761D01*
X1124944Y112655D01*
X1125003Y112551D01*
X1125065Y112449D01*
X1125130Y112349D01*
X1125199Y112251D01*
X1125271Y112155D01*
X1125346Y112062D01*
X1125423Y111972D01*
X1125504Y111884D01*
X1125588Y111799D01*
X1125675Y111717D01*
X1125764Y111637D01*
X1125856Y111561D01*
X1125950Y111487D01*
X1126047Y111417D01*
X1126145Y111350D01*
X1126246Y111286D01*
X1126350Y111226D01*
X1126455Y111169D01*
X1126562Y111116D01*
X1126670Y111066D01*
X1126780Y111020D01*
X1126892Y110978D01*
X1127005Y110939D01*
X1127119Y110904D01*
X1127234Y110873D01*
X1127351Y110845D01*
X1127468Y110822D01*
X1127585Y110802D01*
X1127704Y110786D01*
X1127823Y110774D01*
X1127942Y110766D01*
X1128061Y110762D01*
X1128181Y110762D01*
X1128300Y110766D01*
X1128419Y110774D01*
X1128538Y110786D01*
X1128657Y110802D01*
X1128774Y110822D01*
X1128891Y110845D01*
X1129008Y110873D01*
X1129123Y110904D01*
X1129237Y110939D01*
X1129350Y110978D01*
X1129462Y111020D01*
X1129572Y111066D01*
X1129680Y111116D01*
X1129787Y111169D01*
X1129892Y111226D01*
X1129996Y111286D01*
X1130097Y111350D01*
X1130195Y111417D01*
X1130292Y111487D01*
X1130386Y111561D01*
X1130478Y111637D01*
X1130567Y111717D01*
X1130654Y111799D01*
X1130738Y111884D01*
X1130819Y111972D01*
X1130896Y112062D01*
X1130971Y112155D01*
X1131043Y112251D01*
X1131112Y112349D01*
X1131177Y112449D01*
X1131239Y112551D01*
X1131298Y112655D01*
X1131353Y112761D01*
X1131404Y112869D01*
X1131452Y112978D01*
X1131497Y113089D01*
X1131537Y113201D01*
X1131574Y113315D01*
X1131607Y113430D01*
X1131637Y113545D01*
X1131662Y113662D01*
X1131684Y113779D01*
X1131701Y113898D01*
X1131715Y114016D01*
X1131725Y114135D01*
X1131731Y114255D01*
X1131733Y114374D01*
X1117665Y110762D02*
X1117665Y121599D01*
X1113150Y121599D01*
X1113046Y121597D01*
X1112943Y121591D01*
X1112839Y121581D01*
X1112736Y121567D01*
X1112634Y121549D01*
X1112533Y121528D01*
X1112432Y121502D01*
X1112333Y121473D01*
X1112234Y121440D01*
X1112137Y121403D01*
X1112042Y121362D01*
X1111948Y121318D01*
X1111856Y121270D01*
X1111766Y121219D01*
X1111677Y121164D01*
X1111591Y121106D01*
X1111508Y121044D01*
X1111426Y120980D01*
X1111348Y120912D01*
X1111272Y120842D01*
X1111198Y120769D01*
X1111128Y120692D01*
X1111060Y120614D01*
X1110996Y120532D01*
X1110934Y120449D01*
X1110876Y120363D01*
X1110821Y120274D01*
X1110770Y120184D01*
X1110722Y120092D01*
X1110678Y119998D01*
X1110637Y119903D01*
X1110600Y119806D01*
X1110567Y119707D01*
X1110538Y119608D01*
X1110512Y119507D01*
X1110491Y119406D01*
X1110473Y119304D01*
X1110459Y119201D01*
X1110449Y119097D01*
X1110443Y118994D01*
X1110441Y118890D01*
X1110440Y118890D02*
X1110440Y110762D01*
X1095122Y123406D02*
X1090606Y127018D01*
X1090606Y110762D01*
X1095122Y110762D02*
X1086090Y110762D01*
X1071013Y118890D02*
X1071009Y119262D01*
X1070995Y119634D01*
X1070973Y120005D01*
X1070941Y120376D01*
X1070901Y120746D01*
X1070852Y121114D01*
X1070794Y121482D01*
X1070728Y121848D01*
X1070652Y122212D01*
X1070568Y122574D01*
X1070475Y122934D01*
X1070373Y123292D01*
X1070263Y123648D01*
X1070144Y124000D01*
X1070017Y124350D01*
X1069882Y124696D01*
X1069738Y125039D01*
X1069586Y125379D01*
X1069426Y125715D01*
X1069258Y126046D01*
X1069082Y126374D01*
X1068898Y126698D01*
X1068706Y127016D01*
X1068507Y127330D01*
X1068300Y127640D01*
X1068086Y127944D01*
X1067865Y128243D01*
X1067636Y128536D01*
X1067400Y128824D01*
X1071013Y118890D02*
X1071009Y118518D01*
X1070995Y118146D01*
X1070973Y117775D01*
X1070941Y117404D01*
X1070901Y117034D01*
X1070852Y116666D01*
X1070794Y116298D01*
X1070728Y115932D01*
X1070652Y115568D01*
X1070568Y115206D01*
X1070475Y114846D01*
X1070373Y114488D01*
X1070263Y114132D01*
X1070144Y113780D01*
X1070017Y113430D01*
X1069882Y113084D01*
X1069738Y112741D01*
X1069586Y112401D01*
X1069426Y112065D01*
X1069258Y111734D01*
X1069082Y111406D01*
X1068898Y111083D01*
X1068706Y110764D01*
X1068507Y110450D01*
X1068300Y110140D01*
X1068086Y109836D01*
X1067865Y109537D01*
X1067636Y109244D01*
X1067401Y108956D01*
X1061254Y118890D02*
X1061250Y119210D01*
X1061239Y119529D01*
X1061220Y119849D01*
X1061193Y120167D01*
X1061159Y120485D01*
X1061117Y120802D01*
X1061067Y121118D01*
X1061010Y121433D01*
X1060946Y121746D01*
X1060874Y122058D01*
X1060795Y122368D01*
X1060708Y122675D01*
X1060614Y122981D01*
X1060513Y123284D01*
X1060404Y123585D01*
X1060289Y123883D01*
X1060166Y124179D01*
X1060036Y124471D01*
X1059899Y124760D01*
X1059899Y124761D02*
X1059860Y124869D01*
X1059817Y124976D01*
X1059771Y125081D01*
X1059720Y125185D01*
X1059667Y125287D01*
X1059610Y125387D01*
X1059549Y125485D01*
X1059485Y125580D01*
X1059418Y125674D01*
X1059347Y125765D01*
X1059274Y125854D01*
X1059197Y125940D01*
X1059118Y126023D01*
X1059036Y126104D01*
X1058951Y126182D01*
X1058863Y126256D01*
X1058773Y126328D01*
X1058681Y126396D01*
X1058586Y126462D01*
X1058489Y126524D01*
X1058390Y126582D01*
X1058288Y126638D01*
X1058186Y126689D01*
X1058081Y126737D01*
X1057975Y126782D01*
X1057867Y126823D01*
X1057758Y126860D01*
X1057648Y126893D01*
X1057536Y126922D01*
X1057424Y126948D01*
X1057311Y126970D01*
X1057197Y126987D01*
X1057083Y127001D01*
X1056968Y127011D01*
X1056853Y127017D01*
X1056738Y127019D01*
X1056738Y127018D02*
X1056623Y127016D01*
X1056508Y127010D01*
X1056393Y127000D01*
X1056279Y126986D01*
X1056165Y126969D01*
X1056052Y126947D01*
X1055940Y126921D01*
X1055828Y126892D01*
X1055718Y126859D01*
X1055609Y126822D01*
X1055501Y126781D01*
X1055395Y126736D01*
X1055291Y126688D01*
X1055188Y126637D01*
X1055087Y126581D01*
X1054987Y126523D01*
X1054890Y126461D01*
X1054796Y126396D01*
X1054703Y126327D01*
X1054613Y126255D01*
X1054525Y126181D01*
X1054440Y126103D01*
X1054358Y126022D01*
X1054279Y125939D01*
X1054202Y125853D01*
X1054129Y125764D01*
X1054058Y125673D01*
X1053991Y125579D01*
X1053927Y125484D01*
X1053866Y125386D01*
X1053809Y125286D01*
X1053756Y125184D01*
X1053705Y125080D01*
X1053659Y124975D01*
X1053616Y124868D01*
X1053577Y124760D01*
X1053578Y124760D02*
X1053441Y124471D01*
X1053311Y124179D01*
X1053188Y123883D01*
X1053073Y123585D01*
X1052964Y123284D01*
X1052863Y122981D01*
X1052769Y122675D01*
X1052682Y122368D01*
X1052603Y122058D01*
X1052531Y121746D01*
X1052467Y121433D01*
X1052410Y121118D01*
X1052360Y120802D01*
X1052318Y120485D01*
X1052284Y120167D01*
X1052257Y119849D01*
X1052238Y119529D01*
X1052227Y119210D01*
X1052223Y118890D01*
X1061254Y118890D02*
X1061250Y118570D01*
X1061239Y118251D01*
X1061220Y117931D01*
X1061193Y117613D01*
X1061159Y117295D01*
X1061117Y116978D01*
X1061067Y116662D01*
X1061010Y116347D01*
X1060946Y116034D01*
X1060874Y115722D01*
X1060795Y115412D01*
X1060708Y115105D01*
X1060614Y114799D01*
X1060513Y114496D01*
X1060404Y114195D01*
X1060289Y113897D01*
X1060166Y113601D01*
X1060036Y113309D01*
X1059899Y113020D01*
X1059860Y112912D01*
X1059817Y112805D01*
X1059771Y112700D01*
X1059720Y112596D01*
X1059667Y112494D01*
X1059610Y112394D01*
X1059549Y112296D01*
X1059485Y112201D01*
X1059418Y112107D01*
X1059347Y112016D01*
X1059274Y111927D01*
X1059197Y111841D01*
X1059118Y111758D01*
X1059036Y111677D01*
X1058951Y111599D01*
X1058863Y111525D01*
X1058773Y111453D01*
X1058680Y111384D01*
X1058586Y111319D01*
X1058489Y111257D01*
X1058389Y111199D01*
X1058288Y111143D01*
X1058186Y111092D01*
X1058081Y111044D01*
X1057975Y110999D01*
X1057867Y110958D01*
X1057758Y110921D01*
X1057648Y110888D01*
X1057536Y110859D01*
X1057424Y110833D01*
X1057311Y110811D01*
X1057197Y110794D01*
X1057083Y110780D01*
X1056968Y110770D01*
X1056853Y110764D01*
X1056738Y110762D01*
X1053578Y113020D02*
X1053441Y113309D01*
X1053311Y113601D01*
X1053188Y113897D01*
X1053073Y114195D01*
X1052964Y114496D01*
X1052863Y114799D01*
X1052769Y115105D01*
X1052682Y115412D01*
X1052603Y115722D01*
X1052531Y116034D01*
X1052467Y116347D01*
X1052410Y116662D01*
X1052360Y116978D01*
X1052318Y117295D01*
X1052284Y117613D01*
X1052257Y117931D01*
X1052238Y118251D01*
X1052227Y118570D01*
X1052223Y118890D01*
X1053577Y113020D02*
X1053616Y112912D01*
X1053659Y112805D01*
X1053705Y112700D01*
X1053756Y112596D01*
X1053809Y112494D01*
X1053867Y112394D01*
X1053927Y112296D01*
X1053991Y112201D01*
X1054058Y112107D01*
X1054129Y112016D01*
X1054202Y111927D01*
X1054279Y111841D01*
X1054358Y111758D01*
X1054440Y111677D01*
X1054525Y111599D01*
X1054613Y111525D01*
X1054703Y111453D01*
X1054796Y111384D01*
X1054890Y111319D01*
X1054987Y111257D01*
X1055087Y111199D01*
X1055188Y111143D01*
X1055291Y111092D01*
X1055395Y111044D01*
X1055501Y110999D01*
X1055609Y110958D01*
X1055718Y110921D01*
X1055828Y110888D01*
X1055940Y110859D01*
X1056052Y110833D01*
X1056165Y110811D01*
X1056279Y110794D01*
X1056393Y110780D01*
X1056508Y110770D01*
X1056623Y110764D01*
X1056738Y110762D01*
X1060351Y114374D02*
X1053126Y123406D01*
X1045623Y125212D02*
X1045623Y127018D01*
X1036592Y127018D01*
X1041107Y110762D01*
X1030652Y108956D02*
X1023427Y128824D01*
X1012519Y127018D02*
X1012394Y127016D01*
X1012269Y127010D01*
X1012144Y127001D01*
X1012020Y126987D01*
X1011896Y126970D01*
X1011772Y126949D01*
X1011650Y126924D01*
X1011528Y126895D01*
X1011407Y126863D01*
X1011287Y126827D01*
X1011168Y126787D01*
X1011051Y126744D01*
X1010935Y126697D01*
X1010820Y126646D01*
X1010708Y126592D01*
X1010596Y126534D01*
X1010487Y126474D01*
X1010380Y126409D01*
X1010274Y126342D01*
X1010171Y126271D01*
X1010070Y126197D01*
X1009971Y126120D01*
X1009875Y126040D01*
X1009781Y125957D01*
X1009690Y125872D01*
X1009601Y125783D01*
X1009516Y125692D01*
X1009433Y125598D01*
X1009353Y125502D01*
X1009276Y125403D01*
X1009202Y125302D01*
X1009131Y125199D01*
X1009064Y125093D01*
X1008999Y124986D01*
X1008939Y124877D01*
X1008881Y124765D01*
X1008827Y124653D01*
X1008776Y124538D01*
X1008729Y124422D01*
X1008686Y124305D01*
X1008646Y124186D01*
X1008610Y124066D01*
X1008578Y123945D01*
X1008549Y123823D01*
X1008524Y123701D01*
X1008503Y123577D01*
X1008486Y123453D01*
X1008472Y123329D01*
X1008463Y123204D01*
X1008457Y123079D01*
X1008455Y122954D01*
X1012519Y127018D02*
X1012662Y127016D01*
X1012804Y127010D01*
X1012947Y127000D01*
X1013089Y126987D01*
X1013230Y126969D01*
X1013372Y126948D01*
X1013512Y126923D01*
X1013652Y126894D01*
X1013791Y126861D01*
X1013929Y126824D01*
X1014066Y126784D01*
X1014201Y126740D01*
X1014336Y126692D01*
X1014469Y126640D01*
X1014601Y126585D01*
X1014731Y126526D01*
X1014859Y126464D01*
X1014986Y126398D01*
X1015111Y126329D01*
X1015234Y126257D01*
X1015355Y126181D01*
X1015473Y126102D01*
X1015590Y126019D01*
X1015704Y125934D01*
X1015816Y125845D01*
X1015925Y125754D01*
X1016032Y125659D01*
X1016137Y125562D01*
X1016238Y125461D01*
X1016337Y125358D01*
X1016433Y125253D01*
X1016526Y125144D01*
X1016616Y125033D01*
X1016703Y124920D01*
X1016787Y124805D01*
X1016867Y124687D01*
X1016945Y124567D01*
X1017019Y124445D01*
X1017089Y124321D01*
X1017157Y124195D01*
X1017220Y124067D01*
X1017281Y123938D01*
X1017338Y123807D01*
X1017391Y123675D01*
X1017440Y123541D01*
X1017486Y123406D01*
X1009811Y119793D02*
X1009717Y119885D01*
X1009627Y119979D01*
X1009539Y120076D01*
X1009454Y120176D01*
X1009372Y120278D01*
X1009293Y120383D01*
X1009218Y120490D01*
X1009146Y120599D01*
X1009077Y120710D01*
X1009011Y120824D01*
X1008949Y120939D01*
X1008890Y121056D01*
X1008835Y121175D01*
X1008784Y121295D01*
X1008736Y121417D01*
X1008691Y121540D01*
X1008651Y121664D01*
X1008614Y121790D01*
X1008581Y121917D01*
X1008552Y122044D01*
X1008526Y122173D01*
X1008505Y122302D01*
X1008487Y122432D01*
X1008474Y122562D01*
X1008464Y122692D01*
X1008458Y122823D01*
X1008456Y122954D01*
X1009810Y119793D02*
X1017487Y110762D01*
X1008455Y110762D01*
X1001855Y118890D02*
X1001851Y119210D01*
X1001840Y119529D01*
X1001821Y119849D01*
X1001794Y120167D01*
X1001760Y120485D01*
X1001718Y120802D01*
X1001668Y121118D01*
X1001611Y121433D01*
X1001547Y121746D01*
X1001475Y122058D01*
X1001396Y122368D01*
X1001309Y122675D01*
X1001215Y122981D01*
X1001114Y123284D01*
X1001005Y123585D01*
X1000890Y123883D01*
X1000767Y124179D01*
X1000637Y124471D01*
X1000500Y124760D01*
X1000501Y124761D02*
X1000462Y124869D01*
X1000419Y124976D01*
X1000373Y125081D01*
X1000322Y125185D01*
X1000269Y125287D01*
X1000212Y125387D01*
X1000151Y125485D01*
X1000087Y125580D01*
X1000020Y125674D01*
X999949Y125765D01*
X999876Y125854D01*
X999799Y125940D01*
X999720Y126023D01*
X999638Y126104D01*
X999553Y126182D01*
X999465Y126256D01*
X999375Y126328D01*
X999283Y126396D01*
X999188Y126462D01*
X999091Y126524D01*
X998992Y126582D01*
X998890Y126638D01*
X998788Y126689D01*
X998683Y126737D01*
X998577Y126782D01*
X998469Y126823D01*
X998360Y126860D01*
X998250Y126893D01*
X998138Y126922D01*
X998026Y126948D01*
X997913Y126970D01*
X997799Y126987D01*
X997685Y127001D01*
X997570Y127011D01*
X997455Y127017D01*
X997340Y127019D01*
X997340Y127018D02*
X997225Y127016D01*
X997110Y127010D01*
X996995Y127000D01*
X996881Y126986D01*
X996767Y126969D01*
X996654Y126947D01*
X996542Y126921D01*
X996430Y126892D01*
X996320Y126859D01*
X996211Y126822D01*
X996103Y126781D01*
X995997Y126736D01*
X995893Y126688D01*
X995790Y126637D01*
X995689Y126581D01*
X995589Y126523D01*
X995492Y126461D01*
X995398Y126396D01*
X995305Y126327D01*
X995215Y126255D01*
X995127Y126181D01*
X995042Y126103D01*
X994960Y126022D01*
X994881Y125939D01*
X994804Y125853D01*
X994731Y125764D01*
X994660Y125673D01*
X994593Y125579D01*
X994529Y125484D01*
X994468Y125386D01*
X994411Y125286D01*
X994358Y125184D01*
X994307Y125080D01*
X994261Y124975D01*
X994218Y124868D01*
X994179Y124760D01*
X994042Y124471D01*
X993912Y124179D01*
X993789Y123883D01*
X993674Y123585D01*
X993565Y123284D01*
X993464Y122981D01*
X993370Y122675D01*
X993283Y122368D01*
X993204Y122058D01*
X993132Y121746D01*
X993068Y121433D01*
X993011Y121118D01*
X992961Y120802D01*
X992919Y120485D01*
X992885Y120167D01*
X992858Y119849D01*
X992839Y119529D01*
X992828Y119210D01*
X992824Y118890D01*
X1001855Y118890D02*
X1001851Y118570D01*
X1001840Y118251D01*
X1001821Y117931D01*
X1001794Y117613D01*
X1001760Y117295D01*
X1001718Y116978D01*
X1001668Y116662D01*
X1001611Y116347D01*
X1001547Y116034D01*
X1001475Y115722D01*
X1001396Y115412D01*
X1001309Y115105D01*
X1001215Y114799D01*
X1001114Y114496D01*
X1001005Y114195D01*
X1000890Y113897D01*
X1000767Y113601D01*
X1000637Y113309D01*
X1000500Y113020D01*
X1000501Y113020D02*
X1000462Y112912D01*
X1000419Y112805D01*
X1000373Y112700D01*
X1000322Y112596D01*
X1000269Y112494D01*
X1000212Y112394D01*
X1000151Y112296D01*
X1000087Y112201D01*
X1000020Y112107D01*
X999949Y112016D01*
X999876Y111927D01*
X999799Y111841D01*
X999720Y111758D01*
X999638Y111677D01*
X999553Y111599D01*
X999465Y111525D01*
X999375Y111453D01*
X999282Y111384D01*
X999188Y111319D01*
X999091Y111257D01*
X998991Y111199D01*
X998890Y111143D01*
X998788Y111092D01*
X998683Y111044D01*
X998577Y110999D01*
X998469Y110958D01*
X998360Y110921D01*
X998250Y110888D01*
X998138Y110859D01*
X998026Y110833D01*
X997913Y110811D01*
X997799Y110794D01*
X997685Y110780D01*
X997570Y110770D01*
X997455Y110764D01*
X997340Y110762D01*
X994180Y113020D02*
X994043Y113309D01*
X993913Y113601D01*
X993790Y113897D01*
X993675Y114195D01*
X993566Y114496D01*
X993465Y114799D01*
X993371Y115105D01*
X993284Y115412D01*
X993205Y115722D01*
X993133Y116034D01*
X993069Y116347D01*
X993012Y116662D01*
X992962Y116978D01*
X992920Y117295D01*
X992886Y117613D01*
X992859Y117931D01*
X992840Y118251D01*
X992829Y118570D01*
X992825Y118890D01*
X994179Y113020D02*
X994218Y112912D01*
X994261Y112805D01*
X994307Y112700D01*
X994358Y112596D01*
X994411Y112494D01*
X994469Y112394D01*
X994529Y112296D01*
X994593Y112201D01*
X994660Y112107D01*
X994731Y112016D01*
X994804Y111927D01*
X994881Y111841D01*
X994960Y111758D01*
X995042Y111677D01*
X995127Y111599D01*
X995215Y111525D01*
X995305Y111453D01*
X995398Y111384D01*
X995492Y111319D01*
X995589Y111257D01*
X995689Y111199D01*
X995790Y111143D01*
X995893Y111092D01*
X995997Y111044D01*
X996103Y110999D01*
X996211Y110958D01*
X996320Y110921D01*
X996430Y110888D01*
X996542Y110859D01*
X996654Y110833D01*
X996767Y110811D01*
X996881Y110794D01*
X996995Y110780D01*
X997110Y110770D01*
X997225Y110764D01*
X997340Y110762D01*
X1000952Y114374D02*
X993727Y123406D01*
X986224Y123406D02*
X981709Y127018D01*
X981709Y110762D01*
X986224Y110762D02*
X977193Y110762D01*
X966980Y117987D02*
X961562Y117987D01*
X966980Y117987D02*
X967098Y117989D01*
X967216Y117995D01*
X967334Y118004D01*
X967451Y118018D01*
X967568Y118035D01*
X967685Y118056D01*
X967800Y118081D01*
X967915Y118110D01*
X968029Y118143D01*
X968141Y118179D01*
X968252Y118219D01*
X968362Y118262D01*
X968471Y118309D01*
X968578Y118359D01*
X968683Y118414D01*
X968786Y118471D01*
X968887Y118532D01*
X968987Y118596D01*
X969084Y118663D01*
X969179Y118733D01*
X969271Y118807D01*
X969362Y118883D01*
X969449Y118963D01*
X969534Y119045D01*
X969616Y119130D01*
X969696Y119217D01*
X969772Y119308D01*
X969846Y119400D01*
X969916Y119495D01*
X969983Y119592D01*
X970047Y119692D01*
X970108Y119793D01*
X970165Y119896D01*
X970220Y120001D01*
X970270Y120108D01*
X970317Y120217D01*
X970360Y120327D01*
X970400Y120438D01*
X970436Y120550D01*
X970469Y120664D01*
X970498Y120779D01*
X970523Y120894D01*
X970544Y121011D01*
X970561Y121128D01*
X970575Y121245D01*
X970584Y121363D01*
X970590Y121481D01*
X970592Y121599D01*
X970593Y121599D02*
X970593Y122502D01*
X970591Y122635D01*
X970585Y122767D01*
X970575Y122899D01*
X970562Y123031D01*
X970544Y123163D01*
X970523Y123293D01*
X970498Y123424D01*
X970469Y123553D01*
X970436Y123681D01*
X970400Y123809D01*
X970360Y123935D01*
X970316Y124060D01*
X970268Y124184D01*
X970217Y124306D01*
X970162Y124427D01*
X970104Y124546D01*
X970042Y124664D01*
X969977Y124779D01*
X969908Y124893D01*
X969837Y125004D01*
X969761Y125113D01*
X969683Y125220D01*
X969602Y125325D01*
X969517Y125427D01*
X969430Y125527D01*
X969340Y125624D01*
X969247Y125719D01*
X969151Y125810D01*
X969053Y125899D01*
X968952Y125985D01*
X968848Y126068D01*
X968742Y126148D01*
X968634Y126224D01*
X968524Y126298D01*
X968411Y126368D01*
X968297Y126435D01*
X968180Y126498D01*
X968062Y126558D01*
X967942Y126615D01*
X967820Y126668D01*
X967697Y126717D01*
X967573Y126763D01*
X967447Y126805D01*
X967320Y126843D01*
X967192Y126878D01*
X967063Y126909D01*
X966934Y126936D01*
X966803Y126959D01*
X966672Y126979D01*
X966540Y126994D01*
X966408Y127006D01*
X966276Y127014D01*
X966143Y127018D01*
X966011Y127018D01*
X965878Y127014D01*
X965746Y127006D01*
X965614Y126994D01*
X965482Y126979D01*
X965351Y126959D01*
X965220Y126936D01*
X965091Y126909D01*
X964962Y126878D01*
X964834Y126843D01*
X964707Y126805D01*
X964581Y126763D01*
X964457Y126717D01*
X964334Y126668D01*
X964212Y126615D01*
X964092Y126558D01*
X963974Y126498D01*
X963857Y126435D01*
X963743Y126368D01*
X963630Y126298D01*
X963520Y126224D01*
X963412Y126148D01*
X963306Y126068D01*
X963202Y125985D01*
X963101Y125899D01*
X963003Y125810D01*
X962907Y125719D01*
X962814Y125624D01*
X962724Y125527D01*
X962637Y125427D01*
X962552Y125325D01*
X962471Y125220D01*
X962393Y125113D01*
X962317Y125004D01*
X962246Y124893D01*
X962177Y124779D01*
X962112Y124664D01*
X962050Y124546D01*
X961992Y124427D01*
X961937Y124306D01*
X961886Y124184D01*
X961838Y124060D01*
X961794Y123935D01*
X961754Y123809D01*
X961718Y123681D01*
X961685Y123553D01*
X961656Y123424D01*
X961631Y123293D01*
X961610Y123163D01*
X961592Y123031D01*
X961579Y122899D01*
X961569Y122767D01*
X961563Y122635D01*
X961561Y122502D01*
X961562Y122502D02*
X961562Y117987D01*
X961564Y117812D01*
X961570Y117638D01*
X961581Y117464D01*
X961596Y117290D01*
X961615Y117116D01*
X961638Y116943D01*
X961665Y116771D01*
X961697Y116599D01*
X961732Y116428D01*
X961772Y116258D01*
X961816Y116089D01*
X961864Y115921D01*
X961916Y115754D01*
X961972Y115589D01*
X962032Y115425D01*
X962095Y115262D01*
X962163Y115102D01*
X962235Y114942D01*
X962310Y114785D01*
X962390Y114629D01*
X962473Y114476D01*
X962559Y114324D01*
X962650Y114175D01*
X962744Y114028D01*
X962841Y113883D01*
X962942Y113740D01*
X963046Y113600D01*
X963154Y113463D01*
X963265Y113328D01*
X963379Y113196D01*
X963496Y113067D01*
X963617Y112940D01*
X963740Y112817D01*
X963867Y112696D01*
X963996Y112579D01*
X964128Y112465D01*
X964263Y112354D01*
X964400Y112246D01*
X964540Y112142D01*
X964683Y112041D01*
X964828Y111944D01*
X964975Y111850D01*
X965124Y111759D01*
X965276Y111673D01*
X965429Y111590D01*
X965585Y111510D01*
X965742Y111435D01*
X965902Y111363D01*
X966062Y111295D01*
X966225Y111232D01*
X966389Y111172D01*
X966554Y111116D01*
X966721Y111064D01*
X966889Y111016D01*
X967058Y110972D01*
X967228Y110932D01*
X967399Y110897D01*
X967571Y110865D01*
X967743Y110838D01*
X967916Y110815D01*
X968090Y110796D01*
X968264Y110781D01*
X968438Y110770D01*
X968612Y110764D01*
X968787Y110762D01*
X955415Y108956D02*
X955180Y109244D01*
X954951Y109537D01*
X954730Y109836D01*
X954516Y110140D01*
X954309Y110450D01*
X954110Y110764D01*
X953918Y111083D01*
X953734Y111406D01*
X953558Y111734D01*
X953390Y112065D01*
X953230Y112401D01*
X953078Y112741D01*
X952934Y113084D01*
X952799Y113430D01*
X952672Y113780D01*
X952553Y114132D01*
X952443Y114488D01*
X952341Y114846D01*
X952248Y115206D01*
X952164Y115568D01*
X952088Y115932D01*
X952022Y116298D01*
X951964Y116666D01*
X951915Y117034D01*
X951875Y117404D01*
X951843Y117775D01*
X951821Y118146D01*
X951807Y118518D01*
X951803Y118890D01*
X951807Y119262D01*
X951821Y119634D01*
X951843Y120005D01*
X951875Y120376D01*
X951915Y120746D01*
X951964Y121114D01*
X952022Y121482D01*
X952088Y121848D01*
X952164Y122212D01*
X952248Y122574D01*
X952341Y122934D01*
X952443Y123292D01*
X952553Y123648D01*
X952672Y124000D01*
X952799Y124350D01*
X952934Y124696D01*
X953078Y125039D01*
X953230Y125379D01*
X953390Y125715D01*
X953558Y126046D01*
X953734Y126374D01*
X953918Y126698D01*
X954110Y127016D01*
X954309Y127330D01*
X954516Y127640D01*
X954730Y127944D01*
X954951Y128243D01*
X955180Y128536D01*
X955416Y128824D01*
M02*
