G04 EAGLE Gerber RS-274X export*
G75*
%MOMM*%
%FSLAX34Y34*%
%LPD*%
%INSoldermask Bottom*%
%IPPOS*%
%AMOC8*
5,1,8,0,0,1.08239X$1,22.5*%
G01*
%ADD10C,3.203200*%
%ADD11C,1.727200*%
%ADD12C,1.727200*%
%ADD13C,1.524000*%
%ADD14C,2.743200*%
%ADD15P,2.969212X8X112.500000*%
%ADD16C,1.511200*%
%ADD17P,1.649562X8X112.500000*%
%ADD18P,1.649562X8X202.500000*%
%ADD19C,1.211200*%
%ADD20P,2.034460X8X292.500000*%
%ADD21P,1.649562X8X292.500000*%
%ADD22P,2.309387X8X202.500000*%
%ADD23C,1.879600*%
%ADD24C,1.879600*%
%ADD25C,2.451100*%
%ADD26C,0.959600*%


D10*
X1155000Y62500D03*
X805000Y245000D03*
X37600Y725000D03*
X37600Y215000D03*
X1312600Y725000D03*
X1312600Y215000D03*
D11*
X1274400Y69300D03*
X1299800Y69300D03*
D12*
X72200Y44020D02*
X72200Y28780D01*
X46800Y28780D02*
X46800Y44020D01*
X159700Y43320D02*
X159700Y28080D01*
X134300Y28080D02*
X134300Y43320D01*
D13*
X894296Y547600D02*
X907504Y547600D01*
X907504Y522200D02*
X894296Y522200D01*
X894296Y496800D02*
X907504Y496800D01*
X907504Y471400D02*
X894296Y471400D01*
X894296Y446000D02*
X907504Y446000D01*
X907504Y420600D02*
X894296Y420600D01*
X894296Y395200D02*
X907504Y395200D01*
X907504Y369800D02*
X894296Y369800D01*
X1024296Y369800D02*
X1037504Y369800D01*
X1037504Y395200D02*
X1024296Y395200D01*
X1024296Y420600D02*
X1037504Y420600D01*
X1037504Y446000D02*
X1024296Y446000D01*
X1024296Y471400D02*
X1037504Y471400D01*
X1037504Y496800D02*
X1024296Y496800D01*
X1024296Y522200D02*
X1037504Y522200D01*
X1037504Y547600D02*
X1024296Y547600D01*
X667800Y211604D02*
X667800Y198396D01*
X642400Y198396D02*
X642400Y211604D01*
X617000Y211604D02*
X617000Y198396D01*
X591600Y198396D02*
X591600Y211604D01*
X566200Y211604D02*
X566200Y198396D01*
X540800Y198396D02*
X540800Y211604D01*
X515400Y211604D02*
X515400Y198396D01*
X490000Y198396D02*
X490000Y211604D01*
X464600Y211604D02*
X464600Y198396D01*
X439200Y198396D02*
X439200Y211604D01*
X413800Y211604D02*
X413800Y198396D01*
X388400Y198396D02*
X388400Y211604D01*
X363000Y211604D02*
X363000Y198396D01*
X337600Y198396D02*
X337600Y211604D01*
X312200Y211604D02*
X312200Y198396D01*
X312200Y61604D02*
X312200Y48396D01*
X337600Y48396D02*
X337600Y61604D01*
X363000Y61604D02*
X363000Y48396D01*
X388400Y48396D02*
X388400Y61604D01*
X413800Y61604D02*
X413800Y48396D01*
X439200Y48396D02*
X439200Y61604D01*
X464600Y61604D02*
X464600Y48396D01*
X490000Y48396D02*
X490000Y61604D01*
X515400Y61604D02*
X515400Y48396D01*
X540800Y48396D02*
X540800Y61604D01*
X566200Y61604D02*
X566200Y48396D01*
X591600Y48396D02*
X591600Y61604D01*
X617000Y61604D02*
X617000Y48396D01*
X642400Y48396D02*
X642400Y61604D01*
X667800Y61604D02*
X667800Y48396D01*
D14*
X555900Y539600D03*
D15*
X555900Y590400D03*
D16*
X151720Y306620D03*
X186720Y306620D03*
D12*
X62520Y390500D02*
X47280Y390500D01*
X47280Y365100D02*
X62520Y365100D01*
X62520Y339700D02*
X47280Y339700D01*
X1292380Y339900D02*
X1307620Y339900D01*
X1307620Y365300D02*
X1292380Y365300D01*
X1292380Y390700D02*
X1307620Y390700D01*
D17*
X357440Y254880D03*
X357440Y331080D03*
D18*
X308160Y370700D03*
X231960Y370700D03*
X308060Y326100D03*
X231860Y326100D03*
X307860Y282800D03*
X231660Y282800D03*
D17*
X400700Y254000D03*
X400700Y330200D03*
X444200Y253880D03*
X444200Y330080D03*
X487500Y253200D03*
X487500Y329400D03*
X532400Y253400D03*
X532400Y329600D03*
X576300Y252800D03*
X576300Y329000D03*
X619180Y252400D03*
X619180Y328600D03*
X662880Y251820D03*
X662880Y328020D03*
D18*
X308260Y409800D03*
X232060Y409800D03*
D12*
X196300Y622780D02*
X196300Y638020D01*
X221700Y638020D02*
X221700Y622780D01*
X247100Y622780D02*
X247100Y638020D01*
X170900Y638020D02*
X170900Y622780D01*
D13*
X254400Y471704D02*
X254400Y458496D01*
X279800Y458496D02*
X279800Y471704D01*
X305200Y471704D02*
X305200Y458496D01*
X330600Y458496D02*
X330600Y471704D01*
X356000Y471704D02*
X356000Y458496D01*
X381400Y458496D02*
X381400Y471704D01*
X406800Y471704D02*
X406800Y458496D01*
X432200Y458496D02*
X432200Y471704D01*
X457600Y471704D02*
X457600Y458496D01*
X457600Y534696D02*
X457600Y547904D01*
X432200Y547904D02*
X432200Y534696D01*
X406800Y534696D02*
X406800Y547904D01*
X381400Y547904D02*
X381400Y534696D01*
X356000Y534696D02*
X356000Y547904D01*
X330600Y547904D02*
X330600Y534696D01*
X305200Y534696D02*
X305200Y547904D01*
X279800Y547904D02*
X279800Y534696D01*
X254400Y534696D02*
X254400Y547904D01*
X581800Y398004D02*
X581800Y384796D01*
X607200Y384796D02*
X607200Y398004D01*
X632600Y398004D02*
X632600Y384796D01*
X658000Y384796D02*
X658000Y398004D01*
X683400Y398004D02*
X683400Y384796D01*
X708800Y384796D02*
X708800Y398004D01*
X734200Y398004D02*
X734200Y384796D01*
X759600Y384796D02*
X759600Y398004D01*
X785000Y398004D02*
X785000Y384796D01*
X785000Y460996D02*
X785000Y474204D01*
X759600Y474204D02*
X759600Y460996D01*
X734200Y460996D02*
X734200Y474204D01*
X708800Y474204D02*
X708800Y460996D01*
X683400Y460996D02*
X683400Y474204D01*
X658000Y474204D02*
X658000Y460996D01*
X632600Y460996D02*
X632600Y474204D01*
X607200Y474204D02*
X607200Y460996D01*
X581800Y460996D02*
X581800Y474204D01*
D19*
X165540Y530000D02*
X155460Y530000D01*
X155460Y517500D02*
X165540Y517500D01*
X165540Y505000D02*
X155460Y505000D01*
X155460Y492500D02*
X165540Y492500D01*
X165540Y480000D02*
X155460Y480000D01*
X155460Y467500D02*
X165540Y467500D01*
X165540Y455000D02*
X155460Y455000D01*
X155460Y442500D02*
X165540Y442500D01*
X165540Y430000D02*
X155460Y430000D01*
X155460Y417500D02*
X165540Y417500D01*
X165540Y405000D02*
X155460Y405000D01*
X155460Y392500D02*
X165540Y392500D01*
X165540Y380000D02*
X155460Y380000D01*
D20*
X50000Y477700D03*
X50000Y452300D03*
X1305000Y477700D03*
X1305000Y452300D03*
D21*
X98200Y428100D03*
X98200Y351900D03*
X1220000Y438100D03*
X1220000Y361900D03*
D22*
X755000Y47500D03*
X755000Y260000D03*
X1205000Y47500D03*
X1205000Y260000D03*
D11*
X1085400Y615000D03*
X1060000Y615000D03*
X1034600Y615000D03*
D23*
X149882Y155000D02*
X133118Y155000D01*
X260118Y155000D02*
X276882Y155000D01*
D24*
X90600Y280840D03*
X90600Y179240D03*
D12*
X1092300Y494880D02*
X1092300Y510120D01*
X1117700Y510120D02*
X1117700Y494880D01*
X1092300Y460120D02*
X1092300Y444880D01*
X1117700Y444880D02*
X1117700Y460120D01*
X1092300Y415120D02*
X1092300Y399880D01*
X1117700Y399880D02*
X1117700Y415120D01*
D25*
X1260000Y274940D02*
X1260000Y252461D01*
X1260000Y122540D02*
X1260000Y100061D01*
D12*
X1192700Y597380D02*
X1192700Y612620D01*
X1167300Y612620D02*
X1167300Y597380D01*
D13*
X842900Y564304D02*
X842900Y551096D01*
X792100Y551096D02*
X792100Y564304D01*
X817500Y564304D02*
X817500Y551096D01*
D20*
X675000Y592700D03*
X675000Y567300D03*
D21*
X1220000Y548100D03*
X1220000Y471900D03*
D12*
X227300Y52620D02*
X227300Y37380D01*
X252700Y37380D02*
X252700Y52620D01*
D17*
X310000Y574400D03*
X310000Y650600D03*
D21*
X350000Y650600D03*
X350000Y574400D03*
D18*
X563100Y175000D03*
X486900Y175000D03*
D12*
X176180Y208220D02*
X176180Y223460D01*
X201580Y223460D02*
X201580Y208220D01*
X226980Y208220D02*
X226980Y223460D01*
X252380Y223460D02*
X252380Y208220D01*
D26*
X400000Y635000D03*
X620000Y592500D03*
X455000Y355000D03*
X330000Y365000D03*
X470000Y490000D03*
X315000Y170000D03*
X540000Y645000D03*
X270000Y625000D03*
X440000Y655000D03*
X410000Y615000D03*
X205000Y165000D03*
X505000Y35000D03*
X190000Y150000D03*
X395000Y35000D03*
X440000Y355000D03*
X350000Y510000D03*
X375000Y510000D03*
X535000Y500000D03*
X535000Y510000D03*
X545000Y510000D03*
X555000Y520000D03*
X385000Y305000D03*
X915000Y570000D03*
X670000Y290000D03*
M02*
