M48
;GenerationSoftware,Autodesk,EAGLE,9.3.0*%
;CreationDate,2019-06-24T16:46:23Z*%
FMAT,2
ICI,OFF
METRIC,TZ,000.000
T2C1.016
T1C1.400
%
G90
M71
T1
X18600Y8940
X18600Y3940
X18600Y18930
X18600Y13930
X18600Y28940
X18600Y23940
X18600Y38950
X18600Y33950
X18600Y48950
X18600Y43950
X18600Y58960
X18600Y53960
T2
X2990Y11160
X5530Y11160
X8070Y11160
X10610Y11160
X13150Y11160
X15690Y11160
X2990Y51620
X5530Y51620
X8070Y51620
X10610Y51620
X13150Y51620
X15690Y51620
M30