M48
;GenerationSoftware,Autodesk,EAGLE,9.3.0*%
;CreationDate,2019-07-31T14:13:01Z*%
FMAT,2
ICI,OFF
METRIC,TZ,000.000
T4C0.350
T3C0.500
T2C2.200
T1C2.500
%
G90
M71
T1
X7000Y17000
X29000Y17000
T2
X2500Y2500
X33500Y2500
X33500Y24000
X2500Y24000
T3
X25550Y4390
X24300Y4390
X23050Y4390
X21800Y4390
X20550Y4390
X19300Y4390
X18050Y4390
X16800Y4390
X15550Y4390
X14300Y4390
X13050Y4390
X11800Y4390
X10550Y4390
T4
X15500Y21500
X15500Y20000
X15500Y18500
X15500Y15500
X15500Y17000
X15500Y12500
X15500Y14000
X20500Y21000
X20500Y18500
X20500Y15500
X20500Y17000
X20500Y12500
X20500Y14000
M30