G04 EAGLE Gerber RS-274X export*
G75*
%MOMM*%
%FSLAX34Y34*%
%LPD*%
%INTop Copper*%
%IPPOS*%
%AMOC8*
5,1,8,0,0,1.08239X$1,22.5*%
G01*
%ADD10C,1.008000*%
%ADD11R,2.540000X1.270000*%
%ADD12C,0.200000*%


D10*
X255500Y38860D02*
X255500Y48940D01*
X243000Y48940D02*
X243000Y38860D01*
X230500Y38860D02*
X230500Y48940D01*
X218000Y48940D02*
X218000Y38860D01*
X205500Y38860D02*
X205500Y48940D01*
X193000Y48940D02*
X193000Y38860D01*
X180500Y38860D02*
X180500Y48940D01*
X168000Y48940D02*
X168000Y38860D01*
X155500Y38860D02*
X155500Y48940D01*
X143000Y48940D02*
X143000Y38860D01*
X130500Y38860D02*
X130500Y48940D01*
X118000Y48940D02*
X118000Y38860D01*
X105500Y38860D02*
X105500Y48940D01*
D11*
X237700Y211400D03*
X242600Y191500D03*
X247800Y171400D03*
X247800Y151300D03*
X242700Y131400D03*
X237700Y111400D03*
X122500Y111500D03*
X117300Y131400D03*
X112300Y151400D03*
X112200Y171400D03*
X112300Y191390D03*
X117300Y211410D03*
X122300Y231430D03*
D12*
X261100Y55000D02*
X315000Y55000D01*
X338700Y78700D01*
X338700Y198700D01*
X261100Y55000D02*
X255500Y49400D01*
X255500Y43900D01*
X250260Y211400D02*
X273400Y234540D01*
X250260Y211400D02*
X237700Y211400D01*
X302860Y234540D02*
X338700Y198700D01*
X302860Y234540D02*
X273400Y234540D01*
X243000Y63000D02*
X243000Y43900D01*
X246400Y66400D02*
X306400Y66400D01*
X326400Y86400D01*
X326400Y196900D01*
X301200Y222100D01*
X278200Y222100D01*
X247600Y191500D01*
X242600Y191500D01*
X246400Y66400D02*
X243000Y63000D01*
X230500Y69900D02*
X230500Y43900D01*
X230500Y69900D02*
X238500Y77900D01*
X297900Y77900D01*
X314300Y94300D01*
X300000Y205000D02*
X290706Y205000D01*
X300000Y205000D02*
X314300Y190700D01*
X314300Y94300D01*
X257106Y171400D02*
X290706Y205000D01*
X257106Y171400D02*
X247800Y171400D01*
X218000Y75400D02*
X218000Y43900D01*
X218000Y75400D02*
X231500Y88900D01*
X283900Y88900D01*
X295000Y100000D01*
X295000Y130000D01*
X273700Y151300D01*
X247800Y151300D01*
X205500Y75500D02*
X205500Y43900D01*
X205500Y75500D02*
X228600Y98600D01*
X268600Y98600D01*
X280000Y110000D01*
X280000Y120000D01*
X268600Y131400D01*
X242700Y131400D01*
X193000Y81700D02*
X193000Y43900D01*
X222700Y111400D02*
X237700Y111400D01*
X222700Y111400D02*
X193000Y81700D01*
X180000Y90000D02*
X180000Y44400D01*
X180500Y43900D01*
X180000Y90000D02*
X163000Y107000D01*
X122500Y107000D01*
X168000Y87000D02*
X168000Y43900D01*
X157900Y97100D02*
X80000Y97100D01*
X80000Y120000D01*
X91400Y131400D01*
X117300Y131400D01*
X157900Y97100D02*
X168000Y87000D01*
X155500Y84500D02*
X155500Y43900D01*
X155500Y84500D02*
X152100Y87900D01*
X75000Y87900D01*
X65000Y97900D02*
X65000Y130000D01*
X86400Y151400D01*
X112300Y151400D01*
X65000Y97900D02*
X75000Y87900D01*
X143000Y72000D02*
X143000Y43900D01*
X143000Y72000D02*
X137400Y77600D01*
X66800Y77600D01*
X46200Y98200D02*
X46200Y181200D01*
X60000Y195000D01*
X102200Y171400D02*
X112200Y171400D01*
X102200Y171400D02*
X78600Y195000D01*
X60000Y195000D01*
X46200Y98200D02*
X66800Y77600D01*
X130500Y64500D02*
X130500Y43900D01*
X130500Y64500D02*
X127200Y67800D01*
X60200Y67800D01*
X38000Y90000D02*
X38000Y190600D01*
X53790Y206390D01*
X103100Y191390D02*
X112300Y191390D01*
X103100Y191390D02*
X88100Y206390D01*
X53790Y206390D01*
X38000Y90000D02*
X60200Y67800D01*
X118000Y53800D02*
X118000Y43900D01*
X118000Y53800D02*
X111100Y60700D01*
X49800Y60700D01*
X25900Y84600D02*
X25900Y190900D01*
X55000Y220000D02*
X98710Y220000D01*
X107300Y211410D02*
X117300Y211410D01*
X107300Y211410D02*
X98710Y220000D01*
X55000Y220000D02*
X25900Y190900D01*
X25900Y84600D02*
X49800Y60700D01*
X48200Y43900D02*
X105500Y43900D01*
X13500Y78600D02*
X13500Y195000D01*
X119790Y233940D02*
X122300Y231430D01*
X52440Y233940D02*
X13500Y195000D01*
X52440Y233940D02*
X119790Y233940D01*
X13500Y78600D02*
X48200Y43900D01*
M02*
