G04 EAGLE Gerber RS-274X export*
G75*
%MOMM*%
%FSLAX34Y34*%
%LPD*%
%IN*%
%IPPOS*%
%AMOC8*
5,1,8,0,0,1.08239X$1,22.5*%
G01*
%ADD10C,0.254000*%


D10*
X0Y25000D02*
X95Y22821D01*
X380Y20659D01*
X852Y18530D01*
X1508Y16450D01*
X2342Y14435D01*
X3349Y12500D01*
X4521Y10661D01*
X5849Y8930D01*
X7322Y7322D01*
X8930Y5849D01*
X10661Y4521D01*
X12500Y3349D01*
X14435Y2342D01*
X16450Y1508D01*
X18530Y852D01*
X20659Y380D01*
X22821Y95D01*
X25000Y0D01*
X335000Y0D01*
X337179Y95D01*
X339341Y380D01*
X341470Y852D01*
X343551Y1508D01*
X345565Y2342D01*
X347500Y3349D01*
X349339Y4521D01*
X351070Y5849D01*
X352678Y7322D01*
X354151Y8930D01*
X355479Y10661D01*
X356651Y12500D01*
X357658Y14435D01*
X358492Y16450D01*
X359148Y18530D01*
X359620Y20659D01*
X359905Y22821D01*
X360000Y25000D01*
X360000Y235100D01*
X360341Y237298D01*
X360488Y239517D01*
X360442Y241741D01*
X360202Y243952D01*
X359771Y246134D01*
X359151Y248270D01*
X358347Y250344D01*
X357365Y252339D01*
X356213Y254242D01*
X354900Y256037D01*
X353435Y257711D01*
X351830Y259251D01*
X350097Y260645D01*
X348249Y261882D01*
X346300Y262954D01*
X344265Y263852D01*
X342160Y264569D01*
X340000Y265100D01*
X30000Y265100D01*
X27385Y264986D01*
X24791Y264644D01*
X22235Y264078D01*
X19739Y263291D01*
X17321Y262289D01*
X15000Y261081D01*
X12793Y259675D01*
X10716Y258081D01*
X8787Y256313D01*
X7019Y254384D01*
X5425Y252307D01*
X4019Y250100D01*
X2811Y247779D01*
X1809Y245361D01*
X1022Y242865D01*
X456Y240309D01*
X114Y237715D01*
X0Y235100D01*
X0Y25000D01*
X156750Y214828D02*
X156683Y214490D01*
X156551Y214171D01*
X156359Y213884D01*
X156116Y213641D01*
X155829Y213449D01*
X155510Y213317D01*
X155172Y213250D01*
X154828Y213250D01*
X154490Y213317D01*
X154171Y213449D01*
X153884Y213641D01*
X153641Y213884D01*
X153449Y214171D01*
X153317Y214490D01*
X153250Y214828D01*
X153250Y215172D01*
X153317Y215510D01*
X153449Y215829D01*
X153641Y216116D01*
X153884Y216359D01*
X154171Y216551D01*
X154490Y216683D01*
X154828Y216750D01*
X155172Y216750D01*
X155510Y216683D01*
X155829Y216551D01*
X156116Y216359D01*
X156359Y216116D01*
X156551Y215829D01*
X156683Y215510D01*
X156750Y215172D01*
X156750Y214828D01*
X156750Y199828D02*
X156683Y199490D01*
X156551Y199171D01*
X156359Y198884D01*
X156116Y198641D01*
X155829Y198449D01*
X155510Y198317D01*
X155172Y198250D01*
X154828Y198250D01*
X154490Y198317D01*
X154171Y198449D01*
X153884Y198641D01*
X153641Y198884D01*
X153449Y199171D01*
X153317Y199490D01*
X153250Y199828D01*
X153250Y200172D01*
X153317Y200510D01*
X153449Y200829D01*
X153641Y201116D01*
X153884Y201359D01*
X154171Y201551D01*
X154490Y201683D01*
X154828Y201750D01*
X155172Y201750D01*
X155510Y201683D01*
X155829Y201551D01*
X156116Y201359D01*
X156359Y201116D01*
X156551Y200829D01*
X156683Y200510D01*
X156750Y200172D01*
X156750Y199828D01*
X156750Y184828D02*
X156683Y184490D01*
X156551Y184171D01*
X156359Y183884D01*
X156116Y183641D01*
X155829Y183449D01*
X155510Y183317D01*
X155172Y183250D01*
X154828Y183250D01*
X154490Y183317D01*
X154171Y183449D01*
X153884Y183641D01*
X153641Y183884D01*
X153449Y184171D01*
X153317Y184490D01*
X153250Y184828D01*
X153250Y185172D01*
X153317Y185510D01*
X153449Y185829D01*
X153641Y186116D01*
X153884Y186359D01*
X154171Y186551D01*
X154490Y186683D01*
X154828Y186750D01*
X155172Y186750D01*
X155510Y186683D01*
X155829Y186551D01*
X156116Y186359D01*
X156359Y186116D01*
X156551Y185829D01*
X156683Y185510D01*
X156750Y185172D01*
X156750Y184828D01*
X156750Y154828D02*
X156683Y154490D01*
X156551Y154171D01*
X156359Y153884D01*
X156116Y153641D01*
X155829Y153449D01*
X155510Y153317D01*
X155172Y153250D01*
X154828Y153250D01*
X154490Y153317D01*
X154171Y153449D01*
X153884Y153641D01*
X153641Y153884D01*
X153449Y154171D01*
X153317Y154490D01*
X153250Y154828D01*
X153250Y155172D01*
X153317Y155510D01*
X153449Y155829D01*
X153641Y156116D01*
X153884Y156359D01*
X154171Y156551D01*
X154490Y156683D01*
X154828Y156750D01*
X155172Y156750D01*
X155510Y156683D01*
X155829Y156551D01*
X156116Y156359D01*
X156359Y156116D01*
X156551Y155829D01*
X156683Y155510D01*
X156750Y155172D01*
X156750Y154828D01*
X156750Y169828D02*
X156683Y169490D01*
X156551Y169171D01*
X156359Y168884D01*
X156116Y168641D01*
X155829Y168449D01*
X155510Y168317D01*
X155172Y168250D01*
X154828Y168250D01*
X154490Y168317D01*
X154171Y168449D01*
X153884Y168641D01*
X153641Y168884D01*
X153449Y169171D01*
X153317Y169490D01*
X153250Y169828D01*
X153250Y170172D01*
X153317Y170510D01*
X153449Y170829D01*
X153641Y171116D01*
X153884Y171359D01*
X154171Y171551D01*
X154490Y171683D01*
X154828Y171750D01*
X155172Y171750D01*
X155510Y171683D01*
X155829Y171551D01*
X156116Y171359D01*
X156359Y171116D01*
X156551Y170829D01*
X156683Y170510D01*
X156750Y170172D01*
X156750Y169828D01*
X156750Y124828D02*
X156683Y124490D01*
X156551Y124171D01*
X156359Y123884D01*
X156116Y123641D01*
X155829Y123449D01*
X155510Y123317D01*
X155172Y123250D01*
X154828Y123250D01*
X154490Y123317D01*
X154171Y123449D01*
X153884Y123641D01*
X153641Y123884D01*
X153449Y124171D01*
X153317Y124490D01*
X153250Y124828D01*
X153250Y125172D01*
X153317Y125510D01*
X153449Y125829D01*
X153641Y126116D01*
X153884Y126359D01*
X154171Y126551D01*
X154490Y126683D01*
X154828Y126750D01*
X155172Y126750D01*
X155510Y126683D01*
X155829Y126551D01*
X156116Y126359D01*
X156359Y126116D01*
X156551Y125829D01*
X156683Y125510D01*
X156750Y125172D01*
X156750Y124828D01*
X156750Y139828D02*
X156683Y139490D01*
X156551Y139171D01*
X156359Y138884D01*
X156116Y138641D01*
X155829Y138449D01*
X155510Y138317D01*
X155172Y138250D01*
X154828Y138250D01*
X154490Y138317D01*
X154171Y138449D01*
X153884Y138641D01*
X153641Y138884D01*
X153449Y139171D01*
X153317Y139490D01*
X153250Y139828D01*
X153250Y140172D01*
X153317Y140510D01*
X153449Y140829D01*
X153641Y141116D01*
X153884Y141359D01*
X154171Y141551D01*
X154490Y141683D01*
X154828Y141750D01*
X155172Y141750D01*
X155510Y141683D01*
X155829Y141551D01*
X156116Y141359D01*
X156359Y141116D01*
X156551Y140829D01*
X156683Y140510D01*
X156750Y140172D01*
X156750Y139828D01*
X82500Y169509D02*
X82423Y168530D01*
X82269Y167560D01*
X82040Y166604D01*
X81736Y165670D01*
X81361Y164763D01*
X80915Y163888D01*
X80401Y163050D01*
X79824Y162255D01*
X79186Y161508D01*
X78492Y160814D01*
X77745Y160176D01*
X76950Y159599D01*
X76112Y159085D01*
X75237Y158639D01*
X74330Y158264D01*
X73396Y157960D01*
X72441Y157731D01*
X71470Y157577D01*
X70491Y157500D01*
X69509Y157500D01*
X68530Y157577D01*
X67560Y157731D01*
X66604Y157960D01*
X65670Y158264D01*
X64763Y158639D01*
X63888Y159085D01*
X63050Y159599D01*
X62255Y160176D01*
X61508Y160814D01*
X60814Y161508D01*
X60176Y162255D01*
X59599Y163050D01*
X59085Y163888D01*
X58639Y164763D01*
X58264Y165670D01*
X57960Y166604D01*
X57731Y167560D01*
X57577Y168530D01*
X57500Y169509D01*
X57500Y170491D01*
X57577Y171470D01*
X57731Y172441D01*
X57960Y173396D01*
X58264Y174330D01*
X58639Y175237D01*
X59085Y176112D01*
X59599Y176950D01*
X60176Y177745D01*
X60814Y178492D01*
X61508Y179186D01*
X62255Y179824D01*
X63050Y180401D01*
X63888Y180915D01*
X64763Y181361D01*
X65670Y181736D01*
X66604Y182040D01*
X67560Y182269D01*
X68530Y182423D01*
X69509Y182500D01*
X70491Y182500D01*
X71470Y182423D01*
X72441Y182269D01*
X73396Y182040D01*
X74330Y181736D01*
X75237Y181361D01*
X76112Y180915D01*
X76950Y180401D01*
X77745Y179824D01*
X78492Y179186D01*
X79186Y178492D01*
X79824Y177745D01*
X80401Y176950D01*
X80915Y176112D01*
X81361Y175237D01*
X81736Y174330D01*
X82040Y173396D01*
X82269Y172441D01*
X82423Y171470D01*
X82500Y170491D01*
X82500Y169509D01*
X206750Y209828D02*
X206683Y209490D01*
X206551Y209171D01*
X206359Y208884D01*
X206116Y208641D01*
X205829Y208449D01*
X205510Y208317D01*
X205172Y208250D01*
X204828Y208250D01*
X204490Y208317D01*
X204171Y208449D01*
X203884Y208641D01*
X203641Y208884D01*
X203449Y209171D01*
X203317Y209490D01*
X203250Y209828D01*
X203250Y210172D01*
X203317Y210510D01*
X203449Y210829D01*
X203641Y211116D01*
X203884Y211359D01*
X204171Y211551D01*
X204490Y211683D01*
X204828Y211750D01*
X205172Y211750D01*
X205510Y211683D01*
X205829Y211551D01*
X206116Y211359D01*
X206359Y211116D01*
X206551Y210829D01*
X206683Y210510D01*
X206750Y210172D01*
X206750Y209828D01*
X206750Y184828D02*
X206683Y184490D01*
X206551Y184171D01*
X206359Y183884D01*
X206116Y183641D01*
X205829Y183449D01*
X205510Y183317D01*
X205172Y183250D01*
X204828Y183250D01*
X204490Y183317D01*
X204171Y183449D01*
X203884Y183641D01*
X203641Y183884D01*
X203449Y184171D01*
X203317Y184490D01*
X203250Y184828D01*
X203250Y185172D01*
X203317Y185510D01*
X203449Y185829D01*
X203641Y186116D01*
X203884Y186359D01*
X204171Y186551D01*
X204490Y186683D01*
X204828Y186750D01*
X205172Y186750D01*
X205510Y186683D01*
X205829Y186551D01*
X206116Y186359D01*
X206359Y186116D01*
X206551Y185829D01*
X206683Y185510D01*
X206750Y185172D01*
X206750Y184828D01*
X206750Y154828D02*
X206683Y154490D01*
X206551Y154171D01*
X206359Y153884D01*
X206116Y153641D01*
X205829Y153449D01*
X205510Y153317D01*
X205172Y153250D01*
X204828Y153250D01*
X204490Y153317D01*
X204171Y153449D01*
X203884Y153641D01*
X203641Y153884D01*
X203449Y154171D01*
X203317Y154490D01*
X203250Y154828D01*
X203250Y155172D01*
X203317Y155510D01*
X203449Y155829D01*
X203641Y156116D01*
X203884Y156359D01*
X204171Y156551D01*
X204490Y156683D01*
X204828Y156750D01*
X205172Y156750D01*
X205510Y156683D01*
X205829Y156551D01*
X206116Y156359D01*
X206359Y156116D01*
X206551Y155829D01*
X206683Y155510D01*
X206750Y155172D01*
X206750Y154828D01*
X206750Y169828D02*
X206683Y169490D01*
X206551Y169171D01*
X206359Y168884D01*
X206116Y168641D01*
X205829Y168449D01*
X205510Y168317D01*
X205172Y168250D01*
X204828Y168250D01*
X204490Y168317D01*
X204171Y168449D01*
X203884Y168641D01*
X203641Y168884D01*
X203449Y169171D01*
X203317Y169490D01*
X203250Y169828D01*
X203250Y170172D01*
X203317Y170510D01*
X203449Y170829D01*
X203641Y171116D01*
X203884Y171359D01*
X204171Y171551D01*
X204490Y171683D01*
X204828Y171750D01*
X205172Y171750D01*
X205510Y171683D01*
X205829Y171551D01*
X206116Y171359D01*
X206359Y171116D01*
X206551Y170829D01*
X206683Y170510D01*
X206750Y170172D01*
X206750Y169828D01*
X206750Y124828D02*
X206683Y124490D01*
X206551Y124171D01*
X206359Y123884D01*
X206116Y123641D01*
X205829Y123449D01*
X205510Y123317D01*
X205172Y123250D01*
X204828Y123250D01*
X204490Y123317D01*
X204171Y123449D01*
X203884Y123641D01*
X203641Y123884D01*
X203449Y124171D01*
X203317Y124490D01*
X203250Y124828D01*
X203250Y125172D01*
X203317Y125510D01*
X203449Y125829D01*
X203641Y126116D01*
X203884Y126359D01*
X204171Y126551D01*
X204490Y126683D01*
X204828Y126750D01*
X205172Y126750D01*
X205510Y126683D01*
X205829Y126551D01*
X206116Y126359D01*
X206359Y126116D01*
X206551Y125829D01*
X206683Y125510D01*
X206750Y125172D01*
X206750Y124828D01*
X206750Y139828D02*
X206683Y139490D01*
X206551Y139171D01*
X206359Y138884D01*
X206116Y138641D01*
X205829Y138449D01*
X205510Y138317D01*
X205172Y138250D01*
X204828Y138250D01*
X204490Y138317D01*
X204171Y138449D01*
X203884Y138641D01*
X203641Y138884D01*
X203449Y139171D01*
X203317Y139490D01*
X203250Y139828D01*
X203250Y140172D01*
X203317Y140510D01*
X203449Y140829D01*
X203641Y141116D01*
X203884Y141359D01*
X204171Y141551D01*
X204490Y141683D01*
X204828Y141750D01*
X205172Y141750D01*
X205510Y141683D01*
X205829Y141551D01*
X206116Y141359D01*
X206359Y141116D01*
X206551Y140829D01*
X206683Y140510D01*
X206750Y140172D01*
X206750Y139828D01*
X302500Y169509D02*
X302423Y168530D01*
X302269Y167560D01*
X302040Y166604D01*
X301736Y165670D01*
X301361Y164763D01*
X300915Y163888D01*
X300401Y163050D01*
X299824Y162255D01*
X299186Y161508D01*
X298492Y160814D01*
X297745Y160176D01*
X296950Y159599D01*
X296112Y159085D01*
X295237Y158639D01*
X294330Y158264D01*
X293396Y157960D01*
X292441Y157731D01*
X291470Y157577D01*
X290491Y157500D01*
X289509Y157500D01*
X288530Y157577D01*
X287560Y157731D01*
X286604Y157960D01*
X285670Y158264D01*
X284763Y158639D01*
X283888Y159085D01*
X283050Y159599D01*
X282255Y160176D01*
X281508Y160814D01*
X280814Y161508D01*
X280176Y162255D01*
X279599Y163050D01*
X279085Y163888D01*
X278639Y164763D01*
X278264Y165670D01*
X277960Y166604D01*
X277731Y167560D01*
X277577Y168530D01*
X277500Y169509D01*
X277500Y170491D01*
X277577Y171470D01*
X277731Y172441D01*
X277960Y173396D01*
X278264Y174330D01*
X278639Y175237D01*
X279085Y176112D01*
X279599Y176950D01*
X280176Y177745D01*
X280814Y178492D01*
X281508Y179186D01*
X282255Y179824D01*
X283050Y180401D01*
X283888Y180915D01*
X284763Y181361D01*
X285670Y181736D01*
X286604Y182040D01*
X287560Y182269D01*
X288530Y182423D01*
X289509Y182500D01*
X290491Y182500D01*
X291470Y182423D01*
X292441Y182269D01*
X293396Y182040D01*
X294330Y181736D01*
X295237Y181361D01*
X296112Y180915D01*
X296950Y180401D01*
X297745Y179824D01*
X298492Y179186D01*
X299186Y178492D01*
X299824Y177745D01*
X300401Y176950D01*
X300915Y176112D01*
X301361Y175237D01*
X301736Y174330D01*
X302040Y173396D01*
X302269Y172441D01*
X302423Y171470D01*
X302500Y170491D01*
X302500Y169509D01*
X36000Y24568D02*
X35932Y23706D01*
X35797Y22852D01*
X35595Y22012D01*
X35328Y21190D01*
X34997Y20391D01*
X34605Y19621D01*
X34153Y18884D01*
X33645Y18185D01*
X33084Y17527D01*
X32473Y16916D01*
X31815Y16355D01*
X31116Y15847D01*
X30379Y15395D01*
X29609Y15003D01*
X28810Y14672D01*
X27988Y14405D01*
X27148Y14203D01*
X26294Y14068D01*
X25432Y14000D01*
X24568Y14000D01*
X23706Y14068D01*
X22852Y14203D01*
X22012Y14405D01*
X21190Y14672D01*
X20391Y15003D01*
X19621Y15395D01*
X18884Y15847D01*
X18185Y16355D01*
X17527Y16916D01*
X16916Y17527D01*
X16355Y18185D01*
X15847Y18884D01*
X15395Y19621D01*
X15003Y20391D01*
X14672Y21190D01*
X14405Y22012D01*
X14203Y22852D01*
X14068Y23706D01*
X14000Y24568D01*
X14000Y25432D01*
X14068Y26294D01*
X14203Y27148D01*
X14405Y27988D01*
X14672Y28810D01*
X15003Y29609D01*
X15395Y30379D01*
X15847Y31116D01*
X16355Y31815D01*
X16916Y32473D01*
X17527Y33084D01*
X18185Y33645D01*
X18884Y34153D01*
X19621Y34605D01*
X20391Y34997D01*
X21190Y35328D01*
X22012Y35595D01*
X22852Y35797D01*
X23706Y35932D01*
X24568Y36000D01*
X25432Y36000D01*
X26294Y35932D01*
X27148Y35797D01*
X27988Y35595D01*
X28810Y35328D01*
X29609Y34997D01*
X30379Y34605D01*
X31116Y34153D01*
X31815Y33645D01*
X32473Y33084D01*
X33084Y32473D01*
X33645Y31815D01*
X34153Y31116D01*
X34605Y30379D01*
X34997Y29609D01*
X35328Y28810D01*
X35595Y27988D01*
X35797Y27148D01*
X35932Y26294D01*
X36000Y25432D01*
X36000Y24568D01*
X346000Y24568D02*
X345932Y23706D01*
X345797Y22852D01*
X345595Y22012D01*
X345328Y21190D01*
X344997Y20391D01*
X344605Y19621D01*
X344153Y18884D01*
X343645Y18185D01*
X343084Y17527D01*
X342473Y16916D01*
X341815Y16355D01*
X341116Y15847D01*
X340379Y15395D01*
X339609Y15003D01*
X338810Y14672D01*
X337988Y14405D01*
X337148Y14203D01*
X336294Y14068D01*
X335432Y14000D01*
X334568Y14000D01*
X333706Y14068D01*
X332852Y14203D01*
X332012Y14405D01*
X331190Y14672D01*
X330391Y15003D01*
X329621Y15395D01*
X328884Y15847D01*
X328185Y16355D01*
X327527Y16916D01*
X326916Y17527D01*
X326355Y18185D01*
X325847Y18884D01*
X325395Y19621D01*
X325003Y20391D01*
X324672Y21190D01*
X324405Y22012D01*
X324203Y22852D01*
X324068Y23706D01*
X324000Y24568D01*
X324000Y25432D01*
X324068Y26294D01*
X324203Y27148D01*
X324405Y27988D01*
X324672Y28810D01*
X325003Y29609D01*
X325395Y30379D01*
X325847Y31116D01*
X326355Y31815D01*
X326916Y32473D01*
X327527Y33084D01*
X328185Y33645D01*
X328884Y34153D01*
X329621Y34605D01*
X330391Y34997D01*
X331190Y35328D01*
X332012Y35595D01*
X332852Y35797D01*
X333706Y35932D01*
X334568Y36000D01*
X335432Y36000D01*
X336294Y35932D01*
X337148Y35797D01*
X337988Y35595D01*
X338810Y35328D01*
X339609Y34997D01*
X340379Y34605D01*
X341116Y34153D01*
X341815Y33645D01*
X342473Y33084D01*
X343084Y32473D01*
X343645Y31815D01*
X344153Y31116D01*
X344605Y30379D01*
X344997Y29609D01*
X345328Y28810D01*
X345595Y27988D01*
X345797Y27148D01*
X345932Y26294D01*
X346000Y25432D01*
X346000Y24568D01*
X346000Y239568D02*
X345932Y238706D01*
X345797Y237852D01*
X345595Y237012D01*
X345328Y236190D01*
X344997Y235391D01*
X344605Y234621D01*
X344153Y233884D01*
X343645Y233185D01*
X343084Y232527D01*
X342473Y231916D01*
X341815Y231355D01*
X341116Y230847D01*
X340379Y230395D01*
X339609Y230003D01*
X338810Y229672D01*
X337988Y229405D01*
X337148Y229203D01*
X336294Y229068D01*
X335432Y229000D01*
X334568Y229000D01*
X333706Y229068D01*
X332852Y229203D01*
X332012Y229405D01*
X331190Y229672D01*
X330391Y230003D01*
X329621Y230395D01*
X328884Y230847D01*
X328185Y231355D01*
X327527Y231916D01*
X326916Y232527D01*
X326355Y233185D01*
X325847Y233884D01*
X325395Y234621D01*
X325003Y235391D01*
X324672Y236190D01*
X324405Y237012D01*
X324203Y237852D01*
X324068Y238706D01*
X324000Y239568D01*
X324000Y240432D01*
X324068Y241294D01*
X324203Y242148D01*
X324405Y242988D01*
X324672Y243810D01*
X325003Y244609D01*
X325395Y245379D01*
X325847Y246116D01*
X326355Y246815D01*
X326916Y247473D01*
X327527Y248084D01*
X328185Y248645D01*
X328884Y249153D01*
X329621Y249605D01*
X330391Y249997D01*
X331190Y250328D01*
X332012Y250595D01*
X332852Y250797D01*
X333706Y250932D01*
X334568Y251000D01*
X335432Y251000D01*
X336294Y250932D01*
X337148Y250797D01*
X337988Y250595D01*
X338810Y250328D01*
X339609Y249997D01*
X340379Y249605D01*
X341116Y249153D01*
X341815Y248645D01*
X342473Y248084D01*
X343084Y247473D01*
X343645Y246815D01*
X344153Y246116D01*
X344605Y245379D01*
X344997Y244609D01*
X345328Y243810D01*
X345595Y242988D01*
X345797Y242148D01*
X345932Y241294D01*
X346000Y240432D01*
X346000Y239568D01*
X36000Y239568D02*
X35932Y238706D01*
X35797Y237852D01*
X35595Y237012D01*
X35328Y236190D01*
X34997Y235391D01*
X34605Y234621D01*
X34153Y233884D01*
X33645Y233185D01*
X33084Y232527D01*
X32473Y231916D01*
X31815Y231355D01*
X31116Y230847D01*
X30379Y230395D01*
X29609Y230003D01*
X28810Y229672D01*
X27988Y229405D01*
X27148Y229203D01*
X26294Y229068D01*
X25432Y229000D01*
X24568Y229000D01*
X23706Y229068D01*
X22852Y229203D01*
X22012Y229405D01*
X21190Y229672D01*
X20391Y230003D01*
X19621Y230395D01*
X18884Y230847D01*
X18185Y231355D01*
X17527Y231916D01*
X16916Y232527D01*
X16355Y233185D01*
X15847Y233884D01*
X15395Y234621D01*
X15003Y235391D01*
X14672Y236190D01*
X14405Y237012D01*
X14203Y237852D01*
X14068Y238706D01*
X14000Y239568D01*
X14000Y240432D01*
X14068Y241294D01*
X14203Y242148D01*
X14405Y242988D01*
X14672Y243810D01*
X15003Y244609D01*
X15395Y245379D01*
X15847Y246116D01*
X16355Y246815D01*
X16916Y247473D01*
X17527Y248084D01*
X18185Y248645D01*
X18884Y249153D01*
X19621Y249605D01*
X20391Y249997D01*
X21190Y250328D01*
X22012Y250595D01*
X22852Y250797D01*
X23706Y250932D01*
X24568Y251000D01*
X25432Y251000D01*
X26294Y250932D01*
X27148Y250797D01*
X27988Y250595D01*
X28810Y250328D01*
X29609Y249997D01*
X30379Y249605D01*
X31116Y249153D01*
X31815Y248645D01*
X32473Y248084D01*
X33084Y247473D01*
X33645Y246815D01*
X34153Y246116D01*
X34605Y245379D01*
X34997Y244609D01*
X35328Y243810D01*
X35595Y242988D01*
X35797Y242148D01*
X35932Y241294D01*
X36000Y240432D01*
X36000Y239568D01*
M02*
