G04 EAGLE Gerber RS-274X export*
G75*
%MOMM*%
%FSLAX34Y34*%
%LPD*%
%INSilkscreen Bottom*%
%IPPOS*%
%AMOC8*
5,1,8,0,0,1.08239X$1,22.5*%
G01*
%ADD10C,0.076200*%


D10*
X248894Y245381D02*
X248894Y254619D01*
X246328Y254619D01*
X246229Y254617D01*
X246129Y254611D01*
X246030Y254602D01*
X245932Y254588D01*
X245834Y254571D01*
X245736Y254550D01*
X245640Y254525D01*
X245545Y254496D01*
X245450Y254464D01*
X245358Y254428D01*
X245266Y254389D01*
X245176Y254346D01*
X245088Y254300D01*
X245002Y254250D01*
X244918Y254197D01*
X244836Y254141D01*
X244756Y254081D01*
X244679Y254019D01*
X244604Y253953D01*
X244531Y253885D01*
X244462Y253814D01*
X244395Y253740D01*
X244331Y253664D01*
X244270Y253585D01*
X244212Y253504D01*
X244157Y253421D01*
X244106Y253336D01*
X244058Y253249D01*
X244013Y253160D01*
X243972Y253069D01*
X243934Y252977D01*
X243900Y252884D01*
X243870Y252789D01*
X243843Y252693D01*
X243820Y252596D01*
X243801Y252499D01*
X243786Y252400D01*
X243774Y252301D01*
X243766Y252202D01*
X243762Y252103D01*
X243762Y252003D01*
X243766Y251904D01*
X243774Y251805D01*
X243786Y251706D01*
X243801Y251607D01*
X243820Y251510D01*
X243843Y251413D01*
X243870Y251317D01*
X243900Y251222D01*
X243934Y251129D01*
X243972Y251037D01*
X244013Y250946D01*
X244058Y250857D01*
X244106Y250770D01*
X244157Y250685D01*
X244212Y250602D01*
X244270Y250521D01*
X244331Y250442D01*
X244395Y250366D01*
X244462Y250292D01*
X244531Y250221D01*
X244604Y250153D01*
X244679Y250087D01*
X244756Y250025D01*
X244836Y249965D01*
X244918Y249909D01*
X245002Y249856D01*
X245088Y249806D01*
X245176Y249760D01*
X245266Y249717D01*
X245358Y249678D01*
X245450Y249642D01*
X245545Y249610D01*
X245640Y249581D01*
X245736Y249556D01*
X245834Y249535D01*
X245932Y249518D01*
X246030Y249504D01*
X246129Y249495D01*
X246229Y249489D01*
X246328Y249487D01*
X248894Y249487D01*
X238297Y245381D02*
X236244Y245381D01*
X238297Y245381D02*
X238387Y245383D01*
X238476Y245389D01*
X238565Y245399D01*
X238653Y245412D01*
X238741Y245430D01*
X238828Y245451D01*
X238914Y245476D01*
X238999Y245505D01*
X239083Y245537D01*
X239165Y245573D01*
X239245Y245613D01*
X239324Y245656D01*
X239400Y245703D01*
X239475Y245752D01*
X239547Y245805D01*
X239617Y245861D01*
X239684Y245920D01*
X239749Y245982D01*
X239811Y246047D01*
X239870Y246114D01*
X239926Y246184D01*
X239979Y246256D01*
X240028Y246331D01*
X240075Y246408D01*
X240118Y246486D01*
X240158Y246566D01*
X240194Y246648D01*
X240226Y246732D01*
X240255Y246817D01*
X240280Y246903D01*
X240301Y246990D01*
X240319Y247078D01*
X240332Y247166D01*
X240342Y247255D01*
X240348Y247344D01*
X240350Y247434D01*
X240350Y252566D01*
X240348Y252656D01*
X240342Y252745D01*
X240332Y252834D01*
X240319Y252922D01*
X240301Y253010D01*
X240280Y253097D01*
X240255Y253183D01*
X240226Y253268D01*
X240194Y253352D01*
X240158Y253434D01*
X240118Y253514D01*
X240075Y253593D01*
X240028Y253669D01*
X239979Y253744D01*
X239926Y253816D01*
X239870Y253886D01*
X239811Y253953D01*
X239749Y254018D01*
X239684Y254080D01*
X239617Y254139D01*
X239547Y254195D01*
X239475Y254248D01*
X239400Y254297D01*
X239324Y254344D01*
X239245Y254387D01*
X239165Y254427D01*
X239083Y254463D01*
X238999Y254495D01*
X238914Y254524D01*
X238828Y254549D01*
X238741Y254570D01*
X238653Y254588D01*
X238565Y254601D01*
X238476Y254611D01*
X238387Y254617D01*
X238297Y254619D01*
X236244Y254619D01*
X232394Y250513D02*
X229828Y250513D01*
X229729Y250511D01*
X229629Y250505D01*
X229530Y250496D01*
X229432Y250482D01*
X229334Y250465D01*
X229236Y250444D01*
X229140Y250419D01*
X229045Y250390D01*
X228950Y250358D01*
X228858Y250322D01*
X228766Y250283D01*
X228676Y250240D01*
X228588Y250194D01*
X228502Y250144D01*
X228418Y250091D01*
X228336Y250035D01*
X228256Y249975D01*
X228179Y249913D01*
X228104Y249847D01*
X228031Y249779D01*
X227962Y249708D01*
X227895Y249634D01*
X227831Y249558D01*
X227770Y249479D01*
X227712Y249398D01*
X227657Y249315D01*
X227606Y249230D01*
X227558Y249143D01*
X227513Y249054D01*
X227472Y248963D01*
X227434Y248871D01*
X227400Y248778D01*
X227370Y248683D01*
X227343Y248587D01*
X227320Y248490D01*
X227301Y248393D01*
X227286Y248294D01*
X227274Y248195D01*
X227266Y248096D01*
X227262Y247997D01*
X227262Y247897D01*
X227266Y247798D01*
X227274Y247699D01*
X227286Y247600D01*
X227301Y247501D01*
X227320Y247404D01*
X227343Y247307D01*
X227370Y247211D01*
X227400Y247116D01*
X227434Y247023D01*
X227472Y246931D01*
X227513Y246840D01*
X227558Y246751D01*
X227606Y246664D01*
X227657Y246579D01*
X227712Y246496D01*
X227770Y246415D01*
X227831Y246336D01*
X227895Y246260D01*
X227962Y246186D01*
X228031Y246115D01*
X228104Y246047D01*
X228179Y245981D01*
X228256Y245919D01*
X228336Y245859D01*
X228418Y245803D01*
X228502Y245750D01*
X228588Y245700D01*
X228676Y245654D01*
X228766Y245611D01*
X228858Y245572D01*
X228950Y245536D01*
X229045Y245504D01*
X229140Y245475D01*
X229236Y245450D01*
X229334Y245429D01*
X229432Y245412D01*
X229530Y245398D01*
X229629Y245389D01*
X229729Y245383D01*
X229828Y245381D01*
X232394Y245381D01*
X232394Y254619D01*
X229828Y254619D01*
X229738Y254617D01*
X229649Y254611D01*
X229560Y254601D01*
X229472Y254588D01*
X229384Y254570D01*
X229297Y254549D01*
X229211Y254524D01*
X229126Y254495D01*
X229042Y254463D01*
X228960Y254427D01*
X228880Y254387D01*
X228802Y254344D01*
X228725Y254297D01*
X228650Y254248D01*
X228578Y254195D01*
X228508Y254139D01*
X228441Y254080D01*
X228376Y254018D01*
X228314Y253953D01*
X228255Y253886D01*
X228199Y253816D01*
X228146Y253744D01*
X228097Y253669D01*
X228050Y253593D01*
X228007Y253514D01*
X227967Y253434D01*
X227931Y253352D01*
X227899Y253268D01*
X227870Y253183D01*
X227845Y253097D01*
X227824Y253010D01*
X227806Y252922D01*
X227793Y252834D01*
X227783Y252745D01*
X227777Y252656D01*
X227775Y252566D01*
X227777Y252476D01*
X227783Y252387D01*
X227793Y252298D01*
X227806Y252210D01*
X227824Y252122D01*
X227845Y252035D01*
X227870Y251949D01*
X227899Y251864D01*
X227931Y251780D01*
X227967Y251698D01*
X228007Y251618D01*
X228050Y251540D01*
X228097Y251463D01*
X228146Y251388D01*
X228199Y251316D01*
X228255Y251246D01*
X228314Y251179D01*
X228376Y251114D01*
X228441Y251052D01*
X228508Y250993D01*
X228578Y250937D01*
X228650Y250884D01*
X228725Y250835D01*
X228802Y250788D01*
X228880Y250745D01*
X228960Y250705D01*
X229042Y250669D01*
X229126Y250637D01*
X229211Y250608D01*
X229297Y250583D01*
X229384Y250562D01*
X229472Y250544D01*
X229560Y250531D01*
X229649Y250521D01*
X229738Y250515D01*
X229828Y250513D01*
X218766Y254619D02*
X218766Y245381D01*
X216200Y245381D01*
X216124Y245383D01*
X216049Y245388D01*
X215974Y245398D01*
X215900Y245411D01*
X215826Y245427D01*
X215753Y245447D01*
X215681Y245471D01*
X215611Y245498D01*
X215542Y245529D01*
X215474Y245563D01*
X215408Y245600D01*
X215344Y245641D01*
X215283Y245684D01*
X215223Y245731D01*
X215166Y245780D01*
X215111Y245832D01*
X215059Y245887D01*
X215010Y245944D01*
X214963Y246004D01*
X214920Y246065D01*
X214879Y246129D01*
X214842Y246195D01*
X214808Y246263D01*
X214777Y246332D01*
X214750Y246402D01*
X214726Y246474D01*
X214706Y246547D01*
X214690Y246621D01*
X214677Y246695D01*
X214667Y246770D01*
X214662Y246845D01*
X214660Y246921D01*
X214660Y250000D01*
X214662Y250076D01*
X214667Y250151D01*
X214677Y250226D01*
X214690Y250300D01*
X214706Y250374D01*
X214726Y250447D01*
X214750Y250519D01*
X214777Y250589D01*
X214808Y250658D01*
X214842Y250726D01*
X214879Y250792D01*
X214920Y250856D01*
X214963Y250917D01*
X215010Y250977D01*
X215059Y251034D01*
X215111Y251089D01*
X215166Y251141D01*
X215223Y251190D01*
X215283Y251237D01*
X215344Y251280D01*
X215408Y251321D01*
X215474Y251358D01*
X215542Y251392D01*
X215611Y251423D01*
X215681Y251450D01*
X215753Y251474D01*
X215826Y251494D01*
X215900Y251510D01*
X215974Y251523D01*
X216049Y251533D01*
X216124Y251538D01*
X216200Y251540D01*
X218766Y251540D01*
X211311Y242302D02*
X210285Y242302D01*
X207206Y251540D01*
X211311Y251540D02*
X209258Y245381D01*
X198568Y245381D02*
X198568Y254619D01*
X196002Y254619D01*
X195903Y254617D01*
X195803Y254611D01*
X195704Y254602D01*
X195606Y254588D01*
X195508Y254571D01*
X195410Y254550D01*
X195314Y254525D01*
X195219Y254496D01*
X195124Y254464D01*
X195032Y254428D01*
X194940Y254389D01*
X194850Y254346D01*
X194762Y254300D01*
X194676Y254250D01*
X194592Y254197D01*
X194510Y254141D01*
X194430Y254081D01*
X194353Y254019D01*
X194278Y253953D01*
X194205Y253885D01*
X194136Y253814D01*
X194069Y253740D01*
X194005Y253664D01*
X193944Y253585D01*
X193886Y253504D01*
X193831Y253421D01*
X193780Y253336D01*
X193732Y253249D01*
X193687Y253160D01*
X193646Y253069D01*
X193608Y252977D01*
X193574Y252884D01*
X193544Y252789D01*
X193517Y252693D01*
X193494Y252596D01*
X193475Y252499D01*
X193460Y252400D01*
X193448Y252301D01*
X193440Y252202D01*
X193436Y252103D01*
X193436Y252003D01*
X193440Y251904D01*
X193448Y251805D01*
X193460Y251706D01*
X193475Y251607D01*
X193494Y251510D01*
X193517Y251413D01*
X193544Y251317D01*
X193574Y251222D01*
X193608Y251129D01*
X193646Y251037D01*
X193687Y250946D01*
X193732Y250857D01*
X193780Y250770D01*
X193831Y250685D01*
X193886Y250602D01*
X193944Y250521D01*
X194005Y250442D01*
X194069Y250366D01*
X194136Y250292D01*
X194205Y250221D01*
X194278Y250153D01*
X194353Y250087D01*
X194430Y250025D01*
X194510Y249965D01*
X194592Y249909D01*
X194676Y249856D01*
X194762Y249806D01*
X194850Y249760D01*
X194940Y249717D01*
X195032Y249678D01*
X195124Y249642D01*
X195219Y249610D01*
X195314Y249581D01*
X195410Y249556D01*
X195508Y249535D01*
X195606Y249518D01*
X195704Y249504D01*
X195803Y249495D01*
X195903Y249489D01*
X196002Y249487D01*
X198568Y249487D01*
X195489Y249487D02*
X193436Y245381D01*
X189711Y247434D02*
X189711Y249487D01*
X189709Y249577D01*
X189703Y249666D01*
X189693Y249755D01*
X189680Y249843D01*
X189662Y249931D01*
X189641Y250018D01*
X189616Y250104D01*
X189587Y250189D01*
X189555Y250273D01*
X189519Y250355D01*
X189479Y250435D01*
X189436Y250514D01*
X189389Y250590D01*
X189340Y250665D01*
X189287Y250737D01*
X189231Y250807D01*
X189172Y250874D01*
X189110Y250939D01*
X189045Y251001D01*
X188978Y251060D01*
X188908Y251116D01*
X188836Y251169D01*
X188761Y251218D01*
X188685Y251265D01*
X188606Y251308D01*
X188526Y251348D01*
X188444Y251384D01*
X188360Y251416D01*
X188275Y251445D01*
X188189Y251470D01*
X188102Y251491D01*
X188014Y251509D01*
X187926Y251522D01*
X187837Y251532D01*
X187748Y251538D01*
X187658Y251540D01*
X187568Y251538D01*
X187479Y251532D01*
X187390Y251522D01*
X187302Y251509D01*
X187214Y251491D01*
X187127Y251470D01*
X187041Y251445D01*
X186956Y251416D01*
X186872Y251384D01*
X186790Y251348D01*
X186710Y251308D01*
X186632Y251265D01*
X186555Y251218D01*
X186480Y251169D01*
X186408Y251116D01*
X186338Y251060D01*
X186271Y251001D01*
X186206Y250939D01*
X186144Y250874D01*
X186085Y250807D01*
X186029Y250737D01*
X185976Y250665D01*
X185927Y250590D01*
X185880Y250514D01*
X185837Y250435D01*
X185797Y250355D01*
X185761Y250273D01*
X185729Y250189D01*
X185700Y250104D01*
X185675Y250018D01*
X185654Y249931D01*
X185636Y249843D01*
X185623Y249755D01*
X185613Y249666D01*
X185607Y249577D01*
X185605Y249487D01*
X185606Y249487D02*
X185606Y247434D01*
X185605Y247434D02*
X185607Y247344D01*
X185613Y247255D01*
X185623Y247166D01*
X185636Y247078D01*
X185654Y246990D01*
X185675Y246903D01*
X185700Y246817D01*
X185729Y246732D01*
X185761Y246648D01*
X185797Y246566D01*
X185837Y246486D01*
X185880Y246408D01*
X185927Y246331D01*
X185976Y246256D01*
X186029Y246184D01*
X186085Y246114D01*
X186144Y246047D01*
X186206Y245982D01*
X186271Y245920D01*
X186338Y245861D01*
X186408Y245805D01*
X186480Y245752D01*
X186555Y245703D01*
X186632Y245656D01*
X186710Y245613D01*
X186790Y245573D01*
X186872Y245537D01*
X186956Y245505D01*
X187041Y245476D01*
X187127Y245451D01*
X187214Y245430D01*
X187302Y245412D01*
X187390Y245399D01*
X187479Y245389D01*
X187568Y245383D01*
X187658Y245381D01*
X187748Y245383D01*
X187837Y245389D01*
X187926Y245399D01*
X188014Y245412D01*
X188102Y245430D01*
X188189Y245451D01*
X188275Y245476D01*
X188360Y245505D01*
X188444Y245537D01*
X188526Y245573D01*
X188606Y245613D01*
X188685Y245656D01*
X188761Y245703D01*
X188836Y245752D01*
X188908Y245805D01*
X188978Y245861D01*
X189045Y245920D01*
X189110Y245982D01*
X189172Y246047D01*
X189231Y246114D01*
X189287Y246184D01*
X189340Y246256D01*
X189389Y246331D01*
X189436Y246408D01*
X189479Y246486D01*
X189519Y246566D01*
X189555Y246648D01*
X189587Y246732D01*
X189616Y246817D01*
X189641Y246903D01*
X189662Y246990D01*
X189680Y247078D01*
X189693Y247166D01*
X189703Y247255D01*
X189709Y247344D01*
X189711Y247434D01*
X181566Y245381D02*
X181566Y254619D01*
X181566Y245381D02*
X179000Y245381D01*
X178924Y245383D01*
X178849Y245388D01*
X178774Y245398D01*
X178700Y245411D01*
X178626Y245427D01*
X178553Y245447D01*
X178481Y245471D01*
X178411Y245498D01*
X178342Y245529D01*
X178274Y245563D01*
X178208Y245600D01*
X178144Y245641D01*
X178083Y245684D01*
X178023Y245731D01*
X177966Y245780D01*
X177911Y245832D01*
X177859Y245887D01*
X177810Y245944D01*
X177763Y246004D01*
X177720Y246065D01*
X177679Y246129D01*
X177642Y246195D01*
X177608Y246263D01*
X177577Y246332D01*
X177550Y246402D01*
X177526Y246474D01*
X177506Y246547D01*
X177490Y246621D01*
X177477Y246695D01*
X177467Y246770D01*
X177462Y246845D01*
X177460Y246921D01*
X177460Y250000D01*
X177462Y250076D01*
X177467Y250151D01*
X177477Y250226D01*
X177490Y250300D01*
X177506Y250374D01*
X177526Y250447D01*
X177550Y250519D01*
X177577Y250589D01*
X177608Y250658D01*
X177642Y250726D01*
X177679Y250792D01*
X177720Y250856D01*
X177763Y250917D01*
X177810Y250977D01*
X177859Y251034D01*
X177911Y251089D01*
X177966Y251141D01*
X178023Y251190D01*
X178083Y251237D01*
X178144Y251280D01*
X178208Y251321D01*
X178274Y251358D01*
X178342Y251392D01*
X178411Y251423D01*
X178481Y251450D01*
X178553Y251474D01*
X178626Y251494D01*
X178700Y251510D01*
X178774Y251523D01*
X178849Y251533D01*
X178924Y251538D01*
X179000Y251540D01*
X181566Y251540D01*
X173859Y251540D02*
X173859Y245381D01*
X174115Y254106D02*
X174115Y254619D01*
X173602Y254619D01*
X173602Y254106D01*
X174115Y254106D01*
X169911Y251540D02*
X169911Y245381D01*
X169911Y251540D02*
X167345Y251540D01*
X167267Y251538D01*
X167189Y251532D01*
X167112Y251522D01*
X167035Y251508D01*
X166959Y251491D01*
X166884Y251469D01*
X166810Y251444D01*
X166738Y251415D01*
X166667Y251383D01*
X166598Y251346D01*
X166530Y251307D01*
X166465Y251264D01*
X166402Y251218D01*
X166342Y251168D01*
X166284Y251116D01*
X166229Y251061D01*
X166177Y251003D01*
X166127Y250943D01*
X166081Y250880D01*
X166038Y250815D01*
X165999Y250747D01*
X165962Y250678D01*
X165930Y250607D01*
X165901Y250535D01*
X165876Y250461D01*
X165854Y250386D01*
X165837Y250310D01*
X165823Y250233D01*
X165813Y250156D01*
X165807Y250078D01*
X165805Y250000D01*
X165806Y250000D02*
X165806Y245381D01*
X156494Y250513D02*
X153928Y250513D01*
X153829Y250511D01*
X153729Y250505D01*
X153630Y250496D01*
X153532Y250482D01*
X153434Y250465D01*
X153336Y250444D01*
X153240Y250419D01*
X153145Y250390D01*
X153050Y250358D01*
X152958Y250322D01*
X152866Y250283D01*
X152776Y250240D01*
X152688Y250194D01*
X152602Y250144D01*
X152518Y250091D01*
X152436Y250035D01*
X152356Y249975D01*
X152279Y249913D01*
X152204Y249847D01*
X152131Y249779D01*
X152062Y249708D01*
X151995Y249634D01*
X151931Y249558D01*
X151870Y249479D01*
X151812Y249398D01*
X151757Y249315D01*
X151706Y249230D01*
X151658Y249143D01*
X151613Y249054D01*
X151572Y248963D01*
X151534Y248871D01*
X151500Y248778D01*
X151470Y248683D01*
X151443Y248587D01*
X151420Y248490D01*
X151401Y248393D01*
X151386Y248294D01*
X151374Y248195D01*
X151366Y248096D01*
X151362Y247997D01*
X151362Y247897D01*
X151366Y247798D01*
X151374Y247699D01*
X151386Y247600D01*
X151401Y247501D01*
X151420Y247404D01*
X151443Y247307D01*
X151470Y247211D01*
X151500Y247116D01*
X151534Y247023D01*
X151572Y246931D01*
X151613Y246840D01*
X151658Y246751D01*
X151706Y246664D01*
X151757Y246579D01*
X151812Y246496D01*
X151870Y246415D01*
X151931Y246336D01*
X151995Y246260D01*
X152062Y246186D01*
X152131Y246115D01*
X152204Y246047D01*
X152279Y245981D01*
X152356Y245919D01*
X152436Y245859D01*
X152518Y245803D01*
X152602Y245750D01*
X152688Y245700D01*
X152776Y245654D01*
X152866Y245611D01*
X152958Y245572D01*
X153050Y245536D01*
X153145Y245504D01*
X153240Y245475D01*
X153336Y245450D01*
X153434Y245429D01*
X153532Y245412D01*
X153630Y245398D01*
X153729Y245389D01*
X153829Y245383D01*
X153928Y245381D01*
X156494Y245381D01*
X156494Y254619D01*
X153928Y254619D01*
X153838Y254617D01*
X153749Y254611D01*
X153660Y254601D01*
X153572Y254588D01*
X153484Y254570D01*
X153397Y254549D01*
X153311Y254524D01*
X153226Y254495D01*
X153142Y254463D01*
X153060Y254427D01*
X152980Y254387D01*
X152902Y254344D01*
X152825Y254297D01*
X152750Y254248D01*
X152678Y254195D01*
X152608Y254139D01*
X152541Y254080D01*
X152476Y254018D01*
X152414Y253953D01*
X152355Y253886D01*
X152299Y253816D01*
X152246Y253744D01*
X152197Y253669D01*
X152150Y253593D01*
X152107Y253514D01*
X152067Y253434D01*
X152031Y253352D01*
X151999Y253268D01*
X151970Y253183D01*
X151945Y253097D01*
X151924Y253010D01*
X151906Y252922D01*
X151893Y252834D01*
X151883Y252745D01*
X151877Y252656D01*
X151875Y252566D01*
X151877Y252476D01*
X151883Y252387D01*
X151893Y252298D01*
X151906Y252210D01*
X151924Y252122D01*
X151945Y252035D01*
X151970Y251949D01*
X151999Y251864D01*
X152031Y251780D01*
X152067Y251698D01*
X152107Y251618D01*
X152150Y251540D01*
X152197Y251463D01*
X152246Y251388D01*
X152299Y251316D01*
X152355Y251246D01*
X152414Y251179D01*
X152476Y251114D01*
X152541Y251052D01*
X152608Y250993D01*
X152678Y250937D01*
X152750Y250884D01*
X152825Y250835D01*
X152902Y250788D01*
X152980Y250745D01*
X153060Y250705D01*
X153142Y250669D01*
X153226Y250637D01*
X153311Y250608D01*
X153397Y250583D01*
X153484Y250562D01*
X153572Y250544D01*
X153660Y250531D01*
X153749Y250521D01*
X153838Y250515D01*
X153928Y250513D01*
X146260Y248974D02*
X143951Y248974D01*
X146260Y248973D02*
X146343Y248971D01*
X146426Y248965D01*
X146508Y248956D01*
X146590Y248942D01*
X146671Y248925D01*
X146751Y248904D01*
X146831Y248880D01*
X146909Y248852D01*
X146985Y248820D01*
X147061Y248785D01*
X147134Y248746D01*
X147205Y248704D01*
X147275Y248659D01*
X147342Y248610D01*
X147407Y248559D01*
X147470Y248504D01*
X147530Y248447D01*
X147587Y248387D01*
X147642Y248324D01*
X147693Y248259D01*
X147742Y248192D01*
X147787Y248122D01*
X147829Y248051D01*
X147868Y247978D01*
X147903Y247902D01*
X147935Y247826D01*
X147963Y247748D01*
X147987Y247668D01*
X148008Y247588D01*
X148025Y247507D01*
X148039Y247425D01*
X148048Y247343D01*
X148054Y247260D01*
X148056Y247177D01*
X148054Y247094D01*
X148048Y247011D01*
X148039Y246929D01*
X148025Y246847D01*
X148008Y246766D01*
X147987Y246686D01*
X147963Y246606D01*
X147935Y246528D01*
X147903Y246452D01*
X147868Y246376D01*
X147829Y246303D01*
X147787Y246232D01*
X147742Y246162D01*
X147693Y246095D01*
X147642Y246030D01*
X147587Y245967D01*
X147530Y245907D01*
X147470Y245850D01*
X147407Y245795D01*
X147342Y245744D01*
X147275Y245695D01*
X147205Y245650D01*
X147134Y245608D01*
X147061Y245569D01*
X146985Y245534D01*
X146909Y245502D01*
X146831Y245474D01*
X146751Y245450D01*
X146671Y245429D01*
X146590Y245412D01*
X146508Y245398D01*
X146426Y245389D01*
X146343Y245383D01*
X146260Y245381D01*
X143951Y245381D01*
X143951Y250000D01*
X143953Y250076D01*
X143958Y250151D01*
X143968Y250226D01*
X143981Y250300D01*
X143997Y250374D01*
X144017Y250447D01*
X144041Y250519D01*
X144068Y250589D01*
X144099Y250658D01*
X144133Y250726D01*
X144170Y250792D01*
X144211Y250856D01*
X144254Y250917D01*
X144301Y250977D01*
X144350Y251034D01*
X144402Y251089D01*
X144457Y251141D01*
X144514Y251190D01*
X144574Y251237D01*
X144635Y251280D01*
X144699Y251321D01*
X144765Y251358D01*
X144833Y251392D01*
X144902Y251423D01*
X144972Y251450D01*
X145044Y251474D01*
X145117Y251494D01*
X145191Y251510D01*
X145265Y251523D01*
X145340Y251533D01*
X145415Y251538D01*
X145491Y251540D01*
X147543Y251540D01*
X139560Y251540D02*
X139560Y245381D01*
X139560Y251540D02*
X136481Y251540D01*
X136481Y250513D01*
X131861Y248974D02*
X129551Y248974D01*
X131861Y248973D02*
X131944Y248971D01*
X132027Y248965D01*
X132109Y248956D01*
X132191Y248942D01*
X132272Y248925D01*
X132352Y248904D01*
X132432Y248880D01*
X132510Y248852D01*
X132586Y248820D01*
X132662Y248785D01*
X132735Y248746D01*
X132806Y248704D01*
X132876Y248659D01*
X132943Y248610D01*
X133008Y248559D01*
X133071Y248504D01*
X133131Y248447D01*
X133188Y248387D01*
X133243Y248324D01*
X133294Y248259D01*
X133343Y248192D01*
X133388Y248122D01*
X133430Y248051D01*
X133469Y247978D01*
X133504Y247902D01*
X133536Y247826D01*
X133564Y247748D01*
X133588Y247668D01*
X133609Y247588D01*
X133626Y247507D01*
X133640Y247425D01*
X133649Y247343D01*
X133655Y247260D01*
X133657Y247177D01*
X133655Y247094D01*
X133649Y247011D01*
X133640Y246929D01*
X133626Y246847D01*
X133609Y246766D01*
X133588Y246686D01*
X133564Y246606D01*
X133536Y246528D01*
X133504Y246452D01*
X133469Y246376D01*
X133430Y246303D01*
X133388Y246232D01*
X133343Y246162D01*
X133294Y246095D01*
X133243Y246030D01*
X133188Y245967D01*
X133131Y245907D01*
X133071Y245850D01*
X133008Y245795D01*
X132943Y245744D01*
X132876Y245695D01*
X132806Y245650D01*
X132735Y245608D01*
X132662Y245569D01*
X132586Y245534D01*
X132510Y245502D01*
X132432Y245474D01*
X132352Y245450D01*
X132272Y245429D01*
X132191Y245412D01*
X132109Y245398D01*
X132027Y245389D01*
X131944Y245383D01*
X131861Y245381D01*
X129551Y245381D01*
X129551Y250000D01*
X129553Y250076D01*
X129558Y250151D01*
X129568Y250226D01*
X129581Y250300D01*
X129597Y250374D01*
X129617Y250447D01*
X129641Y250519D01*
X129668Y250589D01*
X129699Y250658D01*
X129733Y250726D01*
X129770Y250792D01*
X129811Y250856D01*
X129854Y250917D01*
X129901Y250977D01*
X129950Y251034D01*
X130002Y251089D01*
X130057Y251141D01*
X130114Y251190D01*
X130174Y251237D01*
X130235Y251280D01*
X130299Y251321D01*
X130365Y251358D01*
X130433Y251392D01*
X130502Y251423D01*
X130572Y251450D01*
X130644Y251474D01*
X130717Y251494D01*
X130791Y251510D01*
X130865Y251523D01*
X130940Y251533D01*
X131015Y251538D01*
X131091Y251540D01*
X133144Y251540D01*
X125212Y251540D02*
X125212Y245381D01*
X125212Y251540D02*
X122645Y251540D01*
X122567Y251538D01*
X122489Y251532D01*
X122412Y251522D01*
X122335Y251508D01*
X122259Y251491D01*
X122184Y251469D01*
X122110Y251444D01*
X122038Y251415D01*
X121967Y251383D01*
X121898Y251346D01*
X121830Y251307D01*
X121765Y251264D01*
X121702Y251218D01*
X121642Y251168D01*
X121584Y251116D01*
X121529Y251061D01*
X121477Y251003D01*
X121427Y250943D01*
X121381Y250880D01*
X121338Y250815D01*
X121299Y250747D01*
X121262Y250678D01*
X121230Y250607D01*
X121201Y250535D01*
X121176Y250461D01*
X121154Y250386D01*
X121137Y250310D01*
X121123Y250233D01*
X121113Y250156D01*
X121107Y250078D01*
X121105Y250000D01*
X121106Y250000D02*
X121106Y245381D01*
X256206Y239619D02*
X256206Y230381D01*
X256206Y239619D02*
X253640Y239619D01*
X253541Y239617D01*
X253441Y239611D01*
X253342Y239602D01*
X253244Y239588D01*
X253146Y239571D01*
X253048Y239550D01*
X252952Y239525D01*
X252857Y239496D01*
X252762Y239464D01*
X252670Y239428D01*
X252578Y239389D01*
X252488Y239346D01*
X252400Y239300D01*
X252314Y239250D01*
X252230Y239197D01*
X252148Y239141D01*
X252068Y239081D01*
X251991Y239019D01*
X251916Y238953D01*
X251843Y238885D01*
X251774Y238814D01*
X251707Y238740D01*
X251643Y238664D01*
X251582Y238585D01*
X251524Y238504D01*
X251469Y238421D01*
X251418Y238336D01*
X251370Y238249D01*
X251325Y238160D01*
X251284Y238069D01*
X251246Y237977D01*
X251212Y237884D01*
X251182Y237789D01*
X251155Y237693D01*
X251132Y237596D01*
X251113Y237499D01*
X251098Y237400D01*
X251086Y237301D01*
X251078Y237202D01*
X251074Y237103D01*
X251074Y237003D01*
X251078Y236904D01*
X251086Y236805D01*
X251098Y236706D01*
X251113Y236607D01*
X251132Y236510D01*
X251155Y236413D01*
X251182Y236317D01*
X251212Y236222D01*
X251246Y236129D01*
X251284Y236037D01*
X251325Y235946D01*
X251370Y235857D01*
X251418Y235770D01*
X251469Y235685D01*
X251524Y235602D01*
X251582Y235521D01*
X251643Y235442D01*
X251707Y235366D01*
X251774Y235292D01*
X251843Y235221D01*
X251916Y235153D01*
X251991Y235087D01*
X252068Y235025D01*
X252148Y234965D01*
X252230Y234909D01*
X252314Y234856D01*
X252400Y234806D01*
X252488Y234760D01*
X252578Y234717D01*
X252670Y234678D01*
X252762Y234642D01*
X252857Y234610D01*
X252952Y234581D01*
X253048Y234556D01*
X253146Y234535D01*
X253244Y234518D01*
X253342Y234504D01*
X253441Y234495D01*
X253541Y234489D01*
X253640Y234487D01*
X256206Y234487D01*
X253127Y234487D02*
X251074Y230381D01*
X245810Y230381D02*
X243244Y230381D01*
X245810Y230381D02*
X245886Y230383D01*
X245961Y230388D01*
X246036Y230398D01*
X246110Y230411D01*
X246184Y230427D01*
X246257Y230447D01*
X246329Y230471D01*
X246399Y230498D01*
X246468Y230529D01*
X246536Y230563D01*
X246602Y230600D01*
X246666Y230641D01*
X246727Y230684D01*
X246787Y230731D01*
X246844Y230780D01*
X246899Y230832D01*
X246951Y230887D01*
X247000Y230944D01*
X247047Y231004D01*
X247090Y231065D01*
X247131Y231129D01*
X247168Y231195D01*
X247202Y231263D01*
X247233Y231332D01*
X247260Y231402D01*
X247284Y231474D01*
X247304Y231547D01*
X247320Y231621D01*
X247333Y231695D01*
X247343Y231770D01*
X247348Y231845D01*
X247350Y231921D01*
X247350Y234487D01*
X247348Y234577D01*
X247342Y234666D01*
X247332Y234755D01*
X247319Y234843D01*
X247301Y234931D01*
X247280Y235018D01*
X247255Y235104D01*
X247226Y235189D01*
X247194Y235273D01*
X247158Y235355D01*
X247118Y235435D01*
X247075Y235514D01*
X247028Y235590D01*
X246979Y235665D01*
X246926Y235737D01*
X246870Y235807D01*
X246811Y235874D01*
X246749Y235939D01*
X246684Y236001D01*
X246617Y236060D01*
X246547Y236116D01*
X246475Y236169D01*
X246400Y236218D01*
X246324Y236265D01*
X246245Y236308D01*
X246165Y236348D01*
X246083Y236384D01*
X245999Y236416D01*
X245914Y236445D01*
X245828Y236470D01*
X245741Y236491D01*
X245653Y236509D01*
X245565Y236522D01*
X245476Y236532D01*
X245387Y236538D01*
X245297Y236540D01*
X245207Y236538D01*
X245118Y236532D01*
X245029Y236522D01*
X244941Y236509D01*
X244853Y236491D01*
X244766Y236470D01*
X244680Y236445D01*
X244595Y236416D01*
X244511Y236384D01*
X244429Y236348D01*
X244349Y236308D01*
X244271Y236265D01*
X244194Y236218D01*
X244119Y236169D01*
X244047Y236116D01*
X243977Y236060D01*
X243910Y236001D01*
X243845Y235939D01*
X243783Y235874D01*
X243724Y235807D01*
X243668Y235737D01*
X243615Y235665D01*
X243566Y235590D01*
X243519Y235514D01*
X243476Y235435D01*
X243436Y235355D01*
X243400Y235273D01*
X243368Y235189D01*
X243339Y235104D01*
X243314Y235018D01*
X243293Y234931D01*
X243275Y234843D01*
X243262Y234755D01*
X243252Y234666D01*
X243246Y234577D01*
X243244Y234487D01*
X243244Y233460D01*
X247350Y233460D01*
X239850Y236540D02*
X237797Y230381D01*
X235744Y236540D01*
X232397Y236540D02*
X232397Y230381D01*
X232654Y239106D02*
X232654Y239619D01*
X232140Y239619D01*
X232140Y239106D01*
X232654Y239106D01*
X227980Y233974D02*
X225414Y232947D01*
X227980Y233973D02*
X228047Y234002D01*
X228112Y234034D01*
X228175Y234070D01*
X228236Y234109D01*
X228294Y234152D01*
X228351Y234197D01*
X228404Y234246D01*
X228455Y234297D01*
X228504Y234351D01*
X228549Y234408D01*
X228591Y234467D01*
X228629Y234528D01*
X228665Y234591D01*
X228697Y234656D01*
X228725Y234723D01*
X228750Y234791D01*
X228770Y234860D01*
X228788Y234931D01*
X228801Y235002D01*
X228810Y235074D01*
X228815Y235146D01*
X228817Y235218D01*
X228814Y235291D01*
X228808Y235363D01*
X228798Y235434D01*
X228784Y235505D01*
X228766Y235576D01*
X228744Y235645D01*
X228718Y235712D01*
X228689Y235779D01*
X228656Y235843D01*
X228620Y235906D01*
X228580Y235967D01*
X228538Y236025D01*
X228492Y236081D01*
X228443Y236134D01*
X228391Y236185D01*
X228336Y236233D01*
X228280Y236278D01*
X228220Y236319D01*
X228159Y236357D01*
X228095Y236392D01*
X228030Y236424D01*
X227963Y236452D01*
X227895Y236476D01*
X227825Y236496D01*
X227755Y236513D01*
X227684Y236525D01*
X227612Y236534D01*
X227539Y236539D01*
X227467Y236540D01*
X227467Y236539D02*
X227318Y236535D01*
X227169Y236528D01*
X227021Y236516D01*
X226873Y236501D01*
X226725Y236481D01*
X226578Y236458D01*
X226431Y236432D01*
X226286Y236401D01*
X226141Y236367D01*
X225997Y236329D01*
X225854Y236288D01*
X225712Y236243D01*
X225571Y236194D01*
X225432Y236141D01*
X225294Y236086D01*
X225157Y236026D01*
X225414Y232948D02*
X225347Y232919D01*
X225282Y232887D01*
X225219Y232851D01*
X225158Y232812D01*
X225100Y232769D01*
X225043Y232724D01*
X224990Y232675D01*
X224939Y232624D01*
X224890Y232570D01*
X224845Y232513D01*
X224803Y232454D01*
X224765Y232393D01*
X224729Y232330D01*
X224697Y232265D01*
X224669Y232198D01*
X224644Y232130D01*
X224624Y232061D01*
X224606Y231990D01*
X224593Y231919D01*
X224584Y231847D01*
X224579Y231775D01*
X224577Y231703D01*
X224580Y231630D01*
X224586Y231558D01*
X224596Y231487D01*
X224610Y231416D01*
X224628Y231345D01*
X224650Y231276D01*
X224676Y231209D01*
X224705Y231142D01*
X224738Y231078D01*
X224774Y231015D01*
X224814Y230954D01*
X224856Y230896D01*
X224902Y230840D01*
X224951Y230787D01*
X225003Y230736D01*
X225058Y230688D01*
X225114Y230643D01*
X225174Y230602D01*
X225235Y230564D01*
X225299Y230529D01*
X225364Y230497D01*
X225431Y230469D01*
X225499Y230445D01*
X225569Y230425D01*
X225639Y230408D01*
X225710Y230396D01*
X225782Y230387D01*
X225855Y230382D01*
X225927Y230381D01*
X225927Y230382D02*
X226133Y230387D01*
X226339Y230398D01*
X226544Y230413D01*
X226749Y230433D01*
X226953Y230457D01*
X227157Y230487D01*
X227360Y230521D01*
X227562Y230561D01*
X227763Y230605D01*
X227963Y230653D01*
X228162Y230707D01*
X228359Y230765D01*
X228555Y230828D01*
X228750Y230895D01*
X220997Y230381D02*
X220997Y236540D01*
X221254Y239106D02*
X221254Y239619D01*
X220740Y239619D01*
X220740Y239106D01*
X221254Y239106D01*
X217350Y234487D02*
X217350Y232434D01*
X217350Y234487D02*
X217348Y234577D01*
X217342Y234666D01*
X217332Y234755D01*
X217319Y234843D01*
X217301Y234931D01*
X217280Y235018D01*
X217255Y235104D01*
X217226Y235189D01*
X217194Y235273D01*
X217158Y235355D01*
X217118Y235435D01*
X217075Y235514D01*
X217028Y235590D01*
X216979Y235665D01*
X216926Y235737D01*
X216870Y235807D01*
X216811Y235874D01*
X216749Y235939D01*
X216684Y236001D01*
X216617Y236060D01*
X216547Y236116D01*
X216475Y236169D01*
X216400Y236218D01*
X216324Y236265D01*
X216245Y236308D01*
X216165Y236348D01*
X216083Y236384D01*
X215999Y236416D01*
X215914Y236445D01*
X215828Y236470D01*
X215741Y236491D01*
X215653Y236509D01*
X215565Y236522D01*
X215476Y236532D01*
X215387Y236538D01*
X215297Y236540D01*
X215207Y236538D01*
X215118Y236532D01*
X215029Y236522D01*
X214941Y236509D01*
X214853Y236491D01*
X214766Y236470D01*
X214680Y236445D01*
X214595Y236416D01*
X214511Y236384D01*
X214429Y236348D01*
X214349Y236308D01*
X214271Y236265D01*
X214194Y236218D01*
X214119Y236169D01*
X214047Y236116D01*
X213977Y236060D01*
X213910Y236001D01*
X213845Y235939D01*
X213783Y235874D01*
X213724Y235807D01*
X213668Y235737D01*
X213615Y235665D01*
X213566Y235590D01*
X213519Y235514D01*
X213476Y235435D01*
X213436Y235355D01*
X213400Y235273D01*
X213368Y235189D01*
X213339Y235104D01*
X213314Y235018D01*
X213293Y234931D01*
X213275Y234843D01*
X213262Y234755D01*
X213252Y234666D01*
X213246Y234577D01*
X213244Y234487D01*
X213244Y232434D01*
X213246Y232344D01*
X213252Y232255D01*
X213262Y232166D01*
X213275Y232078D01*
X213293Y231990D01*
X213314Y231903D01*
X213339Y231817D01*
X213368Y231732D01*
X213400Y231648D01*
X213436Y231566D01*
X213476Y231486D01*
X213519Y231408D01*
X213566Y231331D01*
X213615Y231256D01*
X213668Y231184D01*
X213724Y231114D01*
X213783Y231047D01*
X213845Y230982D01*
X213910Y230920D01*
X213977Y230861D01*
X214047Y230805D01*
X214119Y230752D01*
X214194Y230703D01*
X214271Y230656D01*
X214349Y230613D01*
X214429Y230573D01*
X214511Y230537D01*
X214595Y230505D01*
X214680Y230476D01*
X214766Y230451D01*
X214853Y230430D01*
X214941Y230412D01*
X215029Y230399D01*
X215118Y230389D01*
X215207Y230383D01*
X215297Y230381D01*
X215387Y230383D01*
X215476Y230389D01*
X215565Y230399D01*
X215653Y230412D01*
X215741Y230430D01*
X215828Y230451D01*
X215914Y230476D01*
X215999Y230505D01*
X216083Y230537D01*
X216165Y230573D01*
X216245Y230613D01*
X216324Y230656D01*
X216400Y230703D01*
X216475Y230752D01*
X216547Y230805D01*
X216617Y230861D01*
X216684Y230920D01*
X216749Y230982D01*
X216811Y231047D01*
X216870Y231114D01*
X216926Y231184D01*
X216979Y231256D01*
X217028Y231331D01*
X217075Y231408D01*
X217118Y231486D01*
X217158Y231566D01*
X217194Y231648D01*
X217226Y231732D01*
X217255Y231817D01*
X217280Y231903D01*
X217301Y231990D01*
X217319Y232078D01*
X217332Y232166D01*
X217342Y232255D01*
X217348Y232344D01*
X217350Y232434D01*
X209250Y230381D02*
X209250Y236540D01*
X206684Y236540D01*
X206606Y236538D01*
X206528Y236532D01*
X206451Y236522D01*
X206374Y236508D01*
X206298Y236491D01*
X206223Y236469D01*
X206149Y236444D01*
X206077Y236415D01*
X206006Y236383D01*
X205937Y236346D01*
X205869Y236307D01*
X205804Y236264D01*
X205741Y236218D01*
X205681Y236168D01*
X205623Y236116D01*
X205568Y236061D01*
X205516Y236003D01*
X205466Y235943D01*
X205420Y235880D01*
X205377Y235815D01*
X205338Y235747D01*
X205301Y235678D01*
X205269Y235607D01*
X205240Y235535D01*
X205215Y235461D01*
X205193Y235386D01*
X205176Y235310D01*
X205162Y235233D01*
X205152Y235156D01*
X205146Y235078D01*
X205144Y235000D01*
X205144Y230381D01*
X196263Y237566D02*
X193697Y239619D01*
X193697Y230381D01*
X196263Y230381D02*
X191131Y230381D01*
X182401Y235000D02*
X182398Y235211D01*
X182391Y235423D01*
X182378Y235634D01*
X182360Y235844D01*
X182338Y236054D01*
X182310Y236264D01*
X182277Y236473D01*
X182239Y236681D01*
X182196Y236888D01*
X182148Y237094D01*
X182095Y237298D01*
X182037Y237502D01*
X181975Y237704D01*
X181907Y237904D01*
X181835Y238103D01*
X181758Y238300D01*
X181676Y238495D01*
X181590Y238687D01*
X181499Y238878D01*
X181403Y239067D01*
X181303Y239253D01*
X181199Y239437D01*
X181090Y239618D01*
X180977Y239797D01*
X180859Y239972D01*
X180738Y240145D01*
X180612Y240315D01*
X180482Y240482D01*
X180348Y240645D01*
X182401Y235000D02*
X182398Y234789D01*
X182391Y234577D01*
X182378Y234366D01*
X182360Y234156D01*
X182338Y233946D01*
X182310Y233736D01*
X182277Y233527D01*
X182239Y233319D01*
X182196Y233112D01*
X182148Y232906D01*
X182095Y232702D01*
X182037Y232498D01*
X181975Y232296D01*
X181907Y232096D01*
X181835Y231897D01*
X181758Y231700D01*
X181676Y231505D01*
X181590Y231313D01*
X181499Y231122D01*
X181403Y230933D01*
X181303Y230747D01*
X181199Y230563D01*
X181090Y230382D01*
X180977Y230203D01*
X180859Y230028D01*
X180738Y229855D01*
X180612Y229685D01*
X180482Y229518D01*
X180348Y229355D01*
X176763Y235000D02*
X176761Y235182D01*
X176754Y235363D01*
X176743Y235545D01*
X176728Y235726D01*
X176709Y235907D01*
X176685Y236087D01*
X176657Y236266D01*
X176625Y236445D01*
X176588Y236623D01*
X176547Y236800D01*
X176502Y236976D01*
X176453Y237151D01*
X176399Y237325D01*
X176342Y237497D01*
X176280Y237668D01*
X176214Y237838D01*
X176145Y238006D01*
X176071Y238172D01*
X175993Y238336D01*
X175964Y238415D01*
X175932Y238492D01*
X175896Y238568D01*
X175857Y238643D01*
X175814Y238716D01*
X175768Y238786D01*
X175720Y238855D01*
X175668Y238921D01*
X175613Y238985D01*
X175556Y239046D01*
X175496Y239105D01*
X175433Y239162D01*
X175368Y239215D01*
X175301Y239265D01*
X175231Y239313D01*
X175160Y239357D01*
X175086Y239398D01*
X175011Y239436D01*
X174934Y239470D01*
X174856Y239501D01*
X174777Y239528D01*
X174696Y239552D01*
X174614Y239573D01*
X174532Y239589D01*
X174449Y239602D01*
X174365Y239612D01*
X174281Y239617D01*
X174197Y239619D01*
X174113Y239617D01*
X174029Y239612D01*
X173945Y239602D01*
X173862Y239589D01*
X173780Y239573D01*
X173698Y239552D01*
X173617Y239528D01*
X173538Y239501D01*
X173460Y239470D01*
X173383Y239436D01*
X173308Y239398D01*
X173234Y239357D01*
X173163Y239313D01*
X173093Y239265D01*
X173026Y239215D01*
X172961Y239162D01*
X172898Y239105D01*
X172838Y239047D01*
X172781Y238985D01*
X172726Y238921D01*
X172674Y238855D01*
X172626Y238786D01*
X172580Y238716D01*
X172537Y238643D01*
X172498Y238569D01*
X172462Y238492D01*
X172430Y238415D01*
X172401Y238336D01*
X172323Y238172D01*
X172249Y238006D01*
X172180Y237838D01*
X172114Y237668D01*
X172052Y237497D01*
X171995Y237325D01*
X171941Y237151D01*
X171892Y236976D01*
X171847Y236800D01*
X171806Y236623D01*
X171769Y236445D01*
X171737Y236266D01*
X171709Y236087D01*
X171685Y235907D01*
X171666Y235726D01*
X171651Y235545D01*
X171640Y235363D01*
X171633Y235182D01*
X171631Y235000D01*
X176763Y235000D02*
X176761Y234818D01*
X176754Y234637D01*
X176743Y234455D01*
X176728Y234274D01*
X176709Y234093D01*
X176685Y233913D01*
X176657Y233734D01*
X176625Y233555D01*
X176588Y233377D01*
X176547Y233200D01*
X176502Y233024D01*
X176453Y232849D01*
X176399Y232675D01*
X176342Y232503D01*
X176280Y232332D01*
X176214Y232162D01*
X176145Y231995D01*
X176071Y231828D01*
X175993Y231664D01*
X175964Y231585D01*
X175932Y231508D01*
X175896Y231431D01*
X175857Y231357D01*
X175814Y231284D01*
X175768Y231214D01*
X175720Y231145D01*
X175668Y231079D01*
X175613Y231015D01*
X175556Y230953D01*
X175496Y230895D01*
X175433Y230838D01*
X175368Y230785D01*
X175301Y230735D01*
X175231Y230687D01*
X175160Y230643D01*
X175086Y230602D01*
X175011Y230564D01*
X174934Y230530D01*
X174856Y230499D01*
X174777Y230472D01*
X174696Y230448D01*
X174614Y230427D01*
X174532Y230411D01*
X174449Y230398D01*
X174365Y230388D01*
X174281Y230383D01*
X174197Y230381D01*
X172401Y231664D02*
X172323Y231828D01*
X172249Y231994D01*
X172180Y232162D01*
X172114Y232332D01*
X172052Y232503D01*
X171995Y232675D01*
X171941Y232849D01*
X171892Y233024D01*
X171847Y233200D01*
X171806Y233377D01*
X171769Y233555D01*
X171737Y233734D01*
X171709Y233913D01*
X171685Y234093D01*
X171666Y234274D01*
X171651Y234455D01*
X171640Y234637D01*
X171633Y234818D01*
X171631Y235000D01*
X172401Y231664D02*
X172430Y231585D01*
X172462Y231508D01*
X172498Y231431D01*
X172537Y231357D01*
X172580Y231284D01*
X172626Y231214D01*
X172674Y231145D01*
X172726Y231079D01*
X172781Y231015D01*
X172838Y230953D01*
X172898Y230895D01*
X172961Y230838D01*
X173026Y230785D01*
X173093Y230735D01*
X173163Y230687D01*
X173234Y230643D01*
X173308Y230602D01*
X173383Y230564D01*
X173460Y230530D01*
X173538Y230499D01*
X173617Y230472D01*
X173698Y230448D01*
X173780Y230427D01*
X173862Y230411D01*
X173945Y230398D01*
X174029Y230388D01*
X174113Y230383D01*
X174197Y230381D01*
X176250Y232434D02*
X172144Y237566D01*
X167763Y238593D02*
X167763Y239619D01*
X162631Y239619D01*
X165197Y230381D01*
X159150Y229355D02*
X155044Y240645D01*
X148741Y239619D02*
X148646Y239617D01*
X148550Y239611D01*
X148455Y239601D01*
X148361Y239587D01*
X148267Y239570D01*
X148174Y239548D01*
X148082Y239523D01*
X147991Y239494D01*
X147901Y239461D01*
X147813Y239424D01*
X147726Y239384D01*
X147642Y239341D01*
X147559Y239293D01*
X147478Y239243D01*
X147399Y239189D01*
X147322Y239132D01*
X147248Y239072D01*
X147176Y239009D01*
X147108Y238942D01*
X147041Y238874D01*
X146978Y238802D01*
X146918Y238728D01*
X146861Y238651D01*
X146807Y238572D01*
X146757Y238491D01*
X146709Y238408D01*
X146666Y238324D01*
X146626Y238237D01*
X146589Y238149D01*
X146556Y238059D01*
X146527Y237968D01*
X146502Y237876D01*
X146480Y237783D01*
X146463Y237689D01*
X146449Y237595D01*
X146439Y237500D01*
X146433Y237404D01*
X146431Y237309D01*
X148741Y239619D02*
X148848Y239617D01*
X148954Y239611D01*
X149060Y239602D01*
X149166Y239588D01*
X149271Y239571D01*
X149376Y239550D01*
X149479Y239526D01*
X149582Y239497D01*
X149684Y239465D01*
X149784Y239430D01*
X149883Y239390D01*
X149981Y239347D01*
X150077Y239301D01*
X150171Y239251D01*
X150264Y239198D01*
X150354Y239142D01*
X150443Y239082D01*
X150529Y239020D01*
X150613Y238954D01*
X150694Y238885D01*
X150773Y238814D01*
X150850Y238739D01*
X150923Y238662D01*
X150994Y238582D01*
X151062Y238500D01*
X151127Y238416D01*
X151189Y238329D01*
X151247Y238240D01*
X151303Y238149D01*
X151355Y238056D01*
X151404Y237961D01*
X151449Y237864D01*
X151491Y237766D01*
X151529Y237667D01*
X151564Y237566D01*
X147202Y235513D02*
X147134Y235580D01*
X147068Y235650D01*
X147006Y235723D01*
X146946Y235797D01*
X146889Y235874D01*
X146835Y235953D01*
X146785Y236034D01*
X146737Y236117D01*
X146693Y236202D01*
X146652Y236288D01*
X146614Y236376D01*
X146580Y236465D01*
X146549Y236556D01*
X146522Y236648D01*
X146498Y236740D01*
X146478Y236834D01*
X146461Y236928D01*
X146449Y237023D01*
X146439Y237118D01*
X146434Y237213D01*
X146432Y237309D01*
X147201Y235513D02*
X151563Y230381D01*
X146431Y230381D01*
X142563Y235000D02*
X142561Y235182D01*
X142554Y235363D01*
X142543Y235545D01*
X142528Y235726D01*
X142509Y235907D01*
X142485Y236087D01*
X142457Y236266D01*
X142425Y236445D01*
X142388Y236623D01*
X142347Y236800D01*
X142302Y236976D01*
X142253Y237151D01*
X142199Y237325D01*
X142142Y237497D01*
X142080Y237668D01*
X142014Y237838D01*
X141945Y238006D01*
X141871Y238172D01*
X141793Y238336D01*
X141764Y238415D01*
X141732Y238492D01*
X141696Y238568D01*
X141657Y238643D01*
X141614Y238716D01*
X141568Y238786D01*
X141520Y238855D01*
X141468Y238921D01*
X141413Y238985D01*
X141356Y239046D01*
X141296Y239105D01*
X141233Y239162D01*
X141168Y239215D01*
X141101Y239265D01*
X141031Y239313D01*
X140960Y239357D01*
X140886Y239398D01*
X140811Y239436D01*
X140734Y239470D01*
X140656Y239501D01*
X140577Y239528D01*
X140496Y239552D01*
X140414Y239573D01*
X140332Y239589D01*
X140249Y239602D01*
X140165Y239612D01*
X140081Y239617D01*
X139997Y239619D01*
X139913Y239617D01*
X139829Y239612D01*
X139745Y239602D01*
X139662Y239589D01*
X139580Y239573D01*
X139498Y239552D01*
X139417Y239528D01*
X139338Y239501D01*
X139260Y239470D01*
X139183Y239436D01*
X139108Y239398D01*
X139034Y239357D01*
X138963Y239313D01*
X138893Y239265D01*
X138826Y239215D01*
X138761Y239162D01*
X138698Y239105D01*
X138638Y239047D01*
X138581Y238985D01*
X138526Y238921D01*
X138474Y238855D01*
X138426Y238786D01*
X138380Y238716D01*
X138337Y238643D01*
X138298Y238569D01*
X138262Y238492D01*
X138230Y238415D01*
X138201Y238336D01*
X138123Y238172D01*
X138049Y238006D01*
X137980Y237838D01*
X137914Y237668D01*
X137852Y237497D01*
X137795Y237325D01*
X137741Y237151D01*
X137692Y236976D01*
X137647Y236800D01*
X137606Y236623D01*
X137569Y236445D01*
X137537Y236266D01*
X137509Y236087D01*
X137485Y235907D01*
X137466Y235726D01*
X137451Y235545D01*
X137440Y235363D01*
X137433Y235182D01*
X137431Y235000D01*
X142563Y235000D02*
X142561Y234818D01*
X142554Y234637D01*
X142543Y234455D01*
X142528Y234274D01*
X142509Y234093D01*
X142485Y233913D01*
X142457Y233734D01*
X142425Y233555D01*
X142388Y233377D01*
X142347Y233200D01*
X142302Y233024D01*
X142253Y232849D01*
X142199Y232675D01*
X142142Y232503D01*
X142080Y232332D01*
X142014Y232162D01*
X141945Y231995D01*
X141871Y231828D01*
X141793Y231664D01*
X141764Y231585D01*
X141732Y231508D01*
X141696Y231431D01*
X141657Y231357D01*
X141614Y231284D01*
X141568Y231214D01*
X141520Y231145D01*
X141468Y231079D01*
X141413Y231015D01*
X141356Y230953D01*
X141296Y230895D01*
X141233Y230838D01*
X141168Y230785D01*
X141101Y230735D01*
X141031Y230687D01*
X140960Y230643D01*
X140886Y230602D01*
X140811Y230564D01*
X140734Y230530D01*
X140656Y230499D01*
X140577Y230472D01*
X140496Y230448D01*
X140414Y230427D01*
X140332Y230411D01*
X140249Y230398D01*
X140165Y230388D01*
X140081Y230383D01*
X139997Y230381D01*
X138201Y231664D02*
X138123Y231828D01*
X138049Y231994D01*
X137980Y232162D01*
X137914Y232332D01*
X137852Y232503D01*
X137795Y232675D01*
X137741Y232849D01*
X137692Y233024D01*
X137647Y233200D01*
X137606Y233377D01*
X137569Y233555D01*
X137537Y233734D01*
X137509Y233913D01*
X137485Y234093D01*
X137466Y234274D01*
X137451Y234455D01*
X137440Y234637D01*
X137433Y234818D01*
X137431Y235000D01*
X138201Y231664D02*
X138230Y231585D01*
X138262Y231508D01*
X138298Y231431D01*
X138337Y231357D01*
X138380Y231284D01*
X138426Y231214D01*
X138474Y231145D01*
X138526Y231079D01*
X138581Y231015D01*
X138638Y230953D01*
X138698Y230895D01*
X138761Y230838D01*
X138826Y230785D01*
X138893Y230735D01*
X138963Y230687D01*
X139034Y230643D01*
X139108Y230602D01*
X139183Y230564D01*
X139260Y230530D01*
X139338Y230499D01*
X139417Y230472D01*
X139498Y230448D01*
X139580Y230427D01*
X139662Y230411D01*
X139745Y230398D01*
X139829Y230388D01*
X139913Y230383D01*
X139997Y230381D01*
X142050Y232434D02*
X137944Y237566D01*
X133563Y237566D02*
X130997Y239619D01*
X130997Y230381D01*
X133563Y230381D02*
X128431Y230381D01*
X122511Y234487D02*
X119431Y234487D01*
X122511Y234487D02*
X122601Y234489D01*
X122690Y234495D01*
X122779Y234505D01*
X122868Y234518D01*
X122955Y234536D01*
X123042Y234557D01*
X123128Y234582D01*
X123213Y234611D01*
X123297Y234643D01*
X123379Y234679D01*
X123459Y234719D01*
X123538Y234762D01*
X123614Y234809D01*
X123689Y234858D01*
X123761Y234911D01*
X123831Y234967D01*
X123898Y235026D01*
X123963Y235088D01*
X124025Y235153D01*
X124084Y235220D01*
X124140Y235290D01*
X124193Y235362D01*
X124242Y235437D01*
X124289Y235514D01*
X124332Y235592D01*
X124372Y235672D01*
X124408Y235754D01*
X124440Y235838D01*
X124469Y235923D01*
X124494Y236009D01*
X124515Y236096D01*
X124533Y236184D01*
X124546Y236272D01*
X124556Y236361D01*
X124562Y236450D01*
X124564Y236540D01*
X124563Y236540D02*
X124563Y237053D01*
X124561Y237152D01*
X124555Y237252D01*
X124546Y237351D01*
X124532Y237449D01*
X124515Y237547D01*
X124494Y237645D01*
X124469Y237741D01*
X124440Y237836D01*
X124408Y237931D01*
X124372Y238023D01*
X124333Y238115D01*
X124290Y238205D01*
X124244Y238293D01*
X124194Y238379D01*
X124141Y238463D01*
X124085Y238545D01*
X124025Y238625D01*
X123963Y238702D01*
X123897Y238777D01*
X123829Y238850D01*
X123758Y238919D01*
X123684Y238986D01*
X123608Y239050D01*
X123529Y239111D01*
X123448Y239169D01*
X123365Y239224D01*
X123280Y239275D01*
X123193Y239323D01*
X123104Y239368D01*
X123013Y239409D01*
X122921Y239447D01*
X122828Y239481D01*
X122733Y239511D01*
X122637Y239538D01*
X122540Y239561D01*
X122443Y239580D01*
X122344Y239595D01*
X122245Y239607D01*
X122146Y239615D01*
X122047Y239619D01*
X121947Y239619D01*
X121848Y239615D01*
X121749Y239607D01*
X121650Y239595D01*
X121551Y239580D01*
X121454Y239561D01*
X121357Y239538D01*
X121261Y239511D01*
X121166Y239481D01*
X121073Y239447D01*
X120981Y239409D01*
X120890Y239368D01*
X120801Y239323D01*
X120714Y239275D01*
X120629Y239224D01*
X120546Y239169D01*
X120465Y239111D01*
X120386Y239050D01*
X120310Y238986D01*
X120236Y238919D01*
X120165Y238850D01*
X120097Y238777D01*
X120031Y238702D01*
X119969Y238625D01*
X119909Y238545D01*
X119853Y238463D01*
X119800Y238379D01*
X119750Y238293D01*
X119704Y238205D01*
X119661Y238115D01*
X119622Y238023D01*
X119586Y237931D01*
X119554Y237836D01*
X119525Y237741D01*
X119500Y237645D01*
X119479Y237547D01*
X119462Y237449D01*
X119448Y237351D01*
X119439Y237252D01*
X119433Y237152D01*
X119431Y237053D01*
X119431Y234487D01*
X119433Y234361D01*
X119439Y234234D01*
X119449Y234108D01*
X119462Y233982D01*
X119480Y233857D01*
X119501Y233733D01*
X119526Y233609D01*
X119555Y233485D01*
X119588Y233363D01*
X119624Y233242D01*
X119664Y233122D01*
X119708Y233004D01*
X119756Y232887D01*
X119807Y232771D01*
X119861Y232657D01*
X119920Y232544D01*
X119981Y232434D01*
X120046Y232325D01*
X120114Y232219D01*
X120186Y232115D01*
X120260Y232013D01*
X120338Y231913D01*
X120419Y231816D01*
X120503Y231721D01*
X120589Y231629D01*
X120679Y231539D01*
X120771Y231453D01*
X120866Y231369D01*
X120963Y231288D01*
X121063Y231210D01*
X121165Y231136D01*
X121269Y231064D01*
X121375Y230996D01*
X121484Y230931D01*
X121594Y230870D01*
X121707Y230811D01*
X121821Y230757D01*
X121937Y230706D01*
X122054Y230658D01*
X122172Y230614D01*
X122292Y230574D01*
X122413Y230538D01*
X122536Y230505D01*
X122659Y230476D01*
X122783Y230451D01*
X122907Y230430D01*
X123032Y230412D01*
X123158Y230399D01*
X123284Y230389D01*
X123411Y230383D01*
X123537Y230381D01*
X115846Y229355D02*
X115712Y229518D01*
X115582Y229685D01*
X115456Y229855D01*
X115335Y230028D01*
X115217Y230203D01*
X115104Y230382D01*
X114995Y230563D01*
X114891Y230747D01*
X114791Y230933D01*
X114695Y231122D01*
X114604Y231313D01*
X114518Y231505D01*
X114436Y231700D01*
X114359Y231897D01*
X114287Y232096D01*
X114219Y232296D01*
X114157Y232498D01*
X114099Y232702D01*
X114046Y232906D01*
X113998Y233112D01*
X113955Y233319D01*
X113917Y233527D01*
X113884Y233736D01*
X113856Y233946D01*
X113834Y234156D01*
X113816Y234366D01*
X113803Y234577D01*
X113796Y234789D01*
X113793Y235000D01*
X113796Y235211D01*
X113803Y235423D01*
X113816Y235634D01*
X113834Y235844D01*
X113856Y236054D01*
X113884Y236264D01*
X113917Y236473D01*
X113955Y236681D01*
X113998Y236888D01*
X114046Y237094D01*
X114099Y237298D01*
X114157Y237502D01*
X114219Y237704D01*
X114287Y237904D01*
X114359Y238103D01*
X114436Y238300D01*
X114518Y238495D01*
X114604Y238687D01*
X114695Y238878D01*
X114791Y239067D01*
X114891Y239253D01*
X114995Y239437D01*
X115104Y239618D01*
X115217Y239797D01*
X115335Y239972D01*
X115456Y240145D01*
X115582Y240315D01*
X115712Y240482D01*
X115846Y240645D01*
M02*
