G04 EAGLE Gerber RS-274X export*
G75*
%MOMM*%
%FSLAX34Y34*%
%LPD*%
%INBottom Copper*%
%IPPOS*%
%AMOC8*
5,1,8,0,0,1.08239X$1,22.5*%
G01*
%ADD10C,1.524000*%
%ADD11C,1.320800*%
%ADD12C,1.308000*%
%ADD13P,1.814519X8X292.500000*%
%ADD14P,1.814519X8X112.500000*%
%ADD15P,1.429621X8X202.500000*%
%ADD16C,1.524000*%
%ADD17C,1.676400*%
%ADD18C,1.676400*%
%ADD19P,1.429621X8X292.500000*%
%ADD20P,1.429621X8X112.500000*%
%ADD21C,0.152400*%
%ADD22C,0.756400*%
%ADD23C,1.000000*%
%ADD24C,1.056400*%

G36*
X1052490Y10172D02*
X1052490Y10172D01*
X1052561Y10174D01*
X1052610Y10192D01*
X1052662Y10200D01*
X1052725Y10234D01*
X1052792Y10259D01*
X1052833Y10291D01*
X1052879Y10316D01*
X1052928Y10368D01*
X1052984Y10412D01*
X1053012Y10456D01*
X1053048Y10494D01*
X1053078Y10559D01*
X1053117Y10619D01*
X1053130Y10670D01*
X1053152Y10717D01*
X1053160Y10788D01*
X1053177Y10858D01*
X1053173Y10910D01*
X1053179Y10961D01*
X1053164Y11032D01*
X1053158Y11103D01*
X1053138Y11151D01*
X1053127Y11202D01*
X1053090Y11263D01*
X1053062Y11329D01*
X1053017Y11385D01*
X1053001Y11413D01*
X1052983Y11428D01*
X1052957Y11460D01*
X1049866Y14551D01*
X1046554Y20288D01*
X1044839Y26688D01*
X1044839Y33312D01*
X1046554Y39712D01*
X1049866Y45449D01*
X1054551Y50134D01*
X1060288Y53446D01*
X1066688Y55161D01*
X1073312Y55161D01*
X1079712Y53446D01*
X1085449Y50134D01*
X1088540Y47043D01*
X1088598Y47001D01*
X1088650Y46952D01*
X1088697Y46930D01*
X1088739Y46899D01*
X1088808Y46878D01*
X1088873Y46848D01*
X1088925Y46842D01*
X1088975Y46827D01*
X1089046Y46829D01*
X1089117Y46821D01*
X1089168Y46832D01*
X1089220Y46833D01*
X1089288Y46858D01*
X1089358Y46873D01*
X1089403Y46900D01*
X1089451Y46918D01*
X1089507Y46963D01*
X1089569Y46999D01*
X1089603Y47039D01*
X1089643Y47072D01*
X1089682Y47132D01*
X1089729Y47186D01*
X1089748Y47235D01*
X1089776Y47278D01*
X1089794Y47348D01*
X1089821Y47414D01*
X1089829Y47486D01*
X1089837Y47517D01*
X1089835Y47540D01*
X1089839Y47581D01*
X1089839Y547419D01*
X1089828Y547490D01*
X1089826Y547561D01*
X1089808Y547610D01*
X1089800Y547662D01*
X1089766Y547725D01*
X1089741Y547792D01*
X1089709Y547833D01*
X1089684Y547879D01*
X1089632Y547928D01*
X1089588Y547984D01*
X1089544Y548012D01*
X1089506Y548048D01*
X1089441Y548078D01*
X1089381Y548117D01*
X1089330Y548130D01*
X1089283Y548152D01*
X1089212Y548160D01*
X1089142Y548177D01*
X1089090Y548173D01*
X1089039Y548179D01*
X1088968Y548164D01*
X1088897Y548158D01*
X1088849Y548138D01*
X1088798Y548127D01*
X1088737Y548090D01*
X1088671Y548062D01*
X1088615Y548017D01*
X1088587Y548001D01*
X1088572Y547983D01*
X1088540Y547957D01*
X1085449Y544866D01*
X1079712Y541554D01*
X1073312Y539839D01*
X1066688Y539839D01*
X1060288Y541554D01*
X1054551Y544866D01*
X1049866Y549551D01*
X1046554Y555288D01*
X1044839Y561688D01*
X1044839Y568312D01*
X1046554Y574712D01*
X1049866Y580449D01*
X1052957Y583540D01*
X1052999Y583598D01*
X1053048Y583650D01*
X1053070Y583697D01*
X1053101Y583739D01*
X1053122Y583808D01*
X1053152Y583873D01*
X1053158Y583925D01*
X1053173Y583975D01*
X1053171Y584046D01*
X1053179Y584117D01*
X1053168Y584168D01*
X1053167Y584220D01*
X1053142Y584288D01*
X1053127Y584358D01*
X1053100Y584403D01*
X1053082Y584451D01*
X1053037Y584507D01*
X1053001Y584569D01*
X1052961Y584603D01*
X1052928Y584643D01*
X1052868Y584682D01*
X1052814Y584729D01*
X1052765Y584748D01*
X1052722Y584776D01*
X1052652Y584794D01*
X1052586Y584821D01*
X1052514Y584829D01*
X1052483Y584837D01*
X1052460Y584835D01*
X1052419Y584839D01*
X47581Y584839D01*
X47510Y584828D01*
X47439Y584826D01*
X47390Y584808D01*
X47338Y584800D01*
X47275Y584766D01*
X47208Y584741D01*
X47167Y584709D01*
X47121Y584684D01*
X47072Y584632D01*
X47016Y584588D01*
X46988Y584544D01*
X46952Y584506D01*
X46922Y584441D01*
X46883Y584381D01*
X46870Y584330D01*
X46848Y584283D01*
X46840Y584212D01*
X46823Y584142D01*
X46827Y584090D01*
X46821Y584039D01*
X46836Y583968D01*
X46842Y583897D01*
X46862Y583849D01*
X46873Y583798D01*
X46910Y583737D01*
X46938Y583671D01*
X46983Y583615D01*
X46999Y583587D01*
X47017Y583572D01*
X47043Y583540D01*
X50134Y580449D01*
X53446Y574712D01*
X55161Y568312D01*
X55161Y561688D01*
X53446Y555288D01*
X50134Y549551D01*
X45449Y544866D01*
X39712Y541554D01*
X33312Y539839D01*
X26688Y539839D01*
X20288Y541554D01*
X14551Y544866D01*
X11460Y547957D01*
X11402Y547999D01*
X11350Y548048D01*
X11303Y548070D01*
X11261Y548101D01*
X11192Y548122D01*
X11127Y548152D01*
X11075Y548158D01*
X11025Y548173D01*
X10954Y548171D01*
X10883Y548179D01*
X10832Y548168D01*
X10780Y548167D01*
X10712Y548142D01*
X10642Y548127D01*
X10597Y548100D01*
X10549Y548082D01*
X10493Y548037D01*
X10431Y548001D01*
X10397Y547961D01*
X10357Y547928D01*
X10318Y547868D01*
X10271Y547814D01*
X10252Y547765D01*
X10224Y547722D01*
X10206Y547652D01*
X10179Y547586D01*
X10171Y547514D01*
X10163Y547483D01*
X10165Y547460D01*
X10161Y547419D01*
X10161Y47581D01*
X10172Y47510D01*
X10174Y47439D01*
X10192Y47390D01*
X10200Y47338D01*
X10234Y47275D01*
X10259Y47208D01*
X10291Y47167D01*
X10316Y47121D01*
X10368Y47072D01*
X10412Y47016D01*
X10456Y46988D01*
X10494Y46952D01*
X10559Y46922D01*
X10619Y46883D01*
X10670Y46870D01*
X10717Y46848D01*
X10788Y46840D01*
X10858Y46823D01*
X10910Y46827D01*
X10961Y46821D01*
X11032Y46836D01*
X11103Y46842D01*
X11151Y46862D01*
X11202Y46873D01*
X11263Y46910D01*
X11329Y46938D01*
X11385Y46983D01*
X11413Y46999D01*
X11428Y47017D01*
X11460Y47043D01*
X14551Y50134D01*
X20288Y53446D01*
X26688Y55161D01*
X27102Y55161D01*
X27172Y55172D01*
X27244Y55174D01*
X27293Y55192D01*
X27344Y55200D01*
X27408Y55234D01*
X27475Y55259D01*
X27516Y55291D01*
X27562Y55316D01*
X27611Y55367D01*
X27667Y55412D01*
X27695Y55456D01*
X27731Y55494D01*
X27761Y55559D01*
X27800Y55619D01*
X27813Y55670D01*
X27835Y55717D01*
X27843Y55788D01*
X27860Y55858D01*
X27856Y55910D01*
X27862Y55961D01*
X27847Y56032D01*
X27841Y56103D01*
X27821Y56151D01*
X27810Y56202D01*
X27773Y56263D01*
X27745Y56329D01*
X27700Y56385D01*
X27683Y56413D01*
X27666Y56428D01*
X27640Y56460D01*
X25309Y58791D01*
X24071Y61779D01*
X24071Y78221D01*
X25309Y81209D01*
X27595Y83495D01*
X30583Y84733D01*
X33817Y84733D01*
X36805Y83495D01*
X39091Y81209D01*
X40329Y78221D01*
X40329Y61779D01*
X39091Y58791D01*
X36805Y56505D01*
X35534Y55979D01*
X35432Y55915D01*
X35329Y55852D01*
X35327Y55850D01*
X35325Y55849D01*
X35247Y55755D01*
X35171Y55663D01*
X35170Y55661D01*
X35169Y55660D01*
X35125Y55546D01*
X35081Y55434D01*
X35081Y55432D01*
X35080Y55430D01*
X35075Y55308D01*
X35070Y55188D01*
X35070Y55186D01*
X35070Y55184D01*
X35104Y55069D01*
X35137Y54952D01*
X35138Y54950D01*
X35139Y54948D01*
X35207Y54849D01*
X35276Y54749D01*
X35278Y54748D01*
X35279Y54746D01*
X35377Y54673D01*
X35472Y54601D01*
X35475Y54600D01*
X35476Y54599D01*
X35484Y54597D01*
X35629Y54540D01*
X39712Y53446D01*
X45449Y50134D01*
X50134Y45449D01*
X53446Y39712D01*
X55161Y33312D01*
X55161Y26688D01*
X53446Y20288D01*
X50134Y14551D01*
X47043Y11460D01*
X47001Y11402D01*
X46952Y11350D01*
X46930Y11303D01*
X46899Y11261D01*
X46878Y11192D01*
X46848Y11127D01*
X46842Y11075D01*
X46827Y11025D01*
X46829Y10954D01*
X46821Y10883D01*
X46832Y10832D01*
X46833Y10780D01*
X46858Y10712D01*
X46873Y10642D01*
X46900Y10597D01*
X46918Y10549D01*
X46963Y10493D01*
X46999Y10431D01*
X47039Y10397D01*
X47072Y10357D01*
X47132Y10318D01*
X47186Y10271D01*
X47235Y10252D01*
X47278Y10224D01*
X47348Y10206D01*
X47414Y10179D01*
X47486Y10171D01*
X47517Y10163D01*
X47540Y10165D01*
X47581Y10161D01*
X1052419Y10161D01*
X1052490Y10172D01*
G37*
%LPC*%
G36*
X409053Y17713D02*
X409053Y17713D01*
X384276Y42490D01*
X384202Y42543D01*
X384132Y42603D01*
X384102Y42615D01*
X384076Y42634D01*
X383989Y42661D01*
X383904Y42695D01*
X383863Y42699D01*
X383841Y42706D01*
X383809Y42705D01*
X383737Y42713D01*
X193720Y42713D01*
X193650Y42702D01*
X193578Y42700D01*
X193529Y42682D01*
X193478Y42674D01*
X193414Y42640D01*
X193347Y42615D01*
X193306Y42583D01*
X193260Y42558D01*
X193211Y42506D01*
X193155Y42462D01*
X193127Y42418D01*
X193091Y42380D01*
X193061Y42315D01*
X193022Y42255D01*
X193009Y42204D01*
X192987Y42157D01*
X192979Y42086D01*
X192962Y42016D01*
X192966Y41964D01*
X192960Y41913D01*
X192975Y41842D01*
X192981Y41771D01*
X193001Y41723D01*
X193012Y41672D01*
X193049Y41611D01*
X193077Y41545D01*
X193122Y41489D01*
X193139Y41461D01*
X193156Y41446D01*
X193182Y41414D01*
X196229Y38367D01*
X196229Y31633D01*
X191467Y26871D01*
X184733Y26871D01*
X179971Y31633D01*
X179971Y38367D01*
X183647Y42043D01*
X183659Y42059D01*
X183674Y42071D01*
X183730Y42158D01*
X183790Y42242D01*
X183796Y42261D01*
X183807Y42278D01*
X183832Y42379D01*
X183863Y42477D01*
X183862Y42497D01*
X183867Y42517D01*
X183859Y42620D01*
X183856Y42723D01*
X183850Y42742D01*
X183848Y42762D01*
X183808Y42857D01*
X183772Y42954D01*
X183759Y42970D01*
X183752Y42988D01*
X183647Y43119D01*
X182490Y44276D01*
X167448Y59318D01*
X167411Y59344D01*
X167380Y59378D01*
X167312Y59416D01*
X167249Y59461D01*
X167205Y59475D01*
X167165Y59497D01*
X167088Y59511D01*
X167014Y59534D01*
X166968Y59532D01*
X166923Y59541D01*
X166846Y59529D01*
X166768Y59527D01*
X166725Y59511D01*
X166679Y59505D01*
X166610Y59469D01*
X166537Y59443D01*
X166501Y59414D01*
X166460Y59393D01*
X166406Y59338D01*
X166345Y59289D01*
X166320Y59250D01*
X166288Y59218D01*
X166222Y59098D01*
X166212Y59082D01*
X166210Y59077D01*
X166207Y59071D01*
X166091Y58791D01*
X163805Y56505D01*
X160817Y55267D01*
X157583Y55267D01*
X154595Y56505D01*
X152309Y58791D01*
X151071Y61779D01*
X151071Y78221D01*
X152309Y81209D01*
X154595Y83495D01*
X157583Y84733D01*
X160817Y84733D01*
X163805Y83495D01*
X166091Y81209D01*
X167329Y78221D01*
X167329Y66221D01*
X167343Y66130D01*
X167351Y66040D01*
X167363Y66010D01*
X167368Y65978D01*
X167411Y65897D01*
X167447Y65813D01*
X167473Y65781D01*
X167484Y65760D01*
X167507Y65738D01*
X167552Y65682D01*
X185724Y47510D01*
X185798Y47457D01*
X185868Y47397D01*
X185898Y47385D01*
X185924Y47366D01*
X186011Y47339D01*
X186096Y47305D01*
X186137Y47301D01*
X186159Y47294D01*
X186191Y47295D01*
X186263Y47287D01*
X382642Y47287D01*
X382712Y47298D01*
X382784Y47300D01*
X382833Y47318D01*
X382884Y47326D01*
X382948Y47360D01*
X383015Y47385D01*
X383056Y47417D01*
X383102Y47442D01*
X383151Y47494D01*
X383207Y47538D01*
X383235Y47582D01*
X383271Y47620D01*
X383301Y47685D01*
X383340Y47745D01*
X383353Y47796D01*
X383375Y47843D01*
X383383Y47914D01*
X383400Y47984D01*
X383396Y48036D01*
X383402Y48087D01*
X383387Y48158D01*
X383381Y48229D01*
X383361Y48277D01*
X383350Y48328D01*
X383313Y48389D01*
X383285Y48455D01*
X383240Y48511D01*
X383223Y48539D01*
X383206Y48554D01*
X383180Y48586D01*
X371176Y60590D01*
X371138Y60617D01*
X371107Y60651D01*
X371039Y60689D01*
X370976Y60734D01*
X370932Y60747D01*
X370892Y60770D01*
X370815Y60783D01*
X370741Y60806D01*
X370695Y60805D01*
X370650Y60813D01*
X370573Y60802D01*
X370495Y60800D01*
X370452Y60784D01*
X370406Y60778D01*
X370337Y60742D01*
X370264Y60715D01*
X370228Y60687D01*
X370187Y60666D01*
X370133Y60610D01*
X370072Y60562D01*
X370047Y60523D01*
X370015Y60490D01*
X369949Y60371D01*
X369939Y60355D01*
X369938Y60350D01*
X369934Y60343D01*
X369291Y58791D01*
X367005Y56505D01*
X364017Y55267D01*
X360783Y55267D01*
X357795Y56505D01*
X355509Y58791D01*
X354271Y61779D01*
X354271Y78221D01*
X355509Y81209D01*
X357795Y83495D01*
X360783Y84733D01*
X364017Y84733D01*
X365631Y84064D01*
X365725Y84042D01*
X365818Y84013D01*
X365845Y84014D01*
X365870Y84008D01*
X365967Y84017D01*
X366064Y84020D01*
X366089Y84029D01*
X366115Y84031D01*
X366204Y84071D01*
X366295Y84104D01*
X366316Y84121D01*
X366340Y84131D01*
X366411Y84197D01*
X366487Y84258D01*
X366501Y84280D01*
X366521Y84298D01*
X366568Y84383D01*
X366620Y84465D01*
X366627Y84490D01*
X366639Y84513D01*
X366657Y84609D01*
X366680Y84703D01*
X366678Y84729D01*
X366683Y84755D01*
X366669Y84852D01*
X366661Y84949D01*
X366651Y84973D01*
X366647Y84999D01*
X366603Y85086D01*
X366565Y85175D01*
X366545Y85200D01*
X366536Y85218D01*
X366512Y85241D01*
X366460Y85306D01*
X349276Y102490D01*
X349202Y102543D01*
X349132Y102603D01*
X349102Y102615D01*
X349076Y102634D01*
X348989Y102661D01*
X348904Y102695D01*
X348863Y102699D01*
X348841Y102706D01*
X348809Y102705D01*
X348737Y102713D01*
X257358Y102713D01*
X257288Y102702D01*
X257216Y102700D01*
X257167Y102682D01*
X257116Y102674D01*
X257052Y102640D01*
X256985Y102615D01*
X256944Y102583D01*
X256898Y102558D01*
X256849Y102506D01*
X256793Y102462D01*
X256765Y102418D01*
X256729Y102380D01*
X256699Y102315D01*
X256660Y102255D01*
X256647Y102204D01*
X256625Y102157D01*
X256617Y102086D01*
X256600Y102016D01*
X256604Y101964D01*
X256598Y101913D01*
X256613Y101842D01*
X256619Y101771D01*
X256639Y101723D01*
X256650Y101672D01*
X256687Y101611D01*
X256715Y101545D01*
X256760Y101489D01*
X256777Y101461D01*
X256794Y101446D01*
X256820Y101414D01*
X257510Y100724D01*
X277834Y80400D01*
X277872Y80373D01*
X277903Y80339D01*
X277952Y80312D01*
X277959Y80306D01*
X277972Y80301D01*
X278034Y80256D01*
X278078Y80242D01*
X278118Y80220D01*
X278195Y80206D01*
X278269Y80184D01*
X278315Y80185D01*
X278360Y80177D01*
X278437Y80188D01*
X278515Y80190D01*
X278558Y80206D01*
X278604Y80212D01*
X278673Y80248D01*
X278746Y80274D01*
X278782Y80303D01*
X278823Y80324D01*
X278877Y80380D01*
X278938Y80428D01*
X278963Y80467D01*
X278995Y80500D01*
X279061Y80619D01*
X279071Y80635D01*
X279072Y80640D01*
X279076Y80646D01*
X279309Y81209D01*
X281595Y83495D01*
X284583Y84733D01*
X287817Y84733D01*
X290805Y83495D01*
X293091Y81209D01*
X294329Y78221D01*
X294329Y61779D01*
X293091Y58791D01*
X290805Y56505D01*
X287817Y55267D01*
X284583Y55267D01*
X281595Y56505D01*
X279309Y58791D01*
X278071Y61779D01*
X278071Y73380D01*
X278057Y73470D01*
X278049Y73561D01*
X278037Y73590D01*
X278032Y73622D01*
X277989Y73703D01*
X277953Y73787D01*
X277927Y73819D01*
X277916Y73840D01*
X277893Y73862D01*
X277848Y73918D01*
X254276Y97490D01*
X254202Y97543D01*
X254132Y97603D01*
X254102Y97615D01*
X254076Y97634D01*
X253989Y97661D01*
X253904Y97695D01*
X253863Y97699D01*
X253841Y97706D01*
X253809Y97705D01*
X253737Y97713D01*
X44053Y97713D01*
X17713Y124053D01*
X17713Y470947D01*
X19053Y472287D01*
X58737Y472287D01*
X58828Y472301D01*
X58918Y472309D01*
X58948Y472321D01*
X58980Y472326D01*
X59061Y472369D01*
X59145Y472405D01*
X59177Y472431D01*
X59198Y472442D01*
X59220Y472465D01*
X59276Y472510D01*
X61015Y474249D01*
X61083Y474344D01*
X61153Y474438D01*
X61155Y474444D01*
X61159Y474449D01*
X61193Y474560D01*
X61229Y474672D01*
X61229Y474678D01*
X61231Y474684D01*
X61228Y474801D01*
X61227Y474918D01*
X61225Y474925D01*
X61225Y474930D01*
X61218Y474947D01*
X61180Y475079D01*
X60267Y477283D01*
X60267Y480517D01*
X61505Y483505D01*
X63791Y485791D01*
X66779Y487029D01*
X83221Y487029D01*
X86209Y485791D01*
X88495Y483505D01*
X89733Y480517D01*
X89733Y477283D01*
X88495Y474295D01*
X86209Y472009D01*
X83221Y470771D01*
X66779Y470771D01*
X65288Y471389D01*
X65174Y471416D01*
X65060Y471444D01*
X65054Y471444D01*
X65048Y471445D01*
X64932Y471434D01*
X64815Y471425D01*
X64810Y471423D01*
X64803Y471422D01*
X64696Y471374D01*
X64589Y471329D01*
X64583Y471324D01*
X64579Y471322D01*
X64565Y471310D01*
X64458Y471224D01*
X60947Y467713D01*
X23048Y467713D01*
X23028Y467710D01*
X23009Y467712D01*
X22907Y467690D01*
X22805Y467674D01*
X22788Y467664D01*
X22768Y467660D01*
X22679Y467607D01*
X22588Y467558D01*
X22574Y467544D01*
X22557Y467534D01*
X22490Y467455D01*
X22418Y467380D01*
X22410Y467362D01*
X22397Y467347D01*
X22358Y467251D01*
X22315Y467157D01*
X22313Y467137D01*
X22305Y467119D01*
X22287Y466952D01*
X22287Y126263D01*
X22301Y126172D01*
X22309Y126082D01*
X22321Y126052D01*
X22326Y126020D01*
X22369Y125939D01*
X22405Y125855D01*
X22431Y125823D01*
X22442Y125802D01*
X22465Y125780D01*
X22510Y125724D01*
X41414Y106820D01*
X41472Y106778D01*
X41524Y106729D01*
X41571Y106707D01*
X41613Y106677D01*
X41682Y106656D01*
X41747Y106625D01*
X41799Y106620D01*
X41849Y106604D01*
X41920Y106606D01*
X41991Y106598D01*
X42042Y106609D01*
X42094Y106611D01*
X42162Y106635D01*
X42232Y106650D01*
X42277Y106677D01*
X42325Y106695D01*
X42381Y106740D01*
X42443Y106777D01*
X42477Y106816D01*
X42517Y106849D01*
X42556Y106909D01*
X42603Y106964D01*
X42622Y107012D01*
X42650Y107056D01*
X42668Y107125D01*
X42695Y107192D01*
X42703Y107263D01*
X42711Y107294D01*
X42709Y107318D01*
X42713Y107358D01*
X42713Y345947D01*
X44276Y347510D01*
X65378Y368612D01*
X65405Y368649D01*
X65439Y368681D01*
X65476Y368749D01*
X65522Y368812D01*
X65535Y368856D01*
X65557Y368896D01*
X65571Y368973D01*
X65594Y369047D01*
X65593Y369093D01*
X65601Y369138D01*
X65590Y369215D01*
X65588Y369293D01*
X65572Y369336D01*
X65565Y369381D01*
X65530Y369451D01*
X65503Y369524D01*
X65475Y369560D01*
X65454Y369601D01*
X65398Y369655D01*
X65350Y369716D01*
X65311Y369741D01*
X65278Y369773D01*
X65158Y369839D01*
X65143Y369849D01*
X65138Y369850D01*
X65131Y369854D01*
X63791Y370409D01*
X61505Y372695D01*
X60267Y375683D01*
X60267Y378917D01*
X61505Y381905D01*
X63791Y384191D01*
X66779Y385429D01*
X83221Y385429D01*
X86209Y384191D01*
X88495Y381905D01*
X89733Y378917D01*
X89733Y375683D01*
X88495Y372695D01*
X86209Y370409D01*
X83221Y369171D01*
X72721Y369171D01*
X72630Y369157D01*
X72540Y369149D01*
X72510Y369137D01*
X72478Y369132D01*
X72397Y369089D01*
X72313Y369053D01*
X72281Y369027D01*
X72260Y369016D01*
X72238Y368993D01*
X72182Y368948D01*
X63482Y360248D01*
X63425Y360169D01*
X63363Y360094D01*
X63354Y360070D01*
X63339Y360049D01*
X63310Y359956D01*
X63275Y359865D01*
X63274Y359839D01*
X63266Y359814D01*
X63269Y359716D01*
X63265Y359619D01*
X63272Y359594D01*
X63273Y359568D01*
X63306Y359476D01*
X63333Y359383D01*
X63348Y359361D01*
X63357Y359337D01*
X63418Y359261D01*
X63474Y359181D01*
X63495Y359165D01*
X63511Y359145D01*
X63593Y359092D01*
X63671Y359034D01*
X63696Y359026D01*
X63718Y359012D01*
X63812Y358988D01*
X63905Y358958D01*
X63931Y358958D01*
X63956Y358952D01*
X64053Y358959D01*
X64151Y358960D01*
X64182Y358969D01*
X64202Y358971D01*
X64232Y358984D01*
X64312Y359007D01*
X66779Y360029D01*
X83221Y360029D01*
X86209Y358791D01*
X88495Y356505D01*
X89733Y353517D01*
X89733Y350283D01*
X88495Y347295D01*
X86209Y345009D01*
X83221Y343771D01*
X66779Y343771D01*
X63791Y345009D01*
X61505Y347295D01*
X60267Y350283D01*
X60267Y353517D01*
X61289Y355984D01*
X61311Y356079D01*
X61340Y356172D01*
X61339Y356198D01*
X61345Y356224D01*
X61336Y356320D01*
X61334Y356418D01*
X61325Y356442D01*
X61322Y356468D01*
X61283Y356558D01*
X61249Y356649D01*
X61233Y356669D01*
X61222Y356693D01*
X61156Y356765D01*
X61096Y356841D01*
X61074Y356855D01*
X61056Y356874D01*
X60971Y356921D01*
X60889Y356974D01*
X60863Y356980D01*
X60840Y356993D01*
X60744Y357010D01*
X60650Y357034D01*
X60624Y357032D01*
X60598Y357037D01*
X60502Y357022D01*
X60405Y357015D01*
X60381Y357005D01*
X60355Y357001D01*
X60268Y356957D01*
X60179Y356919D01*
X60153Y356898D01*
X60136Y356889D01*
X60112Y356866D01*
X60048Y356814D01*
X47510Y344276D01*
X47457Y344202D01*
X47397Y344132D01*
X47385Y344102D01*
X47366Y344076D01*
X47339Y343989D01*
X47305Y343904D01*
X47301Y343863D01*
X47294Y343841D01*
X47295Y343809D01*
X47287Y343737D01*
X47287Y229359D01*
X47295Y229311D01*
X47293Y229262D01*
X47314Y229190D01*
X47326Y229116D01*
X47349Y229073D01*
X47363Y229026D01*
X47407Y228965D01*
X47442Y228899D01*
X47477Y228865D01*
X47505Y228825D01*
X47566Y228781D01*
X47620Y228730D01*
X47664Y228709D01*
X47704Y228680D01*
X47775Y228657D01*
X47843Y228626D01*
X47892Y228621D01*
X47938Y228606D01*
X48013Y228607D01*
X48087Y228599D01*
X48135Y228609D01*
X48184Y228610D01*
X48255Y228635D01*
X48328Y228651D01*
X48370Y228676D01*
X48416Y228693D01*
X48475Y228739D01*
X48539Y228777D01*
X48571Y228815D01*
X48609Y228845D01*
X48650Y228907D01*
X48699Y228964D01*
X48717Y229010D01*
X48744Y229051D01*
X48782Y229170D01*
X48791Y229192D01*
X48792Y229202D01*
X48795Y229211D01*
X48807Y229271D01*
X49496Y230936D01*
X50497Y232434D01*
X51770Y233707D01*
X53268Y234708D01*
X54933Y235397D01*
X56077Y235625D01*
X56077Y220762D01*
X56080Y220742D01*
X56078Y220723D01*
X56100Y220621D01*
X56117Y220519D01*
X56126Y220502D01*
X56130Y220482D01*
X56183Y220393D01*
X56232Y220302D01*
X56246Y220288D01*
X56256Y220271D01*
X56335Y220204D01*
X56410Y220133D01*
X56428Y220124D01*
X56443Y220111D01*
X56539Y220073D01*
X56633Y220029D01*
X56653Y220027D01*
X56671Y220019D01*
X56838Y220001D01*
X57601Y220001D01*
X57601Y219999D01*
X56838Y219999D01*
X56818Y219996D01*
X56799Y219998D01*
X56697Y219976D01*
X56595Y219959D01*
X56578Y219950D01*
X56558Y219946D01*
X56469Y219893D01*
X56378Y219844D01*
X56364Y219830D01*
X56347Y219820D01*
X56280Y219741D01*
X56209Y219666D01*
X56200Y219648D01*
X56187Y219633D01*
X56148Y219537D01*
X56105Y219443D01*
X56103Y219423D01*
X56095Y219405D01*
X56077Y219238D01*
X56077Y204375D01*
X54933Y204603D01*
X53268Y205292D01*
X51770Y206293D01*
X50497Y207566D01*
X49496Y209064D01*
X48807Y210729D01*
X48795Y210789D01*
X48777Y210835D01*
X48769Y210884D01*
X48735Y210950D01*
X48708Y211020D01*
X48677Y211058D01*
X48654Y211101D01*
X48600Y211152D01*
X48553Y211210D01*
X48512Y211237D01*
X48476Y211270D01*
X48408Y211302D01*
X48345Y211342D01*
X48297Y211353D01*
X48253Y211374D01*
X48179Y211382D01*
X48106Y211400D01*
X48057Y211396D01*
X48009Y211401D01*
X47936Y211385D01*
X47861Y211379D01*
X47816Y211359D01*
X47768Y211349D01*
X47704Y211311D01*
X47636Y211281D01*
X47599Y211248D01*
X47557Y211223D01*
X47509Y211166D01*
X47453Y211116D01*
X47429Y211073D01*
X47397Y211036D01*
X47369Y210966D01*
X47333Y210901D01*
X47324Y210853D01*
X47305Y210808D01*
X47291Y210683D01*
X47287Y210660D01*
X47288Y210650D01*
X47287Y210641D01*
X47287Y108048D01*
X47290Y108028D01*
X47288Y108009D01*
X47310Y107907D01*
X47326Y107805D01*
X47336Y107788D01*
X47340Y107768D01*
X47393Y107679D01*
X47442Y107588D01*
X47456Y107574D01*
X47466Y107557D01*
X47545Y107490D01*
X47620Y107418D01*
X47638Y107410D01*
X47653Y107397D01*
X47749Y107358D01*
X47843Y107315D01*
X47863Y107313D01*
X47881Y107305D01*
X48048Y107287D01*
X350947Y107287D01*
X378966Y79268D01*
X379003Y79241D01*
X379034Y79208D01*
X379102Y79170D01*
X379166Y79125D01*
X379209Y79111D01*
X379250Y79089D01*
X379326Y79075D01*
X379401Y79052D01*
X379446Y79053D01*
X379492Y79045D01*
X379569Y79057D01*
X379646Y79059D01*
X379690Y79074D01*
X379735Y79081D01*
X379804Y79116D01*
X379877Y79143D01*
X379913Y79172D01*
X379954Y79193D01*
X380009Y79248D01*
X380070Y79297D01*
X380094Y79335D01*
X380126Y79368D01*
X380192Y79488D01*
X380203Y79504D01*
X380204Y79509D01*
X380207Y79515D01*
X380909Y81209D01*
X383195Y83495D01*
X386183Y84733D01*
X389417Y84733D01*
X390348Y84347D01*
X390442Y84325D01*
X390536Y84296D01*
X390562Y84297D01*
X390587Y84291D01*
X390684Y84300D01*
X390782Y84303D01*
X390806Y84312D01*
X390832Y84314D01*
X390921Y84354D01*
X391013Y84387D01*
X391033Y84403D01*
X391057Y84414D01*
X391129Y84480D01*
X391205Y84541D01*
X391219Y84563D01*
X391238Y84580D01*
X391285Y84666D01*
X391338Y84748D01*
X391344Y84773D01*
X391357Y84796D01*
X391374Y84892D01*
X391398Y84986D01*
X391396Y85012D01*
X391400Y85038D01*
X391386Y85135D01*
X391378Y85231D01*
X391368Y85255D01*
X391364Y85281D01*
X391320Y85368D01*
X391282Y85458D01*
X391262Y85483D01*
X391253Y85501D01*
X391229Y85524D01*
X391177Y85589D01*
X389276Y87490D01*
X389202Y87543D01*
X389132Y87603D01*
X389102Y87615D01*
X389076Y87634D01*
X388989Y87661D01*
X388904Y87695D01*
X388863Y87699D01*
X388841Y87706D01*
X388809Y87705D01*
X388737Y87713D01*
X384053Y87713D01*
X382490Y89276D01*
X367296Y104470D01*
X367222Y104523D01*
X367152Y104583D01*
X367122Y104595D01*
X367096Y104614D01*
X367009Y104641D01*
X366924Y104675D01*
X366883Y104679D01*
X366861Y104686D01*
X366829Y104685D01*
X366758Y104693D01*
X362802Y104693D01*
X359693Y107802D01*
X359693Y112198D01*
X362802Y115307D01*
X364622Y115307D01*
X364692Y115318D01*
X364764Y115320D01*
X364813Y115338D01*
X364864Y115346D01*
X364928Y115380D01*
X364995Y115405D01*
X365036Y115437D01*
X365082Y115462D01*
X365131Y115514D01*
X365187Y115558D01*
X365215Y115602D01*
X365251Y115640D01*
X365281Y115705D01*
X365320Y115765D01*
X365333Y115816D01*
X365355Y115863D01*
X365363Y115934D01*
X365380Y116004D01*
X365376Y116056D01*
X365382Y116107D01*
X365367Y116178D01*
X365361Y116249D01*
X365341Y116297D01*
X365330Y116348D01*
X365293Y116409D01*
X365265Y116475D01*
X365220Y116531D01*
X365203Y116559D01*
X365186Y116574D01*
X365160Y116606D01*
X314276Y167490D01*
X314202Y167543D01*
X314132Y167603D01*
X314102Y167615D01*
X314076Y167634D01*
X313989Y167661D01*
X313904Y167695D01*
X313863Y167699D01*
X313841Y167706D01*
X313809Y167705D01*
X313737Y167713D01*
X234053Y167713D01*
X192731Y209035D01*
X192694Y209062D01*
X192663Y209095D01*
X192595Y209133D01*
X192532Y209178D01*
X192488Y209192D01*
X192447Y209214D01*
X192371Y209228D01*
X192296Y209251D01*
X192251Y209250D01*
X192205Y209258D01*
X192128Y209246D01*
X192051Y209244D01*
X192007Y209229D01*
X191962Y209222D01*
X191893Y209187D01*
X191820Y209160D01*
X191784Y209131D01*
X191743Y209110D01*
X191688Y209055D01*
X191628Y209006D01*
X191603Y208968D01*
X191571Y208935D01*
X191505Y208815D01*
X191495Y208799D01*
X191493Y208794D01*
X191492Y208793D01*
X189205Y206505D01*
X186217Y205267D01*
X182983Y205267D01*
X179995Y206505D01*
X177709Y208791D01*
X176471Y211779D01*
X176471Y228221D01*
X177709Y231209D01*
X179995Y233495D01*
X182983Y234733D01*
X186217Y234733D01*
X189205Y233495D01*
X191491Y231209D01*
X192729Y228221D01*
X192729Y215821D01*
X192743Y215730D01*
X192751Y215640D01*
X192763Y215610D01*
X192768Y215578D01*
X192811Y215497D01*
X192847Y215413D01*
X192873Y215381D01*
X192884Y215360D01*
X192907Y215338D01*
X192952Y215282D01*
X231414Y176820D01*
X231472Y176778D01*
X231524Y176729D01*
X231571Y176707D01*
X231613Y176677D01*
X231682Y176656D01*
X231747Y176625D01*
X231799Y176620D01*
X231849Y176604D01*
X231920Y176606D01*
X231991Y176598D01*
X232042Y176609D01*
X232094Y176611D01*
X232162Y176635D01*
X232232Y176650D01*
X232277Y176677D01*
X232325Y176695D01*
X232381Y176740D01*
X232443Y176777D01*
X232477Y176816D01*
X232517Y176849D01*
X232556Y176909D01*
X232603Y176964D01*
X232622Y177012D01*
X232650Y177056D01*
X232668Y177125D01*
X232695Y177192D01*
X232703Y177263D01*
X232711Y177294D01*
X232709Y177318D01*
X232713Y177358D01*
X232713Y205202D01*
X232694Y205317D01*
X232677Y205433D01*
X232675Y205438D01*
X232674Y205445D01*
X232619Y205547D01*
X232566Y205652D01*
X232561Y205656D01*
X232558Y205662D01*
X232474Y205742D01*
X232390Y205824D01*
X232384Y205828D01*
X232380Y205831D01*
X232363Y205839D01*
X232243Y205905D01*
X230795Y206505D01*
X228509Y208791D01*
X227271Y211779D01*
X227271Y228221D01*
X228509Y231209D01*
X230795Y233495D01*
X233783Y234733D01*
X237017Y234733D01*
X240005Y233495D01*
X242291Y231209D01*
X243529Y228221D01*
X243529Y211779D01*
X242291Y208791D01*
X240005Y206505D01*
X237757Y205574D01*
X237657Y205512D01*
X237557Y205452D01*
X237553Y205447D01*
X237548Y205444D01*
X237473Y205354D01*
X237397Y205265D01*
X237395Y205259D01*
X237391Y205255D01*
X237349Y205146D01*
X237305Y205037D01*
X237304Y205030D01*
X237303Y205025D01*
X237302Y205007D01*
X237287Y204870D01*
X237287Y178048D01*
X237290Y178028D01*
X237288Y178009D01*
X237310Y177907D01*
X237326Y177805D01*
X237336Y177788D01*
X237340Y177768D01*
X237393Y177679D01*
X237442Y177588D01*
X237456Y177574D01*
X237466Y177557D01*
X237545Y177490D01*
X237620Y177418D01*
X237638Y177410D01*
X237653Y177397D01*
X237749Y177358D01*
X237843Y177315D01*
X237863Y177313D01*
X237881Y177305D01*
X238048Y177287D01*
X325947Y177287D01*
X378394Y124840D01*
X378452Y124798D01*
X378504Y124749D01*
X378551Y124727D01*
X378593Y124697D01*
X378662Y124676D01*
X378727Y124645D01*
X378779Y124640D01*
X378829Y124624D01*
X378900Y124626D01*
X378971Y124618D01*
X379022Y124629D01*
X379074Y124631D01*
X379142Y124655D01*
X379212Y124670D01*
X379257Y124697D01*
X379305Y124715D01*
X379361Y124760D01*
X379423Y124797D01*
X379457Y124836D01*
X379497Y124869D01*
X379536Y124929D01*
X379583Y124984D01*
X379602Y125032D01*
X379630Y125076D01*
X379648Y125145D01*
X379675Y125212D01*
X379683Y125283D01*
X379691Y125314D01*
X379689Y125338D01*
X379693Y125378D01*
X379693Y127198D01*
X382802Y130307D01*
X386758Y130307D01*
X386848Y130321D01*
X386939Y130329D01*
X386968Y130341D01*
X387000Y130346D01*
X387081Y130389D01*
X387165Y130425D01*
X387197Y130451D01*
X387218Y130462D01*
X387240Y130485D01*
X387296Y130530D01*
X392490Y135724D01*
X394053Y137287D01*
X467642Y137287D01*
X467712Y137298D01*
X467784Y137300D01*
X467833Y137318D01*
X467884Y137326D01*
X467948Y137360D01*
X468015Y137385D01*
X468056Y137417D01*
X468102Y137442D01*
X468151Y137494D01*
X468207Y137538D01*
X468235Y137582D01*
X468271Y137620D01*
X468301Y137685D01*
X468340Y137745D01*
X468353Y137796D01*
X468375Y137843D01*
X468383Y137914D01*
X468400Y137984D01*
X468396Y138036D01*
X468402Y138087D01*
X468387Y138158D01*
X468381Y138229D01*
X468361Y138277D01*
X468350Y138328D01*
X468313Y138389D01*
X468285Y138455D01*
X468240Y138511D01*
X468223Y138539D01*
X468221Y138541D01*
X468221Y138542D01*
X468205Y138555D01*
X468180Y138586D01*
X467490Y139276D01*
X396458Y210308D01*
X396421Y210334D01*
X396390Y210368D01*
X396322Y210406D01*
X396259Y210451D01*
X396215Y210465D01*
X396175Y210487D01*
X396098Y210501D01*
X396024Y210523D01*
X395978Y210522D01*
X395933Y210530D01*
X395856Y210519D01*
X395778Y210517D01*
X395735Y210501D01*
X395689Y210495D01*
X395620Y210459D01*
X395547Y210433D01*
X395511Y210404D01*
X395470Y210383D01*
X395415Y210328D01*
X395355Y210279D01*
X395330Y210240D01*
X395298Y210208D01*
X395232Y210088D01*
X395222Y210072D01*
X395221Y210067D01*
X395217Y210061D01*
X394691Y208791D01*
X392506Y206606D01*
X392464Y206548D01*
X392415Y206496D01*
X392393Y206449D01*
X392362Y206407D01*
X392341Y206338D01*
X392311Y206273D01*
X392305Y206221D01*
X392290Y206171D01*
X392292Y206100D01*
X392292Y206098D01*
X392233Y206141D01*
X392208Y206149D01*
X392186Y206164D01*
X392092Y206187D01*
X391999Y206217D01*
X391973Y206217D01*
X391948Y206224D01*
X391851Y206216D01*
X391753Y206215D01*
X391722Y206206D01*
X391703Y206204D01*
X391672Y206192D01*
X391592Y206168D01*
X389417Y205267D01*
X386183Y205267D01*
X383195Y206505D01*
X380909Y208791D01*
X379671Y211779D01*
X379671Y228221D01*
X380909Y231209D01*
X383195Y233495D01*
X386183Y234733D01*
X389417Y234733D01*
X390348Y234347D01*
X390443Y234325D01*
X390536Y234296D01*
X390562Y234297D01*
X390587Y234291D01*
X390684Y234300D01*
X390782Y234303D01*
X390806Y234312D01*
X390832Y234314D01*
X390921Y234354D01*
X391013Y234387D01*
X391033Y234403D01*
X391057Y234414D01*
X391129Y234480D01*
X391205Y234541D01*
X391219Y234563D01*
X391238Y234580D01*
X391285Y234666D01*
X391338Y234748D01*
X391344Y234773D01*
X391357Y234796D01*
X391374Y234892D01*
X391398Y234986D01*
X391396Y235012D01*
X391400Y235038D01*
X391386Y235135D01*
X391378Y235231D01*
X391368Y235255D01*
X391364Y235281D01*
X391320Y235368D01*
X391282Y235458D01*
X391262Y235483D01*
X391253Y235501D01*
X391229Y235524D01*
X391177Y235589D01*
X339276Y287490D01*
X339202Y287543D01*
X339132Y287603D01*
X339102Y287615D01*
X339076Y287634D01*
X338989Y287661D01*
X338904Y287695D01*
X338863Y287699D01*
X338841Y287706D01*
X338809Y287705D01*
X338737Y287713D01*
X336262Y287713D01*
X336172Y287699D01*
X336081Y287691D01*
X336052Y287679D01*
X336020Y287674D01*
X335939Y287631D01*
X335855Y287595D01*
X335823Y287569D01*
X335802Y287558D01*
X335780Y287535D01*
X335724Y287490D01*
X330947Y282713D01*
X329973Y282713D01*
X329877Y282698D01*
X329780Y282688D01*
X329756Y282678D01*
X329730Y282674D01*
X329644Y282628D01*
X329555Y282588D01*
X329536Y282571D01*
X329513Y282558D01*
X329446Y282488D01*
X329374Y282422D01*
X329362Y282399D01*
X329344Y282380D01*
X329303Y282292D01*
X329256Y282206D01*
X329251Y282181D01*
X329240Y282157D01*
X329229Y282060D01*
X329212Y281964D01*
X329216Y281938D01*
X329213Y281913D01*
X329234Y281817D01*
X329248Y281721D01*
X329260Y281698D01*
X329265Y281672D01*
X329315Y281589D01*
X329359Y281502D01*
X329378Y281483D01*
X329391Y281461D01*
X329465Y281398D01*
X329535Y281330D01*
X329564Y281314D01*
X329578Y281301D01*
X329609Y281289D01*
X329682Y281249D01*
X332280Y280173D01*
X334853Y277600D01*
X336245Y274239D01*
X336245Y255361D01*
X334853Y252000D01*
X332280Y249427D01*
X328919Y248035D01*
X325281Y248035D01*
X321920Y249427D01*
X319347Y252000D01*
X317955Y255361D01*
X317955Y274239D01*
X319347Y277600D01*
X321920Y280173D01*
X324518Y281249D01*
X324601Y281300D01*
X324687Y281346D01*
X324705Y281364D01*
X324727Y281378D01*
X324789Y281454D01*
X324856Y281524D01*
X324867Y281548D01*
X324884Y281568D01*
X324919Y281659D01*
X324960Y281747D01*
X324963Y281773D01*
X324972Y281797D01*
X324976Y281895D01*
X324987Y281991D01*
X324981Y282017D01*
X324983Y282043D01*
X324955Y282137D01*
X324935Y282232D01*
X324921Y282254D01*
X324914Y282279D01*
X324859Y282359D01*
X324809Y282443D01*
X324789Y282460D01*
X324774Y282481D01*
X324696Y282540D01*
X324622Y282603D01*
X324597Y282613D01*
X324576Y282628D01*
X324484Y282658D01*
X324394Y282695D01*
X324361Y282698D01*
X324343Y282704D01*
X324310Y282704D01*
X324227Y282713D01*
X304573Y282713D01*
X304477Y282698D01*
X304380Y282688D01*
X304356Y282678D01*
X304330Y282674D01*
X304244Y282628D01*
X304155Y282588D01*
X304136Y282571D01*
X304113Y282558D01*
X304046Y282488D01*
X303974Y282422D01*
X303962Y282399D01*
X303944Y282380D01*
X303903Y282292D01*
X303856Y282206D01*
X303851Y282181D01*
X303840Y282157D01*
X303829Y282060D01*
X303812Y281964D01*
X303816Y281938D01*
X303813Y281913D01*
X303834Y281817D01*
X303848Y281721D01*
X303860Y281698D01*
X303865Y281672D01*
X303915Y281589D01*
X303959Y281502D01*
X303978Y281483D01*
X303991Y281461D01*
X304065Y281398D01*
X304135Y281330D01*
X304164Y281314D01*
X304178Y281301D01*
X304209Y281289D01*
X304282Y281249D01*
X306880Y280173D01*
X309453Y277600D01*
X310845Y274239D01*
X310845Y255361D01*
X309453Y252000D01*
X306880Y249427D01*
X303519Y248035D01*
X299881Y248035D01*
X296520Y249427D01*
X293947Y252000D01*
X292555Y255361D01*
X292555Y274239D01*
X293947Y277600D01*
X296520Y280173D01*
X299118Y281249D01*
X299201Y281300D01*
X299287Y281346D01*
X299305Y281364D01*
X299327Y281378D01*
X299389Y281454D01*
X299456Y281524D01*
X299467Y281548D01*
X299484Y281568D01*
X299519Y281659D01*
X299560Y281747D01*
X299563Y281773D01*
X299572Y281797D01*
X299576Y281895D01*
X299587Y281991D01*
X299581Y282017D01*
X299583Y282043D01*
X299555Y282137D01*
X299535Y282232D01*
X299521Y282254D01*
X299514Y282279D01*
X299459Y282359D01*
X299409Y282443D01*
X299389Y282460D01*
X299374Y282481D01*
X299296Y282540D01*
X299222Y282603D01*
X299197Y282613D01*
X299176Y282628D01*
X299084Y282658D01*
X298994Y282695D01*
X298961Y282698D01*
X298943Y282704D01*
X298910Y282704D01*
X298827Y282713D01*
X296263Y282713D01*
X296172Y282699D01*
X296082Y282691D01*
X296052Y282679D01*
X296020Y282674D01*
X295939Y282631D01*
X295855Y282595D01*
X295823Y282569D01*
X295802Y282558D01*
X295780Y282535D01*
X295777Y282533D01*
X295775Y282531D01*
X295724Y282490D01*
X280947Y267713D01*
X180533Y267713D01*
X180443Y267699D01*
X180352Y267691D01*
X180323Y267679D01*
X180291Y267674D01*
X180210Y267631D01*
X180126Y267595D01*
X180094Y267569D01*
X180073Y267558D01*
X180051Y267535D01*
X179995Y267490D01*
X177198Y264693D01*
X172802Y264693D01*
X169693Y267802D01*
X169693Y272198D01*
X172802Y275307D01*
X177198Y275307D01*
X179995Y272510D01*
X180069Y272457D01*
X180139Y272397D01*
X180169Y272385D01*
X180195Y272366D01*
X180282Y272339D01*
X180367Y272305D01*
X180408Y272301D01*
X180430Y272294D01*
X180462Y272295D01*
X180533Y272287D01*
X182642Y272287D01*
X182712Y272298D01*
X182784Y272300D01*
X182833Y272318D01*
X182884Y272326D01*
X182948Y272360D01*
X183015Y272385D01*
X183056Y272417D01*
X183102Y272442D01*
X183151Y272494D01*
X183207Y272538D01*
X183235Y272582D01*
X183271Y272620D01*
X183301Y272685D01*
X183340Y272745D01*
X183353Y272796D01*
X183375Y272843D01*
X183383Y272914D01*
X183400Y272984D01*
X183396Y273036D01*
X183402Y273087D01*
X183387Y273158D01*
X183381Y273229D01*
X183361Y273277D01*
X183350Y273328D01*
X183313Y273389D01*
X183285Y273455D01*
X183240Y273511D01*
X183223Y273539D01*
X183206Y273554D01*
X183180Y273586D01*
X182490Y274276D01*
X177296Y279470D01*
X177222Y279523D01*
X177152Y279583D01*
X177122Y279595D01*
X177096Y279614D01*
X177009Y279641D01*
X176924Y279675D01*
X176883Y279679D01*
X176861Y279686D01*
X176829Y279685D01*
X176758Y279693D01*
X172802Y279693D01*
X169693Y282802D01*
X169693Y286952D01*
X169690Y286972D01*
X169692Y286991D01*
X169670Y287093D01*
X169654Y287195D01*
X169644Y287212D01*
X169640Y287232D01*
X169587Y287321D01*
X169538Y287412D01*
X169524Y287426D01*
X169514Y287443D01*
X169435Y287510D01*
X169360Y287582D01*
X169342Y287590D01*
X169327Y287603D01*
X169231Y287642D01*
X169137Y287685D01*
X169117Y287687D01*
X169099Y287695D01*
X168932Y287713D01*
X141263Y287713D01*
X141172Y287699D01*
X141082Y287691D01*
X141052Y287679D01*
X141020Y287674D01*
X140939Y287631D01*
X140855Y287595D01*
X140823Y287569D01*
X140802Y287558D01*
X140780Y287535D01*
X140724Y287490D01*
X132172Y278939D01*
X132105Y278844D01*
X132035Y278750D01*
X132033Y278744D01*
X132029Y278739D01*
X131995Y278628D01*
X131958Y278516D01*
X131958Y278510D01*
X131957Y278504D01*
X131960Y278387D01*
X131961Y278270D01*
X131963Y278263D01*
X131963Y278258D01*
X131969Y278240D01*
X132007Y278109D01*
X133445Y274639D01*
X133445Y255761D01*
X132053Y252400D01*
X129480Y249827D01*
X126119Y248435D01*
X122481Y248435D01*
X119120Y249827D01*
X116547Y252400D01*
X115155Y255761D01*
X115155Y274639D01*
X116547Y278000D01*
X119120Y280573D01*
X122481Y281965D01*
X126119Y281965D01*
X127496Y281394D01*
X127609Y281368D01*
X127723Y281339D01*
X127729Y281340D01*
X127735Y281338D01*
X127852Y281349D01*
X127968Y281358D01*
X127974Y281361D01*
X127980Y281361D01*
X128088Y281409D01*
X128195Y281455D01*
X128200Y281459D01*
X128205Y281461D01*
X128219Y281474D01*
X128326Y281559D01*
X139053Y292287D01*
X168737Y292287D01*
X168828Y292301D01*
X168918Y292309D01*
X168948Y292321D01*
X168980Y292326D01*
X169061Y292369D01*
X169145Y292405D01*
X169177Y292431D01*
X169198Y292442D01*
X169220Y292465D01*
X169276Y292510D01*
X194813Y318047D01*
X194839Y318084D01*
X194873Y318115D01*
X194911Y318183D01*
X194956Y318246D01*
X194970Y318290D01*
X194992Y318330D01*
X195006Y318407D01*
X195029Y318481D01*
X195027Y318527D01*
X195035Y318572D01*
X195024Y318649D01*
X195022Y318727D01*
X195006Y318770D01*
X195000Y318816D01*
X194964Y318885D01*
X194938Y318958D01*
X194909Y318994D01*
X194888Y319035D01*
X194833Y319090D01*
X194784Y319150D01*
X194745Y319175D01*
X194713Y319207D01*
X194593Y319273D01*
X194577Y319283D01*
X194572Y319284D01*
X194566Y319288D01*
X193791Y319609D01*
X191505Y321895D01*
X190267Y324883D01*
X190267Y328117D01*
X191505Y331105D01*
X193791Y333391D01*
X196779Y334629D01*
X213221Y334629D01*
X216209Y333391D01*
X218495Y331105D01*
X219733Y328117D01*
X219733Y328048D01*
X219736Y328028D01*
X219734Y328009D01*
X219756Y327907D01*
X219772Y327805D01*
X219782Y327788D01*
X219786Y327768D01*
X219839Y327679D01*
X219888Y327588D01*
X219902Y327574D01*
X219912Y327557D01*
X219991Y327490D01*
X220066Y327418D01*
X220084Y327410D01*
X220099Y327397D01*
X220195Y327358D01*
X220289Y327315D01*
X220309Y327313D01*
X220327Y327305D01*
X220494Y327287D01*
X288737Y327287D01*
X288828Y327301D01*
X288918Y327309D01*
X288948Y327321D01*
X288980Y327326D01*
X289061Y327369D01*
X289145Y327405D01*
X289177Y327431D01*
X289198Y327442D01*
X289220Y327465D01*
X289276Y327510D01*
X294053Y332287D01*
X305947Y332287D01*
X318011Y320223D01*
X318048Y320196D01*
X318079Y320163D01*
X318147Y320125D01*
X318210Y320080D01*
X318254Y320066D01*
X318295Y320044D01*
X318371Y320030D01*
X318445Y320007D01*
X318491Y320009D01*
X318537Y320000D01*
X318614Y320012D01*
X318691Y320014D01*
X318734Y320029D01*
X318780Y320036D01*
X318849Y320071D01*
X318922Y320098D01*
X318958Y320127D01*
X318999Y320148D01*
X319054Y320203D01*
X319114Y320252D01*
X319139Y320291D01*
X319171Y320323D01*
X319237Y320443D01*
X319247Y320459D01*
X319249Y320464D01*
X319252Y320470D01*
X319347Y320700D01*
X321920Y323273D01*
X325281Y324665D01*
X328919Y324665D01*
X332280Y323273D01*
X334853Y320700D01*
X336245Y317339D01*
X336245Y298461D01*
X334893Y295198D01*
X334871Y295104D01*
X334842Y295011D01*
X334843Y294984D01*
X334837Y294959D01*
X334846Y294862D01*
X334849Y294765D01*
X334858Y294740D01*
X334860Y294714D01*
X334900Y294625D01*
X334933Y294534D01*
X334950Y294513D01*
X334960Y294489D01*
X335026Y294418D01*
X335087Y294342D01*
X335109Y294327D01*
X335127Y294308D01*
X335212Y294261D01*
X335294Y294209D01*
X335319Y294202D01*
X335342Y294190D01*
X335438Y294172D01*
X335532Y294149D01*
X335558Y294151D01*
X335584Y294146D01*
X335681Y294160D01*
X335778Y294168D01*
X335802Y294178D01*
X335828Y294182D01*
X335915Y294226D01*
X336004Y294264D01*
X336029Y294284D01*
X336047Y294293D01*
X336070Y294317D01*
X336135Y294369D01*
X347490Y305724D01*
X347543Y305798D01*
X347603Y305868D01*
X347615Y305898D01*
X347634Y305924D01*
X347661Y306011D01*
X347695Y306096D01*
X347699Y306137D01*
X347706Y306159D01*
X347705Y306191D01*
X347713Y306263D01*
X347713Y416952D01*
X347710Y416972D01*
X347712Y416991D01*
X347690Y417093D01*
X347674Y417195D01*
X347664Y417212D01*
X347660Y417232D01*
X347607Y417321D01*
X347558Y417412D01*
X347544Y417426D01*
X347534Y417443D01*
X347455Y417510D01*
X347380Y417582D01*
X347362Y417590D01*
X347347Y417603D01*
X347251Y417642D01*
X347157Y417685D01*
X347137Y417687D01*
X347119Y417695D01*
X346952Y417713D01*
X346590Y417713D01*
X346570Y417710D01*
X346551Y417712D01*
X346449Y417690D01*
X346347Y417674D01*
X346330Y417664D01*
X346310Y417660D01*
X346221Y417607D01*
X346130Y417558D01*
X346116Y417544D01*
X346099Y417534D01*
X346032Y417455D01*
X345960Y417380D01*
X345952Y417362D01*
X345939Y417347D01*
X345900Y417251D01*
X345857Y417157D01*
X345855Y417137D01*
X345847Y417119D01*
X345829Y416952D01*
X345829Y411779D01*
X344591Y408791D01*
X342305Y406505D01*
X339317Y405267D01*
X336083Y405267D01*
X333095Y406505D01*
X330809Y408791D01*
X329571Y411779D01*
X329571Y428221D01*
X330809Y431209D01*
X333095Y433495D01*
X336083Y434733D01*
X339317Y434733D01*
X342305Y433495D01*
X344591Y431209D01*
X345829Y428221D01*
X345829Y423048D01*
X345832Y423028D01*
X345830Y423009D01*
X345852Y422907D01*
X345868Y422805D01*
X345878Y422788D01*
X345882Y422768D01*
X345935Y422679D01*
X345984Y422588D01*
X345998Y422574D01*
X346008Y422557D01*
X346087Y422490D01*
X346162Y422418D01*
X346180Y422410D01*
X346195Y422397D01*
X346291Y422358D01*
X346385Y422315D01*
X346405Y422313D01*
X346423Y422305D01*
X346590Y422287D01*
X350947Y422287D01*
X352287Y420947D01*
X352287Y304053D01*
X350724Y302490D01*
X341272Y293038D01*
X341261Y293022D01*
X341245Y293010D01*
X341189Y292922D01*
X341129Y292839D01*
X341123Y292820D01*
X341112Y292803D01*
X341087Y292702D01*
X341056Y292603D01*
X341057Y292584D01*
X341052Y292564D01*
X341060Y292461D01*
X341063Y292358D01*
X341070Y292339D01*
X341071Y292319D01*
X341111Y292224D01*
X341147Y292127D01*
X341160Y292111D01*
X341167Y292093D01*
X341272Y291962D01*
X433090Y200144D01*
X433147Y200103D01*
X433197Y200055D01*
X433246Y200032D01*
X433290Y200000D01*
X433357Y199980D01*
X433420Y199950D01*
X433474Y199944D01*
X433525Y199928D01*
X433595Y199930D01*
X433664Y199922D01*
X433717Y199933D01*
X433771Y199934D01*
X433837Y199958D01*
X433905Y199973D01*
X433951Y200000D01*
X434002Y200019D01*
X434057Y200062D01*
X434117Y200098D01*
X434152Y200139D01*
X434194Y200172D01*
X434232Y200231D01*
X434277Y200284D01*
X434298Y200334D01*
X434327Y200379D01*
X434344Y200447D01*
X434370Y200512D01*
X434374Y200566D01*
X434387Y200618D01*
X434382Y200688D01*
X434386Y200757D01*
X434372Y200809D01*
X434368Y200863D01*
X434341Y200927D01*
X434322Y200995D01*
X434284Y201060D01*
X434272Y201089D01*
X434253Y201113D01*
X434237Y201139D01*
X421168Y218531D01*
X409768Y240253D01*
X401999Y263521D01*
X398064Y287735D01*
X398064Y312265D01*
X401999Y336479D01*
X409768Y359747D01*
X421168Y381469D01*
X435905Y401080D01*
X453596Y418073D01*
X473785Y432008D01*
X495948Y442524D01*
X519510Y449349D01*
X543862Y452306D01*
X568373Y451319D01*
X592409Y446412D01*
X615346Y437713D01*
X636590Y425447D01*
X655592Y409933D01*
X671859Y391571D01*
X684970Y370838D01*
X694585Y348270D01*
X700456Y324452D01*
X702430Y300000D01*
X700456Y275548D01*
X694585Y251730D01*
X684970Y229162D01*
X671859Y208429D01*
X655592Y190067D01*
X636590Y174553D01*
X615346Y162287D01*
X592409Y153588D01*
X568924Y148794D01*
X568880Y148777D01*
X568833Y148769D01*
X568766Y148734D01*
X568694Y148706D01*
X568658Y148676D01*
X568616Y148654D01*
X568563Y148599D01*
X568504Y148550D01*
X568479Y148510D01*
X568447Y148476D01*
X568414Y148407D01*
X568374Y148341D01*
X568363Y148296D01*
X568343Y148253D01*
X568335Y148177D01*
X568317Y148102D01*
X568321Y148055D01*
X568316Y148009D01*
X568332Y147934D01*
X568339Y147857D01*
X568358Y147814D01*
X568368Y147768D01*
X568407Y147702D01*
X568438Y147632D01*
X568470Y147597D01*
X568494Y147557D01*
X568553Y147507D01*
X568604Y147451D01*
X568645Y147428D01*
X568681Y147397D01*
X568753Y147368D01*
X568819Y147331D01*
X568866Y147323D01*
X568909Y147305D01*
X569041Y147291D01*
X569061Y147287D01*
X569069Y147288D01*
X569076Y147287D01*
X673737Y147287D01*
X673828Y147301D01*
X673918Y147309D01*
X673948Y147321D01*
X673980Y147326D01*
X674061Y147369D01*
X674145Y147405D01*
X674177Y147431D01*
X674198Y147442D01*
X674220Y147465D01*
X674276Y147510D01*
X674470Y147704D01*
X674523Y147778D01*
X674583Y147848D01*
X674595Y147878D01*
X674614Y147904D01*
X674641Y147991D01*
X674675Y148076D01*
X674679Y148117D01*
X674686Y148139D01*
X674685Y148171D01*
X674693Y148243D01*
X674693Y152198D01*
X677802Y155307D01*
X682198Y155307D01*
X685307Y152198D01*
X685307Y150378D01*
X685318Y150308D01*
X685320Y150236D01*
X685338Y150187D01*
X685346Y150136D01*
X685380Y150072D01*
X685405Y150005D01*
X685437Y149964D01*
X685462Y149918D01*
X685513Y149869D01*
X685558Y149813D01*
X685602Y149785D01*
X685640Y149749D01*
X685705Y149719D01*
X685765Y149680D01*
X685816Y149667D01*
X685863Y149645D01*
X685934Y149637D01*
X686004Y149620D01*
X686056Y149624D01*
X686107Y149618D01*
X686178Y149633D01*
X686249Y149639D01*
X686297Y149659D01*
X686348Y149670D01*
X686409Y149707D01*
X686475Y149735D01*
X686531Y149780D01*
X686559Y149797D01*
X686574Y149814D01*
X686606Y149840D01*
X747445Y210679D01*
X747457Y210695D01*
X747472Y210707D01*
X747528Y210795D01*
X747588Y210879D01*
X747594Y210898D01*
X747605Y210914D01*
X747630Y211015D01*
X747661Y211114D01*
X747660Y211134D01*
X747665Y211153D01*
X747657Y211256D01*
X747654Y211360D01*
X747648Y211378D01*
X747646Y211398D01*
X747606Y211493D01*
X747570Y211591D01*
X747557Y211606D01*
X747550Y211624D01*
X747445Y211755D01*
X746505Y212695D01*
X745267Y215683D01*
X745267Y218917D01*
X746505Y221905D01*
X748791Y224191D01*
X751779Y225429D01*
X768221Y225429D01*
X771209Y224191D01*
X773495Y221905D01*
X774733Y218917D01*
X774733Y215683D01*
X773495Y212695D01*
X771209Y210409D01*
X768221Y209171D01*
X752720Y209171D01*
X752630Y209157D01*
X752539Y209149D01*
X752510Y209137D01*
X752478Y209132D01*
X752397Y209089D01*
X752313Y209053D01*
X752281Y209027D01*
X752260Y209016D01*
X752238Y208993D01*
X752182Y208948D01*
X681820Y138586D01*
X681778Y138528D01*
X681729Y138476D01*
X681707Y138429D01*
X681677Y138387D01*
X681656Y138318D01*
X681625Y138253D01*
X681620Y138201D01*
X681604Y138151D01*
X681606Y138080D01*
X681598Y138009D01*
X681609Y137958D01*
X681611Y137906D01*
X681635Y137838D01*
X681650Y137768D01*
X681677Y137724D01*
X681695Y137675D01*
X681740Y137619D01*
X681777Y137557D01*
X681816Y137523D01*
X681849Y137483D01*
X681909Y137444D01*
X681964Y137397D01*
X682012Y137378D01*
X682056Y137350D01*
X682125Y137332D01*
X682192Y137305D01*
X682263Y137297D01*
X682294Y137289D01*
X682318Y137291D01*
X682358Y137287D01*
X713737Y137287D01*
X713828Y137301D01*
X713918Y137309D01*
X713948Y137321D01*
X713980Y137326D01*
X714061Y137369D01*
X714145Y137405D01*
X714177Y137431D01*
X714198Y137442D01*
X714200Y137444D01*
X714220Y137465D01*
X714276Y137510D01*
X744053Y167287D01*
X744506Y167287D01*
X744526Y167290D01*
X744545Y167288D01*
X744647Y167310D01*
X744749Y167326D01*
X744766Y167336D01*
X744786Y167340D01*
X744875Y167393D01*
X744966Y167442D01*
X744980Y167456D01*
X744997Y167466D01*
X745064Y167545D01*
X745136Y167620D01*
X745144Y167638D01*
X745157Y167653D01*
X745196Y167749D01*
X745239Y167843D01*
X745241Y167863D01*
X745249Y167881D01*
X745267Y168048D01*
X745267Y168117D01*
X746505Y171105D01*
X748791Y173391D01*
X751779Y174629D01*
X768221Y174629D01*
X771209Y173391D01*
X773495Y171105D01*
X774733Y168117D01*
X774733Y164883D01*
X773495Y161895D01*
X771209Y159609D01*
X769138Y158751D01*
X769055Y158700D01*
X768970Y158654D01*
X768952Y158636D01*
X768929Y158622D01*
X768867Y158546D01*
X768800Y158476D01*
X768789Y158452D01*
X768772Y158432D01*
X768738Y158341D01*
X768697Y158253D01*
X768694Y158227D01*
X768684Y158203D01*
X768680Y158105D01*
X768669Y158009D01*
X768675Y157983D01*
X768674Y157957D01*
X768701Y157863D01*
X768722Y157768D01*
X768735Y157746D01*
X768742Y157721D01*
X768798Y157641D01*
X768848Y157557D01*
X768868Y157540D01*
X768883Y157519D01*
X768961Y157460D01*
X769035Y157397D01*
X769059Y157387D01*
X769080Y157372D01*
X769173Y157342D01*
X769263Y157305D01*
X769295Y157302D01*
X769314Y157296D01*
X769347Y157296D01*
X769430Y157287D01*
X773737Y157287D01*
X773828Y157301D01*
X773918Y157309D01*
X773948Y157321D01*
X773980Y157326D01*
X774061Y157369D01*
X774145Y157405D01*
X774177Y157431D01*
X774198Y157442D01*
X774220Y157465D01*
X774276Y157510D01*
X874053Y257287D01*
X898737Y257287D01*
X898828Y257301D01*
X898918Y257309D01*
X898948Y257321D01*
X898980Y257326D01*
X899061Y257369D01*
X899145Y257405D01*
X899177Y257431D01*
X899198Y257442D01*
X899220Y257465D01*
X899276Y257510D01*
X901518Y259752D01*
X901575Y259831D01*
X901637Y259906D01*
X901646Y259930D01*
X901661Y259951D01*
X901690Y260044D01*
X901725Y260135D01*
X901726Y260161D01*
X901734Y260186D01*
X901731Y260284D01*
X901735Y260381D01*
X901728Y260406D01*
X901727Y260432D01*
X901694Y260524D01*
X901667Y260617D01*
X901652Y260639D01*
X901643Y260663D01*
X901582Y260739D01*
X901526Y260819D01*
X901505Y260835D01*
X901489Y260855D01*
X901407Y260908D01*
X901329Y260966D01*
X901304Y260974D01*
X901282Y260988D01*
X901188Y261012D01*
X901095Y261042D01*
X901069Y261042D01*
X901044Y261048D01*
X900947Y261041D01*
X900849Y261040D01*
X900818Y261031D01*
X900798Y261029D01*
X900768Y261016D01*
X900688Y260993D01*
X898221Y259971D01*
X881779Y259971D01*
X878791Y261209D01*
X876505Y263495D01*
X875267Y266483D01*
X875267Y269717D01*
X876505Y272705D01*
X878791Y274991D01*
X881827Y276249D01*
X881910Y276300D01*
X881996Y276346D01*
X882014Y276364D01*
X882036Y276378D01*
X882099Y276454D01*
X882166Y276524D01*
X882177Y276548D01*
X882193Y276568D01*
X882228Y276659D01*
X882269Y276747D01*
X882272Y276773D01*
X882281Y276797D01*
X882286Y276895D01*
X882296Y276991D01*
X882291Y277017D01*
X882292Y277043D01*
X882265Y277137D01*
X882244Y277232D01*
X882231Y277254D01*
X882223Y277279D01*
X882168Y277359D01*
X882118Y277443D01*
X882098Y277460D01*
X882083Y277481D01*
X882005Y277540D01*
X881931Y277603D01*
X881907Y277613D01*
X881886Y277628D01*
X881793Y277658D01*
X881703Y277695D01*
X881670Y277698D01*
X881652Y277704D01*
X881619Y277704D01*
X881536Y277713D01*
X796262Y277713D01*
X796172Y277699D01*
X796081Y277691D01*
X796052Y277679D01*
X796020Y277674D01*
X795939Y277631D01*
X795855Y277595D01*
X795823Y277569D01*
X795802Y277558D01*
X795780Y277535D01*
X795724Y277490D01*
X769622Y251388D01*
X769595Y251351D01*
X769561Y251319D01*
X769524Y251251D01*
X769478Y251188D01*
X769465Y251144D01*
X769443Y251104D01*
X769429Y251027D01*
X769406Y250953D01*
X769407Y250907D01*
X769399Y250862D01*
X769410Y250785D01*
X769412Y250707D01*
X769428Y250664D01*
X769435Y250619D01*
X769470Y250549D01*
X769497Y250476D01*
X769525Y250440D01*
X769546Y250399D01*
X769602Y250345D01*
X769650Y250284D01*
X769689Y250259D01*
X769722Y250227D01*
X769842Y250161D01*
X769857Y250151D01*
X769862Y250150D01*
X769869Y250146D01*
X771209Y249591D01*
X773495Y247305D01*
X774733Y244317D01*
X774733Y241083D01*
X773495Y238095D01*
X771209Y235809D01*
X768221Y234571D01*
X751779Y234571D01*
X748791Y235809D01*
X746505Y238095D01*
X745267Y241083D01*
X745267Y244317D01*
X746505Y247305D01*
X748791Y249591D01*
X751779Y250829D01*
X762280Y250829D01*
X762370Y250843D01*
X762461Y250851D01*
X762490Y250863D01*
X762522Y250868D01*
X762603Y250911D01*
X762687Y250947D01*
X762719Y250973D01*
X762740Y250984D01*
X762762Y251007D01*
X762818Y251052D01*
X771518Y259752D01*
X771575Y259831D01*
X771637Y259906D01*
X771646Y259930D01*
X771661Y259951D01*
X771690Y260044D01*
X771725Y260135D01*
X771726Y260161D01*
X771734Y260186D01*
X771731Y260284D01*
X771735Y260381D01*
X771728Y260406D01*
X771727Y260432D01*
X771694Y260524D01*
X771667Y260617D01*
X771652Y260639D01*
X771643Y260663D01*
X771582Y260739D01*
X771526Y260819D01*
X771505Y260835D01*
X771489Y260855D01*
X771407Y260908D01*
X771329Y260966D01*
X771304Y260974D01*
X771282Y260988D01*
X771188Y261012D01*
X771095Y261042D01*
X771069Y261042D01*
X771044Y261048D01*
X770947Y261041D01*
X770849Y261040D01*
X770818Y261031D01*
X770798Y261029D01*
X770768Y261016D01*
X770688Y260993D01*
X768221Y259971D01*
X751779Y259971D01*
X748791Y261209D01*
X746505Y263495D01*
X745267Y266483D01*
X745267Y269717D01*
X746505Y272705D01*
X748791Y274991D01*
X751779Y276229D01*
X762679Y276229D01*
X762770Y276243D01*
X762860Y276251D01*
X762890Y276263D01*
X762922Y276268D01*
X763003Y276311D01*
X763087Y276347D01*
X763119Y276373D01*
X763140Y276384D01*
X763162Y276407D01*
X763218Y276452D01*
X779053Y292287D01*
X799467Y292287D01*
X799557Y292301D01*
X799648Y292309D01*
X799677Y292321D01*
X799709Y292326D01*
X799790Y292369D01*
X799874Y292405D01*
X799906Y292431D01*
X799927Y292442D01*
X799949Y292465D01*
X800005Y292510D01*
X802802Y295307D01*
X807198Y295307D01*
X810307Y292198D01*
X810307Y287802D01*
X807198Y284693D01*
X802802Y284693D01*
X800005Y287490D01*
X799931Y287543D01*
X799861Y287603D01*
X799831Y287615D01*
X799805Y287634D01*
X799718Y287661D01*
X799633Y287695D01*
X799592Y287699D01*
X799570Y287706D01*
X799538Y287705D01*
X799467Y287713D01*
X781263Y287713D01*
X781172Y287699D01*
X781082Y287691D01*
X781052Y287679D01*
X781020Y287674D01*
X780939Y287631D01*
X780855Y287595D01*
X780823Y287569D01*
X780802Y287558D01*
X780780Y287535D01*
X780724Y287490D01*
X769905Y276671D01*
X769878Y276633D01*
X769844Y276602D01*
X769806Y276534D01*
X769761Y276471D01*
X769748Y276427D01*
X769725Y276387D01*
X769712Y276310D01*
X769689Y276236D01*
X769690Y276190D01*
X769682Y276145D01*
X769693Y276068D01*
X769695Y275990D01*
X769711Y275947D01*
X769717Y275901D01*
X769753Y275832D01*
X769779Y275759D01*
X769808Y275723D01*
X769829Y275682D01*
X769885Y275628D01*
X769933Y275567D01*
X769972Y275542D01*
X770005Y275510D01*
X770124Y275444D01*
X770140Y275434D01*
X770145Y275433D01*
X770152Y275429D01*
X771209Y274991D01*
X773495Y272705D01*
X774733Y269717D01*
X774733Y266483D01*
X773711Y264016D01*
X773689Y263921D01*
X773660Y263828D01*
X773661Y263802D01*
X773655Y263776D01*
X773664Y263680D01*
X773666Y263582D01*
X773675Y263558D01*
X773678Y263532D01*
X773717Y263443D01*
X773751Y263351D01*
X773767Y263331D01*
X773778Y263307D01*
X773844Y263235D01*
X773904Y263159D01*
X773926Y263145D01*
X773944Y263126D01*
X774029Y263079D01*
X774111Y263026D01*
X774137Y263020D01*
X774160Y263007D01*
X774256Y262990D01*
X774350Y262966D01*
X774376Y262968D01*
X774402Y262963D01*
X774498Y262978D01*
X774595Y262985D01*
X774619Y262995D01*
X774645Y262999D01*
X774732Y263043D01*
X774821Y263081D01*
X774847Y263102D01*
X774864Y263111D01*
X774888Y263134D01*
X774952Y263186D01*
X792490Y280724D01*
X794053Y282287D01*
X898737Y282287D01*
X898828Y282301D01*
X898918Y282309D01*
X898948Y282321D01*
X898980Y282326D01*
X899061Y282369D01*
X899145Y282405D01*
X899177Y282431D01*
X899198Y282442D01*
X899220Y282465D01*
X899276Y282510D01*
X907490Y290724D01*
X907543Y290798D01*
X907603Y290868D01*
X907615Y290898D01*
X907634Y290924D01*
X907661Y291011D01*
X907695Y291096D01*
X907699Y291137D01*
X907706Y291159D01*
X907705Y291191D01*
X907713Y291263D01*
X907713Y368794D01*
X907710Y368814D01*
X907712Y368833D01*
X907690Y368935D01*
X907674Y369037D01*
X907664Y369054D01*
X907660Y369074D01*
X907607Y369163D01*
X907558Y369254D01*
X907544Y369268D01*
X907534Y369285D01*
X907455Y369352D01*
X907380Y369424D01*
X907362Y369432D01*
X907347Y369445D01*
X907251Y369484D01*
X907157Y369527D01*
X907137Y369529D01*
X907119Y369537D01*
X906952Y369555D01*
X896061Y369555D01*
X892700Y370947D01*
X890127Y373520D01*
X888735Y376881D01*
X888735Y380519D01*
X890127Y383880D01*
X892661Y386414D01*
X892703Y386472D01*
X892752Y386524D01*
X892774Y386571D01*
X892805Y386613D01*
X892826Y386682D01*
X892856Y386747D01*
X892862Y386799D01*
X892877Y386849D01*
X892875Y386920D01*
X892883Y386991D01*
X892872Y387042D01*
X892871Y387094D01*
X892846Y387162D01*
X892831Y387232D01*
X892804Y387277D01*
X892786Y387325D01*
X892741Y387381D01*
X892705Y387443D01*
X892665Y387477D01*
X892633Y387517D01*
X892572Y387556D01*
X892518Y387603D01*
X892469Y387622D01*
X892426Y387650D01*
X892356Y387668D01*
X892290Y387695D01*
X892218Y387703D01*
X892187Y387711D01*
X892164Y387709D01*
X892123Y387713D01*
X875777Y387713D01*
X875706Y387702D01*
X875635Y387700D01*
X875586Y387682D01*
X875534Y387674D01*
X875471Y387640D01*
X875404Y387615D01*
X875363Y387583D01*
X875317Y387558D01*
X875268Y387506D01*
X875212Y387462D01*
X875183Y387418D01*
X875148Y387380D01*
X875117Y387315D01*
X875079Y387255D01*
X875066Y387204D01*
X875044Y387157D01*
X875036Y387086D01*
X875019Y387016D01*
X875023Y386964D01*
X875017Y386913D01*
X875032Y386842D01*
X875038Y386771D01*
X875058Y386723D01*
X875069Y386672D01*
X875106Y386611D01*
X875134Y386545D01*
X875179Y386489D01*
X875195Y386461D01*
X875213Y386446D01*
X875239Y386414D01*
X877773Y383880D01*
X879165Y380519D01*
X879165Y376881D01*
X877773Y373520D01*
X875200Y370947D01*
X871839Y369555D01*
X852961Y369555D01*
X849600Y370947D01*
X847027Y373520D01*
X845635Y376881D01*
X845635Y380519D01*
X847027Y383880D01*
X849561Y386414D01*
X849603Y386472D01*
X849652Y386524D01*
X849674Y386571D01*
X849705Y386613D01*
X849726Y386682D01*
X849756Y386747D01*
X849762Y386799D01*
X849777Y386849D01*
X849775Y386920D01*
X849783Y386991D01*
X849772Y387042D01*
X849771Y387094D01*
X849746Y387162D01*
X849731Y387232D01*
X849704Y387277D01*
X849686Y387325D01*
X849641Y387381D01*
X849605Y387443D01*
X849565Y387477D01*
X849533Y387517D01*
X849472Y387556D01*
X849418Y387603D01*
X849369Y387622D01*
X849326Y387650D01*
X849256Y387668D01*
X849190Y387695D01*
X849118Y387703D01*
X849087Y387711D01*
X849064Y387709D01*
X849023Y387713D01*
X839053Y387713D01*
X837713Y389053D01*
X837713Y408737D01*
X837699Y408828D01*
X837691Y408918D01*
X837679Y408948D01*
X837674Y408980D01*
X837631Y409061D01*
X837595Y409145D01*
X837569Y409177D01*
X837558Y409198D01*
X837535Y409220D01*
X837490Y409276D01*
X783119Y463647D01*
X783103Y463659D01*
X783091Y463674D01*
X783027Y463715D01*
X782980Y463755D01*
X782953Y463766D01*
X782919Y463790D01*
X782901Y463796D01*
X782884Y463807D01*
X782798Y463829D01*
X782752Y463847D01*
X782725Y463850D01*
X782684Y463863D01*
X782664Y463862D01*
X782645Y463867D01*
X782602Y463864D01*
X782585Y463866D01*
X782577Y463866D01*
X782535Y463859D01*
X782439Y463856D01*
X782420Y463850D01*
X782400Y463848D01*
X782357Y463830D01*
X782334Y463826D01*
X782287Y463801D01*
X782207Y463772D01*
X782192Y463759D01*
X782174Y463752D01*
X782134Y463720D01*
X782117Y463711D01*
X782098Y463691D01*
X782043Y463647D01*
X780267Y461871D01*
X773533Y461871D01*
X768771Y466633D01*
X768771Y473367D01*
X773533Y478129D01*
X780267Y478129D01*
X785029Y473367D01*
X785029Y468521D01*
X785043Y468430D01*
X785051Y468340D01*
X785063Y468310D01*
X785068Y468278D01*
X785111Y468197D01*
X785147Y468113D01*
X785173Y468081D01*
X785184Y468060D01*
X785207Y468038D01*
X785252Y467982D01*
X842287Y410947D01*
X842287Y393048D01*
X842289Y393037D01*
X842288Y393030D01*
X842289Y393023D01*
X842288Y393009D01*
X842310Y392907D01*
X842326Y392805D01*
X842336Y392788D01*
X842340Y392768D01*
X842393Y392679D01*
X842442Y392588D01*
X842456Y392574D01*
X842466Y392557D01*
X842545Y392490D01*
X842620Y392418D01*
X842638Y392410D01*
X842653Y392397D01*
X842749Y392358D01*
X842843Y392315D01*
X842863Y392313D01*
X842881Y392305D01*
X843048Y392287D01*
X920947Y392287D01*
X932287Y380947D01*
X932287Y274053D01*
X930947Y272713D01*
X921263Y272713D01*
X921172Y272699D01*
X921082Y272691D01*
X921052Y272679D01*
X921020Y272674D01*
X920939Y272631D01*
X920855Y272595D01*
X920823Y272569D01*
X920802Y272558D01*
X920780Y272535D01*
X920724Y272490D01*
X902510Y254276D01*
X901058Y252824D01*
X901016Y252766D01*
X900967Y252714D01*
X900945Y252667D01*
X900915Y252625D01*
X900894Y252556D01*
X900863Y252491D01*
X900858Y252439D01*
X900842Y252389D01*
X900844Y252318D01*
X900836Y252247D01*
X900847Y252196D01*
X900849Y252144D01*
X900873Y252076D01*
X900888Y252006D01*
X900915Y251961D01*
X900933Y251913D01*
X900978Y251857D01*
X901015Y251795D01*
X901054Y251761D01*
X901087Y251721D01*
X901147Y251682D01*
X901202Y251635D01*
X901250Y251616D01*
X901294Y251588D01*
X901363Y251570D01*
X901430Y251543D01*
X901501Y251535D01*
X901532Y251527D01*
X901556Y251529D01*
X901596Y251525D01*
X911982Y251525D01*
X912072Y251539D01*
X912163Y251547D01*
X912193Y251559D01*
X912225Y251564D01*
X912305Y251607D01*
X912389Y251643D01*
X912421Y251669D01*
X912442Y251680D01*
X912464Y251703D01*
X912520Y251748D01*
X943252Y282480D01*
X943305Y282554D01*
X943365Y282623D01*
X943377Y282653D01*
X943396Y282679D01*
X943423Y282766D01*
X943457Y282851D01*
X943461Y282892D01*
X943468Y282914D01*
X943467Y282947D01*
X943475Y283018D01*
X943475Y376298D01*
X944469Y378696D01*
X946304Y380531D01*
X948702Y381525D01*
X1041982Y381525D01*
X1042072Y381539D01*
X1042163Y381547D01*
X1042193Y381559D01*
X1042225Y381564D01*
X1042305Y381607D01*
X1042389Y381643D01*
X1042421Y381669D01*
X1042442Y381680D01*
X1042464Y381703D01*
X1042520Y381748D01*
X1047493Y386720D01*
X1047550Y386799D01*
X1047612Y386874D01*
X1047621Y386899D01*
X1047637Y386920D01*
X1047665Y387013D01*
X1047700Y387104D01*
X1047701Y387130D01*
X1047709Y387155D01*
X1047706Y387252D01*
X1047711Y387350D01*
X1047703Y387375D01*
X1047703Y387401D01*
X1047669Y387493D01*
X1047642Y387586D01*
X1047627Y387608D01*
X1047618Y387632D01*
X1047557Y387708D01*
X1047502Y387788D01*
X1047481Y387804D01*
X1047464Y387824D01*
X1047383Y387877D01*
X1047304Y387935D01*
X1047280Y387943D01*
X1047258Y387957D01*
X1047163Y387981D01*
X1047071Y388011D01*
X1047044Y388011D01*
X1047019Y388017D01*
X1046922Y388010D01*
X1046825Y388009D01*
X1046793Y388000D01*
X1046774Y387998D01*
X1046744Y387985D01*
X1046663Y387962D01*
X1043219Y386535D01*
X1039581Y386535D01*
X1036220Y387927D01*
X1033647Y390500D01*
X1032255Y393861D01*
X1032255Y412739D01*
X1033647Y416100D01*
X1036220Y418673D01*
X1039581Y420065D01*
X1043219Y420065D01*
X1046580Y418673D01*
X1049153Y416100D01*
X1050545Y412739D01*
X1050545Y393861D01*
X1049118Y390417D01*
X1049096Y390322D01*
X1049067Y390229D01*
X1049068Y390202D01*
X1049062Y390177D01*
X1049071Y390080D01*
X1049073Y389983D01*
X1049082Y389958D01*
X1049085Y389932D01*
X1049125Y389843D01*
X1049158Y389752D01*
X1049174Y389731D01*
X1049185Y389707D01*
X1049251Y389636D01*
X1049312Y389560D01*
X1049334Y389546D01*
X1049351Y389526D01*
X1049437Y389479D01*
X1049519Y389427D01*
X1049544Y389420D01*
X1049567Y389408D01*
X1049663Y389390D01*
X1049757Y389367D01*
X1049783Y389369D01*
X1049809Y389364D01*
X1049905Y389378D01*
X1050002Y389386D01*
X1050026Y389396D01*
X1050052Y389400D01*
X1050139Y389444D01*
X1050229Y389482D01*
X1050254Y389502D01*
X1050271Y389511D01*
X1050295Y389535D01*
X1050360Y389587D01*
X1053252Y392480D01*
X1053305Y392554D01*
X1053365Y392623D01*
X1053377Y392653D01*
X1053396Y392679D01*
X1053423Y392767D01*
X1053457Y392851D01*
X1053461Y392892D01*
X1053468Y392914D01*
X1053467Y392947D01*
X1053475Y393018D01*
X1053475Y452714D01*
X1053472Y452734D01*
X1053474Y452753D01*
X1053452Y452855D01*
X1053436Y452957D01*
X1053426Y452974D01*
X1053422Y452994D01*
X1053369Y453083D01*
X1053320Y453174D01*
X1053306Y453188D01*
X1053296Y453205D01*
X1053217Y453272D01*
X1053142Y453344D01*
X1053124Y453352D01*
X1053109Y453365D01*
X1053013Y453404D01*
X1052919Y453447D01*
X1052899Y453449D01*
X1052881Y453457D01*
X1052714Y453475D01*
X1008702Y453475D01*
X1006304Y454469D01*
X990560Y470212D01*
X990486Y470265D01*
X990417Y470325D01*
X990387Y470337D01*
X990361Y470356D01*
X990274Y470383D01*
X990189Y470417D01*
X990148Y470421D01*
X990126Y470428D01*
X990093Y470427D01*
X990022Y470435D01*
X988781Y470435D01*
X985420Y471827D01*
X982847Y474400D01*
X981455Y477761D01*
X981455Y496639D01*
X982847Y500000D01*
X985420Y502573D01*
X988781Y503965D01*
X992419Y503965D01*
X995780Y502573D01*
X998353Y500000D01*
X999745Y496639D01*
X999745Y479798D01*
X999759Y479708D01*
X999767Y479617D01*
X999779Y479587D01*
X999784Y479555D01*
X999827Y479474D01*
X999863Y479391D01*
X999889Y479358D01*
X999900Y479338D01*
X999923Y479316D01*
X999968Y479260D01*
X1012480Y466748D01*
X1012554Y466695D01*
X1012623Y466635D01*
X1012653Y466623D01*
X1012679Y466604D01*
X1012766Y466577D01*
X1012851Y466543D01*
X1012892Y466539D01*
X1012914Y466532D01*
X1012947Y466533D01*
X1013018Y466525D01*
X1061298Y466525D01*
X1063696Y465531D01*
X1065531Y463696D01*
X1066525Y461298D01*
X1066525Y388702D01*
X1065531Y386304D01*
X1048696Y369469D01*
X1046298Y368475D01*
X957286Y368475D01*
X957266Y368472D01*
X957247Y368474D01*
X957145Y368452D01*
X957043Y368436D01*
X957026Y368426D01*
X957006Y368422D01*
X956917Y368369D01*
X956826Y368320D01*
X956812Y368306D01*
X956795Y368296D01*
X956728Y368217D01*
X956656Y368142D01*
X956648Y368124D01*
X956635Y368109D01*
X956596Y368013D01*
X956553Y367919D01*
X956551Y367899D01*
X956543Y367881D01*
X956525Y367714D01*
X956525Y278702D01*
X955531Y276304D01*
X918696Y239469D01*
X916298Y238475D01*
X904161Y238475D01*
X904047Y238457D01*
X903930Y238439D01*
X903925Y238437D01*
X903918Y238436D01*
X903816Y238381D01*
X903711Y238328D01*
X903707Y238323D01*
X903701Y238320D01*
X903621Y238236D01*
X903539Y238152D01*
X903535Y238146D01*
X903532Y238142D01*
X903524Y238125D01*
X903523Y238123D01*
X901209Y235809D01*
X898221Y234571D01*
X881779Y234571D01*
X878791Y235809D01*
X876505Y238095D01*
X875267Y241083D01*
X875267Y244317D01*
X876505Y247305D01*
X878791Y249591D01*
X881779Y250829D01*
X886870Y250829D01*
X886935Y250839D01*
X887001Y250840D01*
X887081Y250863D01*
X887113Y250868D01*
X887130Y250878D01*
X887162Y250887D01*
X888036Y251249D01*
X888119Y251300D01*
X888205Y251346D01*
X888223Y251364D01*
X888245Y251378D01*
X888307Y251454D01*
X888374Y251524D01*
X888385Y251548D01*
X888402Y251568D01*
X888437Y251659D01*
X888478Y251747D01*
X888480Y251773D01*
X888490Y251797D01*
X888494Y251895D01*
X888505Y251991D01*
X888499Y252017D01*
X888500Y252043D01*
X888473Y252137D01*
X888452Y252232D01*
X888439Y252254D01*
X888432Y252279D01*
X888376Y252359D01*
X888326Y252443D01*
X888306Y252460D01*
X888291Y252481D01*
X888213Y252540D01*
X888139Y252603D01*
X888115Y252613D01*
X888094Y252628D01*
X888002Y252658D01*
X887911Y252695D01*
X887879Y252698D01*
X887860Y252704D01*
X887827Y252704D01*
X887744Y252713D01*
X876263Y252713D01*
X876172Y252699D01*
X876082Y252691D01*
X876052Y252679D01*
X876020Y252674D01*
X875939Y252631D01*
X875855Y252595D01*
X875823Y252569D01*
X875802Y252558D01*
X875780Y252535D01*
X875724Y252490D01*
X775947Y152713D01*
X741263Y152713D01*
X741173Y152699D01*
X741082Y152691D01*
X741052Y152679D01*
X741020Y152674D01*
X740939Y152631D01*
X740855Y152595D01*
X740823Y152569D01*
X740802Y152558D01*
X740780Y152535D01*
X740724Y152490D01*
X739840Y151606D01*
X739798Y151548D01*
X739749Y151496D01*
X739727Y151449D01*
X739697Y151407D01*
X739676Y151338D01*
X739645Y151273D01*
X739640Y151221D01*
X739624Y151171D01*
X739626Y151100D01*
X739618Y151029D01*
X739629Y150978D01*
X739631Y150926D01*
X739655Y150858D01*
X739670Y150788D01*
X739697Y150743D01*
X739715Y150695D01*
X739760Y150638D01*
X739797Y150577D01*
X739836Y150543D01*
X739869Y150503D01*
X739929Y150464D01*
X739984Y150417D01*
X740032Y150398D01*
X740076Y150370D01*
X740145Y150352D01*
X740212Y150325D01*
X740283Y150317D01*
X740314Y150309D01*
X740338Y150311D01*
X740378Y150307D01*
X742198Y150307D01*
X745307Y147198D01*
X745307Y146344D01*
X745318Y146274D01*
X745320Y146202D01*
X745338Y146153D01*
X745346Y146102D01*
X745380Y146038D01*
X745405Y145971D01*
X745437Y145930D01*
X745462Y145884D01*
X745514Y145835D01*
X745558Y145779D01*
X745602Y145751D01*
X745640Y145715D01*
X745705Y145685D01*
X745765Y145646D01*
X745816Y145633D01*
X745863Y145611D01*
X745934Y145603D01*
X746004Y145586D01*
X746056Y145590D01*
X746107Y145584D01*
X746178Y145599D01*
X746249Y145605D01*
X746297Y145625D01*
X746348Y145636D01*
X746409Y145673D01*
X746475Y145701D01*
X746531Y145746D01*
X746559Y145763D01*
X746574Y145780D01*
X746606Y145806D01*
X748791Y147991D01*
X751779Y149229D01*
X768221Y149229D01*
X771209Y147991D01*
X773495Y145705D01*
X774733Y142717D01*
X774733Y139483D01*
X773495Y136495D01*
X771209Y134209D01*
X768221Y132971D01*
X751779Y132971D01*
X748791Y134209D01*
X746505Y136495D01*
X745267Y139483D01*
X745267Y140925D01*
X745256Y140995D01*
X745254Y141067D01*
X745236Y141116D01*
X745228Y141167D01*
X745194Y141231D01*
X745169Y141298D01*
X745137Y141339D01*
X745112Y141385D01*
X745060Y141434D01*
X745016Y141490D01*
X744972Y141518D01*
X744934Y141554D01*
X744869Y141584D01*
X744809Y141623D01*
X744758Y141636D01*
X744711Y141658D01*
X744640Y141666D01*
X744570Y141683D01*
X744518Y141679D01*
X744467Y141685D01*
X744396Y141670D01*
X744325Y141664D01*
X744277Y141644D01*
X744226Y141633D01*
X744165Y141596D01*
X744099Y141568D01*
X744043Y141523D01*
X744015Y141506D01*
X744000Y141489D01*
X743968Y141463D01*
X742198Y139693D01*
X738243Y139693D01*
X738152Y139679D01*
X738062Y139671D01*
X738032Y139659D01*
X738000Y139654D01*
X737919Y139611D01*
X737835Y139575D01*
X737803Y139549D01*
X737782Y139538D01*
X737760Y139515D01*
X737704Y139470D01*
X626820Y28586D01*
X626778Y28528D01*
X626729Y28476D01*
X626707Y28429D01*
X626677Y28387D01*
X626656Y28318D01*
X626625Y28253D01*
X626620Y28201D01*
X626604Y28151D01*
X626606Y28080D01*
X626598Y28009D01*
X626609Y27958D01*
X626611Y27906D01*
X626635Y27838D01*
X626650Y27768D01*
X626677Y27724D01*
X626695Y27675D01*
X626740Y27619D01*
X626777Y27557D01*
X626816Y27523D01*
X626849Y27483D01*
X626909Y27444D01*
X626964Y27397D01*
X627012Y27378D01*
X627056Y27350D01*
X627125Y27332D01*
X627192Y27305D01*
X627263Y27297D01*
X627294Y27289D01*
X627318Y27291D01*
X627358Y27287D01*
X958737Y27287D01*
X958828Y27301D01*
X958918Y27309D01*
X958948Y27321D01*
X958980Y27326D01*
X959061Y27369D01*
X959145Y27405D01*
X959177Y27431D01*
X959198Y27442D01*
X959220Y27465D01*
X959276Y27510D01*
X974053Y42287D01*
X991952Y42287D01*
X991972Y42290D01*
X991991Y42288D01*
X992093Y42310D01*
X992195Y42326D01*
X992212Y42336D01*
X992232Y42340D01*
X992321Y42393D01*
X992412Y42442D01*
X992426Y42456D01*
X992443Y42466D01*
X992510Y42545D01*
X992582Y42620D01*
X992590Y42638D01*
X992603Y42653D01*
X992642Y42749D01*
X992685Y42843D01*
X992687Y42863D01*
X992695Y42881D01*
X992713Y43048D01*
X992713Y43194D01*
X992710Y43214D01*
X992712Y43233D01*
X992690Y43335D01*
X992674Y43437D01*
X992664Y43454D01*
X992660Y43474D01*
X992607Y43563D01*
X992558Y43654D01*
X992544Y43668D01*
X992534Y43685D01*
X992455Y43752D01*
X992380Y43824D01*
X992362Y43832D01*
X992347Y43845D01*
X992251Y43884D01*
X992157Y43927D01*
X992137Y43929D01*
X992119Y43937D01*
X991952Y43955D01*
X991481Y43955D01*
X988120Y45347D01*
X985547Y47920D01*
X984155Y51281D01*
X984155Y54919D01*
X985547Y58280D01*
X988120Y60853D01*
X991481Y62245D01*
X995119Y62245D01*
X998480Y60853D01*
X1001053Y58280D01*
X1002445Y54919D01*
X1002445Y51281D01*
X1001053Y47920D01*
X998480Y45347D01*
X997757Y45048D01*
X997658Y44986D01*
X997557Y44926D01*
X997553Y44922D01*
X997548Y44918D01*
X997474Y44829D01*
X997397Y44739D01*
X997395Y44734D01*
X997391Y44729D01*
X997349Y44621D01*
X997305Y44511D01*
X997304Y44504D01*
X997303Y44499D01*
X997302Y44481D01*
X997287Y44345D01*
X997287Y42358D01*
X997298Y42288D01*
X997300Y42216D01*
X997318Y42167D01*
X997326Y42116D01*
X997360Y42052D01*
X997385Y41985D01*
X997417Y41944D01*
X997442Y41898D01*
X997494Y41849D01*
X997538Y41793D01*
X997582Y41765D01*
X997620Y41729D01*
X997685Y41699D01*
X997745Y41660D01*
X997796Y41647D01*
X997843Y41625D01*
X997914Y41617D01*
X997984Y41600D01*
X998036Y41604D01*
X998087Y41598D01*
X998158Y41613D01*
X998229Y41619D01*
X998277Y41639D01*
X998328Y41650D01*
X998389Y41687D01*
X998455Y41715D01*
X998511Y41760D01*
X998539Y41777D01*
X998554Y41794D01*
X998586Y41820D01*
X1017490Y60724D01*
X1017543Y60798D01*
X1017603Y60868D01*
X1017615Y60898D01*
X1017634Y60924D01*
X1017661Y61011D01*
X1017695Y61096D01*
X1017699Y61137D01*
X1017706Y61159D01*
X1017705Y61191D01*
X1017713Y61263D01*
X1017713Y134467D01*
X1017699Y134557D01*
X1017691Y134648D01*
X1017679Y134677D01*
X1017674Y134709D01*
X1017631Y134790D01*
X1017595Y134874D01*
X1017569Y134906D01*
X1017558Y134927D01*
X1017535Y134949D01*
X1017490Y135005D01*
X1014693Y137802D01*
X1014693Y138628D01*
X1014682Y138699D01*
X1014680Y138771D01*
X1014662Y138820D01*
X1014654Y138871D01*
X1014620Y138934D01*
X1014595Y139002D01*
X1014563Y139042D01*
X1014538Y139088D01*
X1014486Y139138D01*
X1014442Y139194D01*
X1014398Y139222D01*
X1014360Y139258D01*
X1014295Y139288D01*
X1014235Y139327D01*
X1014184Y139339D01*
X1014137Y139361D01*
X1014066Y139369D01*
X1013996Y139387D01*
X1013944Y139383D01*
X1013893Y139388D01*
X1013822Y139373D01*
X1013751Y139368D01*
X1013703Y139347D01*
X1013652Y139336D01*
X1013591Y139299D01*
X1013525Y139271D01*
X1013469Y139226D01*
X1013441Y139210D01*
X1013426Y139192D01*
X1013394Y139166D01*
X923696Y49469D01*
X921298Y48475D01*
X853626Y48475D01*
X853606Y48472D01*
X853587Y48474D01*
X853485Y48452D01*
X853383Y48436D01*
X853366Y48426D01*
X853346Y48422D01*
X853257Y48369D01*
X853166Y48320D01*
X853152Y48306D01*
X853135Y48296D01*
X853068Y48217D01*
X852996Y48142D01*
X852988Y48124D01*
X852975Y48109D01*
X852936Y48013D01*
X852893Y47919D01*
X852891Y47899D01*
X852883Y47881D01*
X852865Y47714D01*
X852865Y45596D01*
X851637Y42632D01*
X849368Y40363D01*
X846404Y39135D01*
X843196Y39135D01*
X840232Y40363D01*
X837963Y42632D01*
X836735Y45596D01*
X836735Y48804D01*
X837963Y51768D01*
X839063Y52868D01*
X839101Y52922D01*
X839147Y52968D01*
X839187Y53041D01*
X839207Y53068D01*
X839212Y53087D01*
X839228Y53115D01*
X839469Y53696D01*
X839551Y53779D01*
X839574Y53810D01*
X839603Y53835D01*
X839626Y53872D01*
X839639Y53885D01*
X839649Y53907D01*
X839694Y53976D01*
X839746Y54081D01*
X840530Y54760D01*
X840543Y54776D01*
X840570Y54797D01*
X844362Y58589D01*
X846304Y60531D01*
X848702Y61525D01*
X916982Y61525D01*
X917072Y61539D01*
X917163Y61547D01*
X917193Y61559D01*
X917225Y61564D01*
X917305Y61607D01*
X917389Y61643D01*
X917421Y61669D01*
X917442Y61680D01*
X917464Y61703D01*
X917520Y61748D01*
X1041472Y185699D01*
X1041483Y185715D01*
X1041499Y185728D01*
X1041555Y185815D01*
X1041615Y185899D01*
X1041621Y185918D01*
X1041632Y185935D01*
X1041657Y186035D01*
X1041688Y186134D01*
X1041687Y186154D01*
X1041692Y186173D01*
X1041684Y186276D01*
X1041681Y186380D01*
X1041674Y186399D01*
X1041673Y186418D01*
X1041633Y186513D01*
X1041597Y186611D01*
X1041584Y186626D01*
X1041577Y186645D01*
X1041472Y186776D01*
X1041027Y187220D01*
X1039635Y190581D01*
X1039635Y194219D01*
X1041027Y197580D01*
X1043600Y200153D01*
X1046961Y201545D01*
X1065839Y201545D01*
X1069200Y200153D01*
X1071773Y197580D01*
X1073165Y194219D01*
X1073165Y190581D01*
X1071773Y187220D01*
X1069200Y184647D01*
X1065839Y183255D01*
X1056848Y183255D01*
X1056733Y183236D01*
X1056617Y183219D01*
X1056612Y183217D01*
X1056606Y183216D01*
X1056503Y183161D01*
X1056398Y183108D01*
X1056394Y183103D01*
X1056388Y183100D01*
X1056308Y183016D01*
X1056226Y182932D01*
X1056222Y182926D01*
X1056219Y182922D01*
X1056211Y182905D01*
X1056145Y182785D01*
X1055531Y181304D01*
X1053589Y179362D01*
X1020834Y146606D01*
X1020792Y146548D01*
X1020742Y146496D01*
X1020720Y146449D01*
X1020690Y146407D01*
X1020669Y146338D01*
X1020639Y146273D01*
X1020633Y146221D01*
X1020618Y146171D01*
X1020620Y146100D01*
X1020612Y146029D01*
X1020623Y145978D01*
X1020624Y145926D01*
X1020649Y145858D01*
X1020664Y145788D01*
X1020691Y145743D01*
X1020709Y145695D01*
X1020753Y145639D01*
X1020790Y145577D01*
X1020830Y145543D01*
X1020862Y145503D01*
X1020923Y145464D01*
X1020977Y145417D01*
X1021025Y145398D01*
X1021069Y145370D01*
X1021139Y145352D01*
X1021205Y145325D01*
X1021277Y145317D01*
X1021308Y145309D01*
X1021331Y145311D01*
X1021372Y145307D01*
X1022198Y145307D01*
X1025307Y142198D01*
X1025307Y137802D01*
X1022510Y135005D01*
X1022457Y134931D01*
X1022397Y134861D01*
X1022385Y134831D01*
X1022366Y134805D01*
X1022339Y134718D01*
X1022305Y134633D01*
X1022301Y134592D01*
X1022294Y134570D01*
X1022295Y134538D01*
X1022287Y134467D01*
X1022287Y59053D01*
X980947Y17713D01*
X409053Y17713D01*
G37*
%LPD*%
%LPC*%
G36*
X881779Y285371D02*
X881779Y285371D01*
X878791Y286609D01*
X876505Y288895D01*
X875267Y291883D01*
X875267Y292714D01*
X875264Y292734D01*
X875266Y292753D01*
X875244Y292855D01*
X875228Y292957D01*
X875218Y292974D01*
X875214Y292994D01*
X875161Y293083D01*
X875112Y293174D01*
X875098Y293188D01*
X875088Y293205D01*
X875009Y293272D01*
X874934Y293344D01*
X874916Y293352D01*
X874901Y293365D01*
X874805Y293404D01*
X874711Y293447D01*
X874691Y293449D01*
X874673Y293457D01*
X874506Y293475D01*
X863702Y293475D01*
X861304Y294469D01*
X782520Y373252D01*
X782446Y373305D01*
X782377Y373365D01*
X782347Y373377D01*
X782321Y373396D01*
X782234Y373423D01*
X782149Y373457D01*
X782108Y373461D01*
X782086Y373468D01*
X782053Y373467D01*
X781982Y373475D01*
X753702Y373475D01*
X751304Y374469D01*
X667520Y458252D01*
X667446Y458305D01*
X667377Y458365D01*
X667347Y458377D01*
X667321Y458396D01*
X667234Y458423D01*
X667149Y458457D01*
X667108Y458461D01*
X667086Y458468D01*
X667053Y458467D01*
X666982Y458475D01*
X276596Y458475D01*
X276526Y458464D01*
X276454Y458462D01*
X276405Y458444D01*
X276354Y458436D01*
X276290Y458402D01*
X276223Y458377D01*
X276182Y458345D01*
X276136Y458320D01*
X276087Y458269D01*
X276031Y458224D01*
X276003Y458180D01*
X275967Y458142D01*
X275937Y458077D01*
X275898Y458017D01*
X275885Y457966D01*
X275863Y457919D01*
X275855Y457848D01*
X275838Y457778D01*
X275842Y457726D01*
X275836Y457675D01*
X275851Y457604D01*
X275857Y457533D01*
X275877Y457485D01*
X275888Y457434D01*
X275925Y457373D01*
X275953Y457307D01*
X275998Y457251D01*
X276015Y457223D01*
X276032Y457208D01*
X276058Y457176D01*
X303612Y429622D01*
X303649Y429595D01*
X303681Y429561D01*
X303749Y429524D01*
X303812Y429478D01*
X303856Y429465D01*
X303896Y429443D01*
X303973Y429429D01*
X304047Y429406D01*
X304093Y429407D01*
X304138Y429399D01*
X304215Y429410D01*
X304293Y429412D01*
X304336Y429428D01*
X304381Y429435D01*
X304451Y429470D01*
X304524Y429497D01*
X304560Y429525D01*
X304601Y429546D01*
X304655Y429602D01*
X304716Y429650D01*
X304741Y429689D01*
X304773Y429722D01*
X304839Y429842D01*
X304849Y429857D01*
X304850Y429862D01*
X304854Y429869D01*
X305409Y431209D01*
X307695Y433495D01*
X310683Y434733D01*
X313917Y434733D01*
X316905Y433495D01*
X319191Y431209D01*
X320429Y428221D01*
X320429Y411779D01*
X319191Y408791D01*
X316905Y406505D01*
X313917Y405267D01*
X310683Y405267D01*
X308337Y406239D01*
X308242Y406261D01*
X308149Y406290D01*
X308123Y406289D01*
X308097Y406295D01*
X308001Y406286D01*
X307903Y406284D01*
X307879Y406275D01*
X307853Y406272D01*
X307764Y406233D01*
X307672Y406199D01*
X307652Y406183D01*
X307628Y406172D01*
X307556Y406106D01*
X307480Y406045D01*
X307466Y406023D01*
X307447Y406006D01*
X307400Y405920D01*
X307347Y405839D01*
X307341Y405813D01*
X307328Y405790D01*
X307311Y405694D01*
X307287Y405600D01*
X307289Y405574D01*
X307284Y405548D01*
X307299Y405452D01*
X307306Y405355D01*
X307316Y405331D01*
X307320Y405305D01*
X307364Y405218D01*
X307403Y405128D01*
X307423Y405103D01*
X307432Y405086D01*
X307455Y405062D01*
X307507Y404997D01*
X310307Y402198D01*
X310307Y397802D01*
X307198Y394693D01*
X302802Y394693D01*
X300005Y397490D01*
X299931Y397543D01*
X299861Y397603D01*
X299831Y397615D01*
X299805Y397634D01*
X299718Y397661D01*
X299633Y397695D01*
X299592Y397699D01*
X299570Y397706D01*
X299538Y397705D01*
X299467Y397713D01*
X284053Y397713D01*
X270539Y411227D01*
X270502Y411254D01*
X270471Y411287D01*
X270403Y411325D01*
X270340Y411370D01*
X270296Y411384D01*
X270255Y411406D01*
X270179Y411420D01*
X270104Y411443D01*
X270059Y411442D01*
X270013Y411450D01*
X269936Y411438D01*
X269859Y411436D01*
X269815Y411421D01*
X269770Y411414D01*
X269701Y411379D01*
X269628Y411352D01*
X269592Y411323D01*
X269551Y411302D01*
X269496Y411247D01*
X269436Y411198D01*
X269411Y411160D01*
X269379Y411127D01*
X269313Y411007D01*
X269303Y410991D01*
X269301Y410986D01*
X269298Y410980D01*
X268391Y408791D01*
X266105Y406505D01*
X263117Y405267D01*
X259883Y405267D01*
X256895Y406505D01*
X254609Y408791D01*
X253371Y411779D01*
X253371Y428221D01*
X254609Y431209D01*
X256895Y433495D01*
X259883Y434733D01*
X263117Y434733D01*
X266105Y433495D01*
X268391Y431209D01*
X269629Y428221D01*
X269629Y418920D01*
X269630Y418914D01*
X269630Y418913D01*
X269631Y418907D01*
X269643Y418830D01*
X269651Y418739D01*
X269663Y418710D01*
X269668Y418678D01*
X269711Y418597D01*
X269747Y418513D01*
X269773Y418481D01*
X269784Y418460D01*
X269807Y418438D01*
X269852Y418382D01*
X277703Y410531D01*
X277782Y410474D01*
X277857Y410412D01*
X277882Y410402D01*
X277903Y410387D01*
X277996Y410359D01*
X278087Y410324D01*
X278113Y410323D01*
X278138Y410315D01*
X278235Y410317D01*
X278333Y410313D01*
X278358Y410321D01*
X278384Y410321D01*
X278475Y410355D01*
X278569Y410382D01*
X278590Y410397D01*
X278615Y410406D01*
X278691Y410467D01*
X278771Y410522D01*
X278786Y410543D01*
X278807Y410559D01*
X278860Y410642D01*
X278918Y410719D01*
X278926Y410744D01*
X278940Y410766D01*
X278964Y410861D01*
X278994Y410953D01*
X278994Y410979D01*
X279000Y411005D01*
X278992Y411102D01*
X278991Y411199D01*
X278982Y411231D01*
X278981Y411250D01*
X278968Y411280D01*
X278945Y411360D01*
X278771Y411779D01*
X278771Y428221D01*
X280009Y431209D01*
X282295Y433495D01*
X285283Y434733D01*
X288517Y434733D01*
X290984Y433711D01*
X291079Y433689D01*
X291172Y433660D01*
X291198Y433661D01*
X291224Y433655D01*
X291320Y433664D01*
X291418Y433666D01*
X291442Y433675D01*
X291468Y433678D01*
X291558Y433717D01*
X291649Y433751D01*
X291669Y433767D01*
X291693Y433778D01*
X291765Y433844D01*
X291841Y433904D01*
X291855Y433926D01*
X291874Y433944D01*
X291921Y434029D01*
X291974Y434111D01*
X291980Y434137D01*
X291993Y434160D01*
X292010Y434256D01*
X292034Y434350D01*
X292032Y434376D01*
X292037Y434402D01*
X292022Y434498D01*
X292015Y434595D01*
X292005Y434619D01*
X292001Y434645D01*
X291957Y434732D01*
X291919Y434821D01*
X291898Y434847D01*
X291889Y434864D01*
X291866Y434888D01*
X291814Y434952D01*
X274276Y452490D01*
X274202Y452543D01*
X274132Y452603D01*
X274102Y452615D01*
X274076Y452634D01*
X273989Y452661D01*
X273904Y452695D01*
X273863Y452699D01*
X273841Y452706D01*
X273809Y452705D01*
X273737Y452713D01*
X267992Y452713D01*
X267896Y452698D01*
X267799Y452688D01*
X267775Y452678D01*
X267750Y452674D01*
X267664Y452628D01*
X267575Y452588D01*
X267555Y452571D01*
X267532Y452558D01*
X267465Y452488D01*
X267394Y452422D01*
X267381Y452399D01*
X267363Y452380D01*
X267322Y452292D01*
X267275Y452206D01*
X267270Y452181D01*
X267259Y452157D01*
X267249Y452060D01*
X267231Y451964D01*
X267235Y451938D01*
X267232Y451913D01*
X267253Y451817D01*
X267267Y451721D01*
X267279Y451698D01*
X267284Y451672D01*
X267334Y451589D01*
X267379Y451502D01*
X267397Y451483D01*
X267411Y451461D01*
X267485Y451398D01*
X267554Y451330D01*
X267583Y451314D01*
X267598Y451301D01*
X267628Y451289D01*
X267701Y451249D01*
X268856Y450770D01*
X270770Y448856D01*
X271807Y446354D01*
X271807Y443646D01*
X270770Y441144D01*
X268856Y439230D01*
X266354Y438193D01*
X263646Y438193D01*
X263105Y438417D01*
X263041Y438432D01*
X262981Y438457D01*
X262898Y438466D01*
X262866Y438473D01*
X262846Y438472D01*
X262814Y438475D01*
X252286Y438475D01*
X252266Y438472D01*
X252247Y438474D01*
X252145Y438452D01*
X252043Y438436D01*
X252026Y438426D01*
X252006Y438422D01*
X251917Y438369D01*
X251826Y438320D01*
X251812Y438306D01*
X251795Y438296D01*
X251728Y438217D01*
X251656Y438142D01*
X251648Y438124D01*
X251635Y438109D01*
X251596Y438013D01*
X251553Y437919D01*
X251551Y437899D01*
X251543Y437881D01*
X251525Y437714D01*
X251525Y368702D01*
X250531Y366304D01*
X228696Y344469D01*
X226964Y343751D01*
X226881Y343700D01*
X226795Y343654D01*
X226777Y343636D01*
X226755Y343622D01*
X226693Y343546D01*
X226626Y343476D01*
X226615Y343452D01*
X226598Y343432D01*
X226563Y343341D01*
X226522Y343253D01*
X226520Y343227D01*
X226510Y343203D01*
X226506Y343105D01*
X226495Y343009D01*
X226501Y342983D01*
X226500Y342957D01*
X226527Y342863D01*
X226548Y342768D01*
X226561Y342746D01*
X226568Y342721D01*
X226624Y342641D01*
X226674Y342557D01*
X226694Y342540D01*
X226709Y342519D01*
X226787Y342460D01*
X226861Y342397D01*
X226885Y342387D01*
X226906Y342372D01*
X226998Y342342D01*
X227089Y342305D01*
X227121Y342302D01*
X227140Y342296D01*
X227173Y342296D01*
X227256Y342287D01*
X288738Y342287D01*
X288828Y342301D01*
X288919Y342309D01*
X288948Y342321D01*
X288980Y342326D01*
X289061Y342369D01*
X289145Y342405D01*
X289177Y342431D01*
X289198Y342442D01*
X289220Y342465D01*
X289276Y342510D01*
X292332Y345566D01*
X292385Y345640D01*
X292445Y345710D01*
X292457Y345740D01*
X292476Y345766D01*
X292503Y345853D01*
X292537Y345938D01*
X292541Y345979D01*
X292548Y346001D01*
X292547Y346033D01*
X292555Y346104D01*
X292555Y360439D01*
X293947Y363800D01*
X296520Y366373D01*
X299881Y367765D01*
X303519Y367765D01*
X306880Y366373D01*
X309453Y363800D01*
X310845Y360439D01*
X310845Y341561D01*
X309453Y338200D01*
X306880Y335627D01*
X303519Y334235D01*
X299881Y334235D01*
X296520Y335627D01*
X293947Y338200D01*
X293647Y338925D01*
X293623Y338964D01*
X293607Y339007D01*
X293559Y339068D01*
X293518Y339134D01*
X293482Y339163D01*
X293454Y339199D01*
X293388Y339241D01*
X293328Y339291D01*
X293285Y339307D01*
X293247Y339332D01*
X293171Y339351D01*
X293099Y339379D01*
X293053Y339381D01*
X293008Y339392D01*
X292931Y339386D01*
X292853Y339389D01*
X292809Y339376D01*
X292763Y339373D01*
X292691Y339342D01*
X292617Y339321D01*
X292579Y339295D01*
X292537Y339277D01*
X292430Y339191D01*
X292414Y339180D01*
X292411Y339176D01*
X292406Y339172D01*
X290947Y337713D01*
X189053Y337713D01*
X139276Y387490D01*
X139202Y387543D01*
X139132Y387603D01*
X139102Y387615D01*
X139076Y387634D01*
X138989Y387661D01*
X138904Y387695D01*
X138863Y387699D01*
X138841Y387706D01*
X138809Y387705D01*
X138737Y387713D01*
X54053Y387713D01*
X52713Y389053D01*
X52713Y430947D01*
X66227Y444461D01*
X66254Y444498D01*
X66287Y444529D01*
X66325Y444597D01*
X66370Y444661D01*
X66384Y444704D01*
X66406Y444745D01*
X66420Y444821D01*
X66443Y444896D01*
X66442Y444941D01*
X66450Y444987D01*
X66438Y445064D01*
X66436Y445141D01*
X66421Y445185D01*
X66414Y445230D01*
X66379Y445299D01*
X66352Y445372D01*
X66323Y445408D01*
X66302Y445449D01*
X66247Y445504D01*
X66198Y445565D01*
X66160Y445589D01*
X66127Y445621D01*
X66007Y445687D01*
X65991Y445698D01*
X65986Y445699D01*
X65980Y445702D01*
X63791Y446609D01*
X61505Y448895D01*
X60267Y451883D01*
X60267Y455117D01*
X61505Y458105D01*
X63791Y460391D01*
X66779Y461629D01*
X83221Y461629D01*
X86209Y460391D01*
X88495Y458105D01*
X89733Y455117D01*
X89733Y451883D01*
X88495Y448895D01*
X86209Y446609D01*
X83221Y445371D01*
X73921Y445371D01*
X73830Y445357D01*
X73740Y445349D01*
X73710Y445337D01*
X73678Y445332D01*
X73597Y445289D01*
X73513Y445253D01*
X73481Y445227D01*
X73460Y445216D01*
X73438Y445193D01*
X73382Y445148D01*
X65531Y437297D01*
X65474Y437218D01*
X65412Y437143D01*
X65402Y437118D01*
X65387Y437097D01*
X65359Y437004D01*
X65324Y436913D01*
X65323Y436887D01*
X65315Y436862D01*
X65317Y436765D01*
X65313Y436667D01*
X65321Y436642D01*
X65321Y436616D01*
X65355Y436525D01*
X65382Y436431D01*
X65397Y436410D01*
X65406Y436385D01*
X65467Y436309D01*
X65522Y436229D01*
X65543Y436214D01*
X65559Y436193D01*
X65641Y436140D01*
X65719Y436082D01*
X65744Y436074D01*
X65766Y436060D01*
X65861Y436036D01*
X65953Y436006D01*
X65980Y436006D01*
X66005Y436000D01*
X66102Y436008D01*
X66199Y436009D01*
X66231Y436018D01*
X66250Y436019D01*
X66280Y436032D01*
X66360Y436055D01*
X66779Y436229D01*
X83221Y436229D01*
X86209Y434991D01*
X88495Y432705D01*
X89733Y429717D01*
X89733Y426483D01*
X88495Y423495D01*
X86209Y421209D01*
X83221Y419971D01*
X66779Y419971D01*
X63791Y421209D01*
X61505Y423495D01*
X60267Y426483D01*
X60267Y429717D01*
X60441Y430136D01*
X60463Y430230D01*
X60492Y430323D01*
X60491Y430350D01*
X60497Y430375D01*
X60488Y430472D01*
X60485Y430569D01*
X60476Y430594D01*
X60474Y430620D01*
X60434Y430709D01*
X60401Y430800D01*
X60384Y430821D01*
X60374Y430845D01*
X60308Y430916D01*
X60247Y430992D01*
X60225Y431007D01*
X60207Y431026D01*
X60122Y431073D01*
X60040Y431125D01*
X60015Y431132D01*
X59992Y431144D01*
X59896Y431162D01*
X59802Y431185D01*
X59776Y431183D01*
X59750Y431188D01*
X59653Y431174D01*
X59556Y431166D01*
X59532Y431156D01*
X59507Y431152D01*
X59420Y431108D01*
X59330Y431070D01*
X59305Y431050D01*
X59287Y431041D01*
X59264Y431017D01*
X59199Y430965D01*
X57510Y429276D01*
X57457Y429202D01*
X57397Y429132D01*
X57385Y429102D01*
X57366Y429076D01*
X57339Y428989D01*
X57305Y428904D01*
X57301Y428863D01*
X57294Y428841D01*
X57295Y428809D01*
X57287Y428737D01*
X57287Y393048D01*
X57289Y393037D01*
X57288Y393030D01*
X57289Y393023D01*
X57288Y393009D01*
X57310Y392907D01*
X57326Y392805D01*
X57336Y392788D01*
X57340Y392768D01*
X57393Y392679D01*
X57442Y392588D01*
X57456Y392574D01*
X57466Y392557D01*
X57545Y392490D01*
X57620Y392418D01*
X57638Y392410D01*
X57653Y392397D01*
X57749Y392358D01*
X57843Y392315D01*
X57863Y392313D01*
X57881Y392305D01*
X58048Y392287D01*
X140947Y392287D01*
X190724Y342510D01*
X190798Y342457D01*
X190868Y342397D01*
X190898Y342385D01*
X190924Y342366D01*
X191011Y342339D01*
X191096Y342305D01*
X191137Y342301D01*
X191159Y342294D01*
X191191Y342295D01*
X191263Y342287D01*
X196536Y342287D01*
X196632Y342302D01*
X196729Y342312D01*
X196753Y342322D01*
X196779Y342326D01*
X196865Y342372D01*
X196954Y342412D01*
X196973Y342429D01*
X196996Y342442D01*
X197063Y342512D01*
X197135Y342578D01*
X197148Y342601D01*
X197166Y342620D01*
X197207Y342708D01*
X197254Y342794D01*
X197258Y342819D01*
X197269Y342843D01*
X197280Y342940D01*
X197297Y343036D01*
X197293Y343062D01*
X197296Y343087D01*
X197276Y343183D01*
X197261Y343279D01*
X197250Y343302D01*
X197244Y343328D01*
X197194Y343411D01*
X197150Y343498D01*
X197131Y343517D01*
X197118Y343539D01*
X197044Y343602D01*
X196974Y343670D01*
X196946Y343686D01*
X196931Y343699D01*
X196900Y343711D01*
X196827Y343751D01*
X193791Y345009D01*
X191505Y347295D01*
X190267Y350283D01*
X190267Y353517D01*
X191505Y356505D01*
X193791Y358791D01*
X196779Y360029D01*
X213221Y360029D01*
X216209Y358791D01*
X218252Y356748D01*
X218326Y356695D01*
X218395Y356635D01*
X218426Y356623D01*
X218452Y356604D01*
X218539Y356577D01*
X218624Y356543D01*
X218665Y356539D01*
X218687Y356532D01*
X218719Y356533D01*
X218790Y356525D01*
X221982Y356525D01*
X222072Y356539D01*
X222163Y356547D01*
X222193Y356559D01*
X222225Y356564D01*
X222305Y356607D01*
X222389Y356643D01*
X222421Y356669D01*
X222442Y356680D01*
X222446Y356684D01*
X222447Y356684D01*
X222465Y356704D01*
X222520Y356748D01*
X238252Y372480D01*
X238305Y372554D01*
X238365Y372623D01*
X238377Y372653D01*
X238396Y372679D01*
X238423Y372766D01*
X238457Y372851D01*
X238461Y372892D01*
X238468Y372914D01*
X238467Y372947D01*
X238475Y373018D01*
X238475Y433404D01*
X238464Y433474D01*
X238462Y433546D01*
X238444Y433595D01*
X238436Y433646D01*
X238402Y433710D01*
X238377Y433777D01*
X238345Y433818D01*
X238320Y433864D01*
X238268Y433913D01*
X238224Y433969D01*
X238180Y433997D01*
X238142Y434033D01*
X238077Y434063D01*
X238017Y434102D01*
X237966Y434115D01*
X237919Y434137D01*
X237848Y434145D01*
X237778Y434162D01*
X237726Y434158D01*
X237675Y434164D01*
X237604Y434149D01*
X237533Y434143D01*
X237485Y434123D01*
X237434Y434112D01*
X237373Y434075D01*
X237307Y434047D01*
X237251Y434002D01*
X237223Y433985D01*
X237208Y433968D01*
X237176Y433942D01*
X235724Y432490D01*
X215947Y412713D01*
X191263Y412713D01*
X191172Y412699D01*
X191082Y412691D01*
X191052Y412679D01*
X191020Y412674D01*
X190939Y412631D01*
X190855Y412595D01*
X190823Y412569D01*
X190802Y412558D01*
X190780Y412535D01*
X190724Y412490D01*
X180530Y402296D01*
X180477Y402222D01*
X180417Y402152D01*
X180405Y402122D01*
X180386Y402096D01*
X180359Y402009D01*
X180325Y401924D01*
X180321Y401883D01*
X180314Y401861D01*
X180315Y401829D01*
X180307Y401757D01*
X180307Y397802D01*
X177198Y394693D01*
X172802Y394693D01*
X169693Y397802D01*
X169693Y402198D01*
X172802Y405307D01*
X176757Y405307D01*
X176848Y405321D01*
X176938Y405329D01*
X176968Y405341D01*
X177000Y405346D01*
X177081Y405389D01*
X177165Y405425D01*
X177197Y405451D01*
X177218Y405462D01*
X177240Y405485D01*
X177296Y405530D01*
X189053Y417287D01*
X213737Y417287D01*
X213828Y417301D01*
X213918Y417309D01*
X213948Y417321D01*
X213980Y417326D01*
X214061Y417369D01*
X214145Y417405D01*
X214177Y417431D01*
X214198Y417442D01*
X214220Y417465D01*
X214276Y417510D01*
X216518Y419752D01*
X216575Y419831D01*
X216637Y419906D01*
X216646Y419930D01*
X216661Y419951D01*
X216690Y420044D01*
X216725Y420135D01*
X216726Y420161D01*
X216734Y420186D01*
X216731Y420284D01*
X216735Y420381D01*
X216728Y420406D01*
X216727Y420432D01*
X216694Y420524D01*
X216667Y420617D01*
X216652Y420639D01*
X216643Y420663D01*
X216582Y420739D01*
X216526Y420819D01*
X216505Y420835D01*
X216489Y420855D01*
X216407Y420908D01*
X216329Y420966D01*
X216304Y420974D01*
X216282Y420988D01*
X216188Y421012D01*
X216095Y421042D01*
X216069Y421042D01*
X216044Y421048D01*
X215947Y421041D01*
X215849Y421040D01*
X215818Y421031D01*
X215798Y421029D01*
X215768Y421016D01*
X215688Y420993D01*
X213221Y419971D01*
X196779Y419971D01*
X193791Y421209D01*
X191505Y423495D01*
X190267Y426483D01*
X190267Y429717D01*
X191388Y432423D01*
X191399Y432467D01*
X191418Y432509D01*
X191426Y432586D01*
X191444Y432662D01*
X191440Y432708D01*
X191445Y432753D01*
X191428Y432830D01*
X191421Y432907D01*
X191402Y432949D01*
X191393Y432994D01*
X191353Y433061D01*
X191321Y433132D01*
X191290Y433166D01*
X191267Y433205D01*
X191207Y433256D01*
X191155Y433313D01*
X191114Y433335D01*
X191080Y433365D01*
X191007Y433394D01*
X190939Y433431D01*
X190894Y433440D01*
X190851Y433457D01*
X190716Y433472D01*
X190697Y433475D01*
X190692Y433474D01*
X190685Y433475D01*
X188702Y433475D01*
X186304Y434469D01*
X174469Y446304D01*
X173475Y448702D01*
X173475Y506298D01*
X174469Y508696D01*
X176304Y510531D01*
X178702Y511525D01*
X206982Y511525D01*
X207072Y511539D01*
X207163Y511547D01*
X207193Y511559D01*
X207225Y511564D01*
X207305Y511607D01*
X207389Y511643D01*
X207421Y511669D01*
X207442Y511680D01*
X207464Y511703D01*
X207520Y511748D01*
X231304Y535531D01*
X233702Y536525D01*
X256794Y536525D01*
X256814Y536528D01*
X256833Y536526D01*
X256935Y536548D01*
X257037Y536564D01*
X257054Y536574D01*
X257074Y536578D01*
X257163Y536631D01*
X257254Y536680D01*
X257268Y536694D01*
X257285Y536704D01*
X257352Y536783D01*
X257424Y536858D01*
X257432Y536876D01*
X257445Y536891D01*
X257484Y536987D01*
X257527Y537081D01*
X257529Y537101D01*
X257537Y537119D01*
X257555Y537286D01*
X257555Y540139D01*
X258947Y543500D01*
X261520Y546073D01*
X264881Y547465D01*
X268519Y547465D01*
X271880Y546073D01*
X274453Y543500D01*
X275845Y540139D01*
X275845Y521261D01*
X274453Y517900D01*
X271880Y515327D01*
X268519Y513935D01*
X264881Y513935D01*
X261520Y515327D01*
X258947Y517900D01*
X257555Y521261D01*
X257555Y522714D01*
X257552Y522734D01*
X257554Y522753D01*
X257532Y522855D01*
X257516Y522957D01*
X257506Y522974D01*
X257502Y522994D01*
X257449Y523083D01*
X257400Y523174D01*
X257386Y523188D01*
X257376Y523205D01*
X257297Y523272D01*
X257222Y523344D01*
X257204Y523352D01*
X257189Y523365D01*
X257093Y523404D01*
X256999Y523447D01*
X256979Y523449D01*
X256961Y523457D01*
X256794Y523475D01*
X238018Y523475D01*
X237928Y523461D01*
X237837Y523453D01*
X237807Y523441D01*
X237775Y523436D01*
X237695Y523393D01*
X237611Y523357D01*
X237579Y523331D01*
X237558Y523320D01*
X237536Y523297D01*
X237480Y523252D01*
X216372Y502145D01*
X216315Y502066D01*
X216253Y501991D01*
X216244Y501966D01*
X216229Y501945D01*
X216200Y501852D01*
X216165Y501761D01*
X216164Y501735D01*
X216156Y501710D01*
X216159Y501613D01*
X216155Y501515D01*
X216162Y501490D01*
X216163Y501464D01*
X216196Y501373D01*
X216223Y501279D01*
X216238Y501258D01*
X216247Y501233D01*
X216308Y501157D01*
X216364Y501077D01*
X216384Y501062D01*
X216401Y501041D01*
X216483Y500988D01*
X216561Y500930D01*
X216586Y500922D01*
X216608Y500908D01*
X216702Y500884D01*
X216795Y500854D01*
X216821Y500854D01*
X216846Y500848D01*
X216943Y500856D01*
X217041Y500857D01*
X217072Y500866D01*
X217091Y500867D01*
X217122Y500880D01*
X217202Y500903D01*
X218702Y501525D01*
X376298Y501525D01*
X378641Y500554D01*
X378685Y500544D01*
X378727Y500524D01*
X378804Y500516D01*
X378880Y500498D01*
X378926Y500502D01*
X378971Y500497D01*
X379048Y500514D01*
X379125Y500521D01*
X379167Y500540D01*
X379212Y500550D01*
X379279Y500590D01*
X379350Y500621D01*
X379384Y500652D01*
X379423Y500676D01*
X379474Y500735D01*
X379531Y500788D01*
X379553Y500828D01*
X379583Y500863D01*
X379612Y500935D01*
X379649Y501003D01*
X379658Y501048D01*
X379675Y501091D01*
X379690Y501227D01*
X379693Y501245D01*
X379692Y501250D01*
X379693Y501258D01*
X379693Y502198D01*
X382802Y505307D01*
X387198Y505307D01*
X389995Y502510D01*
X390069Y502457D01*
X390139Y502397D01*
X390169Y502385D01*
X390195Y502366D01*
X390282Y502339D01*
X390367Y502305D01*
X390408Y502301D01*
X390430Y502294D01*
X390462Y502295D01*
X390533Y502287D01*
X803738Y502287D01*
X803828Y502301D01*
X803919Y502309D01*
X803948Y502321D01*
X803980Y502326D01*
X804061Y502369D01*
X804145Y502405D01*
X804177Y502431D01*
X804198Y502442D01*
X804220Y502465D01*
X804276Y502510D01*
X846432Y544666D01*
X846485Y544740D01*
X846545Y544810D01*
X846557Y544840D01*
X846576Y544866D01*
X846603Y544953D01*
X846637Y545038D01*
X846641Y545079D01*
X846648Y545101D01*
X846647Y545133D01*
X846655Y545204D01*
X846655Y562839D01*
X848047Y566200D01*
X850620Y568773D01*
X853981Y570165D01*
X857619Y570165D01*
X860882Y568813D01*
X860976Y568791D01*
X861069Y568762D01*
X861096Y568763D01*
X861121Y568757D01*
X861218Y568766D01*
X861315Y568769D01*
X861340Y568778D01*
X861366Y568780D01*
X861455Y568820D01*
X861546Y568853D01*
X861567Y568870D01*
X861591Y568880D01*
X861662Y568946D01*
X861738Y569007D01*
X861752Y569029D01*
X861772Y569047D01*
X861819Y569132D01*
X861871Y569214D01*
X861878Y569239D01*
X861890Y569262D01*
X861908Y569358D01*
X861931Y569452D01*
X861929Y569478D01*
X861934Y569504D01*
X861920Y569601D01*
X861912Y569698D01*
X861902Y569722D01*
X861898Y569748D01*
X861854Y569835D01*
X861816Y569924D01*
X861796Y569949D01*
X861787Y569967D01*
X861763Y569990D01*
X861711Y570055D01*
X859276Y572490D01*
X859202Y572543D01*
X859132Y572603D01*
X859102Y572615D01*
X859076Y572634D01*
X858989Y572661D01*
X858904Y572695D01*
X858863Y572699D01*
X858841Y572706D01*
X858809Y572705D01*
X858737Y572713D01*
X611263Y572713D01*
X611172Y572699D01*
X611082Y572691D01*
X611052Y572679D01*
X611020Y572674D01*
X610939Y572631D01*
X610855Y572595D01*
X610823Y572569D01*
X610802Y572558D01*
X610780Y572535D01*
X610724Y572490D01*
X560130Y521896D01*
X560077Y521822D01*
X560017Y521752D01*
X560005Y521722D01*
X559986Y521696D01*
X559959Y521609D01*
X559925Y521524D01*
X559921Y521483D01*
X559914Y521461D01*
X559915Y521429D01*
X559907Y521357D01*
X559907Y513196D01*
X554104Y507393D01*
X545896Y507393D01*
X540093Y513196D01*
X540093Y521404D01*
X545896Y527207D01*
X554104Y527207D01*
X556000Y525310D01*
X556016Y525299D01*
X556029Y525283D01*
X556116Y525227D01*
X556200Y525167D01*
X556219Y525161D01*
X556235Y525150D01*
X556336Y525125D01*
X556435Y525094D01*
X556455Y525095D01*
X556474Y525090D01*
X556577Y525098D01*
X556681Y525101D01*
X556699Y525108D01*
X556719Y525109D01*
X556814Y525150D01*
X556912Y525185D01*
X556927Y525198D01*
X556945Y525206D01*
X557076Y525310D01*
X609053Y577287D01*
X860947Y577287D01*
X862510Y575724D01*
X872228Y566006D01*
X872265Y565979D01*
X872296Y565945D01*
X872364Y565908D01*
X872428Y565863D01*
X872471Y565849D01*
X872512Y565827D01*
X872588Y565813D01*
X872663Y565790D01*
X872709Y565791D01*
X872754Y565783D01*
X872831Y565795D01*
X872909Y565797D01*
X872952Y565812D01*
X872997Y565819D01*
X873066Y565854D01*
X873140Y565881D01*
X873175Y565910D01*
X873216Y565931D01*
X873271Y565986D01*
X873332Y566035D01*
X873356Y566073D01*
X873389Y566106D01*
X873431Y566184D01*
X876020Y568773D01*
X879381Y570165D01*
X883019Y570165D01*
X886380Y568773D01*
X888953Y566200D01*
X890345Y562839D01*
X890345Y543961D01*
X888953Y540600D01*
X886380Y538027D01*
X883019Y536635D01*
X879381Y536635D01*
X876020Y538027D01*
X873447Y540600D01*
X872055Y543961D01*
X872055Y559395D01*
X872041Y559486D01*
X872033Y559576D01*
X872021Y559606D01*
X872016Y559638D01*
X871973Y559719D01*
X871937Y559803D01*
X871911Y559835D01*
X871900Y559856D01*
X871877Y559878D01*
X871832Y559934D01*
X864835Y566931D01*
X864756Y566988D01*
X864681Y567050D01*
X864656Y567059D01*
X864635Y567075D01*
X864542Y567103D01*
X864451Y567138D01*
X864425Y567139D01*
X864400Y567147D01*
X864303Y567145D01*
X864205Y567149D01*
X864180Y567141D01*
X864154Y567141D01*
X864063Y567107D01*
X863969Y567080D01*
X863948Y567065D01*
X863923Y567056D01*
X863847Y566995D01*
X863767Y566940D01*
X863752Y566919D01*
X863731Y566903D01*
X863679Y566821D01*
X863620Y566743D01*
X863612Y566718D01*
X863598Y566696D01*
X863574Y566601D01*
X863544Y566509D01*
X863544Y566482D01*
X863538Y566457D01*
X863546Y566360D01*
X863547Y566263D01*
X863556Y566231D01*
X863557Y566212D01*
X863570Y566182D01*
X863593Y566102D01*
X864945Y562839D01*
X864945Y543961D01*
X863553Y540600D01*
X860980Y538027D01*
X857619Y536635D01*
X853981Y536635D01*
X850620Y538027D01*
X848979Y539668D01*
X848963Y539680D01*
X848950Y539696D01*
X848863Y539752D01*
X848779Y539812D01*
X848760Y539818D01*
X848743Y539829D01*
X848643Y539854D01*
X848544Y539884D01*
X848524Y539884D01*
X848505Y539889D01*
X848402Y539881D01*
X848298Y539878D01*
X848279Y539871D01*
X848260Y539870D01*
X848165Y539829D01*
X848067Y539794D01*
X848052Y539781D01*
X848033Y539773D01*
X847902Y539668D01*
X807510Y499276D01*
X805947Y497713D01*
X390533Y497713D01*
X390443Y497699D01*
X390352Y497691D01*
X390323Y497679D01*
X390291Y497674D01*
X390210Y497631D01*
X390126Y497595D01*
X390094Y497569D01*
X390073Y497558D01*
X390051Y497535D01*
X389995Y497490D01*
X387198Y494693D01*
X386372Y494693D01*
X386301Y494682D01*
X386229Y494680D01*
X386180Y494662D01*
X386129Y494654D01*
X386066Y494620D01*
X385998Y494595D01*
X385958Y494563D01*
X385912Y494538D01*
X385862Y494486D01*
X385806Y494442D01*
X385778Y494398D01*
X385742Y494360D01*
X385712Y494295D01*
X385673Y494235D01*
X385661Y494184D01*
X385639Y494137D01*
X385631Y494066D01*
X385613Y493996D01*
X385617Y493944D01*
X385612Y493893D01*
X385627Y493822D01*
X385632Y493751D01*
X385653Y493703D01*
X385664Y493652D01*
X385701Y493591D01*
X385729Y493525D01*
X385774Y493469D01*
X385790Y493441D01*
X385808Y493426D01*
X385834Y493394D01*
X392480Y486748D01*
X392554Y486695D01*
X392623Y486635D01*
X392653Y486623D01*
X392679Y486604D01*
X392766Y486577D01*
X392851Y486543D01*
X392892Y486539D01*
X392914Y486532D01*
X392947Y486533D01*
X393018Y486525D01*
X622814Y486525D01*
X622878Y486535D01*
X622944Y486536D01*
X623024Y486559D01*
X623057Y486564D01*
X623074Y486574D01*
X623105Y486583D01*
X623646Y486807D01*
X626354Y486807D01*
X628856Y485770D01*
X630770Y483856D01*
X631807Y481354D01*
X631807Y478646D01*
X630770Y476144D01*
X628856Y474230D01*
X626354Y473193D01*
X623646Y473193D01*
X623105Y473417D01*
X623041Y473432D01*
X622981Y473457D01*
X622898Y473466D01*
X622866Y473473D01*
X622846Y473472D01*
X622814Y473475D01*
X388702Y473475D01*
X386304Y474469D01*
X372520Y488252D01*
X372446Y488305D01*
X372377Y488365D01*
X372347Y488377D01*
X372321Y488396D01*
X372234Y488423D01*
X372149Y488457D01*
X372108Y488461D01*
X372086Y488468D01*
X372053Y488467D01*
X371982Y488475D01*
X223018Y488475D01*
X222928Y488461D01*
X222837Y488453D01*
X222807Y488441D01*
X222775Y488436D01*
X222695Y488393D01*
X222611Y488357D01*
X222579Y488331D01*
X222558Y488320D01*
X222536Y488297D01*
X222480Y488252D01*
X218631Y484404D01*
X218563Y484309D01*
X218493Y484215D01*
X218491Y484209D01*
X218488Y484204D01*
X218454Y484093D01*
X218417Y483981D01*
X218417Y483975D01*
X218415Y483969D01*
X218418Y483852D01*
X218420Y483735D01*
X218422Y483728D01*
X218422Y483723D01*
X218428Y483706D01*
X218466Y483574D01*
X219733Y480517D01*
X219733Y477283D01*
X218495Y474295D01*
X216209Y472009D01*
X213221Y470771D01*
X196779Y470771D01*
X193791Y472009D01*
X191505Y474295D01*
X190267Y477283D01*
X190267Y480517D01*
X191505Y483505D01*
X193791Y485791D01*
X196779Y487029D01*
X202486Y487029D01*
X202576Y487043D01*
X202667Y487051D01*
X202697Y487063D01*
X202729Y487068D01*
X202810Y487111D01*
X202893Y487147D01*
X202926Y487173D01*
X202946Y487184D01*
X202968Y487207D01*
X203024Y487252D01*
X213628Y497855D01*
X213685Y497934D01*
X213747Y498009D01*
X213756Y498034D01*
X213771Y498055D01*
X213800Y498148D01*
X213835Y498239D01*
X213836Y498265D01*
X213844Y498290D01*
X213841Y498387D01*
X213845Y498485D01*
X213838Y498510D01*
X213837Y498536D01*
X213804Y498627D01*
X213777Y498721D01*
X213762Y498742D01*
X213753Y498767D01*
X213692Y498843D01*
X213637Y498923D01*
X213616Y498938D01*
X213599Y498959D01*
X213517Y499012D01*
X213439Y499070D01*
X213414Y499078D01*
X213392Y499092D01*
X213298Y499116D01*
X213205Y499146D01*
X213179Y499146D01*
X213154Y499152D01*
X213057Y499144D01*
X212959Y499143D01*
X212928Y499134D01*
X212909Y499133D01*
X212878Y499120D01*
X212798Y499097D01*
X211298Y498475D01*
X187286Y498475D01*
X187266Y498472D01*
X187247Y498474D01*
X187145Y498452D01*
X187043Y498436D01*
X187026Y498426D01*
X187006Y498422D01*
X186917Y498369D01*
X186826Y498320D01*
X186812Y498306D01*
X186795Y498296D01*
X186728Y498217D01*
X186656Y498142D01*
X186648Y498124D01*
X186635Y498109D01*
X186596Y498013D01*
X186553Y497919D01*
X186551Y497899D01*
X186543Y497881D01*
X186525Y497714D01*
X186525Y453018D01*
X186539Y452928D01*
X186547Y452837D01*
X186559Y452807D01*
X186564Y452775D01*
X186607Y452695D01*
X186643Y452611D01*
X186669Y452578D01*
X186680Y452558D01*
X186703Y452536D01*
X186748Y452480D01*
X189628Y449599D01*
X189707Y449542D01*
X189782Y449480D01*
X189807Y449471D01*
X189828Y449456D01*
X189921Y449427D01*
X190012Y449392D01*
X190038Y449391D01*
X190063Y449383D01*
X190160Y449386D01*
X190257Y449382D01*
X190283Y449389D01*
X190309Y449390D01*
X190400Y449423D01*
X190494Y449450D01*
X190515Y449465D01*
X190540Y449474D01*
X190616Y449535D01*
X190696Y449591D01*
X190711Y449612D01*
X190732Y449628D01*
X190784Y449710D01*
X190843Y449788D01*
X190851Y449813D01*
X190865Y449835D01*
X190889Y449929D01*
X190919Y450022D01*
X190918Y450048D01*
X190925Y450073D01*
X190917Y450170D01*
X190916Y450268D01*
X190907Y450299D01*
X190906Y450319D01*
X190893Y450349D01*
X190870Y450429D01*
X190267Y451883D01*
X190267Y455117D01*
X191505Y458105D01*
X193791Y460391D01*
X196779Y461629D01*
X202086Y461629D01*
X202176Y461643D01*
X202267Y461651D01*
X202297Y461663D01*
X202329Y461668D01*
X202409Y461711D01*
X202493Y461747D01*
X202525Y461773D01*
X202546Y461784D01*
X202568Y461807D01*
X202624Y461852D01*
X206304Y465531D01*
X208702Y466525D01*
X216982Y466525D01*
X217072Y466539D01*
X217163Y466547D01*
X217193Y466559D01*
X217225Y466564D01*
X217305Y466607D01*
X217389Y466643D01*
X217421Y466669D01*
X217442Y466680D01*
X217464Y466703D01*
X217520Y466748D01*
X221304Y470531D01*
X223702Y471525D01*
X671298Y471525D01*
X673696Y470531D01*
X757480Y386748D01*
X757554Y386695D01*
X757623Y386635D01*
X757653Y386623D01*
X757679Y386604D01*
X757766Y386577D01*
X757851Y386543D01*
X757892Y386539D01*
X757914Y386532D01*
X757947Y386533D01*
X758018Y386525D01*
X786298Y386525D01*
X788696Y385531D01*
X867480Y306748D01*
X867554Y306695D01*
X867623Y306635D01*
X867653Y306623D01*
X867679Y306604D01*
X867766Y306577D01*
X867851Y306543D01*
X867892Y306539D01*
X867914Y306532D01*
X867947Y306533D01*
X868018Y306525D01*
X881298Y306525D01*
X883696Y305531D01*
X887376Y301852D01*
X887450Y301799D01*
X887519Y301739D01*
X887549Y301727D01*
X887575Y301708D01*
X887662Y301681D01*
X887747Y301647D01*
X887788Y301643D01*
X887810Y301636D01*
X887843Y301637D01*
X887914Y301629D01*
X898221Y301629D01*
X901209Y300391D01*
X903495Y298105D01*
X904733Y295117D01*
X904733Y291883D01*
X903495Y288895D01*
X901209Y286609D01*
X898221Y285371D01*
X881779Y285371D01*
G37*
%LPD*%
%LPC*%
G36*
X881779Y183771D02*
X881779Y183771D01*
X878791Y185009D01*
X876505Y187295D01*
X875267Y190283D01*
X875267Y193517D01*
X876505Y196505D01*
X878791Y198791D01*
X881779Y200029D01*
X885486Y200029D01*
X885576Y200043D01*
X885667Y200051D01*
X885697Y200063D01*
X885729Y200068D01*
X885809Y200111D01*
X885893Y200147D01*
X885926Y200173D01*
X885946Y200184D01*
X885968Y200207D01*
X886024Y200252D01*
X886411Y200638D01*
X889362Y203589D01*
X891304Y205531D01*
X893702Y206525D01*
X901982Y206525D01*
X902072Y206539D01*
X902163Y206547D01*
X902193Y206559D01*
X902225Y206564D01*
X902305Y206607D01*
X902389Y206643D01*
X902421Y206669D01*
X902442Y206680D01*
X902464Y206703D01*
X902520Y206748D01*
X988252Y292480D01*
X988305Y292554D01*
X988365Y292623D01*
X988377Y292653D01*
X988396Y292679D01*
X988423Y292766D01*
X988457Y292851D01*
X988461Y292892D01*
X988468Y292914D01*
X988467Y292947D01*
X988475Y293018D01*
X988475Y361298D01*
X989469Y363696D01*
X991304Y365531D01*
X993702Y366525D01*
X1051982Y366525D01*
X1052072Y366539D01*
X1052163Y366547D01*
X1052193Y366559D01*
X1052225Y366564D01*
X1052305Y366607D01*
X1052389Y366643D01*
X1052421Y366669D01*
X1052442Y366680D01*
X1052464Y366703D01*
X1052520Y366748D01*
X1068252Y382480D01*
X1068305Y382554D01*
X1068365Y382623D01*
X1068377Y382653D01*
X1068396Y382679D01*
X1068423Y382766D01*
X1068457Y382851D01*
X1068461Y382892D01*
X1068468Y382914D01*
X1068467Y382947D01*
X1068475Y383018D01*
X1068475Y477714D01*
X1068472Y477734D01*
X1068474Y477753D01*
X1068452Y477855D01*
X1068436Y477957D01*
X1068426Y477974D01*
X1068422Y477994D01*
X1068369Y478083D01*
X1068320Y478174D01*
X1068306Y478188D01*
X1068296Y478205D01*
X1068217Y478272D01*
X1068142Y478344D01*
X1068124Y478352D01*
X1068109Y478365D01*
X1068013Y478404D01*
X1067919Y478447D01*
X1067899Y478449D01*
X1067881Y478457D01*
X1067714Y478475D01*
X1051306Y478475D01*
X1051286Y478472D01*
X1051267Y478474D01*
X1051165Y478452D01*
X1051063Y478436D01*
X1051046Y478426D01*
X1051026Y478422D01*
X1050937Y478369D01*
X1050846Y478320D01*
X1050832Y478306D01*
X1050815Y478296D01*
X1050748Y478217D01*
X1050676Y478142D01*
X1050668Y478124D01*
X1050655Y478109D01*
X1050616Y478013D01*
X1050573Y477919D01*
X1050571Y477899D01*
X1050563Y477881D01*
X1050552Y477778D01*
X1049153Y474400D01*
X1046580Y471827D01*
X1043219Y470435D01*
X1039581Y470435D01*
X1036220Y471827D01*
X1033647Y474400D01*
X1032255Y477761D01*
X1032255Y496639D01*
X1033647Y500000D01*
X1036220Y502573D01*
X1039581Y503965D01*
X1043219Y503965D01*
X1046580Y502573D01*
X1049153Y500000D01*
X1050545Y496639D01*
X1050545Y492286D01*
X1050548Y492266D01*
X1050546Y492247D01*
X1050568Y492145D01*
X1050584Y492043D01*
X1050594Y492026D01*
X1050598Y492006D01*
X1050651Y491917D01*
X1050700Y491826D01*
X1050714Y491812D01*
X1050724Y491795D01*
X1050803Y491728D01*
X1050878Y491656D01*
X1050896Y491648D01*
X1050911Y491635D01*
X1051007Y491596D01*
X1051101Y491553D01*
X1051121Y491551D01*
X1051139Y491543D01*
X1051306Y491525D01*
X1076298Y491525D01*
X1078696Y490531D01*
X1080531Y488696D01*
X1081525Y486298D01*
X1081525Y378702D01*
X1080531Y376304D01*
X1058696Y354469D01*
X1056298Y353475D01*
X1002286Y353475D01*
X1002266Y353472D01*
X1002247Y353474D01*
X1002145Y353452D01*
X1002043Y353436D01*
X1002026Y353426D01*
X1002006Y353422D01*
X1001917Y353369D01*
X1001826Y353320D01*
X1001812Y353306D01*
X1001795Y353296D01*
X1001728Y353217D01*
X1001656Y353142D01*
X1001648Y353124D01*
X1001635Y353109D01*
X1001596Y353013D01*
X1001553Y352919D01*
X1001551Y352899D01*
X1001543Y352881D01*
X1001525Y352714D01*
X1001525Y288702D01*
X1000531Y286304D01*
X908696Y194469D01*
X906298Y193475D01*
X905494Y193475D01*
X905474Y193472D01*
X905455Y193474D01*
X905353Y193452D01*
X905251Y193436D01*
X905234Y193426D01*
X905214Y193422D01*
X905125Y193369D01*
X905034Y193320D01*
X905020Y193306D01*
X905003Y193296D01*
X904936Y193217D01*
X904864Y193142D01*
X904856Y193124D01*
X904843Y193109D01*
X904804Y193013D01*
X904761Y192919D01*
X904759Y192899D01*
X904751Y192881D01*
X904733Y192714D01*
X904733Y190283D01*
X903495Y187295D01*
X901209Y185009D01*
X898221Y183771D01*
X881779Y183771D01*
G37*
%LPD*%
G36*
X268828Y277301D02*
X268828Y277301D01*
X268918Y277309D01*
X268948Y277321D01*
X268980Y277326D01*
X269061Y277369D01*
X269145Y277405D01*
X269177Y277431D01*
X269198Y277442D01*
X269220Y277465D01*
X269276Y277510D01*
X292332Y300566D01*
X292385Y300640D01*
X292445Y300710D01*
X292457Y300740D01*
X292476Y300766D01*
X292503Y300853D01*
X292537Y300938D01*
X292541Y300979D01*
X292548Y301001D01*
X292547Y301033D01*
X292555Y301104D01*
X292555Y317339D01*
X293947Y320700D01*
X296520Y323273D01*
X299881Y324665D01*
X303519Y324665D01*
X306099Y323596D01*
X306193Y323574D01*
X306287Y323545D01*
X306313Y323546D01*
X306338Y323540D01*
X306435Y323549D01*
X306533Y323552D01*
X306557Y323561D01*
X306583Y323563D01*
X306672Y323603D01*
X306764Y323636D01*
X306784Y323652D01*
X306808Y323663D01*
X306880Y323729D01*
X306956Y323790D01*
X306970Y323812D01*
X306989Y323829D01*
X307036Y323915D01*
X307089Y323997D01*
X307095Y324022D01*
X307108Y324045D01*
X307125Y324141D01*
X307149Y324235D01*
X307147Y324261D01*
X307151Y324287D01*
X307137Y324384D01*
X307129Y324480D01*
X307119Y324504D01*
X307115Y324530D01*
X307071Y324617D01*
X307033Y324707D01*
X307013Y324732D01*
X307004Y324750D01*
X306980Y324773D01*
X306928Y324838D01*
X304276Y327490D01*
X304202Y327543D01*
X304132Y327603D01*
X304102Y327615D01*
X304076Y327634D01*
X303989Y327661D01*
X303904Y327695D01*
X303863Y327699D01*
X303841Y327706D01*
X303809Y327705D01*
X303737Y327713D01*
X296263Y327713D01*
X296172Y327699D01*
X296082Y327691D01*
X296052Y327679D01*
X296020Y327674D01*
X295939Y327631D01*
X295855Y327595D01*
X295823Y327569D01*
X295802Y327558D01*
X295780Y327535D01*
X295724Y327490D01*
X290947Y322713D01*
X219343Y322713D01*
X219228Y322695D01*
X219112Y322677D01*
X219106Y322675D01*
X219100Y322674D01*
X218997Y322619D01*
X218892Y322566D01*
X218888Y322561D01*
X218882Y322558D01*
X218802Y322473D01*
X218720Y322390D01*
X218717Y322384D01*
X218713Y322380D01*
X218705Y322363D01*
X218639Y322243D01*
X218495Y321895D01*
X216209Y319609D01*
X213221Y318371D01*
X201920Y318371D01*
X201830Y318357D01*
X201739Y318349D01*
X201710Y318337D01*
X201678Y318332D01*
X201597Y318289D01*
X201513Y318253D01*
X201481Y318227D01*
X201460Y318216D01*
X201438Y318193D01*
X201382Y318148D01*
X193994Y310760D01*
X193937Y310681D01*
X193875Y310606D01*
X193866Y310581D01*
X193850Y310560D01*
X193822Y310467D01*
X193787Y310376D01*
X193786Y310350D01*
X193778Y310325D01*
X193781Y310228D01*
X193776Y310131D01*
X193784Y310105D01*
X193784Y310079D01*
X193818Y309988D01*
X193845Y309894D01*
X193860Y309873D01*
X193869Y309848D01*
X193930Y309772D01*
X193985Y309692D01*
X194006Y309677D01*
X194023Y309656D01*
X194104Y309604D01*
X194183Y309545D01*
X194207Y309537D01*
X194229Y309523D01*
X194324Y309499D01*
X194416Y309469D01*
X194443Y309470D01*
X194468Y309463D01*
X194565Y309471D01*
X194662Y309472D01*
X194694Y309481D01*
X194713Y309482D01*
X194743Y309495D01*
X194823Y309518D01*
X195729Y309893D01*
X197495Y310245D01*
X203477Y310245D01*
X203477Y302623D01*
X189375Y302623D01*
X189603Y303767D01*
X189978Y304673D01*
X190000Y304767D01*
X190028Y304860D01*
X190028Y304887D01*
X190034Y304912D01*
X190025Y305009D01*
X190022Y305106D01*
X190013Y305131D01*
X190011Y305157D01*
X189971Y305246D01*
X189938Y305337D01*
X189921Y305358D01*
X189911Y305382D01*
X189845Y305453D01*
X189784Y305529D01*
X189762Y305543D01*
X189744Y305563D01*
X189659Y305610D01*
X189577Y305662D01*
X189552Y305669D01*
X189529Y305681D01*
X189433Y305699D01*
X189339Y305722D01*
X189312Y305720D01*
X189287Y305725D01*
X189190Y305711D01*
X189093Y305703D01*
X189069Y305693D01*
X189043Y305689D01*
X188956Y305645D01*
X188867Y305607D01*
X188842Y305587D01*
X188824Y305578D01*
X188801Y305554D01*
X188736Y305502D01*
X174840Y291606D01*
X174798Y291548D01*
X174749Y291496D01*
X174727Y291449D01*
X174697Y291407D01*
X174676Y291338D01*
X174645Y291273D01*
X174640Y291221D01*
X174624Y291171D01*
X174626Y291100D01*
X174618Y291029D01*
X174629Y290978D01*
X174631Y290926D01*
X174655Y290858D01*
X174670Y290788D01*
X174697Y290744D01*
X174715Y290695D01*
X174760Y290639D01*
X174797Y290577D01*
X174836Y290543D01*
X174869Y290503D01*
X174929Y290464D01*
X174984Y290417D01*
X175032Y290398D01*
X175076Y290370D01*
X175145Y290352D01*
X175212Y290325D01*
X175283Y290317D01*
X175314Y290309D01*
X175338Y290311D01*
X175378Y290307D01*
X177198Y290307D01*
X180307Y287198D01*
X180307Y283242D01*
X180321Y283152D01*
X180329Y283061D01*
X180341Y283032D01*
X180346Y283000D01*
X180389Y282919D01*
X180425Y282835D01*
X180451Y282803D01*
X180462Y282782D01*
X180485Y282760D01*
X180530Y282704D01*
X185724Y277510D01*
X185798Y277457D01*
X185868Y277397D01*
X185898Y277385D01*
X185924Y277366D01*
X186011Y277339D01*
X186096Y277305D01*
X186137Y277301D01*
X186159Y277294D01*
X186191Y277295D01*
X186263Y277287D01*
X268737Y277287D01*
X268828Y277301D01*
G37*
%LPC*%
G36*
X963381Y386535D02*
X963381Y386535D01*
X960020Y387927D01*
X957447Y390500D01*
X956055Y393861D01*
X956055Y401952D01*
X956052Y401972D01*
X956054Y401991D01*
X956032Y402093D01*
X956016Y402195D01*
X956006Y402212D01*
X956002Y402232D01*
X955949Y402321D01*
X955900Y402412D01*
X955886Y402426D01*
X955876Y402443D01*
X955797Y402510D01*
X955722Y402582D01*
X955704Y402590D01*
X955689Y402603D01*
X955593Y402642D01*
X955499Y402685D01*
X955479Y402687D01*
X955461Y402695D01*
X955294Y402713D01*
X922952Y402713D01*
X922838Y402694D01*
X922721Y402677D01*
X922716Y402675D01*
X922710Y402674D01*
X922607Y402619D01*
X922502Y402566D01*
X922498Y402561D01*
X922492Y402558D01*
X922412Y402474D01*
X922330Y402390D01*
X922326Y402384D01*
X922323Y402380D01*
X922315Y402363D01*
X922249Y402243D01*
X920873Y398920D01*
X918300Y396347D01*
X914939Y394955D01*
X896061Y394955D01*
X892700Y396347D01*
X890127Y398920D01*
X888735Y402281D01*
X888735Y405919D01*
X889043Y406661D01*
X889053Y406705D01*
X889072Y406747D01*
X889081Y406824D01*
X889099Y406900D01*
X889094Y406946D01*
X889099Y406991D01*
X889083Y407068D01*
X889076Y407145D01*
X889057Y407187D01*
X889047Y407232D01*
X889007Y407299D01*
X888976Y407370D01*
X888945Y407404D01*
X888921Y407443D01*
X888862Y407493D01*
X888809Y407551D01*
X888769Y407573D01*
X888734Y407603D01*
X888662Y407632D01*
X888594Y407669D01*
X888549Y407678D01*
X888506Y407695D01*
X888370Y407710D01*
X888352Y407713D01*
X888347Y407712D01*
X888339Y407713D01*
X881263Y407713D01*
X881172Y407699D01*
X881082Y407691D01*
X881052Y407679D01*
X881020Y407674D01*
X880939Y407631D01*
X880855Y407595D01*
X880823Y407569D01*
X880802Y407558D01*
X880780Y407535D01*
X880724Y407490D01*
X879388Y406154D01*
X879335Y406080D01*
X879275Y406010D01*
X879263Y405980D01*
X879244Y405954D01*
X879217Y405867D01*
X879183Y405782D01*
X879179Y405741D01*
X879172Y405719D01*
X879173Y405687D01*
X879165Y405615D01*
X879165Y402281D01*
X877773Y398920D01*
X875200Y396347D01*
X871839Y394955D01*
X852961Y394955D01*
X849600Y396347D01*
X847027Y398920D01*
X845635Y402281D01*
X845635Y405919D01*
X847027Y409280D01*
X849600Y411853D01*
X852961Y413245D01*
X871839Y413245D01*
X875200Y411853D01*
X876371Y410682D01*
X876387Y410670D01*
X876400Y410654D01*
X876487Y410598D01*
X876571Y410538D01*
X876590Y410532D01*
X876607Y410521D01*
X876707Y410496D01*
X876806Y410466D01*
X876826Y410466D01*
X876845Y410461D01*
X876948Y410469D01*
X877052Y410472D01*
X877071Y410479D01*
X877090Y410480D01*
X877185Y410521D01*
X877283Y410556D01*
X877298Y410569D01*
X877317Y410577D01*
X877448Y410682D01*
X879053Y412287D01*
X893597Y412287D01*
X893661Y412297D01*
X893727Y412298D01*
X893807Y412321D01*
X893840Y412326D01*
X893857Y412336D01*
X893888Y412345D01*
X896061Y413245D01*
X914939Y413245D01*
X918300Y411853D01*
X920873Y409280D01*
X921504Y407757D01*
X921565Y407657D01*
X921625Y407557D01*
X921630Y407553D01*
X921633Y407548D01*
X921724Y407473D01*
X921812Y407397D01*
X921818Y407395D01*
X921823Y407391D01*
X921931Y407349D01*
X922040Y407305D01*
X922048Y407304D01*
X922052Y407303D01*
X922071Y407302D01*
X922207Y407287D01*
X955294Y407287D01*
X955314Y407290D01*
X955333Y407288D01*
X955435Y407310D01*
X955537Y407326D01*
X955554Y407336D01*
X955574Y407340D01*
X955663Y407393D01*
X955754Y407442D01*
X955768Y407456D01*
X955785Y407466D01*
X955852Y407545D01*
X955924Y407620D01*
X955932Y407638D01*
X955945Y407653D01*
X955984Y407749D01*
X956027Y407843D01*
X956029Y407863D01*
X956037Y407881D01*
X956055Y408048D01*
X956055Y412739D01*
X957447Y416100D01*
X960020Y418673D01*
X963381Y420065D01*
X967019Y420065D01*
X970380Y418673D01*
X972953Y416100D01*
X974345Y412739D01*
X974345Y393861D01*
X972953Y390500D01*
X970380Y387927D01*
X967019Y386535D01*
X963381Y386535D01*
G37*
%LPD*%
%LPC*%
G36*
X843196Y74135D02*
X843196Y74135D01*
X840232Y75363D01*
X837963Y77632D01*
X836735Y80596D01*
X836735Y83804D01*
X837963Y86768D01*
X838252Y87057D01*
X838305Y87131D01*
X838365Y87201D01*
X838377Y87231D01*
X838396Y87257D01*
X838423Y87344D01*
X838457Y87429D01*
X838461Y87470D01*
X838468Y87492D01*
X838467Y87525D01*
X838475Y87596D01*
X838475Y101298D01*
X839469Y103696D01*
X841304Y105531D01*
X843702Y106525D01*
X906982Y106525D01*
X907072Y106539D01*
X907163Y106547D01*
X907193Y106559D01*
X907225Y106564D01*
X907305Y106607D01*
X907389Y106643D01*
X907422Y106669D01*
X907442Y106680D01*
X907464Y106703D01*
X907520Y106748D01*
X908435Y107662D01*
X908473Y107716D01*
X908519Y107762D01*
X908559Y107835D01*
X908579Y107862D01*
X908584Y107881D01*
X908600Y107909D01*
X909719Y110612D01*
X912506Y113399D01*
X916147Y114907D01*
X936853Y114907D01*
X940494Y113399D01*
X943281Y110612D01*
X944789Y106971D01*
X944789Y103029D01*
X943281Y99388D01*
X940494Y96601D01*
X936853Y95093D01*
X916147Y95093D01*
X915326Y95434D01*
X915212Y95460D01*
X915099Y95489D01*
X915092Y95488D01*
X915086Y95490D01*
X914970Y95479D01*
X914853Y95470D01*
X914848Y95467D01*
X914841Y95467D01*
X914734Y95419D01*
X914627Y95373D01*
X914621Y95369D01*
X914617Y95367D01*
X914603Y95354D01*
X914496Y95269D01*
X913696Y94469D01*
X911298Y93475D01*
X852286Y93475D01*
X852266Y93472D01*
X852247Y93474D01*
X852145Y93452D01*
X852043Y93436D01*
X852026Y93426D01*
X852006Y93422D01*
X851917Y93369D01*
X851826Y93320D01*
X851812Y93306D01*
X851795Y93296D01*
X851728Y93217D01*
X851656Y93142D01*
X851648Y93124D01*
X851635Y93109D01*
X851596Y93013D01*
X851553Y92919D01*
X851551Y92899D01*
X851543Y92881D01*
X851525Y92714D01*
X851525Y87191D01*
X851535Y87126D01*
X851536Y87060D01*
X851559Y86980D01*
X851564Y86948D01*
X851574Y86931D01*
X851583Y86899D01*
X852865Y83804D01*
X852865Y80596D01*
X851637Y77632D01*
X849368Y75363D01*
X846404Y74135D01*
X843196Y74135D01*
G37*
%LPD*%
%LPC*%
G36*
X192802Y179693D02*
X192802Y179693D01*
X190005Y182490D01*
X189931Y182543D01*
X189861Y182603D01*
X189831Y182615D01*
X189805Y182634D01*
X189718Y182661D01*
X189633Y182695D01*
X189592Y182699D01*
X189570Y182706D01*
X189538Y182705D01*
X189467Y182713D01*
X94053Y182713D01*
X92713Y184053D01*
X92713Y303737D01*
X92699Y303828D01*
X92691Y303918D01*
X92679Y303948D01*
X92674Y303980D01*
X92631Y304061D01*
X92595Y304145D01*
X92569Y304177D01*
X92558Y304198D01*
X92535Y304220D01*
X92490Y304276D01*
X78618Y318148D01*
X78544Y318201D01*
X78474Y318261D01*
X78444Y318273D01*
X78418Y318292D01*
X78331Y318319D01*
X78246Y318353D01*
X78205Y318357D01*
X78183Y318364D01*
X78151Y318363D01*
X78079Y318371D01*
X66779Y318371D01*
X63791Y319609D01*
X61505Y321895D01*
X60267Y324883D01*
X60267Y328117D01*
X61505Y331105D01*
X63791Y333391D01*
X66779Y334629D01*
X83221Y334629D01*
X86209Y333391D01*
X88495Y331105D01*
X89733Y328117D01*
X89733Y324883D01*
X88495Y321895D01*
X86209Y319609D01*
X85434Y319288D01*
X85395Y319264D01*
X85352Y319248D01*
X85291Y319199D01*
X85225Y319159D01*
X85196Y319123D01*
X85160Y319094D01*
X85118Y319029D01*
X85069Y318969D01*
X85052Y318926D01*
X85027Y318888D01*
X85008Y318812D01*
X84980Y318739D01*
X84978Y318694D01*
X84967Y318649D01*
X84973Y318572D01*
X84970Y318494D01*
X84983Y318450D01*
X84986Y318404D01*
X85017Y318332D01*
X85038Y318257D01*
X85065Y318220D01*
X85083Y318178D01*
X85168Y318071D01*
X85179Y318055D01*
X85183Y318052D01*
X85187Y318047D01*
X97287Y305947D01*
X97287Y188048D01*
X97290Y188028D01*
X97288Y188009D01*
X97310Y187907D01*
X97326Y187805D01*
X97336Y187788D01*
X97340Y187768D01*
X97393Y187679D01*
X97442Y187588D01*
X97456Y187574D01*
X97466Y187557D01*
X97545Y187490D01*
X97620Y187418D01*
X97638Y187410D01*
X97653Y187397D01*
X97749Y187358D01*
X97843Y187315D01*
X97863Y187313D01*
X97881Y187305D01*
X98048Y187287D01*
X189467Y187287D01*
X189557Y187301D01*
X189648Y187309D01*
X189677Y187321D01*
X189709Y187326D01*
X189790Y187369D01*
X189874Y187405D01*
X189906Y187431D01*
X189927Y187442D01*
X189949Y187465D01*
X190005Y187510D01*
X192802Y190307D01*
X197198Y190307D01*
X200307Y187198D01*
X200307Y182802D01*
X197198Y179693D01*
X192802Y179693D01*
G37*
%LPD*%
%LPC*%
G36*
X217802Y359693D02*
X217802Y359693D01*
X215005Y362490D01*
X214931Y362543D01*
X214861Y362603D01*
X214831Y362615D01*
X214805Y362634D01*
X214718Y362661D01*
X214633Y362695D01*
X214592Y362699D01*
X214570Y362706D01*
X214538Y362705D01*
X214467Y362713D01*
X189053Y362713D01*
X154276Y397490D01*
X154202Y397543D01*
X154132Y397603D01*
X154102Y397615D01*
X154076Y397634D01*
X153989Y397661D01*
X153904Y397695D01*
X153863Y397699D01*
X153841Y397706D01*
X153809Y397705D01*
X153737Y397713D01*
X88428Y397713D01*
X88338Y397699D01*
X88247Y397691D01*
X88218Y397679D01*
X88186Y397674D01*
X88105Y397631D01*
X88021Y397595D01*
X87989Y397569D01*
X87968Y397558D01*
X87946Y397535D01*
X87890Y397490D01*
X86209Y395809D01*
X83221Y394571D01*
X66779Y394571D01*
X63791Y395809D01*
X61505Y398095D01*
X60267Y401083D01*
X60267Y404317D01*
X61505Y407305D01*
X63791Y409591D01*
X66779Y410829D01*
X83221Y410829D01*
X86209Y409591D01*
X88495Y407305D01*
X89733Y404317D01*
X89733Y403048D01*
X89736Y403028D01*
X89734Y403009D01*
X89756Y402907D01*
X89772Y402805D01*
X89782Y402788D01*
X89786Y402768D01*
X89839Y402679D01*
X89888Y402588D01*
X89902Y402574D01*
X89912Y402557D01*
X89991Y402490D01*
X90066Y402418D01*
X90084Y402410D01*
X90099Y402397D01*
X90195Y402358D01*
X90289Y402315D01*
X90309Y402313D01*
X90327Y402305D01*
X90494Y402287D01*
X155947Y402287D01*
X190724Y367510D01*
X190798Y367457D01*
X190868Y367397D01*
X190898Y367385D01*
X190924Y367366D01*
X191011Y367339D01*
X191096Y367305D01*
X191137Y367301D01*
X191159Y367294D01*
X191191Y367295D01*
X191263Y367287D01*
X214467Y367287D01*
X214557Y367301D01*
X214648Y367309D01*
X214677Y367321D01*
X214709Y367326D01*
X214790Y367369D01*
X214874Y367405D01*
X214906Y367431D01*
X214927Y367442D01*
X214949Y367465D01*
X215005Y367510D01*
X216397Y368901D01*
X216453Y368981D01*
X216516Y369056D01*
X216525Y369080D01*
X216540Y369101D01*
X216569Y369194D01*
X216604Y369285D01*
X216605Y369311D01*
X216613Y369336D01*
X216610Y369434D01*
X216614Y369531D01*
X216607Y369556D01*
X216606Y369582D01*
X216573Y369674D01*
X216546Y369767D01*
X216531Y369789D01*
X216522Y369813D01*
X216461Y369889D01*
X216405Y369969D01*
X216384Y369985D01*
X216368Y370005D01*
X216286Y370058D01*
X216208Y370116D01*
X216183Y370124D01*
X216161Y370138D01*
X216067Y370162D01*
X215974Y370192D01*
X215948Y370192D01*
X215923Y370198D01*
X215826Y370191D01*
X215728Y370190D01*
X215697Y370181D01*
X215677Y370179D01*
X215647Y370166D01*
X215567Y370143D01*
X213221Y369171D01*
X196779Y369171D01*
X193791Y370409D01*
X191505Y372695D01*
X190267Y375683D01*
X190267Y378917D01*
X191505Y381905D01*
X193791Y384191D01*
X196779Y385429D01*
X213221Y385429D01*
X216209Y384191D01*
X218495Y381905D01*
X219733Y378917D01*
X219733Y375683D01*
X218495Y372695D01*
X217406Y371606D01*
X217364Y371548D01*
X217315Y371496D01*
X217293Y371449D01*
X217262Y371407D01*
X217241Y371338D01*
X217211Y371273D01*
X217205Y371221D01*
X217190Y371171D01*
X217192Y371100D01*
X217184Y371029D01*
X217195Y370978D01*
X217196Y370926D01*
X217221Y370858D01*
X217236Y370788D01*
X217263Y370743D01*
X217281Y370695D01*
X217326Y370639D01*
X217363Y370577D01*
X217402Y370543D01*
X217435Y370503D01*
X217495Y370464D01*
X217549Y370417D01*
X217598Y370398D01*
X217642Y370370D01*
X217711Y370352D01*
X217778Y370325D01*
X217849Y370317D01*
X217880Y370309D01*
X217903Y370311D01*
X217944Y370307D01*
X222198Y370307D01*
X225307Y367198D01*
X225307Y362802D01*
X222198Y359693D01*
X217802Y359693D01*
G37*
%LPD*%
%LPC*%
G36*
X309983Y205267D02*
X309983Y205267D01*
X306995Y206505D01*
X304709Y208791D01*
X303471Y211779D01*
X303471Y222979D01*
X303457Y223070D01*
X303449Y223160D01*
X303437Y223190D01*
X303432Y223222D01*
X303389Y223303D01*
X303353Y223387D01*
X303327Y223419D01*
X303316Y223440D01*
X303293Y223462D01*
X303248Y223518D01*
X289276Y237490D01*
X289202Y237543D01*
X289132Y237603D01*
X289102Y237615D01*
X289076Y237634D01*
X288989Y237661D01*
X288904Y237695D01*
X288863Y237699D01*
X288841Y237706D01*
X288809Y237705D01*
X288737Y237713D01*
X150533Y237713D01*
X150443Y237699D01*
X150352Y237691D01*
X150323Y237679D01*
X150291Y237674D01*
X150210Y237631D01*
X150126Y237595D01*
X150094Y237569D01*
X150073Y237558D01*
X150051Y237535D01*
X149995Y237490D01*
X147198Y234693D01*
X142802Y234693D01*
X139693Y237802D01*
X139693Y242198D01*
X142802Y245307D01*
X147198Y245307D01*
X149995Y242510D01*
X150069Y242457D01*
X150139Y242397D01*
X150169Y242385D01*
X150195Y242366D01*
X150282Y242339D01*
X150367Y242305D01*
X150408Y242301D01*
X150430Y242294D01*
X150462Y242295D01*
X150533Y242287D01*
X290947Y242287D01*
X303117Y230117D01*
X303155Y230090D01*
X303186Y230056D01*
X303254Y230018D01*
X303317Y229973D01*
X303361Y229960D01*
X303401Y229937D01*
X303478Y229924D01*
X303552Y229901D01*
X303598Y229902D01*
X303643Y229894D01*
X303720Y229905D01*
X303798Y229907D01*
X303841Y229923D01*
X303886Y229930D01*
X303956Y229965D01*
X304029Y229992D01*
X304065Y230020D01*
X304106Y230041D01*
X304160Y230097D01*
X304221Y230145D01*
X304246Y230184D01*
X304278Y230217D01*
X304344Y230337D01*
X304354Y230352D01*
X304355Y230357D01*
X304359Y230364D01*
X304709Y231209D01*
X306995Y233495D01*
X309983Y234733D01*
X313217Y234733D01*
X316205Y233495D01*
X318491Y231209D01*
X319729Y228221D01*
X319729Y211779D01*
X318491Y208791D01*
X316205Y206505D01*
X313217Y205267D01*
X309983Y205267D01*
G37*
%LPD*%
%LPC*%
G36*
X809861Y394955D02*
X809861Y394955D01*
X806500Y396347D01*
X803927Y398920D01*
X802535Y402281D01*
X802535Y403915D01*
X802521Y404006D01*
X802513Y404096D01*
X802501Y404126D01*
X802496Y404158D01*
X802453Y404239D01*
X802417Y404323D01*
X802391Y404355D01*
X802380Y404376D01*
X802357Y404398D01*
X802312Y404454D01*
X799276Y407490D01*
X799202Y407543D01*
X799132Y407603D01*
X799102Y407615D01*
X799076Y407634D01*
X798989Y407661D01*
X798904Y407695D01*
X798863Y407699D01*
X798841Y407706D01*
X798809Y407705D01*
X798737Y407713D01*
X744053Y407713D01*
X722018Y429748D01*
X721944Y429801D01*
X721874Y429861D01*
X721844Y429873D01*
X721818Y429892D01*
X721731Y429919D01*
X721646Y429953D01*
X721605Y429957D01*
X721583Y429964D01*
X721551Y429963D01*
X721479Y429971D01*
X716633Y429971D01*
X711871Y434733D01*
X711871Y441467D01*
X716633Y446229D01*
X723367Y446229D01*
X728129Y441467D01*
X728129Y434733D01*
X726353Y432957D01*
X726341Y432941D01*
X726326Y432929D01*
X726270Y432842D01*
X726210Y432758D01*
X726204Y432739D01*
X726193Y432722D01*
X726168Y432621D01*
X726137Y432523D01*
X726138Y432503D01*
X726133Y432483D01*
X726141Y432380D01*
X726144Y432277D01*
X726150Y432258D01*
X726152Y432238D01*
X726192Y432143D01*
X726228Y432046D01*
X726241Y432030D01*
X726248Y432012D01*
X726353Y431881D01*
X745724Y412510D01*
X745798Y412457D01*
X745868Y412397D01*
X745898Y412385D01*
X745924Y412366D01*
X746011Y412339D01*
X746096Y412305D01*
X746137Y412301D01*
X746159Y412294D01*
X746191Y412295D01*
X746263Y412287D01*
X800947Y412287D01*
X803402Y409832D01*
X803419Y409820D01*
X803431Y409804D01*
X803518Y409748D01*
X803602Y409688D01*
X803621Y409682D01*
X803638Y409671D01*
X803738Y409646D01*
X803837Y409616D01*
X803857Y409616D01*
X803876Y409611D01*
X803979Y409619D01*
X804083Y409622D01*
X804102Y409629D01*
X804122Y409630D01*
X804217Y409671D01*
X804314Y409706D01*
X804330Y409719D01*
X804348Y409727D01*
X804479Y409832D01*
X806500Y411853D01*
X809861Y413245D01*
X828739Y413245D01*
X832100Y411853D01*
X834673Y409280D01*
X836065Y405919D01*
X836065Y402281D01*
X834673Y398920D01*
X832100Y396347D01*
X828739Y394955D01*
X809861Y394955D01*
G37*
%LPD*%
%LPC*%
G36*
X106783Y205267D02*
X106783Y205267D01*
X103795Y206505D01*
X101509Y208791D01*
X100271Y211779D01*
X100271Y228221D01*
X101509Y231209D01*
X103795Y233495D01*
X106783Y234733D01*
X110017Y234733D01*
X113005Y233495D01*
X115291Y231209D01*
X115641Y230364D01*
X115665Y230325D01*
X115681Y230282D01*
X115730Y230221D01*
X115771Y230155D01*
X115806Y230125D01*
X115835Y230089D01*
X115900Y230047D01*
X115960Y229998D01*
X116003Y229981D01*
X116042Y229956D01*
X116117Y229937D01*
X116190Y229910D01*
X116236Y229908D01*
X116280Y229896D01*
X116358Y229902D01*
X116436Y229899D01*
X116480Y229912D01*
X116525Y229916D01*
X116597Y229946D01*
X116672Y229968D01*
X116710Y229994D01*
X116752Y230012D01*
X116858Y230097D01*
X116874Y230108D01*
X116877Y230112D01*
X116883Y230117D01*
X140773Y254007D01*
X140819Y254070D01*
X140841Y254094D01*
X140850Y254114D01*
X140911Y254196D01*
X140913Y254202D01*
X140917Y254207D01*
X140951Y254318D01*
X140987Y254430D01*
X140987Y254436D01*
X140989Y254442D01*
X140986Y254559D01*
X140985Y254676D01*
X140983Y254683D01*
X140983Y254688D01*
X140976Y254705D01*
X140938Y254837D01*
X140555Y255761D01*
X140555Y274639D01*
X141947Y278000D01*
X144520Y280573D01*
X147881Y281965D01*
X151519Y281965D01*
X154880Y280573D01*
X157453Y278000D01*
X158845Y274639D01*
X158845Y255761D01*
X157453Y252400D01*
X154880Y249827D01*
X151519Y248435D01*
X147881Y248435D01*
X144520Y249827D01*
X144329Y250018D01*
X144313Y250030D01*
X144300Y250046D01*
X144213Y250102D01*
X144129Y250162D01*
X144110Y250168D01*
X144093Y250179D01*
X143993Y250204D01*
X143894Y250234D01*
X143874Y250234D01*
X143855Y250239D01*
X143752Y250231D01*
X143648Y250228D01*
X143629Y250221D01*
X143610Y250220D01*
X143515Y250179D01*
X143417Y250144D01*
X143402Y250131D01*
X143383Y250123D01*
X143252Y250018D01*
X116752Y223518D01*
X116699Y223444D01*
X116639Y223374D01*
X116627Y223344D01*
X116608Y223318D01*
X116581Y223231D01*
X116547Y223146D01*
X116543Y223105D01*
X116536Y223083D01*
X116537Y223051D01*
X116529Y222979D01*
X116529Y211779D01*
X115291Y208791D01*
X113005Y206505D01*
X110017Y205267D01*
X106783Y205267D01*
G37*
%LPD*%
%LPC*%
G36*
X392802Y194693D02*
X392802Y194693D01*
X390005Y197490D01*
X389931Y197543D01*
X389861Y197603D01*
X389831Y197615D01*
X389805Y197634D01*
X389718Y197661D01*
X389633Y197695D01*
X389592Y197699D01*
X389570Y197706D01*
X389538Y197705D01*
X389467Y197713D01*
X259053Y197713D01*
X257713Y199053D01*
X257713Y205367D01*
X257694Y205482D01*
X257677Y205598D01*
X257675Y205604D01*
X257674Y205610D01*
X257619Y205712D01*
X257566Y205818D01*
X257561Y205822D01*
X257558Y205828D01*
X257474Y205908D01*
X257390Y205990D01*
X257384Y205993D01*
X257380Y205997D01*
X257363Y206005D01*
X257243Y206071D01*
X256195Y206505D01*
X253909Y208791D01*
X252671Y211779D01*
X252671Y228221D01*
X253909Y231209D01*
X256195Y233495D01*
X259183Y234733D01*
X262417Y234733D01*
X265405Y233495D01*
X267691Y231209D01*
X268929Y228221D01*
X268929Y211779D01*
X267691Y208791D01*
X265405Y206505D01*
X262757Y205408D01*
X262657Y205346D01*
X262557Y205286D01*
X262553Y205282D01*
X262548Y205278D01*
X262473Y205188D01*
X262397Y205100D01*
X262395Y205094D01*
X262391Y205089D01*
X262349Y204981D01*
X262305Y204871D01*
X262304Y204864D01*
X262303Y204859D01*
X262302Y204841D01*
X262287Y204705D01*
X262287Y203048D01*
X262290Y203028D01*
X262288Y203009D01*
X262310Y202907D01*
X262326Y202805D01*
X262336Y202788D01*
X262340Y202768D01*
X262393Y202679D01*
X262442Y202588D01*
X262456Y202574D01*
X262466Y202557D01*
X262545Y202490D01*
X262620Y202418D01*
X262638Y202410D01*
X262653Y202397D01*
X262749Y202358D01*
X262843Y202315D01*
X262863Y202313D01*
X262881Y202305D01*
X263048Y202287D01*
X389467Y202287D01*
X389557Y202301D01*
X389648Y202309D01*
X389677Y202321D01*
X389709Y202326D01*
X389790Y202369D01*
X389874Y202405D01*
X389906Y202431D01*
X389927Y202442D01*
X389949Y202465D01*
X390005Y202510D01*
X392422Y204927D01*
X392479Y205006D01*
X392541Y205081D01*
X392550Y205105D01*
X392565Y205127D01*
X392594Y205220D01*
X392629Y205310D01*
X392630Y205337D01*
X392638Y205362D01*
X392636Y205429D01*
X392649Y205417D01*
X392698Y205398D01*
X392742Y205370D01*
X392811Y205352D01*
X392878Y205325D01*
X392949Y205317D01*
X392980Y205309D01*
X393003Y205311D01*
X393044Y205307D01*
X397198Y205307D01*
X400307Y202198D01*
X400307Y197802D01*
X397198Y194693D01*
X392802Y194693D01*
G37*
%LPD*%
%LPC*%
G36*
X881779Y158371D02*
X881779Y158371D01*
X878791Y159609D01*
X876505Y161895D01*
X875267Y164883D01*
X875267Y168117D01*
X876505Y171105D01*
X878791Y173391D01*
X881779Y174629D01*
X891080Y174629D01*
X891170Y174643D01*
X891261Y174651D01*
X891290Y174663D01*
X891322Y174668D01*
X891403Y174711D01*
X891487Y174747D01*
X891519Y174773D01*
X891540Y174784D01*
X891562Y174807D01*
X891618Y174852D01*
X897490Y180724D01*
X899053Y182287D01*
X958737Y182287D01*
X958828Y182301D01*
X958918Y182309D01*
X958948Y182321D01*
X958980Y182326D01*
X959061Y182369D01*
X959145Y182405D01*
X959177Y182431D01*
X959198Y182442D01*
X959220Y182465D01*
X959276Y182510D01*
X960877Y184110D01*
X960945Y184205D01*
X961014Y184299D01*
X961016Y184305D01*
X961020Y184310D01*
X961054Y184421D01*
X961091Y184533D01*
X961091Y184539D01*
X961092Y184545D01*
X961089Y184662D01*
X961088Y184779D01*
X961086Y184786D01*
X961086Y184791D01*
X961080Y184809D01*
X961042Y184940D01*
X960093Y187229D01*
X960093Y191171D01*
X961601Y194812D01*
X964388Y197599D01*
X968029Y199107D01*
X971971Y199107D01*
X975612Y197599D01*
X978399Y194812D01*
X979907Y191171D01*
X979907Y187229D01*
X978399Y183588D01*
X975612Y180801D01*
X971971Y179293D01*
X968029Y179293D01*
X964609Y180710D01*
X964495Y180737D01*
X964382Y180765D01*
X964375Y180765D01*
X964369Y180766D01*
X964253Y180755D01*
X964136Y180746D01*
X964131Y180744D01*
X964124Y180743D01*
X964017Y180696D01*
X963910Y180650D01*
X963904Y180645D01*
X963900Y180643D01*
X963886Y180631D01*
X963779Y180545D01*
X960947Y177713D01*
X901263Y177713D01*
X901172Y177699D01*
X901082Y177691D01*
X901052Y177679D01*
X901020Y177674D01*
X900939Y177631D01*
X900855Y177595D01*
X900823Y177569D01*
X900802Y177558D01*
X900780Y177535D01*
X900724Y177490D01*
X898773Y175539D01*
X898746Y175502D01*
X898713Y175471D01*
X898675Y175403D01*
X898630Y175340D01*
X898616Y175296D01*
X898594Y175255D01*
X898580Y175179D01*
X898557Y175104D01*
X898558Y175059D01*
X898550Y175013D01*
X898562Y174936D01*
X898564Y174859D01*
X898579Y174815D01*
X898586Y174770D01*
X898621Y174701D01*
X898648Y174628D01*
X898677Y174592D01*
X898698Y174551D01*
X898753Y174496D01*
X898802Y174436D01*
X898840Y174411D01*
X898873Y174379D01*
X898993Y174313D01*
X899009Y174303D01*
X899014Y174301D01*
X899020Y174298D01*
X901209Y173391D01*
X903495Y171105D01*
X904733Y168117D01*
X904733Y164883D01*
X903495Y161895D01*
X901209Y159609D01*
X898221Y158371D01*
X881779Y158371D01*
G37*
%LPD*%
%LPC*%
G36*
X889479Y456871D02*
X889479Y456871D01*
X886491Y458109D01*
X884205Y460395D01*
X882967Y463383D01*
X882967Y466617D01*
X882985Y466661D01*
X882994Y466696D01*
X882998Y466706D01*
X882999Y466712D01*
X883015Y466747D01*
X883024Y466824D01*
X883042Y466900D01*
X883037Y466946D01*
X883042Y466991D01*
X883026Y467068D01*
X883018Y467145D01*
X883000Y467187D01*
X882990Y467232D01*
X882950Y467299D01*
X882919Y467370D01*
X882887Y467404D01*
X882864Y467443D01*
X882805Y467494D01*
X882752Y467551D01*
X882712Y467573D01*
X882677Y467603D01*
X882605Y467632D01*
X882537Y467669D01*
X882492Y467678D01*
X882449Y467695D01*
X882313Y467710D01*
X882295Y467713D01*
X882290Y467712D01*
X882282Y467713D01*
X861990Y467713D01*
X861970Y467710D01*
X861951Y467712D01*
X861849Y467690D01*
X861747Y467674D01*
X861730Y467664D01*
X861710Y467660D01*
X861621Y467607D01*
X861530Y467558D01*
X861516Y467544D01*
X861499Y467534D01*
X861432Y467455D01*
X861360Y467380D01*
X861352Y467362D01*
X861339Y467347D01*
X861300Y467251D01*
X861257Y467157D01*
X861255Y467137D01*
X861247Y467119D01*
X861229Y466952D01*
X861229Y466633D01*
X856467Y461871D01*
X849733Y461871D01*
X844971Y466633D01*
X844971Y473367D01*
X849733Y478129D01*
X856467Y478129D01*
X861229Y473367D01*
X861229Y473048D01*
X861232Y473028D01*
X861230Y473009D01*
X861252Y472907D01*
X861268Y472805D01*
X861278Y472788D01*
X861282Y472768D01*
X861335Y472679D01*
X861384Y472588D01*
X861398Y472574D01*
X861408Y472557D01*
X861487Y472490D01*
X861562Y472418D01*
X861580Y472410D01*
X861595Y472397D01*
X861691Y472358D01*
X861785Y472315D01*
X861805Y472313D01*
X861823Y472305D01*
X861990Y472287D01*
X887295Y472287D01*
X887360Y472297D01*
X887425Y472298D01*
X887505Y472321D01*
X887538Y472326D01*
X887555Y472336D01*
X887586Y472345D01*
X889479Y473129D01*
X905921Y473129D01*
X908909Y471891D01*
X911195Y469605D01*
X912433Y466617D01*
X912433Y463383D01*
X911195Y460395D01*
X908909Y458109D01*
X905921Y456871D01*
X889479Y456871D01*
G37*
%LPD*%
%LPC*%
G36*
X1046961Y289855D02*
X1046961Y289855D01*
X1043600Y291247D01*
X1041027Y293820D01*
X1039609Y297243D01*
X1039548Y297343D01*
X1039488Y297443D01*
X1039483Y297447D01*
X1039480Y297452D01*
X1039390Y297527D01*
X1039301Y297603D01*
X1039295Y297605D01*
X1039290Y297609D01*
X1039182Y297651D01*
X1039073Y297695D01*
X1039065Y297696D01*
X1039061Y297697D01*
X1039042Y297698D01*
X1038906Y297713D01*
X1015533Y297713D01*
X1015443Y297699D01*
X1015352Y297691D01*
X1015323Y297679D01*
X1015291Y297674D01*
X1015210Y297631D01*
X1015126Y297595D01*
X1015094Y297569D01*
X1015073Y297558D01*
X1015051Y297535D01*
X1014995Y297490D01*
X1012198Y294693D01*
X1007802Y294693D01*
X1004693Y297802D01*
X1004693Y302198D01*
X1007802Y305307D01*
X1012198Y305307D01*
X1014995Y302510D01*
X1015069Y302457D01*
X1015139Y302397D01*
X1015169Y302385D01*
X1015195Y302366D01*
X1015282Y302339D01*
X1015367Y302305D01*
X1015408Y302301D01*
X1015430Y302294D01*
X1015462Y302295D01*
X1015533Y302287D01*
X1039735Y302287D01*
X1039849Y302306D01*
X1039966Y302323D01*
X1039971Y302325D01*
X1039977Y302326D01*
X1040080Y302381D01*
X1040185Y302434D01*
X1040189Y302439D01*
X1040195Y302442D01*
X1040275Y302526D01*
X1040357Y302610D01*
X1040361Y302616D01*
X1040364Y302620D01*
X1040372Y302637D01*
X1040438Y302757D01*
X1041027Y304180D01*
X1043600Y306753D01*
X1046961Y308145D01*
X1065839Y308145D01*
X1069200Y306753D01*
X1071773Y304180D01*
X1073165Y300819D01*
X1073165Y297181D01*
X1071773Y293820D01*
X1069200Y291247D01*
X1065839Y289855D01*
X1046961Y289855D01*
G37*
%LPD*%
%LPC*%
G36*
X751779Y285371D02*
X751779Y285371D01*
X748791Y286609D01*
X746505Y288895D01*
X745267Y291883D01*
X745267Y295117D01*
X746505Y298105D01*
X748791Y300391D01*
X751779Y301629D01*
X763079Y301629D01*
X763170Y301643D01*
X763260Y301651D01*
X763290Y301663D01*
X763322Y301668D01*
X763403Y301711D01*
X763487Y301747D01*
X763519Y301773D01*
X763540Y301784D01*
X763562Y301807D01*
X763618Y301852D01*
X794053Y332287D01*
X794467Y332287D01*
X794557Y332301D01*
X794648Y332309D01*
X794677Y332321D01*
X794709Y332326D01*
X794790Y332369D01*
X794874Y332405D01*
X794906Y332431D01*
X794927Y332442D01*
X794949Y332465D01*
X795005Y332510D01*
X797802Y335307D01*
X802198Y335307D01*
X805307Y332198D01*
X805307Y327802D01*
X802198Y324693D01*
X797802Y324693D01*
X795903Y326592D01*
X795887Y326604D01*
X795874Y326620D01*
X795787Y326676D01*
X795703Y326736D01*
X795684Y326742D01*
X795667Y326753D01*
X795567Y326778D01*
X795468Y326808D01*
X795448Y326808D01*
X795429Y326813D01*
X795326Y326805D01*
X795222Y326802D01*
X795203Y326795D01*
X795184Y326793D01*
X795089Y326753D01*
X794991Y326717D01*
X794975Y326705D01*
X794957Y326697D01*
X794826Y326592D01*
X770187Y301953D01*
X770161Y301916D01*
X770127Y301885D01*
X770089Y301817D01*
X770044Y301754D01*
X770030Y301710D01*
X770008Y301670D01*
X769994Y301593D01*
X769971Y301519D01*
X769973Y301473D01*
X769965Y301428D01*
X769976Y301351D01*
X769978Y301273D01*
X769994Y301230D01*
X770000Y301184D01*
X770036Y301115D01*
X770062Y301042D01*
X770091Y301006D01*
X770112Y300965D01*
X770167Y300910D01*
X770216Y300850D01*
X770255Y300825D01*
X770287Y300793D01*
X770407Y300727D01*
X770423Y300717D01*
X770428Y300716D01*
X770434Y300712D01*
X771209Y300391D01*
X773495Y298105D01*
X774733Y295117D01*
X774733Y291883D01*
X773495Y288895D01*
X771209Y286609D01*
X768221Y285371D01*
X751779Y285371D01*
G37*
%LPD*%
%LPC*%
G36*
X1043147Y95093D02*
X1043147Y95093D01*
X1039506Y96601D01*
X1036719Y99388D01*
X1035211Y103029D01*
X1035211Y106971D01*
X1036719Y110612D01*
X1039506Y113399D01*
X1043147Y114907D01*
X1063853Y114907D01*
X1067494Y113399D01*
X1070281Y110612D01*
X1071789Y106971D01*
X1071789Y103029D01*
X1070281Y99388D01*
X1067494Y96601D01*
X1063853Y95093D01*
X1043147Y95093D01*
G37*
%LPD*%
%LPC*%
G36*
X724053Y352713D02*
X724053Y352713D01*
X723218Y353548D01*
X723144Y353601D01*
X723074Y353661D01*
X723044Y353673D01*
X723018Y353692D01*
X722931Y353719D01*
X722846Y353753D01*
X722805Y353757D01*
X722783Y353764D01*
X722751Y353763D01*
X722679Y353771D01*
X716633Y353771D01*
X711871Y358533D01*
X711871Y365267D01*
X716633Y370029D01*
X723367Y370029D01*
X728129Y365267D01*
X728129Y358516D01*
X728091Y358476D01*
X728069Y358429D01*
X728039Y358387D01*
X728017Y358318D01*
X727987Y358253D01*
X727981Y358201D01*
X727966Y358152D01*
X727968Y358080D01*
X727960Y358009D01*
X727971Y357958D01*
X727972Y357906D01*
X727997Y357838D01*
X728012Y357768D01*
X728039Y357723D01*
X728057Y357675D01*
X728102Y357619D01*
X728139Y357557D01*
X728178Y357523D01*
X728211Y357483D01*
X728271Y357444D01*
X728325Y357397D01*
X728374Y357378D01*
X728417Y357350D01*
X728487Y357332D01*
X728554Y357305D01*
X728625Y357297D01*
X728656Y357289D01*
X728679Y357291D01*
X728720Y357287D01*
X748737Y357287D01*
X748828Y357301D01*
X748918Y357309D01*
X748948Y357321D01*
X748980Y357326D01*
X749061Y357369D01*
X749145Y357405D01*
X749177Y357431D01*
X749198Y357442D01*
X749201Y357445D01*
X749202Y357446D01*
X749221Y357466D01*
X749276Y357510D01*
X751648Y359882D01*
X751701Y359956D01*
X751761Y360026D01*
X751773Y360056D01*
X751792Y360082D01*
X751819Y360169D01*
X751853Y360254D01*
X751857Y360295D01*
X751864Y360317D01*
X751863Y360349D01*
X751871Y360420D01*
X751871Y365267D01*
X756633Y370029D01*
X763367Y370029D01*
X768129Y365267D01*
X768129Y358533D01*
X763367Y353771D01*
X756633Y353771D01*
X754857Y355547D01*
X754841Y355559D01*
X754829Y355574D01*
X754767Y355614D01*
X754716Y355658D01*
X754687Y355669D01*
X754658Y355690D01*
X754639Y355696D01*
X754622Y355707D01*
X754546Y355726D01*
X754487Y355750D01*
X754452Y355754D01*
X754423Y355763D01*
X754403Y355762D01*
X754383Y355767D01*
X754352Y355765D01*
X754321Y355768D01*
X754317Y355768D01*
X754258Y355759D01*
X754177Y355756D01*
X754158Y355750D01*
X754138Y355748D01*
X754103Y355733D01*
X754075Y355728D01*
X754018Y355698D01*
X753946Y355672D01*
X753930Y355659D01*
X753912Y355652D01*
X753877Y355624D01*
X753857Y355613D01*
X753836Y355591D01*
X753781Y355547D01*
X750947Y352713D01*
X724053Y352713D01*
G37*
%LPD*%
%LPC*%
G36*
X290281Y513935D02*
X290281Y513935D01*
X286920Y515327D01*
X284347Y517900D01*
X282955Y521261D01*
X282955Y540139D01*
X284347Y543500D01*
X286920Y546073D01*
X290281Y547465D01*
X293919Y547465D01*
X297280Y546073D01*
X299853Y543500D01*
X301245Y540139D01*
X301245Y521261D01*
X299853Y517900D01*
X297280Y515327D01*
X293919Y513935D01*
X290281Y513935D01*
G37*
%LPD*%
%LPC*%
G36*
X104781Y513935D02*
X104781Y513935D01*
X101420Y515327D01*
X98847Y517900D01*
X97455Y521261D01*
X97455Y540139D01*
X98847Y543500D01*
X101420Y546073D01*
X104781Y547465D01*
X108419Y547465D01*
X111780Y546073D01*
X114353Y543500D01*
X115745Y540139D01*
X115745Y521261D01*
X114353Y517900D01*
X111780Y515327D01*
X108419Y513935D01*
X104781Y513935D01*
G37*
%LPD*%
%LPC*%
G36*
X341081Y513935D02*
X341081Y513935D01*
X337720Y515327D01*
X335147Y517900D01*
X333755Y521261D01*
X333755Y540139D01*
X335147Y543500D01*
X337720Y546073D01*
X341081Y547465D01*
X344719Y547465D01*
X348080Y546073D01*
X350653Y543500D01*
X352045Y540139D01*
X352045Y521261D01*
X350653Y517900D01*
X348080Y515327D01*
X344719Y513935D01*
X341081Y513935D01*
G37*
%LPD*%
%LPC*%
G36*
X780881Y528235D02*
X780881Y528235D01*
X777520Y529627D01*
X774947Y532200D01*
X773555Y535561D01*
X773555Y554439D01*
X774947Y557800D01*
X777520Y560373D01*
X780881Y561765D01*
X784519Y561765D01*
X787880Y560373D01*
X790453Y557800D01*
X791845Y554439D01*
X791845Y535561D01*
X790453Y532200D01*
X787880Y529627D01*
X784519Y528235D01*
X780881Y528235D01*
G37*
%LPD*%
%LPC*%
G36*
X1014181Y386535D02*
X1014181Y386535D01*
X1010820Y387927D01*
X1008247Y390500D01*
X1006855Y393861D01*
X1006855Y412739D01*
X1008247Y416100D01*
X1010820Y418673D01*
X1014181Y420065D01*
X1017819Y420065D01*
X1021180Y418673D01*
X1023753Y416100D01*
X1025145Y412739D01*
X1025145Y393861D01*
X1023753Y390500D01*
X1021180Y387927D01*
X1017819Y386535D01*
X1014181Y386535D01*
G37*
%LPD*%
%LPC*%
G36*
X809861Y369555D02*
X809861Y369555D01*
X806500Y370947D01*
X803927Y373520D01*
X802535Y376881D01*
X802535Y380519D01*
X803927Y383880D01*
X806500Y386453D01*
X809861Y387845D01*
X828739Y387845D01*
X832100Y386453D01*
X834673Y383880D01*
X836065Y380519D01*
X836065Y376881D01*
X834673Y373520D01*
X832100Y370947D01*
X828739Y369555D01*
X809861Y369555D01*
G37*
%LPD*%
%LPC*%
G36*
X325281Y334235D02*
X325281Y334235D01*
X321920Y335627D01*
X319347Y338200D01*
X317955Y341561D01*
X317955Y360439D01*
X319347Y363800D01*
X321920Y366373D01*
X325281Y367765D01*
X328919Y367765D01*
X332280Y366373D01*
X334853Y363800D01*
X336245Y360439D01*
X336245Y341561D01*
X334853Y338200D01*
X332280Y335627D01*
X328919Y334235D01*
X325281Y334235D01*
G37*
%LPD*%
%LPC*%
G36*
X734781Y34035D02*
X734781Y34035D01*
X731420Y35427D01*
X728847Y38000D01*
X727455Y41361D01*
X727455Y60239D01*
X728847Y63600D01*
X731420Y66173D01*
X734781Y67565D01*
X738419Y67565D01*
X741780Y66173D01*
X744353Y63600D01*
X745745Y60239D01*
X745745Y41361D01*
X744353Y38000D01*
X741780Y35427D01*
X738419Y34035D01*
X734781Y34035D01*
G37*
%LPD*%
%LPC*%
G36*
X709381Y34035D02*
X709381Y34035D01*
X706020Y35427D01*
X703447Y38000D01*
X702055Y41361D01*
X702055Y60239D01*
X703447Y63600D01*
X706020Y66173D01*
X709381Y67565D01*
X713019Y67565D01*
X716380Y66173D01*
X718953Y63600D01*
X720345Y60239D01*
X720345Y41361D01*
X718953Y38000D01*
X716380Y35427D01*
X713019Y34035D01*
X709381Y34035D01*
G37*
%LPD*%
%LPC*%
G36*
X155581Y513935D02*
X155581Y513935D01*
X152220Y515327D01*
X149647Y517900D01*
X148255Y521261D01*
X148255Y540139D01*
X149647Y543500D01*
X152220Y546073D01*
X155581Y547465D01*
X159219Y547465D01*
X162580Y546073D01*
X165153Y543500D01*
X166545Y540139D01*
X166545Y521261D01*
X165153Y517900D01*
X162580Y515327D01*
X159219Y513935D01*
X155581Y513935D01*
G37*
%LPD*%
%LPC*%
G36*
X315681Y513935D02*
X315681Y513935D01*
X312320Y515327D01*
X309747Y517900D01*
X308355Y521261D01*
X308355Y540139D01*
X309747Y543500D01*
X312320Y546073D01*
X315681Y547465D01*
X319319Y547465D01*
X322680Y546073D01*
X325253Y543500D01*
X326645Y540139D01*
X326645Y521261D01*
X325253Y517900D01*
X322680Y515327D01*
X319319Y513935D01*
X315681Y513935D01*
G37*
%LPD*%
%LPC*%
G36*
X180981Y513935D02*
X180981Y513935D01*
X177620Y515327D01*
X175047Y517900D01*
X173655Y521261D01*
X173655Y540139D01*
X175047Y543500D01*
X177620Y546073D01*
X180981Y547465D01*
X184619Y547465D01*
X187980Y546073D01*
X190553Y543500D01*
X191945Y540139D01*
X191945Y521261D01*
X190553Y517900D01*
X187980Y515327D01*
X184619Y513935D01*
X180981Y513935D01*
G37*
%LPD*%
%LPC*%
G36*
X1046961Y208655D02*
X1046961Y208655D01*
X1043600Y210047D01*
X1041027Y212620D01*
X1039635Y215981D01*
X1039635Y219619D01*
X1041027Y222980D01*
X1043600Y225553D01*
X1046961Y226945D01*
X1065839Y226945D01*
X1069200Y225553D01*
X1071773Y222980D01*
X1073165Y219619D01*
X1073165Y215981D01*
X1071773Y212620D01*
X1069200Y210047D01*
X1065839Y208655D01*
X1046961Y208655D01*
G37*
%LPD*%
%LPC*%
G36*
X1014181Y470435D02*
X1014181Y470435D01*
X1010820Y471827D01*
X1008247Y474400D01*
X1006855Y477761D01*
X1006855Y496639D01*
X1008247Y500000D01*
X1010820Y502573D01*
X1014181Y503965D01*
X1017819Y503965D01*
X1021180Y502573D01*
X1023753Y500000D01*
X1025145Y496639D01*
X1025145Y477761D01*
X1023753Y474400D01*
X1021180Y471827D01*
X1017819Y470435D01*
X1014181Y470435D01*
G37*
%LPD*%
%LPC*%
G36*
X963381Y470435D02*
X963381Y470435D01*
X960020Y471827D01*
X957447Y474400D01*
X956055Y477761D01*
X956055Y496639D01*
X957447Y500000D01*
X960020Y502573D01*
X963381Y503965D01*
X967019Y503965D01*
X970380Y502573D01*
X972953Y500000D01*
X974345Y496639D01*
X974345Y477761D01*
X972953Y474400D01*
X970380Y471827D01*
X967019Y470435D01*
X963381Y470435D01*
G37*
%LPD*%
%LPC*%
G36*
X233783Y55267D02*
X233783Y55267D01*
X230795Y56505D01*
X228509Y58791D01*
X227271Y61779D01*
X227271Y78221D01*
X228509Y81209D01*
X230795Y83495D01*
X233783Y84733D01*
X237017Y84733D01*
X240005Y83495D01*
X242291Y81209D01*
X243529Y78221D01*
X243529Y61779D01*
X242291Y58791D01*
X240005Y56505D01*
X237017Y55267D01*
X233783Y55267D01*
G37*
%LPD*%
%LPC*%
G36*
X259183Y55267D02*
X259183Y55267D01*
X256195Y56505D01*
X253909Y58791D01*
X252671Y61779D01*
X252671Y78221D01*
X253909Y81209D01*
X256195Y83495D01*
X259183Y84733D01*
X262417Y84733D01*
X265405Y83495D01*
X267691Y81209D01*
X268929Y78221D01*
X268929Y61779D01*
X267691Y58791D01*
X265405Y56505D01*
X262417Y55267D01*
X259183Y55267D01*
G37*
%LPD*%
%LPC*%
G36*
X55983Y55267D02*
X55983Y55267D01*
X52995Y56505D01*
X50709Y58791D01*
X49471Y61779D01*
X49471Y78221D01*
X50709Y81209D01*
X52995Y83495D01*
X55983Y84733D01*
X59217Y84733D01*
X62205Y83495D01*
X64491Y81209D01*
X65729Y78221D01*
X65729Y61779D01*
X64491Y58791D01*
X62205Y56505D01*
X59217Y55267D01*
X55983Y55267D01*
G37*
%LPD*%
%LPC*%
G36*
X361483Y405267D02*
X361483Y405267D01*
X358495Y406505D01*
X356209Y408791D01*
X354971Y411779D01*
X354971Y428221D01*
X356209Y431209D01*
X358495Y433495D01*
X361483Y434733D01*
X364717Y434733D01*
X367705Y433495D01*
X369991Y431209D01*
X371229Y428221D01*
X371229Y411779D01*
X369991Y408791D01*
X367705Y406505D01*
X364717Y405267D01*
X361483Y405267D01*
G37*
%LPD*%
%LPC*%
G36*
X751779Y310771D02*
X751779Y310771D01*
X748791Y312009D01*
X746505Y314295D01*
X745267Y317283D01*
X745267Y320517D01*
X746505Y323505D01*
X748791Y325791D01*
X751779Y327029D01*
X768221Y327029D01*
X771209Y325791D01*
X773495Y323505D01*
X774733Y320517D01*
X774733Y317283D01*
X773495Y314295D01*
X771209Y312009D01*
X768221Y310771D01*
X751779Y310771D01*
G37*
%LPD*%
%LPC*%
G36*
X196779Y394571D02*
X196779Y394571D01*
X193791Y395809D01*
X191505Y398095D01*
X190267Y401083D01*
X190267Y404317D01*
X191505Y407305D01*
X193791Y409591D01*
X196779Y410829D01*
X213221Y410829D01*
X216209Y409591D01*
X218495Y407305D01*
X219733Y404317D01*
X219733Y401083D01*
X218495Y398095D01*
X216209Y395809D01*
X213221Y394571D01*
X196779Y394571D01*
G37*
%LPD*%
%LPC*%
G36*
X881779Y310771D02*
X881779Y310771D01*
X878791Y312009D01*
X876505Y314295D01*
X875267Y317283D01*
X875267Y320517D01*
X876505Y323505D01*
X878791Y325791D01*
X881779Y327029D01*
X898221Y327029D01*
X901209Y325791D01*
X903495Y323505D01*
X904733Y320517D01*
X904733Y317283D01*
X903495Y314295D01*
X901209Y312009D01*
X898221Y310771D01*
X881779Y310771D01*
G37*
%LPD*%
%LPC*%
G36*
X360783Y205267D02*
X360783Y205267D01*
X357795Y206505D01*
X355509Y208791D01*
X354271Y211779D01*
X354271Y228221D01*
X355509Y231209D01*
X357795Y233495D01*
X360783Y234733D01*
X364017Y234733D01*
X367005Y233495D01*
X369291Y231209D01*
X370529Y228221D01*
X370529Y211779D01*
X369291Y208791D01*
X367005Y206505D01*
X364017Y205267D01*
X360783Y205267D01*
G37*
%LPD*%
%LPC*%
G36*
X66779Y292971D02*
X66779Y292971D01*
X63791Y294209D01*
X61505Y296495D01*
X60267Y299483D01*
X60267Y302717D01*
X61505Y305705D01*
X63791Y307991D01*
X66779Y309229D01*
X83221Y309229D01*
X86209Y307991D01*
X88495Y305705D01*
X89733Y302717D01*
X89733Y299483D01*
X88495Y296495D01*
X86209Y294209D01*
X83221Y292971D01*
X66779Y292971D01*
G37*
%LPD*%
%LPC*%
G36*
X208383Y205267D02*
X208383Y205267D01*
X205395Y206505D01*
X203109Y208791D01*
X201871Y211779D01*
X201871Y228221D01*
X203109Y231209D01*
X205395Y233495D01*
X208383Y234733D01*
X211617Y234733D01*
X214605Y233495D01*
X216891Y231209D01*
X218129Y228221D01*
X218129Y211779D01*
X216891Y208791D01*
X214605Y206505D01*
X211617Y205267D01*
X208383Y205267D01*
G37*
%LPD*%
%LPC*%
G36*
X30583Y205267D02*
X30583Y205267D01*
X27595Y206505D01*
X25309Y208791D01*
X24071Y211779D01*
X24071Y228221D01*
X25309Y231209D01*
X27595Y233495D01*
X30583Y234733D01*
X33817Y234733D01*
X36805Y233495D01*
X39091Y231209D01*
X40329Y228221D01*
X40329Y211779D01*
X39091Y208791D01*
X36805Y206505D01*
X33817Y205267D01*
X30583Y205267D01*
G37*
%LPD*%
%LPC*%
G36*
X335383Y205267D02*
X335383Y205267D01*
X332395Y206505D01*
X330109Y208791D01*
X328871Y211779D01*
X328871Y228221D01*
X330109Y231209D01*
X332395Y233495D01*
X335383Y234733D01*
X338617Y234733D01*
X341605Y233495D01*
X343891Y231209D01*
X345129Y228221D01*
X345129Y211779D01*
X343891Y208791D01*
X341605Y206505D01*
X338617Y205267D01*
X335383Y205267D01*
G37*
%LPD*%
%LPC*%
G36*
X81383Y205267D02*
X81383Y205267D01*
X78395Y206505D01*
X76109Y208791D01*
X74871Y211779D01*
X74871Y228221D01*
X76109Y231209D01*
X78395Y233495D01*
X81383Y234733D01*
X84617Y234733D01*
X87605Y233495D01*
X89891Y231209D01*
X91129Y228221D01*
X91129Y211779D01*
X89891Y208791D01*
X87605Y206505D01*
X84617Y205267D01*
X81383Y205267D01*
G37*
%LPD*%
%LPC*%
G36*
X132183Y205267D02*
X132183Y205267D01*
X129195Y206505D01*
X126909Y208791D01*
X125671Y211779D01*
X125671Y228221D01*
X126909Y231209D01*
X129195Y233495D01*
X132183Y234733D01*
X135417Y234733D01*
X138405Y233495D01*
X140691Y231209D01*
X141929Y228221D01*
X141929Y211779D01*
X140691Y208791D01*
X138405Y206505D01*
X135417Y205267D01*
X132183Y205267D01*
G37*
%LPD*%
%LPC*%
G36*
X157583Y205267D02*
X157583Y205267D01*
X154595Y206505D01*
X152309Y208791D01*
X151071Y211779D01*
X151071Y228221D01*
X152309Y231209D01*
X154595Y233495D01*
X157583Y234733D01*
X160817Y234733D01*
X163805Y233495D01*
X166091Y231209D01*
X167329Y228221D01*
X167329Y211779D01*
X166091Y208791D01*
X163805Y206505D01*
X160817Y205267D01*
X157583Y205267D01*
G37*
%LPD*%
%LPC*%
G36*
X284583Y205267D02*
X284583Y205267D01*
X281595Y206505D01*
X279309Y208791D01*
X278071Y211779D01*
X278071Y228221D01*
X279309Y231209D01*
X281595Y233495D01*
X284583Y234733D01*
X287817Y234733D01*
X290805Y233495D01*
X293091Y231209D01*
X294329Y228221D01*
X294329Y211779D01*
X293091Y208791D01*
X290805Y206505D01*
X287817Y205267D01*
X284583Y205267D01*
G37*
%LPD*%
%LPC*%
G36*
X881779Y209171D02*
X881779Y209171D01*
X878791Y210409D01*
X876505Y212695D01*
X875267Y215683D01*
X875267Y218917D01*
X876505Y221905D01*
X878791Y224191D01*
X881779Y225429D01*
X898221Y225429D01*
X901209Y224191D01*
X903495Y221905D01*
X904733Y218917D01*
X904733Y215683D01*
X903495Y212695D01*
X901209Y210409D01*
X898221Y209171D01*
X881779Y209171D01*
G37*
%LPD*%
%LPC*%
G36*
X751779Y183771D02*
X751779Y183771D01*
X748791Y185009D01*
X746505Y187295D01*
X745267Y190283D01*
X745267Y193517D01*
X746505Y196505D01*
X748791Y198791D01*
X751779Y200029D01*
X768221Y200029D01*
X771209Y198791D01*
X773495Y196505D01*
X774733Y193517D01*
X774733Y190283D01*
X773495Y187295D01*
X771209Y185009D01*
X768221Y183771D01*
X751779Y183771D01*
G37*
%LPD*%
%LPC*%
G36*
X335383Y55267D02*
X335383Y55267D01*
X332395Y56505D01*
X330109Y58791D01*
X328871Y61779D01*
X328871Y78221D01*
X330109Y81209D01*
X332395Y83495D01*
X335383Y84733D01*
X338617Y84733D01*
X341605Y83495D01*
X343891Y81209D01*
X345129Y78221D01*
X345129Y61779D01*
X343891Y58791D01*
X341605Y56505D01*
X338617Y55267D01*
X335383Y55267D01*
G37*
%LPD*%
%LPC*%
G36*
X81383Y55267D02*
X81383Y55267D01*
X78395Y56505D01*
X76109Y58791D01*
X74871Y61779D01*
X74871Y78221D01*
X76109Y81209D01*
X78395Y83495D01*
X81383Y84733D01*
X84617Y84733D01*
X87605Y83495D01*
X89891Y81209D01*
X91129Y78221D01*
X91129Y61779D01*
X89891Y58791D01*
X87605Y56505D01*
X84617Y55267D01*
X81383Y55267D01*
G37*
%LPD*%
%LPC*%
G36*
X889479Y482271D02*
X889479Y482271D01*
X886491Y483509D01*
X884205Y485795D01*
X882967Y488783D01*
X882967Y492017D01*
X884205Y495005D01*
X886491Y497291D01*
X889479Y498529D01*
X905921Y498529D01*
X908909Y497291D01*
X911195Y495005D01*
X912433Y492017D01*
X912433Y488783D01*
X911195Y485795D01*
X908909Y483509D01*
X905921Y482271D01*
X889479Y482271D01*
G37*
%LPD*%
%LPC*%
G36*
X309983Y55267D02*
X309983Y55267D01*
X306995Y56505D01*
X304709Y58791D01*
X303471Y61779D01*
X303471Y78221D01*
X304709Y81209D01*
X306995Y83495D01*
X309983Y84733D01*
X313217Y84733D01*
X316205Y83495D01*
X318491Y81209D01*
X319729Y78221D01*
X319729Y61779D01*
X318491Y58791D01*
X316205Y56505D01*
X313217Y55267D01*
X309983Y55267D01*
G37*
%LPD*%
%LPC*%
G36*
X132183Y55267D02*
X132183Y55267D01*
X129195Y56505D01*
X126909Y58791D01*
X125671Y61779D01*
X125671Y78221D01*
X126909Y81209D01*
X129195Y83495D01*
X132183Y84733D01*
X135417Y84733D01*
X138405Y83495D01*
X140691Y81209D01*
X141929Y78221D01*
X141929Y61779D01*
X140691Y58791D01*
X138405Y56505D01*
X135417Y55267D01*
X132183Y55267D01*
G37*
%LPD*%
%LPC*%
G36*
X182983Y55267D02*
X182983Y55267D01*
X179995Y56505D01*
X177709Y58791D01*
X176471Y61779D01*
X176471Y78221D01*
X177709Y81209D01*
X179995Y83495D01*
X182983Y84733D01*
X186217Y84733D01*
X189205Y83495D01*
X191491Y81209D01*
X192729Y78221D01*
X192729Y61779D01*
X191491Y58791D01*
X189205Y56505D01*
X186217Y55267D01*
X182983Y55267D01*
G37*
%LPD*%
%LPC*%
G36*
X208383Y55267D02*
X208383Y55267D01*
X205395Y56505D01*
X203109Y58791D01*
X201871Y61779D01*
X201871Y78221D01*
X203109Y81209D01*
X205395Y83495D01*
X208383Y84733D01*
X211617Y84733D01*
X214605Y83495D01*
X216891Y81209D01*
X218129Y78221D01*
X218129Y61779D01*
X216891Y58791D01*
X214605Y56505D01*
X211617Y55267D01*
X208383Y55267D01*
G37*
%LPD*%
%LPC*%
G36*
X665896Y532793D02*
X665896Y532793D01*
X660093Y538596D01*
X660093Y546804D01*
X665896Y552607D01*
X674104Y552607D01*
X679907Y546804D01*
X679907Y538596D01*
X674104Y532793D01*
X665896Y532793D01*
G37*
%LPD*%
%LPC*%
G36*
X545896Y532793D02*
X545896Y532793D01*
X540093Y538596D01*
X540093Y546804D01*
X545896Y552607D01*
X554104Y552607D01*
X559907Y546804D01*
X559907Y538596D01*
X554104Y532793D01*
X545896Y532793D01*
G37*
%LPD*%
%LPC*%
G36*
X665896Y507393D02*
X665896Y507393D01*
X660093Y513196D01*
X660093Y521404D01*
X665896Y527207D01*
X674104Y527207D01*
X679907Y521404D01*
X679907Y513196D01*
X674104Y507393D01*
X665896Y507393D01*
G37*
%LPD*%
%LPC*%
G36*
X968029Y280893D02*
X968029Y280893D01*
X964388Y282401D01*
X961601Y285188D01*
X960093Y288829D01*
X960093Y292771D01*
X961601Y296412D01*
X964388Y299199D01*
X968029Y300707D01*
X971971Y300707D01*
X975612Y299199D01*
X978399Y296412D01*
X979907Y292771D01*
X979907Y288829D01*
X978399Y285188D01*
X975612Y282401D01*
X971971Y280893D01*
X968029Y280893D01*
G37*
%LPD*%
%LPC*%
G36*
X940681Y43955D02*
X940681Y43955D01*
X937320Y45347D01*
X934747Y47920D01*
X933355Y51281D01*
X933355Y54919D01*
X934747Y58280D01*
X937320Y60853D01*
X940681Y62245D01*
X944319Y62245D01*
X947680Y60853D01*
X950253Y58280D01*
X951645Y54919D01*
X951645Y51281D01*
X950253Y47920D01*
X947680Y45347D01*
X944319Y43955D01*
X940681Y43955D01*
G37*
%LPD*%
%LPC*%
G36*
X391133Y532971D02*
X391133Y532971D01*
X386371Y537733D01*
X386371Y544467D01*
X391133Y549229D01*
X397867Y549229D01*
X402629Y544467D01*
X402629Y537733D01*
X397867Y532971D01*
X391133Y532971D01*
G37*
%LPD*%
%LPC*%
G36*
X467333Y532971D02*
X467333Y532971D01*
X462571Y537733D01*
X462571Y544467D01*
X467333Y549229D01*
X474067Y549229D01*
X478829Y544467D01*
X478829Y537733D01*
X474067Y532971D01*
X467333Y532971D01*
G37*
%LPD*%
%LPC*%
G36*
X756633Y429971D02*
X756633Y429971D01*
X751871Y434733D01*
X751871Y441467D01*
X756633Y446229D01*
X763367Y446229D01*
X768129Y441467D01*
X768129Y434733D01*
X763367Y429971D01*
X756633Y429971D01*
G37*
%LPD*%
%LPC*%
G36*
X758823Y546523D02*
X758823Y546523D01*
X758823Y562666D01*
X759679Y562531D01*
X761200Y562036D01*
X762625Y561310D01*
X763919Y560370D01*
X765050Y559239D01*
X765990Y557945D01*
X766716Y556520D01*
X767211Y554999D01*
X767461Y553420D01*
X767461Y546523D01*
X758823Y546523D01*
G37*
%LPD*%
%LPC*%
G36*
X908123Y554923D02*
X908123Y554923D01*
X908123Y571066D01*
X908979Y570931D01*
X910500Y570436D01*
X911925Y569710D01*
X913219Y568770D01*
X914350Y567639D01*
X915290Y566345D01*
X916016Y564920D01*
X916511Y563399D01*
X916761Y561820D01*
X916761Y554923D01*
X908123Y554923D01*
G37*
%LPD*%
%LPC*%
G36*
X133523Y532223D02*
X133523Y532223D01*
X133523Y548366D01*
X134379Y548231D01*
X135900Y547736D01*
X137325Y547010D01*
X138619Y546070D01*
X139750Y544939D01*
X140690Y543645D01*
X141416Y542220D01*
X141911Y540699D01*
X142161Y539120D01*
X142161Y532223D01*
X133523Y532223D01*
G37*
%LPD*%
%LPC*%
G36*
X992123Y404823D02*
X992123Y404823D01*
X992123Y420966D01*
X992979Y420831D01*
X994500Y420336D01*
X995925Y419610D01*
X997219Y418670D01*
X998350Y417539D01*
X999290Y416245D01*
X1000016Y414820D01*
X1000511Y413299D01*
X1000761Y411720D01*
X1000761Y404823D01*
X992123Y404823D01*
G37*
%LPD*%
%LPC*%
G36*
X687323Y52323D02*
X687323Y52323D01*
X687323Y68466D01*
X688179Y68331D01*
X689700Y67836D01*
X691125Y67110D01*
X692419Y66170D01*
X693550Y65039D01*
X694490Y63745D01*
X695216Y62320D01*
X695711Y60799D01*
X695961Y59220D01*
X695961Y52323D01*
X687323Y52323D01*
G37*
%LPD*%
%LPC*%
G36*
X1057923Y325923D02*
X1057923Y325923D01*
X1057923Y334561D01*
X1064820Y334561D01*
X1066399Y334311D01*
X1067920Y333816D01*
X1069345Y333090D01*
X1070639Y332150D01*
X1071770Y331019D01*
X1072710Y329725D01*
X1073436Y328300D01*
X1073931Y326779D01*
X1074066Y325923D01*
X1057923Y325923D01*
G37*
%LPD*%
%LPC*%
G36*
X1038734Y325923D02*
X1038734Y325923D01*
X1038869Y326779D01*
X1039364Y328300D01*
X1040090Y329725D01*
X1041030Y331019D01*
X1042161Y332150D01*
X1043455Y333090D01*
X1044880Y333816D01*
X1046401Y334311D01*
X1047980Y334561D01*
X1054877Y334561D01*
X1054877Y325923D01*
X1038734Y325923D01*
G37*
%LPD*%
%LPC*%
G36*
X908123Y551877D02*
X908123Y551877D01*
X916761Y551877D01*
X916761Y544980D01*
X916511Y543401D01*
X916016Y541880D01*
X915290Y540455D01*
X914350Y539161D01*
X913219Y538030D01*
X911925Y537090D01*
X910500Y536364D01*
X908979Y535869D01*
X908123Y535734D01*
X908123Y551877D01*
G37*
%LPD*%
%LPC*%
G36*
X992123Y401777D02*
X992123Y401777D01*
X1000761Y401777D01*
X1000761Y394880D01*
X1000511Y393301D01*
X1000016Y391780D01*
X999290Y390355D01*
X998350Y389061D01*
X997219Y387930D01*
X995925Y386990D01*
X994500Y386264D01*
X992979Y385769D01*
X992123Y385634D01*
X992123Y401777D01*
G37*
%LPD*%
%LPC*%
G36*
X758823Y543477D02*
X758823Y543477D01*
X767461Y543477D01*
X767461Y536580D01*
X767211Y535001D01*
X766716Y533480D01*
X765990Y532055D01*
X765050Y530761D01*
X763919Y529630D01*
X762625Y528690D01*
X761200Y527964D01*
X759679Y527469D01*
X758823Y527334D01*
X758823Y543477D01*
G37*
%LPD*%
%LPC*%
G36*
X133523Y529177D02*
X133523Y529177D01*
X142161Y529177D01*
X142161Y522280D01*
X141911Y520701D01*
X141416Y519180D01*
X140690Y517755D01*
X139750Y516461D01*
X138619Y515330D01*
X137325Y514390D01*
X135900Y513664D01*
X134379Y513169D01*
X133523Y513034D01*
X133523Y529177D01*
G37*
%LPD*%
%LPC*%
G36*
X687323Y49277D02*
X687323Y49277D01*
X695961Y49277D01*
X695961Y42380D01*
X695711Y40801D01*
X695216Y39280D01*
X694490Y37855D01*
X693550Y36561D01*
X692419Y35430D01*
X691125Y34490D01*
X689700Y33764D01*
X688179Y33269D01*
X687323Y33134D01*
X687323Y49277D01*
G37*
%LPD*%
%LPC*%
G36*
X896439Y554923D02*
X896439Y554923D01*
X896439Y561820D01*
X896689Y563399D01*
X897184Y564920D01*
X897910Y566345D01*
X898850Y567639D01*
X899981Y568770D01*
X901275Y569710D01*
X902700Y570436D01*
X904221Y570931D01*
X905077Y571066D01*
X905077Y554923D01*
X896439Y554923D01*
G37*
%LPD*%
%LPC*%
G36*
X747139Y546523D02*
X747139Y546523D01*
X747139Y553420D01*
X747389Y554999D01*
X747884Y556520D01*
X748610Y557945D01*
X749550Y559239D01*
X750681Y560370D01*
X751975Y561310D01*
X753400Y562036D01*
X754921Y562531D01*
X755777Y562666D01*
X755777Y546523D01*
X747139Y546523D01*
G37*
%LPD*%
%LPC*%
G36*
X121839Y532223D02*
X121839Y532223D01*
X121839Y539120D01*
X122089Y540699D01*
X122584Y542220D01*
X123310Y543645D01*
X124250Y544939D01*
X125381Y546070D01*
X126675Y547010D01*
X128100Y547736D01*
X129621Y548231D01*
X130477Y548366D01*
X130477Y532223D01*
X121839Y532223D01*
G37*
%LPD*%
%LPC*%
G36*
X980439Y404823D02*
X980439Y404823D01*
X980439Y411720D01*
X980689Y413299D01*
X981184Y414820D01*
X981910Y416245D01*
X982850Y417539D01*
X983981Y418670D01*
X985275Y419610D01*
X986700Y420336D01*
X988221Y420831D01*
X989077Y420966D01*
X989077Y404823D01*
X980439Y404823D01*
G37*
%LPD*%
%LPC*%
G36*
X675639Y52323D02*
X675639Y52323D01*
X675639Y59220D01*
X675889Y60799D01*
X676384Y62320D01*
X677110Y63745D01*
X678050Y65039D01*
X679181Y66170D01*
X680475Y67110D01*
X681900Y67836D01*
X683421Y68331D01*
X684277Y68466D01*
X684277Y52323D01*
X675639Y52323D01*
G37*
%LPD*%
%LPC*%
G36*
X1057923Y314239D02*
X1057923Y314239D01*
X1057923Y322877D01*
X1074066Y322877D01*
X1073931Y322021D01*
X1073436Y320500D01*
X1072710Y319075D01*
X1071770Y317781D01*
X1070639Y316650D01*
X1069345Y315710D01*
X1067920Y314984D01*
X1066399Y314489D01*
X1064820Y314239D01*
X1057923Y314239D01*
G37*
%LPD*%
%LPC*%
G36*
X1047980Y314239D02*
X1047980Y314239D01*
X1046401Y314489D01*
X1044880Y314984D01*
X1043455Y315710D01*
X1042161Y316650D01*
X1041030Y317781D01*
X1040090Y319075D01*
X1039364Y320500D01*
X1038869Y322021D01*
X1038734Y322877D01*
X1054877Y322877D01*
X1054877Y314239D01*
X1047980Y314239D01*
G37*
%LPD*%
%LPC*%
G36*
X904221Y535869D02*
X904221Y535869D01*
X902700Y536364D01*
X901275Y537090D01*
X899981Y538030D01*
X898850Y539161D01*
X897910Y540455D01*
X897184Y541880D01*
X896689Y543401D01*
X896439Y544980D01*
X896439Y551877D01*
X905077Y551877D01*
X905077Y535734D01*
X904221Y535869D01*
G37*
%LPD*%
%LPC*%
G36*
X754921Y527469D02*
X754921Y527469D01*
X753400Y527964D01*
X751975Y528690D01*
X750681Y529630D01*
X749550Y530761D01*
X748610Y532055D01*
X747884Y533480D01*
X747389Y535001D01*
X747139Y536580D01*
X747139Y543477D01*
X755777Y543477D01*
X755777Y527334D01*
X754921Y527469D01*
G37*
%LPD*%
%LPC*%
G36*
X683421Y33269D02*
X683421Y33269D01*
X681900Y33764D01*
X680475Y34490D01*
X679181Y35430D01*
X678050Y36561D01*
X677110Y37855D01*
X676384Y39280D01*
X675889Y40801D01*
X675639Y42380D01*
X675639Y49277D01*
X684277Y49277D01*
X684277Y33134D01*
X683421Y33269D01*
G37*
%LPD*%
%LPC*%
G36*
X129621Y513169D02*
X129621Y513169D01*
X128100Y513664D01*
X126675Y514390D01*
X125381Y515330D01*
X124250Y516461D01*
X123310Y517755D01*
X122584Y519180D01*
X122089Y520701D01*
X121839Y522280D01*
X121839Y529177D01*
X130477Y529177D01*
X130477Y513034D01*
X129621Y513169D01*
G37*
%LPD*%
%LPC*%
G36*
X988221Y385769D02*
X988221Y385769D01*
X986700Y386264D01*
X985275Y386990D01*
X983981Y387930D01*
X982850Y389061D01*
X981910Y390355D01*
X981184Y391780D01*
X980689Y393301D01*
X980439Y394880D01*
X980439Y401777D01*
X989077Y401777D01*
X989077Y385634D01*
X988221Y385769D01*
G37*
%LPD*%
%LPC*%
G36*
X109923Y71523D02*
X109923Y71523D01*
X109923Y85625D01*
X111067Y85397D01*
X112732Y84708D01*
X114230Y83707D01*
X115503Y82434D01*
X116504Y80936D01*
X117193Y79271D01*
X117545Y77505D01*
X117545Y71523D01*
X109923Y71523D01*
G37*
%LPD*%
%LPC*%
G36*
X206523Y302623D02*
X206523Y302623D01*
X206523Y310245D01*
X212505Y310245D01*
X214271Y309893D01*
X215936Y309204D01*
X217434Y308203D01*
X218707Y306930D01*
X219708Y305432D01*
X220397Y303767D01*
X220625Y302623D01*
X206523Y302623D01*
G37*
%LPD*%
%LPC*%
G36*
X899223Y441123D02*
X899223Y441123D01*
X899223Y448745D01*
X905205Y448745D01*
X906971Y448393D01*
X908636Y447704D01*
X910134Y446703D01*
X911407Y445430D01*
X912408Y443932D01*
X913097Y442267D01*
X913325Y441123D01*
X899223Y441123D01*
G37*
%LPD*%
%LPC*%
G36*
X390023Y421523D02*
X390023Y421523D01*
X390023Y435625D01*
X391167Y435397D01*
X392832Y434708D01*
X394330Y433707D01*
X395603Y432434D01*
X396604Y430936D01*
X397293Y429271D01*
X397645Y427505D01*
X397645Y421523D01*
X390023Y421523D01*
G37*
%LPD*%
%LPC*%
G36*
X891523Y142623D02*
X891523Y142623D01*
X891523Y150245D01*
X897505Y150245D01*
X899271Y149893D01*
X900936Y149204D01*
X902434Y148203D01*
X903707Y146930D01*
X904708Y145432D01*
X905397Y143767D01*
X905625Y142623D01*
X891523Y142623D01*
G37*
%LPD*%
%LPC*%
G36*
X59123Y221523D02*
X59123Y221523D01*
X59123Y235625D01*
X60267Y235397D01*
X61932Y234708D01*
X63430Y233707D01*
X64703Y232434D01*
X65704Y230936D01*
X66393Y229271D01*
X66745Y227505D01*
X66745Y221523D01*
X59123Y221523D01*
G37*
%LPD*%
%LPC*%
G36*
X109923Y68477D02*
X109923Y68477D01*
X117545Y68477D01*
X117545Y62495D01*
X117193Y60729D01*
X116504Y59064D01*
X115503Y57566D01*
X114230Y56293D01*
X112732Y55292D01*
X111067Y54603D01*
X109923Y54375D01*
X109923Y68477D01*
G37*
%LPD*%
%LPC*%
G36*
X874375Y142623D02*
X874375Y142623D01*
X874603Y143767D01*
X875292Y145432D01*
X876293Y146930D01*
X877566Y148203D01*
X879064Y149204D01*
X880729Y149893D01*
X882495Y150245D01*
X888477Y150245D01*
X888477Y142623D01*
X874375Y142623D01*
G37*
%LPD*%
%LPC*%
G36*
X59123Y218477D02*
X59123Y218477D01*
X66745Y218477D01*
X66745Y212495D01*
X66393Y210729D01*
X65704Y209064D01*
X64703Y207566D01*
X63430Y206293D01*
X61932Y205292D01*
X60267Y204603D01*
X59123Y204375D01*
X59123Y218477D01*
G37*
%LPD*%
%LPC*%
G36*
X390023Y418477D02*
X390023Y418477D01*
X397645Y418477D01*
X397645Y412495D01*
X397293Y410729D01*
X396604Y409064D01*
X395603Y407566D01*
X394330Y406293D01*
X392832Y405292D01*
X391167Y404603D01*
X390023Y404375D01*
X390023Y418477D01*
G37*
%LPD*%
%LPC*%
G36*
X882075Y441123D02*
X882075Y441123D01*
X882303Y442267D01*
X882992Y443932D01*
X883993Y445430D01*
X885266Y446703D01*
X886764Y447704D01*
X888429Y448393D01*
X890195Y448745D01*
X896177Y448745D01*
X896177Y441123D01*
X882075Y441123D01*
G37*
%LPD*%
%LPC*%
G36*
X891523Y131955D02*
X891523Y131955D01*
X891523Y139577D01*
X905625Y139577D01*
X905397Y138433D01*
X904708Y136768D01*
X903707Y135270D01*
X902434Y133997D01*
X900936Y132996D01*
X899271Y132307D01*
X897505Y131955D01*
X891523Y131955D01*
G37*
%LPD*%
%LPC*%
G36*
X99255Y71523D02*
X99255Y71523D01*
X99255Y77505D01*
X99607Y79271D01*
X100296Y80936D01*
X101297Y82434D01*
X102570Y83707D01*
X104068Y84708D01*
X105733Y85397D01*
X106877Y85625D01*
X106877Y71523D01*
X99255Y71523D01*
G37*
%LPD*%
%LPC*%
G36*
X206523Y291955D02*
X206523Y291955D01*
X206523Y299577D01*
X220625Y299577D01*
X220397Y298433D01*
X219708Y296768D01*
X218707Y295270D01*
X217434Y293997D01*
X215936Y292996D01*
X214271Y292307D01*
X212505Y291955D01*
X206523Y291955D01*
G37*
%LPD*%
%LPC*%
G36*
X899223Y430455D02*
X899223Y430455D01*
X899223Y438077D01*
X913325Y438077D01*
X913097Y436933D01*
X912408Y435268D01*
X911407Y433770D01*
X910134Y432497D01*
X908636Y431496D01*
X906971Y430807D01*
X905205Y430455D01*
X899223Y430455D01*
G37*
%LPD*%
%LPC*%
G36*
X379355Y421523D02*
X379355Y421523D01*
X379355Y427505D01*
X379707Y429271D01*
X380396Y430936D01*
X381397Y432434D01*
X382670Y433707D01*
X384168Y434708D01*
X385833Y435397D01*
X386977Y435625D01*
X386977Y421523D01*
X379355Y421523D01*
G37*
%LPD*%
%LPC*%
G36*
X882495Y131955D02*
X882495Y131955D01*
X880729Y132307D01*
X879064Y132996D01*
X877566Y133997D01*
X876293Y135270D01*
X875292Y136768D01*
X874603Y138433D01*
X874375Y139577D01*
X888477Y139577D01*
X888477Y131955D01*
X882495Y131955D01*
G37*
%LPD*%
%LPC*%
G36*
X385833Y404603D02*
X385833Y404603D01*
X384168Y405292D01*
X382670Y406293D01*
X381397Y407566D01*
X380396Y409064D01*
X379707Y410729D01*
X379355Y412495D01*
X379355Y418477D01*
X386977Y418477D01*
X386977Y404375D01*
X385833Y404603D01*
G37*
%LPD*%
%LPC*%
G36*
X197495Y291955D02*
X197495Y291955D01*
X195729Y292307D01*
X194064Y292996D01*
X192566Y293997D01*
X191293Y295270D01*
X190292Y296768D01*
X189603Y298433D01*
X189375Y299577D01*
X203477Y299577D01*
X203477Y291955D01*
X197495Y291955D01*
G37*
%LPD*%
%LPC*%
G36*
X105733Y54603D02*
X105733Y54603D01*
X104068Y55292D01*
X102570Y56293D01*
X101297Y57566D01*
X100296Y59064D01*
X99607Y60729D01*
X99255Y62495D01*
X99255Y68477D01*
X106877Y68477D01*
X106877Y54375D01*
X105733Y54603D01*
G37*
%LPD*%
%LPC*%
G36*
X890195Y430455D02*
X890195Y430455D01*
X888429Y430807D01*
X886764Y431496D01*
X885266Y432497D01*
X883993Y433770D01*
X882992Y435268D01*
X882303Y436933D01*
X882075Y438077D01*
X896177Y438077D01*
X896177Y430455D01*
X890195Y430455D01*
G37*
%LPD*%
%LPC*%
G36*
X969423Y54623D02*
X969423Y54623D01*
X969423Y63146D01*
X970279Y63011D01*
X971800Y62516D01*
X973225Y61790D01*
X974519Y60850D01*
X975650Y59719D01*
X976590Y58425D01*
X977316Y57000D01*
X977811Y55479D01*
X977946Y54623D01*
X969423Y54623D01*
G37*
%LPD*%
%LPC*%
G36*
X957854Y54623D02*
X957854Y54623D01*
X957989Y55479D01*
X958484Y57000D01*
X959210Y58425D01*
X960150Y59719D01*
X961281Y60850D01*
X962575Y61790D01*
X964000Y62516D01*
X965521Y63011D01*
X966377Y63146D01*
X966377Y54623D01*
X957854Y54623D01*
G37*
%LPD*%
%LPC*%
G36*
X969423Y51577D02*
X969423Y51577D01*
X977946Y51577D01*
X977811Y50721D01*
X977316Y49200D01*
X976590Y47775D01*
X975650Y46481D01*
X974519Y45350D01*
X973225Y44410D01*
X971800Y43684D01*
X970279Y43189D01*
X969423Y43054D01*
X969423Y51577D01*
G37*
%LPD*%
%LPC*%
G36*
X965521Y43189D02*
X965521Y43189D01*
X964000Y43684D01*
X962575Y44410D01*
X961281Y45350D01*
X960150Y46481D01*
X959210Y47775D01*
X958484Y49200D01*
X957989Y50721D01*
X957854Y51577D01*
X966377Y51577D01*
X966377Y43054D01*
X965521Y43189D01*
G37*
%LPD*%
%LPC*%
G36*
X113423Y36523D02*
X113423Y36523D01*
X113423Y44145D01*
X115688Y44145D01*
X121045Y38788D01*
X121045Y36523D01*
X113423Y36523D01*
G37*
%LPD*%
%LPC*%
G36*
X102755Y36523D02*
X102755Y36523D01*
X102755Y38788D01*
X108112Y44145D01*
X110377Y44145D01*
X110377Y36523D01*
X102755Y36523D01*
G37*
%LPD*%
%LPC*%
G36*
X113423Y25855D02*
X113423Y25855D01*
X113423Y33477D01*
X121045Y33477D01*
X121045Y31212D01*
X115688Y25855D01*
X113423Y25855D01*
G37*
%LPD*%
%LPC*%
G36*
X108112Y25855D02*
X108112Y25855D01*
X102755Y31212D01*
X102755Y33477D01*
X110377Y33477D01*
X110377Y25855D01*
X108112Y25855D01*
G37*
%LPD*%
%LPC*%
G36*
X990599Y403299D02*
X990599Y403299D01*
X990599Y403301D01*
X990601Y403301D01*
X990601Y403299D01*
X990599Y403299D01*
G37*
%LPD*%
%LPC*%
G36*
X897699Y439599D02*
X897699Y439599D01*
X897699Y439601D01*
X897701Y439601D01*
X897701Y439599D01*
X897699Y439599D01*
G37*
%LPD*%
%LPC*%
G36*
X967899Y53099D02*
X967899Y53099D01*
X967899Y53101D01*
X967901Y53101D01*
X967901Y53099D01*
X967899Y53099D01*
G37*
%LPD*%
%LPC*%
G36*
X108399Y69999D02*
X108399Y69999D01*
X108399Y70001D01*
X108401Y70001D01*
X108401Y69999D01*
X108399Y69999D01*
G37*
%LPD*%
%LPC*%
G36*
X906599Y553399D02*
X906599Y553399D01*
X906599Y553401D01*
X906601Y553401D01*
X906601Y553399D01*
X906599Y553399D01*
G37*
%LPD*%
%LPC*%
G36*
X685799Y50799D02*
X685799Y50799D01*
X685799Y50801D01*
X685801Y50801D01*
X685801Y50799D01*
X685799Y50799D01*
G37*
%LPD*%
%LPC*%
G36*
X757299Y544999D02*
X757299Y544999D01*
X757299Y545001D01*
X757301Y545001D01*
X757301Y544999D01*
X757299Y544999D01*
G37*
%LPD*%
%LPC*%
G36*
X131999Y530699D02*
X131999Y530699D01*
X131999Y530701D01*
X132001Y530701D01*
X132001Y530699D01*
X131999Y530699D01*
G37*
%LPD*%
%LPC*%
G36*
X388499Y419999D02*
X388499Y419999D01*
X388499Y420001D01*
X388501Y420001D01*
X388501Y419999D01*
X388499Y419999D01*
G37*
%LPD*%
%LPC*%
G36*
X889999Y141099D02*
X889999Y141099D01*
X889999Y141101D01*
X890001Y141101D01*
X890001Y141099D01*
X889999Y141099D01*
G37*
%LPD*%
%LPC*%
G36*
X111899Y34999D02*
X111899Y34999D01*
X111899Y35001D01*
X111901Y35001D01*
X111901Y34999D01*
X111899Y34999D01*
G37*
%LPD*%
%LPC*%
G36*
X1056399Y324399D02*
X1056399Y324399D01*
X1056399Y324401D01*
X1056401Y324401D01*
X1056401Y324399D01*
X1056399Y324399D01*
G37*
%LPD*%
%LPC*%
G36*
X204999Y301099D02*
X204999Y301099D01*
X204999Y301101D01*
X205001Y301101D01*
X205001Y301099D01*
X204999Y301099D01*
G37*
%LPD*%
D10*
X1064020Y324400D02*
X1048780Y324400D01*
X1048780Y299000D02*
X1064020Y299000D01*
X1064020Y217800D02*
X1048780Y217800D01*
X1048780Y192400D02*
X1064020Y192400D01*
D11*
X766604Y318900D02*
X753396Y318900D01*
X753396Y293500D02*
X766604Y293500D01*
X766604Y268100D02*
X753396Y268100D01*
X753396Y242700D02*
X766604Y242700D01*
X766604Y217300D02*
X753396Y217300D01*
X753396Y191900D02*
X766604Y191900D01*
X766604Y166500D02*
X753396Y166500D01*
X753396Y141100D02*
X766604Y141100D01*
X883396Y141100D02*
X896604Y141100D01*
X896604Y166500D02*
X883396Y166500D01*
X883396Y191900D02*
X896604Y191900D01*
X896604Y217300D02*
X883396Y217300D01*
X883396Y242700D02*
X896604Y242700D01*
X896604Y268100D02*
X883396Y268100D01*
X883396Y293500D02*
X896604Y293500D01*
X896604Y318900D02*
X883396Y318900D01*
X81604Y478900D02*
X68396Y478900D01*
X68396Y453500D02*
X81604Y453500D01*
X81604Y428100D02*
X68396Y428100D01*
X68396Y402700D02*
X81604Y402700D01*
X81604Y377300D02*
X68396Y377300D01*
X68396Y351900D02*
X81604Y351900D01*
X81604Y326500D02*
X68396Y326500D01*
X68396Y301100D02*
X81604Y301100D01*
X198396Y301100D02*
X211604Y301100D01*
X211604Y326500D02*
X198396Y326500D01*
X198396Y351900D02*
X211604Y351900D01*
X211604Y377300D02*
X198396Y377300D01*
X198396Y402700D02*
X211604Y402700D01*
X211604Y428100D02*
X198396Y428100D01*
X198396Y453500D02*
X211604Y453500D01*
X211604Y478900D02*
X198396Y478900D01*
X32200Y76604D02*
X32200Y63396D01*
X57600Y63396D02*
X57600Y76604D01*
X83000Y76604D02*
X83000Y63396D01*
X108400Y63396D02*
X108400Y76604D01*
X133800Y76604D02*
X133800Y63396D01*
X159200Y63396D02*
X159200Y76604D01*
X184600Y76604D02*
X184600Y63396D01*
X210000Y63396D02*
X210000Y76604D01*
X235400Y76604D02*
X235400Y63396D01*
X260800Y63396D02*
X260800Y76604D01*
X286200Y76604D02*
X286200Y63396D01*
X311600Y63396D02*
X311600Y76604D01*
X337000Y76604D02*
X337000Y63396D01*
X362400Y63396D02*
X362400Y76604D01*
X387800Y76604D02*
X387800Y63396D01*
X387800Y213396D02*
X387800Y226604D01*
X362400Y226604D02*
X362400Y213396D01*
X337000Y213396D02*
X337000Y226604D01*
X311600Y226604D02*
X311600Y213396D01*
X286200Y213396D02*
X286200Y226604D01*
X260800Y226604D02*
X260800Y213396D01*
X235400Y213396D02*
X235400Y226604D01*
X210000Y226604D02*
X210000Y213396D01*
X184600Y213396D02*
X184600Y226604D01*
X159200Y226604D02*
X159200Y213396D01*
X133800Y213396D02*
X133800Y226604D01*
X108400Y226604D02*
X108400Y213396D01*
X83000Y213396D02*
X83000Y226604D01*
X57600Y226604D02*
X57600Y213396D01*
X32200Y213396D02*
X32200Y226604D01*
D12*
X844800Y47200D03*
X844800Y82200D03*
D10*
X855800Y545780D02*
X855800Y561020D01*
X881200Y561020D02*
X881200Y545780D01*
X906600Y545780D02*
X906600Y561020D01*
D13*
X550000Y542700D03*
X550000Y517300D03*
D10*
X736600Y58420D02*
X736600Y43180D01*
X711200Y43180D02*
X711200Y58420D01*
X685800Y58420D02*
X685800Y43180D01*
D14*
X549900Y52200D03*
X549900Y77600D03*
D15*
X470700Y541100D03*
X394500Y541100D03*
X500700Y98100D03*
X424500Y98100D03*
D10*
X157400Y523080D02*
X157400Y538320D01*
X132000Y538320D02*
X132000Y523080D01*
X106600Y523080D02*
X106600Y538320D01*
X182800Y538320D02*
X182800Y523080D01*
X317500Y523080D02*
X317500Y538320D01*
X292100Y538320D02*
X292100Y523080D01*
X266700Y523080D02*
X266700Y538320D01*
X342900Y538320D02*
X342900Y523080D01*
X1016000Y410920D02*
X1016000Y395680D01*
X990600Y395680D02*
X990600Y410920D01*
X965200Y410920D02*
X965200Y395680D01*
X1041400Y395680D02*
X1041400Y410920D01*
X1016000Y479580D02*
X1016000Y494820D01*
X990600Y494820D02*
X990600Y479580D01*
X965200Y479580D02*
X965200Y494820D01*
X1041400Y494820D02*
X1041400Y479580D01*
D16*
X942500Y53100D03*
X967900Y53100D03*
X993300Y53100D03*
D10*
X826920Y378700D02*
X811680Y378700D01*
X811680Y404100D02*
X826920Y404100D01*
X854780Y378700D02*
X870020Y378700D01*
X870020Y404100D02*
X854780Y404100D01*
X897880Y378700D02*
X913120Y378700D01*
X913120Y404100D02*
X897880Y404100D01*
X301700Y358620D02*
X301700Y343380D01*
X327100Y343380D02*
X327100Y358620D01*
X301700Y315520D02*
X301700Y300280D01*
X327100Y300280D02*
X327100Y315520D01*
X301700Y272420D02*
X301700Y257180D01*
X327100Y257180D02*
X327100Y272420D01*
D17*
X970000Y290800D03*
X970000Y189200D03*
D18*
X934882Y105000D02*
X918118Y105000D01*
X1045118Y105000D02*
X1061882Y105000D01*
D10*
X124300Y257580D02*
X124300Y272820D01*
X149700Y272820D02*
X149700Y257580D01*
D13*
X670000Y542700D03*
X670000Y517300D03*
D11*
X891096Y439600D02*
X904304Y439600D01*
X904304Y490400D02*
X891096Y490400D01*
X891096Y465000D02*
X904304Y465000D01*
D10*
X782700Y537380D02*
X782700Y552620D01*
X757300Y552620D02*
X757300Y537380D01*
D19*
X720000Y438100D03*
X720000Y361900D03*
D15*
X853100Y470000D03*
X776900Y470000D03*
X188100Y35000D03*
X111900Y35000D03*
D20*
X760000Y361900D03*
X760000Y438100D03*
D11*
X261500Y426604D02*
X261500Y413396D01*
X286900Y413396D02*
X286900Y426604D01*
X312300Y426604D02*
X312300Y413396D01*
X337700Y413396D02*
X337700Y426604D01*
X363100Y426604D02*
X363100Y413396D01*
X388500Y413396D02*
X388500Y426604D01*
D21*
X160000Y70000D02*
X185000Y45000D01*
X385000Y45000D01*
X410000Y20000D01*
X980000Y20000D01*
X1020000Y60000D01*
X1020000Y140000D01*
X160000Y70000D02*
X159200Y70000D01*
D22*
X1020000Y140000D03*
D21*
X95000Y305000D02*
X75000Y325000D01*
X95000Y305000D02*
X95000Y185000D01*
X195000Y185000D01*
X75000Y325000D02*
X75000Y326500D01*
D22*
X195000Y185000D03*
D21*
X285000Y400000D02*
X305000Y400000D01*
X285000Y400000D02*
X265000Y420000D01*
X261500Y420000D01*
D22*
X305000Y400000D03*
D21*
X365000Y110000D02*
X385000Y90000D01*
X390000Y90000D01*
X450000Y30000D01*
X625000Y30000D01*
X740000Y145000D01*
D22*
X365000Y110000D03*
X740000Y145000D03*
D21*
X840000Y410000D02*
X780000Y470000D01*
X840000Y410000D02*
X840000Y390000D01*
X920000Y390000D01*
X930000Y380000D01*
X930000Y275000D01*
X920000Y275000D01*
X900000Y255000D01*
X875000Y255000D01*
X775000Y155000D01*
X740000Y155000D01*
X620000Y35000D01*
X450000Y35000D01*
X315000Y170000D01*
X235000Y170000D01*
X185000Y220000D01*
X776900Y470000D02*
X780000Y470000D01*
X185000Y220000D02*
X184600Y220000D01*
X175000Y400000D02*
X190000Y415000D01*
X215000Y415000D01*
X235000Y435000D01*
X235000Y455000D01*
X275000Y455000D01*
X310000Y420000D01*
X312300Y420000D01*
X805000Y500000D02*
X855000Y550000D01*
X805000Y500000D02*
X385000Y500000D01*
X855000Y550000D02*
X855800Y553400D01*
D22*
X175000Y400000D03*
X385000Y500000D03*
D21*
X280000Y270000D02*
X175000Y270000D01*
X280000Y270000D02*
X295000Y285000D01*
X330000Y285000D01*
X335000Y290000D02*
X350000Y305000D01*
X335000Y290000D02*
X330000Y285000D01*
X350000Y305000D02*
X350000Y420000D01*
X337700Y420000D01*
X675000Y145000D02*
X680000Y150000D01*
X675000Y145000D02*
X485000Y145000D01*
X340000Y290000D01*
X335000Y290000D01*
D22*
X175000Y270000D03*
X680000Y150000D03*
D21*
X890000Y170000D02*
X900000Y180000D01*
X960000Y180000D01*
X965000Y185000D01*
X970000Y185000D01*
X890000Y170000D02*
X890000Y166500D01*
X970000Y185000D02*
X970000Y189200D01*
X745000Y410000D02*
X720000Y435000D01*
X745000Y410000D02*
X800000Y410000D01*
X805000Y405000D01*
X815000Y405000D01*
X720000Y435000D02*
X720000Y438100D01*
X815000Y405000D02*
X819300Y404100D01*
X900000Y410000D02*
X905000Y405000D01*
X900000Y410000D02*
X880000Y410000D01*
X875000Y405000D01*
X865000Y405000D01*
X905000Y405000D02*
X905500Y404100D01*
X865000Y405000D02*
X862400Y404100D01*
X910000Y405000D02*
X965000Y405000D01*
X965200Y403300D01*
X910000Y405000D02*
X905500Y404100D01*
X205000Y325000D02*
X170000Y290000D01*
X140000Y290000D01*
X120000Y270000D01*
X124300Y265200D01*
X205000Y325000D02*
X290000Y325000D01*
X295000Y330000D01*
X305000Y330000D01*
X327100Y307900D01*
X205000Y325000D02*
X205000Y326500D01*
X235000Y220000D02*
X235000Y175000D01*
X325000Y175000D01*
X385000Y115000D01*
X515000Y115000D01*
X550000Y80000D01*
X235400Y220000D02*
X235000Y220000D01*
X550000Y80000D02*
X549900Y77600D01*
D23*
X225000Y350000D02*
X205000Y350000D01*
X225000Y350000D02*
X245000Y370000D01*
X245000Y445000D01*
X265000Y445000D01*
X205000Y351900D02*
X205000Y350000D01*
D24*
X265000Y445000D03*
D23*
X205000Y430000D02*
X195000Y440000D01*
X190000Y440000D01*
X180000Y450000D01*
X180000Y505000D01*
X210000Y505000D01*
X235000Y530000D01*
X265000Y530000D01*
X205000Y430000D02*
X205000Y428100D01*
X265000Y530000D02*
X266700Y530700D01*
X845000Y100000D02*
X845000Y85000D01*
X845000Y100000D02*
X910000Y100000D01*
X915000Y105000D01*
X926500Y105000D01*
X845000Y85000D02*
X844800Y82200D01*
X220000Y495000D02*
X205000Y480000D01*
X220000Y495000D02*
X375000Y495000D01*
X390000Y480000D01*
X625000Y480000D01*
X205000Y480000D02*
X205000Y478900D01*
D24*
X625000Y480000D03*
D23*
X850000Y55000D02*
X845000Y50000D01*
X850000Y55000D02*
X920000Y55000D01*
X1050000Y185000D01*
X1050000Y190000D01*
X1055000Y190000D01*
X845000Y50000D02*
X844800Y47200D01*
X1055000Y190000D02*
X1056400Y192400D01*
X210000Y460000D02*
X205000Y455000D01*
X210000Y460000D02*
X220000Y460000D01*
X225000Y465000D01*
X670000Y465000D01*
X755000Y380000D01*
X785000Y380000D01*
X865000Y300000D01*
X880000Y300000D01*
X885000Y295000D01*
X890000Y295000D01*
X205000Y453500D02*
X205000Y455000D01*
X890000Y295000D02*
X890000Y293500D01*
D21*
X795000Y330000D02*
X760000Y295000D01*
X795000Y330000D02*
X800000Y330000D01*
X760000Y295000D02*
X760000Y293500D01*
D22*
X800000Y330000D03*
D21*
X780000Y290000D02*
X760000Y270000D01*
X780000Y290000D02*
X805000Y290000D01*
X760000Y270000D02*
X760000Y268100D01*
D22*
X805000Y290000D03*
D21*
X795000Y280000D02*
X760000Y245000D01*
X795000Y280000D02*
X900000Y280000D01*
X910000Y290000D01*
X910000Y375000D01*
X760000Y245000D02*
X760000Y242700D01*
X905500Y378700D02*
X910000Y375000D01*
X545000Y55000D02*
X505000Y95000D01*
X500700Y98100D01*
X545000Y55000D02*
X549900Y52200D01*
X395000Y135000D02*
X385000Y125000D01*
X395000Y135000D02*
X715000Y135000D01*
X745000Y165000D01*
X760000Y165000D01*
X760000Y166500D01*
D22*
X385000Y125000D03*
D21*
X285000Y70000D02*
X255000Y100000D01*
X45000Y100000D01*
X20000Y125000D01*
X20000Y470000D01*
X60000Y470000D01*
X65000Y475000D01*
X75000Y475000D01*
X285000Y70000D02*
X286200Y70000D01*
X75000Y475000D02*
X75000Y478900D01*
X75000Y375000D02*
X45000Y345000D01*
X45000Y105000D01*
X350000Y105000D01*
X385000Y70000D01*
X75000Y375000D02*
X75000Y377300D01*
X385000Y70000D02*
X387800Y70000D01*
X55000Y430000D02*
X75000Y450000D01*
X55000Y430000D02*
X55000Y390000D01*
X140000Y390000D01*
X190000Y340000D01*
X290000Y340000D01*
X300000Y350000D01*
X75000Y450000D02*
X75000Y453500D01*
X300000Y350000D02*
X301700Y351000D01*
X185000Y275000D02*
X175000Y285000D01*
X185000Y275000D02*
X270000Y275000D01*
X300000Y305000D01*
X301700Y307900D01*
D22*
X175000Y285000D03*
D21*
X155000Y400000D02*
X75000Y400000D01*
X155000Y400000D02*
X190000Y365000D01*
X220000Y365000D01*
X75000Y400000D02*
X75000Y402700D01*
D22*
X220000Y365000D03*
D21*
X390000Y220000D02*
X470000Y140000D01*
X680000Y140000D01*
X755000Y215000D01*
X760000Y215000D01*
X390000Y220000D02*
X387800Y220000D01*
X760000Y217300D02*
X760000Y215000D01*
X290000Y240000D02*
X145000Y240000D01*
X290000Y240000D02*
X310000Y220000D01*
X311600Y220000D01*
D22*
X145000Y240000D03*
D21*
X995000Y50000D02*
X995000Y40000D01*
X975000Y40000D01*
X960000Y25000D01*
X410000Y25000D01*
X365000Y70000D01*
X993300Y53100D02*
X995000Y50000D01*
X365000Y70000D02*
X362400Y70000D01*
D23*
X890000Y245000D02*
X915000Y245000D01*
X950000Y280000D01*
X950000Y375000D01*
X1045000Y375000D01*
X1060000Y390000D01*
X1060000Y460000D01*
X1010000Y460000D01*
X990000Y480000D01*
X990000Y485000D01*
X890000Y245000D02*
X890000Y242700D01*
X990000Y485000D02*
X990600Y487200D01*
X895000Y200000D02*
X890000Y195000D01*
X895000Y200000D02*
X905000Y200000D01*
X995000Y290000D01*
X995000Y360000D01*
X1055000Y360000D01*
X1075000Y380000D01*
X1075000Y485000D01*
X1045000Y485000D01*
X890000Y195000D02*
X890000Y191900D01*
X1045000Y485000D02*
X1041400Y487200D01*
D21*
X1055000Y300000D02*
X1010000Y300000D01*
X1055000Y300000D02*
X1056400Y299000D01*
D22*
X1010000Y300000D03*
D21*
X145000Y255000D02*
X110000Y220000D01*
X145000Y255000D02*
X145000Y265000D01*
X110000Y220000D02*
X108400Y220000D01*
X145000Y265000D02*
X149700Y265200D01*
X260000Y220000D02*
X260000Y200000D01*
X395000Y200000D01*
X260800Y220000D02*
X260000Y220000D01*
X860000Y575000D02*
X880000Y555000D01*
X860000Y575000D02*
X610000Y575000D01*
X555000Y520000D01*
X550000Y520000D01*
X880000Y555000D02*
X881200Y553400D01*
X550000Y520000D02*
X550000Y517300D01*
D22*
X395000Y200000D03*
D21*
X853100Y470000D02*
X890000Y470000D01*
X895000Y465000D01*
X897700Y465000D01*
X725000Y355000D02*
X720000Y360000D01*
X725000Y355000D02*
X750000Y355000D01*
X755000Y360000D01*
X760000Y360000D01*
X720000Y360000D02*
X720000Y361900D01*
X760000Y361900D02*
X760000Y360000D01*
M02*
