G04 EAGLE Gerber RS-274X export*
G75*
%MOMM*%
%FSLAX34Y34*%
%LPD*%
%IN*%
%IPPOS*%
%AMOC8*
5,1,8,0,0,1.08239X$1,22.5*%
G01*
%ADD10C,0.254000*%


D10*
X0Y25000D02*
X95Y22821D01*
X380Y20659D01*
X852Y18530D01*
X1508Y16450D01*
X2342Y14435D01*
X3349Y12500D01*
X4521Y10661D01*
X5849Y8930D01*
X7322Y7322D01*
X8930Y5849D01*
X10661Y4521D01*
X12500Y3349D01*
X14435Y2342D01*
X16450Y1508D01*
X18530Y852D01*
X20659Y380D01*
X22821Y95D01*
X25000Y0D01*
X1075000Y0D01*
X1077179Y95D01*
X1079341Y380D01*
X1081470Y852D01*
X1083551Y1508D01*
X1085565Y2342D01*
X1087500Y3349D01*
X1089339Y4521D01*
X1091070Y5849D01*
X1092678Y7322D01*
X1094151Y8930D01*
X1095479Y10661D01*
X1096651Y12500D01*
X1097658Y14435D01*
X1098492Y16450D01*
X1099148Y18530D01*
X1099620Y20659D01*
X1099905Y22821D01*
X1100000Y25000D01*
X1100000Y570000D01*
X1099905Y572179D01*
X1099620Y574341D01*
X1099148Y576470D01*
X1098492Y578551D01*
X1097658Y580565D01*
X1096651Y582500D01*
X1095479Y584339D01*
X1094151Y586070D01*
X1092678Y587678D01*
X1091070Y589151D01*
X1089339Y590479D01*
X1087500Y591651D01*
X1085565Y592658D01*
X1083551Y593492D01*
X1081470Y594148D01*
X1079341Y594620D01*
X1077179Y594905D01*
X1075000Y595000D01*
X25000Y595000D01*
X22821Y594905D01*
X20659Y594620D01*
X18530Y594148D01*
X16450Y593492D01*
X14435Y592658D01*
X12500Y591651D01*
X10661Y590479D01*
X8930Y589151D01*
X7322Y587678D01*
X5849Y586070D01*
X4521Y584339D01*
X3349Y582500D01*
X2342Y580565D01*
X1508Y578551D01*
X852Y576470D01*
X380Y574341D01*
X95Y572179D01*
X0Y570000D01*
X0Y25000D01*
X691510Y298263D02*
X691510Y301737D01*
X691424Y305209D01*
X691254Y308678D01*
X690999Y312142D01*
X690658Y315599D01*
X690233Y319046D01*
X689723Y322482D01*
X689129Y325904D01*
X688452Y329310D01*
X687691Y332699D01*
X686847Y336069D01*
X685920Y339416D01*
X684912Y342740D01*
X683823Y346038D01*
X682653Y349308D01*
X681403Y352549D01*
X680073Y355758D01*
X678666Y358933D01*
X677181Y362073D01*
X675619Y365176D01*
X673982Y368239D01*
X672270Y371261D01*
X670484Y374240D01*
X668626Y377175D01*
X666696Y380063D01*
X664696Y382902D01*
X662627Y385692D01*
X660490Y388430D01*
X658287Y391115D01*
X656018Y393745D01*
X653685Y396319D01*
X651290Y398834D01*
X648834Y401290D01*
X646319Y403685D01*
X643745Y406018D01*
X641115Y408287D01*
X638430Y410490D01*
X635692Y412627D01*
X632902Y414696D01*
X630063Y416696D01*
X627175Y418626D01*
X624240Y420484D01*
X621261Y422270D01*
X618239Y423982D01*
X615176Y425619D01*
X612073Y427181D01*
X608933Y428666D01*
X605758Y430073D01*
X602549Y431403D01*
X599308Y432653D01*
X596038Y433823D01*
X592740Y434912D01*
X589416Y435920D01*
X586069Y436847D01*
X582699Y437691D01*
X579310Y438452D01*
X575904Y439129D01*
X572482Y439723D01*
X569046Y440233D01*
X565599Y440658D01*
X562142Y440999D01*
X558678Y441254D01*
X555209Y441424D01*
X551737Y441510D01*
X548263Y441510D01*
X544791Y441424D01*
X541322Y441254D01*
X537858Y440999D01*
X534401Y440658D01*
X530954Y440233D01*
X527518Y439723D01*
X524096Y439129D01*
X520690Y438452D01*
X517301Y437691D01*
X513931Y436847D01*
X510584Y435920D01*
X507260Y434912D01*
X503962Y433823D01*
X500692Y432653D01*
X497451Y431403D01*
X494242Y430073D01*
X491067Y428666D01*
X487927Y427181D01*
X484824Y425619D01*
X481761Y423982D01*
X478739Y422270D01*
X475760Y420484D01*
X472825Y418626D01*
X469937Y416696D01*
X467098Y414696D01*
X464308Y412627D01*
X461570Y410490D01*
X458885Y408287D01*
X456255Y406018D01*
X453681Y403685D01*
X451166Y401290D01*
X448710Y398834D01*
X446315Y396319D01*
X443982Y393745D01*
X441713Y391115D01*
X439510Y388430D01*
X437373Y385692D01*
X435304Y382902D01*
X433304Y380063D01*
X431374Y377175D01*
X429516Y374240D01*
X427730Y371261D01*
X426018Y368239D01*
X424381Y365176D01*
X422819Y362073D01*
X421334Y358933D01*
X419927Y355758D01*
X418598Y352549D01*
X417347Y349308D01*
X416177Y346038D01*
X415088Y342740D01*
X414080Y339416D01*
X413153Y336069D01*
X412309Y332699D01*
X411548Y329310D01*
X410871Y325904D01*
X410277Y322482D01*
X409767Y319046D01*
X409342Y315599D01*
X409002Y312142D01*
X408746Y308678D01*
X408576Y305209D01*
X408490Y301737D01*
X408490Y298263D01*
X408576Y294791D01*
X408746Y291322D01*
X409002Y287858D01*
X409342Y284401D01*
X409767Y280954D01*
X410277Y277518D01*
X410871Y274096D01*
X411548Y270690D01*
X412309Y267301D01*
X413153Y263931D01*
X414080Y260584D01*
X415088Y257260D01*
X416177Y253962D01*
X417347Y250692D01*
X418598Y247451D01*
X419927Y244242D01*
X421334Y241067D01*
X422819Y237927D01*
X424381Y234824D01*
X426018Y231761D01*
X427730Y228739D01*
X429516Y225760D01*
X431374Y222825D01*
X433304Y219937D01*
X435304Y217098D01*
X437373Y214308D01*
X439510Y211570D01*
X441713Y208885D01*
X443982Y206255D01*
X446315Y203681D01*
X448710Y201166D01*
X451166Y198710D01*
X453681Y196315D01*
X456255Y193982D01*
X458885Y191713D01*
X461570Y189510D01*
X464308Y187373D01*
X467098Y185304D01*
X469937Y183304D01*
X472825Y181374D01*
X475760Y179516D01*
X478739Y177730D01*
X481761Y176018D01*
X484824Y174381D01*
X487927Y172819D01*
X491067Y171334D01*
X494242Y169927D01*
X497451Y168598D01*
X500692Y167347D01*
X503962Y166177D01*
X507260Y165088D01*
X510584Y164080D01*
X513931Y163153D01*
X517301Y162309D01*
X520690Y161548D01*
X524096Y160871D01*
X527518Y160277D01*
X530954Y159767D01*
X534401Y159342D01*
X537858Y159002D01*
X541322Y158746D01*
X544791Y158576D01*
X548263Y158490D01*
X551737Y158490D01*
X555209Y158576D01*
X558678Y158746D01*
X562142Y159002D01*
X565599Y159342D01*
X569046Y159767D01*
X572482Y160277D01*
X575904Y160871D01*
X579310Y161548D01*
X582699Y162309D01*
X586069Y163153D01*
X589416Y164080D01*
X592740Y165088D01*
X596038Y166177D01*
X599308Y167347D01*
X602549Y168598D01*
X605758Y169927D01*
X608933Y171334D01*
X612073Y172819D01*
X615176Y174381D01*
X618239Y176018D01*
X621261Y177730D01*
X624240Y179516D01*
X627175Y181374D01*
X630063Y183304D01*
X632902Y185304D01*
X635692Y187373D01*
X638430Y189510D01*
X641115Y191713D01*
X643745Y193982D01*
X646319Y196315D01*
X648834Y198710D01*
X651290Y201166D01*
X653685Y203681D01*
X656018Y206255D01*
X658287Y208885D01*
X660490Y211570D01*
X662627Y214308D01*
X664696Y217098D01*
X666696Y219937D01*
X668626Y222825D01*
X670484Y225760D01*
X672270Y228739D01*
X673982Y231761D01*
X675619Y234824D01*
X677181Y237927D01*
X678666Y241067D01*
X680073Y244242D01*
X681403Y247451D01*
X682653Y250692D01*
X683823Y253962D01*
X684912Y257260D01*
X685920Y260584D01*
X686847Y263931D01*
X687691Y267301D01*
X688452Y270690D01*
X689129Y274096D01*
X689723Y277518D01*
X690233Y280954D01*
X690658Y284401D01*
X690999Y287858D01*
X691254Y291322D01*
X691424Y294791D01*
X691510Y298263D01*
X1085000Y564464D02*
X1084924Y563396D01*
X1084771Y562335D01*
X1084543Y561288D01*
X1084241Y560260D01*
X1083867Y559256D01*
X1083422Y558281D01*
X1082908Y557341D01*
X1082329Y556440D01*
X1081687Y555582D01*
X1080985Y554772D01*
X1080228Y554015D01*
X1079418Y553313D01*
X1078560Y552671D01*
X1077659Y552092D01*
X1076719Y551578D01*
X1075744Y551133D01*
X1074740Y550759D01*
X1073712Y550457D01*
X1072665Y550229D01*
X1071604Y550076D01*
X1070536Y550000D01*
X1069464Y550000D01*
X1068396Y550076D01*
X1067335Y550229D01*
X1066288Y550457D01*
X1065260Y550759D01*
X1064256Y551133D01*
X1063281Y551578D01*
X1062341Y552092D01*
X1061440Y552671D01*
X1060582Y553313D01*
X1059772Y554015D01*
X1059015Y554772D01*
X1058313Y555582D01*
X1057671Y556440D01*
X1057092Y557341D01*
X1056578Y558281D01*
X1056133Y559256D01*
X1055759Y560260D01*
X1055457Y561288D01*
X1055229Y562335D01*
X1055076Y563396D01*
X1055000Y564464D01*
X1055000Y565536D01*
X1055076Y566604D01*
X1055229Y567665D01*
X1055457Y568712D01*
X1055759Y569740D01*
X1056133Y570744D01*
X1056578Y571719D01*
X1057092Y572659D01*
X1057671Y573560D01*
X1058313Y574418D01*
X1059015Y575228D01*
X1059772Y575985D01*
X1060582Y576687D01*
X1061440Y577329D01*
X1062341Y577908D01*
X1063281Y578422D01*
X1064256Y578867D01*
X1065260Y579241D01*
X1066288Y579543D01*
X1067335Y579771D01*
X1068396Y579924D01*
X1069464Y580000D01*
X1070536Y580000D01*
X1071604Y579924D01*
X1072665Y579771D01*
X1073712Y579543D01*
X1074740Y579241D01*
X1075744Y578867D01*
X1076719Y578422D01*
X1077659Y577908D01*
X1078560Y577329D01*
X1079418Y576687D01*
X1080228Y575985D01*
X1080985Y575228D01*
X1081687Y574418D01*
X1082329Y573560D01*
X1082908Y572659D01*
X1083422Y571719D01*
X1083867Y570744D01*
X1084241Y569740D01*
X1084543Y568712D01*
X1084771Y567665D01*
X1084924Y566604D01*
X1085000Y565536D01*
X1085000Y564464D01*
X1085000Y29464D02*
X1084924Y28396D01*
X1084771Y27335D01*
X1084543Y26288D01*
X1084241Y25260D01*
X1083867Y24256D01*
X1083422Y23281D01*
X1082908Y22341D01*
X1082329Y21440D01*
X1081687Y20582D01*
X1080985Y19772D01*
X1080228Y19015D01*
X1079418Y18313D01*
X1078560Y17671D01*
X1077659Y17092D01*
X1076719Y16578D01*
X1075744Y16133D01*
X1074740Y15759D01*
X1073712Y15457D01*
X1072665Y15229D01*
X1071604Y15076D01*
X1070536Y15000D01*
X1069464Y15000D01*
X1068396Y15076D01*
X1067335Y15229D01*
X1066288Y15457D01*
X1065260Y15759D01*
X1064256Y16133D01*
X1063281Y16578D01*
X1062341Y17092D01*
X1061440Y17671D01*
X1060582Y18313D01*
X1059772Y19015D01*
X1059015Y19772D01*
X1058313Y20582D01*
X1057671Y21440D01*
X1057092Y22341D01*
X1056578Y23281D01*
X1056133Y24256D01*
X1055759Y25260D01*
X1055457Y26288D01*
X1055229Y27335D01*
X1055076Y28396D01*
X1055000Y29464D01*
X1055000Y30536D01*
X1055076Y31604D01*
X1055229Y32665D01*
X1055457Y33712D01*
X1055759Y34740D01*
X1056133Y35744D01*
X1056578Y36719D01*
X1057092Y37659D01*
X1057671Y38560D01*
X1058313Y39418D01*
X1059015Y40228D01*
X1059772Y40985D01*
X1060582Y41687D01*
X1061440Y42329D01*
X1062341Y42908D01*
X1063281Y43422D01*
X1064256Y43867D01*
X1065260Y44241D01*
X1066288Y44543D01*
X1067335Y44771D01*
X1068396Y44924D01*
X1069464Y45000D01*
X1070536Y45000D01*
X1071604Y44924D01*
X1072665Y44771D01*
X1073712Y44543D01*
X1074740Y44241D01*
X1075744Y43867D01*
X1076719Y43422D01*
X1077659Y42908D01*
X1078560Y42329D01*
X1079418Y41687D01*
X1080228Y40985D01*
X1080985Y40228D01*
X1081687Y39418D01*
X1082329Y38560D01*
X1082908Y37659D01*
X1083422Y36719D01*
X1083867Y35744D01*
X1084241Y34740D01*
X1084543Y33712D01*
X1084771Y32665D01*
X1084924Y31604D01*
X1085000Y30536D01*
X1085000Y29464D01*
X45000Y29464D02*
X44924Y28396D01*
X44771Y27335D01*
X44543Y26288D01*
X44241Y25260D01*
X43867Y24256D01*
X43422Y23281D01*
X42908Y22341D01*
X42329Y21440D01*
X41687Y20582D01*
X40985Y19772D01*
X40228Y19015D01*
X39418Y18313D01*
X38560Y17671D01*
X37659Y17092D01*
X36719Y16578D01*
X35744Y16133D01*
X34740Y15759D01*
X33712Y15457D01*
X32665Y15229D01*
X31604Y15076D01*
X30536Y15000D01*
X29464Y15000D01*
X28396Y15076D01*
X27335Y15229D01*
X26288Y15457D01*
X25260Y15759D01*
X24256Y16133D01*
X23281Y16578D01*
X22341Y17092D01*
X21440Y17671D01*
X20582Y18313D01*
X19772Y19015D01*
X19015Y19772D01*
X18313Y20582D01*
X17671Y21440D01*
X17092Y22341D01*
X16578Y23281D01*
X16133Y24256D01*
X15759Y25260D01*
X15457Y26288D01*
X15229Y27335D01*
X15076Y28396D01*
X15000Y29464D01*
X15000Y30536D01*
X15076Y31604D01*
X15229Y32665D01*
X15457Y33712D01*
X15759Y34740D01*
X16133Y35744D01*
X16578Y36719D01*
X17092Y37659D01*
X17671Y38560D01*
X18313Y39418D01*
X19015Y40228D01*
X19772Y40985D01*
X20582Y41687D01*
X21440Y42329D01*
X22341Y42908D01*
X23281Y43422D01*
X24256Y43867D01*
X25260Y44241D01*
X26288Y44543D01*
X27335Y44771D01*
X28396Y44924D01*
X29464Y45000D01*
X30536Y45000D01*
X31604Y44924D01*
X32665Y44771D01*
X33712Y44543D01*
X34740Y44241D01*
X35744Y43867D01*
X36719Y43422D01*
X37659Y42908D01*
X38560Y42329D01*
X39418Y41687D01*
X40228Y40985D01*
X40985Y40228D01*
X41687Y39418D01*
X42329Y38560D01*
X42908Y37659D01*
X43422Y36719D01*
X43867Y35744D01*
X44241Y34740D01*
X44543Y33712D01*
X44771Y32665D01*
X44924Y31604D01*
X45000Y30536D01*
X45000Y29464D01*
X45000Y564464D02*
X44924Y563396D01*
X44771Y562335D01*
X44543Y561288D01*
X44241Y560260D01*
X43867Y559256D01*
X43422Y558281D01*
X42908Y557341D01*
X42329Y556440D01*
X41687Y555582D01*
X40985Y554772D01*
X40228Y554015D01*
X39418Y553313D01*
X38560Y552671D01*
X37659Y552092D01*
X36719Y551578D01*
X35744Y551133D01*
X34740Y550759D01*
X33712Y550457D01*
X32665Y550229D01*
X31604Y550076D01*
X30536Y550000D01*
X29464Y550000D01*
X28396Y550076D01*
X27335Y550229D01*
X26288Y550457D01*
X25260Y550759D01*
X24256Y551133D01*
X23281Y551578D01*
X22341Y552092D01*
X21440Y552671D01*
X20582Y553313D01*
X19772Y554015D01*
X19015Y554772D01*
X18313Y555582D01*
X17671Y556440D01*
X17092Y557341D01*
X16578Y558281D01*
X16133Y559256D01*
X15759Y560260D01*
X15457Y561288D01*
X15229Y562335D01*
X15076Y563396D01*
X15000Y564464D01*
X15000Y565536D01*
X15076Y566604D01*
X15229Y567665D01*
X15457Y568712D01*
X15759Y569740D01*
X16133Y570744D01*
X16578Y571719D01*
X17092Y572659D01*
X17671Y573560D01*
X18313Y574418D01*
X19015Y575228D01*
X19772Y575985D01*
X20582Y576687D01*
X21440Y577329D01*
X22341Y577908D01*
X23281Y578422D01*
X24256Y578867D01*
X25260Y579241D01*
X26288Y579543D01*
X27335Y579771D01*
X28396Y579924D01*
X29464Y580000D01*
X30536Y580000D01*
X31604Y579924D01*
X32665Y579771D01*
X33712Y579543D01*
X34740Y579241D01*
X35744Y578867D01*
X36719Y578422D01*
X37659Y577908D01*
X38560Y577329D01*
X39418Y576687D01*
X40228Y575985D01*
X40985Y575228D01*
X41687Y574418D01*
X42329Y573560D01*
X42908Y572659D01*
X43422Y571719D01*
X43867Y570744D01*
X44241Y569740D01*
X44543Y568712D01*
X44771Y567665D01*
X44924Y566604D01*
X45000Y565536D01*
X45000Y564464D01*
M02*
