G04 EAGLE Gerber RS-274X export*
G75*
%MOMM*%
%FSLAX34Y34*%
%LPD*%
%INSilkscreen Bottom*%
%IPPOS*%
%AMOC8*
5,1,8,0,0,1.08239X$1,22.5*%
G01*
%ADD10C,0.152400*%


D10*
X257827Y135762D02*
X257827Y152018D01*
X253311Y152018D01*
X253178Y152016D01*
X253046Y152010D01*
X252914Y152000D01*
X252782Y151987D01*
X252650Y151969D01*
X252520Y151948D01*
X252389Y151923D01*
X252260Y151894D01*
X252132Y151861D01*
X252004Y151825D01*
X251878Y151785D01*
X251753Y151741D01*
X251629Y151693D01*
X251507Y151642D01*
X251386Y151587D01*
X251267Y151529D01*
X251149Y151467D01*
X251034Y151402D01*
X250920Y151333D01*
X250809Y151262D01*
X250700Y151186D01*
X250593Y151108D01*
X250488Y151027D01*
X250386Y150942D01*
X250286Y150855D01*
X250189Y150765D01*
X250094Y150672D01*
X250003Y150576D01*
X249914Y150478D01*
X249828Y150377D01*
X249745Y150273D01*
X249665Y150167D01*
X249589Y150059D01*
X249515Y149949D01*
X249445Y149836D01*
X249378Y149722D01*
X249315Y149605D01*
X249255Y149487D01*
X249198Y149367D01*
X249145Y149245D01*
X249096Y149122D01*
X249050Y148998D01*
X249008Y148872D01*
X248970Y148745D01*
X248935Y148617D01*
X248904Y148488D01*
X248877Y148359D01*
X248854Y148228D01*
X248834Y148097D01*
X248819Y147965D01*
X248807Y147833D01*
X248799Y147701D01*
X248795Y147568D01*
X248795Y147436D01*
X248799Y147303D01*
X248807Y147171D01*
X248819Y147039D01*
X248834Y146907D01*
X248854Y146776D01*
X248877Y146645D01*
X248904Y146516D01*
X248935Y146387D01*
X248970Y146259D01*
X249008Y146132D01*
X249050Y146006D01*
X249096Y145882D01*
X249145Y145759D01*
X249198Y145637D01*
X249255Y145517D01*
X249315Y145399D01*
X249378Y145282D01*
X249445Y145168D01*
X249515Y145055D01*
X249589Y144945D01*
X249665Y144837D01*
X249745Y144731D01*
X249828Y144627D01*
X249914Y144526D01*
X250003Y144428D01*
X250094Y144332D01*
X250189Y144239D01*
X250286Y144149D01*
X250386Y144062D01*
X250488Y143977D01*
X250593Y143896D01*
X250700Y143818D01*
X250809Y143742D01*
X250920Y143671D01*
X251034Y143602D01*
X251149Y143537D01*
X251267Y143475D01*
X251386Y143417D01*
X251507Y143362D01*
X251629Y143311D01*
X251753Y143263D01*
X251878Y143219D01*
X252004Y143179D01*
X252132Y143143D01*
X252260Y143110D01*
X252389Y143081D01*
X252520Y143056D01*
X252650Y143035D01*
X252782Y143017D01*
X252914Y143004D01*
X253046Y142994D01*
X253178Y142988D01*
X253311Y142986D01*
X253311Y142987D02*
X257827Y142987D01*
X239354Y135762D02*
X235742Y135762D01*
X239354Y135762D02*
X239472Y135764D01*
X239590Y135770D01*
X239708Y135779D01*
X239825Y135793D01*
X239942Y135810D01*
X240059Y135831D01*
X240174Y135856D01*
X240289Y135885D01*
X240403Y135918D01*
X240515Y135954D01*
X240626Y135994D01*
X240736Y136037D01*
X240845Y136084D01*
X240952Y136134D01*
X241057Y136189D01*
X241160Y136246D01*
X241261Y136307D01*
X241361Y136371D01*
X241458Y136438D01*
X241553Y136508D01*
X241645Y136582D01*
X241736Y136658D01*
X241823Y136738D01*
X241908Y136820D01*
X241990Y136905D01*
X242070Y136992D01*
X242146Y137083D01*
X242220Y137175D01*
X242290Y137270D01*
X242357Y137367D01*
X242421Y137467D01*
X242482Y137568D01*
X242539Y137671D01*
X242594Y137776D01*
X242644Y137883D01*
X242691Y137992D01*
X242734Y138102D01*
X242774Y138213D01*
X242810Y138325D01*
X242843Y138439D01*
X242872Y138554D01*
X242897Y138669D01*
X242918Y138786D01*
X242935Y138903D01*
X242949Y139020D01*
X242958Y139138D01*
X242964Y139256D01*
X242966Y139374D01*
X242967Y139374D02*
X242967Y148406D01*
X242966Y148406D02*
X242964Y148524D01*
X242958Y148642D01*
X242949Y148760D01*
X242935Y148877D01*
X242918Y148994D01*
X242897Y149111D01*
X242872Y149226D01*
X242843Y149341D01*
X242810Y149455D01*
X242774Y149567D01*
X242734Y149678D01*
X242691Y149788D01*
X242644Y149897D01*
X242594Y150004D01*
X242539Y150109D01*
X242482Y150212D01*
X242421Y150313D01*
X242357Y150413D01*
X242290Y150510D01*
X242220Y150605D01*
X242146Y150697D01*
X242070Y150788D01*
X241990Y150875D01*
X241908Y150960D01*
X241823Y151042D01*
X241736Y151122D01*
X241645Y151198D01*
X241553Y151272D01*
X241458Y151342D01*
X241361Y151409D01*
X241261Y151473D01*
X241160Y151534D01*
X241057Y151591D01*
X240952Y151646D01*
X240845Y151696D01*
X240736Y151743D01*
X240626Y151786D01*
X240515Y151826D01*
X240403Y151862D01*
X240289Y151895D01*
X240174Y151924D01*
X240059Y151949D01*
X239942Y151970D01*
X239825Y151987D01*
X239708Y152001D01*
X239590Y152010D01*
X239472Y152016D01*
X239354Y152018D01*
X235742Y152018D01*
X229169Y144793D02*
X224654Y144793D01*
X224654Y144794D02*
X224521Y144792D01*
X224389Y144786D01*
X224257Y144776D01*
X224125Y144763D01*
X223993Y144745D01*
X223863Y144724D01*
X223732Y144699D01*
X223603Y144670D01*
X223475Y144637D01*
X223347Y144601D01*
X223221Y144561D01*
X223096Y144517D01*
X222972Y144469D01*
X222850Y144418D01*
X222729Y144363D01*
X222610Y144305D01*
X222492Y144243D01*
X222377Y144178D01*
X222263Y144109D01*
X222152Y144038D01*
X222043Y143962D01*
X221936Y143884D01*
X221831Y143803D01*
X221729Y143718D01*
X221629Y143631D01*
X221532Y143541D01*
X221437Y143448D01*
X221346Y143352D01*
X221257Y143254D01*
X221171Y143153D01*
X221088Y143049D01*
X221008Y142943D01*
X220932Y142835D01*
X220858Y142725D01*
X220788Y142612D01*
X220721Y142498D01*
X220658Y142381D01*
X220598Y142263D01*
X220541Y142143D01*
X220488Y142021D01*
X220439Y141898D01*
X220393Y141774D01*
X220351Y141648D01*
X220313Y141521D01*
X220278Y141393D01*
X220247Y141264D01*
X220220Y141135D01*
X220197Y141004D01*
X220177Y140873D01*
X220162Y140741D01*
X220150Y140609D01*
X220142Y140477D01*
X220138Y140344D01*
X220138Y140212D01*
X220142Y140079D01*
X220150Y139947D01*
X220162Y139815D01*
X220177Y139683D01*
X220197Y139552D01*
X220220Y139421D01*
X220247Y139292D01*
X220278Y139163D01*
X220313Y139035D01*
X220351Y138908D01*
X220393Y138782D01*
X220439Y138658D01*
X220488Y138535D01*
X220541Y138413D01*
X220598Y138293D01*
X220658Y138175D01*
X220721Y138058D01*
X220788Y137944D01*
X220858Y137831D01*
X220932Y137721D01*
X221008Y137613D01*
X221088Y137507D01*
X221171Y137403D01*
X221257Y137302D01*
X221346Y137204D01*
X221437Y137108D01*
X221532Y137015D01*
X221629Y136925D01*
X221729Y136838D01*
X221831Y136753D01*
X221936Y136672D01*
X222043Y136594D01*
X222152Y136518D01*
X222263Y136447D01*
X222377Y136378D01*
X222492Y136313D01*
X222610Y136251D01*
X222729Y136193D01*
X222850Y136138D01*
X222972Y136087D01*
X223096Y136039D01*
X223221Y135995D01*
X223347Y135955D01*
X223475Y135919D01*
X223603Y135886D01*
X223732Y135857D01*
X223863Y135832D01*
X223993Y135811D01*
X224125Y135793D01*
X224257Y135780D01*
X224389Y135770D01*
X224521Y135764D01*
X224654Y135762D01*
X229169Y135762D01*
X229169Y152018D01*
X224654Y152018D01*
X224535Y152016D01*
X224415Y152010D01*
X224296Y152000D01*
X224178Y151986D01*
X224059Y151969D01*
X223942Y151947D01*
X223825Y151922D01*
X223710Y151892D01*
X223595Y151859D01*
X223481Y151822D01*
X223369Y151782D01*
X223258Y151737D01*
X223149Y151689D01*
X223041Y151638D01*
X222935Y151583D01*
X222831Y151524D01*
X222729Y151462D01*
X222629Y151397D01*
X222531Y151328D01*
X222435Y151256D01*
X222342Y151181D01*
X222252Y151104D01*
X222164Y151023D01*
X222079Y150939D01*
X221997Y150852D01*
X221917Y150763D01*
X221841Y150671D01*
X221767Y150577D01*
X221697Y150480D01*
X221630Y150382D01*
X221566Y150281D01*
X221506Y150177D01*
X221449Y150072D01*
X221396Y149965D01*
X221346Y149857D01*
X221300Y149747D01*
X221258Y149635D01*
X221219Y149522D01*
X221184Y149408D01*
X221153Y149293D01*
X221125Y149176D01*
X221102Y149059D01*
X221082Y148942D01*
X221066Y148823D01*
X221054Y148704D01*
X221046Y148585D01*
X221042Y148466D01*
X221042Y148346D01*
X221046Y148227D01*
X221054Y148108D01*
X221066Y147989D01*
X221082Y147870D01*
X221102Y147753D01*
X221125Y147636D01*
X221153Y147519D01*
X221184Y147404D01*
X221219Y147290D01*
X221258Y147177D01*
X221300Y147065D01*
X221346Y146955D01*
X221396Y146847D01*
X221449Y146740D01*
X221506Y146635D01*
X221566Y146531D01*
X221630Y146430D01*
X221697Y146332D01*
X221767Y146235D01*
X221841Y146141D01*
X221917Y146049D01*
X221997Y145960D01*
X222079Y145873D01*
X222164Y145789D01*
X222252Y145708D01*
X222342Y145631D01*
X222435Y145556D01*
X222531Y145484D01*
X222629Y145415D01*
X222729Y145350D01*
X222831Y145288D01*
X222935Y145229D01*
X223041Y145174D01*
X223149Y145123D01*
X223258Y145075D01*
X223369Y145030D01*
X223481Y144990D01*
X223595Y144953D01*
X223710Y144920D01*
X223825Y144890D01*
X223942Y144865D01*
X224059Y144843D01*
X224178Y144826D01*
X224296Y144812D01*
X224415Y144802D01*
X224535Y144796D01*
X224654Y144794D01*
X205478Y152018D02*
X205478Y135762D01*
X200963Y135762D01*
X200859Y135764D01*
X200756Y135770D01*
X200652Y135780D01*
X200549Y135794D01*
X200447Y135812D01*
X200346Y135833D01*
X200245Y135859D01*
X200146Y135888D01*
X200047Y135921D01*
X199950Y135958D01*
X199855Y135999D01*
X199761Y136043D01*
X199669Y136091D01*
X199579Y136142D01*
X199490Y136197D01*
X199404Y136255D01*
X199321Y136317D01*
X199239Y136381D01*
X199161Y136449D01*
X199085Y136519D01*
X199011Y136592D01*
X198941Y136669D01*
X198873Y136747D01*
X198809Y136829D01*
X198747Y136912D01*
X198689Y136998D01*
X198634Y137087D01*
X198583Y137177D01*
X198535Y137269D01*
X198491Y137363D01*
X198450Y137458D01*
X198413Y137555D01*
X198380Y137654D01*
X198351Y137753D01*
X198325Y137854D01*
X198304Y137955D01*
X198286Y138057D01*
X198272Y138160D01*
X198262Y138264D01*
X198256Y138367D01*
X198254Y138471D01*
X198253Y138471D02*
X198253Y143890D01*
X198254Y143890D02*
X198256Y143991D01*
X198262Y144092D01*
X198271Y144193D01*
X198284Y144294D01*
X198301Y144394D01*
X198322Y144493D01*
X198346Y144591D01*
X198374Y144688D01*
X198406Y144785D01*
X198441Y144880D01*
X198480Y144973D01*
X198522Y145065D01*
X198568Y145156D01*
X198617Y145245D01*
X198669Y145331D01*
X198725Y145416D01*
X198783Y145499D01*
X198845Y145579D01*
X198910Y145657D01*
X198977Y145733D01*
X199047Y145806D01*
X199120Y145876D01*
X199196Y145943D01*
X199274Y146008D01*
X199354Y146070D01*
X199437Y146128D01*
X199522Y146184D01*
X199609Y146236D01*
X199697Y146285D01*
X199788Y146331D01*
X199880Y146373D01*
X199973Y146412D01*
X200068Y146447D01*
X200165Y146479D01*
X200262Y146507D01*
X200360Y146531D01*
X200459Y146552D01*
X200559Y146569D01*
X200660Y146582D01*
X200761Y146591D01*
X200862Y146597D01*
X200963Y146599D01*
X205478Y146599D01*
X192525Y130343D02*
X190719Y130343D01*
X185301Y146599D01*
X192525Y146599D02*
X188913Y135762D01*
X170411Y135762D02*
X170411Y152018D01*
X165896Y152018D01*
X165763Y152016D01*
X165631Y152010D01*
X165499Y152000D01*
X165367Y151987D01*
X165235Y151969D01*
X165105Y151948D01*
X164974Y151923D01*
X164845Y151894D01*
X164717Y151861D01*
X164589Y151825D01*
X164463Y151785D01*
X164338Y151741D01*
X164214Y151693D01*
X164092Y151642D01*
X163971Y151587D01*
X163852Y151529D01*
X163734Y151467D01*
X163619Y151402D01*
X163505Y151333D01*
X163394Y151262D01*
X163285Y151186D01*
X163178Y151108D01*
X163073Y151027D01*
X162971Y150942D01*
X162871Y150855D01*
X162774Y150765D01*
X162679Y150672D01*
X162588Y150576D01*
X162499Y150478D01*
X162413Y150377D01*
X162330Y150273D01*
X162250Y150167D01*
X162174Y150059D01*
X162100Y149949D01*
X162030Y149836D01*
X161963Y149722D01*
X161900Y149605D01*
X161840Y149487D01*
X161783Y149367D01*
X161730Y149245D01*
X161681Y149122D01*
X161635Y148998D01*
X161593Y148872D01*
X161555Y148745D01*
X161520Y148617D01*
X161489Y148488D01*
X161462Y148359D01*
X161439Y148228D01*
X161419Y148097D01*
X161404Y147965D01*
X161392Y147833D01*
X161384Y147701D01*
X161380Y147568D01*
X161380Y147436D01*
X161384Y147303D01*
X161392Y147171D01*
X161404Y147039D01*
X161419Y146907D01*
X161439Y146776D01*
X161462Y146645D01*
X161489Y146516D01*
X161520Y146387D01*
X161555Y146259D01*
X161593Y146132D01*
X161635Y146006D01*
X161681Y145882D01*
X161730Y145759D01*
X161783Y145637D01*
X161840Y145517D01*
X161900Y145399D01*
X161963Y145282D01*
X162030Y145168D01*
X162100Y145055D01*
X162174Y144945D01*
X162250Y144837D01*
X162330Y144731D01*
X162413Y144627D01*
X162499Y144526D01*
X162588Y144428D01*
X162679Y144332D01*
X162774Y144239D01*
X162871Y144149D01*
X162971Y144062D01*
X163073Y143977D01*
X163178Y143896D01*
X163285Y143818D01*
X163394Y143742D01*
X163505Y143671D01*
X163619Y143602D01*
X163734Y143537D01*
X163852Y143475D01*
X163971Y143417D01*
X164092Y143362D01*
X164214Y143311D01*
X164338Y143263D01*
X164463Y143219D01*
X164589Y143179D01*
X164717Y143143D01*
X164845Y143110D01*
X164974Y143081D01*
X165105Y143056D01*
X165235Y143035D01*
X165367Y143017D01*
X165499Y143004D01*
X165631Y142994D01*
X165763Y142988D01*
X165896Y142986D01*
X165896Y142987D02*
X170411Y142987D01*
X164993Y142987D02*
X161380Y135762D01*
X155011Y139374D02*
X155011Y142987D01*
X155010Y142987D02*
X155008Y143106D01*
X155002Y143226D01*
X154992Y143345D01*
X154978Y143463D01*
X154961Y143582D01*
X154939Y143699D01*
X154914Y143816D01*
X154884Y143931D01*
X154851Y144046D01*
X154814Y144160D01*
X154774Y144272D01*
X154729Y144383D01*
X154681Y144492D01*
X154630Y144600D01*
X154575Y144706D01*
X154516Y144810D01*
X154454Y144912D01*
X154389Y145012D01*
X154320Y145110D01*
X154248Y145206D01*
X154173Y145299D01*
X154096Y145389D01*
X154015Y145477D01*
X153931Y145562D01*
X153844Y145644D01*
X153755Y145724D01*
X153663Y145800D01*
X153569Y145874D01*
X153472Y145944D01*
X153374Y146011D01*
X153273Y146075D01*
X153169Y146135D01*
X153064Y146192D01*
X152957Y146245D01*
X152849Y146295D01*
X152739Y146341D01*
X152627Y146383D01*
X152514Y146422D01*
X152400Y146457D01*
X152285Y146488D01*
X152168Y146516D01*
X152051Y146539D01*
X151934Y146559D01*
X151815Y146575D01*
X151696Y146587D01*
X151577Y146595D01*
X151458Y146599D01*
X151338Y146599D01*
X151219Y146595D01*
X151100Y146587D01*
X150981Y146575D01*
X150862Y146559D01*
X150745Y146539D01*
X150628Y146516D01*
X150511Y146488D01*
X150396Y146457D01*
X150282Y146422D01*
X150169Y146383D01*
X150057Y146341D01*
X149947Y146295D01*
X149839Y146245D01*
X149732Y146192D01*
X149627Y146135D01*
X149523Y146075D01*
X149422Y146011D01*
X149324Y145944D01*
X149227Y145874D01*
X149133Y145800D01*
X149041Y145724D01*
X148952Y145644D01*
X148865Y145562D01*
X148781Y145477D01*
X148700Y145389D01*
X148623Y145299D01*
X148548Y145206D01*
X148476Y145110D01*
X148407Y145012D01*
X148342Y144912D01*
X148280Y144810D01*
X148221Y144706D01*
X148166Y144600D01*
X148115Y144492D01*
X148067Y144383D01*
X148022Y144272D01*
X147982Y144160D01*
X147945Y144046D01*
X147912Y143931D01*
X147882Y143816D01*
X147857Y143699D01*
X147835Y143582D01*
X147818Y143463D01*
X147804Y143345D01*
X147794Y143226D01*
X147788Y143106D01*
X147786Y142987D01*
X147786Y139374D01*
X147788Y139255D01*
X147794Y139135D01*
X147804Y139016D01*
X147818Y138898D01*
X147835Y138779D01*
X147857Y138662D01*
X147882Y138545D01*
X147912Y138430D01*
X147945Y138315D01*
X147982Y138201D01*
X148022Y138089D01*
X148067Y137978D01*
X148115Y137869D01*
X148166Y137761D01*
X148221Y137655D01*
X148280Y137551D01*
X148342Y137449D01*
X148407Y137349D01*
X148476Y137251D01*
X148548Y137155D01*
X148623Y137062D01*
X148700Y136972D01*
X148781Y136884D01*
X148865Y136799D01*
X148952Y136717D01*
X149041Y136637D01*
X149133Y136561D01*
X149227Y136487D01*
X149324Y136417D01*
X149422Y136350D01*
X149523Y136286D01*
X149627Y136226D01*
X149732Y136169D01*
X149839Y136116D01*
X149947Y136066D01*
X150057Y136020D01*
X150169Y135978D01*
X150282Y135939D01*
X150396Y135904D01*
X150511Y135873D01*
X150628Y135845D01*
X150745Y135822D01*
X150862Y135802D01*
X150981Y135786D01*
X151100Y135774D01*
X151219Y135766D01*
X151338Y135762D01*
X151458Y135762D01*
X151577Y135766D01*
X151696Y135774D01*
X151815Y135786D01*
X151934Y135802D01*
X152051Y135822D01*
X152168Y135845D01*
X152285Y135873D01*
X152400Y135904D01*
X152514Y135939D01*
X152627Y135978D01*
X152739Y136020D01*
X152849Y136066D01*
X152957Y136116D01*
X153064Y136169D01*
X153169Y136226D01*
X153273Y136286D01*
X153374Y136350D01*
X153472Y136417D01*
X153569Y136487D01*
X153663Y136561D01*
X153755Y136637D01*
X153844Y136717D01*
X153931Y136799D01*
X154015Y136884D01*
X154096Y136972D01*
X154173Y137062D01*
X154248Y137155D01*
X154320Y137251D01*
X154389Y137349D01*
X154454Y137449D01*
X154516Y137551D01*
X154575Y137655D01*
X154630Y137761D01*
X154681Y137869D01*
X154729Y137978D01*
X154774Y138089D01*
X154814Y138201D01*
X154851Y138315D01*
X154884Y138430D01*
X154914Y138545D01*
X154939Y138662D01*
X154961Y138779D01*
X154978Y138898D01*
X154992Y139016D01*
X155002Y139135D01*
X155008Y139255D01*
X155010Y139374D01*
X140869Y135762D02*
X140869Y152018D01*
X140869Y135762D02*
X136354Y135762D01*
X136250Y135764D01*
X136147Y135770D01*
X136043Y135780D01*
X135940Y135794D01*
X135838Y135812D01*
X135737Y135833D01*
X135636Y135859D01*
X135537Y135888D01*
X135438Y135921D01*
X135341Y135958D01*
X135246Y135999D01*
X135152Y136043D01*
X135060Y136091D01*
X134970Y136142D01*
X134881Y136197D01*
X134795Y136255D01*
X134712Y136317D01*
X134630Y136381D01*
X134552Y136449D01*
X134476Y136519D01*
X134402Y136592D01*
X134332Y136669D01*
X134264Y136747D01*
X134200Y136829D01*
X134138Y136912D01*
X134080Y136998D01*
X134025Y137087D01*
X133974Y137177D01*
X133926Y137269D01*
X133882Y137363D01*
X133841Y137458D01*
X133804Y137555D01*
X133771Y137654D01*
X133742Y137753D01*
X133716Y137854D01*
X133695Y137955D01*
X133677Y138057D01*
X133663Y138160D01*
X133653Y138264D01*
X133647Y138367D01*
X133645Y138471D01*
X133644Y138471D02*
X133644Y143890D01*
X133645Y143890D02*
X133647Y143991D01*
X133653Y144092D01*
X133662Y144193D01*
X133675Y144294D01*
X133692Y144394D01*
X133713Y144493D01*
X133737Y144591D01*
X133765Y144688D01*
X133797Y144785D01*
X133832Y144880D01*
X133871Y144973D01*
X133913Y145065D01*
X133959Y145156D01*
X134008Y145245D01*
X134060Y145331D01*
X134116Y145416D01*
X134174Y145499D01*
X134236Y145579D01*
X134301Y145657D01*
X134368Y145733D01*
X134438Y145806D01*
X134511Y145876D01*
X134587Y145943D01*
X134665Y146008D01*
X134745Y146070D01*
X134828Y146128D01*
X134913Y146184D01*
X135000Y146236D01*
X135088Y146285D01*
X135179Y146331D01*
X135271Y146373D01*
X135364Y146412D01*
X135459Y146447D01*
X135556Y146479D01*
X135653Y146507D01*
X135751Y146531D01*
X135850Y146552D01*
X135950Y146569D01*
X136051Y146582D01*
X136152Y146591D01*
X136253Y146597D01*
X136354Y146599D01*
X140869Y146599D01*
X127430Y146599D02*
X127430Y135762D01*
X127882Y151115D02*
X127882Y152018D01*
X126979Y152018D01*
X126979Y151115D01*
X127882Y151115D01*
X120622Y146599D02*
X120622Y135762D01*
X120622Y146599D02*
X116106Y146599D01*
X116002Y146597D01*
X115899Y146591D01*
X115795Y146581D01*
X115692Y146567D01*
X115590Y146549D01*
X115489Y146528D01*
X115388Y146502D01*
X115289Y146473D01*
X115190Y146440D01*
X115093Y146403D01*
X114998Y146362D01*
X114904Y146318D01*
X114812Y146270D01*
X114722Y146219D01*
X114633Y146164D01*
X114547Y146106D01*
X114464Y146044D01*
X114382Y145980D01*
X114304Y145912D01*
X114228Y145842D01*
X114154Y145769D01*
X114084Y145692D01*
X114016Y145614D01*
X113952Y145532D01*
X113890Y145449D01*
X113832Y145363D01*
X113777Y145274D01*
X113726Y145184D01*
X113678Y145092D01*
X113634Y144998D01*
X113593Y144903D01*
X113556Y144806D01*
X113523Y144707D01*
X113494Y144608D01*
X113468Y144507D01*
X113447Y144406D01*
X113429Y144304D01*
X113415Y144201D01*
X113405Y144097D01*
X113399Y143994D01*
X113397Y143890D01*
X113397Y135762D01*
X97346Y144793D02*
X92831Y144793D01*
X92831Y144794D02*
X92698Y144792D01*
X92566Y144786D01*
X92434Y144776D01*
X92302Y144763D01*
X92170Y144745D01*
X92040Y144724D01*
X91909Y144699D01*
X91780Y144670D01*
X91652Y144637D01*
X91524Y144601D01*
X91398Y144561D01*
X91273Y144517D01*
X91149Y144469D01*
X91027Y144418D01*
X90906Y144363D01*
X90787Y144305D01*
X90669Y144243D01*
X90554Y144178D01*
X90440Y144109D01*
X90329Y144038D01*
X90220Y143962D01*
X90113Y143884D01*
X90008Y143803D01*
X89906Y143718D01*
X89806Y143631D01*
X89709Y143541D01*
X89614Y143448D01*
X89523Y143352D01*
X89434Y143254D01*
X89348Y143153D01*
X89265Y143049D01*
X89185Y142943D01*
X89109Y142835D01*
X89035Y142725D01*
X88965Y142612D01*
X88898Y142498D01*
X88835Y142381D01*
X88775Y142263D01*
X88718Y142143D01*
X88665Y142021D01*
X88616Y141898D01*
X88570Y141774D01*
X88528Y141648D01*
X88490Y141521D01*
X88455Y141393D01*
X88424Y141264D01*
X88397Y141135D01*
X88374Y141004D01*
X88354Y140873D01*
X88339Y140741D01*
X88327Y140609D01*
X88319Y140477D01*
X88315Y140344D01*
X88315Y140212D01*
X88319Y140079D01*
X88327Y139947D01*
X88339Y139815D01*
X88354Y139683D01*
X88374Y139552D01*
X88397Y139421D01*
X88424Y139292D01*
X88455Y139163D01*
X88490Y139035D01*
X88528Y138908D01*
X88570Y138782D01*
X88616Y138658D01*
X88665Y138535D01*
X88718Y138413D01*
X88775Y138293D01*
X88835Y138175D01*
X88898Y138058D01*
X88965Y137944D01*
X89035Y137831D01*
X89109Y137721D01*
X89185Y137613D01*
X89265Y137507D01*
X89348Y137403D01*
X89434Y137302D01*
X89523Y137204D01*
X89614Y137108D01*
X89709Y137015D01*
X89806Y136925D01*
X89906Y136838D01*
X90008Y136753D01*
X90113Y136672D01*
X90220Y136594D01*
X90329Y136518D01*
X90440Y136447D01*
X90554Y136378D01*
X90669Y136313D01*
X90787Y136251D01*
X90906Y136193D01*
X91027Y136138D01*
X91149Y136087D01*
X91273Y136039D01*
X91398Y135995D01*
X91524Y135955D01*
X91652Y135919D01*
X91780Y135886D01*
X91909Y135857D01*
X92040Y135832D01*
X92170Y135811D01*
X92302Y135793D01*
X92434Y135780D01*
X92566Y135770D01*
X92698Y135764D01*
X92831Y135762D01*
X97346Y135762D01*
X97346Y152018D01*
X92831Y152018D01*
X92712Y152016D01*
X92592Y152010D01*
X92473Y152000D01*
X92355Y151986D01*
X92236Y151969D01*
X92119Y151947D01*
X92002Y151922D01*
X91887Y151892D01*
X91772Y151859D01*
X91658Y151822D01*
X91546Y151782D01*
X91435Y151737D01*
X91326Y151689D01*
X91218Y151638D01*
X91112Y151583D01*
X91008Y151524D01*
X90906Y151462D01*
X90806Y151397D01*
X90708Y151328D01*
X90612Y151256D01*
X90519Y151181D01*
X90429Y151104D01*
X90341Y151023D01*
X90256Y150939D01*
X90174Y150852D01*
X90094Y150763D01*
X90018Y150671D01*
X89944Y150577D01*
X89874Y150480D01*
X89807Y150382D01*
X89743Y150281D01*
X89683Y150177D01*
X89626Y150072D01*
X89573Y149965D01*
X89523Y149857D01*
X89477Y149747D01*
X89435Y149635D01*
X89396Y149522D01*
X89361Y149408D01*
X89330Y149293D01*
X89302Y149176D01*
X89279Y149059D01*
X89259Y148942D01*
X89243Y148823D01*
X89231Y148704D01*
X89223Y148585D01*
X89219Y148466D01*
X89219Y148346D01*
X89223Y148227D01*
X89231Y148108D01*
X89243Y147989D01*
X89259Y147870D01*
X89279Y147753D01*
X89302Y147636D01*
X89330Y147519D01*
X89361Y147404D01*
X89396Y147290D01*
X89435Y147177D01*
X89477Y147065D01*
X89523Y146955D01*
X89573Y146847D01*
X89626Y146740D01*
X89683Y146635D01*
X89743Y146531D01*
X89807Y146430D01*
X89874Y146332D01*
X89944Y146235D01*
X90018Y146141D01*
X90094Y146049D01*
X90174Y145960D01*
X90256Y145873D01*
X90341Y145789D01*
X90429Y145708D01*
X90519Y145631D01*
X90612Y145556D01*
X90708Y145484D01*
X90806Y145415D01*
X90906Y145350D01*
X91008Y145288D01*
X91112Y145229D01*
X91218Y145174D01*
X91326Y145123D01*
X91435Y145075D01*
X91546Y145030D01*
X91658Y144990D01*
X91772Y144953D01*
X91887Y144920D01*
X92002Y144890D01*
X92119Y144865D01*
X92236Y144843D01*
X92355Y144826D01*
X92473Y144812D01*
X92592Y144802D01*
X92712Y144796D01*
X92831Y144794D01*
X79498Y142084D02*
X75434Y142084D01*
X79498Y142084D02*
X79610Y142082D01*
X79721Y142076D01*
X79832Y142066D01*
X79943Y142053D01*
X80053Y142035D01*
X80162Y142013D01*
X80271Y141988D01*
X80379Y141959D01*
X80485Y141926D01*
X80591Y141889D01*
X80695Y141849D01*
X80797Y141805D01*
X80898Y141757D01*
X80997Y141706D01*
X81095Y141651D01*
X81190Y141593D01*
X81283Y141532D01*
X81374Y141467D01*
X81463Y141399D01*
X81549Y141328D01*
X81632Y141255D01*
X81713Y141178D01*
X81792Y141098D01*
X81867Y141016D01*
X81939Y140931D01*
X82009Y140844D01*
X82075Y140754D01*
X82138Y140662D01*
X82198Y140567D01*
X82254Y140471D01*
X82307Y140373D01*
X82356Y140273D01*
X82402Y140171D01*
X82444Y140068D01*
X82483Y139963D01*
X82518Y139857D01*
X82549Y139750D01*
X82576Y139642D01*
X82600Y139533D01*
X82619Y139423D01*
X82635Y139313D01*
X82647Y139202D01*
X82655Y139090D01*
X82659Y138979D01*
X82659Y138867D01*
X82655Y138756D01*
X82647Y138644D01*
X82635Y138533D01*
X82619Y138423D01*
X82600Y138313D01*
X82576Y138204D01*
X82549Y138096D01*
X82518Y137989D01*
X82483Y137883D01*
X82444Y137778D01*
X82402Y137675D01*
X82356Y137573D01*
X82307Y137473D01*
X82254Y137375D01*
X82198Y137279D01*
X82138Y137184D01*
X82075Y137092D01*
X82009Y137002D01*
X81939Y136915D01*
X81867Y136830D01*
X81792Y136748D01*
X81713Y136668D01*
X81632Y136591D01*
X81549Y136518D01*
X81463Y136447D01*
X81374Y136379D01*
X81283Y136314D01*
X81190Y136253D01*
X81095Y136195D01*
X80997Y136140D01*
X80898Y136089D01*
X80797Y136041D01*
X80695Y135997D01*
X80591Y135957D01*
X80485Y135920D01*
X80379Y135887D01*
X80271Y135858D01*
X80162Y135833D01*
X80053Y135811D01*
X79943Y135793D01*
X79832Y135780D01*
X79721Y135770D01*
X79610Y135764D01*
X79498Y135762D01*
X75434Y135762D01*
X75434Y143890D01*
X75435Y143890D02*
X75437Y143991D01*
X75443Y144092D01*
X75452Y144193D01*
X75465Y144294D01*
X75482Y144394D01*
X75503Y144493D01*
X75527Y144591D01*
X75555Y144688D01*
X75587Y144785D01*
X75622Y144880D01*
X75661Y144973D01*
X75703Y145065D01*
X75749Y145156D01*
X75798Y145245D01*
X75850Y145331D01*
X75906Y145416D01*
X75964Y145499D01*
X76026Y145579D01*
X76091Y145657D01*
X76158Y145733D01*
X76228Y145806D01*
X76301Y145876D01*
X76377Y145943D01*
X76455Y146008D01*
X76535Y146070D01*
X76618Y146128D01*
X76703Y146184D01*
X76790Y146236D01*
X76878Y146285D01*
X76969Y146331D01*
X77061Y146373D01*
X77154Y146412D01*
X77249Y146447D01*
X77346Y146479D01*
X77443Y146507D01*
X77541Y146531D01*
X77640Y146552D01*
X77740Y146569D01*
X77841Y146582D01*
X77942Y146591D01*
X78043Y146597D01*
X78144Y146599D01*
X81756Y146599D01*
X67912Y146599D02*
X67912Y135762D01*
X67912Y146599D02*
X62493Y146599D01*
X62493Y144793D01*
X54488Y142084D02*
X50424Y142084D01*
X54488Y142084D02*
X54600Y142082D01*
X54711Y142076D01*
X54822Y142066D01*
X54933Y142053D01*
X55043Y142035D01*
X55152Y142013D01*
X55261Y141988D01*
X55369Y141959D01*
X55475Y141926D01*
X55581Y141889D01*
X55685Y141849D01*
X55787Y141805D01*
X55888Y141757D01*
X55987Y141706D01*
X56085Y141651D01*
X56180Y141593D01*
X56273Y141532D01*
X56364Y141467D01*
X56453Y141399D01*
X56539Y141328D01*
X56622Y141255D01*
X56703Y141178D01*
X56782Y141098D01*
X56857Y141016D01*
X56929Y140931D01*
X56999Y140844D01*
X57065Y140754D01*
X57128Y140662D01*
X57188Y140567D01*
X57244Y140471D01*
X57297Y140373D01*
X57346Y140273D01*
X57392Y140171D01*
X57434Y140068D01*
X57473Y139963D01*
X57508Y139857D01*
X57539Y139750D01*
X57566Y139642D01*
X57590Y139533D01*
X57609Y139423D01*
X57625Y139313D01*
X57637Y139202D01*
X57645Y139090D01*
X57649Y138979D01*
X57649Y138867D01*
X57645Y138756D01*
X57637Y138644D01*
X57625Y138533D01*
X57609Y138423D01*
X57590Y138313D01*
X57566Y138204D01*
X57539Y138096D01*
X57508Y137989D01*
X57473Y137883D01*
X57434Y137778D01*
X57392Y137675D01*
X57346Y137573D01*
X57297Y137473D01*
X57244Y137375D01*
X57188Y137279D01*
X57128Y137184D01*
X57065Y137092D01*
X56999Y137002D01*
X56929Y136915D01*
X56857Y136830D01*
X56782Y136748D01*
X56703Y136668D01*
X56622Y136591D01*
X56539Y136518D01*
X56453Y136447D01*
X56364Y136379D01*
X56273Y136314D01*
X56180Y136253D01*
X56085Y136195D01*
X55987Y136140D01*
X55888Y136089D01*
X55787Y136041D01*
X55685Y135997D01*
X55581Y135957D01*
X55475Y135920D01*
X55369Y135887D01*
X55261Y135858D01*
X55152Y135833D01*
X55043Y135811D01*
X54933Y135793D01*
X54822Y135780D01*
X54711Y135770D01*
X54600Y135764D01*
X54488Y135762D01*
X50424Y135762D01*
X50424Y143890D01*
X50425Y143890D02*
X50427Y143991D01*
X50433Y144092D01*
X50442Y144193D01*
X50455Y144294D01*
X50472Y144394D01*
X50493Y144493D01*
X50517Y144591D01*
X50545Y144688D01*
X50577Y144785D01*
X50612Y144880D01*
X50651Y144973D01*
X50693Y145065D01*
X50739Y145156D01*
X50788Y145245D01*
X50840Y145331D01*
X50896Y145416D01*
X50954Y145499D01*
X51016Y145579D01*
X51081Y145657D01*
X51148Y145733D01*
X51218Y145806D01*
X51291Y145876D01*
X51367Y145943D01*
X51445Y146008D01*
X51525Y146070D01*
X51608Y146128D01*
X51693Y146184D01*
X51780Y146236D01*
X51868Y146285D01*
X51959Y146331D01*
X52051Y146373D01*
X52144Y146412D01*
X52239Y146447D01*
X52336Y146479D01*
X52433Y146507D01*
X52531Y146531D01*
X52630Y146552D01*
X52730Y146569D01*
X52831Y146582D01*
X52932Y146591D01*
X53033Y146597D01*
X53134Y146599D01*
X56746Y146599D01*
X42987Y146599D02*
X42987Y135762D01*
X42987Y146599D02*
X38471Y146599D01*
X38367Y146597D01*
X38264Y146591D01*
X38160Y146581D01*
X38057Y146567D01*
X37955Y146549D01*
X37854Y146528D01*
X37753Y146502D01*
X37654Y146473D01*
X37555Y146440D01*
X37458Y146403D01*
X37363Y146362D01*
X37269Y146318D01*
X37177Y146270D01*
X37087Y146219D01*
X36998Y146164D01*
X36912Y146106D01*
X36829Y146044D01*
X36747Y145980D01*
X36669Y145912D01*
X36593Y145842D01*
X36519Y145769D01*
X36449Y145692D01*
X36381Y145614D01*
X36317Y145532D01*
X36255Y145449D01*
X36197Y145363D01*
X36142Y145274D01*
X36091Y145184D01*
X36043Y145092D01*
X35999Y144998D01*
X35958Y144903D01*
X35921Y144806D01*
X35888Y144707D01*
X35859Y144608D01*
X35833Y144507D01*
X35812Y144406D01*
X35794Y144304D01*
X35780Y144201D01*
X35770Y144097D01*
X35764Y143994D01*
X35762Y143890D01*
X35762Y135762D01*
X350016Y169374D02*
X350018Y169256D01*
X350024Y169138D01*
X350033Y169020D01*
X350047Y168903D01*
X350064Y168786D01*
X350085Y168669D01*
X350110Y168554D01*
X350139Y168439D01*
X350172Y168325D01*
X350208Y168213D01*
X350248Y168102D01*
X350291Y167992D01*
X350338Y167883D01*
X350388Y167776D01*
X350443Y167671D01*
X350500Y167568D01*
X350561Y167467D01*
X350625Y167367D01*
X350692Y167270D01*
X350762Y167175D01*
X350836Y167083D01*
X350912Y166992D01*
X350992Y166905D01*
X351074Y166820D01*
X351159Y166738D01*
X351246Y166658D01*
X351337Y166582D01*
X351429Y166508D01*
X351524Y166438D01*
X351621Y166371D01*
X351721Y166307D01*
X351822Y166246D01*
X351925Y166189D01*
X352030Y166134D01*
X352137Y166084D01*
X352246Y166037D01*
X352356Y165994D01*
X352467Y165954D01*
X352579Y165918D01*
X352693Y165885D01*
X352808Y165856D01*
X352923Y165831D01*
X353040Y165810D01*
X353157Y165793D01*
X353274Y165779D01*
X353392Y165770D01*
X353510Y165764D01*
X353628Y165762D01*
X353811Y165764D01*
X353993Y165771D01*
X354175Y165782D01*
X354357Y165797D01*
X354539Y165817D01*
X354720Y165841D01*
X354900Y165869D01*
X355080Y165901D01*
X355259Y165938D01*
X355436Y165979D01*
X355613Y166025D01*
X355789Y166074D01*
X355964Y166128D01*
X356137Y166186D01*
X356308Y166248D01*
X356479Y166314D01*
X356647Y166385D01*
X356814Y166459D01*
X356979Y166537D01*
X357142Y166619D01*
X357303Y166705D01*
X357462Y166795D01*
X357619Y166889D01*
X357773Y166986D01*
X357925Y167087D01*
X358075Y167192D01*
X358222Y167300D01*
X358366Y167411D01*
X358508Y167526D01*
X358647Y167645D01*
X358783Y167767D01*
X358916Y167892D01*
X359046Y168020D01*
X358594Y178406D02*
X358592Y178524D01*
X358586Y178642D01*
X358577Y178760D01*
X358563Y178877D01*
X358546Y178994D01*
X358525Y179111D01*
X358500Y179226D01*
X358471Y179341D01*
X358438Y179455D01*
X358402Y179567D01*
X358362Y179678D01*
X358319Y179788D01*
X358272Y179897D01*
X358222Y180004D01*
X358167Y180109D01*
X358110Y180212D01*
X358049Y180313D01*
X357985Y180413D01*
X357918Y180510D01*
X357848Y180605D01*
X357774Y180697D01*
X357698Y180788D01*
X357618Y180875D01*
X357536Y180960D01*
X357451Y181042D01*
X357364Y181122D01*
X357273Y181198D01*
X357181Y181272D01*
X357086Y181342D01*
X356989Y181409D01*
X356889Y181473D01*
X356788Y181534D01*
X356685Y181591D01*
X356580Y181646D01*
X356473Y181696D01*
X356364Y181743D01*
X356254Y181786D01*
X356143Y181826D01*
X356031Y181862D01*
X355917Y181895D01*
X355802Y181924D01*
X355687Y181949D01*
X355570Y181970D01*
X355453Y181987D01*
X355336Y182001D01*
X355218Y182010D01*
X355100Y182016D01*
X354982Y182018D01*
X354821Y182016D01*
X354659Y182010D01*
X354498Y182001D01*
X354337Y181987D01*
X354177Y181970D01*
X354017Y181949D01*
X353857Y181924D01*
X353698Y181895D01*
X353540Y181863D01*
X353383Y181827D01*
X353227Y181787D01*
X353071Y181743D01*
X352917Y181695D01*
X352764Y181644D01*
X352612Y181590D01*
X352461Y181531D01*
X352312Y181470D01*
X352165Y181404D01*
X352019Y181335D01*
X351874Y181263D01*
X351732Y181187D01*
X351591Y181108D01*
X351452Y181026D01*
X351316Y180940D01*
X351181Y180851D01*
X351048Y180759D01*
X350918Y180663D01*
X356789Y175245D02*
X356890Y175307D01*
X356990Y175372D01*
X357087Y175441D01*
X357182Y175513D01*
X357275Y175587D01*
X357365Y175665D01*
X357453Y175746D01*
X357538Y175829D01*
X357620Y175915D01*
X357699Y176004D01*
X357776Y176095D01*
X357849Y176189D01*
X357920Y176285D01*
X357987Y176383D01*
X358051Y176483D01*
X358112Y176586D01*
X358169Y176690D01*
X358223Y176796D01*
X358273Y176904D01*
X358320Y177013D01*
X358364Y177124D01*
X358404Y177236D01*
X358440Y177350D01*
X358472Y177464D01*
X358501Y177580D01*
X358526Y177696D01*
X358547Y177813D01*
X358564Y177931D01*
X358578Y178049D01*
X358587Y178168D01*
X358593Y178287D01*
X358595Y178406D01*
X351821Y172535D02*
X351720Y172473D01*
X351620Y172408D01*
X351523Y172339D01*
X351428Y172267D01*
X351335Y172193D01*
X351245Y172115D01*
X351157Y172034D01*
X351072Y171951D01*
X350990Y171865D01*
X350911Y171776D01*
X350834Y171685D01*
X350761Y171591D01*
X350690Y171495D01*
X350623Y171397D01*
X350559Y171297D01*
X350498Y171194D01*
X350441Y171090D01*
X350387Y170984D01*
X350337Y170876D01*
X350290Y170767D01*
X350246Y170656D01*
X350206Y170544D01*
X350170Y170430D01*
X350138Y170316D01*
X350109Y170200D01*
X350084Y170084D01*
X350063Y169967D01*
X350046Y169849D01*
X350032Y169731D01*
X350023Y169612D01*
X350017Y169493D01*
X350015Y169374D01*
X351821Y172535D02*
X356788Y175245D01*
X341348Y165762D02*
X337736Y165762D01*
X341348Y165762D02*
X341449Y165764D01*
X341550Y165770D01*
X341651Y165779D01*
X341752Y165792D01*
X341852Y165809D01*
X341951Y165830D01*
X342049Y165854D01*
X342146Y165882D01*
X342243Y165914D01*
X342338Y165949D01*
X342431Y165988D01*
X342523Y166030D01*
X342614Y166076D01*
X342703Y166125D01*
X342789Y166177D01*
X342874Y166233D01*
X342957Y166291D01*
X343037Y166353D01*
X343115Y166418D01*
X343191Y166485D01*
X343264Y166555D01*
X343334Y166628D01*
X343401Y166704D01*
X343466Y166782D01*
X343528Y166862D01*
X343586Y166945D01*
X343642Y167030D01*
X343694Y167116D01*
X343743Y167205D01*
X343789Y167296D01*
X343831Y167388D01*
X343870Y167481D01*
X343905Y167576D01*
X343937Y167673D01*
X343965Y167770D01*
X343989Y167868D01*
X344010Y167967D01*
X344027Y168067D01*
X344040Y168168D01*
X344049Y168269D01*
X344055Y168370D01*
X344057Y168471D01*
X344057Y173890D01*
X344055Y173991D01*
X344049Y174092D01*
X344040Y174193D01*
X344027Y174294D01*
X344010Y174394D01*
X343989Y174493D01*
X343965Y174591D01*
X343937Y174688D01*
X343905Y174785D01*
X343870Y174880D01*
X343831Y174973D01*
X343789Y175065D01*
X343743Y175156D01*
X343694Y175245D01*
X343642Y175331D01*
X343586Y175416D01*
X343528Y175499D01*
X343466Y175579D01*
X343401Y175657D01*
X343334Y175733D01*
X343264Y175806D01*
X343191Y175876D01*
X343115Y175943D01*
X343037Y176008D01*
X342957Y176070D01*
X342874Y176128D01*
X342789Y176184D01*
X342703Y176236D01*
X342614Y176285D01*
X342523Y176331D01*
X342431Y176373D01*
X342338Y176412D01*
X342243Y176447D01*
X342146Y176479D01*
X342049Y176507D01*
X341951Y176531D01*
X341852Y176552D01*
X341752Y176569D01*
X341651Y176582D01*
X341550Y176591D01*
X341449Y176597D01*
X341348Y176599D01*
X337736Y176599D01*
X331485Y176599D02*
X331485Y165762D01*
X331485Y176599D02*
X326066Y176599D01*
X326066Y174793D01*
X321184Y176599D02*
X321184Y165762D01*
X321636Y181115D02*
X321636Y182018D01*
X320733Y182018D01*
X320733Y181115D01*
X321636Y181115D01*
X314302Y182018D02*
X314302Y165762D01*
X309787Y165762D01*
X309683Y165764D01*
X309580Y165770D01*
X309476Y165780D01*
X309373Y165794D01*
X309271Y165812D01*
X309170Y165833D01*
X309069Y165859D01*
X308970Y165888D01*
X308871Y165921D01*
X308774Y165958D01*
X308679Y165999D01*
X308585Y166043D01*
X308493Y166091D01*
X308403Y166142D01*
X308314Y166197D01*
X308228Y166255D01*
X308145Y166317D01*
X308063Y166381D01*
X307985Y166449D01*
X307909Y166519D01*
X307835Y166592D01*
X307765Y166669D01*
X307697Y166747D01*
X307633Y166829D01*
X307571Y166912D01*
X307513Y166998D01*
X307458Y167087D01*
X307407Y167177D01*
X307359Y167269D01*
X307315Y167363D01*
X307274Y167458D01*
X307237Y167555D01*
X307204Y167654D01*
X307175Y167753D01*
X307149Y167854D01*
X307128Y167955D01*
X307110Y168057D01*
X307096Y168160D01*
X307086Y168264D01*
X307080Y168367D01*
X307078Y168471D01*
X307078Y173890D01*
X307080Y173991D01*
X307086Y174092D01*
X307095Y174193D01*
X307108Y174294D01*
X307125Y174394D01*
X307146Y174493D01*
X307170Y174591D01*
X307198Y174688D01*
X307230Y174785D01*
X307265Y174880D01*
X307304Y174973D01*
X307346Y175065D01*
X307392Y175156D01*
X307441Y175245D01*
X307493Y175331D01*
X307549Y175416D01*
X307607Y175499D01*
X307669Y175579D01*
X307734Y175657D01*
X307801Y175733D01*
X307871Y175806D01*
X307944Y175876D01*
X308020Y175943D01*
X308098Y176008D01*
X308178Y176070D01*
X308261Y176128D01*
X308346Y176184D01*
X308433Y176236D01*
X308521Y176285D01*
X308612Y176331D01*
X308704Y176373D01*
X308797Y176412D01*
X308892Y176447D01*
X308989Y176479D01*
X309086Y176507D01*
X309184Y176531D01*
X309283Y176552D01*
X309383Y176569D01*
X309484Y176582D01*
X309585Y176591D01*
X309686Y176597D01*
X309787Y176599D01*
X314302Y176599D01*
X297741Y172084D02*
X293677Y172084D01*
X297741Y172084D02*
X297853Y172082D01*
X297964Y172076D01*
X298075Y172066D01*
X298186Y172053D01*
X298296Y172035D01*
X298405Y172013D01*
X298514Y171988D01*
X298622Y171959D01*
X298728Y171926D01*
X298834Y171889D01*
X298938Y171849D01*
X299040Y171805D01*
X299141Y171757D01*
X299240Y171706D01*
X299338Y171651D01*
X299433Y171593D01*
X299526Y171532D01*
X299617Y171467D01*
X299706Y171399D01*
X299792Y171328D01*
X299875Y171255D01*
X299956Y171178D01*
X300035Y171098D01*
X300110Y171016D01*
X300182Y170931D01*
X300252Y170844D01*
X300318Y170754D01*
X300381Y170662D01*
X300441Y170567D01*
X300497Y170471D01*
X300550Y170373D01*
X300599Y170273D01*
X300645Y170171D01*
X300687Y170068D01*
X300726Y169963D01*
X300761Y169857D01*
X300792Y169750D01*
X300819Y169642D01*
X300843Y169533D01*
X300862Y169423D01*
X300878Y169313D01*
X300890Y169202D01*
X300898Y169090D01*
X300902Y168979D01*
X300902Y168867D01*
X300898Y168756D01*
X300890Y168644D01*
X300878Y168533D01*
X300862Y168423D01*
X300843Y168313D01*
X300819Y168204D01*
X300792Y168096D01*
X300761Y167989D01*
X300726Y167883D01*
X300687Y167778D01*
X300645Y167675D01*
X300599Y167573D01*
X300550Y167473D01*
X300497Y167375D01*
X300441Y167279D01*
X300381Y167184D01*
X300318Y167092D01*
X300252Y167002D01*
X300182Y166915D01*
X300110Y166830D01*
X300035Y166748D01*
X299956Y166668D01*
X299875Y166591D01*
X299792Y166518D01*
X299706Y166447D01*
X299617Y166379D01*
X299526Y166314D01*
X299433Y166253D01*
X299338Y166195D01*
X299240Y166140D01*
X299141Y166089D01*
X299040Y166041D01*
X298938Y165997D01*
X298834Y165957D01*
X298728Y165920D01*
X298622Y165887D01*
X298514Y165858D01*
X298405Y165833D01*
X298296Y165811D01*
X298186Y165793D01*
X298075Y165780D01*
X297964Y165770D01*
X297853Y165764D01*
X297741Y165762D01*
X293677Y165762D01*
X293677Y173890D01*
X293679Y173991D01*
X293685Y174092D01*
X293694Y174193D01*
X293707Y174294D01*
X293724Y174394D01*
X293745Y174493D01*
X293769Y174591D01*
X293797Y174688D01*
X293829Y174785D01*
X293864Y174880D01*
X293903Y174973D01*
X293945Y175065D01*
X293991Y175156D01*
X294040Y175245D01*
X294092Y175331D01*
X294148Y175416D01*
X294206Y175499D01*
X294268Y175579D01*
X294333Y175657D01*
X294400Y175733D01*
X294470Y175806D01*
X294543Y175876D01*
X294619Y175943D01*
X294697Y176008D01*
X294777Y176070D01*
X294860Y176128D01*
X294945Y176184D01*
X295032Y176236D01*
X295120Y176285D01*
X295211Y176331D01*
X295303Y176373D01*
X295396Y176412D01*
X295491Y176447D01*
X295588Y176479D01*
X295685Y176507D01*
X295783Y176531D01*
X295882Y176552D01*
X295982Y176569D01*
X296083Y176582D01*
X296184Y176591D01*
X296285Y176597D01*
X296386Y176599D01*
X299999Y176599D01*
X277672Y182018D02*
X277672Y165762D01*
X277672Y182018D02*
X273157Y182018D01*
X273024Y182016D01*
X272892Y182010D01*
X272760Y182000D01*
X272628Y181987D01*
X272496Y181969D01*
X272366Y181948D01*
X272235Y181923D01*
X272106Y181894D01*
X271978Y181861D01*
X271850Y181825D01*
X271724Y181785D01*
X271599Y181741D01*
X271475Y181693D01*
X271353Y181642D01*
X271232Y181587D01*
X271113Y181529D01*
X270995Y181467D01*
X270880Y181402D01*
X270766Y181333D01*
X270655Y181262D01*
X270546Y181186D01*
X270439Y181108D01*
X270334Y181027D01*
X270232Y180942D01*
X270132Y180855D01*
X270035Y180765D01*
X269940Y180672D01*
X269849Y180576D01*
X269760Y180478D01*
X269674Y180377D01*
X269591Y180273D01*
X269511Y180167D01*
X269435Y180059D01*
X269361Y179949D01*
X269291Y179836D01*
X269224Y179722D01*
X269161Y179605D01*
X269101Y179487D01*
X269044Y179367D01*
X268991Y179245D01*
X268942Y179122D01*
X268896Y178998D01*
X268854Y178872D01*
X268816Y178745D01*
X268781Y178617D01*
X268750Y178488D01*
X268723Y178359D01*
X268700Y178228D01*
X268680Y178097D01*
X268665Y177965D01*
X268653Y177833D01*
X268645Y177701D01*
X268641Y177568D01*
X268641Y177436D01*
X268645Y177303D01*
X268653Y177171D01*
X268665Y177039D01*
X268680Y176907D01*
X268700Y176776D01*
X268723Y176645D01*
X268750Y176516D01*
X268781Y176387D01*
X268816Y176259D01*
X268854Y176132D01*
X268896Y176006D01*
X268942Y175882D01*
X268991Y175759D01*
X269044Y175637D01*
X269101Y175517D01*
X269161Y175399D01*
X269224Y175282D01*
X269291Y175168D01*
X269361Y175055D01*
X269435Y174945D01*
X269511Y174837D01*
X269591Y174731D01*
X269674Y174627D01*
X269760Y174526D01*
X269849Y174428D01*
X269940Y174332D01*
X270035Y174239D01*
X270132Y174149D01*
X270232Y174062D01*
X270334Y173977D01*
X270439Y173896D01*
X270546Y173818D01*
X270655Y173742D01*
X270766Y173671D01*
X270880Y173602D01*
X270995Y173537D01*
X271113Y173475D01*
X271232Y173417D01*
X271353Y173362D01*
X271475Y173311D01*
X271599Y173263D01*
X271724Y173219D01*
X271850Y173179D01*
X271978Y173143D01*
X272106Y173110D01*
X272235Y173081D01*
X272366Y173056D01*
X272496Y173035D01*
X272628Y173017D01*
X272760Y173004D01*
X272892Y172994D01*
X273024Y172988D01*
X273157Y172986D01*
X273157Y172987D02*
X277672Y172987D01*
X272254Y172987D02*
X268641Y165762D01*
X262272Y169374D02*
X262272Y172987D01*
X262271Y172987D02*
X262269Y173106D01*
X262263Y173226D01*
X262253Y173345D01*
X262239Y173463D01*
X262222Y173582D01*
X262200Y173699D01*
X262175Y173816D01*
X262145Y173931D01*
X262112Y174046D01*
X262075Y174160D01*
X262035Y174272D01*
X261990Y174383D01*
X261942Y174492D01*
X261891Y174600D01*
X261836Y174706D01*
X261777Y174810D01*
X261715Y174912D01*
X261650Y175012D01*
X261581Y175110D01*
X261509Y175206D01*
X261434Y175299D01*
X261357Y175389D01*
X261276Y175477D01*
X261192Y175562D01*
X261105Y175644D01*
X261016Y175724D01*
X260924Y175800D01*
X260830Y175874D01*
X260733Y175944D01*
X260635Y176011D01*
X260534Y176075D01*
X260430Y176135D01*
X260325Y176192D01*
X260218Y176245D01*
X260110Y176295D01*
X260000Y176341D01*
X259888Y176383D01*
X259775Y176422D01*
X259661Y176457D01*
X259546Y176488D01*
X259429Y176516D01*
X259312Y176539D01*
X259195Y176559D01*
X259076Y176575D01*
X258957Y176587D01*
X258838Y176595D01*
X258719Y176599D01*
X258599Y176599D01*
X258480Y176595D01*
X258361Y176587D01*
X258242Y176575D01*
X258123Y176559D01*
X258006Y176539D01*
X257889Y176516D01*
X257772Y176488D01*
X257657Y176457D01*
X257543Y176422D01*
X257430Y176383D01*
X257318Y176341D01*
X257208Y176295D01*
X257100Y176245D01*
X256993Y176192D01*
X256888Y176135D01*
X256784Y176075D01*
X256683Y176011D01*
X256585Y175944D01*
X256488Y175874D01*
X256394Y175800D01*
X256302Y175724D01*
X256213Y175644D01*
X256126Y175562D01*
X256042Y175477D01*
X255961Y175389D01*
X255884Y175299D01*
X255809Y175206D01*
X255737Y175110D01*
X255668Y175012D01*
X255603Y174912D01*
X255541Y174810D01*
X255482Y174706D01*
X255427Y174600D01*
X255376Y174492D01*
X255328Y174383D01*
X255283Y174272D01*
X255243Y174160D01*
X255206Y174046D01*
X255173Y173931D01*
X255143Y173816D01*
X255118Y173699D01*
X255096Y173582D01*
X255079Y173463D01*
X255065Y173345D01*
X255055Y173226D01*
X255049Y173106D01*
X255047Y172987D01*
X255047Y169374D01*
X255049Y169255D01*
X255055Y169135D01*
X255065Y169016D01*
X255079Y168898D01*
X255096Y168779D01*
X255118Y168662D01*
X255143Y168545D01*
X255173Y168430D01*
X255206Y168315D01*
X255243Y168201D01*
X255283Y168089D01*
X255328Y167978D01*
X255376Y167869D01*
X255427Y167761D01*
X255482Y167655D01*
X255541Y167551D01*
X255603Y167449D01*
X255668Y167349D01*
X255737Y167251D01*
X255809Y167155D01*
X255884Y167062D01*
X255961Y166972D01*
X256042Y166884D01*
X256126Y166799D01*
X256213Y166717D01*
X256302Y166637D01*
X256394Y166561D01*
X256488Y166487D01*
X256585Y166417D01*
X256683Y166350D01*
X256784Y166286D01*
X256888Y166226D01*
X256993Y166169D01*
X257100Y166116D01*
X257208Y166066D01*
X257318Y166020D01*
X257430Y165978D01*
X257543Y165939D01*
X257657Y165904D01*
X257772Y165873D01*
X257889Y165845D01*
X258006Y165822D01*
X258123Y165802D01*
X258242Y165786D01*
X258361Y165774D01*
X258480Y165766D01*
X258599Y165762D01*
X258719Y165762D01*
X258838Y165766D01*
X258957Y165774D01*
X259076Y165786D01*
X259195Y165802D01*
X259312Y165822D01*
X259429Y165845D01*
X259546Y165873D01*
X259661Y165904D01*
X259775Y165939D01*
X259888Y165978D01*
X260000Y166020D01*
X260110Y166066D01*
X260218Y166116D01*
X260325Y166169D01*
X260430Y166226D01*
X260534Y166286D01*
X260635Y166350D01*
X260733Y166417D01*
X260830Y166487D01*
X260924Y166561D01*
X261016Y166637D01*
X261105Y166717D01*
X261192Y166799D01*
X261276Y166884D01*
X261357Y166972D01*
X261434Y167062D01*
X261509Y167155D01*
X261581Y167251D01*
X261650Y167349D01*
X261715Y167449D01*
X261777Y167551D01*
X261836Y167655D01*
X261891Y167761D01*
X261942Y167869D01*
X261990Y167978D01*
X262035Y168089D01*
X262075Y168201D01*
X262112Y168315D01*
X262145Y168430D01*
X262175Y168545D01*
X262200Y168662D01*
X262222Y168779D01*
X262239Y168898D01*
X262253Y169016D01*
X262263Y169135D01*
X262269Y169255D01*
X262271Y169374D01*
X248130Y165762D02*
X248130Y182018D01*
X248130Y165762D02*
X243615Y165762D01*
X243511Y165764D01*
X243408Y165770D01*
X243304Y165780D01*
X243201Y165794D01*
X243099Y165812D01*
X242998Y165833D01*
X242897Y165859D01*
X242798Y165888D01*
X242699Y165921D01*
X242602Y165958D01*
X242507Y165999D01*
X242413Y166043D01*
X242321Y166091D01*
X242231Y166142D01*
X242142Y166197D01*
X242056Y166255D01*
X241973Y166317D01*
X241891Y166381D01*
X241813Y166449D01*
X241737Y166519D01*
X241663Y166592D01*
X241593Y166669D01*
X241525Y166747D01*
X241461Y166829D01*
X241399Y166912D01*
X241341Y166998D01*
X241286Y167087D01*
X241235Y167177D01*
X241187Y167269D01*
X241143Y167363D01*
X241102Y167458D01*
X241065Y167555D01*
X241032Y167654D01*
X241003Y167753D01*
X240977Y167854D01*
X240956Y167955D01*
X240938Y168057D01*
X240924Y168160D01*
X240914Y168264D01*
X240908Y168367D01*
X240906Y168471D01*
X240905Y168471D02*
X240905Y173890D01*
X240906Y173890D02*
X240908Y173991D01*
X240914Y174092D01*
X240923Y174193D01*
X240936Y174294D01*
X240953Y174394D01*
X240974Y174493D01*
X240998Y174591D01*
X241026Y174688D01*
X241058Y174785D01*
X241093Y174880D01*
X241132Y174973D01*
X241174Y175065D01*
X241220Y175156D01*
X241269Y175245D01*
X241321Y175331D01*
X241377Y175416D01*
X241435Y175499D01*
X241497Y175579D01*
X241562Y175657D01*
X241629Y175733D01*
X241699Y175806D01*
X241772Y175876D01*
X241848Y175943D01*
X241926Y176008D01*
X242006Y176070D01*
X242089Y176128D01*
X242174Y176184D01*
X242261Y176236D01*
X242349Y176285D01*
X242440Y176331D01*
X242532Y176373D01*
X242625Y176412D01*
X242720Y176447D01*
X242817Y176479D01*
X242914Y176507D01*
X243012Y176531D01*
X243111Y176552D01*
X243211Y176569D01*
X243312Y176582D01*
X243413Y176591D01*
X243514Y176597D01*
X243615Y176599D01*
X248130Y176599D01*
X234656Y172987D02*
X234656Y169374D01*
X234656Y172987D02*
X234654Y173106D01*
X234648Y173226D01*
X234638Y173345D01*
X234624Y173463D01*
X234607Y173582D01*
X234585Y173699D01*
X234560Y173816D01*
X234530Y173931D01*
X234497Y174046D01*
X234460Y174160D01*
X234420Y174272D01*
X234375Y174383D01*
X234327Y174492D01*
X234276Y174600D01*
X234221Y174706D01*
X234162Y174810D01*
X234100Y174912D01*
X234035Y175012D01*
X233966Y175110D01*
X233894Y175206D01*
X233819Y175299D01*
X233742Y175389D01*
X233661Y175477D01*
X233577Y175562D01*
X233490Y175644D01*
X233401Y175724D01*
X233309Y175800D01*
X233215Y175874D01*
X233118Y175944D01*
X233020Y176011D01*
X232919Y176075D01*
X232815Y176135D01*
X232710Y176192D01*
X232603Y176245D01*
X232495Y176295D01*
X232385Y176341D01*
X232273Y176383D01*
X232160Y176422D01*
X232046Y176457D01*
X231931Y176488D01*
X231814Y176516D01*
X231697Y176539D01*
X231580Y176559D01*
X231461Y176575D01*
X231342Y176587D01*
X231223Y176595D01*
X231104Y176599D01*
X230984Y176599D01*
X230865Y176595D01*
X230746Y176587D01*
X230627Y176575D01*
X230508Y176559D01*
X230391Y176539D01*
X230274Y176516D01*
X230157Y176488D01*
X230042Y176457D01*
X229928Y176422D01*
X229815Y176383D01*
X229703Y176341D01*
X229593Y176295D01*
X229485Y176245D01*
X229378Y176192D01*
X229273Y176135D01*
X229169Y176075D01*
X229068Y176011D01*
X228970Y175944D01*
X228873Y175874D01*
X228779Y175800D01*
X228687Y175724D01*
X228598Y175644D01*
X228511Y175562D01*
X228427Y175477D01*
X228346Y175389D01*
X228269Y175299D01*
X228194Y175206D01*
X228122Y175110D01*
X228053Y175012D01*
X227988Y174912D01*
X227926Y174810D01*
X227867Y174706D01*
X227812Y174600D01*
X227761Y174492D01*
X227713Y174383D01*
X227668Y174272D01*
X227628Y174160D01*
X227591Y174046D01*
X227558Y173931D01*
X227528Y173816D01*
X227503Y173699D01*
X227481Y173582D01*
X227464Y173463D01*
X227450Y173345D01*
X227440Y173226D01*
X227434Y173106D01*
X227432Y172987D01*
X227432Y169374D01*
X227434Y169255D01*
X227440Y169135D01*
X227450Y169016D01*
X227464Y168898D01*
X227481Y168779D01*
X227503Y168662D01*
X227528Y168545D01*
X227558Y168430D01*
X227591Y168315D01*
X227628Y168201D01*
X227668Y168089D01*
X227713Y167978D01*
X227761Y167869D01*
X227812Y167761D01*
X227867Y167655D01*
X227926Y167551D01*
X227988Y167449D01*
X228053Y167349D01*
X228122Y167251D01*
X228194Y167155D01*
X228269Y167062D01*
X228346Y166972D01*
X228427Y166884D01*
X228511Y166799D01*
X228598Y166717D01*
X228687Y166637D01*
X228779Y166561D01*
X228873Y166487D01*
X228970Y166417D01*
X229068Y166350D01*
X229169Y166286D01*
X229273Y166226D01*
X229378Y166169D01*
X229485Y166116D01*
X229593Y166066D01*
X229703Y166020D01*
X229815Y165978D01*
X229928Y165939D01*
X230042Y165904D01*
X230157Y165873D01*
X230274Y165845D01*
X230391Y165822D01*
X230508Y165802D01*
X230627Y165786D01*
X230746Y165774D01*
X230865Y165766D01*
X230984Y165762D01*
X231104Y165762D01*
X231223Y165766D01*
X231342Y165774D01*
X231461Y165786D01*
X231580Y165802D01*
X231697Y165822D01*
X231814Y165845D01*
X231931Y165873D01*
X232046Y165904D01*
X232160Y165939D01*
X232273Y165978D01*
X232385Y166020D01*
X232495Y166066D01*
X232603Y166116D01*
X232710Y166169D01*
X232815Y166226D01*
X232919Y166286D01*
X233020Y166350D01*
X233118Y166417D01*
X233215Y166487D01*
X233309Y166561D01*
X233401Y166637D01*
X233490Y166717D01*
X233577Y166799D01*
X233661Y166884D01*
X233742Y166972D01*
X233819Y167062D01*
X233894Y167155D01*
X233966Y167251D01*
X234035Y167349D01*
X234100Y167449D01*
X234162Y167551D01*
X234221Y167655D01*
X234276Y167761D01*
X234327Y167869D01*
X234375Y167978D01*
X234420Y168089D01*
X234460Y168201D01*
X234497Y168315D01*
X234530Y168430D01*
X234560Y168545D01*
X234585Y168662D01*
X234607Y168779D01*
X234624Y168898D01*
X234638Y169016D01*
X234648Y169135D01*
X234654Y169255D01*
X234656Y169374D01*
X222407Y176599D02*
X216988Y176599D01*
X220600Y182018D02*
X220600Y168471D01*
X220598Y168370D01*
X220592Y168269D01*
X220583Y168168D01*
X220570Y168067D01*
X220553Y167967D01*
X220532Y167868D01*
X220508Y167770D01*
X220480Y167673D01*
X220448Y167576D01*
X220413Y167481D01*
X220374Y167388D01*
X220332Y167296D01*
X220286Y167205D01*
X220237Y167116D01*
X220185Y167030D01*
X220129Y166945D01*
X220071Y166862D01*
X220009Y166782D01*
X219944Y166704D01*
X219877Y166628D01*
X219807Y166555D01*
X219734Y166485D01*
X219658Y166418D01*
X219580Y166353D01*
X219500Y166291D01*
X219417Y166233D01*
X219332Y166177D01*
X219246Y166125D01*
X219157Y166076D01*
X219066Y166030D01*
X218974Y165988D01*
X218881Y165949D01*
X218786Y165914D01*
X218689Y165882D01*
X218592Y165854D01*
X218494Y165830D01*
X218395Y165809D01*
X218295Y165792D01*
X218194Y165779D01*
X218093Y165770D01*
X217992Y165764D01*
X217891Y165762D01*
X216988Y165762D01*
X197836Y165762D02*
X197718Y165764D01*
X197600Y165770D01*
X197482Y165779D01*
X197365Y165793D01*
X197248Y165810D01*
X197131Y165831D01*
X197016Y165856D01*
X196901Y165885D01*
X196787Y165918D01*
X196675Y165954D01*
X196564Y165994D01*
X196454Y166037D01*
X196345Y166084D01*
X196238Y166134D01*
X196133Y166189D01*
X196030Y166246D01*
X195929Y166307D01*
X195829Y166371D01*
X195732Y166438D01*
X195637Y166508D01*
X195545Y166582D01*
X195454Y166658D01*
X195367Y166738D01*
X195282Y166820D01*
X195200Y166905D01*
X195120Y166992D01*
X195044Y167083D01*
X194970Y167175D01*
X194900Y167270D01*
X194833Y167367D01*
X194769Y167467D01*
X194708Y167568D01*
X194651Y167671D01*
X194596Y167776D01*
X194546Y167883D01*
X194499Y167992D01*
X194456Y168102D01*
X194416Y168213D01*
X194380Y168325D01*
X194347Y168439D01*
X194318Y168554D01*
X194293Y168669D01*
X194272Y168786D01*
X194255Y168903D01*
X194241Y169020D01*
X194232Y169138D01*
X194226Y169256D01*
X194224Y169374D01*
X197836Y165762D02*
X198019Y165764D01*
X198201Y165771D01*
X198383Y165782D01*
X198565Y165797D01*
X198747Y165817D01*
X198928Y165841D01*
X199108Y165869D01*
X199288Y165901D01*
X199467Y165938D01*
X199644Y165979D01*
X199821Y166025D01*
X199997Y166074D01*
X200172Y166128D01*
X200345Y166186D01*
X200516Y166248D01*
X200687Y166314D01*
X200855Y166385D01*
X201022Y166459D01*
X201187Y166537D01*
X201350Y166619D01*
X201511Y166705D01*
X201670Y166795D01*
X201827Y166889D01*
X201981Y166986D01*
X202133Y167087D01*
X202283Y167192D01*
X202430Y167300D01*
X202574Y167411D01*
X202716Y167526D01*
X202855Y167645D01*
X202991Y167767D01*
X203124Y167892D01*
X203254Y168020D01*
X202803Y178406D02*
X202801Y178524D01*
X202795Y178642D01*
X202786Y178760D01*
X202772Y178877D01*
X202755Y178994D01*
X202734Y179111D01*
X202709Y179226D01*
X202680Y179341D01*
X202647Y179455D01*
X202611Y179567D01*
X202571Y179678D01*
X202528Y179788D01*
X202481Y179897D01*
X202431Y180004D01*
X202376Y180109D01*
X202319Y180212D01*
X202258Y180313D01*
X202194Y180413D01*
X202127Y180510D01*
X202057Y180605D01*
X201983Y180697D01*
X201907Y180788D01*
X201827Y180875D01*
X201745Y180960D01*
X201660Y181042D01*
X201573Y181122D01*
X201482Y181198D01*
X201390Y181272D01*
X201295Y181342D01*
X201198Y181409D01*
X201098Y181473D01*
X200997Y181534D01*
X200894Y181591D01*
X200789Y181646D01*
X200682Y181696D01*
X200573Y181743D01*
X200463Y181786D01*
X200352Y181826D01*
X200240Y181862D01*
X200126Y181895D01*
X200011Y181924D01*
X199896Y181949D01*
X199779Y181970D01*
X199662Y181987D01*
X199545Y182001D01*
X199427Y182010D01*
X199309Y182016D01*
X199191Y182018D01*
X199030Y182016D01*
X198868Y182010D01*
X198707Y182001D01*
X198546Y181987D01*
X198386Y181970D01*
X198226Y181949D01*
X198066Y181924D01*
X197907Y181895D01*
X197749Y181863D01*
X197592Y181827D01*
X197436Y181787D01*
X197280Y181743D01*
X197126Y181695D01*
X196973Y181644D01*
X196821Y181590D01*
X196670Y181531D01*
X196521Y181470D01*
X196374Y181404D01*
X196228Y181335D01*
X196083Y181263D01*
X195941Y181187D01*
X195800Y181108D01*
X195661Y181026D01*
X195525Y180940D01*
X195390Y180851D01*
X195257Y180759D01*
X195127Y180663D01*
X200998Y175245D02*
X201099Y175307D01*
X201199Y175372D01*
X201296Y175441D01*
X201391Y175513D01*
X201484Y175587D01*
X201574Y175665D01*
X201662Y175746D01*
X201747Y175829D01*
X201829Y175915D01*
X201908Y176004D01*
X201985Y176095D01*
X202058Y176189D01*
X202129Y176285D01*
X202196Y176383D01*
X202260Y176483D01*
X202321Y176586D01*
X202378Y176690D01*
X202432Y176796D01*
X202482Y176904D01*
X202529Y177013D01*
X202573Y177124D01*
X202613Y177236D01*
X202649Y177350D01*
X202681Y177464D01*
X202710Y177580D01*
X202735Y177696D01*
X202756Y177813D01*
X202773Y177931D01*
X202787Y178049D01*
X202796Y178168D01*
X202802Y178287D01*
X202804Y178406D01*
X196030Y172535D02*
X195929Y172473D01*
X195829Y172408D01*
X195732Y172339D01*
X195637Y172267D01*
X195544Y172193D01*
X195454Y172115D01*
X195366Y172034D01*
X195281Y171951D01*
X195199Y171865D01*
X195120Y171776D01*
X195043Y171685D01*
X194970Y171591D01*
X194899Y171495D01*
X194832Y171397D01*
X194768Y171297D01*
X194707Y171194D01*
X194650Y171090D01*
X194596Y170984D01*
X194546Y170876D01*
X194499Y170767D01*
X194455Y170656D01*
X194415Y170544D01*
X194379Y170430D01*
X194347Y170316D01*
X194318Y170200D01*
X194293Y170084D01*
X194272Y169967D01*
X194255Y169849D01*
X194241Y169731D01*
X194232Y169612D01*
X194226Y169493D01*
X194224Y169374D01*
X196030Y172535D02*
X200997Y175245D01*
X189581Y176599D02*
X184163Y176599D01*
X187775Y182018D02*
X187775Y168471D01*
X187773Y168370D01*
X187767Y168269D01*
X187758Y168168D01*
X187745Y168067D01*
X187728Y167967D01*
X187707Y167868D01*
X187683Y167770D01*
X187655Y167673D01*
X187623Y167576D01*
X187588Y167481D01*
X187549Y167388D01*
X187507Y167296D01*
X187461Y167205D01*
X187412Y167116D01*
X187360Y167030D01*
X187304Y166945D01*
X187246Y166862D01*
X187184Y166782D01*
X187119Y166704D01*
X187052Y166628D01*
X186982Y166555D01*
X186909Y166485D01*
X186833Y166418D01*
X186755Y166353D01*
X186675Y166291D01*
X186592Y166233D01*
X186507Y166177D01*
X186421Y166125D01*
X186332Y166076D01*
X186241Y166030D01*
X186149Y165988D01*
X186056Y165949D01*
X185961Y165914D01*
X185864Y165882D01*
X185767Y165854D01*
X185669Y165830D01*
X185570Y165809D01*
X185470Y165792D01*
X185369Y165779D01*
X185268Y165770D01*
X185167Y165764D01*
X185066Y165762D01*
X184163Y165762D01*
X175675Y165762D02*
X171159Y165762D01*
X175675Y165762D02*
X175776Y165764D01*
X175877Y165770D01*
X175978Y165779D01*
X176079Y165792D01*
X176179Y165809D01*
X176278Y165830D01*
X176376Y165854D01*
X176473Y165882D01*
X176570Y165914D01*
X176665Y165949D01*
X176758Y165988D01*
X176850Y166030D01*
X176941Y166076D01*
X177030Y166125D01*
X177116Y166177D01*
X177201Y166233D01*
X177284Y166291D01*
X177364Y166353D01*
X177442Y166418D01*
X177518Y166485D01*
X177591Y166555D01*
X177661Y166628D01*
X177728Y166704D01*
X177793Y166782D01*
X177855Y166862D01*
X177913Y166945D01*
X177969Y167030D01*
X178021Y167116D01*
X178070Y167205D01*
X178116Y167296D01*
X178158Y167388D01*
X178197Y167481D01*
X178232Y167576D01*
X178264Y167673D01*
X178292Y167770D01*
X178316Y167868D01*
X178337Y167967D01*
X178354Y168067D01*
X178367Y168168D01*
X178376Y168269D01*
X178382Y168370D01*
X178384Y168471D01*
X178384Y172987D01*
X178382Y173106D01*
X178376Y173226D01*
X178366Y173345D01*
X178352Y173463D01*
X178335Y173582D01*
X178313Y173699D01*
X178288Y173816D01*
X178258Y173931D01*
X178225Y174046D01*
X178188Y174160D01*
X178148Y174272D01*
X178103Y174383D01*
X178055Y174492D01*
X178004Y174600D01*
X177949Y174706D01*
X177890Y174810D01*
X177828Y174912D01*
X177763Y175012D01*
X177694Y175110D01*
X177622Y175206D01*
X177547Y175299D01*
X177470Y175389D01*
X177389Y175477D01*
X177305Y175562D01*
X177218Y175644D01*
X177129Y175724D01*
X177037Y175800D01*
X176943Y175874D01*
X176846Y175944D01*
X176748Y176011D01*
X176647Y176075D01*
X176543Y176135D01*
X176438Y176192D01*
X176331Y176245D01*
X176223Y176295D01*
X176113Y176341D01*
X176001Y176383D01*
X175888Y176422D01*
X175774Y176457D01*
X175659Y176488D01*
X175542Y176516D01*
X175425Y176539D01*
X175308Y176559D01*
X175189Y176575D01*
X175070Y176587D01*
X174951Y176595D01*
X174832Y176599D01*
X174712Y176599D01*
X174593Y176595D01*
X174474Y176587D01*
X174355Y176575D01*
X174236Y176559D01*
X174119Y176539D01*
X174002Y176516D01*
X173885Y176488D01*
X173770Y176457D01*
X173656Y176422D01*
X173543Y176383D01*
X173431Y176341D01*
X173321Y176295D01*
X173213Y176245D01*
X173106Y176192D01*
X173001Y176135D01*
X172897Y176075D01*
X172796Y176011D01*
X172698Y175944D01*
X172601Y175874D01*
X172507Y175800D01*
X172415Y175724D01*
X172326Y175644D01*
X172239Y175562D01*
X172155Y175477D01*
X172074Y175389D01*
X171997Y175299D01*
X171922Y175206D01*
X171850Y175110D01*
X171781Y175012D01*
X171716Y174912D01*
X171654Y174810D01*
X171595Y174706D01*
X171540Y174600D01*
X171489Y174492D01*
X171441Y174383D01*
X171396Y174272D01*
X171356Y174160D01*
X171319Y174046D01*
X171286Y173931D01*
X171256Y173816D01*
X171231Y173699D01*
X171209Y173582D01*
X171192Y173463D01*
X171178Y173345D01*
X171168Y173226D01*
X171162Y173106D01*
X171160Y172987D01*
X171159Y172987D02*
X171159Y171181D01*
X178384Y171181D01*
X162128Y165762D02*
X157612Y165762D01*
X162128Y165762D02*
X162229Y165764D01*
X162330Y165770D01*
X162431Y165779D01*
X162532Y165792D01*
X162632Y165809D01*
X162731Y165830D01*
X162829Y165854D01*
X162926Y165882D01*
X163023Y165914D01*
X163118Y165949D01*
X163211Y165988D01*
X163303Y166030D01*
X163394Y166076D01*
X163483Y166125D01*
X163569Y166177D01*
X163654Y166233D01*
X163737Y166291D01*
X163817Y166353D01*
X163895Y166418D01*
X163971Y166485D01*
X164044Y166555D01*
X164114Y166628D01*
X164181Y166704D01*
X164246Y166782D01*
X164308Y166862D01*
X164366Y166945D01*
X164422Y167030D01*
X164474Y167116D01*
X164523Y167205D01*
X164569Y167296D01*
X164611Y167388D01*
X164650Y167481D01*
X164685Y167576D01*
X164717Y167673D01*
X164745Y167770D01*
X164769Y167868D01*
X164790Y167967D01*
X164807Y168067D01*
X164820Y168168D01*
X164829Y168269D01*
X164835Y168370D01*
X164837Y168471D01*
X164837Y172987D01*
X164835Y173106D01*
X164829Y173226D01*
X164819Y173345D01*
X164805Y173463D01*
X164788Y173582D01*
X164766Y173699D01*
X164741Y173816D01*
X164711Y173931D01*
X164678Y174046D01*
X164641Y174160D01*
X164601Y174272D01*
X164556Y174383D01*
X164508Y174492D01*
X164457Y174600D01*
X164402Y174706D01*
X164343Y174810D01*
X164281Y174912D01*
X164216Y175012D01*
X164147Y175110D01*
X164075Y175206D01*
X164000Y175299D01*
X163923Y175389D01*
X163842Y175477D01*
X163758Y175562D01*
X163671Y175644D01*
X163582Y175724D01*
X163490Y175800D01*
X163396Y175874D01*
X163299Y175944D01*
X163201Y176011D01*
X163100Y176075D01*
X162996Y176135D01*
X162891Y176192D01*
X162784Y176245D01*
X162676Y176295D01*
X162566Y176341D01*
X162454Y176383D01*
X162341Y176422D01*
X162227Y176457D01*
X162112Y176488D01*
X161995Y176516D01*
X161878Y176539D01*
X161761Y176559D01*
X161642Y176575D01*
X161523Y176587D01*
X161404Y176595D01*
X161285Y176599D01*
X161165Y176599D01*
X161046Y176595D01*
X160927Y176587D01*
X160808Y176575D01*
X160689Y176559D01*
X160572Y176539D01*
X160455Y176516D01*
X160338Y176488D01*
X160223Y176457D01*
X160109Y176422D01*
X159996Y176383D01*
X159884Y176341D01*
X159774Y176295D01*
X159666Y176245D01*
X159559Y176192D01*
X159454Y176135D01*
X159350Y176075D01*
X159249Y176011D01*
X159151Y175944D01*
X159054Y175874D01*
X158960Y175800D01*
X158868Y175724D01*
X158779Y175644D01*
X158692Y175562D01*
X158608Y175477D01*
X158527Y175389D01*
X158450Y175299D01*
X158375Y175206D01*
X158303Y175110D01*
X158234Y175012D01*
X158169Y174912D01*
X158107Y174810D01*
X158048Y174706D01*
X157993Y174600D01*
X157942Y174492D01*
X157894Y174383D01*
X157849Y174272D01*
X157809Y174160D01*
X157772Y174046D01*
X157739Y173931D01*
X157709Y173816D01*
X157684Y173699D01*
X157662Y173582D01*
X157645Y173463D01*
X157631Y173345D01*
X157621Y173226D01*
X157615Y173106D01*
X157613Y172987D01*
X157612Y172987D02*
X157612Y171181D01*
X164837Y171181D01*
X150684Y165762D02*
X150684Y176599D01*
X145265Y176599D01*
X145265Y174793D01*
X140383Y176599D02*
X140383Y165762D01*
X140835Y181115D02*
X140835Y182018D01*
X139931Y182018D01*
X139931Y181115D01*
X140835Y181115D01*
X133575Y176599D02*
X133575Y165762D01*
X133575Y176599D02*
X129059Y176599D01*
X128955Y176597D01*
X128852Y176591D01*
X128748Y176581D01*
X128645Y176567D01*
X128543Y176549D01*
X128442Y176528D01*
X128341Y176502D01*
X128242Y176473D01*
X128143Y176440D01*
X128046Y176403D01*
X127951Y176362D01*
X127857Y176318D01*
X127765Y176270D01*
X127675Y176219D01*
X127586Y176164D01*
X127500Y176106D01*
X127417Y176044D01*
X127335Y175980D01*
X127257Y175912D01*
X127181Y175842D01*
X127107Y175769D01*
X127037Y175692D01*
X126969Y175614D01*
X126905Y175532D01*
X126843Y175449D01*
X126785Y175363D01*
X126730Y175274D01*
X126679Y175184D01*
X126631Y175092D01*
X126587Y174998D01*
X126546Y174903D01*
X126509Y174806D01*
X126476Y174707D01*
X126447Y174608D01*
X126421Y174507D01*
X126400Y174406D01*
X126382Y174304D01*
X126368Y174201D01*
X126358Y174097D01*
X126352Y173994D01*
X126350Y173890D01*
X126350Y165762D01*
X116871Y165762D02*
X112355Y165762D01*
X116871Y165762D02*
X116972Y165764D01*
X117073Y165770D01*
X117174Y165779D01*
X117275Y165792D01*
X117375Y165809D01*
X117474Y165830D01*
X117572Y165854D01*
X117669Y165882D01*
X117766Y165914D01*
X117861Y165949D01*
X117954Y165988D01*
X118046Y166030D01*
X118137Y166076D01*
X118225Y166125D01*
X118312Y166177D01*
X118397Y166233D01*
X118480Y166291D01*
X118560Y166353D01*
X118638Y166418D01*
X118714Y166485D01*
X118787Y166555D01*
X118857Y166628D01*
X118924Y166704D01*
X118989Y166782D01*
X119051Y166862D01*
X119109Y166945D01*
X119165Y167030D01*
X119217Y167116D01*
X119266Y167205D01*
X119312Y167296D01*
X119354Y167388D01*
X119393Y167481D01*
X119428Y167576D01*
X119460Y167673D01*
X119488Y167770D01*
X119512Y167868D01*
X119533Y167967D01*
X119550Y168067D01*
X119563Y168168D01*
X119572Y168269D01*
X119578Y168370D01*
X119580Y168471D01*
X119580Y173890D01*
X119578Y173991D01*
X119572Y174092D01*
X119563Y174193D01*
X119550Y174294D01*
X119533Y174394D01*
X119512Y174493D01*
X119488Y174591D01*
X119460Y174688D01*
X119428Y174785D01*
X119393Y174880D01*
X119354Y174973D01*
X119312Y175065D01*
X119266Y175156D01*
X119217Y175245D01*
X119165Y175331D01*
X119109Y175416D01*
X119051Y175499D01*
X118989Y175579D01*
X118924Y175657D01*
X118857Y175733D01*
X118787Y175806D01*
X118714Y175876D01*
X118638Y175943D01*
X118560Y176008D01*
X118480Y176070D01*
X118397Y176128D01*
X118312Y176184D01*
X118226Y176236D01*
X118137Y176285D01*
X118046Y176331D01*
X117954Y176373D01*
X117861Y176412D01*
X117766Y176447D01*
X117669Y176479D01*
X117572Y176507D01*
X117474Y176531D01*
X117375Y176552D01*
X117275Y176569D01*
X117174Y176582D01*
X117073Y176591D01*
X116972Y176597D01*
X116871Y176599D01*
X112355Y176599D01*
X112355Y163053D01*
X112357Y162952D01*
X112363Y162851D01*
X112372Y162750D01*
X112385Y162649D01*
X112402Y162549D01*
X112423Y162450D01*
X112447Y162352D01*
X112475Y162255D01*
X112507Y162158D01*
X112542Y162063D01*
X112581Y161970D01*
X112623Y161878D01*
X112669Y161787D01*
X112718Y161699D01*
X112770Y161612D01*
X112826Y161527D01*
X112884Y161444D01*
X112946Y161364D01*
X113011Y161286D01*
X113078Y161210D01*
X113148Y161137D01*
X113221Y161067D01*
X113297Y161000D01*
X113375Y160935D01*
X113455Y160873D01*
X113538Y160815D01*
X113623Y160759D01*
X113710Y160707D01*
X113798Y160658D01*
X113889Y160612D01*
X113981Y160570D01*
X114074Y160531D01*
X114169Y160496D01*
X114266Y160464D01*
X114363Y160436D01*
X114461Y160412D01*
X114560Y160391D01*
X114660Y160374D01*
X114761Y160361D01*
X114862Y160352D01*
X114963Y160346D01*
X115064Y160344D01*
X115064Y160343D02*
X118677Y160343D01*
X96231Y174793D02*
X91715Y174793D01*
X91715Y174794D02*
X91582Y174792D01*
X91450Y174786D01*
X91318Y174776D01*
X91186Y174763D01*
X91054Y174745D01*
X90924Y174724D01*
X90793Y174699D01*
X90664Y174670D01*
X90536Y174637D01*
X90408Y174601D01*
X90282Y174561D01*
X90157Y174517D01*
X90033Y174469D01*
X89911Y174418D01*
X89790Y174363D01*
X89671Y174305D01*
X89553Y174243D01*
X89438Y174178D01*
X89324Y174109D01*
X89213Y174038D01*
X89104Y173962D01*
X88997Y173884D01*
X88892Y173803D01*
X88790Y173718D01*
X88690Y173631D01*
X88593Y173541D01*
X88498Y173448D01*
X88407Y173352D01*
X88318Y173254D01*
X88232Y173153D01*
X88149Y173049D01*
X88069Y172943D01*
X87993Y172835D01*
X87919Y172725D01*
X87849Y172612D01*
X87782Y172498D01*
X87719Y172381D01*
X87659Y172263D01*
X87602Y172143D01*
X87549Y172021D01*
X87500Y171898D01*
X87454Y171774D01*
X87412Y171648D01*
X87374Y171521D01*
X87339Y171393D01*
X87308Y171264D01*
X87281Y171135D01*
X87258Y171004D01*
X87238Y170873D01*
X87223Y170741D01*
X87211Y170609D01*
X87203Y170477D01*
X87199Y170344D01*
X87199Y170212D01*
X87203Y170079D01*
X87211Y169947D01*
X87223Y169815D01*
X87238Y169683D01*
X87258Y169552D01*
X87281Y169421D01*
X87308Y169292D01*
X87339Y169163D01*
X87374Y169035D01*
X87412Y168908D01*
X87454Y168782D01*
X87500Y168658D01*
X87549Y168535D01*
X87602Y168413D01*
X87659Y168293D01*
X87719Y168175D01*
X87782Y168058D01*
X87849Y167944D01*
X87919Y167831D01*
X87993Y167721D01*
X88069Y167613D01*
X88149Y167507D01*
X88232Y167403D01*
X88318Y167302D01*
X88407Y167204D01*
X88498Y167108D01*
X88593Y167015D01*
X88690Y166925D01*
X88790Y166838D01*
X88892Y166753D01*
X88997Y166672D01*
X89104Y166594D01*
X89213Y166518D01*
X89324Y166447D01*
X89438Y166378D01*
X89553Y166313D01*
X89671Y166251D01*
X89790Y166193D01*
X89911Y166138D01*
X90033Y166087D01*
X90157Y166039D01*
X90282Y165995D01*
X90408Y165955D01*
X90536Y165919D01*
X90664Y165886D01*
X90793Y165857D01*
X90924Y165832D01*
X91054Y165811D01*
X91186Y165793D01*
X91318Y165780D01*
X91450Y165770D01*
X91582Y165764D01*
X91715Y165762D01*
X96231Y165762D01*
X96231Y182018D01*
X91715Y182018D01*
X91596Y182016D01*
X91476Y182010D01*
X91357Y182000D01*
X91239Y181986D01*
X91120Y181969D01*
X91003Y181947D01*
X90886Y181922D01*
X90771Y181892D01*
X90656Y181859D01*
X90542Y181822D01*
X90430Y181782D01*
X90319Y181737D01*
X90210Y181689D01*
X90102Y181638D01*
X89996Y181583D01*
X89892Y181524D01*
X89790Y181462D01*
X89690Y181397D01*
X89592Y181328D01*
X89496Y181256D01*
X89403Y181181D01*
X89313Y181104D01*
X89225Y181023D01*
X89140Y180939D01*
X89058Y180852D01*
X88978Y180763D01*
X88902Y180671D01*
X88828Y180577D01*
X88758Y180480D01*
X88691Y180382D01*
X88627Y180281D01*
X88567Y180177D01*
X88510Y180072D01*
X88457Y179965D01*
X88407Y179857D01*
X88361Y179747D01*
X88319Y179635D01*
X88280Y179522D01*
X88245Y179408D01*
X88214Y179293D01*
X88186Y179176D01*
X88163Y179059D01*
X88143Y178942D01*
X88127Y178823D01*
X88115Y178704D01*
X88107Y178585D01*
X88103Y178466D01*
X88103Y178346D01*
X88107Y178227D01*
X88115Y178108D01*
X88127Y177989D01*
X88143Y177870D01*
X88163Y177753D01*
X88186Y177636D01*
X88214Y177519D01*
X88245Y177404D01*
X88280Y177290D01*
X88319Y177177D01*
X88361Y177065D01*
X88407Y176955D01*
X88457Y176847D01*
X88510Y176740D01*
X88567Y176635D01*
X88627Y176531D01*
X88691Y176430D01*
X88758Y176332D01*
X88828Y176235D01*
X88902Y176141D01*
X88978Y176049D01*
X89058Y175960D01*
X89140Y175873D01*
X89225Y175789D01*
X89313Y175708D01*
X89403Y175631D01*
X89496Y175556D01*
X89592Y175484D01*
X89690Y175415D01*
X89790Y175350D01*
X89892Y175288D01*
X89996Y175229D01*
X90102Y175174D01*
X90210Y175123D01*
X90319Y175075D01*
X90430Y175030D01*
X90542Y174990D01*
X90656Y174953D01*
X90771Y174920D01*
X90886Y174890D01*
X91003Y174865D01*
X91120Y174843D01*
X91239Y174826D01*
X91357Y174812D01*
X91476Y174802D01*
X91596Y174796D01*
X91715Y174794D01*
X81471Y172987D02*
X81471Y169374D01*
X81470Y172987D02*
X81468Y173106D01*
X81462Y173226D01*
X81452Y173345D01*
X81438Y173463D01*
X81421Y173582D01*
X81399Y173699D01*
X81374Y173816D01*
X81344Y173931D01*
X81311Y174046D01*
X81274Y174160D01*
X81234Y174272D01*
X81189Y174383D01*
X81141Y174492D01*
X81090Y174600D01*
X81035Y174706D01*
X80976Y174810D01*
X80914Y174912D01*
X80849Y175012D01*
X80780Y175110D01*
X80708Y175206D01*
X80633Y175299D01*
X80556Y175389D01*
X80475Y175477D01*
X80391Y175562D01*
X80304Y175644D01*
X80215Y175724D01*
X80123Y175800D01*
X80029Y175874D01*
X79932Y175944D01*
X79834Y176011D01*
X79733Y176075D01*
X79629Y176135D01*
X79524Y176192D01*
X79417Y176245D01*
X79309Y176295D01*
X79199Y176341D01*
X79087Y176383D01*
X78974Y176422D01*
X78860Y176457D01*
X78745Y176488D01*
X78628Y176516D01*
X78511Y176539D01*
X78394Y176559D01*
X78275Y176575D01*
X78156Y176587D01*
X78037Y176595D01*
X77918Y176599D01*
X77798Y176599D01*
X77679Y176595D01*
X77560Y176587D01*
X77441Y176575D01*
X77322Y176559D01*
X77205Y176539D01*
X77088Y176516D01*
X76971Y176488D01*
X76856Y176457D01*
X76742Y176422D01*
X76629Y176383D01*
X76517Y176341D01*
X76407Y176295D01*
X76299Y176245D01*
X76192Y176192D01*
X76087Y176135D01*
X75983Y176075D01*
X75882Y176011D01*
X75784Y175944D01*
X75687Y175874D01*
X75593Y175800D01*
X75501Y175724D01*
X75412Y175644D01*
X75325Y175562D01*
X75241Y175477D01*
X75160Y175389D01*
X75083Y175299D01*
X75008Y175206D01*
X74936Y175110D01*
X74867Y175012D01*
X74802Y174912D01*
X74740Y174810D01*
X74681Y174706D01*
X74626Y174600D01*
X74575Y174492D01*
X74527Y174383D01*
X74482Y174272D01*
X74442Y174160D01*
X74405Y174046D01*
X74372Y173931D01*
X74342Y173816D01*
X74317Y173699D01*
X74295Y173582D01*
X74278Y173463D01*
X74264Y173345D01*
X74254Y173226D01*
X74248Y173106D01*
X74246Y172987D01*
X74246Y169374D01*
X74248Y169255D01*
X74254Y169135D01*
X74264Y169016D01*
X74278Y168898D01*
X74295Y168779D01*
X74317Y168662D01*
X74342Y168545D01*
X74372Y168430D01*
X74405Y168315D01*
X74442Y168201D01*
X74482Y168089D01*
X74527Y167978D01*
X74575Y167869D01*
X74626Y167761D01*
X74681Y167655D01*
X74740Y167551D01*
X74802Y167449D01*
X74867Y167349D01*
X74936Y167251D01*
X75008Y167155D01*
X75083Y167062D01*
X75160Y166972D01*
X75241Y166884D01*
X75325Y166799D01*
X75412Y166717D01*
X75501Y166637D01*
X75593Y166561D01*
X75687Y166487D01*
X75784Y166417D01*
X75882Y166350D01*
X75983Y166286D01*
X76087Y166226D01*
X76192Y166169D01*
X76299Y166116D01*
X76407Y166066D01*
X76517Y166020D01*
X76629Y165978D01*
X76742Y165939D01*
X76856Y165904D01*
X76971Y165873D01*
X77088Y165845D01*
X77205Y165822D01*
X77322Y165802D01*
X77441Y165786D01*
X77560Y165774D01*
X77679Y165766D01*
X77798Y165762D01*
X77918Y165762D01*
X78037Y165766D01*
X78156Y165774D01*
X78275Y165786D01*
X78394Y165802D01*
X78511Y165822D01*
X78628Y165845D01*
X78745Y165873D01*
X78860Y165904D01*
X78974Y165939D01*
X79087Y165978D01*
X79199Y166020D01*
X79309Y166066D01*
X79417Y166116D01*
X79524Y166169D01*
X79629Y166226D01*
X79733Y166286D01*
X79834Y166350D01*
X79932Y166417D01*
X80029Y166487D01*
X80123Y166561D01*
X80215Y166637D01*
X80304Y166717D01*
X80391Y166799D01*
X80475Y166884D01*
X80556Y166972D01*
X80633Y167062D01*
X80708Y167155D01*
X80780Y167251D01*
X80849Y167349D01*
X80914Y167449D01*
X80976Y167551D01*
X81035Y167655D01*
X81090Y167761D01*
X81141Y167869D01*
X81189Y167978D01*
X81234Y168089D01*
X81274Y168201D01*
X81311Y168315D01*
X81344Y168430D01*
X81374Y168545D01*
X81399Y168662D01*
X81421Y168779D01*
X81438Y168898D01*
X81452Y169016D01*
X81462Y169135D01*
X81468Y169255D01*
X81470Y169374D01*
X64836Y172084D02*
X60772Y172084D01*
X64836Y172084D02*
X64948Y172082D01*
X65059Y172076D01*
X65170Y172066D01*
X65281Y172053D01*
X65391Y172035D01*
X65500Y172013D01*
X65609Y171988D01*
X65717Y171959D01*
X65823Y171926D01*
X65929Y171889D01*
X66033Y171849D01*
X66135Y171805D01*
X66236Y171757D01*
X66335Y171706D01*
X66433Y171651D01*
X66528Y171593D01*
X66621Y171532D01*
X66712Y171467D01*
X66801Y171399D01*
X66887Y171328D01*
X66970Y171255D01*
X67051Y171178D01*
X67130Y171098D01*
X67205Y171016D01*
X67277Y170931D01*
X67347Y170844D01*
X67413Y170754D01*
X67476Y170662D01*
X67536Y170567D01*
X67592Y170471D01*
X67645Y170373D01*
X67694Y170273D01*
X67740Y170171D01*
X67782Y170068D01*
X67821Y169963D01*
X67856Y169857D01*
X67887Y169750D01*
X67914Y169642D01*
X67938Y169533D01*
X67957Y169423D01*
X67973Y169313D01*
X67985Y169202D01*
X67993Y169090D01*
X67997Y168979D01*
X67997Y168867D01*
X67993Y168756D01*
X67985Y168644D01*
X67973Y168533D01*
X67957Y168423D01*
X67938Y168313D01*
X67914Y168204D01*
X67887Y168096D01*
X67856Y167989D01*
X67821Y167883D01*
X67782Y167778D01*
X67740Y167675D01*
X67694Y167573D01*
X67645Y167473D01*
X67592Y167375D01*
X67536Y167279D01*
X67476Y167184D01*
X67413Y167092D01*
X67347Y167002D01*
X67277Y166915D01*
X67205Y166830D01*
X67130Y166748D01*
X67051Y166668D01*
X66970Y166591D01*
X66887Y166518D01*
X66801Y166447D01*
X66712Y166379D01*
X66621Y166314D01*
X66528Y166253D01*
X66433Y166195D01*
X66335Y166140D01*
X66236Y166089D01*
X66135Y166041D01*
X66033Y165997D01*
X65929Y165957D01*
X65823Y165920D01*
X65717Y165887D01*
X65609Y165858D01*
X65500Y165833D01*
X65391Y165811D01*
X65281Y165793D01*
X65170Y165780D01*
X65059Y165770D01*
X64948Y165764D01*
X64836Y165762D01*
X60772Y165762D01*
X60772Y173890D01*
X60774Y173991D01*
X60780Y174092D01*
X60789Y174193D01*
X60802Y174294D01*
X60819Y174394D01*
X60840Y174493D01*
X60864Y174591D01*
X60892Y174688D01*
X60924Y174785D01*
X60959Y174880D01*
X60998Y174973D01*
X61040Y175065D01*
X61086Y175156D01*
X61135Y175245D01*
X61187Y175331D01*
X61243Y175416D01*
X61301Y175499D01*
X61363Y175579D01*
X61428Y175657D01*
X61495Y175733D01*
X61565Y175806D01*
X61638Y175876D01*
X61714Y175943D01*
X61792Y176008D01*
X61872Y176070D01*
X61955Y176128D01*
X62040Y176184D01*
X62127Y176236D01*
X62215Y176285D01*
X62306Y176331D01*
X62398Y176373D01*
X62491Y176412D01*
X62586Y176447D01*
X62683Y176479D01*
X62780Y176507D01*
X62878Y176531D01*
X62977Y176552D01*
X63077Y176569D01*
X63178Y176582D01*
X63279Y176591D01*
X63380Y176597D01*
X63481Y176599D01*
X67094Y176599D01*
X53250Y176599D02*
X53250Y165762D01*
X53250Y176599D02*
X47831Y176599D01*
X47831Y174793D01*
X35762Y182018D02*
X35762Y165762D01*
X40278Y165762D01*
X40379Y165764D01*
X40480Y165770D01*
X40581Y165779D01*
X40682Y165792D01*
X40782Y165809D01*
X40881Y165830D01*
X40979Y165854D01*
X41076Y165882D01*
X41173Y165914D01*
X41268Y165949D01*
X41361Y165988D01*
X41453Y166030D01*
X41544Y166076D01*
X41632Y166125D01*
X41719Y166177D01*
X41804Y166233D01*
X41887Y166291D01*
X41967Y166353D01*
X42045Y166418D01*
X42121Y166485D01*
X42194Y166555D01*
X42264Y166628D01*
X42331Y166704D01*
X42396Y166782D01*
X42458Y166862D01*
X42516Y166945D01*
X42572Y167030D01*
X42624Y167116D01*
X42673Y167205D01*
X42719Y167296D01*
X42761Y167388D01*
X42800Y167481D01*
X42835Y167576D01*
X42867Y167673D01*
X42895Y167770D01*
X42919Y167868D01*
X42940Y167967D01*
X42957Y168067D01*
X42970Y168168D01*
X42979Y168269D01*
X42985Y168370D01*
X42987Y168471D01*
X42987Y173890D01*
X42985Y173991D01*
X42979Y174092D01*
X42970Y174193D01*
X42957Y174294D01*
X42940Y174394D01*
X42919Y174493D01*
X42895Y174591D01*
X42867Y174688D01*
X42835Y174785D01*
X42800Y174880D01*
X42761Y174973D01*
X42719Y175065D01*
X42673Y175156D01*
X42624Y175245D01*
X42572Y175331D01*
X42516Y175416D01*
X42458Y175499D01*
X42396Y175579D01*
X42331Y175657D01*
X42264Y175733D01*
X42194Y175806D01*
X42121Y175876D01*
X42045Y175943D01*
X41967Y176008D01*
X41887Y176070D01*
X41804Y176128D01*
X41719Y176184D01*
X41633Y176236D01*
X41544Y176285D01*
X41453Y176331D01*
X41361Y176373D01*
X41268Y176412D01*
X41173Y176447D01*
X41076Y176479D01*
X40979Y176507D01*
X40881Y176531D01*
X40782Y176552D01*
X40682Y176569D01*
X40581Y176582D01*
X40480Y176591D01*
X40379Y176597D01*
X40278Y176599D01*
X35762Y176599D01*
X283197Y122018D02*
X283197Y105762D01*
X283197Y122018D02*
X278682Y122018D01*
X278549Y122016D01*
X278417Y122010D01*
X278285Y122000D01*
X278153Y121987D01*
X278021Y121969D01*
X277891Y121948D01*
X277760Y121923D01*
X277631Y121894D01*
X277503Y121861D01*
X277375Y121825D01*
X277249Y121785D01*
X277124Y121741D01*
X277000Y121693D01*
X276878Y121642D01*
X276757Y121587D01*
X276638Y121529D01*
X276520Y121467D01*
X276405Y121402D01*
X276291Y121333D01*
X276180Y121262D01*
X276071Y121186D01*
X275964Y121108D01*
X275859Y121027D01*
X275757Y120942D01*
X275657Y120855D01*
X275560Y120765D01*
X275465Y120672D01*
X275374Y120576D01*
X275285Y120478D01*
X275199Y120377D01*
X275116Y120273D01*
X275036Y120167D01*
X274960Y120059D01*
X274886Y119949D01*
X274816Y119836D01*
X274749Y119722D01*
X274686Y119605D01*
X274626Y119487D01*
X274569Y119367D01*
X274516Y119245D01*
X274467Y119122D01*
X274421Y118998D01*
X274379Y118872D01*
X274341Y118745D01*
X274306Y118617D01*
X274275Y118488D01*
X274248Y118359D01*
X274225Y118228D01*
X274205Y118097D01*
X274190Y117965D01*
X274178Y117833D01*
X274170Y117701D01*
X274166Y117568D01*
X274166Y117436D01*
X274170Y117303D01*
X274178Y117171D01*
X274190Y117039D01*
X274205Y116907D01*
X274225Y116776D01*
X274248Y116645D01*
X274275Y116516D01*
X274306Y116387D01*
X274341Y116259D01*
X274379Y116132D01*
X274421Y116006D01*
X274467Y115882D01*
X274516Y115759D01*
X274569Y115637D01*
X274626Y115517D01*
X274686Y115399D01*
X274749Y115282D01*
X274816Y115168D01*
X274886Y115055D01*
X274960Y114945D01*
X275036Y114837D01*
X275116Y114731D01*
X275199Y114627D01*
X275285Y114526D01*
X275374Y114428D01*
X275465Y114332D01*
X275560Y114239D01*
X275657Y114149D01*
X275757Y114062D01*
X275859Y113977D01*
X275964Y113896D01*
X276071Y113818D01*
X276180Y113742D01*
X276291Y113671D01*
X276405Y113602D01*
X276520Y113537D01*
X276638Y113475D01*
X276757Y113417D01*
X276878Y113362D01*
X277000Y113311D01*
X277124Y113263D01*
X277249Y113219D01*
X277375Y113179D01*
X277503Y113143D01*
X277631Y113110D01*
X277760Y113081D01*
X277891Y113056D01*
X278021Y113035D01*
X278153Y113017D01*
X278285Y113004D01*
X278417Y112994D01*
X278549Y112988D01*
X278682Y112986D01*
X278682Y112987D02*
X283197Y112987D01*
X277779Y112987D02*
X274166Y105762D01*
X265087Y105762D02*
X260572Y105762D01*
X265087Y105762D02*
X265188Y105764D01*
X265289Y105770D01*
X265390Y105779D01*
X265491Y105792D01*
X265591Y105809D01*
X265690Y105830D01*
X265788Y105854D01*
X265885Y105882D01*
X265982Y105914D01*
X266077Y105949D01*
X266170Y105988D01*
X266262Y106030D01*
X266353Y106076D01*
X266442Y106125D01*
X266528Y106177D01*
X266613Y106233D01*
X266696Y106291D01*
X266776Y106353D01*
X266854Y106418D01*
X266930Y106485D01*
X267003Y106555D01*
X267073Y106628D01*
X267140Y106704D01*
X267205Y106782D01*
X267267Y106862D01*
X267325Y106945D01*
X267381Y107030D01*
X267433Y107116D01*
X267482Y107205D01*
X267528Y107296D01*
X267570Y107388D01*
X267609Y107481D01*
X267644Y107576D01*
X267676Y107673D01*
X267704Y107770D01*
X267728Y107868D01*
X267749Y107967D01*
X267766Y108067D01*
X267779Y108168D01*
X267788Y108269D01*
X267794Y108370D01*
X267796Y108471D01*
X267797Y108471D02*
X267797Y112987D01*
X267796Y112987D02*
X267794Y113106D01*
X267788Y113226D01*
X267778Y113345D01*
X267764Y113463D01*
X267747Y113582D01*
X267725Y113699D01*
X267700Y113816D01*
X267670Y113931D01*
X267637Y114046D01*
X267600Y114160D01*
X267560Y114272D01*
X267515Y114383D01*
X267467Y114492D01*
X267416Y114600D01*
X267361Y114706D01*
X267302Y114810D01*
X267240Y114912D01*
X267175Y115012D01*
X267106Y115110D01*
X267034Y115206D01*
X266959Y115299D01*
X266882Y115389D01*
X266801Y115477D01*
X266717Y115562D01*
X266630Y115644D01*
X266541Y115724D01*
X266449Y115800D01*
X266355Y115874D01*
X266258Y115944D01*
X266160Y116011D01*
X266059Y116075D01*
X265955Y116135D01*
X265850Y116192D01*
X265743Y116245D01*
X265635Y116295D01*
X265525Y116341D01*
X265413Y116383D01*
X265300Y116422D01*
X265186Y116457D01*
X265071Y116488D01*
X264954Y116516D01*
X264837Y116539D01*
X264720Y116559D01*
X264601Y116575D01*
X264482Y116587D01*
X264363Y116595D01*
X264244Y116599D01*
X264124Y116599D01*
X264005Y116595D01*
X263886Y116587D01*
X263767Y116575D01*
X263648Y116559D01*
X263531Y116539D01*
X263414Y116516D01*
X263297Y116488D01*
X263182Y116457D01*
X263068Y116422D01*
X262955Y116383D01*
X262843Y116341D01*
X262733Y116295D01*
X262625Y116245D01*
X262518Y116192D01*
X262413Y116135D01*
X262309Y116075D01*
X262208Y116011D01*
X262110Y115944D01*
X262013Y115874D01*
X261919Y115800D01*
X261827Y115724D01*
X261738Y115644D01*
X261651Y115562D01*
X261567Y115477D01*
X261486Y115389D01*
X261409Y115299D01*
X261334Y115206D01*
X261262Y115110D01*
X261193Y115012D01*
X261128Y114912D01*
X261066Y114810D01*
X261007Y114706D01*
X260952Y114600D01*
X260901Y114492D01*
X260853Y114383D01*
X260808Y114272D01*
X260768Y114160D01*
X260731Y114046D01*
X260698Y113931D01*
X260668Y113816D01*
X260643Y113699D01*
X260621Y113582D01*
X260604Y113463D01*
X260590Y113345D01*
X260580Y113226D01*
X260574Y113106D01*
X260572Y112987D01*
X260572Y111181D01*
X267797Y111181D01*
X254771Y116599D02*
X251158Y105762D01*
X247546Y116599D01*
X241779Y116599D02*
X241779Y105762D01*
X242231Y121115D02*
X242231Y122018D01*
X241328Y122018D01*
X241328Y121115D01*
X242231Y121115D01*
X234137Y112084D02*
X229622Y110278D01*
X234138Y112084D02*
X234226Y112121D01*
X234312Y112162D01*
X234397Y112206D01*
X234480Y112254D01*
X234560Y112305D01*
X234639Y112359D01*
X234715Y112417D01*
X234789Y112477D01*
X234861Y112541D01*
X234929Y112607D01*
X234995Y112677D01*
X235058Y112748D01*
X235119Y112823D01*
X235176Y112899D01*
X235229Y112978D01*
X235280Y113059D01*
X235327Y113142D01*
X235371Y113227D01*
X235411Y113314D01*
X235448Y113402D01*
X235481Y113492D01*
X235511Y113583D01*
X235536Y113675D01*
X235558Y113768D01*
X235576Y113862D01*
X235591Y113956D01*
X235601Y114051D01*
X235607Y114147D01*
X235610Y114242D01*
X235609Y114338D01*
X235603Y114433D01*
X235594Y114529D01*
X235581Y114623D01*
X235565Y114717D01*
X235544Y114811D01*
X235519Y114903D01*
X235491Y114994D01*
X235459Y115084D01*
X235424Y115173D01*
X235385Y115260D01*
X235342Y115346D01*
X235296Y115430D01*
X235246Y115511D01*
X235194Y115591D01*
X235138Y115669D01*
X235078Y115744D01*
X235016Y115816D01*
X234951Y115886D01*
X234883Y115954D01*
X234813Y116018D01*
X234740Y116080D01*
X234664Y116138D01*
X234586Y116194D01*
X234506Y116246D01*
X234424Y116295D01*
X234340Y116340D01*
X234254Y116382D01*
X234167Y116421D01*
X234078Y116456D01*
X233987Y116487D01*
X233896Y116514D01*
X233803Y116538D01*
X233710Y116558D01*
X233616Y116574D01*
X233521Y116586D01*
X233426Y116595D01*
X233330Y116599D01*
X233235Y116600D01*
X232988Y116593D01*
X232742Y116581D01*
X232496Y116563D01*
X232250Y116538D01*
X232006Y116508D01*
X231762Y116472D01*
X231519Y116431D01*
X231277Y116383D01*
X231036Y116329D01*
X230797Y116270D01*
X230559Y116205D01*
X230323Y116134D01*
X230088Y116058D01*
X229855Y115976D01*
X229625Y115888D01*
X229397Y115795D01*
X229170Y115697D01*
X229622Y110277D02*
X229534Y110240D01*
X229448Y110199D01*
X229363Y110155D01*
X229280Y110107D01*
X229200Y110056D01*
X229121Y110002D01*
X229045Y109944D01*
X228971Y109884D01*
X228899Y109820D01*
X228831Y109754D01*
X228765Y109684D01*
X228702Y109613D01*
X228641Y109538D01*
X228584Y109462D01*
X228531Y109383D01*
X228480Y109302D01*
X228433Y109219D01*
X228389Y109134D01*
X228349Y109047D01*
X228312Y108959D01*
X228279Y108869D01*
X228249Y108778D01*
X228224Y108686D01*
X228202Y108593D01*
X228184Y108499D01*
X228169Y108405D01*
X228159Y108310D01*
X228153Y108214D01*
X228150Y108119D01*
X228151Y108023D01*
X228157Y107928D01*
X228166Y107832D01*
X228179Y107738D01*
X228195Y107644D01*
X228216Y107550D01*
X228241Y107458D01*
X228269Y107367D01*
X228301Y107277D01*
X228336Y107188D01*
X228375Y107101D01*
X228418Y107015D01*
X228464Y106931D01*
X228514Y106850D01*
X228566Y106770D01*
X228622Y106692D01*
X228682Y106617D01*
X228744Y106545D01*
X228809Y106475D01*
X228877Y106407D01*
X228947Y106343D01*
X229020Y106281D01*
X229096Y106223D01*
X229174Y106167D01*
X229254Y106115D01*
X229336Y106066D01*
X229420Y106021D01*
X229506Y105979D01*
X229593Y105940D01*
X229682Y105905D01*
X229773Y105874D01*
X229864Y105847D01*
X229957Y105823D01*
X230050Y105803D01*
X230144Y105787D01*
X230239Y105775D01*
X230334Y105766D01*
X230430Y105762D01*
X230525Y105761D01*
X230525Y105762D02*
X230887Y105771D01*
X231249Y105789D01*
X231610Y105816D01*
X231970Y105851D01*
X232330Y105894D01*
X232689Y105946D01*
X233046Y106007D01*
X233401Y106076D01*
X233755Y106153D01*
X234107Y106239D01*
X234457Y106333D01*
X234805Y106436D01*
X235150Y106546D01*
X235492Y106665D01*
X221980Y105762D02*
X221980Y116599D01*
X222431Y121115D02*
X222431Y122018D01*
X221528Y122018D01*
X221528Y121115D01*
X222431Y121115D01*
X215693Y112987D02*
X215693Y109374D01*
X215692Y112987D02*
X215690Y113106D01*
X215684Y113226D01*
X215674Y113345D01*
X215660Y113463D01*
X215643Y113582D01*
X215621Y113699D01*
X215596Y113816D01*
X215566Y113931D01*
X215533Y114046D01*
X215496Y114160D01*
X215456Y114272D01*
X215411Y114383D01*
X215363Y114492D01*
X215312Y114600D01*
X215257Y114706D01*
X215198Y114810D01*
X215136Y114912D01*
X215071Y115012D01*
X215002Y115110D01*
X214930Y115206D01*
X214855Y115299D01*
X214778Y115389D01*
X214697Y115477D01*
X214613Y115562D01*
X214526Y115644D01*
X214437Y115724D01*
X214345Y115800D01*
X214251Y115874D01*
X214154Y115944D01*
X214056Y116011D01*
X213955Y116075D01*
X213851Y116135D01*
X213746Y116192D01*
X213639Y116245D01*
X213531Y116295D01*
X213421Y116341D01*
X213309Y116383D01*
X213196Y116422D01*
X213082Y116457D01*
X212967Y116488D01*
X212850Y116516D01*
X212733Y116539D01*
X212616Y116559D01*
X212497Y116575D01*
X212378Y116587D01*
X212259Y116595D01*
X212140Y116599D01*
X212020Y116599D01*
X211901Y116595D01*
X211782Y116587D01*
X211663Y116575D01*
X211544Y116559D01*
X211427Y116539D01*
X211310Y116516D01*
X211193Y116488D01*
X211078Y116457D01*
X210964Y116422D01*
X210851Y116383D01*
X210739Y116341D01*
X210629Y116295D01*
X210521Y116245D01*
X210414Y116192D01*
X210309Y116135D01*
X210205Y116075D01*
X210104Y116011D01*
X210006Y115944D01*
X209909Y115874D01*
X209815Y115800D01*
X209723Y115724D01*
X209634Y115644D01*
X209547Y115562D01*
X209463Y115477D01*
X209382Y115389D01*
X209305Y115299D01*
X209230Y115206D01*
X209158Y115110D01*
X209089Y115012D01*
X209024Y114912D01*
X208962Y114810D01*
X208903Y114706D01*
X208848Y114600D01*
X208797Y114492D01*
X208749Y114383D01*
X208704Y114272D01*
X208664Y114160D01*
X208627Y114046D01*
X208594Y113931D01*
X208564Y113816D01*
X208539Y113699D01*
X208517Y113582D01*
X208500Y113463D01*
X208486Y113345D01*
X208476Y113226D01*
X208470Y113106D01*
X208468Y112987D01*
X208468Y109374D01*
X208470Y109255D01*
X208476Y109135D01*
X208486Y109016D01*
X208500Y108898D01*
X208517Y108779D01*
X208539Y108662D01*
X208564Y108545D01*
X208594Y108430D01*
X208627Y108315D01*
X208664Y108201D01*
X208704Y108089D01*
X208749Y107978D01*
X208797Y107869D01*
X208848Y107761D01*
X208903Y107655D01*
X208962Y107551D01*
X209024Y107449D01*
X209089Y107349D01*
X209158Y107251D01*
X209230Y107155D01*
X209305Y107062D01*
X209382Y106972D01*
X209463Y106884D01*
X209547Y106799D01*
X209634Y106717D01*
X209723Y106637D01*
X209815Y106561D01*
X209909Y106487D01*
X210006Y106417D01*
X210104Y106350D01*
X210205Y106286D01*
X210309Y106226D01*
X210414Y106169D01*
X210521Y106116D01*
X210629Y106066D01*
X210739Y106020D01*
X210851Y105978D01*
X210964Y105939D01*
X211078Y105904D01*
X211193Y105873D01*
X211310Y105845D01*
X211427Y105822D01*
X211544Y105802D01*
X211663Y105786D01*
X211782Y105774D01*
X211901Y105766D01*
X212020Y105762D01*
X212140Y105762D01*
X212259Y105766D01*
X212378Y105774D01*
X212497Y105786D01*
X212616Y105802D01*
X212733Y105822D01*
X212850Y105845D01*
X212967Y105873D01*
X213082Y105904D01*
X213196Y105939D01*
X213309Y105978D01*
X213421Y106020D01*
X213531Y106066D01*
X213639Y106116D01*
X213746Y106169D01*
X213851Y106226D01*
X213955Y106286D01*
X214056Y106350D01*
X214154Y106417D01*
X214251Y106487D01*
X214345Y106561D01*
X214437Y106637D01*
X214526Y106717D01*
X214613Y106799D01*
X214697Y106884D01*
X214778Y106972D01*
X214855Y107062D01*
X214930Y107155D01*
X215002Y107251D01*
X215071Y107349D01*
X215136Y107449D01*
X215198Y107551D01*
X215257Y107655D01*
X215312Y107761D01*
X215363Y107869D01*
X215411Y107978D01*
X215456Y108089D01*
X215496Y108201D01*
X215533Y108315D01*
X215566Y108430D01*
X215596Y108545D01*
X215621Y108662D01*
X215643Y108779D01*
X215660Y108898D01*
X215674Y109016D01*
X215684Y109135D01*
X215690Y109255D01*
X215692Y109374D01*
X201624Y105762D02*
X201624Y116599D01*
X197109Y116599D01*
X197005Y116597D01*
X196902Y116591D01*
X196798Y116581D01*
X196695Y116567D01*
X196593Y116549D01*
X196492Y116528D01*
X196391Y116502D01*
X196292Y116473D01*
X196193Y116440D01*
X196096Y116403D01*
X196001Y116362D01*
X195907Y116318D01*
X195815Y116270D01*
X195725Y116219D01*
X195636Y116164D01*
X195550Y116106D01*
X195467Y116044D01*
X195385Y115980D01*
X195307Y115912D01*
X195231Y115842D01*
X195157Y115769D01*
X195087Y115692D01*
X195019Y115614D01*
X194955Y115532D01*
X194893Y115449D01*
X194835Y115363D01*
X194780Y115274D01*
X194729Y115184D01*
X194681Y115092D01*
X194637Y114998D01*
X194596Y114903D01*
X194559Y114806D01*
X194526Y114707D01*
X194497Y114608D01*
X194471Y114507D01*
X194450Y114406D01*
X194432Y114304D01*
X194418Y114201D01*
X194408Y114097D01*
X194402Y113994D01*
X194400Y113890D01*
X194400Y105762D01*
X179081Y118406D02*
X174565Y122018D01*
X174565Y105762D01*
X170050Y105762D02*
X179081Y105762D01*
X154972Y113890D02*
X154968Y114262D01*
X154954Y114634D01*
X154932Y115005D01*
X154900Y115376D01*
X154860Y115746D01*
X154811Y116114D01*
X154753Y116482D01*
X154687Y116848D01*
X154611Y117212D01*
X154527Y117574D01*
X154434Y117934D01*
X154332Y118292D01*
X154222Y118648D01*
X154103Y119000D01*
X153976Y119350D01*
X153841Y119696D01*
X153697Y120039D01*
X153545Y120379D01*
X153385Y120715D01*
X153217Y121046D01*
X153041Y121374D01*
X152857Y121698D01*
X152665Y122016D01*
X152466Y122330D01*
X152259Y122640D01*
X152045Y122944D01*
X151824Y123243D01*
X151595Y123536D01*
X151359Y123824D01*
X154972Y113890D02*
X154968Y113518D01*
X154954Y113146D01*
X154932Y112775D01*
X154900Y112404D01*
X154860Y112034D01*
X154811Y111666D01*
X154753Y111298D01*
X154687Y110932D01*
X154611Y110568D01*
X154527Y110206D01*
X154434Y109846D01*
X154332Y109488D01*
X154222Y109132D01*
X154103Y108780D01*
X153976Y108430D01*
X153841Y108084D01*
X153697Y107741D01*
X153545Y107401D01*
X153385Y107065D01*
X153217Y106734D01*
X153041Y106406D01*
X152857Y106083D01*
X152665Y105764D01*
X152466Y105450D01*
X152259Y105140D01*
X152045Y104836D01*
X151824Y104537D01*
X151595Y104244D01*
X151360Y103956D01*
X145213Y113890D02*
X145209Y114210D01*
X145198Y114529D01*
X145179Y114849D01*
X145152Y115167D01*
X145118Y115485D01*
X145076Y115802D01*
X145026Y116118D01*
X144969Y116433D01*
X144905Y116746D01*
X144833Y117058D01*
X144754Y117368D01*
X144667Y117675D01*
X144573Y117981D01*
X144472Y118284D01*
X144363Y118585D01*
X144248Y118883D01*
X144125Y119179D01*
X143995Y119471D01*
X143858Y119760D01*
X143859Y119761D02*
X143820Y119869D01*
X143777Y119976D01*
X143731Y120081D01*
X143680Y120185D01*
X143627Y120287D01*
X143570Y120387D01*
X143509Y120485D01*
X143445Y120580D01*
X143378Y120674D01*
X143307Y120765D01*
X143234Y120854D01*
X143157Y120940D01*
X143078Y121023D01*
X142996Y121104D01*
X142911Y121182D01*
X142823Y121256D01*
X142733Y121328D01*
X142641Y121396D01*
X142546Y121462D01*
X142449Y121524D01*
X142350Y121582D01*
X142248Y121638D01*
X142146Y121689D01*
X142041Y121737D01*
X141935Y121782D01*
X141827Y121823D01*
X141718Y121860D01*
X141608Y121893D01*
X141496Y121922D01*
X141384Y121948D01*
X141271Y121970D01*
X141157Y121987D01*
X141043Y122001D01*
X140928Y122011D01*
X140813Y122017D01*
X140698Y122019D01*
X140698Y122018D02*
X140583Y122016D01*
X140468Y122010D01*
X140353Y122000D01*
X140239Y121986D01*
X140125Y121969D01*
X140012Y121947D01*
X139900Y121921D01*
X139788Y121892D01*
X139678Y121859D01*
X139569Y121822D01*
X139461Y121781D01*
X139355Y121736D01*
X139251Y121688D01*
X139148Y121637D01*
X139047Y121581D01*
X138947Y121523D01*
X138850Y121461D01*
X138756Y121396D01*
X138663Y121327D01*
X138573Y121255D01*
X138485Y121181D01*
X138400Y121103D01*
X138318Y121022D01*
X138239Y120939D01*
X138162Y120853D01*
X138089Y120764D01*
X138018Y120673D01*
X137951Y120579D01*
X137887Y120484D01*
X137826Y120386D01*
X137769Y120286D01*
X137716Y120184D01*
X137665Y120080D01*
X137619Y119975D01*
X137576Y119868D01*
X137537Y119760D01*
X137400Y119471D01*
X137270Y119179D01*
X137147Y118883D01*
X137032Y118585D01*
X136923Y118284D01*
X136822Y117981D01*
X136728Y117675D01*
X136641Y117368D01*
X136562Y117058D01*
X136490Y116746D01*
X136426Y116433D01*
X136369Y116118D01*
X136319Y115802D01*
X136277Y115485D01*
X136243Y115167D01*
X136216Y114849D01*
X136197Y114529D01*
X136186Y114210D01*
X136182Y113890D01*
X145213Y113890D02*
X145209Y113570D01*
X145198Y113251D01*
X145179Y112931D01*
X145152Y112613D01*
X145118Y112295D01*
X145076Y111978D01*
X145026Y111662D01*
X144969Y111347D01*
X144905Y111034D01*
X144833Y110722D01*
X144754Y110412D01*
X144667Y110105D01*
X144573Y109799D01*
X144472Y109496D01*
X144363Y109195D01*
X144248Y108897D01*
X144125Y108601D01*
X143995Y108309D01*
X143858Y108020D01*
X143859Y108020D02*
X143820Y107912D01*
X143777Y107805D01*
X143731Y107700D01*
X143680Y107596D01*
X143627Y107494D01*
X143570Y107394D01*
X143509Y107296D01*
X143445Y107201D01*
X143378Y107107D01*
X143307Y107016D01*
X143234Y106927D01*
X143157Y106841D01*
X143078Y106758D01*
X142996Y106677D01*
X142911Y106599D01*
X142823Y106525D01*
X142733Y106453D01*
X142640Y106384D01*
X142546Y106319D01*
X142449Y106257D01*
X142349Y106199D01*
X142248Y106143D01*
X142146Y106092D01*
X142041Y106044D01*
X141935Y105999D01*
X141827Y105958D01*
X141718Y105921D01*
X141608Y105888D01*
X141496Y105859D01*
X141384Y105833D01*
X141271Y105811D01*
X141157Y105794D01*
X141043Y105780D01*
X140928Y105770D01*
X140813Y105764D01*
X140698Y105762D01*
X137537Y108020D02*
X137400Y108309D01*
X137270Y108601D01*
X137147Y108897D01*
X137032Y109195D01*
X136923Y109496D01*
X136822Y109799D01*
X136728Y110105D01*
X136641Y110412D01*
X136562Y110722D01*
X136490Y111034D01*
X136426Y111347D01*
X136369Y111662D01*
X136319Y111978D01*
X136277Y112295D01*
X136243Y112613D01*
X136216Y112931D01*
X136197Y113251D01*
X136186Y113570D01*
X136182Y113890D01*
X137537Y108020D02*
X137576Y107912D01*
X137619Y107805D01*
X137665Y107700D01*
X137716Y107596D01*
X137769Y107494D01*
X137827Y107394D01*
X137887Y107296D01*
X137951Y107201D01*
X138018Y107107D01*
X138089Y107016D01*
X138162Y106927D01*
X138239Y106841D01*
X138318Y106758D01*
X138400Y106677D01*
X138485Y106599D01*
X138573Y106525D01*
X138663Y106453D01*
X138756Y106384D01*
X138850Y106319D01*
X138947Y106257D01*
X139047Y106199D01*
X139148Y106143D01*
X139251Y106092D01*
X139355Y106044D01*
X139461Y105999D01*
X139569Y105958D01*
X139678Y105921D01*
X139788Y105888D01*
X139900Y105859D01*
X140012Y105833D01*
X140125Y105811D01*
X140239Y105794D01*
X140353Y105780D01*
X140468Y105770D01*
X140583Y105764D01*
X140698Y105762D01*
X144310Y109374D02*
X137085Y118406D01*
X129582Y120212D02*
X129582Y122018D01*
X120551Y122018D01*
X125066Y105762D01*
X114611Y103956D02*
X107386Y123824D01*
X96479Y122018D02*
X96354Y122016D01*
X96229Y122010D01*
X96104Y122001D01*
X95980Y121987D01*
X95856Y121970D01*
X95732Y121949D01*
X95610Y121924D01*
X95488Y121895D01*
X95367Y121863D01*
X95247Y121827D01*
X95128Y121787D01*
X95011Y121744D01*
X94895Y121697D01*
X94780Y121646D01*
X94668Y121592D01*
X94556Y121534D01*
X94447Y121474D01*
X94340Y121409D01*
X94234Y121342D01*
X94131Y121271D01*
X94030Y121197D01*
X93931Y121120D01*
X93835Y121040D01*
X93741Y120957D01*
X93650Y120872D01*
X93561Y120783D01*
X93476Y120692D01*
X93393Y120598D01*
X93313Y120502D01*
X93236Y120403D01*
X93162Y120302D01*
X93091Y120199D01*
X93024Y120093D01*
X92959Y119986D01*
X92899Y119877D01*
X92841Y119765D01*
X92787Y119653D01*
X92736Y119538D01*
X92689Y119422D01*
X92646Y119305D01*
X92606Y119186D01*
X92570Y119066D01*
X92538Y118945D01*
X92509Y118823D01*
X92484Y118701D01*
X92463Y118577D01*
X92446Y118453D01*
X92432Y118329D01*
X92423Y118204D01*
X92417Y118079D01*
X92415Y117954D01*
X96479Y122018D02*
X96622Y122016D01*
X96764Y122010D01*
X96907Y122000D01*
X97049Y121987D01*
X97190Y121969D01*
X97332Y121948D01*
X97472Y121923D01*
X97612Y121894D01*
X97751Y121861D01*
X97889Y121824D01*
X98026Y121784D01*
X98161Y121740D01*
X98296Y121692D01*
X98429Y121640D01*
X98561Y121585D01*
X98691Y121526D01*
X98819Y121464D01*
X98946Y121398D01*
X99071Y121329D01*
X99194Y121257D01*
X99315Y121181D01*
X99433Y121102D01*
X99550Y121019D01*
X99664Y120934D01*
X99776Y120845D01*
X99885Y120754D01*
X99992Y120659D01*
X100097Y120562D01*
X100198Y120461D01*
X100297Y120358D01*
X100393Y120253D01*
X100486Y120144D01*
X100576Y120033D01*
X100663Y119920D01*
X100747Y119805D01*
X100827Y119687D01*
X100905Y119567D01*
X100979Y119445D01*
X101049Y119321D01*
X101117Y119195D01*
X101180Y119067D01*
X101241Y118938D01*
X101298Y118807D01*
X101351Y118675D01*
X101400Y118541D01*
X101446Y118406D01*
X93770Y114793D02*
X93676Y114885D01*
X93586Y114979D01*
X93498Y115076D01*
X93413Y115176D01*
X93331Y115278D01*
X93252Y115383D01*
X93177Y115490D01*
X93105Y115599D01*
X93036Y115710D01*
X92970Y115824D01*
X92908Y115939D01*
X92849Y116056D01*
X92794Y116175D01*
X92743Y116295D01*
X92695Y116417D01*
X92650Y116540D01*
X92610Y116664D01*
X92573Y116790D01*
X92540Y116917D01*
X92511Y117044D01*
X92485Y117173D01*
X92464Y117302D01*
X92446Y117432D01*
X92433Y117562D01*
X92423Y117692D01*
X92417Y117823D01*
X92415Y117954D01*
X93769Y114793D02*
X101446Y105762D01*
X92415Y105762D01*
X85814Y113890D02*
X85810Y114210D01*
X85799Y114529D01*
X85780Y114849D01*
X85753Y115167D01*
X85719Y115485D01*
X85677Y115802D01*
X85627Y116118D01*
X85570Y116433D01*
X85506Y116746D01*
X85434Y117058D01*
X85355Y117368D01*
X85268Y117675D01*
X85174Y117981D01*
X85073Y118284D01*
X84964Y118585D01*
X84849Y118883D01*
X84726Y119179D01*
X84596Y119471D01*
X84459Y119760D01*
X84460Y119761D02*
X84421Y119869D01*
X84378Y119976D01*
X84332Y120081D01*
X84281Y120185D01*
X84228Y120287D01*
X84171Y120387D01*
X84110Y120485D01*
X84046Y120580D01*
X83979Y120674D01*
X83908Y120765D01*
X83835Y120854D01*
X83758Y120940D01*
X83679Y121023D01*
X83597Y121104D01*
X83512Y121182D01*
X83424Y121256D01*
X83334Y121328D01*
X83242Y121396D01*
X83147Y121462D01*
X83050Y121524D01*
X82951Y121582D01*
X82849Y121638D01*
X82747Y121689D01*
X82642Y121737D01*
X82536Y121782D01*
X82428Y121823D01*
X82319Y121860D01*
X82209Y121893D01*
X82097Y121922D01*
X81985Y121948D01*
X81872Y121970D01*
X81758Y121987D01*
X81644Y122001D01*
X81529Y122011D01*
X81414Y122017D01*
X81299Y122019D01*
X81299Y122018D02*
X81184Y122016D01*
X81069Y122010D01*
X80954Y122000D01*
X80840Y121986D01*
X80726Y121969D01*
X80613Y121947D01*
X80501Y121921D01*
X80389Y121892D01*
X80279Y121859D01*
X80170Y121822D01*
X80062Y121781D01*
X79956Y121736D01*
X79852Y121688D01*
X79749Y121637D01*
X79648Y121581D01*
X79548Y121523D01*
X79451Y121461D01*
X79357Y121396D01*
X79264Y121327D01*
X79174Y121255D01*
X79086Y121181D01*
X79001Y121103D01*
X78919Y121022D01*
X78840Y120939D01*
X78763Y120853D01*
X78690Y120764D01*
X78619Y120673D01*
X78552Y120579D01*
X78488Y120484D01*
X78427Y120386D01*
X78370Y120286D01*
X78317Y120184D01*
X78266Y120080D01*
X78220Y119975D01*
X78177Y119868D01*
X78138Y119760D01*
X78139Y119760D02*
X78002Y119471D01*
X77872Y119179D01*
X77749Y118883D01*
X77634Y118585D01*
X77525Y118284D01*
X77424Y117981D01*
X77330Y117675D01*
X77243Y117368D01*
X77164Y117058D01*
X77092Y116746D01*
X77028Y116433D01*
X76971Y116118D01*
X76921Y115802D01*
X76879Y115485D01*
X76845Y115167D01*
X76818Y114849D01*
X76799Y114529D01*
X76788Y114210D01*
X76784Y113890D01*
X85814Y113890D02*
X85810Y113570D01*
X85799Y113251D01*
X85780Y112931D01*
X85753Y112613D01*
X85719Y112295D01*
X85677Y111978D01*
X85627Y111662D01*
X85570Y111347D01*
X85506Y111034D01*
X85434Y110722D01*
X85355Y110412D01*
X85268Y110105D01*
X85174Y109799D01*
X85073Y109496D01*
X84964Y109195D01*
X84849Y108897D01*
X84726Y108601D01*
X84596Y108309D01*
X84459Y108020D01*
X84460Y108020D02*
X84421Y107912D01*
X84378Y107805D01*
X84332Y107700D01*
X84281Y107596D01*
X84228Y107494D01*
X84171Y107394D01*
X84110Y107296D01*
X84046Y107201D01*
X83979Y107107D01*
X83908Y107016D01*
X83835Y106927D01*
X83758Y106841D01*
X83679Y106758D01*
X83597Y106677D01*
X83512Y106599D01*
X83424Y106525D01*
X83334Y106453D01*
X83241Y106384D01*
X83147Y106319D01*
X83050Y106257D01*
X82950Y106199D01*
X82849Y106143D01*
X82747Y106092D01*
X82642Y106044D01*
X82536Y105999D01*
X82428Y105958D01*
X82319Y105921D01*
X82209Y105888D01*
X82097Y105859D01*
X81985Y105833D01*
X81872Y105811D01*
X81758Y105794D01*
X81644Y105780D01*
X81529Y105770D01*
X81414Y105764D01*
X81299Y105762D01*
X78139Y108020D02*
X78002Y108309D01*
X77872Y108601D01*
X77749Y108897D01*
X77634Y109195D01*
X77525Y109496D01*
X77424Y109799D01*
X77330Y110105D01*
X77243Y110412D01*
X77164Y110722D01*
X77092Y111034D01*
X77028Y111347D01*
X76971Y111662D01*
X76921Y111978D01*
X76879Y112295D01*
X76845Y112613D01*
X76818Y112931D01*
X76799Y113251D01*
X76788Y113570D01*
X76784Y113890D01*
X78138Y108020D02*
X78177Y107912D01*
X78220Y107805D01*
X78266Y107700D01*
X78317Y107596D01*
X78370Y107494D01*
X78428Y107394D01*
X78488Y107296D01*
X78552Y107201D01*
X78619Y107107D01*
X78690Y107016D01*
X78763Y106927D01*
X78840Y106841D01*
X78919Y106758D01*
X79001Y106677D01*
X79086Y106599D01*
X79174Y106525D01*
X79264Y106453D01*
X79357Y106384D01*
X79451Y106319D01*
X79548Y106257D01*
X79648Y106199D01*
X79749Y106143D01*
X79852Y106092D01*
X79956Y106044D01*
X80062Y105999D01*
X80170Y105958D01*
X80279Y105921D01*
X80389Y105888D01*
X80501Y105859D01*
X80613Y105833D01*
X80726Y105811D01*
X80840Y105794D01*
X80954Y105780D01*
X81069Y105770D01*
X81184Y105764D01*
X81299Y105762D01*
X84911Y109374D02*
X77687Y118406D01*
X70183Y118406D02*
X65668Y122018D01*
X65668Y105762D01*
X70183Y105762D02*
X61152Y105762D01*
X50940Y112987D02*
X45521Y112987D01*
X50940Y112987D02*
X51058Y112989D01*
X51176Y112995D01*
X51294Y113004D01*
X51411Y113018D01*
X51528Y113035D01*
X51645Y113056D01*
X51760Y113081D01*
X51875Y113110D01*
X51989Y113143D01*
X52101Y113179D01*
X52212Y113219D01*
X52322Y113262D01*
X52431Y113309D01*
X52538Y113359D01*
X52643Y113414D01*
X52746Y113471D01*
X52847Y113532D01*
X52947Y113596D01*
X53044Y113663D01*
X53139Y113733D01*
X53231Y113807D01*
X53322Y113883D01*
X53409Y113963D01*
X53494Y114045D01*
X53576Y114130D01*
X53656Y114217D01*
X53732Y114308D01*
X53806Y114400D01*
X53876Y114495D01*
X53943Y114592D01*
X54007Y114692D01*
X54068Y114793D01*
X54125Y114896D01*
X54180Y115001D01*
X54230Y115108D01*
X54277Y115217D01*
X54320Y115327D01*
X54360Y115438D01*
X54396Y115550D01*
X54429Y115664D01*
X54458Y115779D01*
X54483Y115894D01*
X54504Y116011D01*
X54521Y116128D01*
X54535Y116245D01*
X54544Y116363D01*
X54550Y116481D01*
X54552Y116599D01*
X54552Y117502D01*
X54553Y117502D02*
X54551Y117635D01*
X54545Y117767D01*
X54535Y117899D01*
X54522Y118031D01*
X54504Y118163D01*
X54483Y118293D01*
X54458Y118424D01*
X54429Y118553D01*
X54396Y118681D01*
X54360Y118809D01*
X54320Y118935D01*
X54276Y119060D01*
X54228Y119184D01*
X54177Y119306D01*
X54122Y119427D01*
X54064Y119546D01*
X54002Y119664D01*
X53937Y119779D01*
X53868Y119893D01*
X53797Y120004D01*
X53721Y120113D01*
X53643Y120220D01*
X53562Y120325D01*
X53477Y120427D01*
X53390Y120527D01*
X53300Y120624D01*
X53207Y120719D01*
X53111Y120810D01*
X53013Y120899D01*
X52912Y120985D01*
X52808Y121068D01*
X52702Y121148D01*
X52594Y121224D01*
X52484Y121298D01*
X52371Y121368D01*
X52257Y121435D01*
X52140Y121498D01*
X52022Y121558D01*
X51902Y121615D01*
X51780Y121668D01*
X51657Y121717D01*
X51533Y121763D01*
X51407Y121805D01*
X51280Y121843D01*
X51152Y121878D01*
X51023Y121909D01*
X50894Y121936D01*
X50763Y121959D01*
X50632Y121979D01*
X50500Y121994D01*
X50368Y122006D01*
X50236Y122014D01*
X50103Y122018D01*
X49971Y122018D01*
X49838Y122014D01*
X49706Y122006D01*
X49574Y121994D01*
X49442Y121979D01*
X49311Y121959D01*
X49180Y121936D01*
X49051Y121909D01*
X48922Y121878D01*
X48794Y121843D01*
X48667Y121805D01*
X48541Y121763D01*
X48417Y121717D01*
X48294Y121668D01*
X48172Y121615D01*
X48052Y121558D01*
X47934Y121498D01*
X47817Y121435D01*
X47703Y121368D01*
X47590Y121298D01*
X47480Y121224D01*
X47372Y121148D01*
X47266Y121068D01*
X47162Y120985D01*
X47061Y120899D01*
X46963Y120810D01*
X46867Y120719D01*
X46774Y120624D01*
X46684Y120527D01*
X46597Y120427D01*
X46512Y120325D01*
X46431Y120220D01*
X46353Y120113D01*
X46277Y120004D01*
X46206Y119893D01*
X46137Y119779D01*
X46072Y119664D01*
X46010Y119546D01*
X45952Y119427D01*
X45897Y119306D01*
X45846Y119184D01*
X45798Y119060D01*
X45754Y118935D01*
X45714Y118809D01*
X45678Y118681D01*
X45645Y118553D01*
X45616Y118424D01*
X45591Y118293D01*
X45570Y118163D01*
X45552Y118031D01*
X45539Y117899D01*
X45529Y117767D01*
X45523Y117635D01*
X45521Y117502D01*
X45521Y112987D01*
X45523Y112812D01*
X45529Y112638D01*
X45540Y112464D01*
X45555Y112290D01*
X45574Y112116D01*
X45597Y111943D01*
X45624Y111771D01*
X45656Y111599D01*
X45691Y111428D01*
X45731Y111258D01*
X45775Y111089D01*
X45823Y110921D01*
X45875Y110754D01*
X45931Y110589D01*
X45991Y110425D01*
X46054Y110262D01*
X46122Y110102D01*
X46194Y109942D01*
X46269Y109785D01*
X46349Y109629D01*
X46432Y109476D01*
X46518Y109324D01*
X46609Y109175D01*
X46703Y109028D01*
X46800Y108883D01*
X46901Y108740D01*
X47005Y108600D01*
X47113Y108463D01*
X47224Y108328D01*
X47338Y108196D01*
X47455Y108067D01*
X47576Y107940D01*
X47699Y107817D01*
X47826Y107696D01*
X47955Y107579D01*
X48087Y107465D01*
X48222Y107354D01*
X48359Y107246D01*
X48499Y107142D01*
X48642Y107041D01*
X48787Y106944D01*
X48934Y106850D01*
X49083Y106759D01*
X49235Y106673D01*
X49388Y106590D01*
X49544Y106510D01*
X49701Y106435D01*
X49861Y106363D01*
X50021Y106295D01*
X50184Y106232D01*
X50348Y106172D01*
X50513Y106116D01*
X50680Y106064D01*
X50848Y106016D01*
X51017Y105972D01*
X51187Y105932D01*
X51358Y105897D01*
X51530Y105865D01*
X51702Y105838D01*
X51875Y105815D01*
X52049Y105796D01*
X52223Y105781D01*
X52397Y105770D01*
X52571Y105764D01*
X52746Y105762D01*
X39374Y103956D02*
X39139Y104244D01*
X38910Y104537D01*
X38689Y104836D01*
X38475Y105140D01*
X38268Y105450D01*
X38069Y105764D01*
X37877Y106083D01*
X37693Y106406D01*
X37517Y106734D01*
X37349Y107065D01*
X37189Y107401D01*
X37037Y107741D01*
X36893Y108084D01*
X36758Y108430D01*
X36631Y108780D01*
X36512Y109132D01*
X36402Y109488D01*
X36300Y109846D01*
X36207Y110206D01*
X36123Y110568D01*
X36047Y110932D01*
X35981Y111298D01*
X35923Y111666D01*
X35874Y112034D01*
X35834Y112404D01*
X35802Y112775D01*
X35780Y113146D01*
X35766Y113518D01*
X35762Y113890D01*
X35766Y114262D01*
X35780Y114634D01*
X35802Y115005D01*
X35834Y115376D01*
X35874Y115746D01*
X35923Y116114D01*
X35981Y116482D01*
X36047Y116848D01*
X36123Y117212D01*
X36207Y117574D01*
X36300Y117934D01*
X36402Y118292D01*
X36512Y118648D01*
X36631Y119000D01*
X36758Y119350D01*
X36893Y119696D01*
X37037Y120039D01*
X37189Y120379D01*
X37349Y120715D01*
X37517Y121046D01*
X37693Y121374D01*
X37877Y121698D01*
X38069Y122016D01*
X38268Y122330D01*
X38475Y122640D01*
X38689Y122944D01*
X38910Y123243D01*
X39139Y123536D01*
X39375Y123824D01*
M02*
