M48
;GenerationSoftware,Autodesk,EAGLE,9.3.0*%
;CreationDate,2019-07-31T10:26:54Z*%
FMAT,2
ICI,OFF
METRIC,TZ,000.000
T7C0.350
T6C0.650
T5C0.800
T4C0.813
T3C1.016
T2C1.118
T1C3.000
%
G90
M71
T1
X107000Y3000
X107000Y56500
X3000Y56500
X3000Y3000
T2
X97000Y18920
X97000Y29080
X92650Y10500
X105350Y10500
T3
X101600Y40330
X34290Y53070
X26670Y53070
X29210Y53070
X31750Y53070
X18280Y53070
X10660Y53070
X13200Y53070
X15740Y53070
X68580Y5080
X71120Y5080
X73660Y5080
X90660Y55340
X88120Y55340
X85580Y55340
X105640Y32440
X105640Y29900
X105640Y21780
X105640Y19240
X99060Y48720
X96520Y48720
X104140Y48720
X94250Y5310
X96790Y5310
X99330Y5310
X81930Y37870
X81930Y40410
X86240Y37870
X86240Y40410
X90550Y37870
X90550Y40410
X30170Y35100
X101600Y48720
X30170Y30790
X32710Y30790
X30170Y26480
X32710Y26480
X104140Y40330
X32710Y35100
X96520Y40330
X99060Y40330
X12430Y26520
X14970Y26520
X78270Y54500
X75730Y54500
T4
X20500Y35190
X20500Y37730
X20500Y40270
X20500Y42810
X20500Y45350
X20500Y47890
X3220Y7000
X5760Y7000
X8300Y7000
X10840Y7000
X13380Y7000
X15920Y7000
X18460Y7000
X21000Y7000
X23540Y7000
X26080Y7000
X28620Y7000
X31160Y7000
X33700Y7000
X36240Y7000
X38780Y7000
X38780Y22000
X36240Y22000
X33700Y22000
X31160Y22000
X28620Y22000
X26080Y22000
X23540Y22000
X21000Y22000
X18460Y22000
X15920Y22000
X13380Y22000
X10840Y22000
X8300Y22000
X5760Y22000
X3220Y22000
X55000Y54270
X55000Y51730
X54990Y5220
X54990Y7760
X47070Y54110
X39450Y54110
X50070Y9810
X42450Y9810
X89000Y26810
X76000Y31890
X76000Y29350
X76000Y26810
X76000Y24270
X76000Y21730
X76000Y19190
X76000Y16650
X76000Y14110
X89000Y14110
X89000Y16650
X89000Y19190
X89000Y21730
X89000Y24270
X89000Y29350
X89000Y31890
X7500Y47890
X7500Y45350
X7500Y42810
X7500Y40270
X7500Y37730
X7500Y35190
X7500Y32650
X7500Y30110
X67000Y54270
X67000Y51730
X89770Y43960
X89770Y49040
X89770Y46500
X20500Y30110
X20500Y32650
X72000Y43810
X72000Y36190
X85310Y47000
X77690Y47000
X18810Y3500
X11190Y3500
X76000Y36190
X76000Y43810
X26150Y42000
X28690Y42000
X31230Y42000
X33770Y42000
X36310Y42000
X38850Y42000
T5
X84480Y4720
X84480Y8220
T6
X62500Y48000
X26500Y44500
T7
X39500Y20000
X101000Y30000
X14500Y24000
X38500Y12500
X80500Y29000
X80000Y33000
X68000Y15000
X17500Y27000
X38500Y50000
X17500Y40000
X74000Y14500
X36500Y11000
X30500Y40000
X19500Y18500
X22000Y36500
X17500Y28500
X102000Y14000
M30