G04 EAGLE Gerber RS-274X export*
G75*
%MOMM*%
%FSLAX34Y34*%
%LPD*%
%INTop Copper*%
%IPPOS*%
%AMOC8*
5,1,8,0,0,1.08239X$1,22.5*%
G01*
%ADD10C,2.380000*%
%ADD11C,1.524000*%
%ADD12P,1.649562X8X292.500000*%
%ADD13P,1.649562X8X112.500000*%
%ADD14C,2.000000*%

G36*
X155152Y22955D02*
X155152Y22955D01*
X155340Y22970D01*
X155529Y22978D01*
X155586Y22990D01*
X155643Y22995D01*
X155827Y23041D01*
X156012Y23079D01*
X156066Y23100D01*
X156122Y23114D01*
X156296Y23188D01*
X156472Y23257D01*
X156522Y23286D01*
X156576Y23309D01*
X156735Y23410D01*
X156898Y23506D01*
X156943Y23543D01*
X156991Y23574D01*
X157132Y23700D01*
X157278Y23821D01*
X157316Y23864D01*
X157359Y23903D01*
X157478Y24050D01*
X157602Y24193D01*
X157632Y24242D01*
X157669Y24287D01*
X157762Y24452D01*
X157862Y24612D01*
X157884Y24665D01*
X157913Y24716D01*
X157978Y24893D01*
X158050Y25068D01*
X158064Y25124D01*
X158084Y25179D01*
X158120Y25364D01*
X158163Y25548D01*
X158167Y25606D01*
X158178Y25663D01*
X158184Y25852D01*
X158197Y26040D01*
X158192Y26098D01*
X158193Y26156D01*
X158168Y26343D01*
X158151Y26531D01*
X158136Y26588D01*
X158129Y26645D01*
X158074Y26825D01*
X158026Y27009D01*
X158003Y27062D01*
X157986Y27117D01*
X157903Y27287D01*
X157826Y27460D01*
X157794Y27508D01*
X157769Y27560D01*
X157659Y27714D01*
X157556Y27872D01*
X157516Y27915D01*
X157483Y27962D01*
X157350Y28096D01*
X157222Y28236D01*
X157185Y28264D01*
X157136Y28313D01*
X156737Y28603D01*
X156698Y28623D01*
X156674Y28641D01*
X154551Y29866D01*
X149866Y34551D01*
X146554Y40288D01*
X144839Y46687D01*
X144839Y53313D01*
X146554Y59712D01*
X149866Y65449D01*
X154551Y70134D01*
X160288Y73446D01*
X166687Y75161D01*
X173313Y75161D01*
X179712Y73446D01*
X185449Y70134D01*
X190134Y65449D01*
X193446Y59712D01*
X195161Y53313D01*
X195161Y46687D01*
X193446Y40288D01*
X190134Y34551D01*
X185449Y29866D01*
X183358Y28659D01*
X183201Y28551D01*
X183040Y28448D01*
X182998Y28410D01*
X182952Y28378D01*
X182815Y28246D01*
X182672Y28119D01*
X182637Y28075D01*
X182596Y28036D01*
X182482Y27884D01*
X182362Y27735D01*
X182335Y27686D01*
X182301Y27641D01*
X182213Y27472D01*
X182119Y27306D01*
X182099Y27253D01*
X182073Y27204D01*
X182014Y27022D01*
X181947Y26843D01*
X181937Y26788D01*
X181919Y26735D01*
X181889Y26546D01*
X181853Y26359D01*
X181851Y26303D01*
X181842Y26248D01*
X181844Y26057D01*
X181838Y25866D01*
X181845Y25810D01*
X181846Y25754D01*
X181878Y25566D01*
X181903Y25377D01*
X181919Y25323D01*
X181928Y25268D01*
X181990Y25087D01*
X182045Y24905D01*
X182070Y24854D01*
X182088Y24801D01*
X182179Y24633D01*
X182263Y24462D01*
X182295Y24416D01*
X182322Y24367D01*
X182438Y24215D01*
X182548Y24060D01*
X182588Y24020D01*
X182622Y23975D01*
X182761Y23845D01*
X182895Y23709D01*
X182941Y23676D01*
X182981Y23637D01*
X183140Y23531D01*
X183294Y23419D01*
X183344Y23393D01*
X183391Y23362D01*
X183565Y23282D01*
X183735Y23197D01*
X183788Y23180D01*
X183839Y23156D01*
X184023Y23106D01*
X184205Y23049D01*
X184250Y23044D01*
X184315Y23026D01*
X184806Y22974D01*
X184852Y22976D01*
X184883Y22973D01*
X317094Y23053D01*
X317169Y23059D01*
X317244Y23057D01*
X317414Y23079D01*
X317586Y23093D01*
X317659Y23111D01*
X317733Y23121D01*
X317898Y23171D01*
X318064Y23212D01*
X318133Y23242D01*
X318206Y23263D01*
X318360Y23339D01*
X318518Y23407D01*
X318581Y23447D01*
X318649Y23480D01*
X318789Y23580D01*
X318933Y23672D01*
X318990Y23722D01*
X319051Y23766D01*
X319173Y23886D01*
X319301Y24001D01*
X319348Y24060D01*
X319402Y24113D01*
X319503Y24251D01*
X319611Y24385D01*
X319648Y24451D01*
X319692Y24511D01*
X319770Y24664D01*
X319855Y24814D01*
X319881Y24885D01*
X319915Y24952D01*
X319966Y25115D01*
X320026Y25277D01*
X320040Y25350D01*
X320063Y25422D01*
X320075Y25527D01*
X320120Y25761D01*
X320127Y25995D01*
X320139Y26100D01*
X320139Y621884D01*
X320133Y621961D01*
X320135Y622038D01*
X320113Y622207D01*
X320099Y622376D01*
X320081Y622451D01*
X320071Y622527D01*
X320022Y622690D01*
X319981Y622855D01*
X319950Y622925D01*
X319928Y622999D01*
X319853Y623152D01*
X319786Y623308D01*
X319745Y623373D01*
X319711Y623442D01*
X319612Y623581D01*
X319521Y623724D01*
X319470Y623781D01*
X319425Y623844D01*
X319306Y623965D01*
X319192Y624092D01*
X319132Y624140D01*
X319078Y624195D01*
X318941Y624295D01*
X318808Y624402D01*
X318742Y624440D01*
X318679Y624485D01*
X318527Y624562D01*
X318380Y624646D01*
X318307Y624673D01*
X318239Y624707D01*
X318077Y624758D01*
X317917Y624817D01*
X317842Y624832D01*
X317768Y624855D01*
X317663Y624867D01*
X317433Y624912D01*
X317195Y624920D01*
X317090Y624931D01*
X203075Y624862D01*
X203038Y624859D01*
X203001Y624861D01*
X202793Y624839D01*
X202584Y624822D01*
X202547Y624813D01*
X202510Y624809D01*
X202308Y624754D01*
X202105Y624703D01*
X202071Y624688D01*
X202035Y624678D01*
X201844Y624591D01*
X201652Y624508D01*
X201620Y624488D01*
X201586Y624473D01*
X201412Y624356D01*
X201236Y624243D01*
X201208Y624218D01*
X201177Y624197D01*
X201025Y624054D01*
X200868Y623914D01*
X200845Y623885D01*
X200818Y623859D01*
X200690Y623693D01*
X200558Y623530D01*
X200540Y623498D01*
X200517Y623468D01*
X200418Y623283D01*
X200315Y623101D01*
X200302Y623066D01*
X200284Y623033D01*
X200216Y622835D01*
X200143Y622638D01*
X200136Y622602D01*
X200124Y622567D01*
X200089Y622360D01*
X200049Y622154D01*
X200048Y622117D01*
X200041Y622080D01*
X200040Y621871D01*
X200034Y621661D01*
X200039Y621624D01*
X200038Y621587D01*
X200071Y621379D01*
X200098Y621172D01*
X200109Y621136D01*
X200115Y621100D01*
X200181Y620900D01*
X200241Y620700D01*
X200258Y620666D01*
X200269Y620631D01*
X200366Y620445D01*
X200458Y620257D01*
X200480Y620226D01*
X200497Y620193D01*
X200555Y620121D01*
X200744Y619855D01*
X200864Y619733D01*
X200922Y619660D01*
X205134Y615449D01*
X208446Y609712D01*
X210161Y603313D01*
X210161Y596687D01*
X208446Y590288D01*
X205134Y584551D01*
X200449Y579866D01*
X194712Y576554D01*
X188313Y574839D01*
X181687Y574839D01*
X175288Y576554D01*
X169551Y579866D01*
X164866Y584551D01*
X161554Y590288D01*
X159839Y596687D01*
X159839Y603313D01*
X161554Y609712D01*
X164866Y615449D01*
X169056Y619638D01*
X169081Y619668D01*
X169110Y619694D01*
X169241Y619856D01*
X169375Y620014D01*
X169395Y620048D01*
X169420Y620078D01*
X169523Y620259D01*
X169630Y620437D01*
X169644Y620473D01*
X169664Y620507D01*
X169736Y620703D01*
X169813Y620895D01*
X169821Y620933D01*
X169835Y620970D01*
X169875Y621174D01*
X169920Y621377D01*
X169922Y621416D01*
X169929Y621454D01*
X169936Y621661D01*
X169947Y621869D01*
X169943Y621908D01*
X169944Y621947D01*
X169917Y622153D01*
X169895Y622360D01*
X169885Y622397D01*
X169880Y622436D01*
X169820Y622635D01*
X169764Y622835D01*
X169748Y622871D01*
X169737Y622908D01*
X169646Y623095D01*
X169559Y623284D01*
X169537Y623316D01*
X169520Y623351D01*
X169400Y623520D01*
X169283Y623693D01*
X169257Y623722D01*
X169234Y623753D01*
X169088Y623901D01*
X168945Y624053D01*
X168915Y624076D01*
X168887Y624104D01*
X168719Y624226D01*
X168554Y624353D01*
X168520Y624371D01*
X168488Y624394D01*
X168303Y624488D01*
X168119Y624586D01*
X168082Y624599D01*
X168048Y624616D01*
X167850Y624679D01*
X167653Y624746D01*
X167614Y624753D01*
X167577Y624764D01*
X167484Y624775D01*
X167166Y624829D01*
X166993Y624830D01*
X166899Y624840D01*
X53166Y624771D01*
X53129Y624768D01*
X53092Y624771D01*
X52884Y624748D01*
X52674Y624731D01*
X52638Y624722D01*
X52601Y624718D01*
X52399Y624663D01*
X52196Y624612D01*
X52161Y624598D01*
X52126Y624588D01*
X51934Y624500D01*
X51742Y624417D01*
X51711Y624398D01*
X51677Y624382D01*
X51503Y624265D01*
X51326Y624152D01*
X51299Y624127D01*
X51268Y624107D01*
X51115Y623963D01*
X50959Y623823D01*
X50935Y623794D01*
X50908Y623769D01*
X50781Y623603D01*
X50649Y623439D01*
X50631Y623407D01*
X50608Y623377D01*
X50509Y623193D01*
X50405Y623010D01*
X50392Y622975D01*
X50375Y622943D01*
X50307Y622744D01*
X50234Y622548D01*
X50227Y622511D01*
X50215Y622476D01*
X50180Y622269D01*
X50140Y622063D01*
X50138Y622026D01*
X50132Y621990D01*
X50131Y621780D01*
X50125Y621570D01*
X50129Y621533D01*
X50129Y621496D01*
X50162Y621289D01*
X50189Y621081D01*
X50200Y621046D01*
X50206Y621009D01*
X50272Y620809D01*
X50332Y620609D01*
X50348Y620576D01*
X50360Y620540D01*
X50457Y620354D01*
X50549Y620166D01*
X50571Y620136D01*
X50588Y620103D01*
X50645Y620031D01*
X50835Y619764D01*
X50955Y619643D01*
X51013Y619569D01*
X55134Y615449D01*
X58446Y609712D01*
X60161Y603313D01*
X60161Y596687D01*
X58446Y590288D01*
X55134Y584551D01*
X50449Y579866D01*
X44712Y576554D01*
X38313Y574839D01*
X31687Y574839D01*
X25288Y576554D01*
X19551Y579866D01*
X15363Y584055D01*
X15334Y584079D01*
X15308Y584108D01*
X15146Y584239D01*
X14987Y584374D01*
X14954Y584394D01*
X14924Y584418D01*
X14743Y584521D01*
X14564Y584629D01*
X14529Y584643D01*
X14496Y584662D01*
X14300Y584734D01*
X14106Y584812D01*
X14069Y584820D01*
X14033Y584833D01*
X13828Y584873D01*
X13624Y584919D01*
X13586Y584921D01*
X13549Y584928D01*
X13341Y584934D01*
X13132Y584946D01*
X13094Y584942D01*
X13056Y584943D01*
X12849Y584916D01*
X12641Y584894D01*
X12605Y584884D01*
X12567Y584879D01*
X12367Y584819D01*
X12166Y584763D01*
X12131Y584747D01*
X12094Y584736D01*
X11907Y584645D01*
X11717Y584558D01*
X11685Y584536D01*
X11651Y584520D01*
X11482Y584399D01*
X11308Y584282D01*
X11280Y584256D01*
X11249Y584234D01*
X11101Y584088D01*
X10948Y583944D01*
X10925Y583914D01*
X10898Y583887D01*
X10775Y583719D01*
X10648Y583553D01*
X10630Y583519D01*
X10608Y583489D01*
X10514Y583303D01*
X10415Y583118D01*
X10402Y583082D01*
X10385Y583048D01*
X10323Y582849D01*
X10255Y582652D01*
X10249Y582614D01*
X10237Y582578D01*
X10227Y582485D01*
X10172Y582165D01*
X10171Y581993D01*
X10161Y581900D01*
X10161Y530587D01*
X10164Y530549D01*
X10162Y530511D01*
X10184Y530303D01*
X10201Y530095D01*
X10210Y530058D01*
X10214Y530020D01*
X10269Y529819D01*
X10319Y529616D01*
X10334Y529581D01*
X10345Y529545D01*
X10432Y529355D01*
X10514Y529163D01*
X10534Y529131D01*
X10550Y529096D01*
X10667Y528923D01*
X10779Y528747D01*
X10804Y528718D01*
X10826Y528687D01*
X10969Y528535D01*
X11108Y528379D01*
X11137Y528355D01*
X11163Y528327D01*
X11329Y528200D01*
X11492Y528069D01*
X11525Y528050D01*
X11555Y528027D01*
X11739Y527928D01*
X11920Y527825D01*
X11956Y527812D01*
X11990Y527794D01*
X12187Y527726D01*
X12383Y527653D01*
X12420Y527646D01*
X12456Y527634D01*
X12663Y527599D01*
X12867Y527559D01*
X12905Y527558D01*
X12943Y527551D01*
X13152Y527550D01*
X13360Y527543D01*
X13398Y527548D01*
X13436Y527548D01*
X13643Y527581D01*
X13849Y527608D01*
X13886Y527619D01*
X13923Y527625D01*
X14122Y527690D01*
X14321Y527750D01*
X14356Y527767D01*
X14392Y527779D01*
X14577Y527876D01*
X14765Y527967D01*
X14796Y527989D01*
X14830Y528007D01*
X14902Y528065D01*
X15167Y528253D01*
X15289Y528373D01*
X15363Y528432D01*
X21591Y534661D01*
X22753Y534661D01*
X22753Y524500D01*
X22753Y514339D01*
X21591Y514339D01*
X15363Y520568D01*
X15334Y520593D01*
X15308Y520621D01*
X15146Y520752D01*
X14987Y520887D01*
X14954Y520907D01*
X14924Y520931D01*
X14743Y521034D01*
X14564Y521142D01*
X14529Y521156D01*
X14496Y521175D01*
X14300Y521248D01*
X14106Y521325D01*
X14069Y521333D01*
X14033Y521347D01*
X13828Y521387D01*
X13624Y521432D01*
X13586Y521434D01*
X13549Y521441D01*
X13341Y521448D01*
X13132Y521459D01*
X13094Y521455D01*
X13056Y521457D01*
X12849Y521429D01*
X12641Y521407D01*
X12605Y521397D01*
X12567Y521392D01*
X12367Y521332D01*
X12166Y521277D01*
X12131Y521261D01*
X12094Y521250D01*
X11907Y521158D01*
X11717Y521071D01*
X11685Y521049D01*
X11651Y521033D01*
X11482Y520912D01*
X11308Y520795D01*
X11280Y520769D01*
X11249Y520747D01*
X11101Y520601D01*
X10948Y520458D01*
X10925Y520427D01*
X10898Y520401D01*
X10775Y520232D01*
X10648Y520066D01*
X10630Y520033D01*
X10608Y520002D01*
X10514Y519816D01*
X10415Y519632D01*
X10402Y519595D01*
X10385Y519561D01*
X10323Y519363D01*
X10255Y519165D01*
X10249Y519127D01*
X10237Y519091D01*
X10227Y518998D01*
X10172Y518678D01*
X10171Y518506D01*
X10161Y518413D01*
X10161Y124087D01*
X10164Y124049D01*
X10162Y124011D01*
X10184Y123803D01*
X10201Y123595D01*
X10210Y123558D01*
X10214Y123520D01*
X10269Y123319D01*
X10319Y123116D01*
X10334Y123081D01*
X10345Y123045D01*
X10432Y122855D01*
X10514Y122663D01*
X10534Y122631D01*
X10550Y122596D01*
X10667Y122423D01*
X10779Y122247D01*
X10804Y122218D01*
X10826Y122187D01*
X10969Y122035D01*
X11108Y121879D01*
X11137Y121855D01*
X11163Y121827D01*
X11329Y121700D01*
X11492Y121569D01*
X11525Y121550D01*
X11555Y121527D01*
X11739Y121428D01*
X11920Y121325D01*
X11956Y121312D01*
X11990Y121294D01*
X12187Y121226D01*
X12383Y121153D01*
X12420Y121146D01*
X12456Y121134D01*
X12663Y121099D01*
X12867Y121059D01*
X12905Y121058D01*
X12943Y121051D01*
X13152Y121050D01*
X13360Y121043D01*
X13398Y121048D01*
X13436Y121048D01*
X13643Y121081D01*
X13849Y121108D01*
X13886Y121119D01*
X13923Y121125D01*
X14122Y121190D01*
X14321Y121250D01*
X14356Y121267D01*
X14392Y121279D01*
X14577Y121376D01*
X14765Y121467D01*
X14796Y121489D01*
X14830Y121507D01*
X14902Y121565D01*
X15167Y121753D01*
X15289Y121873D01*
X15363Y121932D01*
X21391Y127961D01*
X22553Y127961D01*
X22553Y117800D01*
X22553Y107639D01*
X21391Y107639D01*
X15363Y113668D01*
X15334Y113693D01*
X15308Y113721D01*
X15146Y113852D01*
X14987Y113987D01*
X14954Y114007D01*
X14924Y114031D01*
X14743Y114134D01*
X14564Y114242D01*
X14529Y114256D01*
X14496Y114275D01*
X14300Y114348D01*
X14106Y114425D01*
X14069Y114433D01*
X14033Y114447D01*
X13828Y114487D01*
X13624Y114532D01*
X13586Y114534D01*
X13549Y114541D01*
X13341Y114548D01*
X13132Y114559D01*
X13094Y114555D01*
X13056Y114557D01*
X12849Y114529D01*
X12641Y114507D01*
X12605Y114497D01*
X12567Y114492D01*
X12367Y114432D01*
X12166Y114377D01*
X12131Y114361D01*
X12094Y114350D01*
X11907Y114258D01*
X11717Y114171D01*
X11685Y114149D01*
X11651Y114133D01*
X11482Y114012D01*
X11308Y113895D01*
X11280Y113869D01*
X11249Y113847D01*
X11101Y113701D01*
X10948Y113558D01*
X10925Y113527D01*
X10898Y113501D01*
X10775Y113332D01*
X10648Y113166D01*
X10630Y113133D01*
X10608Y113102D01*
X10514Y112916D01*
X10415Y112732D01*
X10402Y112695D01*
X10385Y112661D01*
X10323Y112462D01*
X10255Y112265D01*
X10249Y112227D01*
X10237Y112191D01*
X10227Y112098D01*
X10172Y111778D01*
X10171Y111606D01*
X10161Y111513D01*
X10161Y25916D01*
X10167Y25839D01*
X10165Y25762D01*
X10187Y25593D01*
X10201Y25424D01*
X10219Y25349D01*
X10229Y25273D01*
X10278Y25110D01*
X10319Y24945D01*
X10350Y24875D01*
X10372Y24801D01*
X10447Y24648D01*
X10514Y24492D01*
X10555Y24427D01*
X10589Y24358D01*
X10688Y24219D01*
X10779Y24076D01*
X10830Y24019D01*
X10875Y23956D01*
X10994Y23835D01*
X11108Y23708D01*
X11168Y23660D01*
X11222Y23605D01*
X11359Y23505D01*
X11492Y23398D01*
X11558Y23360D01*
X11621Y23315D01*
X11773Y23238D01*
X11920Y23154D01*
X11993Y23127D01*
X12061Y23093D01*
X12223Y23042D01*
X12383Y22983D01*
X12458Y22968D01*
X12532Y22945D01*
X12637Y22933D01*
X12867Y22888D01*
X13105Y22880D01*
X13210Y22869D01*
X155152Y22955D01*
G37*
%LPC*%
G36*
X256326Y533961D02*
X256326Y533961D01*
X250832Y536237D01*
X250663Y536407D01*
X250576Y536481D01*
X250495Y536562D01*
X250388Y536640D01*
X250287Y536726D01*
X250189Y536785D01*
X250096Y536852D01*
X249978Y536912D01*
X249864Y536981D01*
X249758Y537023D01*
X249656Y537075D01*
X249529Y537115D01*
X249406Y537164D01*
X249295Y537189D01*
X249186Y537223D01*
X249092Y537233D01*
X248924Y537271D01*
X248600Y537289D01*
X248508Y537299D01*
X246000Y537299D01*
X245999Y537300D01*
X245999Y541352D01*
X245998Y541361D01*
X245999Y541371D01*
X245979Y541606D01*
X245959Y541843D01*
X245957Y541853D01*
X245956Y541862D01*
X245945Y541901D01*
X245841Y542322D01*
X245789Y542442D01*
X245767Y542518D01*
X244351Y545936D01*
X244351Y551884D01*
X245767Y555302D01*
X245770Y555311D01*
X245775Y555320D01*
X245847Y555548D01*
X245919Y555772D01*
X245920Y555781D01*
X245923Y555791D01*
X245927Y555831D01*
X245992Y556260D01*
X245990Y556390D01*
X245999Y556468D01*
X245999Y565200D01*
X246000Y565201D01*
X297700Y565201D01*
X297701Y565200D01*
X297701Y553330D01*
X297702Y553320D01*
X297701Y553310D01*
X297721Y553075D01*
X297741Y552838D01*
X297743Y552829D01*
X297744Y552819D01*
X297755Y552781D01*
X297859Y552359D01*
X297911Y552239D01*
X297933Y552164D01*
X298049Y551884D01*
X298049Y545936D01*
X297933Y545656D01*
X297930Y545647D01*
X297925Y545638D01*
X297853Y545410D01*
X297781Y545187D01*
X297780Y545177D01*
X297777Y545168D01*
X297773Y545128D01*
X297708Y544699D01*
X297710Y544568D01*
X297701Y544490D01*
X297701Y537300D01*
X297700Y537299D01*
X293892Y537299D01*
X293779Y537290D01*
X293664Y537291D01*
X293533Y537270D01*
X293400Y537259D01*
X293290Y537232D01*
X293177Y537214D01*
X293051Y537173D01*
X292922Y537141D01*
X292817Y537096D01*
X292708Y537060D01*
X292590Y536998D01*
X292468Y536946D01*
X292372Y536885D01*
X292271Y536832D01*
X292197Y536773D01*
X292052Y536681D01*
X291810Y536465D01*
X291737Y536407D01*
X291568Y536237D01*
X286074Y533961D01*
X256326Y533961D01*
G37*
%LPD*%
%LPC*%
G36*
X256326Y583961D02*
X256326Y583961D01*
X250653Y586311D01*
X250596Y586352D01*
X250478Y586412D01*
X250364Y586481D01*
X250258Y586523D01*
X250156Y586575D01*
X250029Y586615D01*
X249906Y586664D01*
X249795Y586689D01*
X249686Y586723D01*
X249592Y586733D01*
X249424Y586771D01*
X249100Y586789D01*
X249008Y586799D01*
X245500Y586799D01*
X245499Y586800D01*
X245499Y592559D01*
X245498Y592568D01*
X245499Y592578D01*
X245479Y592813D01*
X245459Y593051D01*
X245457Y593060D01*
X245456Y593070D01*
X245445Y593108D01*
X245341Y593529D01*
X245289Y593650D01*
X245267Y593725D01*
X244351Y595936D01*
X244351Y601884D01*
X245267Y604095D01*
X245270Y604104D01*
X245275Y604113D01*
X245347Y604341D01*
X245419Y604565D01*
X245420Y604574D01*
X245423Y604583D01*
X245427Y604624D01*
X245492Y605052D01*
X245490Y605183D01*
X245499Y605261D01*
X245499Y614700D01*
X245500Y614701D01*
X297200Y614701D01*
X297201Y614700D01*
X297201Y604537D01*
X297202Y604527D01*
X297201Y604518D01*
X297221Y604282D01*
X297241Y604045D01*
X297243Y604036D01*
X297244Y604026D01*
X297255Y603988D01*
X297359Y603566D01*
X297411Y603446D01*
X297433Y603371D01*
X298049Y601883D01*
X298049Y595937D01*
X297433Y594449D01*
X297430Y594440D01*
X297425Y594431D01*
X297354Y594206D01*
X297281Y593980D01*
X297280Y593970D01*
X297277Y593961D01*
X297273Y593920D01*
X297208Y593492D01*
X297210Y593361D01*
X297201Y593283D01*
X297201Y586800D01*
X297200Y586799D01*
X293392Y586799D01*
X293279Y586790D01*
X293164Y586791D01*
X293033Y586770D01*
X292900Y586759D01*
X292790Y586732D01*
X292677Y586714D01*
X292551Y586673D01*
X292422Y586641D01*
X292317Y586596D01*
X292208Y586560D01*
X292090Y586498D01*
X291968Y586446D01*
X291872Y586385D01*
X291771Y586332D01*
X291742Y586309D01*
X286074Y583961D01*
X256326Y583961D01*
G37*
%LPD*%
%LPC*%
G36*
X244900Y383499D02*
X244900Y383499D01*
X244899Y383500D01*
X244899Y394207D01*
X244898Y394217D01*
X244899Y394227D01*
X244879Y394462D01*
X244859Y394699D01*
X244857Y394709D01*
X244856Y394718D01*
X244845Y394757D01*
X244741Y395178D01*
X244689Y395298D01*
X244667Y395373D01*
X244351Y396136D01*
X244351Y402084D01*
X244667Y402847D01*
X244670Y402856D01*
X244675Y402864D01*
X244747Y403092D01*
X244819Y403316D01*
X244820Y403326D01*
X244823Y403335D01*
X244827Y403375D01*
X244892Y403804D01*
X244890Y403935D01*
X244899Y404013D01*
X244899Y411400D01*
X244900Y411401D01*
X249303Y411401D01*
X249313Y411402D01*
X249323Y411401D01*
X249558Y411421D01*
X249795Y411441D01*
X249805Y411443D01*
X249814Y411444D01*
X249853Y411455D01*
X250274Y411559D01*
X250394Y411611D01*
X250469Y411633D01*
X256326Y414059D01*
X286074Y414059D01*
X291931Y411633D01*
X291940Y411630D01*
X291948Y411625D01*
X292177Y411553D01*
X292400Y411481D01*
X292410Y411480D01*
X292419Y411477D01*
X292459Y411473D01*
X292888Y411408D01*
X293019Y411410D01*
X293097Y411401D01*
X296600Y411401D01*
X296601Y411400D01*
X296601Y406185D01*
X296602Y406176D01*
X296601Y406166D01*
X296621Y405931D01*
X296641Y405694D01*
X296643Y405684D01*
X296644Y405675D01*
X296655Y405636D01*
X296759Y405215D01*
X296811Y405095D01*
X296833Y405019D01*
X298049Y402084D01*
X298049Y396136D01*
X296833Y393201D01*
X296830Y393192D01*
X296825Y393183D01*
X296753Y392955D01*
X296681Y392731D01*
X296680Y392722D01*
X296677Y392712D01*
X296673Y392672D01*
X296608Y392243D01*
X296610Y392113D01*
X296601Y392035D01*
X296601Y383500D01*
X296600Y383499D01*
X244900Y383499D01*
G37*
%LPD*%
%LPC*%
G36*
X256326Y34061D02*
X256326Y34061D01*
X251725Y35967D01*
X251716Y35970D01*
X251707Y35975D01*
X251479Y36047D01*
X251255Y36119D01*
X251246Y36120D01*
X251237Y36123D01*
X251196Y36127D01*
X250768Y36192D01*
X250637Y36190D01*
X250559Y36199D01*
X244200Y36199D01*
X244199Y36200D01*
X244199Y64100D01*
X244200Y64101D01*
X295900Y64101D01*
X295901Y64100D01*
X295901Y57775D01*
X295902Y57766D01*
X295901Y57756D01*
X295921Y57521D01*
X295941Y57284D01*
X295943Y57274D01*
X295944Y57265D01*
X295955Y57226D01*
X296059Y56805D01*
X296111Y56685D01*
X296133Y56609D01*
X298049Y51984D01*
X298049Y46036D01*
X296133Y41411D01*
X296130Y41402D01*
X296125Y41393D01*
X296053Y41165D01*
X295981Y40941D01*
X295980Y40932D01*
X295977Y40922D01*
X295973Y40882D01*
X295908Y40453D01*
X295910Y40323D01*
X295901Y40245D01*
X295901Y36200D01*
X295900Y36199D01*
X291841Y36199D01*
X291832Y36198D01*
X291822Y36199D01*
X291586Y36179D01*
X291349Y36159D01*
X291340Y36157D01*
X291330Y36156D01*
X291292Y36145D01*
X290871Y36041D01*
X290750Y35989D01*
X290675Y35967D01*
X286074Y34061D01*
X256326Y34061D01*
G37*
%LPD*%
%LPC*%
G36*
X256327Y184161D02*
X256327Y184161D01*
X254622Y184867D01*
X254613Y184870D01*
X254604Y184875D01*
X254377Y184946D01*
X254152Y185019D01*
X254143Y185020D01*
X254134Y185023D01*
X254093Y185027D01*
X253665Y185092D01*
X253534Y185090D01*
X253456Y185099D01*
X244100Y185099D01*
X244099Y185100D01*
X244099Y213000D01*
X244100Y213001D01*
X253166Y213001D01*
X253176Y213002D01*
X253185Y213001D01*
X253421Y213021D01*
X253658Y213041D01*
X253667Y213043D01*
X253677Y213044D01*
X253715Y213055D01*
X254137Y213159D01*
X254257Y213211D01*
X254332Y213233D01*
X256326Y214059D01*
X286074Y214059D01*
X288068Y213233D01*
X288077Y213230D01*
X288086Y213225D01*
X288314Y213153D01*
X288537Y213081D01*
X288547Y213080D01*
X288556Y213077D01*
X288596Y213073D01*
X289025Y213008D01*
X289156Y213010D01*
X289234Y213001D01*
X295800Y213001D01*
X295801Y213000D01*
X295801Y208117D01*
X295802Y208107D01*
X295801Y208097D01*
X295821Y207862D01*
X295841Y207625D01*
X295843Y207616D01*
X295844Y207606D01*
X295855Y207568D01*
X295959Y207146D01*
X296011Y207026D01*
X296033Y206951D01*
X298049Y202084D01*
X298049Y196136D01*
X296033Y191269D01*
X296030Y191260D01*
X296025Y191251D01*
X295953Y191024D01*
X295881Y190800D01*
X295880Y190790D01*
X295877Y190781D01*
X295873Y190741D01*
X295808Y190312D01*
X295810Y190181D01*
X295801Y190103D01*
X295801Y185100D01*
X295800Y185099D01*
X288944Y185099D01*
X288934Y185098D01*
X288925Y185099D01*
X288689Y185079D01*
X288452Y185059D01*
X288443Y185057D01*
X288433Y185056D01*
X288395Y185045D01*
X287974Y184941D01*
X287853Y184889D01*
X287778Y184867D01*
X286073Y184161D01*
X256327Y184161D01*
G37*
%LPD*%
%LPC*%
G36*
X256326Y84061D02*
X256326Y84061D01*
X254139Y84967D01*
X254130Y84970D01*
X254121Y84975D01*
X253894Y85046D01*
X253670Y85119D01*
X253660Y85120D01*
X253651Y85123D01*
X253610Y85127D01*
X253182Y85192D01*
X253051Y85190D01*
X252973Y85199D01*
X244400Y85199D01*
X244399Y85200D01*
X244399Y95315D01*
X244398Y95324D01*
X244399Y95334D01*
X244379Y95569D01*
X244359Y95806D01*
X244357Y95816D01*
X244356Y95826D01*
X244351Y95842D01*
X244351Y102226D01*
X244392Y102496D01*
X244390Y102627D01*
X244399Y102705D01*
X244399Y113100D01*
X244400Y113101D01*
X253649Y113101D01*
X253659Y113102D01*
X253668Y113101D01*
X253904Y113121D01*
X254141Y113141D01*
X254150Y113143D01*
X254160Y113144D01*
X254198Y113155D01*
X254620Y113259D01*
X254740Y113311D01*
X254815Y113333D01*
X256326Y113959D01*
X286074Y113959D01*
X287585Y113333D01*
X287594Y113330D01*
X287603Y113325D01*
X287830Y113254D01*
X288054Y113181D01*
X288064Y113180D01*
X288073Y113177D01*
X288114Y113173D01*
X288542Y113108D01*
X288673Y113110D01*
X288751Y113101D01*
X296100Y113101D01*
X296101Y113100D01*
X296101Y107293D01*
X296102Y107283D01*
X296101Y107273D01*
X296121Y107038D01*
X296141Y106801D01*
X296143Y106791D01*
X296144Y106782D01*
X296155Y106743D01*
X296259Y106322D01*
X296311Y106202D01*
X296333Y106126D01*
X298049Y101984D01*
X298049Y96036D01*
X296333Y91894D01*
X296330Y91884D01*
X296325Y91876D01*
X296253Y91648D01*
X296181Y91424D01*
X296180Y91415D01*
X296177Y91405D01*
X296173Y91365D01*
X296108Y90936D01*
X296110Y90806D01*
X296101Y90727D01*
X296101Y85200D01*
X296100Y85199D01*
X289427Y85199D01*
X289417Y85198D01*
X289408Y85199D01*
X289172Y85179D01*
X288935Y85159D01*
X288926Y85157D01*
X288916Y85156D01*
X288878Y85145D01*
X288456Y85041D01*
X288336Y84989D01*
X288261Y84967D01*
X286074Y84061D01*
X256326Y84061D01*
G37*
%LPD*%
%LPC*%
G36*
X256326Y334161D02*
X256326Y334161D01*
X252449Y335767D01*
X252440Y335770D01*
X252431Y335775D01*
X252203Y335847D01*
X251980Y335919D01*
X251970Y335920D01*
X251961Y335923D01*
X251920Y335927D01*
X251492Y335992D01*
X251361Y335990D01*
X251283Y335999D01*
X245400Y335999D01*
X245399Y336000D01*
X245399Y343000D01*
X245398Y343010D01*
X245399Y343020D01*
X245379Y343255D01*
X245359Y343492D01*
X245357Y343501D01*
X245356Y343511D01*
X245345Y343549D01*
X245241Y343971D01*
X245189Y344091D01*
X245167Y344166D01*
X244351Y346136D01*
X244351Y352084D01*
X245167Y354054D01*
X245170Y354063D01*
X245175Y354071D01*
X245247Y354299D01*
X245319Y354523D01*
X245320Y354533D01*
X245323Y354542D01*
X245327Y354582D01*
X245392Y355011D01*
X245390Y355142D01*
X245399Y355220D01*
X245399Y363900D01*
X245400Y363901D01*
X255339Y363901D01*
X255349Y363902D01*
X255358Y363901D01*
X255595Y363922D01*
X255831Y363941D01*
X255840Y363943D01*
X255850Y363944D01*
X255888Y363955D01*
X256307Y364059D01*
X286124Y364059D01*
X286139Y364054D01*
X286365Y363981D01*
X286374Y363980D01*
X286383Y363977D01*
X286423Y363973D01*
X286852Y363908D01*
X286983Y363910D01*
X287061Y363901D01*
X297100Y363901D01*
X297101Y363900D01*
X297101Y354978D01*
X297102Y354969D01*
X297101Y354959D01*
X297106Y354903D01*
X297105Y354867D01*
X297117Y354769D01*
X297121Y354724D01*
X297141Y354487D01*
X297143Y354477D01*
X297144Y354468D01*
X297155Y354429D01*
X297259Y354008D01*
X297311Y353888D01*
X297333Y353812D01*
X298049Y352084D01*
X298049Y346136D01*
X297333Y344408D01*
X297330Y344399D01*
X297325Y344390D01*
X297253Y344161D01*
X297181Y343938D01*
X297180Y343929D01*
X297177Y343919D01*
X297173Y343879D01*
X297108Y343450D01*
X297110Y343320D01*
X297101Y343242D01*
X297101Y336000D01*
X297100Y335999D01*
X291117Y335999D01*
X291107Y335998D01*
X291098Y335999D01*
X290862Y335979D01*
X290625Y335959D01*
X290616Y335957D01*
X290606Y335956D01*
X290568Y335945D01*
X290146Y335841D01*
X290026Y335789D01*
X289951Y335767D01*
X286074Y334161D01*
X256326Y334161D01*
G37*
%LPD*%
%LPC*%
G36*
X256326Y434161D02*
X256326Y434161D01*
X253415Y435367D01*
X253406Y435370D01*
X253397Y435375D01*
X253169Y435447D01*
X252945Y435519D01*
X252936Y435520D01*
X252926Y435523D01*
X252886Y435527D01*
X252457Y435592D01*
X252327Y435590D01*
X252249Y435599D01*
X246000Y435599D01*
X245999Y435600D01*
X245999Y441552D01*
X245998Y441561D01*
X245999Y441571D01*
X245979Y441806D01*
X245959Y442043D01*
X245957Y442053D01*
X245956Y442063D01*
X245945Y442101D01*
X245841Y442522D01*
X245789Y442642D01*
X245767Y442718D01*
X244351Y446136D01*
X244351Y452084D01*
X245767Y455502D01*
X245770Y455511D01*
X245775Y455520D01*
X245847Y455748D01*
X245919Y455972D01*
X245920Y455981D01*
X245923Y455991D01*
X245927Y456031D01*
X245992Y456460D01*
X245990Y456590D01*
X245999Y456668D01*
X245999Y463500D01*
X246000Y463501D01*
X254373Y463501D01*
X254383Y463502D01*
X254393Y463501D01*
X254628Y463521D01*
X254865Y463541D01*
X254874Y463543D01*
X254884Y463544D01*
X254922Y463555D01*
X255344Y463659D01*
X255464Y463711D01*
X255539Y463733D01*
X256326Y464059D01*
X286074Y464059D01*
X286861Y463733D01*
X286870Y463730D01*
X286879Y463725D01*
X287107Y463653D01*
X287330Y463581D01*
X287340Y463580D01*
X287349Y463577D01*
X287389Y463573D01*
X287818Y463508D01*
X287949Y463510D01*
X288027Y463501D01*
X297700Y463501D01*
X297701Y463500D01*
X297701Y453530D01*
X297702Y453520D01*
X297701Y453510D01*
X297721Y453275D01*
X297741Y453038D01*
X297743Y453029D01*
X297744Y453019D01*
X297755Y452981D01*
X297859Y452559D01*
X297911Y452439D01*
X297933Y452364D01*
X298049Y452084D01*
X298049Y446136D01*
X297933Y445856D01*
X297930Y445847D01*
X297925Y445838D01*
X297853Y445610D01*
X297781Y445387D01*
X297780Y445377D01*
X297777Y445368D01*
X297773Y445328D01*
X297708Y444899D01*
X297710Y444768D01*
X297701Y444690D01*
X297701Y435600D01*
X297700Y435599D01*
X290151Y435599D01*
X290142Y435598D01*
X290132Y435599D01*
X289897Y435579D01*
X289660Y435559D01*
X289650Y435557D01*
X289641Y435556D01*
X289602Y435545D01*
X289181Y435441D01*
X289061Y435389D01*
X288985Y435367D01*
X286074Y434161D01*
X256326Y434161D01*
G37*
%LPD*%
%LPC*%
G36*
X256326Y234161D02*
X256326Y234161D01*
X253173Y235467D01*
X253164Y235470D01*
X253156Y235475D01*
X252928Y235547D01*
X252704Y235619D01*
X252694Y235620D01*
X252685Y235623D01*
X252645Y235627D01*
X252216Y235692D01*
X252085Y235690D01*
X252007Y235699D01*
X245600Y235699D01*
X245599Y235700D01*
X245599Y242517D01*
X245598Y242527D01*
X245599Y242537D01*
X245579Y242772D01*
X245559Y243009D01*
X245557Y243019D01*
X245556Y243028D01*
X245545Y243067D01*
X245441Y243488D01*
X245389Y243608D01*
X245367Y243684D01*
X244351Y246136D01*
X244351Y252084D01*
X245367Y254536D01*
X245370Y254546D01*
X245375Y254554D01*
X245446Y254782D01*
X245519Y255006D01*
X245520Y255015D01*
X245523Y255025D01*
X245527Y255065D01*
X245592Y255494D01*
X245590Y255625D01*
X245599Y255703D01*
X245599Y263600D01*
X245600Y263601D01*
X254615Y263601D01*
X254624Y263602D01*
X254634Y263601D01*
X254870Y263621D01*
X255106Y263641D01*
X255116Y263643D01*
X255125Y263644D01*
X255164Y263655D01*
X255585Y263759D01*
X255587Y263760D01*
X255706Y263811D01*
X255781Y263833D01*
X256327Y264059D01*
X286073Y264059D01*
X286619Y263833D01*
X286628Y263830D01*
X286635Y263826D01*
X286636Y263826D01*
X286637Y263825D01*
X286864Y263754D01*
X287089Y263681D01*
X287098Y263680D01*
X287108Y263677D01*
X287148Y263673D01*
X287577Y263608D01*
X287707Y263610D01*
X287785Y263601D01*
X297300Y263601D01*
X297301Y263600D01*
X297301Y254495D01*
X297302Y254486D01*
X297301Y254476D01*
X297321Y254241D01*
X297341Y254004D01*
X297343Y253994D01*
X297344Y253985D01*
X297355Y253946D01*
X297381Y253843D01*
X297384Y253818D01*
X297400Y253766D01*
X297459Y253525D01*
X297503Y253423D01*
X297526Y253346D01*
X297530Y253339D01*
X297533Y253329D01*
X298049Y252084D01*
X298049Y246136D01*
X297533Y244891D01*
X297530Y244881D01*
X297525Y244873D01*
X297454Y244646D01*
X297381Y244421D01*
X297380Y244412D01*
X297377Y244402D01*
X297373Y244362D01*
X297308Y243933D01*
X297310Y243803D01*
X297301Y243725D01*
X297301Y235700D01*
X297300Y235699D01*
X290393Y235699D01*
X290383Y235698D01*
X290373Y235699D01*
X290138Y235679D01*
X289901Y235659D01*
X289891Y235657D01*
X289882Y235656D01*
X289844Y235645D01*
X289422Y235541D01*
X289302Y235489D01*
X289227Y235467D01*
X286074Y234161D01*
X256326Y234161D01*
G37*
%LPD*%
%LPC*%
G36*
X256326Y134161D02*
X256326Y134161D01*
X254863Y134767D01*
X254854Y134770D01*
X254846Y134775D01*
X254618Y134847D01*
X254394Y134919D01*
X254384Y134920D01*
X254375Y134923D01*
X254335Y134927D01*
X253906Y134992D01*
X253775Y134990D01*
X253697Y134999D01*
X245000Y134999D01*
X244999Y135000D01*
X244999Y143966D01*
X244998Y143976D01*
X244999Y143985D01*
X244979Y144221D01*
X244959Y144458D01*
X244957Y144467D01*
X244956Y144477D01*
X244945Y144515D01*
X244841Y144937D01*
X244789Y145057D01*
X244767Y145132D01*
X244351Y146137D01*
X244351Y152083D01*
X244767Y153088D01*
X244770Y153097D01*
X244775Y153106D01*
X244846Y153332D01*
X244919Y153557D01*
X244920Y153567D01*
X244923Y153576D01*
X244927Y153617D01*
X244992Y154045D01*
X244990Y154176D01*
X244999Y154254D01*
X244999Y162900D01*
X245000Y162901D01*
X252925Y162901D01*
X252934Y162902D01*
X252944Y162901D01*
X253179Y162921D01*
X253416Y162941D01*
X253426Y162943D01*
X253435Y162944D01*
X253474Y162955D01*
X253895Y163059D01*
X254015Y163111D01*
X254091Y163133D01*
X256326Y164059D01*
X286074Y164059D01*
X288309Y163133D01*
X288318Y163130D01*
X288327Y163125D01*
X288556Y163053D01*
X288779Y162981D01*
X288788Y162980D01*
X288798Y162977D01*
X288838Y162973D01*
X289267Y162908D01*
X289397Y162910D01*
X289475Y162901D01*
X296700Y162901D01*
X296701Y162900D01*
X296701Y155944D01*
X296702Y155934D01*
X296701Y155925D01*
X296721Y155689D01*
X296741Y155452D01*
X296743Y155443D01*
X296744Y155433D01*
X296755Y155395D01*
X296859Y154973D01*
X296911Y154853D01*
X296933Y154778D01*
X298049Y152084D01*
X298049Y146136D01*
X296933Y143442D01*
X296930Y143433D01*
X296925Y143424D01*
X296853Y143196D01*
X296781Y142973D01*
X296780Y142963D01*
X296777Y142954D01*
X296773Y142913D01*
X296708Y142485D01*
X296710Y142354D01*
X296701Y142276D01*
X296701Y135000D01*
X296700Y134999D01*
X288703Y134999D01*
X288693Y134998D01*
X288683Y134999D01*
X288448Y134979D01*
X288211Y134959D01*
X288202Y134957D01*
X288192Y134956D01*
X288154Y134945D01*
X287732Y134841D01*
X287612Y134789D01*
X287537Y134767D01*
X286074Y134161D01*
X256326Y134161D01*
G37*
%LPD*%
%LPC*%
G36*
X256326Y284161D02*
X256326Y284161D01*
X254381Y284967D01*
X254371Y284970D01*
X254363Y284975D01*
X254135Y285047D01*
X253911Y285119D01*
X253902Y285120D01*
X253892Y285123D01*
X253852Y285127D01*
X253423Y285192D01*
X253292Y285190D01*
X253214Y285199D01*
X245100Y285199D01*
X245099Y285200D01*
X245099Y293725D01*
X245098Y293734D01*
X245099Y293744D01*
X245079Y293979D01*
X245059Y294216D01*
X245057Y294226D01*
X245056Y294235D01*
X245045Y294274D01*
X244941Y294695D01*
X244889Y294815D01*
X244867Y294891D01*
X244351Y296136D01*
X244351Y302084D01*
X244867Y303329D01*
X244870Y303339D01*
X244875Y303347D01*
X244946Y303574D01*
X245019Y303799D01*
X245020Y303808D01*
X245023Y303818D01*
X245027Y303858D01*
X245092Y304287D01*
X245090Y304417D01*
X245099Y304495D01*
X245099Y313100D01*
X245100Y313101D01*
X253408Y313101D01*
X253417Y313102D01*
X253427Y313101D01*
X253662Y313121D01*
X253899Y313141D01*
X253909Y313143D01*
X253918Y313144D01*
X253957Y313155D01*
X254378Y313259D01*
X254498Y313311D01*
X254574Y313333D01*
X256326Y314059D01*
X286074Y314059D01*
X287826Y313333D01*
X287836Y313330D01*
X287844Y313325D01*
X288073Y313253D01*
X288296Y313181D01*
X288305Y313180D01*
X288315Y313177D01*
X288355Y313173D01*
X288784Y313108D01*
X288914Y313110D01*
X288992Y313101D01*
X296800Y313101D01*
X296801Y313100D01*
X296801Y305703D01*
X296802Y305693D01*
X296801Y305683D01*
X296821Y305448D01*
X296841Y305211D01*
X296843Y305201D01*
X296844Y305192D01*
X296855Y305153D01*
X296959Y304732D01*
X297011Y304612D01*
X297033Y304536D01*
X298049Y302084D01*
X298049Y296136D01*
X297033Y293684D01*
X297030Y293674D01*
X297025Y293666D01*
X296954Y293438D01*
X296881Y293214D01*
X296880Y293205D01*
X296877Y293195D01*
X296873Y293155D01*
X296808Y292726D01*
X296810Y292595D01*
X296801Y292517D01*
X296801Y285200D01*
X296800Y285199D01*
X289186Y285199D01*
X289176Y285198D01*
X289166Y285199D01*
X288931Y285179D01*
X288694Y285159D01*
X288684Y285157D01*
X288675Y285156D01*
X288636Y285145D01*
X288215Y285041D01*
X288095Y284989D01*
X288019Y284967D01*
X286074Y284161D01*
X256326Y284161D01*
G37*
%LPD*%
%LPC*%
G36*
X256326Y484161D02*
X256326Y484161D01*
X254622Y484867D01*
X254613Y484870D01*
X254604Y484875D01*
X254376Y484947D01*
X254152Y485019D01*
X254143Y485020D01*
X254134Y485023D01*
X254093Y485027D01*
X253665Y485092D01*
X253534Y485090D01*
X253456Y485099D01*
X245500Y485099D01*
X245499Y485100D01*
X245499Y492759D01*
X245498Y492768D01*
X245499Y492778D01*
X245479Y493013D01*
X245459Y493251D01*
X245457Y493260D01*
X245456Y493270D01*
X245445Y493308D01*
X245341Y493729D01*
X245289Y493850D01*
X245267Y493925D01*
X244351Y496136D01*
X244351Y502084D01*
X245267Y504295D01*
X245270Y504304D01*
X245275Y504313D01*
X245347Y504541D01*
X245419Y504765D01*
X245420Y504774D01*
X245423Y504783D01*
X245427Y504824D01*
X245492Y505252D01*
X245490Y505383D01*
X245499Y505461D01*
X245499Y513000D01*
X245500Y513001D01*
X253166Y513001D01*
X253176Y513002D01*
X253185Y513001D01*
X253421Y513021D01*
X253658Y513041D01*
X253667Y513043D01*
X253677Y513044D01*
X253715Y513055D01*
X254137Y513159D01*
X254257Y513211D01*
X254332Y513233D01*
X256326Y514059D01*
X286074Y514059D01*
X288068Y513233D01*
X288077Y513230D01*
X288086Y513225D01*
X288314Y513153D01*
X288537Y513081D01*
X288547Y513080D01*
X288556Y513077D01*
X288597Y513073D01*
X289025Y513008D01*
X289156Y513010D01*
X289234Y513001D01*
X297200Y513001D01*
X297201Y513000D01*
X297201Y504737D01*
X297202Y504727D01*
X297201Y504718D01*
X297221Y504482D01*
X297241Y504245D01*
X297243Y504236D01*
X297244Y504226D01*
X297255Y504188D01*
X297359Y503766D01*
X297411Y503646D01*
X297433Y503571D01*
X298049Y502084D01*
X298049Y496136D01*
X297433Y494649D01*
X297430Y494640D01*
X297425Y494631D01*
X297353Y494403D01*
X297281Y494180D01*
X297280Y494170D01*
X297277Y494161D01*
X297273Y494121D01*
X297208Y493692D01*
X297210Y493561D01*
X297201Y493483D01*
X297201Y485100D01*
X297200Y485099D01*
X288944Y485099D01*
X288935Y485098D01*
X288925Y485099D01*
X288690Y485079D01*
X288452Y485059D01*
X288443Y485057D01*
X288433Y485056D01*
X288395Y485045D01*
X287974Y484941D01*
X287853Y484889D01*
X287778Y484867D01*
X286074Y484161D01*
X256326Y484161D01*
G37*
%LPD*%
%LPC*%
G36*
X56378Y169431D02*
X56378Y169431D01*
X52457Y171055D01*
X49455Y174057D01*
X47831Y177978D01*
X47831Y182222D01*
X49455Y186143D01*
X52457Y189145D01*
X55156Y190263D01*
X55296Y190334D01*
X55441Y190398D01*
X55515Y190447D01*
X55595Y190488D01*
X55722Y190581D01*
X55854Y190667D01*
X55920Y190728D01*
X55992Y190781D01*
X56102Y190894D01*
X56218Y191000D01*
X56274Y191070D01*
X56336Y191134D01*
X56427Y191263D01*
X56525Y191387D01*
X56568Y191465D01*
X56619Y191538D01*
X56688Y191680D01*
X56764Y191818D01*
X56794Y191902D01*
X56833Y191982D01*
X56878Y192134D01*
X56931Y192282D01*
X56947Y192370D01*
X56973Y192456D01*
X56992Y192612D01*
X57021Y192767D01*
X57023Y192857D01*
X57034Y192945D01*
X57028Y193102D01*
X57031Y193260D01*
X57019Y193349D01*
X57016Y193438D01*
X56984Y193592D01*
X56962Y193749D01*
X56935Y193834D01*
X56918Y193922D01*
X56862Y194069D01*
X56815Y194220D01*
X56775Y194300D01*
X56743Y194383D01*
X56664Y194520D01*
X56594Y194661D01*
X56541Y194733D01*
X56497Y194810D01*
X56397Y194932D01*
X56304Y195060D01*
X56241Y195123D01*
X56184Y195192D01*
X56066Y195296D01*
X55954Y195408D01*
X55881Y195459D01*
X55814Y195518D01*
X55681Y195602D01*
X55552Y195694D01*
X55490Y195722D01*
X55396Y195781D01*
X54942Y195972D01*
X54935Y195974D01*
X54931Y195976D01*
X54600Y196084D01*
X53175Y196810D01*
X51881Y197750D01*
X50750Y198881D01*
X49810Y200175D01*
X49084Y201600D01*
X48807Y202453D01*
X58500Y202453D01*
X68193Y202453D01*
X67916Y201600D01*
X67190Y200175D01*
X66250Y198881D01*
X65119Y197750D01*
X63825Y196810D01*
X62400Y196084D01*
X62069Y195976D01*
X61923Y195915D01*
X61774Y195863D01*
X61696Y195820D01*
X61614Y195786D01*
X61480Y195703D01*
X61341Y195627D01*
X61270Y195572D01*
X61195Y195525D01*
X61076Y195421D01*
X60952Y195324D01*
X60891Y195259D01*
X60824Y195200D01*
X60723Y195078D01*
X60616Y194963D01*
X60567Y194888D01*
X60510Y194819D01*
X60431Y194683D01*
X60343Y194552D01*
X60307Y194470D01*
X60262Y194393D01*
X60205Y194246D01*
X60140Y194102D01*
X60117Y194016D01*
X60085Y193932D01*
X60054Y193778D01*
X60013Y193625D01*
X60004Y193537D01*
X59986Y193449D01*
X59979Y193292D01*
X59964Y193135D01*
X59969Y193045D01*
X59966Y192956D01*
X59985Y192800D01*
X59994Y192642D01*
X60014Y192555D01*
X60025Y192467D01*
X60069Y192315D01*
X60104Y192161D01*
X60138Y192079D01*
X60163Y191993D01*
X60231Y191851D01*
X60290Y191704D01*
X60337Y191628D01*
X60375Y191548D01*
X60465Y191418D01*
X60548Y191283D01*
X60606Y191216D01*
X60657Y191142D01*
X60766Y191029D01*
X60869Y190909D01*
X60938Y190852D01*
X61000Y190788D01*
X61126Y190694D01*
X61247Y190592D01*
X61307Y190559D01*
X61396Y190494D01*
X61834Y190267D01*
X61840Y190265D01*
X61844Y190263D01*
X64543Y189145D01*
X67545Y186143D01*
X69169Y182222D01*
X69169Y177978D01*
X67545Y174057D01*
X64543Y171055D01*
X60622Y169431D01*
X56378Y169431D01*
G37*
%LPD*%
%LPC*%
G36*
X46678Y47831D02*
X46678Y47831D01*
X42757Y49455D01*
X39755Y52457D01*
X38131Y56378D01*
X38131Y60622D01*
X39755Y64543D01*
X42757Y67545D01*
X46678Y69169D01*
X50922Y69169D01*
X54843Y67545D01*
X57845Y64543D01*
X58963Y61844D01*
X59034Y61704D01*
X59098Y61559D01*
X59147Y61485D01*
X59188Y61405D01*
X59281Y61278D01*
X59367Y61146D01*
X59428Y61080D01*
X59481Y61008D01*
X59594Y60898D01*
X59700Y60782D01*
X59770Y60726D01*
X59834Y60664D01*
X59963Y60573D01*
X60087Y60475D01*
X60165Y60432D01*
X60238Y60381D01*
X60380Y60312D01*
X60518Y60236D01*
X60602Y60206D01*
X60682Y60167D01*
X60834Y60122D01*
X60982Y60069D01*
X61070Y60053D01*
X61156Y60027D01*
X61312Y60008D01*
X61467Y59979D01*
X61557Y59977D01*
X61645Y59966D01*
X61802Y59972D01*
X61960Y59969D01*
X62049Y59981D01*
X62138Y59984D01*
X62292Y60016D01*
X62449Y60038D01*
X62534Y60065D01*
X62622Y60082D01*
X62769Y60138D01*
X62920Y60185D01*
X63000Y60225D01*
X63083Y60257D01*
X63220Y60336D01*
X63361Y60406D01*
X63433Y60459D01*
X63510Y60503D01*
X63632Y60603D01*
X63760Y60696D01*
X63823Y60759D01*
X63892Y60816D01*
X63996Y60934D01*
X64108Y61046D01*
X64159Y61119D01*
X64218Y61186D01*
X64302Y61319D01*
X64394Y61448D01*
X64422Y61510D01*
X64481Y61604D01*
X64672Y62058D01*
X64674Y62065D01*
X64676Y62069D01*
X64784Y62400D01*
X65510Y63825D01*
X66450Y65119D01*
X67581Y66250D01*
X68875Y67190D01*
X70300Y67916D01*
X71153Y68193D01*
X71153Y58500D01*
X71153Y48807D01*
X70300Y49084D01*
X68875Y49810D01*
X67581Y50750D01*
X66450Y51881D01*
X65510Y53175D01*
X64784Y54600D01*
X64676Y54931D01*
X64615Y55077D01*
X64563Y55226D01*
X64520Y55304D01*
X64486Y55387D01*
X64403Y55521D01*
X64327Y55659D01*
X64272Y55730D01*
X64225Y55805D01*
X64121Y55924D01*
X64024Y56048D01*
X63959Y56109D01*
X63900Y56176D01*
X63778Y56277D01*
X63663Y56384D01*
X63588Y56433D01*
X63519Y56490D01*
X63383Y56570D01*
X63252Y56657D01*
X63170Y56694D01*
X63093Y56738D01*
X62946Y56795D01*
X62802Y56860D01*
X62715Y56883D01*
X62632Y56915D01*
X62478Y56946D01*
X62325Y56987D01*
X62236Y56996D01*
X62149Y57014D01*
X61991Y57021D01*
X61835Y57036D01*
X61745Y57031D01*
X61656Y57034D01*
X61499Y57015D01*
X61342Y57006D01*
X61255Y56986D01*
X61166Y56975D01*
X61015Y56931D01*
X60861Y56896D01*
X60778Y56862D01*
X60693Y56837D01*
X60550Y56769D01*
X60404Y56710D01*
X60328Y56663D01*
X60247Y56625D01*
X60118Y56535D01*
X59983Y56452D01*
X59916Y56394D01*
X59842Y56343D01*
X59729Y56234D01*
X59609Y56131D01*
X59552Y56062D01*
X59488Y56000D01*
X59394Y55873D01*
X59292Y55753D01*
X59259Y55693D01*
X59193Y55604D01*
X58967Y55166D01*
X58965Y55160D01*
X58962Y55156D01*
X57844Y52457D01*
X54843Y49455D01*
X50922Y47831D01*
X46678Y47831D01*
G37*
%LPD*%
%LPC*%
G36*
X64708Y527547D02*
X64708Y527547D01*
X64778Y527570D01*
X64942Y527615D01*
X65012Y527647D01*
X65084Y527671D01*
X65235Y527750D01*
X65391Y527821D01*
X65454Y527864D01*
X65522Y527899D01*
X65604Y527964D01*
X65800Y528097D01*
X65973Y528259D01*
X66055Y528324D01*
X72391Y534661D01*
X73553Y534661D01*
X73553Y527547D01*
X64708Y527547D01*
G37*
%LPD*%
%LPC*%
G36*
X90108Y527547D02*
X90108Y527547D01*
X90178Y527570D01*
X90342Y527615D01*
X90412Y527647D01*
X90484Y527671D01*
X90635Y527750D01*
X90791Y527821D01*
X90854Y527864D01*
X90922Y527899D01*
X91004Y527964D01*
X91200Y528097D01*
X91373Y528259D01*
X91455Y528324D01*
X97791Y534661D01*
X98953Y534661D01*
X98953Y527547D01*
X90108Y527547D01*
G37*
%LPD*%
%LPC*%
G36*
X39308Y527547D02*
X39308Y527547D01*
X39378Y527570D01*
X39542Y527615D01*
X39612Y527647D01*
X39684Y527671D01*
X39835Y527750D01*
X39991Y527821D01*
X40054Y527864D01*
X40122Y527899D01*
X40204Y527964D01*
X40400Y528097D01*
X40573Y528259D01*
X40655Y528324D01*
X46991Y534661D01*
X48153Y534661D01*
X48153Y527547D01*
X39308Y527547D01*
G37*
%LPD*%
%LPC*%
G36*
X115508Y527547D02*
X115508Y527547D01*
X115578Y527570D01*
X115742Y527615D01*
X115812Y527647D01*
X115884Y527671D01*
X116035Y527750D01*
X116191Y527821D01*
X116254Y527864D01*
X116322Y527899D01*
X116404Y527964D01*
X116600Y528097D01*
X116773Y528259D01*
X116855Y528324D01*
X123191Y534661D01*
X124353Y534661D01*
X124353Y527547D01*
X115508Y527547D01*
G37*
%LPD*%
%LPC*%
G36*
X140908Y527547D02*
X140908Y527547D01*
X140978Y527570D01*
X141142Y527615D01*
X141212Y527647D01*
X141284Y527671D01*
X141435Y527750D01*
X141591Y527821D01*
X141654Y527864D01*
X141722Y527899D01*
X141804Y527964D01*
X142000Y528097D01*
X142173Y528259D01*
X142255Y528324D01*
X148591Y534661D01*
X149753Y534661D01*
X149753Y527547D01*
X140908Y527547D01*
G37*
%LPD*%
%LPC*%
G36*
X79447Y107639D02*
X79447Y107639D01*
X79447Y114753D01*
X88292Y114753D01*
X88222Y114730D01*
X88058Y114685D01*
X87988Y114653D01*
X87916Y114629D01*
X87765Y114550D01*
X87609Y114479D01*
X87546Y114436D01*
X87478Y114401D01*
X87396Y114336D01*
X87200Y114203D01*
X87027Y114041D01*
X86945Y113976D01*
X80609Y107639D01*
X79447Y107639D01*
G37*
%LPD*%
%LPC*%
G36*
X54047Y107639D02*
X54047Y107639D01*
X54047Y114753D01*
X62892Y114753D01*
X62822Y114730D01*
X62658Y114685D01*
X62588Y114653D01*
X62516Y114629D01*
X62365Y114550D01*
X62209Y114479D01*
X62146Y114436D01*
X62078Y114401D01*
X61996Y114336D01*
X61800Y114203D01*
X61627Y114041D01*
X61545Y113976D01*
X55209Y107639D01*
X54047Y107639D01*
G37*
%LPD*%
%LPC*%
G36*
X104847Y107639D02*
X104847Y107639D01*
X104847Y114753D01*
X113692Y114753D01*
X113622Y114730D01*
X113458Y114685D01*
X113388Y114653D01*
X113316Y114629D01*
X113165Y114550D01*
X113009Y114479D01*
X112946Y114436D01*
X112878Y114401D01*
X112796Y114336D01*
X112600Y114203D01*
X112427Y114041D01*
X112345Y113976D01*
X106009Y107639D01*
X104847Y107639D01*
G37*
%LPD*%
%LPC*%
G36*
X28647Y107639D02*
X28647Y107639D01*
X28647Y114753D01*
X37492Y114753D01*
X37422Y114730D01*
X37258Y114685D01*
X37188Y114653D01*
X37116Y114629D01*
X36965Y114550D01*
X36809Y114479D01*
X36746Y114436D01*
X36678Y114401D01*
X36596Y114336D01*
X36400Y114203D01*
X36227Y114041D01*
X36145Y113976D01*
X29809Y107639D01*
X28647Y107639D01*
G37*
%LPD*%
%LPC*%
G36*
X130247Y107639D02*
X130247Y107639D01*
X130247Y114753D01*
X139092Y114753D01*
X139022Y114730D01*
X138858Y114685D01*
X138788Y114653D01*
X138716Y114629D01*
X138565Y114550D01*
X138409Y114479D01*
X138346Y114436D01*
X138278Y114401D01*
X138196Y114336D01*
X138000Y114203D01*
X137827Y114041D01*
X137745Y113976D01*
X131409Y107639D01*
X130247Y107639D01*
G37*
%LPD*%
%LPC*%
G36*
X140708Y120847D02*
X140708Y120847D01*
X140778Y120870D01*
X140942Y120915D01*
X141012Y120947D01*
X141084Y120971D01*
X141235Y121050D01*
X141391Y121121D01*
X141454Y121164D01*
X141522Y121199D01*
X141604Y121265D01*
X141800Y121397D01*
X141972Y121558D01*
X142055Y121624D01*
X148391Y127961D01*
X149553Y127961D01*
X149553Y120847D01*
X140708Y120847D01*
G37*
%LPD*%
%LPC*%
G36*
X115308Y120847D02*
X115308Y120847D01*
X115378Y120870D01*
X115542Y120915D01*
X115612Y120947D01*
X115684Y120971D01*
X115835Y121050D01*
X115991Y121121D01*
X116054Y121164D01*
X116122Y121199D01*
X116204Y121265D01*
X116400Y121397D01*
X116572Y121558D01*
X116655Y121624D01*
X122991Y127961D01*
X124153Y127961D01*
X124153Y120847D01*
X115308Y120847D01*
G37*
%LPD*%
%LPC*%
G36*
X64508Y120847D02*
X64508Y120847D01*
X64578Y120870D01*
X64742Y120915D01*
X64812Y120947D01*
X64884Y120971D01*
X65035Y121050D01*
X65191Y121121D01*
X65254Y121164D01*
X65322Y121199D01*
X65404Y121265D01*
X65600Y121397D01*
X65772Y121558D01*
X65855Y121624D01*
X72191Y127961D01*
X73353Y127961D01*
X73353Y120847D01*
X64508Y120847D01*
G37*
%LPD*%
%LPC*%
G36*
X39108Y120847D02*
X39108Y120847D01*
X39178Y120870D01*
X39342Y120915D01*
X39412Y120947D01*
X39484Y120971D01*
X39635Y121050D01*
X39791Y121121D01*
X39854Y121164D01*
X39922Y121199D01*
X40004Y121265D01*
X40200Y121397D01*
X40372Y121558D01*
X40455Y121624D01*
X46791Y127961D01*
X47953Y127961D01*
X47953Y120847D01*
X39108Y120847D01*
G37*
%LPD*%
%LPC*%
G36*
X89908Y120847D02*
X89908Y120847D01*
X89978Y120870D01*
X90142Y120915D01*
X90212Y120947D01*
X90284Y120971D01*
X90435Y121050D01*
X90591Y121121D01*
X90654Y121164D01*
X90722Y121199D01*
X90804Y121265D01*
X91000Y121397D01*
X91172Y121558D01*
X91255Y121624D01*
X97591Y127961D01*
X98753Y127961D01*
X98753Y120847D01*
X89908Y120847D01*
G37*
%LPD*%
%LPC*%
G36*
X28847Y514339D02*
X28847Y514339D01*
X28847Y521453D01*
X37692Y521453D01*
X37622Y521430D01*
X37458Y521385D01*
X37388Y521353D01*
X37316Y521329D01*
X37165Y521250D01*
X37009Y521179D01*
X36946Y521136D01*
X36878Y521101D01*
X36796Y521035D01*
X36600Y520903D01*
X36428Y520742D01*
X36345Y520676D01*
X30009Y514339D01*
X28847Y514339D01*
G37*
%LPD*%
%LPC*%
G36*
X54247Y514339D02*
X54247Y514339D01*
X54247Y521453D01*
X63092Y521453D01*
X63022Y521430D01*
X62858Y521385D01*
X62788Y521353D01*
X62716Y521329D01*
X62565Y521250D01*
X62409Y521179D01*
X62346Y521136D01*
X62278Y521101D01*
X62196Y521035D01*
X62000Y520903D01*
X61828Y520742D01*
X61745Y520676D01*
X55409Y514339D01*
X54247Y514339D01*
G37*
%LPD*%
%LPC*%
G36*
X79647Y514339D02*
X79647Y514339D01*
X79647Y521453D01*
X88492Y521453D01*
X88422Y521430D01*
X88258Y521385D01*
X88188Y521353D01*
X88116Y521329D01*
X87965Y521250D01*
X87809Y521179D01*
X87746Y521136D01*
X87678Y521101D01*
X87596Y521035D01*
X87400Y520903D01*
X87228Y520742D01*
X87145Y520676D01*
X80809Y514339D01*
X79647Y514339D01*
G37*
%LPD*%
%LPC*%
G36*
X105047Y514339D02*
X105047Y514339D01*
X105047Y521453D01*
X113892Y521453D01*
X113822Y521430D01*
X113658Y521385D01*
X113588Y521353D01*
X113516Y521329D01*
X113365Y521250D01*
X113209Y521179D01*
X113146Y521136D01*
X113078Y521101D01*
X112996Y521035D01*
X112800Y520903D01*
X112628Y520742D01*
X112545Y520676D01*
X106209Y514339D01*
X105047Y514339D01*
G37*
%LPD*%
%LPC*%
G36*
X130447Y514339D02*
X130447Y514339D01*
X130447Y521453D01*
X139292Y521453D01*
X139222Y521430D01*
X139058Y521385D01*
X138988Y521353D01*
X138916Y521329D01*
X138765Y521250D01*
X138609Y521179D01*
X138546Y521136D01*
X138478Y521101D01*
X138396Y521035D01*
X138200Y520903D01*
X138028Y520742D01*
X137945Y520676D01*
X131609Y514339D01*
X130447Y514339D01*
G37*
%LPD*%
%LPC*%
G36*
X28647Y120847D02*
X28647Y120847D01*
X28647Y127961D01*
X29809Y127961D01*
X36145Y121624D01*
X36203Y121575D01*
X36256Y121519D01*
X36391Y121415D01*
X36521Y121305D01*
X36587Y121265D01*
X36647Y121219D01*
X36797Y121138D01*
X36944Y121050D01*
X37015Y121022D01*
X37082Y120986D01*
X37243Y120930D01*
X37402Y120867D01*
X37476Y120851D01*
X37485Y120847D01*
X28647Y120847D01*
G37*
%LPD*%
%LPC*%
G36*
X54047Y120847D02*
X54047Y120847D01*
X54047Y127961D01*
X55209Y127961D01*
X61545Y121624D01*
X61603Y121575D01*
X61656Y121519D01*
X61791Y121415D01*
X61921Y121305D01*
X61987Y121265D01*
X62047Y121219D01*
X62197Y121138D01*
X62344Y121050D01*
X62415Y121022D01*
X62482Y120986D01*
X62643Y120930D01*
X62802Y120867D01*
X62876Y120851D01*
X62885Y120847D01*
X54047Y120847D01*
G37*
%LPD*%
%LPC*%
G36*
X104847Y120847D02*
X104847Y120847D01*
X104847Y127961D01*
X106009Y127961D01*
X112345Y121624D01*
X112403Y121575D01*
X112456Y121519D01*
X112591Y121415D01*
X112721Y121305D01*
X112787Y121265D01*
X112847Y121219D01*
X112997Y121138D01*
X113144Y121050D01*
X113215Y121022D01*
X113282Y120986D01*
X113443Y120930D01*
X113602Y120867D01*
X113676Y120851D01*
X113685Y120847D01*
X104847Y120847D01*
G37*
%LPD*%
%LPC*%
G36*
X130247Y120847D02*
X130247Y120847D01*
X130247Y127961D01*
X131409Y127961D01*
X137745Y121624D01*
X137803Y121575D01*
X137856Y121519D01*
X137991Y121415D01*
X138121Y121305D01*
X138187Y121265D01*
X138247Y121219D01*
X138397Y121138D01*
X138544Y121050D01*
X138615Y121022D01*
X138682Y120986D01*
X138843Y120930D01*
X139002Y120867D01*
X139076Y120851D01*
X139085Y120847D01*
X130247Y120847D01*
G37*
%LPD*%
%LPC*%
G36*
X79447Y120847D02*
X79447Y120847D01*
X79447Y127961D01*
X80609Y127961D01*
X86945Y121624D01*
X87003Y121575D01*
X87056Y121519D01*
X87191Y121415D01*
X87321Y121305D01*
X87387Y121265D01*
X87447Y121219D01*
X87597Y121138D01*
X87744Y121050D01*
X87815Y121022D01*
X87882Y120986D01*
X88043Y120930D01*
X88202Y120867D01*
X88276Y120851D01*
X88285Y120847D01*
X79447Y120847D01*
G37*
%LPD*%
%LPC*%
G36*
X54247Y527547D02*
X54247Y527547D01*
X54247Y534661D01*
X55409Y534661D01*
X61745Y528324D01*
X61803Y528275D01*
X61855Y528219D01*
X61991Y528115D01*
X62121Y528005D01*
X62187Y527965D01*
X62247Y527919D01*
X62397Y527838D01*
X62544Y527750D01*
X62614Y527722D01*
X62682Y527686D01*
X62843Y527630D01*
X63002Y527567D01*
X63076Y527551D01*
X63085Y527547D01*
X54247Y527547D01*
G37*
%LPD*%
%LPC*%
G36*
X130447Y527547D02*
X130447Y527547D01*
X130447Y534661D01*
X131609Y534661D01*
X137945Y528324D01*
X138003Y528275D01*
X138055Y528219D01*
X138191Y528115D01*
X138321Y528005D01*
X138387Y527965D01*
X138447Y527919D01*
X138597Y527838D01*
X138744Y527750D01*
X138814Y527722D01*
X138882Y527686D01*
X139043Y527630D01*
X139202Y527567D01*
X139276Y527551D01*
X139285Y527547D01*
X130447Y527547D01*
G37*
%LPD*%
%LPC*%
G36*
X28847Y527547D02*
X28847Y527547D01*
X28847Y534661D01*
X30009Y534661D01*
X36345Y528324D01*
X36403Y528275D01*
X36455Y528219D01*
X36591Y528115D01*
X36721Y528005D01*
X36787Y527965D01*
X36847Y527919D01*
X36997Y527838D01*
X37144Y527750D01*
X37214Y527722D01*
X37282Y527686D01*
X37443Y527630D01*
X37602Y527567D01*
X37676Y527551D01*
X37685Y527547D01*
X28847Y527547D01*
G37*
%LPD*%
%LPC*%
G36*
X79647Y527547D02*
X79647Y527547D01*
X79647Y534661D01*
X80809Y534661D01*
X87145Y528324D01*
X87203Y528275D01*
X87255Y528219D01*
X87391Y528115D01*
X87521Y528005D01*
X87587Y527965D01*
X87647Y527919D01*
X87797Y527838D01*
X87944Y527750D01*
X88014Y527722D01*
X88082Y527686D01*
X88243Y527630D01*
X88402Y527567D01*
X88476Y527551D01*
X88485Y527547D01*
X79647Y527547D01*
G37*
%LPD*%
%LPC*%
G36*
X105047Y527547D02*
X105047Y527547D01*
X105047Y534661D01*
X106209Y534661D01*
X112545Y528324D01*
X112603Y528275D01*
X112655Y528219D01*
X112791Y528115D01*
X112921Y528005D01*
X112987Y527965D01*
X113047Y527919D01*
X113197Y527838D01*
X113344Y527750D01*
X113414Y527722D01*
X113482Y527686D01*
X113643Y527630D01*
X113802Y527567D01*
X113876Y527551D01*
X113885Y527547D01*
X105047Y527547D01*
G37*
%LPD*%
%LPC*%
G36*
X97791Y514339D02*
X97791Y514339D01*
X91455Y520676D01*
X91397Y520725D01*
X91344Y520781D01*
X91209Y520885D01*
X91079Y520995D01*
X91013Y521035D01*
X90953Y521081D01*
X90803Y521162D01*
X90656Y521250D01*
X90585Y521278D01*
X90518Y521314D01*
X90357Y521370D01*
X90198Y521433D01*
X90124Y521449D01*
X90115Y521453D01*
X98953Y521453D01*
X98953Y514339D01*
X97791Y514339D01*
G37*
%LPD*%
%LPC*%
G36*
X72391Y514339D02*
X72391Y514339D01*
X66055Y520676D01*
X65997Y520725D01*
X65944Y520781D01*
X65809Y520885D01*
X65679Y520995D01*
X65613Y521035D01*
X65553Y521081D01*
X65403Y521162D01*
X65256Y521250D01*
X65185Y521278D01*
X65118Y521314D01*
X64957Y521370D01*
X64798Y521433D01*
X64724Y521449D01*
X64715Y521453D01*
X73553Y521453D01*
X73553Y514339D01*
X72391Y514339D01*
G37*
%LPD*%
%LPC*%
G36*
X46991Y514339D02*
X46991Y514339D01*
X40655Y520676D01*
X40597Y520725D01*
X40544Y520781D01*
X40409Y520885D01*
X40279Y520995D01*
X40213Y521035D01*
X40153Y521081D01*
X40003Y521162D01*
X39856Y521250D01*
X39785Y521278D01*
X39718Y521314D01*
X39557Y521370D01*
X39398Y521433D01*
X39324Y521449D01*
X39315Y521453D01*
X48153Y521453D01*
X48153Y514339D01*
X46991Y514339D01*
G37*
%LPD*%
%LPC*%
G36*
X148591Y514339D02*
X148591Y514339D01*
X142255Y520676D01*
X142197Y520725D01*
X142144Y520781D01*
X142009Y520885D01*
X141879Y520995D01*
X141813Y521035D01*
X141753Y521081D01*
X141603Y521162D01*
X141456Y521250D01*
X141385Y521278D01*
X141318Y521314D01*
X141157Y521370D01*
X140998Y521433D01*
X140924Y521449D01*
X140915Y521453D01*
X149753Y521453D01*
X149753Y514339D01*
X148591Y514339D01*
G37*
%LPD*%
%LPC*%
G36*
X123191Y514339D02*
X123191Y514339D01*
X116855Y520676D01*
X116797Y520725D01*
X116744Y520781D01*
X116609Y520885D01*
X116479Y520995D01*
X116413Y521035D01*
X116353Y521081D01*
X116203Y521162D01*
X116056Y521250D01*
X115985Y521278D01*
X115918Y521314D01*
X115757Y521370D01*
X115598Y521433D01*
X115524Y521449D01*
X115515Y521453D01*
X124353Y521453D01*
X124353Y514339D01*
X123191Y514339D01*
G37*
%LPD*%
%LPC*%
G36*
X148391Y107639D02*
X148391Y107639D01*
X142055Y113976D01*
X141997Y114025D01*
X141945Y114081D01*
X141809Y114185D01*
X141679Y114295D01*
X141613Y114335D01*
X141553Y114381D01*
X141403Y114462D01*
X141256Y114550D01*
X141186Y114578D01*
X141118Y114614D01*
X140957Y114670D01*
X140798Y114733D01*
X140724Y114749D01*
X140715Y114753D01*
X149553Y114753D01*
X149553Y107639D01*
X148391Y107639D01*
G37*
%LPD*%
%LPC*%
G36*
X122991Y107639D02*
X122991Y107639D01*
X116655Y113976D01*
X116597Y114025D01*
X116545Y114081D01*
X116409Y114185D01*
X116279Y114295D01*
X116213Y114335D01*
X116153Y114381D01*
X116003Y114462D01*
X115856Y114550D01*
X115786Y114578D01*
X115718Y114614D01*
X115557Y114670D01*
X115398Y114733D01*
X115324Y114749D01*
X115315Y114753D01*
X124153Y114753D01*
X124153Y107639D01*
X122991Y107639D01*
G37*
%LPD*%
%LPC*%
G36*
X97591Y107639D02*
X97591Y107639D01*
X91255Y113976D01*
X91197Y114025D01*
X91145Y114081D01*
X91009Y114185D01*
X90879Y114295D01*
X90813Y114335D01*
X90753Y114381D01*
X90603Y114462D01*
X90456Y114550D01*
X90386Y114578D01*
X90318Y114614D01*
X90157Y114670D01*
X89998Y114733D01*
X89924Y114749D01*
X89915Y114753D01*
X98753Y114753D01*
X98753Y107639D01*
X97591Y107639D01*
G37*
%LPD*%
%LPC*%
G36*
X72191Y107639D02*
X72191Y107639D01*
X65855Y113976D01*
X65797Y114025D01*
X65745Y114081D01*
X65609Y114185D01*
X65479Y114295D01*
X65413Y114335D01*
X65353Y114381D01*
X65203Y114462D01*
X65056Y114550D01*
X64986Y114578D01*
X64918Y114614D01*
X64757Y114670D01*
X64598Y114733D01*
X64524Y114749D01*
X64515Y114753D01*
X73353Y114753D01*
X73353Y107639D01*
X72191Y107639D01*
G37*
%LPD*%
%LPC*%
G36*
X46791Y107639D02*
X46791Y107639D01*
X40455Y113976D01*
X40397Y114025D01*
X40345Y114081D01*
X40209Y114185D01*
X40079Y114295D01*
X40013Y114335D01*
X39953Y114381D01*
X39803Y114462D01*
X39656Y114550D01*
X39586Y114578D01*
X39518Y114614D01*
X39357Y114670D01*
X39198Y114733D01*
X39124Y114749D01*
X39115Y114753D01*
X47953Y114753D01*
X47953Y107639D01*
X46791Y107639D01*
G37*
%LPD*%
%LPC*%
G36*
X155847Y527547D02*
X155847Y527547D01*
X155847Y534661D01*
X157009Y534661D01*
X162961Y528709D01*
X162961Y527547D01*
X155847Y527547D01*
G37*
%LPD*%
%LPC*%
G36*
X155647Y120847D02*
X155647Y120847D01*
X155647Y127961D01*
X156809Y127961D01*
X162761Y122009D01*
X162761Y120847D01*
X155647Y120847D01*
G37*
%LPD*%
%LPC*%
G36*
X155847Y514339D02*
X155847Y514339D01*
X155847Y521453D01*
X162961Y521453D01*
X162961Y520291D01*
X157009Y514339D01*
X155847Y514339D01*
G37*
%LPD*%
%LPC*%
G36*
X155647Y107639D02*
X155647Y107639D01*
X155647Y114753D01*
X162761Y114753D01*
X162761Y113591D01*
X156809Y107639D01*
X155647Y107639D01*
G37*
%LPD*%
%LPC*%
G36*
X61547Y208547D02*
X61547Y208547D01*
X61547Y215193D01*
X62400Y214916D01*
X63825Y214190D01*
X65119Y213250D01*
X66250Y212119D01*
X67190Y210825D01*
X67916Y209400D01*
X68193Y208547D01*
X61547Y208547D01*
G37*
%LPD*%
%LPC*%
G36*
X77247Y61547D02*
X77247Y61547D01*
X77247Y68193D01*
X78100Y67916D01*
X79525Y67190D01*
X80819Y66250D01*
X81950Y65119D01*
X82890Y63825D01*
X83616Y62400D01*
X83893Y61547D01*
X77247Y61547D01*
G37*
%LPD*%
%LPC*%
G36*
X77247Y55453D02*
X77247Y55453D01*
X83893Y55453D01*
X83616Y54600D01*
X82890Y53175D01*
X81950Y51881D01*
X80819Y50750D01*
X79525Y49810D01*
X78100Y49084D01*
X77247Y48807D01*
X77247Y55453D01*
G37*
%LPD*%
%LPC*%
G36*
X48807Y208547D02*
X48807Y208547D01*
X49084Y209400D01*
X49810Y210825D01*
X50750Y212119D01*
X51881Y213250D01*
X53175Y214190D01*
X54600Y214916D01*
X55453Y215193D01*
X55453Y208547D01*
X48807Y208547D01*
G37*
%LPD*%
D10*
X283100Y499110D02*
X259300Y499110D01*
X259300Y449110D02*
X283100Y449110D01*
D11*
X58500Y180100D03*
X58500Y205500D03*
X48800Y58500D03*
X74200Y58500D03*
D10*
X259300Y598910D02*
X283100Y598910D01*
X283100Y548910D02*
X259300Y548910D01*
X259300Y399110D02*
X283100Y399110D01*
X283100Y349110D02*
X259300Y349110D01*
X259300Y299110D02*
X283100Y299110D01*
X283100Y249110D02*
X259300Y249110D01*
X259300Y199110D02*
X283100Y199110D01*
X283100Y149110D02*
X259300Y149110D01*
X259300Y99010D02*
X283100Y99010D01*
X283100Y49010D02*
X259300Y49010D01*
D12*
X152600Y117800D03*
X127200Y117800D03*
X101800Y117800D03*
X76400Y117800D03*
X51000Y117800D03*
X25600Y117800D03*
D13*
X25800Y524500D03*
X51200Y524500D03*
X76600Y524500D03*
X102000Y524500D03*
X127400Y524500D03*
X152800Y524500D03*
D14*
X86500Y58500D02*
X74200Y58500D01*
X86500Y58500D02*
X90000Y55000D01*
X100001Y205097D02*
X110000Y205000D01*
X58500Y205500D02*
X52330Y205484D01*
X46162Y205318D01*
X40000Y205000D01*
X80003Y205291D02*
X100001Y205097D01*
X80003Y205291D02*
X58500Y205500D01*
M02*
