M48
;GenerationSoftware,Autodesk,EAGLE,9.3.0*%
;CreationDate,2019-06-24T16:25:16Z*%
FMAT,2
ICI,OFF
METRIC,TZ,000.000
T3C1.016
T2C1.400
T1C3.000
%
G90
M71
T1
X17000Y5000
X3500Y60000
X18500Y60000
T2
X27120Y49911
X27120Y44911
X27120Y59891
X27120Y54891
X27120Y39911
X27120Y34911
X27120Y29911
X27120Y24911
X27120Y19911
X27120Y14911
X27120Y9901
X27120Y4901
T3
X5850Y18010
X5850Y20550
X4880Y5850
X7420Y5850
X15260Y11780
X12720Y11780
X10180Y11780
X7640Y11780
X5100Y11780
X2560Y11780
X2580Y52450
X5120Y52450
X7660Y52450
X10200Y52450
X12740Y52450
X15280Y52450
M30