G04 EAGLE Gerber RS-274X export*
G75*
%MOMM*%
%FSLAX34Y34*%
%LPD*%
%IN*%
%IPPOS*%
%AMOC8*
5,1,8,0,0,1.08239X$1,22.5*%
G01*
%ADD10C,0.254000*%


D10*
X0Y12700D02*
X330300Y12900D01*
X330300Y635100D01*
X0Y634900D01*
X0Y12700D01*
X185000Y49464D02*
X184924Y48396D01*
X184771Y47335D01*
X184543Y46288D01*
X184241Y45260D01*
X183867Y44256D01*
X183422Y43281D01*
X182908Y42341D01*
X182329Y41440D01*
X181687Y40582D01*
X180985Y39772D01*
X180228Y39015D01*
X179418Y38313D01*
X178560Y37671D01*
X177659Y37092D01*
X176719Y36578D01*
X175744Y36133D01*
X174740Y35759D01*
X173712Y35457D01*
X172665Y35229D01*
X171604Y35076D01*
X170536Y35000D01*
X169464Y35000D01*
X168396Y35076D01*
X167335Y35229D01*
X166288Y35457D01*
X165260Y35759D01*
X164256Y36133D01*
X163281Y36578D01*
X162341Y37092D01*
X161440Y37671D01*
X160582Y38313D01*
X159772Y39015D01*
X159015Y39772D01*
X158313Y40582D01*
X157671Y41440D01*
X157092Y42341D01*
X156578Y43281D01*
X156133Y44256D01*
X155759Y45260D01*
X155457Y46288D01*
X155229Y47335D01*
X155076Y48396D01*
X155000Y49464D01*
X155000Y50536D01*
X155076Y51604D01*
X155229Y52665D01*
X155457Y53712D01*
X155759Y54740D01*
X156133Y55744D01*
X156578Y56719D01*
X157092Y57659D01*
X157671Y58560D01*
X158313Y59418D01*
X159015Y60228D01*
X159772Y60985D01*
X160582Y61687D01*
X161440Y62329D01*
X162341Y62908D01*
X163281Y63422D01*
X164256Y63867D01*
X165260Y64241D01*
X166288Y64543D01*
X167335Y64771D01*
X168396Y64924D01*
X169464Y65000D01*
X170536Y65000D01*
X171604Y64924D01*
X172665Y64771D01*
X173712Y64543D01*
X174740Y64241D01*
X175744Y63867D01*
X176719Y63422D01*
X177659Y62908D01*
X178560Y62329D01*
X179418Y61687D01*
X180228Y60985D01*
X180985Y60228D01*
X181687Y59418D01*
X182329Y58560D01*
X182908Y57659D01*
X183422Y56719D01*
X183867Y55744D01*
X184241Y54740D01*
X184543Y53712D01*
X184771Y52665D01*
X184924Y51604D01*
X185000Y50536D01*
X185000Y49464D01*
X50000Y599464D02*
X49924Y598396D01*
X49771Y597335D01*
X49543Y596288D01*
X49241Y595260D01*
X48867Y594256D01*
X48422Y593281D01*
X47908Y592341D01*
X47329Y591440D01*
X46687Y590582D01*
X45985Y589772D01*
X45228Y589015D01*
X44418Y588313D01*
X43560Y587671D01*
X42659Y587092D01*
X41719Y586578D01*
X40744Y586133D01*
X39740Y585759D01*
X38712Y585457D01*
X37665Y585229D01*
X36604Y585076D01*
X35536Y585000D01*
X34464Y585000D01*
X33396Y585076D01*
X32335Y585229D01*
X31288Y585457D01*
X30260Y585759D01*
X29256Y586133D01*
X28281Y586578D01*
X27341Y587092D01*
X26440Y587671D01*
X25582Y588313D01*
X24772Y589015D01*
X24015Y589772D01*
X23313Y590582D01*
X22671Y591440D01*
X22092Y592341D01*
X21578Y593281D01*
X21133Y594256D01*
X20759Y595260D01*
X20457Y596288D01*
X20229Y597335D01*
X20076Y598396D01*
X20000Y599464D01*
X20000Y600536D01*
X20076Y601604D01*
X20229Y602665D01*
X20457Y603712D01*
X20759Y604740D01*
X21133Y605744D01*
X21578Y606719D01*
X22092Y607659D01*
X22671Y608560D01*
X23313Y609418D01*
X24015Y610228D01*
X24772Y610985D01*
X25582Y611687D01*
X26440Y612329D01*
X27341Y612908D01*
X28281Y613422D01*
X29256Y613867D01*
X30260Y614241D01*
X31288Y614543D01*
X32335Y614771D01*
X33396Y614924D01*
X34464Y615000D01*
X35536Y615000D01*
X36604Y614924D01*
X37665Y614771D01*
X38712Y614543D01*
X39740Y614241D01*
X40744Y613867D01*
X41719Y613422D01*
X42659Y612908D01*
X43560Y612329D01*
X44418Y611687D01*
X45228Y610985D01*
X45985Y610228D01*
X46687Y609418D01*
X47329Y608560D01*
X47908Y607659D01*
X48422Y606719D01*
X48867Y605744D01*
X49241Y604740D01*
X49543Y603712D01*
X49771Y602665D01*
X49924Y601604D01*
X50000Y600536D01*
X50000Y599464D01*
X200000Y599464D02*
X199924Y598396D01*
X199771Y597335D01*
X199543Y596288D01*
X199241Y595260D01*
X198867Y594256D01*
X198422Y593281D01*
X197908Y592341D01*
X197329Y591440D01*
X196687Y590582D01*
X195985Y589772D01*
X195228Y589015D01*
X194418Y588313D01*
X193560Y587671D01*
X192659Y587092D01*
X191719Y586578D01*
X190744Y586133D01*
X189740Y585759D01*
X188712Y585457D01*
X187665Y585229D01*
X186604Y585076D01*
X185536Y585000D01*
X184464Y585000D01*
X183396Y585076D01*
X182335Y585229D01*
X181288Y585457D01*
X180260Y585759D01*
X179256Y586133D01*
X178281Y586578D01*
X177341Y587092D01*
X176440Y587671D01*
X175582Y588313D01*
X174772Y589015D01*
X174015Y589772D01*
X173313Y590582D01*
X172671Y591440D01*
X172092Y592341D01*
X171578Y593281D01*
X171133Y594256D01*
X170759Y595260D01*
X170457Y596288D01*
X170229Y597335D01*
X170076Y598396D01*
X170000Y599464D01*
X170000Y600536D01*
X170076Y601604D01*
X170229Y602665D01*
X170457Y603712D01*
X170759Y604740D01*
X171133Y605744D01*
X171578Y606719D01*
X172092Y607659D01*
X172671Y608560D01*
X173313Y609418D01*
X174015Y610228D01*
X174772Y610985D01*
X175582Y611687D01*
X176440Y612329D01*
X177341Y612908D01*
X178281Y613422D01*
X179256Y613867D01*
X180260Y614241D01*
X181288Y614543D01*
X182335Y614771D01*
X183396Y614924D01*
X184464Y615000D01*
X185536Y615000D01*
X186604Y614924D01*
X187665Y614771D01*
X188712Y614543D01*
X189740Y614241D01*
X190744Y613867D01*
X191719Y613422D01*
X192659Y612908D01*
X193560Y612329D01*
X194418Y611687D01*
X195228Y610985D01*
X195985Y610228D01*
X196687Y609418D01*
X197329Y608560D01*
X197908Y607659D01*
X198422Y606719D01*
X198867Y605744D01*
X199241Y604740D01*
X199543Y603712D01*
X199771Y602665D01*
X199924Y601604D01*
X200000Y600536D01*
X200000Y599464D01*
M02*
