G04 EAGLE Gerber RS-274X export*
G75*
%MOMM*%
%FSLAX34Y34*%
%LPD*%
%INSilkscreen Bottom*%
%IPPOS*%
%AMOC8*
5,1,8,0,0,1.08239X$1,22.5*%
G01*
%ADD10C,0.254000*%
%ADD11C,0.200000*%
%ADD12C,0.101600*%


D10*
X82075Y155800D02*
X24575Y155800D01*
X24575Y229800D01*
X82075Y229800D01*
X82075Y155800D01*
D11*
X81500Y205800D02*
X76500Y205800D01*
X76500Y179800D02*
X81500Y179800D01*
X76500Y179800D02*
X76500Y205800D01*
D12*
X8858Y153656D02*
X8858Y150608D01*
X8858Y153656D02*
X8860Y153745D01*
X8866Y153833D01*
X8875Y153921D01*
X8889Y154009D01*
X8906Y154096D01*
X8927Y154182D01*
X8952Y154267D01*
X8981Y154351D01*
X9013Y154434D01*
X9048Y154515D01*
X9088Y154594D01*
X9130Y154672D01*
X9176Y154748D01*
X9225Y154822D01*
X9278Y154893D01*
X9333Y154962D01*
X9392Y155029D01*
X9453Y155093D01*
X9517Y155154D01*
X9584Y155213D01*
X9653Y155268D01*
X9724Y155321D01*
X9798Y155370D01*
X9874Y155416D01*
X9952Y155458D01*
X10031Y155498D01*
X10112Y155533D01*
X10195Y155565D01*
X10279Y155594D01*
X10364Y155619D01*
X10450Y155640D01*
X10537Y155657D01*
X10625Y155671D01*
X10713Y155680D01*
X10801Y155686D01*
X10890Y155688D01*
X11906Y155688D01*
X11995Y155686D01*
X12083Y155680D01*
X12171Y155671D01*
X12259Y155657D01*
X12346Y155640D01*
X12432Y155619D01*
X12517Y155594D01*
X12601Y155565D01*
X12684Y155533D01*
X12765Y155498D01*
X12844Y155458D01*
X12922Y155416D01*
X12998Y155370D01*
X13072Y155321D01*
X13143Y155268D01*
X13212Y155213D01*
X13279Y155154D01*
X13343Y155093D01*
X13404Y155029D01*
X13463Y154962D01*
X13518Y154893D01*
X13571Y154822D01*
X13620Y154748D01*
X13666Y154672D01*
X13708Y154594D01*
X13748Y154515D01*
X13783Y154434D01*
X13815Y154351D01*
X13844Y154267D01*
X13869Y154182D01*
X13890Y154096D01*
X13907Y154009D01*
X13921Y153921D01*
X13930Y153833D01*
X13936Y153745D01*
X13938Y153656D01*
X13938Y150608D01*
X18002Y150608D01*
X18002Y155688D01*
X18002Y159244D02*
X8858Y162292D01*
X18002Y165340D01*
X7842Y168490D02*
X7842Y172554D01*
X8858Y178954D02*
X8860Y179043D01*
X8866Y179131D01*
X8875Y179219D01*
X8889Y179307D01*
X8906Y179394D01*
X8927Y179480D01*
X8952Y179565D01*
X8981Y179649D01*
X9013Y179732D01*
X9048Y179813D01*
X9088Y179892D01*
X9130Y179970D01*
X9176Y180046D01*
X9225Y180120D01*
X9278Y180191D01*
X9333Y180260D01*
X9392Y180327D01*
X9453Y180391D01*
X9517Y180452D01*
X9584Y180511D01*
X9653Y180566D01*
X9724Y180619D01*
X9798Y180668D01*
X9874Y180714D01*
X9952Y180756D01*
X10031Y180796D01*
X10112Y180831D01*
X10195Y180863D01*
X10279Y180892D01*
X10364Y180917D01*
X10450Y180938D01*
X10537Y180955D01*
X10625Y180969D01*
X10713Y180978D01*
X10801Y180984D01*
X10890Y180986D01*
X8858Y178954D02*
X8860Y178824D01*
X8866Y178693D01*
X8876Y178563D01*
X8890Y178434D01*
X8907Y178305D01*
X8929Y178176D01*
X8955Y178048D01*
X8984Y177921D01*
X9017Y177795D01*
X9054Y177670D01*
X9095Y177546D01*
X9140Y177424D01*
X9188Y177303D01*
X9240Y177183D01*
X9296Y177065D01*
X9355Y176949D01*
X9418Y176835D01*
X9484Y176722D01*
X9553Y176612D01*
X9626Y176504D01*
X9702Y176398D01*
X9781Y176294D01*
X9863Y176193D01*
X9949Y176095D01*
X10037Y175999D01*
X10128Y175906D01*
X15970Y176160D02*
X16059Y176162D01*
X16147Y176168D01*
X16235Y176177D01*
X16323Y176191D01*
X16410Y176208D01*
X16496Y176229D01*
X16581Y176254D01*
X16665Y176283D01*
X16748Y176315D01*
X16829Y176350D01*
X16908Y176390D01*
X16986Y176432D01*
X17062Y176478D01*
X17136Y176527D01*
X17207Y176580D01*
X17276Y176635D01*
X17343Y176694D01*
X17407Y176755D01*
X17468Y176819D01*
X17527Y176886D01*
X17582Y176955D01*
X17635Y177026D01*
X17684Y177100D01*
X17730Y177176D01*
X17772Y177254D01*
X17812Y177333D01*
X17847Y177414D01*
X17879Y177497D01*
X17908Y177581D01*
X17933Y177666D01*
X17954Y177752D01*
X17971Y177839D01*
X17985Y177927D01*
X17994Y178015D01*
X18000Y178103D01*
X18002Y178192D01*
X18000Y178315D01*
X17994Y178437D01*
X17984Y178559D01*
X17970Y178681D01*
X17953Y178802D01*
X17931Y178923D01*
X17906Y179043D01*
X17876Y179162D01*
X17843Y179280D01*
X17806Y179397D01*
X17766Y179512D01*
X17722Y179627D01*
X17674Y179740D01*
X17622Y179851D01*
X17567Y179960D01*
X17508Y180068D01*
X17446Y180174D01*
X17381Y180277D01*
X17312Y180379D01*
X17240Y180478D01*
X14192Y177176D02*
X14239Y177100D01*
X14289Y177026D01*
X14342Y176955D01*
X14399Y176886D01*
X14458Y176819D01*
X14520Y176755D01*
X14585Y176693D01*
X14653Y176635D01*
X14723Y176580D01*
X14795Y176527D01*
X14869Y176478D01*
X14946Y176432D01*
X15024Y176389D01*
X15105Y176350D01*
X15187Y176314D01*
X15270Y176282D01*
X15354Y176254D01*
X15440Y176229D01*
X15527Y176208D01*
X15615Y176191D01*
X15703Y176177D01*
X15792Y176168D01*
X15881Y176162D01*
X15970Y176160D01*
X12668Y179971D02*
X12621Y180047D01*
X12571Y180121D01*
X12518Y180192D01*
X12461Y180261D01*
X12402Y180328D01*
X12340Y180392D01*
X12275Y180454D01*
X12207Y180512D01*
X12137Y180567D01*
X12065Y180620D01*
X11991Y180669D01*
X11914Y180715D01*
X11836Y180758D01*
X11755Y180797D01*
X11673Y180833D01*
X11590Y180865D01*
X11506Y180893D01*
X11420Y180918D01*
X11333Y180939D01*
X11245Y180956D01*
X11157Y180970D01*
X11068Y180979D01*
X10979Y180985D01*
X10890Y180987D01*
X12668Y179970D02*
X14192Y177176D01*
X11398Y185050D02*
X18002Y185050D01*
X11398Y185050D02*
X11298Y185052D01*
X11199Y185058D01*
X11099Y185068D01*
X11001Y185081D01*
X10902Y185099D01*
X10805Y185120D01*
X10709Y185145D01*
X10613Y185174D01*
X10519Y185207D01*
X10426Y185243D01*
X10335Y185283D01*
X10245Y185327D01*
X10157Y185374D01*
X10071Y185424D01*
X9987Y185478D01*
X9905Y185535D01*
X9826Y185595D01*
X9748Y185659D01*
X9674Y185725D01*
X9602Y185794D01*
X9533Y185866D01*
X9467Y185940D01*
X9403Y186018D01*
X9343Y186097D01*
X9286Y186179D01*
X9232Y186263D01*
X9182Y186349D01*
X9135Y186437D01*
X9091Y186527D01*
X9051Y186618D01*
X9015Y186711D01*
X8982Y186805D01*
X8953Y186901D01*
X8928Y186997D01*
X8907Y187094D01*
X8889Y187193D01*
X8876Y187291D01*
X8866Y187391D01*
X8860Y187490D01*
X8858Y187590D01*
X8860Y187690D01*
X8866Y187789D01*
X8876Y187889D01*
X8889Y187987D01*
X8907Y188086D01*
X8928Y188183D01*
X8953Y188279D01*
X8982Y188375D01*
X9015Y188469D01*
X9051Y188562D01*
X9091Y188653D01*
X9135Y188743D01*
X9182Y188831D01*
X9232Y188917D01*
X9286Y189001D01*
X9343Y189083D01*
X9403Y189162D01*
X9467Y189240D01*
X9533Y189314D01*
X9602Y189386D01*
X9674Y189455D01*
X9748Y189521D01*
X9826Y189585D01*
X9905Y189645D01*
X9987Y189702D01*
X10071Y189756D01*
X10157Y189806D01*
X10245Y189853D01*
X10335Y189897D01*
X10426Y189937D01*
X10519Y189973D01*
X10613Y190006D01*
X10709Y190035D01*
X10805Y190060D01*
X10902Y190081D01*
X11001Y190099D01*
X11099Y190112D01*
X11199Y190122D01*
X11298Y190128D01*
X11398Y190130D01*
X18002Y190130D01*
X18002Y194956D02*
X8858Y194956D01*
X18002Y194956D02*
X18002Y197496D01*
X18000Y197596D01*
X17994Y197695D01*
X17984Y197795D01*
X17971Y197893D01*
X17953Y197992D01*
X17932Y198089D01*
X17907Y198185D01*
X17878Y198281D01*
X17845Y198375D01*
X17809Y198468D01*
X17769Y198559D01*
X17725Y198649D01*
X17678Y198737D01*
X17628Y198823D01*
X17574Y198907D01*
X17517Y198989D01*
X17457Y199068D01*
X17393Y199146D01*
X17327Y199220D01*
X17258Y199292D01*
X17186Y199361D01*
X17112Y199427D01*
X17034Y199491D01*
X16955Y199551D01*
X16873Y199608D01*
X16789Y199662D01*
X16703Y199712D01*
X16615Y199759D01*
X16525Y199803D01*
X16434Y199843D01*
X16341Y199879D01*
X16247Y199912D01*
X16151Y199941D01*
X16055Y199966D01*
X15958Y199987D01*
X15859Y200005D01*
X15761Y200018D01*
X15661Y200028D01*
X15562Y200034D01*
X15462Y200036D01*
X15362Y200034D01*
X15263Y200028D01*
X15163Y200018D01*
X15065Y200005D01*
X14966Y199987D01*
X14869Y199966D01*
X14773Y199941D01*
X14677Y199912D01*
X14583Y199879D01*
X14490Y199843D01*
X14399Y199803D01*
X14309Y199759D01*
X14221Y199712D01*
X14135Y199662D01*
X14051Y199608D01*
X13969Y199551D01*
X13890Y199491D01*
X13812Y199427D01*
X13738Y199361D01*
X13666Y199292D01*
X13597Y199220D01*
X13531Y199146D01*
X13467Y199068D01*
X13407Y198989D01*
X13350Y198907D01*
X13296Y198823D01*
X13246Y198737D01*
X13199Y198649D01*
X13155Y198559D01*
X13115Y198468D01*
X13079Y198375D01*
X13046Y198281D01*
X13017Y198185D01*
X12992Y198089D01*
X12971Y197992D01*
X12953Y197893D01*
X12940Y197795D01*
X12930Y197695D01*
X12924Y197596D01*
X12922Y197496D01*
X12922Y194956D01*
X8858Y204100D02*
X18002Y204100D01*
X18002Y206640D01*
X18000Y206740D01*
X17994Y206839D01*
X17984Y206939D01*
X17971Y207037D01*
X17953Y207136D01*
X17932Y207233D01*
X17907Y207329D01*
X17878Y207425D01*
X17845Y207519D01*
X17809Y207612D01*
X17769Y207703D01*
X17725Y207793D01*
X17678Y207881D01*
X17628Y207967D01*
X17574Y208051D01*
X17517Y208133D01*
X17457Y208212D01*
X17393Y208290D01*
X17327Y208364D01*
X17258Y208436D01*
X17186Y208505D01*
X17112Y208571D01*
X17034Y208635D01*
X16955Y208695D01*
X16873Y208752D01*
X16789Y208806D01*
X16703Y208856D01*
X16615Y208903D01*
X16525Y208947D01*
X16434Y208987D01*
X16341Y209023D01*
X16247Y209056D01*
X16151Y209085D01*
X16055Y209110D01*
X15958Y209131D01*
X15859Y209149D01*
X15761Y209162D01*
X15661Y209172D01*
X15562Y209178D01*
X15462Y209180D01*
X15362Y209178D01*
X15263Y209172D01*
X15163Y209162D01*
X15065Y209149D01*
X14966Y209131D01*
X14869Y209110D01*
X14773Y209085D01*
X14677Y209056D01*
X14583Y209023D01*
X14490Y208987D01*
X14399Y208947D01*
X14309Y208903D01*
X14221Y208856D01*
X14135Y208806D01*
X14051Y208752D01*
X13969Y208695D01*
X13890Y208635D01*
X13812Y208571D01*
X13738Y208505D01*
X13666Y208436D01*
X13597Y208364D01*
X13531Y208290D01*
X13467Y208212D01*
X13407Y208133D01*
X13350Y208051D01*
X13296Y207967D01*
X13246Y207881D01*
X13199Y207793D01*
X13155Y207703D01*
X13115Y207612D01*
X13079Y207519D01*
X13046Y207425D01*
X13017Y207329D01*
X12992Y207233D01*
X12971Y207136D01*
X12953Y207037D01*
X12940Y206939D01*
X12930Y206839D01*
X12924Y206740D01*
X12922Y206640D01*
X12922Y204100D01*
X8858Y213112D02*
X18002Y213112D01*
X8858Y213112D02*
X8858Y217176D01*
X13684Y223252D02*
X18002Y220204D01*
X13684Y223252D02*
X18002Y226300D01*
X13684Y223252D02*
X8858Y223252D01*
D10*
X24500Y92425D02*
X24500Y34925D01*
X24500Y92425D02*
X98500Y92425D01*
X98500Y34925D01*
X24500Y34925D01*
D11*
X74500Y35500D02*
X74500Y40500D01*
X48500Y40500D02*
X48500Y35500D01*
X48500Y40500D02*
X74500Y40500D01*
D12*
X97321Y21538D02*
X97323Y21638D01*
X97329Y21737D01*
X97339Y21837D01*
X97352Y21935D01*
X97370Y22034D01*
X97391Y22131D01*
X97416Y22227D01*
X97445Y22323D01*
X97478Y22417D01*
X97514Y22510D01*
X97554Y22601D01*
X97598Y22691D01*
X97645Y22779D01*
X97695Y22865D01*
X97749Y22949D01*
X97806Y23031D01*
X97866Y23110D01*
X97930Y23188D01*
X97996Y23262D01*
X98065Y23334D01*
X98137Y23403D01*
X98211Y23469D01*
X98289Y23533D01*
X98368Y23593D01*
X98450Y23650D01*
X98534Y23704D01*
X98620Y23754D01*
X98708Y23801D01*
X98798Y23845D01*
X98889Y23885D01*
X98982Y23921D01*
X99076Y23954D01*
X99172Y23983D01*
X99268Y24008D01*
X99365Y24029D01*
X99464Y24047D01*
X99562Y24060D01*
X99662Y24070D01*
X99761Y24076D01*
X99861Y24078D01*
X99961Y24076D01*
X100060Y24070D01*
X100160Y24060D01*
X100258Y24047D01*
X100357Y24029D01*
X100454Y24008D01*
X100550Y23983D01*
X100646Y23954D01*
X100740Y23921D01*
X100833Y23885D01*
X100924Y23845D01*
X101014Y23801D01*
X101102Y23754D01*
X101188Y23704D01*
X101272Y23650D01*
X101354Y23593D01*
X101433Y23533D01*
X101511Y23469D01*
X101585Y23403D01*
X101657Y23334D01*
X101726Y23262D01*
X101792Y23188D01*
X101856Y23110D01*
X101916Y23031D01*
X101973Y22949D01*
X102027Y22865D01*
X102077Y22779D01*
X102124Y22691D01*
X102168Y22601D01*
X102208Y22510D01*
X102244Y22417D01*
X102277Y22323D01*
X102306Y22227D01*
X102331Y22131D01*
X102352Y22034D01*
X102370Y21935D01*
X102383Y21837D01*
X102393Y21737D01*
X102399Y21638D01*
X102401Y21538D01*
X102399Y21438D01*
X102393Y21339D01*
X102383Y21239D01*
X102370Y21141D01*
X102352Y21042D01*
X102331Y20945D01*
X102306Y20849D01*
X102277Y20753D01*
X102244Y20659D01*
X102208Y20566D01*
X102168Y20475D01*
X102124Y20385D01*
X102077Y20297D01*
X102027Y20211D01*
X101973Y20127D01*
X101916Y20045D01*
X101856Y19966D01*
X101792Y19888D01*
X101726Y19814D01*
X101657Y19742D01*
X101585Y19673D01*
X101511Y19607D01*
X101433Y19543D01*
X101354Y19483D01*
X101272Y19426D01*
X101188Y19372D01*
X101102Y19322D01*
X101014Y19275D01*
X100924Y19231D01*
X100833Y19191D01*
X100740Y19155D01*
X100646Y19122D01*
X100550Y19093D01*
X100454Y19068D01*
X100357Y19047D01*
X100258Y19029D01*
X100160Y19016D01*
X100060Y19006D01*
X99961Y19000D01*
X99861Y18998D01*
X99761Y19000D01*
X99662Y19006D01*
X99562Y19016D01*
X99464Y19029D01*
X99365Y19047D01*
X99268Y19068D01*
X99172Y19093D01*
X99076Y19122D01*
X98982Y19155D01*
X98889Y19191D01*
X98798Y19231D01*
X98708Y19275D01*
X98620Y19322D01*
X98534Y19372D01*
X98450Y19426D01*
X98368Y19483D01*
X98289Y19543D01*
X98211Y19607D01*
X98137Y19673D01*
X98065Y19742D01*
X97996Y19814D01*
X97930Y19888D01*
X97866Y19966D01*
X97806Y20045D01*
X97749Y20127D01*
X97695Y20211D01*
X97645Y20297D01*
X97598Y20385D01*
X97554Y20475D01*
X97514Y20566D01*
X97478Y20659D01*
X97445Y20753D01*
X97416Y20849D01*
X97391Y20945D01*
X97370Y21042D01*
X97352Y21141D01*
X97339Y21239D01*
X97329Y21339D01*
X97323Y21438D01*
X97321Y21538D01*
X97829Y26110D02*
X97831Y26199D01*
X97837Y26287D01*
X97846Y26375D01*
X97860Y26463D01*
X97877Y26550D01*
X97898Y26636D01*
X97923Y26721D01*
X97952Y26805D01*
X97984Y26888D01*
X98019Y26969D01*
X98059Y27048D01*
X98101Y27126D01*
X98147Y27202D01*
X98196Y27276D01*
X98249Y27347D01*
X98304Y27416D01*
X98363Y27483D01*
X98424Y27547D01*
X98488Y27608D01*
X98555Y27667D01*
X98624Y27722D01*
X98695Y27775D01*
X98769Y27824D01*
X98845Y27870D01*
X98923Y27912D01*
X99002Y27952D01*
X99083Y27987D01*
X99166Y28019D01*
X99250Y28048D01*
X99335Y28073D01*
X99421Y28094D01*
X99508Y28111D01*
X99596Y28125D01*
X99684Y28134D01*
X99772Y28140D01*
X99861Y28142D01*
X99950Y28140D01*
X100038Y28134D01*
X100126Y28125D01*
X100214Y28111D01*
X100301Y28094D01*
X100387Y28073D01*
X100472Y28048D01*
X100556Y28019D01*
X100639Y27987D01*
X100720Y27952D01*
X100799Y27912D01*
X100877Y27870D01*
X100953Y27824D01*
X101027Y27775D01*
X101098Y27722D01*
X101167Y27667D01*
X101234Y27608D01*
X101298Y27547D01*
X101359Y27483D01*
X101418Y27416D01*
X101473Y27347D01*
X101526Y27276D01*
X101575Y27202D01*
X101621Y27126D01*
X101663Y27048D01*
X101703Y26969D01*
X101738Y26888D01*
X101770Y26805D01*
X101799Y26721D01*
X101824Y26636D01*
X101845Y26550D01*
X101862Y26463D01*
X101876Y26375D01*
X101885Y26287D01*
X101891Y26199D01*
X101893Y26110D01*
X101891Y26021D01*
X101885Y25933D01*
X101876Y25845D01*
X101862Y25757D01*
X101845Y25670D01*
X101824Y25584D01*
X101799Y25499D01*
X101770Y25415D01*
X101738Y25332D01*
X101703Y25251D01*
X101663Y25172D01*
X101621Y25094D01*
X101575Y25018D01*
X101526Y24944D01*
X101473Y24873D01*
X101418Y24804D01*
X101359Y24737D01*
X101298Y24673D01*
X101234Y24612D01*
X101167Y24553D01*
X101098Y24498D01*
X101027Y24445D01*
X100953Y24396D01*
X100877Y24350D01*
X100799Y24308D01*
X100720Y24268D01*
X100639Y24233D01*
X100556Y24201D01*
X100472Y24172D01*
X100387Y24147D01*
X100301Y24126D01*
X100214Y24109D01*
X100126Y24095D01*
X100038Y24086D01*
X99950Y24080D01*
X99861Y24078D01*
X99772Y24080D01*
X99684Y24086D01*
X99596Y24095D01*
X99508Y24109D01*
X99421Y24126D01*
X99335Y24147D01*
X99250Y24172D01*
X99166Y24201D01*
X99083Y24233D01*
X99002Y24268D01*
X98923Y24308D01*
X98845Y24350D01*
X98769Y24396D01*
X98695Y24445D01*
X98624Y24498D01*
X98555Y24553D01*
X98488Y24612D01*
X98424Y24673D01*
X98363Y24737D01*
X98304Y24804D01*
X98249Y24873D01*
X98196Y24944D01*
X98147Y25018D01*
X98101Y25094D01*
X98059Y25172D01*
X98019Y25251D01*
X97984Y25332D01*
X97952Y25415D01*
X97923Y25499D01*
X97898Y25584D01*
X97877Y25670D01*
X97860Y25757D01*
X97846Y25845D01*
X97837Y25933D01*
X97831Y26021D01*
X97829Y26110D01*
X93714Y19506D02*
X93714Y18998D01*
X93714Y19506D02*
X93206Y19506D01*
X93206Y18998D01*
X93714Y18998D01*
X89600Y18998D02*
X86552Y18998D01*
X86463Y19000D01*
X86375Y19006D01*
X86287Y19015D01*
X86199Y19029D01*
X86112Y19046D01*
X86026Y19067D01*
X85941Y19092D01*
X85857Y19121D01*
X85774Y19153D01*
X85693Y19188D01*
X85614Y19228D01*
X85536Y19270D01*
X85460Y19316D01*
X85386Y19365D01*
X85315Y19418D01*
X85246Y19473D01*
X85179Y19532D01*
X85115Y19593D01*
X85054Y19657D01*
X84995Y19724D01*
X84940Y19793D01*
X84887Y19864D01*
X84838Y19938D01*
X84792Y20014D01*
X84750Y20092D01*
X84710Y20171D01*
X84675Y20252D01*
X84643Y20335D01*
X84614Y20419D01*
X84589Y20504D01*
X84568Y20590D01*
X84551Y20677D01*
X84537Y20765D01*
X84528Y20853D01*
X84522Y20941D01*
X84520Y21030D01*
X84520Y22046D01*
X84522Y22135D01*
X84528Y22223D01*
X84537Y22311D01*
X84551Y22399D01*
X84568Y22486D01*
X84589Y22572D01*
X84614Y22657D01*
X84643Y22741D01*
X84675Y22824D01*
X84710Y22905D01*
X84750Y22984D01*
X84792Y23062D01*
X84838Y23138D01*
X84887Y23212D01*
X84940Y23283D01*
X84995Y23352D01*
X85054Y23419D01*
X85115Y23483D01*
X85179Y23544D01*
X85246Y23603D01*
X85315Y23658D01*
X85386Y23711D01*
X85460Y23760D01*
X85536Y23806D01*
X85614Y23848D01*
X85693Y23888D01*
X85774Y23923D01*
X85857Y23955D01*
X85941Y23984D01*
X86026Y24009D01*
X86112Y24030D01*
X86199Y24047D01*
X86287Y24061D01*
X86375Y24070D01*
X86463Y24076D01*
X86552Y24078D01*
X89600Y24078D01*
X89600Y28142D01*
X84520Y28142D01*
X80964Y28142D02*
X77916Y18998D01*
X74868Y28142D01*
X71718Y17982D02*
X67654Y17982D01*
X61253Y18998D02*
X61164Y19000D01*
X61076Y19006D01*
X60988Y19015D01*
X60900Y19029D01*
X60813Y19046D01*
X60727Y19067D01*
X60642Y19092D01*
X60558Y19121D01*
X60475Y19153D01*
X60394Y19188D01*
X60315Y19228D01*
X60237Y19270D01*
X60161Y19316D01*
X60087Y19365D01*
X60016Y19418D01*
X59947Y19473D01*
X59880Y19532D01*
X59816Y19593D01*
X59755Y19657D01*
X59696Y19724D01*
X59641Y19793D01*
X59588Y19864D01*
X59539Y19938D01*
X59493Y20014D01*
X59451Y20092D01*
X59411Y20171D01*
X59376Y20252D01*
X59344Y20335D01*
X59315Y20419D01*
X59290Y20504D01*
X59269Y20590D01*
X59252Y20677D01*
X59238Y20765D01*
X59229Y20853D01*
X59223Y20941D01*
X59221Y21030D01*
X61253Y18998D02*
X61383Y19000D01*
X61514Y19006D01*
X61644Y19016D01*
X61773Y19030D01*
X61902Y19047D01*
X62031Y19069D01*
X62159Y19095D01*
X62286Y19124D01*
X62412Y19157D01*
X62537Y19194D01*
X62661Y19235D01*
X62783Y19280D01*
X62904Y19328D01*
X63024Y19380D01*
X63142Y19436D01*
X63258Y19495D01*
X63372Y19558D01*
X63485Y19624D01*
X63595Y19693D01*
X63703Y19766D01*
X63809Y19842D01*
X63913Y19921D01*
X64014Y20003D01*
X64112Y20089D01*
X64208Y20177D01*
X64301Y20268D01*
X64047Y26110D02*
X64045Y26199D01*
X64039Y26287D01*
X64030Y26375D01*
X64016Y26463D01*
X63999Y26550D01*
X63978Y26636D01*
X63953Y26721D01*
X63924Y26805D01*
X63892Y26888D01*
X63857Y26969D01*
X63817Y27048D01*
X63775Y27126D01*
X63729Y27202D01*
X63680Y27276D01*
X63627Y27347D01*
X63572Y27416D01*
X63513Y27483D01*
X63452Y27547D01*
X63388Y27608D01*
X63321Y27667D01*
X63252Y27722D01*
X63181Y27775D01*
X63107Y27824D01*
X63031Y27870D01*
X62953Y27912D01*
X62874Y27952D01*
X62793Y27987D01*
X62710Y28019D01*
X62626Y28048D01*
X62541Y28073D01*
X62455Y28094D01*
X62368Y28111D01*
X62280Y28125D01*
X62192Y28134D01*
X62104Y28140D01*
X62015Y28142D01*
X61892Y28140D01*
X61770Y28134D01*
X61648Y28124D01*
X61526Y28110D01*
X61405Y28093D01*
X61284Y28071D01*
X61164Y28046D01*
X61045Y28016D01*
X60927Y27983D01*
X60810Y27946D01*
X60695Y27906D01*
X60580Y27862D01*
X60467Y27814D01*
X60356Y27762D01*
X60247Y27707D01*
X60139Y27648D01*
X60033Y27586D01*
X59930Y27521D01*
X59828Y27452D01*
X59729Y27380D01*
X63032Y24332D02*
X63108Y24379D01*
X63182Y24429D01*
X63253Y24482D01*
X63322Y24539D01*
X63389Y24598D01*
X63453Y24660D01*
X63515Y24725D01*
X63573Y24793D01*
X63628Y24863D01*
X63681Y24935D01*
X63730Y25009D01*
X63776Y25086D01*
X63819Y25164D01*
X63858Y25245D01*
X63894Y25327D01*
X63926Y25410D01*
X63954Y25494D01*
X63979Y25580D01*
X64000Y25667D01*
X64017Y25755D01*
X64031Y25843D01*
X64040Y25932D01*
X64046Y26021D01*
X64048Y26110D01*
X60237Y22808D02*
X60161Y22761D01*
X60087Y22711D01*
X60016Y22658D01*
X59947Y22601D01*
X59880Y22542D01*
X59816Y22480D01*
X59754Y22415D01*
X59696Y22347D01*
X59641Y22277D01*
X59588Y22205D01*
X59539Y22131D01*
X59493Y22054D01*
X59450Y21976D01*
X59411Y21895D01*
X59375Y21813D01*
X59343Y21730D01*
X59315Y21646D01*
X59290Y21560D01*
X59269Y21473D01*
X59252Y21385D01*
X59238Y21297D01*
X59229Y21208D01*
X59223Y21119D01*
X59221Y21030D01*
X60237Y22808D02*
X63031Y24332D01*
X55157Y21538D02*
X55157Y28142D01*
X55157Y21538D02*
X55155Y21438D01*
X55149Y21339D01*
X55139Y21239D01*
X55126Y21141D01*
X55108Y21042D01*
X55087Y20945D01*
X55062Y20849D01*
X55033Y20753D01*
X55000Y20659D01*
X54964Y20566D01*
X54924Y20475D01*
X54880Y20385D01*
X54833Y20297D01*
X54783Y20211D01*
X54729Y20127D01*
X54672Y20045D01*
X54612Y19966D01*
X54548Y19888D01*
X54482Y19814D01*
X54413Y19742D01*
X54341Y19673D01*
X54267Y19607D01*
X54189Y19543D01*
X54110Y19483D01*
X54028Y19426D01*
X53944Y19372D01*
X53858Y19322D01*
X53770Y19275D01*
X53680Y19231D01*
X53589Y19191D01*
X53496Y19155D01*
X53402Y19122D01*
X53306Y19093D01*
X53210Y19068D01*
X53113Y19047D01*
X53014Y19029D01*
X52916Y19016D01*
X52816Y19006D01*
X52717Y19000D01*
X52617Y18998D01*
X52517Y19000D01*
X52418Y19006D01*
X52318Y19016D01*
X52220Y19029D01*
X52121Y19047D01*
X52024Y19068D01*
X51928Y19093D01*
X51832Y19122D01*
X51738Y19155D01*
X51645Y19191D01*
X51554Y19231D01*
X51464Y19275D01*
X51376Y19322D01*
X51290Y19372D01*
X51206Y19426D01*
X51124Y19483D01*
X51045Y19543D01*
X50967Y19607D01*
X50893Y19673D01*
X50821Y19742D01*
X50752Y19814D01*
X50686Y19888D01*
X50622Y19966D01*
X50562Y20045D01*
X50505Y20127D01*
X50451Y20211D01*
X50401Y20297D01*
X50354Y20385D01*
X50310Y20475D01*
X50270Y20566D01*
X50234Y20659D01*
X50201Y20753D01*
X50172Y20849D01*
X50147Y20945D01*
X50126Y21042D01*
X50108Y21141D01*
X50095Y21239D01*
X50085Y21339D01*
X50079Y21438D01*
X50077Y21538D01*
X50077Y28142D01*
X45251Y28142D02*
X45251Y18998D01*
X45251Y28142D02*
X42711Y28142D01*
X42611Y28140D01*
X42512Y28134D01*
X42412Y28124D01*
X42314Y28111D01*
X42215Y28093D01*
X42118Y28072D01*
X42022Y28047D01*
X41926Y28018D01*
X41832Y27985D01*
X41739Y27949D01*
X41648Y27909D01*
X41558Y27865D01*
X41470Y27818D01*
X41384Y27768D01*
X41300Y27714D01*
X41218Y27657D01*
X41139Y27597D01*
X41061Y27533D01*
X40987Y27467D01*
X40915Y27398D01*
X40846Y27326D01*
X40780Y27252D01*
X40716Y27174D01*
X40656Y27095D01*
X40599Y27013D01*
X40545Y26929D01*
X40495Y26843D01*
X40448Y26755D01*
X40404Y26665D01*
X40364Y26574D01*
X40328Y26481D01*
X40295Y26387D01*
X40266Y26291D01*
X40241Y26195D01*
X40220Y26098D01*
X40202Y25999D01*
X40189Y25901D01*
X40179Y25801D01*
X40173Y25702D01*
X40171Y25602D01*
X40173Y25502D01*
X40179Y25403D01*
X40189Y25303D01*
X40202Y25205D01*
X40220Y25106D01*
X40241Y25009D01*
X40266Y24913D01*
X40295Y24817D01*
X40328Y24723D01*
X40364Y24630D01*
X40404Y24539D01*
X40448Y24449D01*
X40495Y24361D01*
X40545Y24275D01*
X40599Y24191D01*
X40656Y24109D01*
X40716Y24030D01*
X40780Y23952D01*
X40846Y23878D01*
X40915Y23806D01*
X40987Y23737D01*
X41061Y23671D01*
X41139Y23607D01*
X41218Y23547D01*
X41300Y23490D01*
X41384Y23436D01*
X41470Y23386D01*
X41558Y23339D01*
X41648Y23295D01*
X41739Y23255D01*
X41832Y23219D01*
X41926Y23186D01*
X42022Y23157D01*
X42118Y23132D01*
X42215Y23111D01*
X42314Y23093D01*
X42412Y23080D01*
X42512Y23070D01*
X42611Y23064D01*
X42711Y23062D01*
X45251Y23062D01*
X36108Y18998D02*
X36108Y28142D01*
X33568Y28142D01*
X33468Y28140D01*
X33369Y28134D01*
X33269Y28124D01*
X33171Y28111D01*
X33072Y28093D01*
X32975Y28072D01*
X32879Y28047D01*
X32783Y28018D01*
X32689Y27985D01*
X32596Y27949D01*
X32505Y27909D01*
X32415Y27865D01*
X32327Y27818D01*
X32241Y27768D01*
X32157Y27714D01*
X32075Y27657D01*
X31996Y27597D01*
X31918Y27533D01*
X31844Y27467D01*
X31772Y27398D01*
X31703Y27326D01*
X31637Y27252D01*
X31573Y27174D01*
X31513Y27095D01*
X31456Y27013D01*
X31402Y26929D01*
X31352Y26843D01*
X31305Y26755D01*
X31261Y26665D01*
X31221Y26574D01*
X31185Y26481D01*
X31152Y26387D01*
X31123Y26291D01*
X31098Y26195D01*
X31077Y26098D01*
X31059Y25999D01*
X31046Y25901D01*
X31036Y25801D01*
X31030Y25702D01*
X31028Y25602D01*
X31030Y25502D01*
X31036Y25403D01*
X31046Y25303D01*
X31059Y25205D01*
X31077Y25106D01*
X31098Y25009D01*
X31123Y24913D01*
X31152Y24817D01*
X31185Y24723D01*
X31221Y24630D01*
X31261Y24539D01*
X31305Y24449D01*
X31352Y24361D01*
X31402Y24275D01*
X31456Y24191D01*
X31513Y24109D01*
X31573Y24030D01*
X31637Y23952D01*
X31703Y23878D01*
X31772Y23806D01*
X31844Y23737D01*
X31918Y23671D01*
X31996Y23607D01*
X32075Y23547D01*
X32157Y23490D01*
X32241Y23436D01*
X32327Y23386D01*
X32415Y23339D01*
X32505Y23295D01*
X32596Y23255D01*
X32689Y23219D01*
X32783Y23186D01*
X32879Y23157D01*
X32975Y23132D01*
X33072Y23111D01*
X33171Y23093D01*
X33269Y23080D01*
X33369Y23070D01*
X33468Y23064D01*
X33568Y23062D01*
X36108Y23062D01*
X27096Y18998D02*
X27096Y28142D01*
X27096Y18998D02*
X23032Y18998D01*
X16956Y23824D02*
X20004Y28142D01*
X16956Y23824D02*
X13908Y28142D01*
X16956Y23824D02*
X16956Y18998D01*
M02*
