M48
;GenerationSoftware,Autodesk,EAGLE,9.3.0*%
;CreationDate,2019-08-30T13:15:48Z*%
FMAT,2
ICI,OFF
METRIC,TZ,000.000
T8C0.350
T7C0.500
T6C0.800
T5C0.813
T4C1.016
T3C1.118
T2C1.499
T1C3.000
%
G90
M71
T1
X3760Y21500
X80500Y24500
X115500Y6250
X3760Y72500
X131260Y72500
X131260Y21500
T2
X126000Y11130
X126000Y26370
T3
X14150Y15500
X9060Y17924
X9060Y28084
X26850Y15500
T4
X109230Y40750
X111770Y45250
X109230Y45250
X109230Y50250
X111770Y40750
X103460Y61500
X106000Y61500
X108540Y61500
X120500Y26000
X75500Y26000
X75500Y4750
X111770Y50250
X17090Y63040
X120500Y4750
X22730Y4500
X25238Y21584
X116730Y60500
X119270Y60500
X127440Y6930
X129980Y6930
X7220Y3640
X4680Y3640
X15970Y3570
X13430Y3570
X5490Y33970
X130000Y33990
X130000Y36530
X130000Y39070
X55590Y53960
X55590Y59040
X22170Y63040
X24710Y63040
X19630Y63040
X5490Y39050
X5490Y36510
X25270Y4500
X17618Y21584
X20158Y21584
X22698Y21584
T5
X90090Y44600
X90090Y42060
X90090Y39520
X90090Y36980
X103090Y36980
X103090Y39520
X103090Y42060
X103090Y44600
X103090Y47140
X103090Y49680
X103090Y52220
X103090Y54760
X66780Y20500
X64240Y20500
X59160Y20500
X56620Y20500
X54080Y20500
X51540Y20500
X49000Y20500
X46460Y20500
X43920Y20500
X41380Y20500
X38840Y20500
X36300Y20500
X33760Y20500
X31220Y20500
X31220Y5500
X33760Y5500
X36300Y5500
X38840Y5500
X41380Y5500
X43920Y5500
X46460Y5500
X49000Y5500
X51540Y5500
X54080Y5500
X56620Y5500
X59160Y5500
X61700Y5500
X64240Y5500
X66780Y5500
X35744Y25488
X35744Y33108
X30816Y37070
X23196Y37070
X30806Y32610
X23186Y32610
X30786Y28280
X23166Y28280
X40070Y25400
X40070Y33020
X44420Y25388
X44420Y33008
X48750Y25320
X48750Y32940
X53240Y25340
X53240Y32960
X61700Y20500
X57630Y32900
X61918Y25240
X61918Y32860
X66288Y25182
X66288Y32802
X30826Y40980
X23206Y40980
X25440Y46510
X27980Y46510
X30520Y46510
X33060Y46510
X35600Y46510
X38140Y46510
X40680Y46510
X43220Y46510
X45760Y46510
X45760Y54130
X43220Y54130
X40680Y54130
X38140Y54130
X35600Y54130
X33060Y54130
X30520Y54130
X27980Y54130
X25440Y54130
X58180Y39140
X60720Y39140
X63260Y39140
X65800Y39140
X68340Y39140
X70880Y39140
X73420Y39140
X75960Y39140
X78500Y39140
X78500Y46760
X75960Y46760
X73420Y46760
X70880Y46760
X68340Y46760
X65800Y46760
X63260Y46760
X60720Y46760
X58180Y46760
X5000Y47770
X5000Y45230
X130500Y47770
X130500Y45230
X9820Y42810
X9820Y35190
X122000Y43810
X122000Y36190
X57630Y25280
X84290Y55770
X79210Y55770
X81750Y55770
X67500Y59270
X67500Y56730
X122000Y54810
X122000Y47190
X90090Y54760
X31000Y57440
X31000Y65060
X35000Y65060
X35000Y57440
X56310Y17500
X48690Y17500
X90090Y52220
X90090Y49680
X90090Y47140
T6
X18672Y30662
X15172Y30662
T7
X16050Y45500
X16050Y48000
X16050Y46750
X16050Y44250
X16050Y43000
X16050Y41750
X16050Y40500
X16050Y39250
X16050Y38000
X16050Y53000
X16050Y51750
X16050Y50500
X16050Y49250
T8
X54000Y64500
X31500Y17000
X47000Y49000
X33000Y36500
X55500Y52000
X54500Y51000
X91500Y57000
X53500Y51000
X53500Y50000
X37500Y51000
X35000Y51000
X44000Y35500
X62000Y59250
X39500Y3500
X19000Y15000
X50500Y3500
X40000Y63500
X67000Y29000
X20500Y16500
X41000Y61500
X44000Y65500
X27000Y62500
X38500Y30500
X45500Y35500
M30