M48
;GenerationSoftware,Autodesk,EAGLE,9.3.0*%
;CreationDate,2019-06-23T21:09:55Z*%
FMAT,2
ICI,OFF
METRIC,TZ,000.000
T8C0.350
T7C0.650
T6C0.800
T5C0.813
T4C1.016
T3C1.118
T2C3.000
T1C6.000
%
G90
M71
T1
X55000Y30000
T2
X107000Y3000
X107000Y56500
X3000Y56500
X3000Y3000
T3
X104850Y9000
X97000Y29080
X97000Y18920
X92150Y9000
T4
X68580Y5080
X105640Y29900
X73660Y5080
X83660Y54840
X81120Y54840
X71120Y5080
X105640Y32440
X10660Y53070
X105640Y21780
X105640Y19240
X78580Y54840
X31750Y53070
X29210Y53070
X26670Y53070
X34290Y53070
X101600Y40330
X99060Y40330
X96520Y40330
X104140Y40330
X101600Y48720
X99060Y48720
X96520Y48720
X104140Y48720
X94250Y2310
X96790Y2310
X80430Y40370
X80430Y42910
X84740Y40370
X84740Y42910
X89050Y40370
X89050Y42910
X30670Y40600
X33210Y40600
X30670Y36290
X33210Y36290
X30670Y31980
X33210Y31980
X18280Y53070
X13200Y53070
X15740Y53070
X99330Y2310
T5
X20500Y46890
X3220Y8000
X5760Y8000
X8300Y8000
X10840Y8000
X13380Y8000
X15920Y8000
X18460Y8000
X21000Y8000
X23540Y8000
X26080Y8000
X28620Y8000
X31160Y8000
X33700Y8000
X36240Y8000
X38780Y8000
X90000Y27310
X36240Y23000
X33700Y23000
X31160Y23000
X28620Y23000
X26080Y23000
X23540Y23000
X21000Y23000
X18460Y23000
X15920Y23000
X13380Y23000
X10840Y23000
X8300Y23000
X5760Y23000
X3220Y23000
X55000Y54270
X55000Y51730
X54990Y5220
X54990Y7760
X47070Y54110
X39450Y54110
X50070Y9810
X42450Y9810
X77000Y32390
X77000Y29850
X77000Y27310
X77000Y24770
X77000Y22230
X77000Y19690
X77000Y17150
X77000Y14610
X90000Y14610
X90000Y17150
X90000Y19690
X90000Y22230
X90000Y24770
X90000Y29850
X38780Y23000
X90000Y32390
X7500Y46890
X7500Y44350
X7500Y41810
X7500Y39270
X7500Y36730
X7500Y34190
X7500Y31650
X7500Y29110
X20500Y29110
X20500Y31650
X20500Y34190
X20500Y36730
X20500Y39270
X20500Y41810
X20500Y44350
T6
X84480Y4720
X84480Y8220
T7
X71500Y46000
X87000Y48500
X102000Y25000
X94500Y31000
T8
X24500Y26000
X9500Y27500
X61500Y14500
X82000Y33500
X81500Y8500
X14500Y24500
M30